<svg width="24" height="24" viewBox="0 0 24 24" fill="none" xmlns="http://www.w3.org/2000/svg">
<path d="M12 7.88965L10.93 9.74965C10.69 10.1596 10.89 10.4996 11.36 10.4996H12.63C13.11 10.4996 13.3 10.8396 13.06 11.2496L12 13.1096" stroke="#211B2A" stroke-width="1.5" stroke-linecap="round" stroke-linejoin="round"/>
<path d="M8.29999 18.0402V16.8802C5.99999 15.4902 4.10999 12.7802 4.10999 9.90018C4.10999 4.95018 8.65999 1.07018 13.8 2.19018C16.06 2.69018 18.04 4.19018 19.07 6.26018C21.16 10.4602 18.96 14.9202 15.73 16.8702V18.0302C15.73 18.3202 15.84 18.9902 14.77 18.9902H9.25999C8.15999 19.0002 8.29999 18.5702 8.29999 18.0402Z" stroke="#211B2A" stroke-width="1.5" stroke-linecap="round" stroke-linejoin="round"/>
<path d="M8.5 22.0002C10.79 21.3502 13.21 21.3502 15.5 22.0002" stroke="#211B2A" stroke-width="1.5" stroke-linecap="round" stroke-linejoin="round"/>
</svg>
