<svg width="24" height="24" viewBox="0 0 24 24" fill="none" xmlns="http://www.w3.org/2000/svg">
<path d="M20.03 2.48047L4.17999 18.3305" stroke="#211B2A" stroke-width="1.5" stroke-linecap="round" stroke-linejoin="round"/>
<path d="M13.6 2.16992C15.06 2.48992 16.36 3.26992 17.36 4.34992" stroke="#211B2A" stroke-width="1.5" stroke-linecap="round" stroke-linejoin="round"/>
<path d="M5.25 12.9998C4.83 12.0298 4.58 10.9798 4.58 9.89977C4.58 6.51976 6.57 3.63977 9.38 2.50977" stroke="#211B2A" stroke-width="1.5" stroke-linecap="round" stroke-linejoin="round"/>
<path d="M19.06 7.30078C20.28 11.1808 18.31 15.0808 15.52 16.8708V18.0308C15.52 18.3208 15.62 18.9908 14.62 18.9908H9.42C8.39 18.9908 8.52 18.5608 8.52 18.0308V16.8708C8.04 16.5708 7.59 16.2008 7.16 15.7708" stroke="#211B2A" stroke-width="1.5" stroke-linecap="round" stroke-linejoin="round"/>
<path d="M8.5 21.9992C10.79 21.3492 13.21 21.3492 15.5 21.9992" stroke="#211B2A" stroke-width="1.5" stroke-linecap="round" stroke-linejoin="round"/>
</svg>
