<svg width="24" height="24" viewBox="0 0 24 24" fill="none" xmlns="http://www.w3.org/2000/svg">
<path d="M4.17999 19.0799C3.98999 19.0799 3.8 19.0099 3.65 18.8599C3.36 18.5699 3.36 18.0899 3.65 17.7999L19.5 1.94992C19.79 1.65992 20.27 1.65992 20.56 1.94992C20.85 2.23992 20.85 2.71992 20.56 3.00992L4.71 18.8599C4.56 19.0099 4.36999 19.0799 4.17999 19.0799Z" fill="#211B2A"/>
<path d="M5.25001 13.75C4.96001 13.75 4.69001 13.58 4.56001 13.3C4.07001 12.18 3.82001 11.04 3.82001 9.90001C3.82001 7.18001 5.00001 4.67001 7.05001 3.01001C8.97001 1.47001 11.35 0.910008 13.75 1.44001C15.33 1.79001 16.77 2.62001 17.9 3.84001C18.18 4.14001 18.16 4.62001 17.86 4.90001C17.56 5.18001 17.08 5.16001 16.8 4.86001C15.87 3.86001 14.71 3.18001 13.43 2.90001C11.48 2.48001 9.55001 2.93001 8.00001 4.18001C6.30001 5.55001 5.33001 7.63001 5.33001 9.90001C5.33001 10.83 5.54001 11.77 5.94001 12.7C6.11001 13.08 5.93001 13.52 5.55001 13.69C5.45001 13.73 5.35001 13.75 5.25001 13.75Z" fill="#211B2A"/>
<path d="M14.61 19.7502H9.42001C9.03001 19.7502 8.48001 19.7102 8.11001 19.3302C7.75001 18.9602 7.76001 18.4902 7.77001 18.1802V17.2702C7.37001 16.9902 6.99001 16.6702 6.63001 16.3102C6.34001 16.0202 6.34001 15.5402 6.63001 15.2502C6.92001 14.9602 7.40001 14.9602 7.69001 15.2502C8.08001 15.6302 8.49001 15.9702 8.92001 16.2502C9.13001 16.3902 9.27001 16.6302 9.27001 16.8802V18.2202C9.27001 18.2302 9.27001 18.2402 9.27001 18.2502C9.31001 18.2502 9.36001 18.2502 9.43001 18.2502H14.62C14.69 18.2502 14.74 18.2502 14.78 18.2402C14.78 18.2002 14.78 18.1602 14.78 18.1302V16.8702C14.78 16.6102 14.91 16.3802 15.13 16.2402C17.6 14.6602 19.5 11.1602 18.36 7.5302C18.24 7.1302 18.46 6.7102 18.85 6.5902C19.24 6.4602 19.67 6.69019 19.79 7.08019C21.1 11.2602 19.06 15.2902 16.28 17.2702V18.0402C16.29 18.3502 16.3 18.8802 15.89 19.3002C15.58 19.6002 15.16 19.7502 14.61 19.7502Z" fill="#211B2A"/>
<path d="M15.5 22.7504C15.43 22.7504 15.36 22.7404 15.29 22.7204C13.13 22.1004 10.86 22.1004 8.7 22.7204C8.3 22.8304 7.89 22.6004 7.77 22.2004C7.65 21.8004 7.89 21.3904 8.29 21.2704C10.71 20.5804 13.28 20.5804 15.7 21.2704C16.1 21.3804 16.33 21.8004 16.22 22.2004C16.13 22.5404 15.83 22.7504 15.5 22.7504Z" fill="#211B2A"/>
</svg>
