<svg width="24" height="24" viewBox="0 0 24 24" fill="none" xmlns="http://www.w3.org/2000/svg">
<path d="M20.03 2.48047L4.17999 18.3305" stroke="#211B2A" stroke-width="1.5" stroke-linecap="round" stroke-linejoin="round"/>
<path d="M5.25 13.0002C4.83 12.0302 4.58 10.9802 4.58 9.90017C4.58 4.99017 8.8 1.12017 13.6 2.17017C15.06 2.49017 16.36 3.27017 17.36 4.35017" stroke="#211B2A" stroke-width="1.5" stroke-linecap="round" stroke-linejoin="round"/>
<path d="M19.06 7.2998C20.28 11.1798 18.31 15.0798 15.52 16.8698V18.0298C15.52 18.3198 15.62 18.9898 14.62 18.9898H9.42C8.39 18.9898 8.52 18.5598 8.52 18.0298V16.8698C8.04 16.5698 7.59 16.1998 7.16 15.7698" stroke="#211B2A" stroke-width="1.5" stroke-linecap="round" stroke-linejoin="round"/>
<path d="M8.5 22.0002C10.79 21.3502 13.21 21.3502 15.5 22.0002" stroke="#211B2A" stroke-width="1.5" stroke-linecap="round" stroke-linejoin="round"/>
</svg>
