<svg width="24" height="24" viewBox="0 0 24 24" fill="none" xmlns="http://www.w3.org/2000/svg">
<path opacity="0.4" d="M19.21 6.35952C18.17 4.25952 16.16 2.70952 13.83 2.19952C11.39 1.65952 8.89 2.23952 6.98 3.77952C5.06 5.30952 3.97 7.59952 3.97 10.0495C3.97 12.6395 5.52 15.3495 7.86 16.9195V17.7495C7.85 18.0295 7.84 18.4595 8.18 18.8095C8.53 19.1695 9.05 19.2095 9.46 19.2095H14.59C15.13 19.2095 15.54 19.0595 15.82 18.7795C16.2 18.3895 16.19 17.8895 16.18 17.6195V16.9195C19.28 14.8295 21.23 10.4195 19.21 6.35952Z" fill="#211B2A"/>
<path d="M15.26 22.0004C15.2 22.0004 15.13 21.9904 15.07 21.9704C13.06 21.4004 10.95 21.4004 8.94 21.9704C8.57 22.0704 8.18 21.8604 8.08 21.4904C7.97 21.1204 8.19 20.7304 8.56 20.6304C10.82 19.9904 13.2 19.9904 15.46 20.6304C15.83 20.7404 16.05 21.1204 15.94 21.4904C15.84 21.8004 15.56 22.0004 15.26 22.0004Z" fill="#211B2A"/>
<path d="M12 13.8509C11.87 13.8509 11.74 13.8209 11.63 13.7509C11.27 13.5409 11.15 13.0809 11.35 12.7309L12.2 11.2509H11.36C10.86 11.2509 10.45 11.0309 10.23 10.6609C10.01 10.2809 10.03 9.82088 10.28 9.38088L11.35 7.52088C11.56 7.16088 12.02 7.04088 12.37 7.24088C12.73 7.45088 12.85 7.91088 12.65 8.26088L11.8 9.75088H12.64C13.14 9.75088 13.55 9.97088 13.77 10.3409C13.99 10.7209 13.97 11.1809 13.72 11.6209L12.65 13.4809C12.51 13.7209 12.26 13.8509 12 13.8509Z" fill="#211B2A"/>
</svg>
