<svg width="24" height="24" viewBox="0 0 24 24" fill="none" xmlns="http://www.w3.org/2000/svg">
<path d="M19.07 6.27018C21.16 10.4702 18.96 14.9302 15.73 16.8802V18.0402C15.73 18.3302 15.84 19.0002 14.77 19.0002H9.25999C8.15999 19.0002 8.29999 18.5702 8.29999 18.0402V16.8802C5.99999 15.4902 4.10999 12.7802 4.10999 9.90018C4.10999 4.95018 8.65999 1.07018 13.8 2.19018C14.55 2.36018 15.28 2.63018 15.94 3.00018" stroke="#211B2A" stroke-width="1.5" stroke-linecap="round" stroke-linejoin="round"/>
<path d="M12 7.89062L10.93 9.75063C10.69 10.1606 10.89 10.5006 11.36 10.5006H12.63C13.11 10.5006 13.3 10.8406 13.06 11.2506L12 13.1106" stroke="#211B2A" stroke-width="1.5" stroke-linecap="round" stroke-linejoin="round"/>
<path d="M8.5 21.9992C10.79 21.3492 13.21 21.3492 15.5 21.9992" stroke="#211B2A" stroke-width="1.5" stroke-linecap="round" stroke-linejoin="round"/>
</svg>
