<svg width="24" height="24" viewBox="0 0 24 24" fill="none" xmlns="http://www.w3.org/2000/svg">
<path d="M15.26 22.0004C15.2 22.0004 15.13 21.9904 15.07 21.9704C13.06 21.4004 10.95 21.4004 8.94 21.9704C8.57 22.0704 8.18 21.8604 8.08 21.4904C7.97 21.1204 8.19 20.7304 8.56 20.6304C10.82 19.9904 13.2 19.9904 15.46 20.6304C15.83 20.7404 16.05 21.1204 15.94 21.4904C15.84 21.8004 15.56 22.0004 15.26 22.0004Z" fill="#211B2A"/>
<path d="M4.17999 19.0799C3.98999 19.0799 3.8 19.0099 3.65 18.8599C3.36 18.5699 3.36 18.0899 3.65 17.7999L19.5 1.94992C19.79 1.65992 20.27 1.65992 20.56 1.94992C20.85 2.23992 20.85 2.71992 20.56 3.00992L4.71 18.8599C4.56 19.0099 4.36999 19.0799 4.17999 19.0799Z" fill="#211B2A"/>
<path opacity="0.4" d="M16.63 3.41909L5.49 14.5591C4.53 13.1991 3.97 11.5991 3.97 10.0491C3.97 7.59909 5.06 5.30909 6.97 3.76909C8.88 2.22909 11.38 1.65909 13.83 2.19909C14.84 2.41909 15.79 2.83909 16.63 3.41909Z" fill="#211B2A"/>
<path opacity="0.4" d="M16.17 16.9205V17.6205C16.18 17.8805 16.2 18.3805 15.81 18.7805C15.53 19.0605 15.12 19.2105 14.58 19.2105H9.45C9.04 19.2105 8.52 19.1605 8.17 18.8105C7.84 18.4605 7.85 18.0305 7.86 17.7505V16.9205C7.41 16.6205 6.99 16.2805 6.61 15.9005L17.95 4.56055C18.45 5.09055 18.88 5.70055 19.21 6.36055C21.23 10.4205 19.28 14.8305 16.17 16.9205Z" fill="#211B2A"/>
</svg>
