<svg width="24" height="24" viewBox="0 0 24 24" fill="none" xmlns="http://www.w3.org/2000/svg">
<path d="M15.7 4.35007L6.4 13.6501C5.93 14.1201 5.11 14.0201 4.81 13.4201C4.27 12.3501 3.97 11.1801 3.97 10.0501C3.97 7.60007 5.06 5.31007 6.97 3.77007C8.88 2.23007 11.38 1.66007 13.83 2.20007C14.37 2.32007 14.9 2.49007 15.4 2.72007C16.04 3.01007 16.2 3.85007 15.7 4.35007Z" fill="#211B2A"/>
<path d="M15.45 20.6304C13.19 19.9904 10.81 19.9904 8.55001 20.6304C8.18001 20.7404 7.96001 21.1204 8.07001 21.4904C8.18001 21.8604 8.56001 22.0704 8.93001 21.9704C10.94 21.4004 13.05 21.4004 15.06 21.9704C15.12 21.9904 15.19 22.0004 15.25 22.0004C15.55 22.0004 15.83 21.8004 15.92 21.4904C16.03 21.1204 15.82 20.7404 15.45 20.6304Z" fill="#211B2A"/>
<path d="M20.56 1.94992C20.27 1.65992 19.79 1.65992 19.5 1.94992L3.65 17.7999C3.36 18.0899 3.36 18.5699 3.65 18.8599C3.8 19.0099 3.98999 19.0799 4.17999 19.0799C4.36999 19.0799 4.56 19.0099 4.71 18.8599L7.17 16.3999C7.39 16.5799 7.62 16.7599 7.86 16.9199V17.7499C7.85 18.0299 7.84 18.4599 8.17 18.8099C8.52 19.1599 9.04 19.2099 9.45 19.2099H14.58C15.12 19.2099 15.53 19.0599 15.81 18.7799C16.2 18.3799 16.18 17.8799 16.17 17.6199V16.9199C19.28 14.8299 21.23 10.4199 19.21 6.35992C18.99 5.92992 18.72 5.51992 18.42 5.13992L20.55 3.00992C20.85 2.71992 20.85 2.23992 20.56 1.94992Z" fill="#211B2A"/>
</svg>
