<svg width="24" height="24" viewBox="0 0 24 24" fill="none" xmlns="http://www.w3.org/2000/svg">
<path opacity="0.4" d="M20.4 16.3308C20.12 17.0808 19.53 17.6508 18.76 17.9108C17.68 18.2708 16.57 18.5408 15.45 18.7308C15.34 18.7508 15.23 18.7708 15.12 18.7808C14.94 18.8108 14.76 18.8308 14.58 18.8508C14.36 18.8808 14.13 18.9008 13.9 18.9208C13.27 18.9708 12.65 19.0008 12.02 19.0008C11.38 19.0008 10.74 18.9708 10.11 18.9108C9.84002 18.8908 9.58002 18.8608 9.32002 18.8208C9.17002 18.8008 9.02002 18.7808 8.88002 18.7608C8.77002 18.7408 8.66002 18.7308 8.55002 18.7108C7.44002 18.5308 6.34002 18.2608 5.27002 17.9008C4.47002 17.6308 3.86002 17.0608 3.59002 16.3308C3.32002 15.6108 3.42002 14.7708 3.85002 14.0508L4.98002 12.1708C5.22002 11.7608 5.44002 10.9708 5.44002 10.4908V8.63078C5.44002 5.00078 8.39002 2.05078 12.02 2.05078C15.64 2.05078 18.59 5.00078 18.59 8.63078V10.4908C18.59 10.9708 18.81 11.7608 19.06 12.1708L20.19 14.0508C20.6 14.7508 20.68 15.5708 20.4 16.3308Z" fill="#211B2A"/>
<path d="M12 10.7606C11.58 10.7606 11.24 10.4206 11.24 10.0006V6.90063C11.24 6.48063 11.58 6.14062 12 6.14062C12.42 6.14062 12.76 6.48063 12.76 6.90063V10.0006C12.75 10.4206 12.41 10.7606 12 10.7606Z" fill="#211B2A"/>
<path d="M14.83 20.01C14.41 21.17 13.3 22 12 22C11.21 22 10.43 21.68 9.87999 21.11C9.55999 20.81 9.31999 20.41 9.17999 20C9.30999 20.02 9.43999 20.03 9.57999 20.05C9.80999 20.08 10.05 20.11 10.29 20.13C10.86 20.18 11.44 20.21 12.02 20.21C12.59 20.21 13.16 20.18 13.72 20.13C13.93 20.11 14.14 20.1 14.34 20.07C14.5 20.05 14.66 20.03 14.83 20.01Z" fill="#211B2A"/>
</svg>
