<svg width="24" height="24" viewBox="0 0 24 24" fill="none" xmlns="http://www.w3.org/2000/svg">
<path d="M12 6.43945V9.76945" stroke="#211B2A" stroke-width="1.5" stroke-miterlimit="10" stroke-linecap="round"/>
<path d="M20.59 15.17C21.32 16.39 20.74 17.97 19.39 18.42C14.61 20.01 9.43999 20.01 4.65999 18.42C3.21999 17.94 2.66999 16.48 3.45999 15.17L4.72999 13.05C5.07999 12.47 5.35999 11.44 5.35999 10.77V8.67C5.35999 4.98 8.33999 2 12.02 2C15.68 2 18.68 5 18.68 8.66V10.76C18.68 10.94 18.7 11.14 18.73 11.35" stroke="#211B2A" stroke-width="1.5" stroke-miterlimit="10" stroke-linecap="round"/>
<path d="M15.33 18.8203C15.33 20.6503 13.83 22.1503 12 22.1503C11.09 22.1503 10.25 21.7703 9.64998 21.1703C9.04998 20.5703 8.66998 19.7303 8.66998 18.8203" stroke="#211B2A" stroke-width="1.5" stroke-miterlimit="10"/>
</svg>
