<svg width="24" height="24" viewBox="0 0 24 24" fill="none" xmlns="http://www.w3.org/2000/svg">
<path d="M20.12 3.88L3.39001 20.61C3.34001 20.41 3.32001 20.19 3.32001 19.95V5.86C3.32001 3.74 5.05001 2 7.18001 2H16.82C18.22 2 19.45 2.75 20.12 3.88Z" fill="#211B2A"/>
<path d="M21.77 2.23086C21.47 1.93086 20.98 1.93086 20.68 2.23086L2.23 20.6909C1.93 20.9909 1.93 21.4809 2.23 21.7809C2.38 21.9209 2.57 22.0009 2.77 22.0009C2.97 22.0009 3.16 21.9209 3.31 21.7709L21.77 3.31086C22.08 3.01086 22.08 2.53086 21.77 2.23086Z" fill="#211B2A"/>
<path d="M19.29 7.71054L11.9 15.1005C11.44 15.5605 11.53 16.3305 12.09 16.6605L19.48 21.0905C20.15 21.4905 20.99 21.0105 20.99 20.2305V8.41054C21 7.52054 19.92 7.08054 19.29 7.71054Z" fill="#211B2A"/>
</svg>
