<svg width="24" height="24" viewBox="0 0 24 24" fill="none" xmlns="http://www.w3.org/2000/svg">
<path d="M2 22.7495C1.81 22.7495 1.62 22.6795 1.47 22.5295C1.18 22.2395 1.18 21.7595 1.47 21.4695L21.47 1.46945C21.76 1.17945 22.24 1.17945 22.53 1.46945C22.82 1.75945 22.82 2.23945 22.53 2.52945L2.53 22.5295C2.38 22.6795 2.19 22.7495 2 22.7495Z" fill="#211B2A"/>
<path d="M18.88 22.7509C18.32 22.7509 17.72 22.5809 17.12 22.2509L10.6 18.1809C10.25 17.9609 10.14 17.5009 10.36 17.1509C10.58 16.8009 11.04 16.6909 11.39 16.9109L17.88 20.9609C18.44 21.2709 19 21.3409 19.36 21.1309C19.72 20.9209 19.93 20.4009 19.93 19.7109V8.71094C19.93 8.30094 20.27 7.96094 20.68 7.96094C21.09 7.96094 21.43 8.30094 21.43 8.71094V19.7109C21.43 20.9409 20.95 21.9309 20.12 22.4209C19.75 22.6409 19.33 22.7509 18.88 22.7509Z" fill="#211B2A"/>
<path d="M3.32001 20.7C2.91001 20.7 2.57001 20.36 2.57001 19.95V5.86C2.57001 3.32 4.64001 1.25 7.18001 1.25H16.83C18.22 1.25 19.53 1.87 20.41 2.96C20.67 3.28 20.62 3.75 20.3 4.02C19.98 4.28 19.51 4.23 19.25 3.91C18.65 3.17 17.77 2.75 16.83 2.75H7.18001C5.47001 2.75 4.07001 4.15 4.07001 5.86V19.95C4.07001 20.36 3.73001 20.7 3.32001 20.7Z" fill="#211B2A"/>
</svg>
