<svg width="24" height="24" viewBox="0 0 24 24" fill="none" xmlns="http://www.w3.org/2000/svg">
<path opacity="0.4" d="M16.82 2H7.18001C5.05001 2 3.32001 3.74 3.32001 5.86V19.95C3.32001 21.75 4.61001 22.51 6.19001 21.64L11.07 18.93C11.59 18.64 12.43 18.64 12.94 18.93L17.82 21.64C19.4 22.52 20.69 21.76 20.69 19.95V5.86C20.68 3.74 18.95 2 16.82 2Z" fill="#211B2A"/>
<path d="M14.5 9.90094H12.75V8.21094C12.75 7.80094 12.41 7.46094 12 7.46094C11.59 7.46094 11.25 7.80094 11.25 8.21094V9.90094H9.5C9.09 9.90094 8.75 10.2409 8.75 10.6509C8.75 11.0609 9.09 11.4009 9.5 11.4009H11.25V13.2109C11.25 13.6209 11.59 13.9609 12 13.9609C12.41 13.9609 12.75 13.6209 12.75 13.2109V11.4009H14.5C14.91 11.4009 15.25 11.0609 15.25 10.6509C15.25 10.2409 14.91 9.90094 14.5 9.90094Z" fill="#211B2A"/>
</svg>
