<svg width="24" height="24" viewBox="0 0 24 24" fill="none" xmlns="http://www.w3.org/2000/svg">
<path opacity="0.4" d="M20.68 6.32031V19.9503C20.68 21.7503 19.39 22.5103 17.82 21.6403L12.94 18.9203C12.42 18.6403 11.58 18.6403 11.06 18.9203L6.18 21.6403C5.76 21.8703 5.36 21.9903 5 22.0003L20.68 6.32031Z" fill="#211B2A"/>
<path d="M20.12 3.88L3.39001 20.61C3.34001 20.41 3.32001 20.19 3.32001 19.95V5.86C3.32001 3.74 5.05001 2 7.18001 2H16.82C18.22 2 19.45 2.75 20.12 3.88Z" fill="#211B2A"/>
<path d="M21.77 2.23086C21.47 1.93086 20.98 1.93086 20.68 2.23086L2.23 20.6909C1.93 20.9909 1.93 21.4809 2.23 21.7809C2.38 21.9209 2.57 22.0009 2.77 22.0009C2.97 22.0009 3.16 21.9209 3.31 21.7709L21.77 3.31086C22.08 3.01086 22.08 2.53086 21.77 2.23086Z" fill="#211B2A"/>
</svg>
