<svg width="24" height="24" viewBox="0 0 24 24" fill="none" xmlns="http://www.w3.org/2000/svg">
<path opacity="0.4" d="M16.19 2H7.82001C4.18001 2 2.01001 4.17 2.01001 7.81V16.18C2.01001 19.82 4.18001 21.99 7.82001 21.99H16.19C19.83 21.99 22 19.82 22 16.18V7.81C22 4.17 19.83 2 16.19 2Z" fill="#211B2A"/>
<path d="M11.5 8.08902V17.249C11.5 17.609 11.14 17.849 10.81 17.709C9.6 17.189 8.01998 16.709 6.91998 16.569L6.72998 16.549C6.11998 16.469 5.62 15.899 5.62 15.279V7.57901C5.62 6.81901 6.24 6.24902 7 6.30902C8.25 6.40902 10.1 7.00904 11.26 7.66904C11.41 7.73904 11.5 7.90902 11.5 8.08902Z" fill="#211B2A"/>
<path d="M18.38 7.70081V15.2708C18.38 15.8908 17.88 16.4608 17.27 16.5408L17.06 16.5608C15.97 16.7108 14.4 17.1808 13.19 17.6908C12.86 17.8308 12.5 17.5908 12.5 17.2308V8.08078C12.5 7.90078 12.59 7.73081 12.75 7.64081C13.91 6.99081 15.72 6.41078 16.95 6.30078H16.99C17.76 6.31078 18.38 6.93081 18.38 7.70081Z" fill="#211B2A"/>
</svg>
