<svg width="24" height="24" viewBox="0 0 24 24" fill="none" xmlns="http://www.w3.org/2000/svg">
<path d="M8.89999 16.5309C9.37999 16.0109 10.12 16.0509 10.54 16.6209L11.14 17.4209C11.61 18.0509 12.39 18.0509 12.86 17.4209L13.45 16.6309C13.87 16.0709 14.61 16.0309 15.09 16.5409C16.14 17.6609 16.99 17.2909 16.99 15.7209V9.09086C16.99 6.72086 16.43 6.13086 14.21 6.13086H9.76999C7.54999 6.13086 6.98999 6.72086 6.98999 9.09086V15.7209C6.99999 17.2709 7.85999 17.6409 8.89999 16.5309Z" fill="#211B2A"/>
<path opacity="0.4" d="M16.19 2H7.82001C4.18001 2 2.01001 4.17 2.01001 7.81V16.18C2.01001 19.82 4.18001 21.99 7.82001 21.99H16.19C19.83 21.99 22 19.82 22 16.18V7.81C22 4.17 19.83 2 16.19 2Z" fill="#211B2A"/>
</svg>
