<svg width="24" height="24" viewBox="0 0 24 24" fill="none" xmlns="http://www.w3.org/2000/svg">
<path opacity="0.4" d="M16 8.99084V20.3509C16 21.8009 14.96 22.4108 13.69 21.7108L9.76 19.5208C9.34 19.2908 8.66 19.2908 8.24 19.5208L4.31 21.7108C3.04 22.4108 2 21.8009 2 20.3509V8.99084C2 7.28084 3.4 5.88086 5.11 5.88086H12.89C14.6 5.88086 16 7.28084 16 8.99084Z" fill="#211B2A"/>
<path d="M10.06 11.9993L10.94 11.1193C11.23 10.8293 11.23 10.3493 10.94 10.0593C10.65 9.7693 10.17 9.7693 9.88 10.0593L9 10.9393L8.12 10.0593C7.83 9.7693 7.35 9.7693 7.06 10.0593C6.77 10.3493 6.77 10.8293 7.06 11.1193L7.94 11.9993L7.06 12.8793C6.77 13.1693 6.77 13.6493 7.06 13.9393C7.21 14.0893 7.4 14.1593 7.59 14.1593C7.78 14.1593 7.97 14.0893 8.12 13.9393L9 13.0593L9.88 13.9393C10.03 14.0893 10.22 14.1593 10.41 14.1593C10.6 14.1593 10.79 14.0893 10.94 13.9393C11.23 13.6493 11.23 13.1693 10.94 12.8793L10.06 11.9993Z" fill="#211B2A"/>
<path d="M22 5.10999V16.47C22 17.92 20.96 18.53 19.69 17.83L16 15.77V8.98999C16 7.27999 14.6 5.88 12.89 5.88H8V5.10999C8 3.39999 9.4 2 11.11 2H18.89C20.6 2 22 3.39999 22 5.10999Z" fill="#211B2A"/>
</svg>
