<svg width="24" height="24" viewBox="0 0 24 24" fill="none" xmlns="http://www.w3.org/2000/svg">
<path d="M22 5.11V16.47C22 17.92 20.96 18.53 19.69 17.83L17.76 16.75C17.6 16.66 17.5 16.49 17.5 16.31V8.99C17.5 6.45 15.43 4.38 12.89 4.38H8.82C8.45 4.38 8.19 3.99 8.36 3.67C8.88 2.68 9.92 2 11.11 2H18.89C20.6 2 22 3.4 22 5.11Z" fill="#211B2A"/>
<path d="M12.89 5.88086H5.11C3.4 5.88086 2 7.28086 2 8.99086V20.3509C2 21.8009 3.04 22.4109 4.31 21.7109L8.24 19.5209C8.66 19.2909 9.34 19.2909 9.76 19.5209L13.69 21.7109C14.96 22.4109 16 21.8009 16 20.3509V8.99086C16 7.28086 14.6 5.88086 12.89 5.88086ZM10.94 12.8809C11.23 13.1709 11.23 13.6509 10.94 13.9409C10.79 14.0909 10.6 14.1609 10.41 14.1609C10.22 14.1609 10.03 14.0909 9.88 13.9409L9 13.0609L8.12 13.9409C7.97 14.0909 7.78 14.1609 7.59 14.1609C7.4 14.1609 7.21 14.0909 7.06 13.9409C6.77 13.6509 6.77 13.1709 7.06 12.8809L7.94 12.0009L7.06 11.1209C6.77 10.8309 6.77 10.3509 7.06 10.0609C7.35 9.77086 7.83 9.77086 8.12 10.0609L9 10.9409L9.88 10.0609C10.17 9.77086 10.65 9.77086 10.94 10.0609C11.23 10.3509 11.23 10.8309 10.94 11.1209L10.06 12.0009L10.94 12.8809Z" fill="#211B2A"/>
</svg>
