<svg width="24" height="24" viewBox="0 0 24 24" fill="none" xmlns="http://www.w3.org/2000/svg">
<path opacity="0.4" d="M18.9998 10.2798V17.4298C18.9698 20.2798 18.1897 20.9998 15.2197 20.9998H5.77979C2.75979 20.9998 1.99976 20.2498 1.99976 17.2698V10.2798C1.99976 7.5798 2.62976 6.7098 4.99976 6.5698C5.23976 6.5598 5.49979 6.5498 5.77979 6.5498H15.2197C18.2397 6.5498 18.9998 7.2998 18.9998 10.2798Z" fill="#211B2A"/>
<path d="M21.9998 6.73V13.72C21.9998 16.42 21.3698 17.29 18.9998 17.43V10.28C18.9998 7.3 18.2397 6.55 15.2197 6.55H5.77979C5.49979 6.55 5.23976 6.56 4.99976 6.57C5.02976 3.72 5.80979 3 8.77979 3H18.2197C21.2397 3 21.9998 3.75 21.9998 6.73Z" fill="#211B2A"/>
<path d="M6.95978 18.5596H5.23975C4.82975 18.5596 4.48975 18.2196 4.48975 17.8096C4.48975 17.3996 4.82975 17.0596 5.23975 17.0596H6.95978C7.36978 17.0596 7.70978 17.3996 7.70978 17.8096C7.70978 18.2196 7.37978 18.5596 6.95978 18.5596Z" fill="#211B2A"/>
<path d="M12.5499 18.5596H9.10986C8.69986 18.5596 8.35986 18.2196 8.35986 17.8096C8.35986 17.3996 8.69986 17.0596 9.10986 17.0596H12.5499C12.9599 17.0596 13.2999 17.3996 13.2999 17.8096C13.2999 18.2196 12.9699 18.5596 12.5499 18.5596Z" fill="#211B2A"/>
<path d="M18.9998 11.8604H1.99976V13.3604H18.9998V11.8604Z" fill="#211B2A"/>
</svg>
