<svg width="24" height="24" viewBox="0 0 24 24" fill="none" xmlns="http://www.w3.org/2000/svg">
<path d="M22.002 21.25C22.002 21.66 21.662 22 21.252 22H2.75195C2.34195 22 2.00195 21.66 2.00195 21.25C2.00195 20.84 2.34195 20.5 2.75195 20.5H21.252C21.662 20.5 22.002 20.84 22.002 21.25Z" fill="#211B2A"/>
<path d="M15.392 4.51977L4.65196 15.2598C4.24196 15.6698 3.58196 15.6698 3.18196 15.2598H3.17196C1.78196 13.8598 1.78196 11.5998 3.17196 10.2098L10.322 3.05977C11.722 1.65977 13.982 1.65977 15.382 3.05977C15.792 3.44977 15.792 4.11977 15.392 4.51977Z" fill="#211B2A"/>
<path d="M20.822 8.49031L17.772 5.44031C17.362 5.03031 16.702 5.03031 16.302 5.44031L5.56196 16.1803C5.15196 16.5803 5.15196 17.2403 5.56196 17.6503L8.61196 20.7103C10.012 22.1003 12.272 22.1003 13.672 20.7103L20.812 13.5603C22.232 12.1603 22.232 9.89031 20.822 8.49031ZM12.762 17.5203L11.552 18.7403C11.302 18.9903 10.892 18.9903 10.632 18.7403C10.382 18.4903 10.382 18.0803 10.632 17.8203L11.852 16.6003C12.092 16.3603 12.512 16.3603 12.762 16.6003C13.012 16.8503 13.012 17.2803 12.762 17.5203ZM16.732 13.5503L14.292 16.0003C14.042 16.2403 13.632 16.2403 13.372 16.0003C13.122 15.7503 13.122 15.3403 13.372 15.0803L15.822 12.6303C16.062 12.3903 16.482 12.3903 16.732 12.6303C16.982 12.8903 16.982 13.3003 16.732 13.5503Z" fill="#211B2A"/>
</svg>
