<svg width="24" height="24" viewBox="0 0 24 24" fill="none" xmlns="http://www.w3.org/2000/svg">
<path d="M15.2405 9.25H2.00049C1.59049 9.25 1.25049 8.91 1.25049 8.5C1.25049 8.09 1.59049 7.75 2.00049 7.75H15.2405C15.6505 7.75 15.9905 8.09 15.9905 8.5C15.9905 8.91 15.6505 9.25 15.2405 9.25Z" fill="#211B2A"/>
<path d="M7.29049 17.25H6.00049C5.59049 17.25 5.25049 16.91 5.25049 16.5C5.25049 16.09 5.59049 15.75 6.00049 15.75H7.29049C7.70049 15.75 8.04049 16.09 8.04049 16.5C8.04049 16.91 7.71049 17.25 7.29049 17.25Z" fill="#211B2A"/>
<path d="M14.5005 17.25H11.0005C10.5905 17.25 10.2505 16.91 10.2505 16.5C10.2505 16.09 10.5905 15.75 11.0005 15.75H14.5005C14.9105 15.75 15.2505 16.09 15.2505 16.5C15.2505 16.91 14.9105 17.25 14.5005 17.25Z" fill="#211B2A"/>
<path d="M17.5605 21.2496H7.98047C7.57047 21.2496 7.23047 20.9096 7.23047 20.4996C7.23047 20.0896 7.57047 19.7496 7.98047 19.7496H17.5605C20.7005 19.7496 21.2505 19.2097 21.2505 16.1096V6.88965C21.2505 6.47965 21.5905 6.13965 22.0005 6.13965C22.4105 6.13965 22.7505 6.47965 22.7505 6.88965V16.0996C22.7505 20.0496 21.5405 21.2496 17.5605 21.2496Z" fill="#211B2A"/>
<path d="M3.71049 20.89C3.62049 20.89 3.52049 20.87 3.43049 20.84C1.62049 20.12 1.25049 18.43 1.25049 16.11V7.89C1.25049 3.95 2.46049 2.75 6.44049 2.75H17.5505C18.6905 2.75 19.5305 2.84 20.1905 3.04C20.5905 3.16 20.8105 3.57 20.7005 3.97C20.5805 4.37 20.1605 4.59 19.7705 4.48C19.2505 4.33 18.5505 4.26 17.5505 4.26H6.44049C3.30049 4.26 2.75049 4.8 2.75049 7.9V16.11C2.75049 18.5 3.18049 19.13 3.99049 19.45C4.38049 19.6 4.56049 20.04 4.41049 20.42C4.29049 20.71 4.01049 20.89 3.71049 20.89Z" fill="#211B2A"/>
<path d="M2.00049 22.7504C1.81049 22.7504 1.62049 22.6804 1.47049 22.5304C1.18049 22.2404 1.18049 21.7604 1.47049 21.4704L21.4705 1.47043C21.7605 1.18043 22.2405 1.18043 22.5305 1.47043C22.8205 1.76043 22.8205 2.24043 22.5305 2.53043L2.53049 22.5304C2.38049 22.6804 2.19049 22.7504 2.00049 22.7504Z" fill="#211B2A"/>
</svg>
