<svg width="24" height="24" viewBox="0 0 24 24" fill="none" xmlns="http://www.w3.org/2000/svg">
<path d="M19.0015 15C16.7915 15 15.0015 16.79 15.0015 19C15.0015 19.75 15.2115 20.46 15.5815 21.06C16.2715 22.22 17.5415 23 19.0015 23C20.4615 23 21.7315 22.22 22.4215 21.06C22.7915 20.46 23.0015 19.75 23.0015 19C23.0015 16.79 21.2115 15 19.0015 15ZM21.0715 18.57L18.9415 20.54C18.8015 20.67 18.6115 20.74 18.4315 20.74C18.2415 20.74 18.0515 20.67 17.9015 20.52L16.9115 19.53C16.6215 19.24 16.6215 18.76 16.9115 18.47C17.2015 18.18 17.6815 18.18 17.9715 18.47L18.4515 18.95L20.0515 17.47C20.3515 17.19 20.8315 17.21 21.1115 17.51C21.3915 17.81 21.3715 18.28 21.0715 18.57Z" fill="#211B2A"/>
<path d="M22.0015 7.55039V8.00039C22.0015 8.55039 21.5515 9.00039 21.0015 9.00039H3.00146C2.45146 9.00039 2.00146 8.55039 2.00146 8.00039V7.54039C2.00146 5.25039 3.85146 3.40039 6.14146 3.40039H17.8515C20.1415 3.40039 22.0015 5.26039 22.0015 7.55039Z" fill="#211B2A"/>
<path d="M2.00146 11.5002V16.4602C2.00146 18.7502 3.85146 20.6002 6.14146 20.6002H12.4015C12.9815 20.6002 13.4815 20.1102 13.4315 19.5302C13.2915 18.0002 13.7815 16.3402 15.1415 15.0202C15.7015 14.4702 16.3915 14.0502 17.1415 13.8102C18.3915 13.4102 19.6015 13.4602 20.6715 13.8202C21.3215 14.0402 22.0015 13.5702 22.0015 12.8802V11.4902C22.0015 10.9402 21.5515 10.4902 21.0015 10.4902H3.00146C2.45146 10.5002 2.00146 10.9502 2.00146 11.5002ZM8.00146 17.2502H6.00146C5.59146 17.2502 5.25146 16.9102 5.25146 16.5002C5.25146 16.0902 5.59146 15.7502 6.00146 15.7502H8.00146C8.41146 15.7502 8.75146 16.0902 8.75146 16.5002C8.75146 16.9102 8.41146 17.2502 8.00146 17.2502Z" fill="#211B2A"/>
</svg>
