<svg width="24" height="24" viewBox="0 0 24 24" fill="none" xmlns="http://www.w3.org/2000/svg">
<path d="M14.5005 9.25H2.00049C1.59049 9.25 1.25049 8.91 1.25049 8.5C1.25049 8.09 1.59049 7.75 2.00049 7.75H14.5005C14.9105 7.75 15.2505 8.09 15.2505 8.5C15.2505 8.91 14.9105 9.25 14.5005 9.25Z" fill="#211B2A"/>
<path d="M8.00049 17.25H6.00049C5.59049 17.25 5.25049 16.91 5.25049 16.5C5.25049 16.09 5.59049 15.75 6.00049 15.75H8.00049C8.41049 15.75 8.75049 16.09 8.75049 16.5C8.75049 16.91 8.41049 17.25 8.00049 17.25Z" fill="#211B2A"/>
<path d="M14.5005 17.25H10.5005C10.0905 17.25 9.75049 16.91 9.75049 16.5C9.75049 16.09 10.0905 15.75 10.5005 15.75H14.5005C14.9105 15.75 15.2505 16.09 15.2505 16.5C15.2505 16.91 14.9105 17.25 14.5005 17.25Z" fill="#211B2A"/>
<path d="M17.5605 21.25H6.44049C2.46049 21.25 1.25049 20.05 1.25049 16.11V7.89C1.25049 3.95 2.46049 2.75 6.44049 2.75H14.5005C14.9105 2.75 15.2505 3.09 15.2505 3.5C15.2505 3.91 14.9105 4.25 14.5005 4.25H6.44049C3.30049 4.25 2.75049 4.79 2.75049 7.89V16.1C2.75049 19.2 3.30049 19.74 6.44049 19.74H17.5505C20.6905 19.74 21.2405 19.2 21.2405 16.1V14.02C21.2405 13.61 21.5805 13.27 21.9905 13.27C22.4005 13.27 22.7405 13.61 22.7405 14.02V16.1C22.7505 20.05 21.5405 21.25 17.5605 21.25Z" fill="#211B2A"/>
<path d="M20.0005 10.2499C19.5905 10.2499 19.2505 9.90994 19.2505 9.49994V3.49994C19.2505 3.19994 19.4305 2.91994 19.7105 2.80994C19.9905 2.69994 20.3105 2.75994 20.5305 2.96994L22.5305 4.96994C22.8205 5.25994 22.8205 5.73994 22.5305 6.02994C22.2405 6.31994 21.7605 6.31994 21.4705 6.02994L20.7505 5.30994V9.49994C20.7505 9.90994 20.4105 10.2499 20.0005 10.2499Z" fill="#211B2A"/>
<path d="M18.0005 6.25043C17.8105 6.25043 17.6205 6.18043 17.4705 6.03043C17.1805 5.74043 17.1805 5.26043 17.4705 4.97043L19.4705 2.97043C19.7605 2.68043 20.2405 2.68043 20.5305 2.97043C20.8205 3.26043 20.8205 3.74043 20.5305 4.03043L18.5305 6.03043C18.3805 6.18043 18.1905 6.25043 18.0005 6.25043Z" fill="#211B2A"/>
</svg>
