<svg width="24" height="24" viewBox="0 0 24 24" fill="none" xmlns="http://www.w3.org/2000/svg">
<path d="M3.93048 16.6301C3.74048 16.6301 3.55048 16.5601 3.40048 16.4101C3.11048 16.1201 3.11048 15.6401 3.40048 15.3501L15.3505 3.40012C15.6405 3.11012 16.1205 3.11012 16.4105 3.40012C16.7005 3.69012 16.7005 4.17012 16.4105 4.46012L4.46048 16.4201C4.32048 16.5601 4.12048 16.6301 3.93048 16.6301Z" fill="#211B2A"/>
<path d="M11.1005 19.0295C10.9105 19.0295 10.7205 18.9595 10.5705 18.8095C10.2805 18.5195 10.2805 18.0395 10.5705 17.7495L11.7705 16.5495C12.0605 16.2595 12.5405 16.2595 12.8305 16.5495C13.1205 16.8395 13.1205 17.3195 12.8305 17.6095L11.6305 18.8095C11.4905 18.9495 11.3005 19.0295 11.1005 19.0295Z" fill="#211B2A"/>
<path d="M13.7905 16.3396C13.6005 16.3396 13.4105 16.2696 13.2605 16.1196C12.9705 15.8296 12.9705 15.3496 13.2605 15.0596L15.6505 12.6696C15.9405 12.3796 16.4205 12.3796 16.7105 12.6696C17.0005 12.9596 17.0005 13.4396 16.7105 13.7296L14.3205 16.1196C14.1805 16.2596 13.9805 16.3396 13.7905 16.3396Z" fill="#211B2A"/>
<path d="M11.1005 22.7499C10.1205 22.7499 9.14046 22.1499 7.95046 20.9599L3.04046 16.0499C0.650463 13.6599 0.660463 12.1199 3.07046 9.70991L9.71046 3.06991C12.1205 0.659914 13.6605 0.649914 16.0505 3.03991L20.9605 7.94991C23.3505 10.3399 23.3405 11.8799 20.9305 14.2899L14.2905 20.9299C13.0805 22.1399 12.0905 22.7499 11.1005 22.7499ZM12.9005 2.74991C12.3805 2.74991 11.7205 3.17991 10.7705 4.12991L4.13046 10.7699C3.18046 11.7199 2.75046 12.3799 2.75046 12.8899C2.75046 13.4099 3.15046 14.0399 4.10046 14.9899L9.01046 19.8999C9.96046 20.8499 10.5805 21.2499 11.1005 21.2499C11.1005 21.2499 11.1005 21.2499 11.1105 21.2499C11.6305 21.2499 12.2805 20.8199 13.2305 19.8699L19.8705 13.2299C20.8205 12.2799 21.2505 11.6199 21.2505 11.1099C21.2505 10.5899 20.8505 9.95991 19.9005 9.00991L14.9905 4.09991C14.0505 3.14991 13.4205 2.74991 12.9005 2.74991Z" fill="#211B2A"/>
<path d="M22.0005 22.75H2.00049C1.59049 22.75 1.25049 22.41 1.25049 22C1.25049 21.59 1.59049 21.25 2.00049 21.25H22.0005C22.4105 21.25 22.7505 21.59 22.7505 22C22.7505 22.41 22.4105 22.75 22.0005 22.75Z" fill="#211B2A"/>
</svg>
