<svg width="24" height="24" viewBox="0 0 24 24" fill="none" xmlns="http://www.w3.org/2000/svg">
<path d="M21.2505 22H2.75049C2.34049 22 2.00049 21.66 2.00049 21.25C2.00049 20.84 2.34049 20.5 2.75049 20.5H21.2505C21.6605 20.5 22.0005 20.84 22.0005 21.25C22.0005 21.66 21.6605 22 21.2505 22Z" fill="#211B2A"/>
<path opacity="0.4" d="M20.5905 13.6997L13.3605 20.9297C11.9405 22.3497 9.65049 22.3497 8.24049 20.9397L3.63049 16.3297L15.9905 3.96973L20.6005 8.57973C22.0105 9.98973 22.0105 12.2797 20.5905 13.6997Z" fill="#211B2A"/>
<path d="M15.9905 3.97016L3.62049 16.3302L2.71049 15.4202C1.30049 14.0102 1.30049 11.7202 2.72049 10.3002L9.95049 3.07016C11.3705 1.65016 13.6605 1.65016 15.0705 3.06016L15.9905 3.97016Z" fill="#211B2A"/>
<path d="M12.8905 17.5999L11.5405 18.9499C11.2605 19.2299 10.8105 19.2299 10.5305 18.9499C10.2505 18.6699 10.2505 18.2199 10.5305 17.9399L11.8805 16.5899C12.1605 16.3099 12.6105 16.3099 12.8905 16.5899C13.1705 16.8699 13.1705 17.3199 12.8905 17.5999Z" fill="#211B2A"/>
<path d="M17.2705 13.22L14.5805 15.91C14.3005 16.19 13.8505 16.19 13.5705 15.91C13.2905 15.63 13.2905 15.18 13.5705 14.9L16.2605 12.21C16.5405 11.93 16.9905 11.93 17.2705 12.21C17.5405 12.49 17.5405 12.94 17.2705 13.22Z" fill="#211B2A"/>
</svg>
