<svg width="24" height="24" viewBox="0 0 24 24" fill="none" xmlns="http://www.w3.org/2000/svg">
<path d="M2.00049 8.5H11.5005" stroke="#211B2A" stroke-width="1.5" stroke-miterlimit="10" stroke-linecap="round" stroke-linejoin="round"/>
<path d="M6.00049 16.5H8.00049" stroke="#211B2A" stroke-width="1.5" stroke-miterlimit="10" stroke-linecap="round" stroke-linejoin="round"/>
<path d="M10.5005 16.5H14.5005" stroke="#211B2A" stroke-width="1.5" stroke-miterlimit="10" stroke-linecap="round" stroke-linejoin="round"/>
<path d="M2.00049 11.03V7.89C2.00049 4.38 2.89049 3.5 6.44049 3.5H14.5005" stroke="#211B2A" stroke-width="1.5" stroke-linecap="round" stroke-linejoin="round"/>
<path d="M22.0005 12.0303V16.1103C22.0005 19.6203 21.1105 20.5003 17.5605 20.5003H6.44049C2.89049 20.5003 2.00049 19.6203 2.00049 16.1103V15.0003" stroke="#211B2A" stroke-width="1.5" stroke-linecap="round" stroke-linejoin="round"/>
<path d="M19.0805 4.13031L15.3705 7.84031C15.2305 7.98031 15.0905 8.26031 15.0605 8.46031L14.8605 9.88031C14.7905 10.3903 15.1505 10.7503 15.6605 10.6803L17.0805 10.4803C17.2805 10.4503 17.5605 10.3103 17.7005 10.1703L21.4105 6.46031C22.0505 5.82031 22.3505 5.08031 21.4105 4.14031C20.4605 3.19031 19.7205 3.49031 19.0805 4.13031Z" stroke="#211B2A" stroke-width="1.5" stroke-miterlimit="10" stroke-linecap="round" stroke-linejoin="round"/>
<path d="M18.5505 4.66016C18.8705 5.79016 19.7505 6.67016 20.8705 6.98016" stroke="#211B2A" stroke-width="1.5" stroke-miterlimit="10" stroke-linecap="round" stroke-linejoin="round"/>
</svg>
