<svg width="24" height="24" viewBox="0 0 24 24" fill="none" xmlns="http://www.w3.org/2000/svg">
<path d="M1.99658 8.5H11.4966" stroke="#211B2A" stroke-width="1.5" stroke-miterlimit="10" stroke-linecap="round" stroke-linejoin="round"/>
<path d="M5.99658 16.5H7.99658" stroke="#211B2A" stroke-width="1.5" stroke-miterlimit="10" stroke-linecap="round" stroke-linejoin="round"/>
<path d="M10.4966 16.5H14.4966" stroke="#211B2A" stroke-width="1.5" stroke-miterlimit="10" stroke-linecap="round" stroke-linejoin="round"/>
<path d="M21.9966 12.03V16.11C21.9966 19.62 21.1066 20.5 17.5566 20.5H6.43658C2.88658 20.5 1.99658 19.62 1.99658 16.11V7.89C1.99658 4.38 2.88658 3.5 6.43658 3.5H14.4966" stroke="#211B2A" stroke-width="1.5" stroke-linecap="round" stroke-linejoin="round"/>
<path d="M19.0766 4.13031L15.3666 7.84031C15.2266 7.98031 15.0866 8.26031 15.0566 8.46031L14.8566 9.88031C14.7866 10.3903 15.1466 10.7503 15.6566 10.6803L17.0766 10.4803C17.2766 10.4503 17.5566 10.3103 17.6966 10.1703L21.4066 6.46031C22.0466 5.82031 22.3466 5.08031 21.4066 4.14031C20.4566 3.19031 19.7166 3.49031 19.0766 4.13031Z" stroke="#211B2A" stroke-width="1.5" stroke-miterlimit="10" stroke-linecap="round" stroke-linejoin="round"/>
<path d="M18.5466 4.66016C18.8666 5.79016 19.7466 6.67016 20.8666 6.98016" stroke="#211B2A" stroke-width="1.5" stroke-miterlimit="10" stroke-linecap="round" stroke-linejoin="round"/>
</svg>
