<svg width="24" height="24" viewBox="0 0 24 24" fill="none" xmlns="http://www.w3.org/2000/svg">
<path d="M6 10H22" stroke="#211B2A" stroke-width="1.5" stroke-miterlimit="10" stroke-linecap="round" stroke-linejoin="round"/>
<path d="M11.55 20.4998H6.44C2.89 20.4998 1.98999 19.6198 1.98999 16.1098V7.88977C1.98999 4.70977 2.73002 3.68977 5.52002 3.52977C5.80002 3.51977 6.11 3.50977 6.44 3.50977H17.55C21.1 3.50977 22 4.38977 22 7.89977V12.3098" stroke="#211B2A" stroke-width="1.5" stroke-linecap="round" stroke-linejoin="round"/>
<path d="M6 16H10" stroke="#211B2A" stroke-width="1.5" stroke-miterlimit="10" stroke-linecap="round" stroke-linejoin="round"/>
<path d="M22 18C22 18.75 21.79 19.46 21.42 20.06C20.73 21.22 19.46 22 18 22C16.54 22 15.27 21.22 14.58 20.06C14.21 19.46 14 18.75 14 18C14 15.79 15.79 14 18 14C20.21 14 22 15.79 22 18Z" stroke="#211B2A" stroke-width="1.5" stroke-miterlimit="10" stroke-linecap="round" stroke-linejoin="round"/>
<path d="M16.4399 17.9995L17.4299 18.9895L19.5599 17.0195" stroke="#211B2A" stroke-width="1.5" stroke-linecap="round" stroke-linejoin="round"/>
</svg>
