<svg width="24" height="24" viewBox="0 0 24 24" fill="none" xmlns="http://www.w3.org/2000/svg">
<path d="M13.5005 9.25H2.00049C1.59049 9.25 1.25049 8.91 1.25049 8.5C1.25049 8.09 1.59049 7.75 2.00049 7.75H13.5005C13.9105 7.75 14.2505 8.09 14.2505 8.5C14.2505 8.91 13.9105 9.25 13.5005 9.25Z" fill="#211B2A"/>
<path d="M8.00049 17.25H6.00049C5.59049 17.25 5.25049 16.91 5.25049 16.5C5.25049 16.09 5.59049 15.75 6.00049 15.75H8.00049C8.41049 15.75 8.75049 16.09 8.75049 16.5C8.75049 16.91 8.41049 17.25 8.00049 17.25Z" fill="#211B2A"/>
<path d="M14.5005 17.25H10.5005C10.0905 17.25 9.75049 16.91 9.75049 16.5C9.75049 16.09 10.0905 15.75 10.5005 15.75H14.5005C14.9105 15.75 15.2505 16.09 15.2505 16.5C15.2505 16.91 14.9105 17.25 14.5005 17.25Z" fill="#211B2A"/>
<path d="M17.5605 21.25H6.44049C2.46049 21.25 1.25049 20.05 1.25049 16.11V7.89C1.25049 3.95 2.46049 2.75 6.44049 2.75H13.5005C13.9105 2.75 14.2505 3.09 14.2505 3.5C14.2505 3.91 13.9105 4.25 13.5005 4.25H6.44049C3.30049 4.25 2.75049 4.79 2.75049 7.89V16.1C2.75049 19.2 3.30049 19.74 6.44049 19.74H17.5505C20.6905 19.74 21.2405 19.2 21.2405 16.1V12.02C21.2405 11.61 21.5805 11.27 21.9905 11.27C22.4005 11.27 22.7405 11.61 22.7405 12.02V16.1C22.7505 20.05 21.5405 21.25 17.5605 21.25Z" fill="#211B2A"/>
<path d="M17.3105 8.94023C17.1205 8.94023 16.9305 8.87023 16.7805 8.72023C16.4905 8.43023 16.4905 7.95023 16.7805 7.66023L20.6705 3.77023C20.9605 3.48023 21.4405 3.48023 21.7305 3.77023C22.0205 4.06023 22.0205 4.54023 21.7305 4.83023L17.8405 8.72023C17.6905 8.87023 17.5005 8.94023 17.3105 8.94023Z" fill="#211B2A"/>
<path d="M21.1905 8.94023C21.0005 8.94023 20.8105 8.87023 20.6605 8.72023L16.7705 4.83023C16.4805 4.54023 16.4805 4.06023 16.7705 3.77023C17.0605 3.48023 17.5405 3.48023 17.8305 3.77023L21.7205 7.66023C22.0105 7.95023 22.0105 8.43023 21.7205 8.72023C21.5805 8.87023 21.3905 8.94023 21.1905 8.94023Z" fill="#211B2A"/>
</svg>
