<svg width="24" height="24" viewBox="0 0 24 24" fill="none" xmlns="http://www.w3.org/2000/svg">
<path d="M13.5005 9.25H2.00049C1.59049 9.25 1.25049 8.91 1.25049 8.5C1.25049 8.09 1.59049 7.75 2.00049 7.75H13.5005C13.9105 7.75 14.2505 8.09 14.2505 8.5C14.2505 8.91 13.9105 9.25 13.5005 9.25Z" fill="#211B2A"/>
<path d="M8.00049 17.25H6.00049C5.59049 17.25 5.25049 16.91 5.25049 16.5C5.25049 16.09 5.59049 15.75 6.00049 15.75H8.00049C8.41049 15.75 8.75049 16.09 8.75049 16.5C8.75049 16.91 8.41049 17.25 8.00049 17.25Z" fill="#211B2A"/>
<path d="M14.5005 17.25H10.5005C10.0905 17.25 9.75049 16.91 9.75049 16.5C9.75049 16.09 10.0905 15.75 10.5005 15.75H14.5005C14.9105 15.75 15.2505 16.09 15.2505 16.5C15.2505 16.91 14.9105 17.25 14.5005 17.25Z" fill="#211B2A"/>
<path d="M17.5605 21.25H6.44049C2.46049 21.25 1.25049 20.05 1.25049 16.11V7.89C1.25049 3.95 2.46049 2.75 6.44049 2.75H13.5005C13.9105 2.75 14.2505 3.09 14.2505 3.5C14.2505 3.91 13.9105 4.25 13.5005 4.25H6.44049C3.30049 4.25 2.75049 4.79 2.75049 7.89V16.1C2.75049 19.2 3.30049 19.74 6.44049 19.74H17.5505C20.6905 19.74 21.2405 19.2 21.2405 16.1V11.02C21.2405 10.61 21.5805 10.27 21.9905 10.27C22.4005 10.27 22.7405 10.61 22.7405 11.02V16.1C22.7505 20.05 21.5405 21.25 17.5605 21.25Z" fill="#211B2A"/>
<path d="M18.0005 8.25043C17.8105 8.25043 17.6205 8.18043 17.4705 8.03043L15.9705 6.53043C15.6805 6.24043 15.6805 5.76043 15.9705 5.47043C16.2605 5.18043 16.7405 5.18043 17.0305 5.47043L18.0005 6.44043L21.4705 2.97043C21.7605 2.68043 22.2405 2.68043 22.5305 2.97043C22.8205 3.26043 22.8205 3.74043 22.5305 4.03043L18.5305 8.03043C18.3805 8.18043 18.1905 8.25043 18.0005 8.25043Z" fill="#211B2A"/>
</svg>
