<svg width="24" height="24" viewBox="0 0 24 24" fill="none" xmlns="http://www.w3.org/2000/svg">
<path d="M19.272 3.65039L14.172 8.75039H3.20195C2.54195 8.75039 2.00195 8.21039 2.00195 7.55039V7.54039C2.00195 5.25039 3.85195 3.40039 6.14195 3.40039H17.852C18.352 3.40039 18.832 3.49039 19.272 3.65039Z" fill="#211B2A"/>
<path d="M12.672 10.25L7.17195 15.75H6.00195C5.59195 15.75 5.25195 16.09 5.25195 16.5C5.25195 16.81 5.45195 17.09 5.73195 17.19L3.38195 19.54C2.53195 18.79 2.00195 17.69 2.00195 16.46V11.45C2.00195 10.79 2.54195 10.25 3.20195 10.25H12.672Z" fill="#211B2A"/>
<path d="M22.0019 11V16.46C22.0019 18.75 20.1519 20.6 17.8619 20.6H8.81193C7.92193 20.6 7.47193 19.52 8.10193 18.89L9.45193 17.54C9.64193 17.35 9.89193 17.25 10.1619 17.25H14.5019C14.9119 17.25 15.2519 16.91 15.2519 16.5C15.2519 16.09 14.9119 15.75 14.5019 15.75H13.6619C12.7719 15.75 12.3219 14.67 12.9519 14.04L16.4119 10.58C16.7919 10.21 17.3019 10 17.8319 10H21.0019C21.5519 10 22.0019 10.45 22.0019 11Z" fill="#211B2A"/>
<path d="M21.772 2.22988C21.472 1.92988 20.982 1.92988 20.682 2.22988L2.23196 20.6899C1.93196 20.9899 1.93196 21.4799 2.23196 21.7799C2.38196 21.9199 2.57196 21.9999 2.77196 21.9999C2.97196 21.9999 3.16196 21.9199 3.31196 21.7699L21.772 3.30988C22.082 3.00988 22.082 2.52988 21.772 2.22988Z" fill="#211B2A"/>
<path d="M21.772 3.30957L20.612 4.46957L16.332 8.74957L3.31195 21.7696C3.16195 21.9196 2.97195 21.9996 2.77195 21.9996C2.57195 21.9996 2.38195 21.9196 2.23195 21.7696C1.92195 21.4696 1.92195 20.9896 2.23195 20.6896L3.38195 19.5396L5.73195 17.1896L19.272 3.64957L20.692 2.22957C20.992 1.91957 21.472 1.91957 21.772 2.22957C22.082 2.52957 22.082 3.00957 21.772 3.30957Z" fill="#211B2A"/>
<path d="M22.0019 7.41026C22.0019 6.52026 20.9219 6.07026 20.2919 6.70026L20.0019 7.00026L19.7119 7.29026C19.0819 7.92026 19.5219 9.00026 20.4119 9.00026H21.0019C21.5519 9.00026 22.0019 8.55026 22.0019 8.00026V7.41026Z" fill="#211B2A"/>
</svg>
