<svg width="24" height="24" viewBox="0 0 24 24" fill="none" xmlns="http://www.w3.org/2000/svg">
<path d="M11.5005 9.25H2.00049C1.59049 9.25 1.25049 8.91 1.25049 8.5C1.25049 8.09 1.59049 7.75 2.00049 7.75H11.5005C11.9105 7.75 12.2505 8.09 12.2505 8.5C12.2505 8.91 11.9105 9.25 11.5005 9.25Z" fill="#211B2A"/>
<path d="M8.00049 17.25H6.00049C5.59049 17.25 5.25049 16.91 5.25049 16.5C5.25049 16.09 5.59049 15.75 6.00049 15.75H8.00049C8.41049 15.75 8.75049 16.09 8.75049 16.5C8.75049 16.91 8.41049 17.25 8.00049 17.25Z" fill="#211B2A"/>
<path d="M14.5005 17.25H10.5005C10.0905 17.25 9.75049 16.91 9.75049 16.5C9.75049 16.09 10.0905 15.75 10.5005 15.75H14.5005C14.9105 15.75 15.2505 16.09 15.2505 16.5C15.2505 16.91 14.9105 17.25 14.5005 17.25Z" fill="#211B2A"/>
<path d="M17.5605 21.25H6.44049C2.46049 21.25 1.25049 20.05 1.25049 16.11V7.89C1.25049 3.95 2.46049 2.75 6.44049 2.75H14.5005C14.9105 2.75 15.2505 3.09 15.2505 3.5C15.2505 3.91 14.9105 4.25 14.5005 4.25H6.44049C3.30049 4.25 2.75049 4.79 2.75049 7.89V16.1C2.75049 19.2 3.30049 19.74 6.44049 19.74H17.5505C20.6905 19.74 21.2405 19.2 21.2405 16.1V12.02C21.2405 11.61 21.5805 11.27 21.9905 11.27C22.4005 11.27 22.7405 11.61 22.7405 12.02V16.1C22.7505 20.05 21.5405 21.25 17.5605 21.25Z" fill="#211B2A"/>
<path d="M15.5205 11.4401C15.1305 11.4401 14.7605 11.3001 14.5005 11.0301C14.1805 10.7101 14.0405 10.2501 14.1105 9.77005L14.3105 8.35005C14.3605 7.99005 14.5805 7.56005 14.8305 7.31005L18.5405 3.60005C20.0105 2.13005 21.2905 2.97005 21.9305 3.60005C22.5605 4.23005 23.4005 5.51005 21.9305 6.99005L18.2205 10.7001C17.9605 10.9601 17.5305 11.1701 17.1805 11.2201L15.7605 11.4201C15.6805 11.4301 15.6005 11.4401 15.5205 11.4401ZM20.2305 4.28005C20.0305 4.28005 19.8505 4.42005 19.6005 4.66005L15.9005 8.37005C15.8705 8.41005 15.8105 8.52005 15.8005 8.57005L15.6005 9.92005L16.9605 9.73005C17.0105 9.72005 17.1205 9.66005 17.1605 9.63005L20.8705 5.92005C21.3405 5.45005 21.4105 5.19005 20.8705 4.66005C20.6105 4.40005 20.4205 4.28005 20.2305 4.28005Z" fill="#211B2A"/>
<path d="M20.8704 7.73957C20.8004 7.73957 20.7304 7.72957 20.6704 7.70957C19.3004 7.31957 18.2104 6.23957 17.8304 4.86957C17.7204 4.46957 17.9504 4.05957 18.3504 3.93957C18.7504 3.82957 19.1604 4.05957 19.2804 4.45957C19.5304 5.32957 20.2204 6.01957 21.0904 6.26957C21.4904 6.37957 21.7204 6.79957 21.6104 7.18957C21.5004 7.51957 21.2004 7.73957 20.8704 7.73957Z" fill="#211B2A"/>
</svg>
