<svg width="24" height="24" viewBox="0 0 24 24" fill="none" xmlns="http://www.w3.org/2000/svg">
<path d="M15.2215 6.5498H5.78147C5.50147 6.5498 5.24146 6.5598 5.00146 6.5698C2.63146 6.7098 2.00146 7.5798 2.00146 10.2798V10.8598C2.00146 11.4098 2.45146 11.8598 3.00146 11.8598H18.0015C18.5515 11.8598 19.0015 11.4098 19.0015 10.8598V10.2798C19.0015 7.2998 18.2415 6.5498 15.2215 6.5498Z" fill="#211B2A"/>
<path d="M3.00146 13.3604C2.45146 13.3604 2.00146 13.8104 2.00146 14.3604V17.2704C2.00146 20.2504 2.76147 21.0004 5.78147 21.0004H15.2215C18.1915 21.0004 18.9715 20.2804 19.0015 17.4304V14.3604C19.0015 13.8104 18.5515 13.3604 18.0015 13.3604H3.00146ZM6.96146 18.5604H5.25146C4.84146 18.5604 4.50146 18.2204 4.50146 17.8104C4.50146 17.4004 4.84146 17.0604 5.25146 17.0604H6.97146C7.38146 17.0604 7.72146 17.4004 7.72146 17.8104C7.72146 18.2204 7.38146 18.5604 6.96146 18.5604ZM12.5515 18.5604H9.11146C8.70146 18.5604 8.36146 18.2204 8.36146 17.8104C8.36146 17.4004 8.70146 17.0604 9.11146 17.0604H12.5515C12.9615 17.0604 13.3015 17.4004 13.3015 17.8104C13.3015 18.2204 12.9715 18.5604 12.5515 18.5604Z" fill="#211B2A"/>
<path d="M22.0016 13.3296V8.08961C22.0016 4.95961 20.2116 3.59961 17.5116 3.59961H8.58157C7.82157 3.59961 7.14157 3.70961 6.54157 3.93961C6.07157 4.10961 5.65157 4.35961 5.31157 4.68961C5.13157 4.85961 5.27157 5.13961 5.53157 5.13961H16.4016C18.6516 5.13961 20.4716 6.95961 20.4716 9.20961V16.3796C20.4716 16.6296 20.7416 16.7696 20.9216 16.5896C21.6116 15.8596 22.0016 14.7896 22.0016 13.3296Z" fill="#211B2A"/>
</svg>
