<svg width="24" height="24" viewBox="0 0 24 24" fill="none" xmlns="http://www.w3.org/2000/svg">
<path d="M10.11 11.1494H7.45999C6.82999 11.1494 6.32001 11.6594 6.32001 12.2894V17.4094H10.11V11.1494V11.1494Z" stroke="#211B2A" stroke-width="1.5" stroke-miterlimit="10" stroke-linecap="round" stroke-linejoin="round"/>
<path d="M12.7613 6.59961H11.2412C10.6112 6.59961 10.1013 7.10962 10.1013 7.73962V17.3997H13.8913V7.73962C13.8913 7.10962 13.3913 6.59961 12.7613 6.59961Z" stroke="#211B2A" stroke-width="1.5" stroke-miterlimit="10" stroke-linecap="round" stroke-linejoin="round"/>
<path d="M16.5481 12.8496H13.8981V17.3997H17.6881V13.9896C17.6781 13.3596 17.1681 12.8496 16.5481 12.8496Z" stroke="#211B2A" stroke-width="1.5" stroke-miterlimit="10" stroke-linecap="round" stroke-linejoin="round"/>
<path d="M9 22H15C20 22 22 20 22 15V9C22 4 20 2 15 2H9C4 2 2 4 2 9V15C2 20 4 22 9 22Z" stroke="#211B2A" stroke-width="1.5" stroke-linecap="round" stroke-linejoin="round"/>
</svg>
