<svg width="24" height="24" viewBox="0 0 24 24" fill="none" xmlns="http://www.w3.org/2000/svg">
<path opacity="0.4" d="M16.1898 2H7.81976C4.17976 2 2.00977 4.17 2.00977 7.81V16.18C2.00977 19.82 4.17976 21.99 7.81976 21.99H16.1898C19.8298 21.99 21.9998 19.82 21.9998 16.18V7.81C21.9998 4.17 19.8298 2 16.1898 2Z" fill="#211B2A"/>
<path d="M10.1097 11.1494H7.45975C6.82975 11.1494 6.31976 11.6594 6.31976 12.2894V17.4094H10.1097V11.1494Z" fill="#211B2A"/>
<path opacity="0.4" d="M12.7597 6.59961H11.2397C10.6097 6.59961 10.0997 7.10962 10.0997 7.73962V17.3997H13.8897V7.73962C13.8897 7.10962 13.3897 6.59961 12.7597 6.59961Z" fill="#211B2A"/>
<path d="M16.5498 12.8496H13.8998V17.3997H17.6898V13.9896C17.6798 13.3596 17.1698 12.8496 16.5498 12.8496Z" fill="#211B2A"/>
</svg>
