<svg width="24" height="24" viewBox="0 0 24 24" fill="none" xmlns="http://www.w3.org/2000/svg">
<g opacity="0.4">
<path d="M10.1098 11.1494H7.45981C6.82981 11.1494 6.31982 11.6594 6.31982 12.2894V17.4094H10.1098V11.1494V11.1494Z" stroke="#211B2A" stroke-width="1.5" stroke-miterlimit="10" stroke-linecap="round" stroke-linejoin="round"/>
<path d="M12.7601 6.59961H11.2401C10.6101 6.59961 10.1001 7.10962 10.1001 7.73962V17.3997H13.8901V7.73962C13.8901 7.10962 13.3901 6.59961 12.7601 6.59961Z" stroke="#211B2A" stroke-width="1.5" stroke-miterlimit="10" stroke-linecap="round" stroke-linejoin="round"/>
<path d="M16.5499 12.8496H13.8999V17.3997H17.6899V13.9896C17.6799 13.3596 17.1699 12.8496 16.5499 12.8496Z" stroke="#211B2A" stroke-width="1.5" stroke-miterlimit="10" stroke-linecap="round" stroke-linejoin="round"/>
</g>
<path d="M9 22H15C20 22 22 20 22 15V9C22 4 20 2 15 2H9C4 2 2 4 2 9V15C2 20 4 22 9 22Z" stroke="#211B2A" stroke-width="1.5" stroke-linecap="round" stroke-linejoin="round"/>
</svg>
