<svg width="24" height="24" viewBox="0 0 24 24" fill="none" xmlns="http://www.w3.org/2000/svg">
<path d="M10.8405 13.5402H9.34049C8.19049 13.5402 7.26049 12.5802 7.26049 11.3902C7.26049 10.9802 7.60049 10.6402 8.01049 10.6402C8.42049 10.6402 8.76049 10.9802 8.76049 11.3902C8.76049 11.7502 9.02049 12.0402 9.34049 12.0402H10.8405C11.0705 12.0402 11.2505 11.8302 11.2505 11.5702C11.2505 11.2202 11.1905 11.2002 10.9605 11.1202L8.55049 10.2802C7.68049 9.9802 7.25049 9.3702 7.25049 8.4202C7.25049 7.3402 8.11049 6.4502 9.16049 6.4502H10.6605C11.8105 6.4502 12.7405 7.4102 12.7405 8.6002C12.7405 9.0102 12.4005 9.3502 11.9905 9.3502C11.5805 9.3502 11.2405 9.0102 11.2405 8.6002C11.2405 8.2402 10.9805 7.9502 10.6605 7.9502H9.16049C8.93049 7.9502 8.75049 8.1602 8.75049 8.4202C8.75049 8.7702 8.81049 8.7902 9.04049 8.8702L11.4505 9.7102C12.3205 10.0202 12.7405 10.6302 12.7405 11.5702C12.7505 12.6602 11.8905 13.5402 10.8405 13.5402Z" fill="#211B2A"/>
<path d="M10.0005 14.3396C9.59049 14.3396 9.25049 13.9996 9.25049 13.5896V12.8496C9.25049 12.4396 9.59049 12.0996 10.0005 12.0996C10.4105 12.0996 10.7505 12.4396 10.7505 12.8496V13.5896C10.7505 14.0096 10.4105 14.3396 10.0005 14.3396Z" fill="#211B2A"/>
<path d="M10.0005 7.94016C9.59049 7.94016 9.25049 7.60016 9.25049 7.19016V6.41016C9.25049 6.00016 9.59049 5.66016 10.0005 5.66016C10.4105 5.66016 10.7505 6.00016 10.7505 6.41016V7.19016C10.7505 7.60016 10.4105 7.94016 10.0005 7.94016Z" fill="#211B2A"/>
<path d="M9.99049 18.7202C5.17049 18.7202 1.25049 14.8002 1.25049 9.98023C1.25049 5.16023 5.17049 1.24023 9.99049 1.24023C14.8105 1.24023 18.7305 5.16023 18.7305 9.98023C18.7305 14.8002 14.8005 18.7202 9.99049 18.7202ZM9.99049 2.75023C6.00049 2.75023 2.75049 6.00023 2.75049 9.99023C2.75049 13.9802 6.00049 17.2202 9.99049 17.2202C13.9805 17.2202 17.2305 13.9702 17.2305 9.98023C17.2305 5.99023 13.9805 2.75023 9.99049 2.75023Z" fill="#211B2A"/>
<path d="M17.0205 22.7203C15.1705 22.7203 13.4305 21.8203 12.3605 20.3003C12.1205 19.9603 12.2005 19.4903 12.5405 19.2503C12.8805 19.0103 13.3505 19.0903 13.5905 19.4303C14.3805 20.5503 15.6605 21.2103 17.0205 21.2103C19.3405 21.2103 21.2205 19.3303 21.2205 17.0103C21.2205 15.6603 20.5605 14.3803 19.4605 13.5903C19.1205 13.3503 19.0505 12.8803 19.2905 12.5403C19.5305 12.2003 20.0005 12.1303 20.3405 12.3703C21.8305 13.4403 22.7205 15.1703 22.7205 17.0103C22.7205 20.1703 20.1705 22.7203 17.0205 22.7203Z" fill="#211B2A"/>
</svg>
