<svg width="24" height="24" viewBox="0 0 24 24" fill="none" xmlns="http://www.w3.org/2000/svg">
<path opacity="0.4" d="M9.99049 17.98C14.4032 17.98 17.9805 14.4028 17.9805 9.99C17.9805 5.57724 14.4032 2 9.99049 2C5.57773 2 2.00049 5.57724 2.00049 9.99C2.00049 14.4028 5.57773 17.98 9.99049 17.98Z" fill="#211B2A"/>
<path d="M21.9705 15.9901C21.9705 19.2901 19.2905 21.9701 15.9905 21.9701C13.9505 21.9701 12.1605 20.9501 11.0805 19.4001C15.4405 18.9101 18.9105 15.4401 19.4005 11.0801C20.9505 12.1601 21.9705 13.9501 21.9705 15.9901Z" fill="#211B2A"/>
<path d="M11.4505 9.71016L9.05049 8.87016C8.81049 8.79016 8.76049 8.77016 8.76049 8.42016C8.76049 8.16016 8.94049 7.95016 9.17049 7.95016H10.6705C10.9905 7.95016 11.2505 8.24016 11.2505 8.60016C11.2505 9.01016 11.5905 9.35016 12.0005 9.35016C12.4105 9.35016 12.7505 9.01016 12.7505 8.60016C12.7505 7.45016 11.8605 6.51016 10.7505 6.46016V6.41016C10.7505 6.00016 10.4105 5.66016 10.0005 5.66016C9.59049 5.66016 9.25049 5.99016 9.25049 6.41016V6.46016H9.16049C8.11049 6.46016 7.25049 7.34016 7.25049 8.43016C7.25049 9.38016 7.67049 9.99016 8.54049 10.2902L10.9505 11.1302C11.1905 11.2102 11.2405 11.2302 11.2405 11.5802C11.2405 11.8402 11.0605 12.0502 10.8305 12.0502H9.33049C9.01049 12.0502 8.75049 11.7602 8.75049 11.4002C8.75049 10.9902 8.41049 10.6502 8.00049 10.6502C7.59049 10.6502 7.25049 10.9902 7.25049 11.4002C7.25049 12.5502 8.14049 13.4902 9.25049 13.5402V13.6002C9.25049 14.0102 9.59049 14.3502 10.0005 14.3502C10.4105 14.3502 10.7505 14.0102 10.7505 13.6002V13.5502H10.8405C11.8905 13.5502 12.7505 12.6702 12.7505 11.5802C12.7505 10.6302 12.3205 10.0202 11.4505 9.71016Z" fill="#211B2A"/>
</svg>
