<svg width="24" height="24" viewBox="0 0 24 24" fill="none" xmlns="http://www.w3.org/2000/svg">
<path d="M22.0015 15C22.0015 18.87 18.8715 22 15.0015 22L16.0515 20.25" stroke="#211B2A" stroke-width="1.5" stroke-linecap="round" stroke-linejoin="round"/>
<path d="M2.00146 9C2.00146 5.13 5.13146 2 9.00146 2L7.95146 3.75" stroke="#211B2A" stroke-width="1.5" stroke-linecap="round" stroke-linejoin="round"/>
<path d="M22.0015 4.2V4.31C22.0015 4.59 21.7815 4.81 21.5015 4.81H12.5015C12.2215 4.81 12.0015 4.59 12.0015 4.31V4.2C12.0015 2.44 12.4415 2 14.2215 2H19.7815C21.5615 2 22.0015 2.44 22.0015 4.2Z" fill="#211B2A"/>
<path d="M12.5015 5.80957C12.2215 5.80957 12.0015 6.02957 12.0015 6.30957V7.30957V8.29957C12.0015 10.0596 12.4415 10.4996 14.2215 10.4996H19.7815C21.5615 10.4996 22.0015 10.0596 22.0015 8.29957V7.30957V6.30957C22.0015 6.02957 21.7815 5.80957 21.5015 5.80957H12.5015Z" fill="#211B2A"/>
<path d="M12.0015 15.7V15.81C12.0015 16.09 11.7815 16.31 11.5015 16.31H2.50146C2.22146 16.31 2.00146 16.09 2.00146 15.81V15.7C2.00146 13.94 2.44146 13.5 4.22146 13.5H9.78146C11.5615 13.5 12.0015 13.94 12.0015 15.7Z" fill="#211B2A"/>
<path d="M2.50146 17.3096C2.22146 17.3096 2.00146 17.5296 2.00146 17.8096V18.8096V19.7996C2.00146 21.5596 2.44146 21.9996 4.22146 21.9996H9.78146C11.5615 21.9996 12.0015 21.5596 12.0015 19.7996V18.8096V17.8096C12.0015 17.5296 11.7815 17.3096 11.5015 17.3096H2.50146Z" fill="#211B2A"/>
</svg>
