<svg width="24" height="24" viewBox="0 0 24 24" fill="none" xmlns="http://www.w3.org/2000/svg">
<path d="M21.5315 10.8699L20.0115 9.34988C19.7515 9.08988 19.5415 8.57988 19.5415 8.21988V6.05988C19.5415 5.17988 18.8215 4.45988 17.9415 4.45988H15.7915C15.4315 4.45988 14.9215 4.24988 14.6615 3.98988L13.1415 2.46988C12.5215 1.84988 11.5015 1.84988 10.8815 2.46988L9.34147 3.98988C9.09147 4.24988 8.58147 4.45988 8.21147 4.45988H6.06147C5.18147 4.45988 4.46147 5.17988 4.46147 6.05988V8.20988C4.46147 8.56988 4.25147 9.07988 3.99147 9.33988L2.47147 10.8599C1.85147 11.4799 1.85147 12.4999 2.47147 13.1199L3.99147 14.6399C4.25147 14.8999 4.46147 15.4099 4.46147 15.7699V17.9199C4.46147 18.7999 5.18147 19.5199 6.06147 19.5199H8.21147C8.57147 19.5199 9.08147 19.7299 9.34147 19.9899L10.8615 21.5099C11.4815 22.1299 12.5015 22.1299 13.1215 21.5099L14.6415 19.9899C14.9015 19.7299 15.4115 19.5199 15.7715 19.5199H17.9215C18.8015 19.5199 19.5215 18.7999 19.5215 17.9199V15.7699C19.5215 15.4099 19.7315 14.8999 19.9915 14.6399L21.5115 13.1199C22.1615 12.5099 22.1615 11.4899 21.5315 10.8699ZM8.00147 8.99988C8.00147 8.44988 8.45147 7.99988 9.00147 7.99988C9.55147 7.99988 10.0015 8.44988 10.0015 8.99988C10.0015 9.54988 9.56147 9.99988 9.00147 9.99988C8.45147 9.99988 8.00147 9.54988 8.00147 8.99988ZM9.53147 15.5299C9.38147 15.6799 9.19147 15.7499 9.00147 15.7499C8.81147 15.7499 8.62147 15.6799 8.47147 15.5299C8.18147 15.2399 8.18147 14.7599 8.47147 14.4699L14.4715 8.46988C14.7615 8.17988 15.2415 8.17988 15.5315 8.46988C15.8215 8.75988 15.8215 9.23988 15.5315 9.52988L9.53147 15.5299ZM15.0015 15.9999C14.4415 15.9999 13.9915 15.5499 13.9915 14.9999C13.9915 14.4499 14.4415 13.9999 14.9915 13.9999C15.5415 13.9999 15.9915 14.4499 15.9915 14.9999C15.9915 15.5499 15.5515 15.9999 15.0015 15.9999Z" fill="#211B2A"/>
</svg>
