<svg width="24" height="24" viewBox="0 0 24 24" fill="none" xmlns="http://www.w3.org/2000/svg">
<path opacity="0.4" d="M3.98975 14.6604L2.46976 13.1404C1.84976 12.5204 1.84976 11.5004 2.46976 10.8804L3.98975 9.36039C4.24975 9.10039 4.45975 8.59038 4.45975 8.23038V6.08042C4.45975 5.20042 5.17976 4.48038 6.05976 4.48038H8.20975C8.56975 4.48038 9.07976 4.27041 9.33976 4.01041L10.8597 2.49039C11.4797 1.87039 12.4998 1.87039 13.1198 2.49039L14.6398 4.01041C14.8998 4.27041 15.4097 4.48038 15.7697 4.48038H17.9198C18.7998 4.48038 19.5197 5.20042 19.5197 6.08042V8.23038C19.5197 8.59038 19.7297 9.10039 19.9897 9.36039L21.5098 10.8804C22.1298 11.5004 22.1298 12.5204 21.5098 13.1404L19.9897 14.6604C19.7297 14.9204 19.5197 15.4304 19.5197 15.7904V17.9404C19.5197 18.8204 18.7998 19.5404 17.9198 19.5404H15.7697C15.4097 19.5404 14.8998 19.7504 14.6398 20.0104L13.1198 21.5304C12.4998 22.1504 11.4797 22.1504 10.8597 21.5304L9.33976 20.0104C9.07976 19.7504 8.56975 19.5404 8.20975 19.5404H6.05976C5.17976 19.5404 4.45975 18.8204 4.45975 17.9404V15.7904C4.45975 15.4204 4.24975 14.9104 3.98975 14.6604Z" fill="#211B2A"/>
<path d="M14.9998 16C14.4398 16 13.9897 15.55 13.9897 15C13.9897 14.45 14.4397 14 14.9897 14C15.5397 14 15.9897 14.45 15.9897 15C15.9897 15.55 15.5498 16 14.9998 16Z" fill="#211B2A"/>
<path d="M9.00977 10C8.44977 10 7.99976 9.55 7.99976 9C7.99976 8.45 8.44976 8 8.99976 8C9.54976 8 9.99976 8.45 9.99976 9C9.99976 9.55 9.55977 10 9.00977 10Z" fill="#211B2A"/>
<path d="M8.9997 15.7495C8.8097 15.7495 8.6197 15.6795 8.4697 15.5295C8.1797 15.2395 8.1797 14.7595 8.4697 14.4695L14.4697 8.46945C14.7597 8.17945 15.2397 8.17945 15.5297 8.46945C15.8197 8.75945 15.8197 9.23951 15.5297 9.52951L9.52969 15.5295C9.37969 15.6795 9.1897 15.7495 8.9997 15.7495Z" fill="#211B2A"/>
</svg>
