<svg width="24" height="24" viewBox="0 0 24 24" fill="none" xmlns="http://www.w3.org/2000/svg">
<path d="M3.98999 14.6604L2.47 13.1404C1.85 12.5204 1.85 11.5004 2.47 10.8804L3.98999 9.36039C4.24999 9.10039 4.46 8.59038 4.46 8.23038V6.08036C4.46 5.20036 5.18 4.48038 6.06 4.48038H8.21C8.57 4.48038 9.08 4.27041 9.34 4.01041L10.86 2.49039C11.48 1.87039 12.5 1.87039 13.12 2.49039L14.64 4.01041C14.9 4.27041 15.41 4.48038 15.77 4.48038H17.92C18.8 4.48038 19.52 5.20036 19.52 6.08036V8.23038C19.52 8.59038 19.73 9.10039 19.99 9.36039L21.51 10.8804C22.13 11.5004 22.13 12.5204 21.51 13.1404L19.99 14.6604C19.73 14.9204 19.52 15.4304 19.52 15.7904V17.9403C19.52 18.8203 18.8 19.5404 17.92 19.5404H15.77C15.41 19.5404 14.9 19.7504 14.64 20.0104L13.12 21.5304C12.5 22.1504 11.48 22.1504 10.86 21.5304L9.34 20.0104C9.08 19.7504 8.57 19.5404 8.21 19.5404H6.06C5.18 19.5404 4.46 18.8203 4.46 17.9403V15.7904C4.46 15.4204 4.24999 14.9104 3.98999 14.6604Z" stroke="#211B2A" stroke-width="1.5" stroke-linecap="round" stroke-linejoin="round"/>
<path opacity="0.4" d="M9 15L15 9" stroke="#211B2A" stroke-width="1.5" stroke-linecap="round" stroke-linejoin="round"/>
<path opacity="0.4" d="M14.4945 14.5H14.5035" stroke="#211B2A" stroke-width="2" stroke-linecap="round" stroke-linejoin="round"/>
<path opacity="0.4" d="M9.49451 9.5H9.50349" stroke="#211B2A" stroke-width="2" stroke-linecap="round" stroke-linejoin="round"/>
</svg>
