<svg width="24" height="24" viewBox="0 0 24 24" fill="none" xmlns="http://www.w3.org/2000/svg">
<path d="M14.66 20.0105L13.14 21.5305C12.52 22.1505 11.5 22.1505 10.88 21.5305L9.36002 20.0105C9.10002 19.7505 8.59005 19.5405 8.23005 19.5405H6.08002C5.20002 19.5405 4.48005 18.8204 4.48005 17.9404V15.7905C4.48005 15.4305 4.27004 14.9205 4.01004 14.6605L2.49002 13.1405C1.87002 12.5205 1.87002 11.5005 2.49002 10.8805L4.01004 9.36047C4.27004 9.10047 4.48005 8.59047 4.48005 8.23047V6.08044C4.48005 5.20044 5.20002 4.48047 6.08002 4.48047" stroke="#211B2A" stroke-width="1.5" stroke-linecap="round" stroke-linejoin="round"/>
<path d="M9.33997 3.9899L10.86 2.46988C11.48 1.84988 12.5 1.84988 13.12 2.46988L14.64 3.9899C14.9 4.2499 15.41 4.45987 15.77 4.45987H17.92C18.8 4.45987 19.52 5.17997 19.52 6.05997V8.20987C19.52 8.56987 19.73 9.07988 19.99 9.33988L21.51 10.8599C22.13 11.4799 22.13 12.4999 21.51 13.1199L19.99 14.6399C19.73 14.8999 19.52 15.4099 19.52 15.7699V17.92C19.52 18.8 18.8 19.5199 17.92 19.5199" stroke="#211B2A" stroke-width="1.5" stroke-linecap="round" stroke-linejoin="round"/>
<path d="M9 15L15 9" stroke="#211B2A" stroke-width="1.5" stroke-linecap="round" stroke-linejoin="round"/>
<path d="M14.4945 14.5H14.5035" stroke="#211B2A" stroke-width="2" stroke-linecap="round" stroke-linejoin="round"/>
<path d="M9.49451 9.5H9.50349" stroke="#211B2A" stroke-width="2" stroke-linecap="round" stroke-linejoin="round"/>
</svg>
