<svg width="24" height="24" viewBox="0 0 24 24" fill="none" xmlns="http://www.w3.org/2000/svg">
<path opacity="0.4" d="M11.9998 22C17.5226 22 21.9998 17.5228 21.9998 12C21.9998 6.47715 17.5226 2 11.9998 2C6.47691 2 1.99976 6.47715 1.99976 12C1.99976 17.5228 6.47691 22 11.9998 22Z" fill="#211B2A"/>
<path d="M14.9998 16C14.4398 16 13.9897 15.55 13.9897 15C13.9897 14.45 14.4397 14 14.9897 14C15.5397 14 15.9897 14.45 15.9897 15C15.9897 15.55 15.5498 16 14.9998 16Z" fill="#211B2A"/>
<path d="M9.00977 10C8.44977 10 7.99976 9.55 7.99976 9C7.99976 8.45 8.44976 8 8.99976 8C9.54976 8 9.99976 8.45 9.99976 9C9.99976 9.55 9.55977 10 9.00977 10Z" fill="#211B2A"/>
<path d="M8.99973 15.7495C8.80973 15.7495 8.6197 15.6795 8.4697 15.5295C8.1797 15.2395 8.1797 14.7595 8.4697 14.4695L14.4697 8.46945C14.7597 8.17945 15.2398 8.17945 15.5298 8.46945C15.8198 8.75945 15.8198 9.23951 15.5298 9.52951L9.52976 15.5295C9.37976 15.6795 9.18973 15.7495 8.99973 15.7495Z" fill="#211B2A"/>
</svg>
