<svg width="24" height="24" viewBox="0 0 24 24" fill="none" xmlns="http://www.w3.org/2000/svg">
<path opacity="0.4" d="M12.0005 21.9004C17.5233 21.9004 22.0005 17.4232 22.0005 11.9004C22.0005 6.37754 17.5233 1.90039 12.0005 1.90039C6.47764 1.90039 2.00049 6.37754 2.00049 11.9004C2.00049 17.4232 6.47764 21.9004 12.0005 21.9004Z" fill="#211B2A"/>
<path d="M14.2605 12L12.7505 11.47V8.08H13.1105C13.9205 8.08 14.5805 8.79 14.5805 9.66C14.5805 10.07 14.9205 10.41 15.3305 10.41C15.7405 10.41 16.0805 10.07 16.0805 9.66C16.0805 7.96 14.7505 6.58 13.1105 6.58H12.7505V6C12.7505 5.59 12.4105 5.25 12.0005 5.25C11.5905 5.25 11.2505 5.59 11.2505 6V6.58H10.6005C9.12052 6.58 7.91052 7.83 7.91052 9.36C7.91052 11.15 8.95052 11.72 9.74052 12L11.2505 12.53V15.91H10.8905C10.0805 15.91 9.42052 15.2 9.42052 14.33C9.42052 13.92 9.08052 13.58 8.67052 13.58C8.26052 13.58 7.92052 13.92 7.92052 14.33C7.92052 16.03 9.25052 17.41 10.8905 17.41H11.2505V18C11.2505 18.41 11.5905 18.75 12.0005 18.75C12.4105 18.75 12.7505 18.41 12.7505 18V17.42H13.4005C14.8805 17.42 16.0905 16.17 16.0905 14.64C16.0805 12.84 15.0405 12.27 14.2605 12ZM10.2405 10.59C9.73052 10.41 9.42052 10.24 9.42052 9.37C9.42052 8.66 9.95052 8.09 10.6105 8.09H11.2605V10.95L10.2405 10.59ZM13.4005 15.92H12.7505V13.06L13.7605 13.41C14.2705 13.59 14.5805 13.76 14.5805 14.63C14.5805 15.34 14.0505 15.92 13.4005 15.92Z" fill="#211B2A"/>
</svg>
