<svg width="24" height="24" viewBox="0 0 24 24" fill="none" xmlns="http://www.w3.org/2000/svg">
<path d="M11.252 8.08008V10.9401L10.242 10.5901C9.732 10.4101 9.422 10.2401 9.422 9.37008C9.422 8.66008 9.952 8.08008 10.602 8.08008H11.252Z" fill="#211B2A"/>
<path d="M14.582 14.6296C14.582 15.3396 14.052 15.9196 13.402 15.9196H12.752V13.0596L13.762 13.4096C14.272 13.5896 14.582 13.7596 14.582 14.6296Z" fill="#211B2A"/>
<path d="M16.192 2H7.81195C4.17195 2 2.00195 4.17 2.00195 7.81V16.19C2.00195 19.83 4.17195 22 7.81195 22H16.192C19.832 22 22.002 19.83 22.002 16.19V7.81C22.002 4.17 19.832 2 16.192 2ZM14.262 12C15.042 12.27 16.082 12.84 16.082 14.63C16.082 16.17 14.882 17.42 13.402 17.42H12.752V18C12.752 18.41 12.412 18.75 12.002 18.75C11.592 18.75 11.252 18.41 11.252 18V17.42H10.892C9.25195 17.42 7.92195 16.03 7.92195 14.33C7.92195 13.92 8.25195 13.58 8.67195 13.58C9.08195 13.58 9.42195 13.92 9.42195 14.33C9.42195 15.21 10.082 15.92 10.892 15.92H11.252V12.53L9.74195 12C8.96195 11.73 7.92195 11.16 7.92195 9.37C7.92195 7.83 9.12195 6.58 10.602 6.58H11.252V6C11.252 5.59 11.592 5.25 12.002 5.25C12.412 5.25 12.752 5.59 12.752 6V6.58H13.112C14.752 6.58 16.082 7.97 16.082 9.67C16.082 10.08 15.752 10.42 15.332 10.42C14.922 10.42 14.582 10.08 14.582 9.67C14.582 8.79 13.922 8.08 13.112 8.08H12.752V11.47L14.262 12Z" fill="#211B2A"/>
</svg>
