<svg width="24" height="24" viewBox="0 0 24 24" fill="none" xmlns="http://www.w3.org/2000/svg">
<path d="M13.4005 17.4201H10.8905C9.25052 17.4201 7.92052 16.0401 7.92052 14.3401C7.92052 13.9301 8.26052 13.5901 8.67052 13.5901C9.08052 13.5901 9.42052 13.9301 9.42052 14.3401C9.42052 15.2101 10.0805 15.9201 10.8905 15.9201H13.4005C14.0505 15.9201 14.5905 15.3401 14.5905 14.6401C14.5905 13.7701 14.2805 13.6001 13.7705 13.4201L9.74052 12.0001C8.96052 11.7301 7.91052 11.1501 7.91052 9.36008C7.91052 7.82008 9.12052 6.58008 10.6005 6.58008H13.1105C14.7505 6.58008 16.0805 7.96008 16.0805 9.66008C16.0805 10.0701 15.7405 10.4101 15.3305 10.4101C14.9205 10.4101 14.5805 10.0701 14.5805 9.66008C14.5805 8.79008 13.9205 8.08008 13.1105 8.08008H10.6005C9.95052 8.08008 9.41052 8.66008 9.41052 9.36008C9.41052 10.2301 9.72052 10.4001 10.2305 10.5801L14.2605 12.0001C15.0405 12.2701 16.0905 12.8501 16.0905 14.6401C16.0805 16.1701 14.8805 17.4201 13.4005 17.4201Z" fill="#211B2A"/>
<path d="M12.0005 18.75C11.5905 18.75 11.2505 18.41 11.2505 18V6C11.2505 5.59 11.5905 5.25 12.0005 5.25C12.4105 5.25 12.7505 5.59 12.7505 6V18C12.7505 18.41 12.4105 18.75 12.0005 18.75Z" fill="#211B2A"/>
<path d="M15.0005 22.75H9.00049C3.57049 22.75 1.25049 20.43 1.25049 15V9C1.25049 3.57 3.57049 1.25 9.00049 1.25H15.0005C20.4305 1.25 22.7505 3.57 22.7505 9V15C22.7505 20.43 20.4305 22.75 15.0005 22.75ZM9.00049 2.75C4.39049 2.75 2.75049 4.39 2.75049 9V15C2.75049 19.61 4.39049 21.25 9.00049 21.25H15.0005C19.6105 21.25 21.2505 19.61 21.2505 15V9C21.2505 4.39 19.6105 2.75 15.0005 2.75H9.00049Z" fill="#211B2A"/>
</svg>
