<svg width="24" height="24" viewBox="0 0 24 24" fill="none" xmlns="http://www.w3.org/2000/svg">
<path d="M12.752 15.9203H13.402C14.052 15.9203 14.592 15.3403 14.592 14.6403C14.592 13.7703 14.282 13.6003 13.772 13.4203L12.762 13.0703V15.9203H12.752Z" fill="#211B2A"/>
<path d="M11.972 1.90041C6.45202 1.92041 1.98202 6.41041 2.00202 11.9304C2.02202 17.4504 6.51202 21.9204 12.032 21.9004C17.552 21.8804 22.022 17.3904 22.002 11.8704C21.982 6.35041 17.492 1.89041 11.972 1.90041ZM14.262 12.0004C15.042 12.2704 16.092 12.8504 16.092 14.6404C16.092 16.1804 14.882 17.4204 13.402 17.4204H12.752V18.0004C12.752 18.4104 12.412 18.7504 12.002 18.7504C11.592 18.7504 11.252 18.4104 11.252 18.0004V17.4204H10.892C9.25202 17.4204 7.92202 16.0404 7.92202 14.3404C7.92202 13.9304 8.26202 13.5904 8.67202 13.5904C9.08202 13.5904 9.42202 13.9304 9.42202 14.3404C9.42202 15.2104 10.082 15.9204 10.892 15.9204H11.252V12.5404L9.74202 12.0004C8.96202 11.7304 7.91202 11.1504 7.91202 9.36041C7.91202 7.82041 9.12202 6.58041 10.602 6.58041H11.252V6.00041C11.252 5.59041 11.592 5.25041 12.002 5.25041C12.412 5.25041 12.752 5.59041 12.752 6.00041V6.58041H13.112C14.752 6.58041 16.082 7.96041 16.082 9.66041C16.082 10.0704 15.742 10.4104 15.332 10.4104C14.922 10.4104 14.582 10.0704 14.582 9.66041C14.582 8.79041 13.922 8.08041 13.112 8.08041H12.752V11.4604L14.262 12.0004Z" fill="#211B2A"/>
<path d="M9.422 9.37008C9.422 10.2401 9.732 10.4101 10.242 10.5901L11.252 10.9401V8.08008H10.602C9.952 8.08008 9.422 8.66008 9.422 9.37008Z" fill="#211B2A"/>
</svg>
