<svg width="24" height="24" viewBox="0 0 24 24" fill="none" xmlns="http://www.w3.org/2000/svg">
<path opacity="0.4" d="M19.6003 12.6054H21.5664V11.2038C21.5664 9.18892 19.9215 7.54395 17.9066 7.54395H6.73256C4.71772 7.54395 3.07275 9.18892 3.07275 11.2038V15.4573C3.74437 14.922 4.59118 14.6007 5.50613 14.6007C7.65724 14.6007 9.39954 16.343 9.39954 18.4941C9.39954 19.2242 9.19513 19.9152 8.83499 20.4992C8.63059 20.8497 8.36778 21.1611 8.06604 21.4142H17.9066C19.9215 21.4142 21.5664 19.7692 21.5664 17.7544V16.5961H19.7171C18.6658 16.5961 17.7022 15.8272 17.6146 14.7759C17.5562 14.1627 17.7898 13.5884 18.1986 13.1894C18.5588 12.8195 19.0552 12.6054 19.6003 12.6054Z" fill="#211B2A"/>
<path d="M15.0936 3.84527V7.54399H6.73256C4.71772 7.54399 3.07275 9.18896 3.07275 11.2038V7.63162C3.07275 6.47333 3.7833 5.44154 4.86372 5.03273L12.5921 2.11268C13.7991 1.66493 15.0936 2.55071 15.0936 3.84527Z" fill="#211B2A"/>
<path d="M22.5989 13.5982V15.6034C22.5989 16.1387 22.1706 16.5767 21.6255 16.5962H19.7178C18.6665 16.5962 17.7029 15.8272 17.6153 14.776C17.5569 14.1628 17.7905 13.5885 18.1993 13.1895C18.5595 12.8196 19.0559 12.6055 19.601 12.6055H21.6255C22.1706 12.6249 22.5989 13.0629 22.5989 13.5982Z" fill="#211B2A"/>
<path d="M14.2662 12.4102H7.45279C7.05372 12.4102 6.72278 12.0793 6.72278 11.6802C6.72278 11.2811 7.05372 10.9502 7.45279 10.9502H14.2662C14.6653 10.9502 14.9963 11.2811 14.9963 11.6802C14.9963 12.0793 14.6653 12.4102 14.2662 12.4102Z" fill="#211B2A"/>
<path d="M8.25916 15.7404C7.61219 15.0934 6.78627 14.7217 5.93282 14.6254C4.79719 14.4946 3.62026 14.8731 2.75305 15.7404C2.23685 16.2566 1.89273 16.8898 1.73443 17.5574C1.41094 18.8307 1.74819 20.2416 2.75305 21.2465C3.4482 21.9416 4.33605 22.3201 5.25144 22.3683C5.64375 22.4027 6.04983 22.3683 6.44214 22.2651C7.10976 22.1068 7.74296 21.7627 8.25916 21.2465C9.78022 19.7254 9.78022 17.2614 8.25916 15.7404ZM4.79029 17.0343C4.79029 16.6351 5.12066 16.3047 5.51985 16.3047C5.92593 16.3116 6.24941 16.6351 6.25629 17.0412L6.24943 17.7638L6.94459 17.757C7.35066 17.7638 7.67415 18.0873 7.68103 18.4934C7.67414 18.8995 7.35066 19.223 6.94458 19.2298L6.24943 19.223L6.2563 19.9456C6.24942 20.3517 5.92593 20.6752 5.51986 20.6821C5.32026 20.6752 5.14134 20.5926 5.01057 20.4618C4.8798 20.3311 4.79718 20.1521 4.7903 19.9525L4.79032 19.223L4.03324 19.223C3.82676 19.2229 3.64779 19.1404 3.51702 19.0096C3.38625 18.8788 3.30368 18.6999 3.30368 18.4934C3.30368 18.0942 3.63404 17.7638 4.03324 17.7638L4.79031 17.7638L4.79029 17.0343Z" fill="#211B2A"/>
</svg>
