<svg width="24" height="24" viewBox="0 0 24 24" fill="none" xmlns="http://www.w3.org/2000/svg">
<path d="M5.0083 15C4.0683 15 3.1983 15.33 2.5083 15.88C1.5883 16.61 1.0083 17.74 1.0083 19C1.0083 21.21 2.7983 23 5.0083 23C6.0183 23 6.9383 22.62 7.6483 22C8.4783 21.27 9.0083 20.2 9.0083 19C9.0083 16.79 7.2183 15 5.0083 15ZM6.0083 19.25C6.0083 19.51 5.8683 19.76 5.6483 19.89L4.3983 20.64C4.2783 20.72 4.1383 20.75 4.0083 20.75C3.7583 20.75 3.5083 20.62 3.3683 20.39C3.1583 20.03 3.2683 19.57 3.6283 19.36L4.5183 18.83V17.75C4.5083 17.34 4.8483 17 5.2583 17C5.6683 17 6.0083 17.34 6.0083 17.75V19.25Z" fill="#211B2A"/>
<path d="M14.8583 3.9498V7.7498H13.3583V3.9498C13.3583 3.6798 13.1183 3.5498 12.9583 3.5498C12.9083 3.5498 12.8583 3.5598 12.8083 3.5798L4.8783 6.56981C4.3483 6.7698 4.0083 7.2698 4.0083 7.8398V8.5098C3.0983 9.1898 2.5083 10.2798 2.5083 11.5098V7.8398C2.5083 6.6498 3.2383 5.5898 4.3483 5.1698L12.2883 2.1698C12.5083 2.0898 12.7383 2.0498 12.9583 2.0498C13.9583 2.0498 14.8583 2.8598 14.8583 3.9498Z" fill="#211B2A"/>
<path d="M21.5083 14.5V15.5C21.5083 15.77 21.2983 15.99 21.0183 16H19.5583C19.0283 16 18.5483 15.61 18.5083 15.09C18.4783 14.78 18.5983 14.49 18.7983 14.29C18.9783 14.1 19.2283 14 19.4983 14H21.0083C21.2983 14.01 21.5083 14.23 21.5083 14.5Z" fill="#211B2A"/>
<path d="M19.4883 12.95H20.5083C21.0583 12.95 21.5083 12.5 21.5083 11.95V11.51C21.5083 9.44 19.8183 7.75 17.7483 7.75H6.2683C5.4183 7.75 4.6383 8.03 4.0083 8.51C3.0983 9.19 2.5083 10.28 2.5083 11.51V13.29C2.5083 13.67 2.9083 13.91 3.2683 13.79C3.8283 13.6 4.4183 13.5 5.0083 13.5C8.0383 13.5 10.5083 15.97 10.5083 19C10.5083 19.72 10.3183 20.51 10.0183 21.21C9.8583 21.57 10.1083 22 10.4983 22H17.7483C19.8183 22 21.5083 20.31 21.5083 18.24V18.05C21.5083 17.5 21.0583 17.05 20.5083 17.05H19.6383C18.6783 17.05 17.7583 16.46 17.5083 15.53C17.3083 14.77 17.5483 14.03 18.0483 13.55C18.4183 13.17 18.9283 12.95 19.4883 12.95ZM14.0083 12.75H9.0083C8.5983 12.75 8.2583 12.41 8.2583 12C8.2583 11.59 8.5983 11.25 9.0083 11.25H14.0083C14.4183 11.25 14.7583 11.59 14.7583 12C14.7583 12.41 14.4183 12.75 14.0083 12.75Z" fill="#211B2A"/>
</svg>
