<svg width="24" height="24" viewBox="0 0 24 24" fill="none" xmlns="http://www.w3.org/2000/svg">
<path d="M17.7469 22.7502H7.64685C7.33685 22.7502 7.05685 22.5603 6.94685 22.2603C6.83685 21.9603 6.91685 21.6402 7.15685 21.4302C7.85684 20.8102 8.26685 19.9202 8.26685 18.9902C8.26685 17.2002 6.80685 15.7402 5.01685 15.7402C4.27685 15.7402 3.57685 15.9903 2.98685 16.4603C2.75685 16.6403 2.45685 16.6702 2.19685 16.5502C1.93685 16.4302 1.77686 16.1602 1.77686 15.8702V11.5002C1.77686 9.01024 3.79685 6.99023 6.28685 6.99023H17.7668C20.2568 6.99023 22.2769 9.01024 22.2769 11.5002V12.9402C22.2769 13.3502 21.9369 13.6902 21.5269 13.6902H19.5069C19.1569 13.6902 18.8369 13.8202 18.6069 14.0602L18.5968 14.0703C18.3168 14.3403 18.1869 14.7103 18.2169 15.0903C18.2769 15.7503 18.9068 16.2803 19.6268 16.2803H21.5269C21.9369 16.2803 22.2769 16.6203 22.2769 17.0303V18.2202C22.2569 20.7302 20.2369 22.7502 17.7469 22.7502ZM9.18684 21.2502H17.7469C19.4069 21.2502 20.7569 19.9002 20.7569 18.2402V17.8002H19.6069C18.0969 17.8002 16.8169 16.6802 16.6969 15.2402C16.6169 14.4202 16.9168 13.6103 17.5168 13.0203C18.0368 12.4903 18.7368 12.2003 19.4868 12.2003H20.7569V11.5103C20.7569 9.85025 19.4069 8.50024 17.7469 8.50024H6.26685C4.60685 8.50024 3.25685 9.85025 3.25685 11.5103V14.5903C3.81685 14.3703 4.40685 14.2502 5.00685 14.2502C7.62685 14.2502 9.75685 16.3802 9.75685 19.0002C9.75685 19.7902 9.55684 20.5702 9.18684 21.2502Z" fill="#211B2A"/>
<path d="M2.50684 12.2603C2.09684 12.2603 1.75684 11.9203 1.75684 11.5103V7.84035C1.75684 6.35035 2.68684 4.9903 4.07684 4.4703L12.0168 1.4703C12.8368 1.1703 13.7568 1.28035 14.4668 1.78035C15.1768 2.28035 15.6068 3.09034 15.6068 3.95034V7.75033C15.6068 8.16033 15.2668 8.50033 14.8568 8.50033C14.4468 8.50033 14.1068 8.16033 14.1068 7.75033V3.95034C14.1068 3.57034 13.9268 3.23034 13.6168 3.01034C13.2968 2.79034 12.9068 2.74032 12.5468 2.87032L4.60684 5.87032C3.78684 6.18032 3.25684 6.95035 3.25684 7.84035V11.5103C3.25684 11.9203 2.91684 12.2603 2.50684 12.2603Z" fill="#211B2A"/>
<path d="M19.6068 17.8002C18.0968 17.8002 16.8168 16.6802 16.6968 15.2402C16.6168 14.4102 16.9168 13.6002 17.5168 13.0102C18.0268 12.4902 18.7268 12.2002 19.4768 12.2002H21.5568C22.5468 12.2302 23.3068 13.0102 23.3068 13.9702V16.0302C23.3068 16.9902 22.5468 17.7702 21.5868 17.8002H19.6068ZM21.5368 13.7002H19.4868C19.1368 13.7002 18.8168 13.8302 18.5868 14.0702C18.2968 14.3502 18.1568 14.7302 18.1968 15.1102C18.2568 15.7702 18.8868 16.3002 19.6068 16.3002H21.5668C21.6968 16.3002 21.8168 16.1802 21.8168 16.0302V13.9702C21.8168 13.8202 21.6968 13.7102 21.5368 13.7002Z" fill="#211B2A"/>
<path d="M14.0068 12.75H7.00684C6.59684 12.75 6.25684 12.41 6.25684 12C6.25684 11.59 6.59684 11.25 7.00684 11.25H14.0068C14.4168 11.25 14.7568 11.59 14.7568 12C14.7568 12.41 14.4168 12.75 14.0068 12.75Z" fill="#211B2A"/>
<path d="M5.00684 23.75C2.38684 23.75 0.256836 21.62 0.256836 19C0.256836 17.54 0.906835 16.19 2.03683 15.29C2.87683 14.62 3.93684 14.25 5.00684 14.25C7.62684 14.25 9.75684 16.38 9.75684 19C9.75684 20.36 9.16684 21.66 8.14684 22.56C7.26684 23.33 6.15684 23.75 5.00684 23.75ZM5.00684 15.75C4.26684 15.75 3.56684 16 2.97684 16.47C2.20684 17.08 1.75684 18.01 1.75684 19C1.75684 20.79 3.21684 22.25 5.00684 22.25C5.78684 22.25 6.54683 21.96 7.15683 21.44C7.85683 20.82 8.25684 19.94 8.25684 19C8.25684 17.21 6.79684 15.75 5.00684 15.75Z" fill="#211B2A"/>
<path d="M4.00672 20.75C3.75672 20.75 3.50672 20.62 3.36672 20.39C3.15672 20.03 3.26671 19.57 3.62671 19.36L4.51671 18.83V17.75C4.51671 17.34 4.85671 17 5.26671 17C5.67671 17 6.01671 17.34 6.01671 17.75V19.25C6.01671 19.51 5.87671 19.76 5.65671 19.89L4.40671 20.64C4.27671 20.72 4.13672 20.75 4.00672 20.75Z" fill="#211B2A"/>
</svg>
