<svg width="25" height="24" viewBox="0 0 25 24" fill="none" xmlns="http://www.w3.org/2000/svg">
<path d="M5.01172 15C3.99172 15 3.05172 15.39 2.34172 16.03C2.18172 16.17 2.03172 16.32 1.90172 16.49C1.34172 17.18 1.01172 18.05 1.01172 19C1.01172 21.21 2.81172 23 5.01172 23C5.97172 23 6.84172 22.66 7.53172 22.11C8.09172 21.64 8.53172 21.03 8.77172 20.33C8.93172 19.92 9.01172 19.47 9.01172 19C9.01172 16.8 7.22172 15 5.01172 15ZM7.41172 18.23C7.41172 18.51 7.19172 18.72 6.92172 18.72C6.65172 18.72 6.43172 18.51 6.43172 18.23V18.13C6.43172 18.02 6.35172 17.93 6.24172 17.93H4.24172C4.34172 18.12 4.32172 18.35 4.16172 18.51C4.07172 18.6 3.95172 18.65 3.81172 18.65C3.69172 18.65 3.56172 18.6 3.47172 18.51L2.75172 17.79C2.71172 17.75 2.67172 17.69 2.64172 17.63C2.60172 17.51 2.60172 17.38 2.64172 17.26C2.67172 17.21 2.70172 17.14 2.75172 17.1L3.47172 16.39C3.66172 16.19 3.97172 16.19 4.15172 16.39C4.31172 16.54 4.33172 16.78 4.23172 16.96H6.24172C6.88172 16.96 7.40172 17.48 7.40172 18.13V18.23H7.41172ZM6.21172 21.76C6.08172 21.76 5.95172 21.72 5.86172 21.62C5.70172 21.47 5.68172 21.23 5.78172 21.05H3.77172C3.13172 21.05 2.61172 20.53 2.61172 19.88V19.78C2.61172 19.5 2.83172 19.29 3.10172 19.29C3.37172 19.29 3.59172 19.5 3.59172 19.78V19.88C3.59172 19.99 3.67172 20.08 3.78172 20.08H5.79172C5.69172 19.89 5.71172 19.66 5.87172 19.5C6.06172 19.31 6.37172 19.31 6.55172 19.5L7.27172 20.22C7.31172 20.26 7.35172 20.32 7.38172 20.38C7.42172 20.5 7.42172 20.63 7.38172 20.75C7.35172 20.8 7.31172 20.86 7.27172 20.9L6.55172 21.61C6.46172 21.71 6.33172 21.76 6.21172 21.76Z" fill="#211B2A"/>
<path d="M14.8617 3.9498V7.7498H13.3617V3.9498C13.3617 3.6798 13.1217 3.5498 12.9617 3.5498C12.9117 3.5498 12.8617 3.5598 12.8117 3.5798L4.88172 6.56981C4.35172 6.7698 4.01172 7.2698 4.01172 7.8398V8.5098C3.10172 9.1898 2.51172 10.2798 2.51172 11.5098V7.8398C2.51172 6.6498 3.24172 5.5898 4.35172 5.1698L12.2917 2.1698C12.5117 2.0898 12.7417 2.0498 12.9617 2.0498C13.9617 2.0498 14.8617 2.8598 14.8617 3.9498Z" fill="#211B2A"/>
<path d="M21.5117 14.5V15.5C21.5117 15.77 21.3017 15.99 21.0217 16H19.5617C19.0317 16 18.5517 15.61 18.5117 15.09C18.4817 14.78 18.6017 14.49 18.8017 14.29C18.9817 14.1 19.2317 14 19.5017 14H21.0117C21.3017 14.01 21.5117 14.23 21.5117 14.5Z" fill="#211B2A"/>
<path d="M19.4917 12.95H20.5117C21.0617 12.95 21.5117 12.5 21.5117 11.95V11.51C21.5117 9.44 19.8217 7.75 17.7517 7.75H6.27172C5.42172 7.75 4.64172 8.03 4.01172 8.51C3.10172 9.19 2.51172 10.28 2.51172 11.51V13.29C2.51172 13.67 2.91172 13.91 3.27172 13.79C3.83172 13.6 4.42172 13.5 5.01172 13.5C8.04172 13.5 10.5117 15.97 10.5117 19C10.5117 19.72 10.3217 20.51 10.0217 21.21C9.86172 21.57 10.1117 22 10.5017 22H17.7517C19.8217 22 21.5117 20.31 21.5117 18.24V18.05C21.5117 17.5 21.0617 17.05 20.5117 17.05H19.6417C18.6817 17.05 17.7617 16.46 17.5117 15.53C17.3117 14.77 17.5517 14.03 18.0517 13.55C18.4217 13.17 18.9317 12.95 19.4917 12.95ZM14.0117 12.75H9.01172C8.60172 12.75 8.26172 12.41 8.26172 12C8.26172 11.59 8.60172 11.25 9.01172 11.25H14.0117C14.4217 11.25 14.7617 11.59 14.7617 12C14.7617 12.41 14.4217 12.75 14.0117 12.75Z" fill="#211B2A"/>
</svg>
