<svg width="24" height="24" viewBox="0 0 24 24" fill="none" xmlns="http://www.w3.org/2000/svg">
<path d="M8.25925 21.2462C8.90622 20.5993 9.27789 19.7733 9.37425 18.9199C9.50502 17.7842 9.12647 16.6073 8.25925 15.7401C7.74305 15.2239 7.10984 14.8797 6.44222 14.7214C5.16892 14.398 3.75797 14.7352 2.75309 15.7401C2.05794 16.4352 1.67939 17.3231 1.63121 18.2385C1.5968 18.6308 1.63121 19.0369 1.73446 19.4292C1.89276 20.0968 2.23689 20.73 2.75309 21.2462C4.27417 22.7673 6.73818 22.7673 8.25925 21.2462ZM6.9653 17.7774C7.3645 17.7774 7.69487 18.1077 7.69487 18.5069C7.68799 18.913 7.3645 19.2365 6.95842 19.2434L6.23574 19.2365L6.24262 19.9316C6.23574 20.3377 5.91225 20.6612 5.50617 20.6681C5.10009 20.6612 4.77661 20.3377 4.76972 19.9316L4.77661 19.2365L4.05392 19.2434C3.64784 19.2365 3.32436 18.913 3.31748 18.5069C3.32436 18.3073 3.40695 18.1284 3.53772 17.9976C3.66849 17.8668 3.84744 17.7842 4.04704 17.7774L4.77661 17.7774L4.77661 17.0203C4.77661 16.8138 4.8592 16.6348 4.98997 16.5041C5.12074 16.3733 5.29969 16.2907 5.50617 16.2907C5.90537 16.2907 6.23574 16.6211 6.23574 17.0203L6.23574 17.7774L6.9653 17.7774Z" fill="#211B2A"/>
<path d="M15.0952 3.84645V7.54522H13.6352V3.84645C13.6352 3.58365 13.4016 3.45711 13.2458 3.45711C13.1972 3.45711 13.1485 3.46684 13.0998 3.48631L5.38108 6.39666C4.8652 6.59133 4.53426 7.07801 4.53426 7.63283V8.28498C3.6485 8.94686 3.07422 10.0078 3.07422 11.2051V7.63283C3.07422 6.47453 3.78477 5.44277 4.8652 5.03395L12.5937 2.11387C12.8078 2.036 13.0317 1.99707 13.2458 1.99707C14.2192 1.99707 15.0952 2.78549 15.0952 3.84645Z" fill="#211B2A"/>
<path d="M21.5695 14.1166V15.0899C21.5695 15.3527 21.3651 15.5669 21.0925 15.5766H19.6714C19.1556 15.5766 18.6883 15.197 18.6494 14.6908C18.6202 14.3891 18.737 14.1068 18.9317 13.9122C19.1069 13.7272 19.3502 13.6299 19.613 13.6299H21.0828C21.3651 13.6396 21.5695 13.8538 21.5695 14.1166Z" fill="#211B2A"/>
<path d="M19.6019 12.6064H20.5947C21.1301 12.6064 21.5681 12.1684 21.5681 11.633V11.2048C21.5681 9.1899 19.9231 7.54492 17.9082 7.54492H6.73405C5.9067 7.54492 5.14748 7.81746 4.53426 8.28468C3.6485 8.94656 3.07422 10.0075 3.07422 11.2048V12.9373C3.07422 13.3072 3.46356 13.5408 3.81397 13.424C4.35905 13.2391 4.93334 13.1417 5.50762 13.1417C8.4569 13.1417 10.8611 15.5459 10.8611 18.4952C10.8611 19.196 10.6762 19.965 10.3842 20.6463C10.2284 20.9968 10.4718 21.4153 10.8514 21.4153H17.9082C19.9231 21.4153 21.5681 19.7703 21.5681 17.7555V17.5705C21.5681 17.0352 21.1301 16.5972 20.5947 16.5972H19.7479C18.8135 16.5972 17.918 16.0229 17.6746 15.1177C17.4799 14.3779 17.7136 13.6576 18.2002 13.1904C18.5604 12.8205 19.0568 12.6064 19.6019 12.6064ZM14.2679 12.4117H9.40106C9.00198 12.4117 8.67104 12.0808 8.67104 11.6817C8.67104 11.2826 9.00198 10.9517 9.40106 10.9517H14.2679C14.6669 10.9517 14.9979 11.2826 14.9979 11.6817C14.9979 12.0808 14.6669 12.4117 14.2679 12.4117Z" fill="#211B2A"/>
</svg>
