<svg width="25" height="24" viewBox="0 0 25 24" fill="none" xmlns="http://www.w3.org/2000/svg">
<path d="M2.51025 13.24V11.51C2.51025 9.44001 4.20025 7.75 6.27025 7.75H17.7503C19.8203 7.75 21.5103 9.44001 21.5103 11.51V12.95H19.4902C18.9302 12.95 18.4202 13.17 18.0502 13.55C17.6302 13.96 17.3903 14.55 17.4503 15.18C17.5403 16.26 18.5303 17.05 19.6103 17.05H21.5103V18.24C21.5103 20.31 19.8203 22 17.7503 22H12.2702" stroke="#211B2A" stroke-width="1.5" stroke-linecap="round" stroke-linejoin="round"/>
<path opacity="0.4" d="M2.51025 12.4103V7.84035C2.51025 6.65035 3.24025 5.5903 4.35025 5.1703L12.2903 2.1703C13.5303 1.7003 14.8603 2.62033 14.8603 3.95033V7.75032" stroke="#211B2A" stroke-width="1.5" stroke-linecap="round" stroke-linejoin="round"/>
<path d="M22.5703 13.9702V16.0302C22.5703 16.5802 22.1303 17.0302 21.5703 17.0502H19.6103C18.5303 17.0502 17.5403 16.2602 17.4503 15.1802C17.3903 14.5502 17.6303 13.9602 18.0503 13.5502C18.4203 13.1702 18.9303 12.9502 19.4903 12.9502H21.5703C22.1303 12.9702 22.5703 13.4202 22.5703 13.9702Z" stroke="#211B2A" stroke-width="1.5" stroke-linecap="round" stroke-linejoin="round"/>
<path opacity="0.4" d="M7.01025 12H14.0103" stroke="#211B2A" stroke-width="1.5" stroke-linecap="round" stroke-linejoin="round"/>
<path d="M3.01025 16.5H8.35025C8.99025 16.5 9.51025 17.02 9.51025 17.66V18.94" stroke="#211B2A" stroke-width="1.5" stroke-miterlimit="10" stroke-linecap="round" stroke-linejoin="round"/>
<path d="M4.23026 15.2803L3.01025 16.5002L4.23026 17.7202" stroke="#211B2A" stroke-width="1.5" stroke-miterlimit="10" stroke-linecap="round" stroke-linejoin="round"/>
<path d="M9.51025 21.7798H4.17026C3.53026 21.7798 3.01025 21.2598 3.01025 20.6198V19.3398" stroke="#211B2A" stroke-width="1.5" stroke-miterlimit="10" stroke-linecap="round" stroke-linejoin="round"/>
<path d="M8.29028 23.0005L9.51028 21.7806L8.29028 20.5605" stroke="#211B2A" stroke-width="1.5" stroke-miterlimit="10" stroke-linecap="round" stroke-linejoin="round"/>
</svg>
