<svg width="24" height="24" viewBox="0 0 24 24" fill="none" xmlns="http://www.w3.org/2000/svg">
<path d="M22.5668 13.9702V16.0302C22.5668 16.5802 22.1268 17.0302 21.5668 17.0502H19.6068C18.5268 17.0502 17.5368 16.2602 17.4468 15.1802C17.3868 14.5502 17.6268 13.9602 18.0468 13.5502C18.4168 13.1702 18.9268 12.9502 19.4868 12.9502H21.5668C22.1268 12.9702 22.5668 13.4202 22.5668 13.9702Z" stroke="#211B2A" stroke-width="1.5" stroke-linecap="round" stroke-linejoin="round"/>
<path d="M7.00684 12H14.0068" stroke="#211B2A" stroke-width="1.5" stroke-linecap="round" stroke-linejoin="round"/>
<path d="M9.00684 19C9.00684 20.2 8.47684 21.27 7.64684 22C6.93684 22.62 6.01684 23 5.00684 23C2.79684 23 1.00684 21.21 1.00684 19C1.00684 17.74 1.58684 16.61 2.50684 15.88C3.19684 15.33 4.06684 15 5.00684 15C7.21684 15 9.00684 16.79 9.00684 19Z" stroke="#211B2A" stroke-width="1.5" stroke-miterlimit="10" stroke-linecap="round" stroke-linejoin="round"/>
<path d="M5.25684 17.75V19.25L4.00684 20" stroke="#211B2A" stroke-width="1.5" stroke-miterlimit="10" stroke-linecap="round" stroke-linejoin="round"/>
<path d="M14.0068 22H7.63684C7.94684 21.74 8.21683 21.42 8.42683 21.06C8.79683 20.46 9.00684 19.75 9.00684 19C9.00684 16.79 7.21684 15 5.00684 15C4.06684 15 3.19684 15.33 2.50684 15.88V11.51C2.50684 9.44001 4.19683 7.75 6.26683 7.75H17.7468C19.8168 7.75 21.5068 9.44001 21.5068 11.51V12.95H19.4868C18.9268 12.95 18.4168 13.17 18.0468 13.55C17.6268 13.96 17.3868 14.55 17.4468 15.18C17.5368 16.26 18.5268 17.05 19.6068 17.05H21.5068V18.24C21.5068 20.31 19.8168 22 17.7468 22" stroke="#211B2A" stroke-width="1.5" stroke-linecap="round" stroke-linejoin="round"/>
<path d="M12.2868 2.1703C13.5268 1.7003 14.8568 2.62033 14.8568 3.95033V7.75032" stroke="#211B2A" stroke-width="1.5" stroke-linecap="round" stroke-linejoin="round"/>
<path d="M2.50684 12.4099V7.83997C2.50684 6.64997 3.23683 5.58992 4.34683 5.16992L8.31683 3.66992" stroke="#211B2A" stroke-width="1.5" stroke-linecap="round" stroke-linejoin="round"/>
</svg>
