<svg width="24" height="24" viewBox="0 0 24 24" fill="none" xmlns="http://www.w3.org/2000/svg">
<path opacity="0.4" d="M16.1905 2H7.81049C4.17049 2 2.00049 4.17 2.00049 7.81V16.18C2.00049 19.83 4.17049 22 7.81049 22H16.1805C19.8205 22 21.9905 19.83 21.9905 16.19V7.81C22.0005 4.17 19.8305 2 16.1905 2Z" fill="#211B2A"/>
<path d="M10.5005 8.80957H6.00049C5.59049 8.80957 5.25049 8.46957 5.25049 8.05957C5.25049 7.64957 5.59049 7.30957 6.00049 7.30957H10.5005C10.9105 7.30957 11.2505 7.64957 11.2505 8.05957C11.2505 8.46957 10.9105 8.80957 10.5005 8.80957Z" fill="#211B2A"/>
<path d="M18.0005 14.8096H13.5005C13.0905 14.8096 12.7505 14.4696 12.7505 14.0596C12.7505 13.6496 13.0905 13.3096 13.5005 13.3096H18.0005C18.4105 13.3096 18.7505 13.6496 18.7505 14.0596C18.7505 14.4696 18.4105 14.8096 18.0005 14.8096Z" fill="#211B2A"/>
<path d="M18.0005 18.5596H13.5005C13.0905 18.5596 12.7505 18.2196 12.7505 17.8096C12.7505 17.3996 13.0905 17.0596 13.5005 17.0596H18.0005C18.4105 17.0596 18.7505 17.3996 18.7505 17.8096C18.7505 18.2196 18.4105 18.5596 18.0005 18.5596Z" fill="#211B2A"/>
<path d="M18.0005 7.30957H16.5205V5.80957C16.5205 5.39957 16.1805 5.05957 15.7705 5.05957C15.3605 5.05957 15.0205 5.39957 15.0205 5.80957V7.30957H13.5005C13.0905 7.30957 12.7505 7.64957 12.7505 8.05957C12.7505 8.46957 13.0905 8.80957 13.5005 8.80957H15.0205V10.3096C15.0205 10.7196 15.3605 11.0596 15.7705 11.0596C16.1805 11.0596 16.5205 10.7196 16.5205 10.3096V8.80957H18.0005C18.4105 8.80957 18.7505 8.46957 18.7505 8.05957C18.7505 7.64957 18.4105 7.30957 18.0005 7.30957Z" fill="#211B2A"/>
<path d="M9.31043 15.9399L11.0304 14.2199C11.3204 13.9299 11.3204 13.4499 11.0304 13.1599C10.7404 12.8699 10.2604 12.8699 9.97043 13.1599L8.25043 14.8799L6.53043 13.1599C6.24043 12.8699 5.76043 12.8699 5.47043 13.1599C5.18043 13.4499 5.18043 13.9299 5.47043 14.2199L7.19043 15.9399L5.47043 17.6599C5.18043 17.9499 5.18043 18.4299 5.47043 18.7199C5.62043 18.8699 5.81043 18.9399 6.00043 18.9399C6.19043 18.9399 6.38043 18.8699 6.53043 18.7199L8.25043 16.9999L9.97043 18.7199C10.1204 18.8699 10.3104 18.9399 10.5004 18.9399C10.6904 18.9399 10.8804 18.8699 11.0304 18.7199C11.3204 18.4299 11.3204 17.9499 11.0304 17.6599L9.31043 15.9399Z" fill="#211B2A"/>
</svg>
