<svg width="24" height="24" viewBox="0 0 24 24" fill="none" xmlns="http://www.w3.org/2000/svg">
<path d="M21.7007 6.38965H14.4307C14.0207 6.38965 13.6807 6.04965 13.6807 5.63965C13.6807 5.22965 14.0207 4.88965 14.4307 4.88965H21.7007C22.1107 4.88965 22.4507 5.22965 22.4507 5.63965C22.4507 6.04965 22.1107 6.38965 21.7007 6.38965Z" fill="#211B2A"/>
<path d="M9.58054 6.38965H2.30054C1.89054 6.38965 1.55054 6.04965 1.55054 5.63965C1.55054 5.22965 1.89054 4.88965 2.30054 4.88965H9.57054C9.98054 4.88965 10.3205 5.22965 10.3205 5.63965C10.3205 6.04965 9.99054 6.38965 9.58054 6.38965Z" fill="#211B2A"/>
<path d="M21.7004 16.0801H14.4304C14.0204 16.0801 13.6804 15.7401 13.6804 15.3301C13.6804 14.9201 14.0204 14.5801 14.4304 14.5801H21.7004C22.1104 14.5801 22.4504 14.9201 22.4504 15.3301C22.4504 15.7401 22.1104 16.0801 21.7004 16.0801Z" fill="#211B2A"/>
<path d="M21.7007 22.1396H14.4307C14.0207 22.1396 13.6807 21.7996 13.6807 21.3896C13.6807 20.9796 14.0207 20.6396 14.4307 20.6396H21.7007C22.1107 20.6396 22.4507 20.9796 22.4507 21.3896C22.4507 21.7996 22.1107 22.1396 21.7007 22.1396Z" fill="#211B2A"/>
<path d="M18.0906 10.02C17.6806 10.02 17.3406 9.68 17.3406 9.27V2C17.3406 1.59 17.6806 1.25 18.0906 1.25C18.5006 1.25 18.8406 1.59 18.8406 2V9.27C18.8406 9.69 18.5106 10.02 18.0906 10.02Z" fill="#211B2A"/>
<path d="M2.30048 22.7499C2.11048 22.7499 1.92048 22.6799 1.77048 22.5299C1.48048 22.2399 1.48048 21.7599 1.77048 21.4699L9.04048 14.1999C9.33048 13.9099 9.81048 13.9099 10.1005 14.1999C10.3905 14.4899 10.3905 14.9699 10.1005 15.2599L2.83048 22.5299C2.69048 22.6799 2.50048 22.7499 2.30048 22.7499Z" fill="#211B2A"/>
<path d="M9.58049 22.7499C9.39049 22.7499 9.20049 22.6799 9.05049 22.5299L1.78049 15.2599C1.49049 14.9699 1.49049 14.4899 1.78049 14.1999C2.07049 13.9099 2.55049 13.9099 2.84049 14.1999L10.1105 21.4699C10.4005 21.7599 10.4005 22.2399 10.1105 22.5299C9.96049 22.6799 9.77049 22.7499 9.58049 22.7499Z" fill="#211B2A"/>
</svg>
