<svg width="24" height="24" viewBox="0 0 24 24" fill="none" xmlns="http://www.w3.org/2000/svg">
<path d="M1.70001 7.91949C1.70001 4.83949 3.46001 3.51953 6.10001 3.51953H14.89C17.13 3.51953 18.74 4.46953 19.17 6.63953C19.25 7.02953 19.29 7.44949 19.29 7.91949V13.0695C19.29 16.1495 17.53 17.4695 14.89 17.4695H6.10001C5.65001 17.4695 5.22001 17.4295 4.82001 17.3395C4.57001 17.2995 4.32999 17.2295 4.10999 17.1495C2.60999 16.5895 1.70001 15.2895 1.70001 13.0695V11.9995" stroke="#211B2A" stroke-width="1.5" stroke-miterlimit="10" stroke-linecap="round" stroke-linejoin="round"/>
<path d="M22.3 15.0096V16.0696C22.3 19.1496 20.54 20.4696 17.9 20.4696H9.10995C8.36995 20.4696 7.69996 20.3697 7.11996 20.1497C5.92996 19.7097 5.11996 18.7997 4.82996 17.3397C5.22996 17.4297 5.65995 17.4696 6.10995 17.4696H14.9C17.54 17.4696 19.3 16.1496 19.3 13.0696V7.91962C19.3 7.44962 19.26 7.02965 19.18 6.63965C21.09 7.02965 22.3 8.36962 22.3 10.9196" stroke="#211B2A" stroke-width="1.5" stroke-miterlimit="10" stroke-linecap="round" stroke-linejoin="round"/>
<path d="M13.14 10.4994C13.14 9.03939 11.96 7.85938 10.5 7.85938C9.04 7.85938 7.85999 9.03939 7.85999 10.4994C7.85999 11.9594 9.04 13.1394 10.5 13.1394" stroke="#211B2A" stroke-width="1.5" stroke-miterlimit="10" stroke-linecap="round" stroke-linejoin="round"/>
<path d="M4.78003 8.2998V12.6998" stroke="#211B2A" stroke-width="1.5" stroke-miterlimit="10" stroke-linecap="round" stroke-linejoin="round"/>
<path d="M16.22 8.2998V12.6998" stroke="#211B2A" stroke-width="1.5" stroke-miterlimit="10" stroke-linecap="round" stroke-linejoin="round"/>
</svg>
