<svg width="24" height="24" viewBox="0 0 24 24" fill="none" xmlns="http://www.w3.org/2000/svg">
<path d="M19.1714 6.63953C18.7414 4.46953 17.1314 3.51953 14.8914 3.51953H6.11143C3.47143 3.51953 1.71143 4.83953 1.71143 7.91953V13.0695C1.71143 15.2895 2.62143 16.5895 4.12143 17.1495C4.34143 17.2295 4.58143 17.2995 4.83143 17.3395C5.23143 17.4295 5.66143 17.4695 6.11143 17.4695H14.9014C17.5414 17.4695 19.3014 16.1495 19.3014 13.0695V7.91953C19.3014 7.44953 19.2614 7.02953 19.1714 6.63953ZM5.53143 11.9995C5.53143 12.4095 5.19143 12.7495 4.78143 12.7495C4.37143 12.7495 4.03143 12.4095 4.03143 11.9995V8.99953C4.03143 8.58953 4.37143 8.24953 4.78143 8.24953C5.19143 8.24953 5.53143 8.58953 5.53143 8.99953V11.9995ZM10.5014 13.1395C9.04143 13.1395 7.86143 11.9595 7.86143 10.4995C7.86143 9.03953 9.04143 7.85953 10.5014 7.85953C11.9614 7.85953 13.1414 9.03953 13.1414 10.4995C13.1414 11.9595 11.9614 13.1395 10.5014 13.1395ZM16.9614 11.9995C16.9614 12.4095 16.6214 12.7495 16.2114 12.7495C15.8014 12.7495 15.4614 12.4095 15.4614 11.9995V8.99953C15.4614 8.58953 15.8014 8.24953 16.2114 8.24953C16.6214 8.24953 16.9614 8.58953 16.9614 8.99953V11.9995Z" fill="#211B2A"/>
<path d="M22.3015 10.9203V16.0703C22.3015 19.1503 20.5415 20.4803 17.8915 20.4803H9.11148C8.36148 20.4803 7.69148 20.3703 7.11148 20.1503C6.64148 19.9803 6.23148 19.7303 5.90148 19.4103C5.72148 19.2403 5.86148 18.9703 6.11148 18.9703H14.8915C18.5915 18.9703 20.7915 16.7703 20.7915 13.0803V7.92028C20.7915 7.68028 21.0615 7.53028 21.2315 7.71028C21.9115 8.43028 22.3015 9.48028 22.3015 10.9203Z" fill="#211B2A"/>
</svg>
