<svg width="24" height="24" viewBox="0 0 24 24" fill="none" xmlns="http://www.w3.org/2000/svg">
<path d="M18.812 6.25047H20.172C19.982 5.98047 19.782 5.73047 19.572 5.48047L18.812 6.25047Z" fill="#211B2A"/>
<path d="M18.522 4.42031C18.272 4.21031 18.022 4.01031 17.752 3.82031V5.18031L18.522 4.42031Z" fill="#211B2A"/>
<path d="M19.582 5.48043L22.532 2.53043C22.822 2.24043 22.822 1.76043 22.532 1.47043C22.242 1.18043 21.762 1.18043 21.472 1.47043L18.522 4.42043C18.902 4.75043 19.252 5.11043 19.582 5.48043Z" fill="#211B2A"/>
<path d="M17.752 3C17.752 2.59 17.412 2.25 17.002 2.25C16.602 2.25 16.282 2.57 16.262 2.96C16.782 3.21 17.282 3.49 17.752 3.82V3Z" fill="#211B2A"/>
<path d="M21.752 7C21.752 6.59 21.412 6.25 21.002 6.25H20.172C20.502 6.72 20.792 7.22 21.032 7.74C21.432 7.72 21.752 7.4 21.752 7Z" fill="#211B2A"/>
<path d="M12.752 14.7498H13.052C13.442 14.7498 13.752 14.3998 13.752 13.9698C13.752 13.4298 13.602 13.3498 13.262 13.2298L12.752 13.0498V14.7498Z" fill="#211B2A"/>
<path d="M21.042 7.74C21.032 7.74 21.022 7.75 21.002 7.75H17.002C16.902 7.75 16.812 7.73 16.712 7.69C16.532 7.61 16.382 7.47 16.302 7.28C16.272 7.19 16.252 7.1 16.252 7V3C16.252 2.99 16.262 2.98 16.262 2.96C14.962 2.35 13.522 2 12.002 2C6.48195 2 2.00195 6.48 2.00195 12C2.00195 17.52 6.48195 22 12.002 22C17.522 22 22.002 17.52 22.002 12C22.002 10.48 21.652 9.04 21.042 7.74ZM13.752 11.82C14.392 12.04 15.252 12.51 15.252 13.98C15.252 15.23 14.262 16.26 13.052 16.26H12.752V16.51C12.752 16.92 12.412 17.26 12.002 17.26C11.592 17.26 11.252 16.92 11.252 16.51V16.26H11.172C9.84195 16.26 8.75195 15.14 8.75195 13.76C8.75195 13.34 9.09195 13 9.50195 13C9.91195 13 10.252 13.34 10.252 13.75C10.252 14.3 10.662 14.75 11.172 14.75H11.252V12.53L10.252 12.18C9.61195 11.96 8.75195 11.49 8.75195 10.02C8.75195 8.77 9.74195 7.74 10.952 7.74H11.252V7.5C11.252 7.09 11.592 6.75 12.002 6.75C12.412 6.75 12.752 7.09 12.752 7.5V7.75H12.832C14.162 7.75 15.252 8.87 15.252 10.25C15.252 10.66 14.912 11 14.502 11C14.092 11 13.752 10.66 13.752 10.25C13.752 9.7 13.342 9.25 12.832 9.25H12.752V11.47L13.752 11.82Z" fill="#211B2A"/>
<path d="M10.252 10.03C10.252 10.57 10.402 10.65 10.742 10.77L11.252 10.95V9.25H10.952C10.572 9.25 10.252 9.6 10.252 10.03Z" fill="#211B2A"/>
</svg>
