<svg width="24" height="24" viewBox="0 0 24 24" fill="none" xmlns="http://www.w3.org/2000/svg">
<path d="M17.0002 20.75H12.0002C11.5902 20.75 11.2502 20.41 11.2502 20C11.2502 19.59 11.5902 19.25 12.0002 19.25H17.0002C19.8602 19.25 21.2502 17.86 21.2502 15V9C21.2502 6.14 19.8602 4.75 17.0002 4.75H7.00024C4.14024 4.75 2.75024 6.14 2.75024 9V11C2.75024 11.41 2.41024 11.75 2.00024 11.75C1.59024 11.75 1.25024 11.41 1.25024 11V9C1.25024 5.35 3.35024 3.25 7.00024 3.25H17.0002C20.6502 3.25 22.7502 5.35 22.7502 9V15C22.7502 18.65 20.6502 20.75 17.0002 20.75Z" fill="#211B2A"/>
<path d="M12.0002 15.25C10.2102 15.25 8.75024 13.79 8.75024 12C8.75024 10.21 10.2102 8.75 12.0002 8.75C13.7902 8.75 15.2502 10.21 15.2502 12C15.2502 13.79 13.7902 15.25 12.0002 15.25ZM12.0002 10.25C11.0402 10.25 10.2502 11.04 10.2502 12C10.2502 12.96 11.0402 13.75 12.0002 13.75C12.9602 13.75 13.7502 12.96 13.7502 12C13.7502 11.04 12.9602 10.25 12.0002 10.25Z" fill="#211B2A"/>
<path d="M18.5002 15.25C18.0902 15.25 17.7502 14.91 17.7502 14.5V9.5C17.7502 9.09 18.0902 8.75 18.5002 8.75C18.9102 8.75 19.2502 9.09 19.2502 9.5V14.5C19.2502 14.91 18.9102 15.25 18.5002 15.25Z" fill="#211B2A"/>
<path d="M8.50024 18.69C8.09024 18.69 7.75024 18.35 7.75024 17.94V16.66C7.75024 16.44 7.57027 16.25 7.34027 16.25H2.00024C1.59024 16.25 1.25024 15.91 1.25024 15.5C1.25024 15.09 1.59024 14.75 2.00024 14.75H7.34027C8.39027 14.75 9.25024 15.61 9.25024 16.66V17.94C9.25024 18.35 8.91024 18.69 8.50024 18.69Z" fill="#211B2A"/>
<path d="M3.22019 17.4697C3.03019 17.4697 2.84022 17.3997 2.69022 17.2497L1.47019 16.0298C1.18019 15.7398 1.18019 15.2597 1.47019 14.9697L2.69022 13.7497C2.98022 13.4597 3.46021 13.4597 3.75021 13.7497C4.04021 14.0397 4.04021 14.5197 3.75021 14.8097L3.06021 15.4997L3.75021 16.1897C4.04021 16.4797 4.04021 16.9597 3.75021 17.2497C3.60021 17.3997 3.41019 17.4697 3.22019 17.4697Z" fill="#211B2A"/>
<path d="M8.50024 21.5298H3.16022C2.11022 21.5298 1.25024 20.6698 1.25024 19.6198V18.3398C1.25024 17.9298 1.59024 17.5898 2.00024 17.5898C2.41024 17.5898 2.75024 17.9298 2.75024 18.3398V19.6198C2.75024 19.8398 2.93022 20.0298 3.16022 20.0298H8.50024C8.91024 20.0298 9.25024 20.3698 9.25024 20.7798C9.25024 21.1898 8.91024 21.5298 8.50024 21.5298Z" fill="#211B2A"/>
<path d="M7.28 22.75C7.09 22.75 6.89997 22.68 6.74997 22.53C6.45997 22.24 6.45997 21.7599 6.74997 21.4699L7.43997 20.78L6.74997 20.09C6.45997 19.8 6.45997 19.32 6.74997 19.03C7.03997 18.74 7.51997 18.74 7.80997 19.03L9.03 20.25C9.32 20.54 9.32 21.02 9.03 21.31L7.80997 22.53C7.66997 22.68 7.47 22.75 7.28 22.75Z" fill="#211B2A"/>
</svg>
