<svg width="24" height="24" viewBox="0 0 24 24" fill="none" xmlns="http://www.w3.org/2000/svg">
<path opacity="0.4" d="M19.2997 7.91949V13.0695C19.2997 16.1495 17.5397 17.4695 14.8997 17.4695H6.10971C5.65971 17.4695 5.22971 17.4295 4.82971 17.3395C4.57971 17.2995 4.33972 17.2295 4.11972 17.1495C2.61972 16.5895 1.70972 15.2895 1.70972 13.0695V7.91949C1.70972 4.83949 3.46971 3.51953 6.10971 3.51953H14.8997C17.1397 3.51953 18.7497 4.46953 19.1797 6.63953C19.2497 7.03953 19.2997 7.44949 19.2997 7.91949Z" fill="#211B2A"/>
<path d="M22.2997 10.9196V16.0696C22.2997 19.1496 20.5397 20.4696 17.8997 20.4696H9.10971C8.36971 20.4696 7.69972 20.3697 7.11972 20.1497C5.92972 19.7097 5.11971 18.7997 4.82971 17.3397C5.22971 17.4297 5.65971 17.4696 6.10971 17.4696H14.8997C17.5397 17.4696 19.2997 16.1496 19.2997 13.0696V7.91962C19.2997 7.44962 19.2597 7.02965 19.1797 6.63965C21.0797 7.03965 22.2997 8.37962 22.2997 10.9196Z" fill="#211B2A"/>
<path d="M10.4998 13.1404C11.9578 13.1404 13.1398 11.9584 13.1398 10.5004C13.1398 9.04233 11.9578 7.86035 10.4998 7.86035C9.04172 7.86035 7.85974 9.04233 7.85974 10.5004C7.85974 11.9584 9.04172 13.1404 10.4998 13.1404Z" fill="#211B2A"/>
<path d="M4.77979 8.25C4.36979 8.25 4.02979 8.59 4.02979 9V12C4.02979 12.41 4.36979 12.75 4.77979 12.75C5.18979 12.75 5.52979 12.41 5.52979 12V9C5.52979 8.59 5.19979 8.25 4.77979 8.25Z" fill="#211B2A"/>
<path d="M16.2097 8.25C15.7997 8.25 15.4597 8.59 15.4597 9V12C15.4597 12.41 15.7997 12.75 16.2097 12.75C16.6197 12.75 16.9597 12.41 16.9597 12V9C16.9597 8.59 16.6297 8.25 16.2097 8.25Z" fill="#211B2A"/>
</svg>
