<svg width="24" height="24" viewBox="0 0 24 24" fill="none" xmlns="http://www.w3.org/2000/svg">
<path d="M19.3 7.91949V13.0695C19.3 16.1495 17.54 17.4695 14.9 17.4695H6.10995C5.65995 17.4695 5.22996 17.4295 4.82996 17.3395C4.57996 17.2995 4.33996 17.2295 4.11996 17.1495C2.61996 16.5895 1.70996 15.2895 1.70996 13.0695V7.91949C1.70996 4.83949 3.46995 3.51953 6.10995 3.51953H14.9C17.14 3.51953 18.75 4.46953 19.18 6.63953C19.25 7.03953 19.3 7.44949 19.3 7.91949Z" stroke="#211B2A" stroke-width="1.5" stroke-miterlimit="10" stroke-linecap="round" stroke-linejoin="round"/>
<path opacity="0.4" d="M22.3 10.9196V16.0696C22.3 19.1496 20.54 20.4696 17.9 20.4696H9.10995C8.36995 20.4696 7.69996 20.3697 7.11996 20.1497C5.92996 19.7097 5.11996 18.7997 4.82996 17.3397C5.22996 17.4297 5.65995 17.4696 6.10995 17.4696H14.9C17.54 17.4696 19.3 16.1496 19.3 13.0696V7.91962C19.3 7.44962 19.26 7.02965 19.18 6.63965C21.08 7.03965 22.3 8.37962 22.3 10.9196Z" stroke="#211B2A" stroke-width="1.5" stroke-miterlimit="10" stroke-linecap="round" stroke-linejoin="round"/>
<path d="M10.5 13.1404C11.958 13.1404 13.14 11.9584 13.14 10.5004C13.14 9.04233 11.958 7.86035 10.5 7.86035C9.04197 7.86035 7.85999 9.04233 7.85999 10.5004C7.85999 11.9584 9.04197 13.1404 10.5 13.1404Z" stroke="#211B2A" stroke-width="1.5" stroke-miterlimit="10" stroke-linecap="round" stroke-linejoin="round"/>
<path opacity="0.4" d="M4.78003 8.2998V12.6998" stroke="#211B2A" stroke-width="1.5" stroke-miterlimit="10" stroke-linecap="round" stroke-linejoin="round"/>
<path opacity="0.4" d="M16.22 8.2998V12.6998" stroke="#211B2A" stroke-width="1.5" stroke-miterlimit="10" stroke-linecap="round" stroke-linejoin="round"/>
</svg>
