<svg width="24" height="24" viewBox="0 0 24 24" fill="none" xmlns="http://www.w3.org/2000/svg">
<path d="M9.50049 13.7502C9.50049 14.7202 10.2505 15.5002 11.1705 15.5002H13.0505C13.8505 15.5002 14.5005 14.8202 14.5005 13.9702C14.5005 13.0602 14.1005 12.7302 13.5105 12.5202L10.5005 11.4702C9.91049 11.2602 9.5105 10.9402 9.5105 10.0202C9.5105 9.18023 10.1605 8.49023 10.9605 8.49023H12.8405C13.7605 8.49023 14.5105 9.27023 14.5105 10.2402" stroke="#211B2A" stroke-width="1.5" stroke-linecap="round" stroke-linejoin="round"/>
<path d="M12.0005 7.5V16.5" stroke="#211B2A" stroke-width="1.5" stroke-linecap="round" stroke-linejoin="round"/>
<path d="M12.0005 2C6.48049 2 2.00049 6.48 2.00049 12C2.00049 15.94 4.28049 19.35 7.60049 20.98" stroke="#211B2A" stroke-width="1.5" stroke-linecap="round" stroke-linejoin="round"/>
<path d="M22.0005 12C22.0005 17.52 17.5205 22 12.0005 22" stroke="#211B2A" stroke-width="1.5" stroke-linecap="round" stroke-linejoin="round"/>
<path d="M22.0005 6V2H18.0005" stroke="#211B2A" stroke-width="1.5" stroke-linecap="round" stroke-linejoin="round"/>
<path d="M17.0005 7L22.0005 2" stroke="#211B2A" stroke-width="1.5" stroke-linecap="round" stroke-linejoin="round"/>
</svg>
