<svg width="24" height="24" viewBox="0 0 24 24" fill="none" xmlns="http://www.w3.org/2000/svg">
<path d="M2.00024 11V9C2.00024 5.5 4.00024 4 7.00024 4H17.0002C20.0002 4 22.0002 5.5 22.0002 9V15C22.0002 18.5 20.0002 20 17.0002 20H12.0002" stroke="#211B2A" stroke-width="1.5" stroke-miterlimit="10" stroke-linecap="round" stroke-linejoin="round"/>
<path opacity="0.4" d="M12.0002 14.5C13.381 14.5 14.5002 13.3807 14.5002 12C14.5002 10.6193 13.381 9.5 12.0002 9.5C10.6195 9.5 9.50024 10.6193 9.50024 12C9.50024 13.3807 10.6195 14.5 12.0002 14.5Z" stroke="#211B2A" stroke-width="1.5" stroke-miterlimit="10" stroke-linecap="round" stroke-linejoin="round"/>
<path opacity="0.4" d="M18.5002 9.5V14.5" stroke="#211B2A" stroke-width="1.5" stroke-miterlimit="10" stroke-linecap="round" stroke-linejoin="round"/>
<path d="M2.00024 15.5H7.34027C7.98027 15.5 8.50024 16.02 8.50024 16.66V17.94" stroke="#211B2A" stroke-width="1.5" stroke-miterlimit="10" stroke-linecap="round" stroke-linejoin="round"/>
<path d="M3.22021 14.2803L2.00024 15.5002L3.22021 16.7202" stroke="#211B2A" stroke-width="1.5" stroke-miterlimit="10" stroke-linecap="round" stroke-linejoin="round"/>
<path d="M8.50024 20.7798H3.16022C2.52022 20.7798 2.00024 20.2598 2.00024 19.6198V18.3398" stroke="#211B2A" stroke-width="1.5" stroke-miterlimit="10" stroke-linecap="round" stroke-linejoin="round"/>
<path d="M7.28027 22.0005L8.50024 20.7806L7.28027 19.5605" stroke="#211B2A" stroke-width="1.5" stroke-miterlimit="10" stroke-linecap="round" stroke-linejoin="round"/>
</svg>
