<svg width="24" height="24" viewBox="0 0 24 24" fill="none" xmlns="http://www.w3.org/2000/svg">
<path d="M13.0505 16.2502H11.1705C9.8405 16.2502 8.75049 15.1302 8.75049 13.7502C8.75049 13.3402 9.09049 13.0002 9.50049 13.0002C9.91049 13.0002 10.2505 13.3402 10.2505 13.7502C10.2505 14.3002 10.6605 14.7502 11.1705 14.7502H13.0505C13.4405 14.7502 13.7505 14.4002 13.7505 13.9702C13.7505 13.4302 13.6005 13.3502 13.2605 13.2302L10.2505 12.1802C9.61049 11.9502 8.75049 11.4902 8.75049 10.0202C8.75049 8.77023 9.7405 7.74023 10.9505 7.74023H12.8305C14.1605 7.74023 15.2505 8.86023 15.2505 10.2402C15.2505 10.6502 14.9105 10.9902 14.5005 10.9902C14.0905 10.9902 13.7505 10.6502 13.7505 10.2402C13.7505 9.69023 13.3405 9.24023 12.8305 9.24023H10.9505C10.5605 9.24023 10.2505 9.59023 10.2505 10.0202C10.2505 10.5602 10.4005 10.6402 10.7405 10.7602L13.7505 11.8102C14.3905 12.0402 15.2505 12.5002 15.2505 13.9702C15.2505 15.2302 14.2605 16.2502 13.0505 16.2502Z" fill="#211B2A"/>
<path d="M12.0005 17.25C11.5905 17.25 11.2505 16.91 11.2505 16.5V7.5C11.2505 7.09 11.5905 6.75 12.0005 6.75C12.4105 6.75 12.7505 7.09 12.7505 7.5V16.5C12.7505 16.91 12.4105 17.25 12.0005 17.25Z" fill="#211B2A"/>
<path d="M12.0005 22.75C6.07049 22.75 1.25049 17.93 1.25049 12C1.25049 6.07 6.07049 1.25 12.0005 1.25C12.4105 1.25 12.7505 1.59 12.7505 2C12.7505 2.41 12.4105 2.75 12.0005 2.75C6.90049 2.75 2.75049 6.9 2.75049 12C2.75049 17.1 6.90049 21.25 12.0005 21.25C17.1005 21.25 21.2505 17.1 21.2505 12C21.2505 11.59 21.5905 11.25 22.0005 11.25C22.4105 11.25 22.7505 11.59 22.7505 12C22.7505 17.93 17.9305 22.75 12.0005 22.75Z" fill="#211B2A"/>
<path d="M22.0005 6.75C21.5905 6.75 21.2505 6.41 21.2505 6V2.75H18.0005C17.5905 2.75 17.2505 2.41 17.2505 2C17.2505 1.59 17.5905 1.25 18.0005 1.25H22.0005C22.4105 1.25 22.7505 1.59 22.7505 2V6C22.7505 6.41 22.4105 6.75 22.0005 6.75Z" fill="#211B2A"/>
<path d="M17.0004 7.75043C16.8104 7.75043 16.6204 7.68043 16.4704 7.53043C16.1804 7.24043 16.1804 6.76043 16.4704 6.47043L21.4704 1.47043C21.7604 1.18043 22.2404 1.18043 22.5304 1.47043C22.8204 1.76043 22.8204 2.24043 22.5304 2.53043L17.5304 7.53043C17.3804 7.68043 17.1904 7.75043 17.0004 7.75043Z" fill="#211B2A"/>
</svg>
