<svg width="25" height="24" viewBox="0 0 25 24" fill="none" xmlns="http://www.w3.org/2000/svg">
<path d="M9.01196 2H15.012C20.012 2 22.012 4 22.012 9V15C22.012 20 20.012 22 15.012 22H9.01196C4.01196 22 2.01196 20 2.01196 15V9C2.01196 4 4.01196 2 9.01196 2Z" stroke="#211B2A" stroke-width="1.5" stroke-linecap="round" stroke-linejoin="round"/>
<path d="M8.58203 15.2704L15.122 8.73047" stroke="#211B2A" stroke-width="1.5" stroke-linecap="round" stroke-linejoin="round"/>
<path d="M8.99197 10.3701C9.67128 10.3701 10.222 9.81948 10.222 9.14017C10.222 8.46086 9.67128 7.91016 8.99197 7.91016C8.31266 7.91016 7.76196 8.46086 7.76196 9.14017C7.76196 9.81948 8.31266 10.3701 8.99197 10.3701Z" stroke="#211B2A" stroke-width="1.5" stroke-linecap="round" stroke-linejoin="round"/>
<path d="M15.532 16.0899C16.2113 16.0899 16.762 15.5392 16.762 14.8599C16.762 14.1806 16.2113 13.6299 15.532 13.6299C14.8527 13.6299 14.302 14.1806 14.302 14.8599C14.302 15.5392 14.8527 16.0899 15.532 16.0899Z" stroke="#211B2A" stroke-width="1.5" stroke-linecap="round" stroke-linejoin="round"/>
</svg>
