<svg width="25" height="24" viewBox="0 0 25 24" fill="none" xmlns="http://www.w3.org/2000/svg">
<path d="M8.58344 16.0201C8.39344 16.0201 8.20344 15.9501 8.05344 15.8001C7.76344 15.5101 7.76344 15.0301 8.05344 14.7401L14.6034 8.19016C14.8934 7.90016 15.3734 7.90016 15.6634 8.19016C15.9534 8.48016 15.9534 8.96015 15.6634 9.25015L9.11344 15.8001C8.96344 15.9501 8.77344 16.0201 8.58344 16.0201Z" fill="#211B2A"/>
<path d="M8.99368 11.1104C7.90368 11.1104 7.01367 10.2204 7.01367 9.1304C7.01367 8.0404 7.90368 7.15039 8.99368 7.15039C10.0837 7.15039 10.9737 8.0404 10.9737 9.1304C10.9737 10.2204 10.0837 11.1104 8.99368 11.1104ZM8.99368 8.6604C8.73368 8.6604 8.51367 8.87041 8.51367 9.14041C8.51367 9.41041 8.72368 9.62039 8.99368 9.62039C9.26368 9.62039 9.47366 9.41041 9.47366 9.14041C9.47366 8.87041 9.25368 8.6604 8.99368 8.6604Z" fill="#211B2A"/>
<path d="M15.5337 16.8399C14.4437 16.8399 13.5537 15.9499 13.5537 14.8599C13.5537 13.7699 14.4437 12.8799 15.5337 12.8799C16.6237 12.8799 17.5137 13.7699 17.5137 14.8599C17.5137 15.9499 16.6237 16.8399 15.5337 16.8399ZM15.5337 14.3899C15.2737 14.3899 15.0537 14.5999 15.0537 14.8699C15.0537 15.1399 15.2637 15.3499 15.5337 15.3499C15.8037 15.3499 16.0137 15.1399 16.0137 14.8699C16.0137 14.5999 15.8037 14.3899 15.5337 14.3899Z" fill="#211B2A"/>
<path d="M12.0137 22.75C6.08367 22.75 1.26367 17.93 1.26367 12C1.26367 6.07 6.08367 1.25 12.0137 1.25C17.9437 1.25 22.7637 6.07 22.7637 12C22.7637 17.93 17.9437 22.75 12.0137 22.75ZM12.0137 2.75C6.91367 2.75 2.76367 6.9 2.76367 12C2.76367 17.1 6.91367 21.25 12.0137 21.25C17.1137 21.25 21.2637 17.1 21.2637 12C21.2637 6.9 17.1137 2.75 12.0137 2.75Z" fill="#211B2A"/>
</svg>
