<svg width="25" height="24" viewBox="0 0 25 24" fill="none" xmlns="http://www.w3.org/2000/svg">
<path opacity="0.4" d="M16.2017 2H7.83173C4.19173 2 2.02173 4.17 2.02173 7.81V16.18C2.02173 19.82 4.19173 21.99 7.83173 21.99H16.2017C19.8417 21.99 22.0117 19.82 22.0117 16.18V7.81C22.0117 4.17 19.8417 2 16.2017 2Z" fill="#211B2A"/>
<path d="M8.83173 16.0201C8.64173 16.0201 8.45173 15.9501 8.30173 15.8001C8.01173 15.5101 8.01173 15.0301 8.30173 14.7401L14.8517 8.19016C15.1417 7.90016 15.6217 7.90016 15.9117 8.19016C16.2017 8.48016 16.2017 8.96015 15.9117 9.25015L9.36173 15.8001C9.21173 15.9501 9.02173 16.0201 8.83173 16.0201Z" fill="#211B2A"/>
<path d="M9.24173 7.66016C8.43173 7.66016 7.76172 8.32017 7.76172 9.14017C7.76172 9.95017 8.42173 10.6201 9.24173 10.6201C10.0517 10.6201 10.7217 9.96017 10.7217 9.14017C10.7117 8.32017 10.0517 7.66016 9.24173 7.66016Z" fill="#211B2A"/>
<path d="M15.7817 13.3896C14.9717 13.3896 14.3018 14.0496 14.3018 14.8696C14.3018 15.6796 14.9617 16.3496 15.7817 16.3496C16.5917 16.3496 17.2617 15.6896 17.2617 14.8696C17.2617 14.0496 16.6017 13.3896 15.7817 13.3896Z" fill="#211B2A"/>
</svg>
