<svg width="25" height="24" viewBox="0 0 25 24" fill="none" xmlns="http://www.w3.org/2000/svg">
<path d="M8.58374 15.2704L15.1237 8.73047" stroke="#211B2A" stroke-width="1.5" stroke-linecap="round" stroke-linejoin="round"/>
<path d="M8.99368 10.3701C9.67299 10.3701 10.2237 9.81948 10.2237 9.14017C10.2237 8.46086 9.67299 7.91016 8.99368 7.91016C8.31437 7.91016 7.76367 8.46086 7.76367 9.14017C7.76367 9.81948 8.31437 10.3701 8.99368 10.3701Z" stroke="#211B2A" stroke-width="1.5" stroke-linecap="round" stroke-linejoin="round"/>
<path d="M15.5337 16.0899C16.213 16.0899 16.7637 15.5392 16.7637 14.8599C16.7637 14.1806 16.213 13.6299 15.5337 13.6299C14.8544 13.6299 14.3037 14.1806 14.3037 14.8599C14.3037 15.5392 14.8544 16.0899 15.5337 16.0899Z" stroke="#211B2A" stroke-width="1.5" stroke-linecap="round" stroke-linejoin="round"/>
<path d="M12.0137 22C17.5365 22 22.0137 17.5228 22.0137 12C22.0137 6.47715 17.5365 2 12.0137 2C6.49082 2 2.01367 6.47715 2.01367 12C2.01367 17.5228 6.49082 22 12.0137 22Z" stroke="#211B2A" stroke-width="1.5" stroke-linecap="round" stroke-linejoin="round"/>
</svg>
