<svg width="25" height="24" viewBox="0 0 25 24" fill="none" xmlns="http://www.w3.org/2000/svg">
<path d="M2.01196 13.05V15C2.01196 20 4.01196 22 9.01196 22H15.012C20.012 22 22.012 20 22.012 15V9C22.012 4 20.012 2 15.012 2H9.01196C4.01196 2 2.01196 4 2.01196 9" stroke="#211B2A" stroke-width="1.5" stroke-linecap="round" stroke-linejoin="round"/>
<path d="M8.33197 15.2704L14.8719 8.73047" stroke="#211B2A" stroke-width="1.5" stroke-linecap="round" stroke-linejoin="round"/>
<path d="M8.74197 10.3701C9.42128 10.3701 9.97195 9.81948 9.97195 9.14017C9.97195 8.46086 9.42128 7.91016 8.74197 7.91016C8.06266 7.91016 7.51196 8.46086 7.51196 9.14017C7.51196 9.81948 8.06266 10.3701 8.74197 10.3701Z" stroke="#211B2A" stroke-width="1.5" stroke-linecap="round" stroke-linejoin="round"/>
<path d="M15.282 16.0899C15.9613 16.0899 16.512 15.5392 16.512 14.8599C16.512 14.1806 15.9613 13.6299 15.282 13.6299C14.6027 13.6299 14.052 14.1806 14.052 14.8599C14.052 15.5392 14.6027 16.0899 15.282 16.0899Z" stroke="#211B2A" stroke-width="1.5" stroke-linecap="round" stroke-linejoin="round"/>
</svg>
