<svg width="25" height="24" viewBox="0 0 25 24" fill="none" xmlns="http://www.w3.org/2000/svg">
<path d="M15.012 22.75H9.01196C3.58196 22.75 1.26196 20.43 1.26196 15V9C1.26196 3.57 3.58196 1.25 9.01196 1.25H15.012C20.442 1.25 22.762 3.57 22.762 9V15C22.762 20.43 20.442 22.75 15.012 22.75ZM9.01196 2.75C4.40196 2.75 2.76196 4.39 2.76196 9V15C2.76196 19.61 4.40196 21.25 9.01196 21.25H15.012C19.622 21.25 21.262 19.61 21.262 15V9C21.262 4.39 19.622 2.75 15.012 2.75H9.01196Z" fill="#211B2A"/>
<path d="M8.58173 16.0201C8.39173 16.0201 8.20173 15.9501 8.05173 15.8001C7.76173 15.5101 7.76173 15.0301 8.05173 14.7401L14.6017 8.19016C14.8917 7.90016 15.3717 7.90016 15.6617 8.19016C15.9517 8.48016 15.9517 8.96015 15.6617 9.25015L9.11173 15.8001C8.96173 15.9501 8.77173 16.0201 8.58173 16.0201Z" fill="#211B2A"/>
<path d="M8.99197 11.1104C7.90197 11.1104 7.01196 10.2204 7.01196 9.1304C7.01196 8.0404 7.90197 7.15039 8.99197 7.15039C10.082 7.15039 10.972 8.0404 10.972 9.1304C10.972 10.2204 10.082 11.1104 8.99197 11.1104ZM8.99197 8.6604C8.73197 8.6604 8.51196 8.87041 8.51196 9.14041C8.51196 9.41041 8.72197 9.62039 8.99197 9.62039C9.26197 9.62039 9.47195 9.41041 9.47195 9.14041C9.47195 8.87041 9.25197 8.6604 8.99197 8.6604Z" fill="#211B2A"/>
<path d="M15.532 16.8399C14.442 16.8399 13.552 15.9499 13.552 14.8599C13.552 13.7699 14.442 12.8799 15.532 12.8799C16.622 12.8799 17.512 13.7699 17.512 14.8599C17.512 15.9499 16.622 16.8399 15.532 16.8399ZM15.532 14.3899C15.272 14.3899 15.052 14.5999 15.052 14.8699C15.052 15.1399 15.262 15.3499 15.532 15.3499C15.802 15.3499 16.012 15.1399 16.012 14.8699C16.012 14.5999 15.802 14.3899 15.532 14.3899Z" fill="#211B2A"/>
</svg>
