<svg width="25" height="24" viewBox="0 0 25 24" fill="none" xmlns="http://www.w3.org/2000/svg">
<path d="M8.33368 15.2704L14.8737 8.73047" stroke="#211B2A" stroke-width="1.5" stroke-linecap="round" stroke-linejoin="round"/>
<path d="M8.74368 10.3701C9.42299 10.3701 9.97366 9.81948 9.97366 9.14017C9.97366 8.46086 9.42299 7.91016 8.74368 7.91016C8.06437 7.91016 7.51367 8.46086 7.51367 9.14017C7.51367 9.81948 8.06437 10.3701 8.74368 10.3701Z" stroke="#211B2A" stroke-width="1.5" stroke-linecap="round" stroke-linejoin="round"/>
<path d="M15.2837 16.0899C15.963 16.0899 16.5137 15.5392 16.5137 14.8599C16.5137 14.1806 15.963 13.6299 15.2837 13.6299C14.6044 13.6299 14.0537 14.1806 14.0537 14.8599C14.0537 15.5392 14.6044 16.0899 15.2837 16.0899Z" stroke="#211B2A" stroke-width="1.5" stroke-linecap="round" stroke-linejoin="round"/>
<path d="M4.01367 6C2.76367 7.67 2.01367 9.75 2.01367 12C2.01367 17.52 6.49367 22 12.0137 22C17.5337 22 22.0137 17.52 22.0137 12C22.0137 6.48 17.5337 2 12.0137 2C10.5837 2 9.21367 2.30001 7.98367 2.85001" stroke="#211B2A" stroke-width="1.5" stroke-linecap="round" stroke-linejoin="round"/>
</svg>
