<svg width="25" height="24" viewBox="0 0 25 24" fill="none" xmlns="http://www.w3.org/2000/svg">
<path opacity="0.4" d="M12.0134 22C17.5363 22 22.0134 17.5228 22.0134 12C22.0134 6.47715 17.5363 2 12.0134 2C6.49058 2 2.01343 6.47715 2.01343 12C2.01343 17.5228 6.49058 22 12.0134 22Z" fill="#211B2A"/>
<path d="M8.33344 16.0201C8.14344 16.0201 7.95344 15.9501 7.80344 15.8001C7.51344 15.5101 7.51344 15.0301 7.80344 14.7401L14.3534 8.19016C14.6434 7.90016 15.1234 7.90016 15.4134 8.19016C15.7034 8.48016 15.7034 8.96015 15.4134 9.25015L8.86344 15.8001C8.71344 15.9501 8.52344 16.0201 8.33344 16.0201Z" fill="#211B2A"/>
<path d="M8.74344 7.66016C7.93344 7.66016 7.26343 8.32017 7.26343 9.14017C7.26343 9.95017 7.92344 10.6201 8.74344 10.6201C9.55344 10.6201 10.2234 9.96017 10.2234 9.14017C10.2134 8.32017 9.55344 7.66016 8.74344 7.66016Z" fill="#211B2A"/>
<path d="M15.2834 13.3906C14.4734 13.3906 13.8035 14.0506 13.8035 14.8706C13.8035 15.6806 14.4634 16.3506 15.2834 16.3506C16.0934 16.3506 16.7635 15.6906 16.7635 14.8706C16.7635 14.0506 16.1034 13.3906 15.2834 13.3906Z" fill="#211B2A"/>
</svg>
