<svg width="24" height="24" viewBox="0 0 24 24" fill="none" xmlns="http://www.w3.org/2000/svg">
<path opacity="0.4" d="M6.72977 19.6998C7.54977 18.8198 8.79974 18.8898 9.51974 19.8498L10.5298 21.1998C11.3398 22.2698 12.6497 22.2698 13.4597 21.1998L14.4698 19.8498C15.1898 18.8898 16.4398 18.8198 17.2598 19.6998C19.0398 21.5998 20.4897 20.9698 20.4897 18.3098V7.04974C20.4897 3.01974 19.5497 2.00977 15.7697 2.00977H8.20975C4.42975 2.00977 3.48975 3.01974 3.48975 7.04974V18.3098C3.49975 20.9698 4.95977 21.5898 6.72977 19.6998Z" fill="#211B2A"/>
<path d="M15.6598 13.47L14.9198 12.73C15.2998 12.15 15.5298 11.45 15.5298 10.7C15.5298 8.66001 13.8697 7 11.8297 7C9.78974 7 8.12976 8.66001 8.12976 10.7C8.12976 12.74 9.78974 14.4 11.8297 14.4C12.5797 14.4 13.2797 14.17 13.8597 13.79L14.5998 14.53C14.7498 14.68 14.9398 14.75 15.1298 14.75C15.3198 14.75 15.5098 14.68 15.6598 14.53C15.9498 14.24 15.9498 13.76 15.6598 13.47Z" fill="#211B2A"/>
</svg>
