<svg width="24" height="24" viewBox="0 0 24 24" fill="none" xmlns="http://www.w3.org/2000/svg">
<path opacity="0.4" d="M6.73049 19.7C7.55049 18.82 8.80049 18.89 9.52049 19.85L10.5305 21.2C11.3405 22.27 12.6505 22.27 13.4605 21.2L14.4705 19.85C15.1905 18.89 16.4405 18.82 17.2605 19.7C19.0405 21.6 20.4905 20.97 20.4905 18.31V7.04C20.5005 3.01 19.5605 2 15.7805 2H8.22049C4.44049 2 3.50049 3.01 3.50049 7.04V18.3C3.50049 20.97 4.96049 21.59 6.73049 19.7Z" fill="#211B2A"/>
<path d="M15.0005 14C14.4405 14 14.0005 13.55 14.0005 13C14.0005 12.45 14.4505 12 15.0005 12C15.5505 12 16.0005 12.45 16.0005 13C16.0005 13.55 15.5605 14 15.0005 14Z" fill="#211B2A"/>
<path d="M9.00049 9C8.44049 9 8.00049 8.55 8.00049 8C8.00049 7.45 8.45049 7 9.00049 7C9.55049 7 10.0005 7.45 10.0005 8C10.0005 8.55 9.56049 9 9.00049 9Z" fill="#211B2A"/>
<path d="M8.63043 14.5498C8.44043 14.5498 8.25043 14.4798 8.10043 14.3298C7.81043 14.0398 7.81043 13.5598 8.10043 13.2698L14.8304 6.53977C15.1204 6.24977 15.6004 6.24977 15.8904 6.53977C16.1804 6.82977 16.1804 7.30977 15.8904 7.59977L9.16043 14.3298C9.02043 14.4798 8.82043 14.5498 8.63043 14.5498Z" fill="#211B2A"/>
</svg>
