<svg width="24" height="24" viewBox="0 0 24 24" fill="none" xmlns="http://www.w3.org/2000/svg">
<path d="M12.0005 22.75C11.2105 22.75 10.4605 22.35 9.94049 21.64L8.93049 20.29C8.72049 20.01 8.44049 19.85 8.14049 19.83C7.84049 19.81 7.54049 19.95 7.30049 20.2L6.73049 19.7L7.28049 20.21C5.83049 21.75 4.73049 21.63 4.20049 21.42C3.66049 21.21 2.75049 20.52 2.75049 18.3V7.04C2.75049 2.6 4.03049 1.25 8.22049 1.25H15.7705C19.9605 1.25 21.2405 2.6 21.2405 7.04V18.3C21.2405 20.51 20.3305 21.2 19.7905 21.42C19.2605 21.63 18.1605 21.75 16.7105 20.21C16.4705 19.95 16.1605 19.82 15.8605 19.84C15.5605 19.86 15.2705 20.02 15.0605 20.3L14.0505 21.65C13.5405 22.35 12.7905 22.75 12.0005 22.75ZM8.08049 18.33C8.12049 18.33 8.17049 18.33 8.21049 18.33C8.95049 18.37 9.65049 18.76 10.1205 19.39L11.1405 20.74C11.6305 21.39 12.3805 21.39 12.8705 20.74L13.8805 19.39C14.3505 18.76 15.0505 18.37 15.8005 18.33C16.5505 18.29 17.2805 18.6 17.8205 19.18C18.5805 19.99 19.0705 20.09 19.2505 20.02C19.4905 19.92 19.7505 19.34 19.7505 18.3V7.04C19.7505 3.43 19.1205 2.75 15.7805 2.75H8.22049C4.88049 2.75 4.25049 3.43 4.25049 7.04V18.3C4.25049 19.35 4.51049 19.93 4.75049 20.02C4.93049 20.09 5.42049 19.99 6.18049 19.18C6.70049 18.63 7.38049 18.33 8.08049 18.33Z" fill="#211B2A"/>
<path d="M15.0005 14C14.4405 14 14.0005 13.55 14.0005 13C14.0005 12.45 14.4505 12 15.0005 12C15.5505 12 16.0005 12.45 16.0005 13C16.0005 13.55 15.5605 14 15.0005 14Z" fill="#211B2A"/>
<path d="M9.00049 9C8.44049 9 8.00049 8.55 8.00049 8C8.00049 7.45 8.45049 7 9.00049 7C9.55049 7 10.0005 7.45 10.0005 8C10.0005 8.55 9.56049 9 9.00049 9Z" fill="#211B2A"/>
<path d="M8.63043 14.5498C8.44043 14.5498 8.25043 14.4798 8.10043 14.3298C7.81043 14.0398 7.81043 13.5598 8.10043 13.2698L14.8304 6.53977C15.1204 6.24977 15.6004 6.24977 15.8904 6.53977C16.1804 6.82977 16.1804 7.30977 15.8904 7.59977L9.16043 14.3298C9.02043 14.4798 8.83043 14.5498 8.63043 14.5498Z" fill="#211B2A"/>
</svg>
