<svg width="24" height="24" viewBox="0 0 24 24" fill="none" xmlns="http://www.w3.org/2000/svg">
<path opacity="0.4" d="M6.72977 19.6998C7.54977 18.8198 8.79974 18.8898 9.51974 19.8498L10.5298 21.1998C11.3398 22.2698 12.6497 22.2698 13.4597 21.1998L14.4698 19.8498C15.1898 18.8898 16.4398 18.8198 17.2598 19.6998C19.0398 21.5998 20.4897 20.9698 20.4897 18.3098V7.04974C20.4897 3.01974 19.5497 2.00977 15.7697 2.00977H8.20975C4.42975 2.00977 3.48975 3.01974 3.48975 7.04974V18.3098C3.49975 20.9698 4.95977 21.5898 6.72977 19.6998Z" fill="#211B2A"/>
<path d="M14.8397 9.99017L14.3397 10.5002H14.3297L11.2997 13.5302C11.1697 13.6602 10.8997 13.8002 10.7097 13.8202L9.35969 14.0202C8.86969 14.0902 8.52971 13.7402 8.59971 13.2602L8.78971 11.9002C8.81971 11.7102 8.94969 11.4502 9.07969 11.3102L12.1197 8.28018L12.6197 7.77017C12.9497 7.44017 13.3197 7.2002 13.7197 7.2002C14.0597 7.2002 14.4297 7.36017 14.8397 7.77017C15.7397 8.67017 15.4497 9.38017 14.8397 9.99017Z" fill="#211B2A"/>
</svg>
