<svg width="24" height="24" viewBox="0 0 24 24" fill="none" xmlns="http://www.w3.org/2000/svg">
<path d="M2.00047 7.13964C2.00047 5.91964 2.93048 4.56964 4.07048 4.13964L9.05048 2.26961C9.87048 1.95961 11.2305 1.95961 12.0505 2.26961L17.0205 4.13964C17.9705 4.49964 18.7805 5.49961 19.0305 6.51961H11.7305C11.5105 6.51961 11.3105 6.52962 11.1205 6.52962C9.27047 6.63962 8.79047 7.30963 8.79047 9.41963V14.8496C8.79047 17.1596 9.38047 17.7496 11.7305 17.7496H17.6505C17.5605 17.8296 17.4705 17.8996 17.3805 17.9796L13.1105 21.1796C11.7005 22.2296 9.40047 22.2296 7.98047 21.1796L3.70047 17.9796C2.76047 17.2796 1.99048 15.7296 1.99048 14.5596V11.2396" stroke="#211B2A" stroke-width="1.5" stroke-linecap="round" stroke-linejoin="round"/>
<path d="M8.80048 11.2197H22.0005" stroke="#211B2A" stroke-width="1.5" stroke-miterlimit="10" stroke-linecap="round" stroke-linejoin="round"/>
<path d="M22.0005 9.41977V14.9698C21.9805 17.1898 21.3705 17.7397 19.0605 17.7397H11.7405C9.39048 17.7397 8.80048 17.1498 8.80048 14.8398V9.40976C8.80048 7.30976 9.28048 6.63974 11.1305 6.51974C11.3205 6.51974 11.5205 6.50977 11.7405 6.50977H19.0605C21.4105 6.51977 22.0005 7.09977 22.0005 9.41977Z" stroke="#211B2A" stroke-width="1.5" stroke-linecap="round" stroke-linejoin="round"/>
<path d="M11.3205 15.2598H12.6505" stroke="#211B2A" stroke-width="1.5" stroke-miterlimit="10" stroke-linecap="round" stroke-linejoin="round"/>
<path d="M14.7505 15.2598H18.0205" stroke="#211B2A" stroke-width="1.5" stroke-miterlimit="10" stroke-linecap="round" stroke-linejoin="round"/>
</svg>
