<svg width="24" height="24" viewBox="0 0 24 24" fill="none" xmlns="http://www.w3.org/2000/svg">
<path d="M10.5603 22.7097C9.48026 22.7097 8.39026 22.3997 7.55026 21.7697L3.27026 18.5697C2.14026 17.7297 1.26025 15.9597 1.26025 14.5397V7.12973C1.26025 5.59973 2.38027 3.96972 3.82027 3.42972L8.80026 1.55973C9.79026 1.18973 11.3403 1.18973 12.3303 1.55973L17.3003 3.42972C18.4703 3.86972 19.4603 5.03973 19.7803 6.33973C19.8303 6.55973 19.7803 6.79974 19.6403 6.97974C19.5003 7.15974 19.2803 7.26972 19.0503 7.26972L11.1403 7.27973C9.87026 7.35973 9.56026 7.56974 9.56026 9.41974V14.8497C9.56026 16.7597 9.81026 16.9997 11.7503 16.9997H17.6703C17.9803 16.9997 18.2603 17.1897 18.3703 17.4797C18.4803 17.7697 18.4003 18.0997 18.1703 18.3097C18.0603 18.3997 17.9703 18.4897 17.8603 18.5697L13.5803 21.7797C12.7203 22.3997 11.6403 22.7097 10.5603 22.7097ZM10.5603 2.78974C10.1103 2.78974 9.65027 2.84974 9.32027 2.97974L4.34026 4.84974C3.50026 5.16973 2.75026 6.23972 2.75026 7.14972V14.5597C2.75026 15.4997 3.41026 16.8197 4.16026 17.3797L8.44026 20.5797C9.59026 21.4297 11.5203 21.4297 12.6703 20.5797L15.4403 18.5097H11.7403C8.98026 18.5097 8.05026 17.5897 8.05026 14.8597V9.42972C8.05026 7.29972 8.56026 5.94974 11.0903 5.78974L11.7403 5.77973H17.8903C17.5903 5.34973 17.1903 5.00974 16.7703 4.84974L11.8003 2.97974C11.4603 2.84974 11.0103 2.78974 10.5603 2.78974Z" fill="#211B2A"/>
<path d="M22.0003 11.9697H8.80029C8.39029 11.9697 8.05029 11.6297 8.05029 11.2197C8.05029 10.8097 8.39029 10.4697 8.80029 10.4697H22.0003C22.4103 10.4697 22.7503 10.8097 22.7503 11.2197C22.7503 11.6297 22.4103 11.9697 22.0003 11.9697Z" fill="#211B2A"/>
<path d="M19.0603 18.4995H11.7403C8.9803 18.4995 8.05029 17.5795 8.05029 14.8495V9.41956C8.05029 7.28956 8.56029 5.93954 11.0903 5.77954L11.7403 5.76953H19.0603C21.8203 5.76953 22.7503 6.68956 22.7503 9.41956V14.9695C22.7303 17.6095 21.8003 18.4995 19.0603 18.4995ZM11.7403 7.26953L11.1303 7.27954C9.86029 7.35954 9.55029 7.56956 9.55029 9.41956V14.8495C9.55029 16.7595 9.8003 16.9995 11.7403 16.9995H19.0603C20.9703 16.9995 21.2303 16.7495 21.2503 14.9695V9.42953C21.2503 7.51953 21.0003 7.27954 19.0603 7.27954H11.7403V7.26953Z" fill="#211B2A"/>
<path d="M12.6505 16.0098H11.3105C10.9005 16.0098 10.5605 15.6698 10.5605 15.2598C10.5605 14.8498 10.9005 14.5098 11.3105 14.5098H12.6505C13.0605 14.5098 13.4005 14.8498 13.4005 15.2598C13.4005 15.6698 13.0705 16.0098 12.6505 16.0098Z" fill="#211B2A"/>
<path d="M18.0205 16.0098H14.7505C14.3405 16.0098 14.0005 15.6698 14.0005 15.2598C14.0005 14.8498 14.3405 14.5098 14.7505 14.5098H18.0205C18.4305 14.5098 18.7705 14.8498 18.7705 15.2598C18.7705 15.6698 18.4405 16.0098 18.0205 16.0098Z" fill="#211B2A"/>
</svg>
