<svg width="24" height="24" viewBox="0 0 24 24" fill="none" xmlns="http://www.w3.org/2000/svg">
<path opacity="0.4" d="M9.4205 2.16043L3.9205 4.22043C2.8705 4.61043 2.0105 5.86042 2.0105 6.98042V15.0804C2.0105 15.8904 2.54051 16.9604 3.19051 17.4404L8.69051 21.5504C9.66051 22.2804 11.2505 22.2804 12.2205 21.5504L17.7205 17.4404C18.3705 16.9504 18.9005 15.8904 18.9005 15.0804V6.98042C18.9005 5.86042 18.0405 4.61043 16.9905 4.22043L11.4905 2.16043C10.9205 1.95043 9.9905 1.95043 9.4205 2.16043Z" fill="#211B2A"/>
<path d="M19.2605 6.75977H12.4105C12.2105 6.75977 12.0205 6.76978 11.8405 6.76978C10.1205 6.86978 9.66049 7.49978 9.66049 9.45978V9.84978C9.66049 10.264 9.99628 10.5998 10.4105 10.5998H21.2505C21.6647 10.5998 22.0005 10.264 22.0005 9.84978V9.45978C22.0005 7.29978 21.4505 6.75977 19.2605 6.75977Z" fill="#211B2A"/>
<path d="M10.4205 11.7002C10.0063 11.7002 9.67047 12.036 9.67047 12.4502V14.5402C9.67047 16.7002 10.2205 17.2502 12.4105 17.2502H19.2605C21.4105 17.2502 21.9805 16.7302 22.0005 14.6602V12.4502C22.0005 12.036 21.6647 11.7002 21.2505 11.7002H10.4205ZM13.2705 15.4702H12.0205C11.7205 15.4702 11.4805 15.2302 11.4805 14.9302C11.4805 14.6302 11.7205 14.3902 12.0205 14.3902H13.2705C13.5705 14.3902 13.8105 14.6302 13.8105 14.9302C13.8105 15.2302 13.5705 15.4702 13.2705 15.4702ZM17.3205 15.4702H14.8305C14.5305 15.4702 14.2905 15.2302 14.2905 14.9302C14.2905 14.6302 14.5305 14.3902 14.8305 14.3902H17.3205C17.6205 14.3902 17.8605 14.6302 17.8605 14.9302C17.8705 15.2302 17.6205 15.4702 17.3205 15.4702Z" fill="#211B2A"/>
</svg>
