<svg width="24" height="24" viewBox="0 0 24 24" fill="none" xmlns="http://www.w3.org/2000/svg">
<path d="M11.7405 17.7504H17.6605C17.5705 17.8304 17.4805 17.9004 17.3905 17.9804L13.1205 21.1803C11.7105 22.2303 9.41049 22.2303 7.99049 21.1803L3.71049 17.9804C2.77049 17.2804 2.00049 15.7304 2.00049 14.5604V7.15035C2.00049 5.93035 2.9305 4.58035 4.0705 4.15035L9.05049 2.28035C9.87049 1.97035 11.2305 1.97035 12.0505 2.28035L17.0205 4.15035C17.9705 4.51035 18.7805 5.51035 19.0305 6.53035H11.7305C11.5105 6.53035 11.3105 6.54036 11.1205 6.54036C9.27048 6.65036 8.79048 7.32035 8.79048 9.43035V14.8603C8.80048 17.1603 9.39049 17.7504 11.7405 17.7504Z" stroke="#211B2A" stroke-width="1.5" stroke-linecap="round" stroke-linejoin="round"/>
<path d="M8.80048 11.2207H22.0005" stroke="#211B2A" stroke-width="1.5" stroke-miterlimit="10" stroke-linecap="round" stroke-linejoin="round"/>
<path d="M22.0005 9.42075V14.9707C21.9805 17.1907 21.3705 17.7407 19.0605 17.7407H11.7405C9.39048 17.7407 8.80048 17.1507 8.80048 14.8407V9.41074C8.80048 7.31074 9.28048 6.64072 11.1305 6.52072C11.3205 6.52072 11.5205 6.51074 11.7405 6.51074H19.0605C21.4105 6.52074 22.0005 7.10075 22.0005 9.42075Z" stroke="#211B2A" stroke-width="1.5" stroke-linecap="round" stroke-linejoin="round"/>
<path d="M11.3205 15.2607H12.6505" stroke="#211B2A" stroke-width="1.5" stroke-miterlimit="10" stroke-linecap="round" stroke-linejoin="round"/>
<path d="M14.7505 15.2607H18.0205" stroke="#211B2A" stroke-width="1.5" stroke-miterlimit="10" stroke-linecap="round" stroke-linejoin="round"/>
</svg>
