<svg width="24" height="24" viewBox="0 0 24 24" fill="none" xmlns="http://www.w3.org/2000/svg">
<path d="M13.4919 13.3799H11.0019C10.7019 13.3799 10.4619 13.6199 10.4619 13.9199C10.4619 14.2199 10.7019 14.4599 11.0019 14.4599H13.4919C13.7919 14.4599 14.0319 14.2199 14.0319 13.9199C14.0319 13.6199 13.7919 13.3799 13.4919 13.3799Z" fill="#211B2A"/>
<path d="M9.44195 13.3799H8.19195C7.89195 13.3799 7.65195 13.6199 7.65195 13.9199C7.65195 14.2199 7.89195 14.4599 8.19195 14.4599H9.44195C9.74195 14.4599 9.98195 14.2199 9.98195 13.9199C9.98195 13.6199 9.74195 13.3799 9.44195 13.3799Z" fill="#211B2A"/>
<path d="M18.5419 4.22043L13.0419 2.16043C12.4719 1.95043 11.5419 1.95043 10.9719 2.16043L5.47194 4.22043C4.41194 4.62043 3.55194 5.86043 3.55194 6.99043V15.0904C3.55194 15.9004 4.08194 16.9704 4.73194 17.4504L10.2319 21.5604C11.2019 22.2904 12.7919 22.2904 13.7619 21.5604L19.2619 17.4504C19.9119 16.9604 20.4419 15.9004 20.4419 15.0904V6.99043C20.4519 5.86043 19.5919 4.62043 18.5419 4.22043ZM18.1719 13.6504C18.1519 15.7204 17.5819 16.2404 15.4319 16.2404H8.58194C6.39194 16.2404 5.84194 15.7004 5.84194 13.5304V11.2004C5.84194 10.9204 6.06194 10.7004 6.34194 10.7004H17.6719C17.9519 10.7004 18.1719 10.9204 18.1719 11.2004V13.6504ZM18.1719 9.11043C18.1719 9.39043 17.9519 9.61043 17.6719 9.61043H6.34194C6.06194 9.61043 5.84194 9.39043 5.84194 9.11043V8.47043C5.84194 6.51043 6.30194 5.88043 8.01194 5.77043C8.19194 5.77043 8.38194 5.76043 8.58194 5.76043H15.4319C17.6219 5.76043 18.1719 6.30043 18.1719 8.47043V9.11043Z" fill="#211B2A"/>
</svg>
