<svg width="24" height="24" viewBox="0 0 24 24" fill="none" xmlns="http://www.w3.org/2000/svg">
<path d="M13.2517 12.5802V14.5602C13.2517 15.2502 12.6917 15.8102 12.0017 15.8102C11.3117 15.8102 10.7517 15.2502 10.7517 14.5602V12.5802C10.3917 12.3602 10.1117 12.0402 9.91171 11.6602H3.00171C2.45171 11.6602 2.00171 12.1102 2.00171 12.6602V16.1902C2.00171 19.4002 4.60171 22.0002 7.81171 22.0002H16.1817C19.4017 22.0002 22.0017 19.4002 22.0017 16.1902V12.6602C22.0017 12.1102 21.5517 11.6602 21.0017 11.6602H14.0917C13.8917 12.0402 13.6117 12.3602 13.2517 12.5802Z" fill="#211B2A"/>
<path d="M16.1917 2H7.81171C4.60171 2 2.00171 4.6 2.00171 7.81V9.16C2.00171 9.71 2.45171 10.16 3.00171 10.16H9.67171C9.90171 8.84 11.2117 7.9 12.6417 8.28C13.4417 8.49 14.0917 9.14 14.3017 9.94C14.3217 10.01 14.3217 10.09 14.3317 10.16H21.0017C21.5517 10.16 22.0017 9.71 22.0017 9.16V7.81C22.0017 4.6 19.4017 2 16.1917 2Z" fill="#211B2A"/>
</svg>
