<svg width="24" height="24" viewBox="0 0 24 24" fill="none" xmlns="http://www.w3.org/2000/svg">
<path d="M15.0002 22.75H9.00024C3.57024 22.75 1.25024 20.43 1.25024 15V9C1.25024 3.57 3.57024 1.25 9.00024 1.25H15.0002C20.4302 1.25 22.7502 3.57 22.7502 9V15C22.7502 20.43 20.4302 22.75 15.0002 22.75ZM9.00024 2.75C4.39024 2.75 2.75024 4.39 2.75024 9V15C2.75024 19.61 4.39024 21.25 9.00024 21.25H15.0002C19.6102 21.25 21.2502 19.61 21.2502 15V9C21.2502 4.39 19.6102 2.75 15.0002 2.75H9.00024Z" fill="#211B2A"/>
<path d="M12.0004 16.5596C10.9004 16.5596 10.0004 15.6596 10.0004 14.5596V12.9596C9.41037 12.4696 9.01037 11.7796 8.91037 11.0096C8.89037 10.8896 8.87036 10.7196 8.87036 10.5596C8.87036 9.58961 9.31036 8.68961 10.0904 8.08961C10.8704 7.48961 11.8704 7.29962 12.8304 7.54962C13.8804 7.82962 14.7504 8.68962 15.0204 9.73962C15.1304 10.1496 15.1604 10.5796 15.0904 11.0096C14.9804 11.7696 14.5904 12.4596 14.0004 12.9496V14.5496C14.0004 15.6596 13.1004 16.5596 12.0004 16.5596ZM11.9904 8.93962C11.6304 8.93962 11.2904 9.04961 11.0004 9.27961C10.6004 9.58961 10.3704 10.0596 10.3704 10.5596C10.3704 10.6296 10.3704 10.7096 10.3904 10.7696C10.4604 11.2696 10.7304 11.6796 11.1504 11.9396L11.5004 12.1596V14.5596C11.5004 14.8396 11.7204 15.0596 12.0004 15.0596C12.2804 15.0596 12.5004 14.8396 12.5004 14.5596V12.1596L12.8504 11.9396C13.2604 11.6796 13.5404 11.2696 13.6004 10.7996V10.7796C13.6404 10.5596 13.6304 10.3396 13.5704 10.1296C13.4304 9.57962 12.9804 9.13961 12.4404 8.99961C12.2904 8.95961 12.1404 8.93962 11.9904 8.93962Z" fill="#211B2A"/>
<path d="M22.0003 10.1602H14.3503V11.6602H22.0003V10.1602Z" fill="#211B2A"/>
<path d="M9.65024 10.1602H2.00024V11.6602H9.65024V10.1602Z" fill="#211B2A"/>
</svg>
