<svg width="24" height="24" viewBox="0 0 24 24" fill="none" xmlns="http://www.w3.org/2000/svg">
<path opacity="0.4" d="M16.19 2H7.82001C4.18001 2 2.01001 4.17 2.01001 7.81V16.18C2.01001 19.82 4.18001 21.99 7.82001 21.99H16.19C19.83 21.99 22 19.82 22 16.18V7.81C22 4.17 19.83 2 16.19 2Z" fill="#211B2A"/>
<path d="M22 10.1604H14.33C14.32 10.0904 14.32 10.0104 14.3 9.9404C14.09 9.1404 13.44 8.4904 12.64 8.2804C11.2 7.9004 9.89001 8.8404 9.67001 10.1604H2V11.6604H9.91C10.11 12.0404 10.39 12.3604 10.75 12.5804V14.5604C10.75 15.2504 11.31 15.8104 12 15.8104C12.69 15.8104 13.25 15.2504 13.25 14.5604V12.5804C13.61 12.3604 13.89 12.0404 14.09 11.6604H22V10.1604Z" fill="#211B2A"/>
</svg>
