<svg width="24" height="24" viewBox="0 0 24 24" fill="none" xmlns="http://www.w3.org/2000/svg">
<path d="M19.832 8.6998L15.302 4.1698C14.352 3.2198 13.042 2.7098 11.702 2.7798L6.70195 3.0198C4.70195 3.1098 3.11195 4.6998 3.01195 6.6898L2.77195 11.6898C2.71195 13.0298 3.21195 14.3398 4.16195 15.2898L8.69195 19.8198C10.552 21.6798 13.572 21.6798 15.442 19.8198L19.832 15.4298C21.702 13.5798 21.702 10.5598 19.832 8.6998ZM9.50195 12.3798C7.91195 12.3798 6.62195 11.0898 6.62195 9.4998C6.62195 7.9098 7.91195 6.6198 9.50195 6.6198C11.092 6.6198 12.382 7.9098 12.382 9.4998C12.382 11.0898 11.092 12.3798 9.50195 12.3798Z" fill="#211B2A"/>
</svg>
