<svg width="24" height="24" viewBox="0 0 24 24" fill="none" xmlns="http://www.w3.org/2000/svg">
<path d="M12.0705 21.9803C10.6605 21.9803 9.24052 21.4403 8.17052 20.3703L3.64052 15.8403C2.54052 14.7403 1.96052 13.2203 2.03052 11.6703L2.27052 6.66032C2.38052 4.27032 4.27052 2.38032 6.67052 2.26032L11.6705 2.02032C13.2305 1.95032 14.7405 2.53032 15.8405 3.63032L20.3705 8.16032C22.5205 10.3103 22.5205 13.8203 20.3705 15.9703L15.9805 20.3603C14.9005 21.4403 13.4905 21.9803 12.0705 21.9803ZM4.70052 14.7703L9.23052 19.3003C10.8005 20.8703 13.3505 20.8703 14.9205 19.3003L19.3105 14.9103C20.8805 13.3403 20.8805 10.7903 19.3105 9.22032L14.7705 4.70032C13.9705 3.90032 12.8805 3.48032 11.7305 3.53032L6.73052 3.77032C5.11052 3.84032 3.84052 5.11032 3.76052 6.73032L3.52052 11.7403C3.47052 12.8603 3.90052 13.9703 4.70052 14.7703Z" fill="#211B2A"/>
<path d="M9.50049 12.75C7.71049 12.75 6.25049 11.29 6.25049 9.5C6.25049 7.71 7.71049 6.25 9.50049 6.25C11.2905 6.25 12.7505 7.71 12.7505 9.5C12.7505 11.29 11.2905 12.75 9.50049 12.75ZM9.50049 7.75C8.54049 7.75 7.75049 8.54 7.75049 9.5C7.75049 10.46 8.54049 11.25 9.50049 11.25C10.4605 11.25 11.2505 10.46 11.2505 9.5C11.2505 8.54 10.4605 7.75 9.50049 7.75Z" fill="#211B2A"/>
<path d="M13.0005 17.7504C12.8105 17.7504 12.6205 17.6804 12.4705 17.5304C12.1805 17.2404 12.1805 16.7604 12.4705 16.4704L16.4705 12.4704C16.7605 12.1804 17.2405 12.1804 17.5305 12.4704C17.8205 12.7604 17.8205 13.2404 17.5305 13.5304L13.5305 17.5304C13.3805 17.6804 13.1905 17.7504 13.0005 17.7504Z" fill="#211B2A"/>
</svg>
