<svg width="24" height="24" viewBox="0 0 24 24" fill="none" xmlns="http://www.w3.org/2000/svg">
<path d="M15.3005 4.1698C14.3505 3.2198 13.0405 2.7098 11.7005 2.7798L6.70049 3.0198C4.70049 3.1098 3.11049 4.6998 3.01049 6.6898L2.77049 11.6898C2.71049 13.0298 3.21049 14.3398 4.16049 15.2898L8.69049 19.8198C10.5505 21.6798 13.5705 21.6798 15.4405 19.8198L19.8305 15.4298C21.6905 13.5698 21.6905 10.5498 19.8305 8.67981L18.7005 7.54981" stroke="#211B2A" stroke-width="1.5" stroke-linecap="round" stroke-linejoin="round"/>
<path d="M8.51049 11.8C8.81049 11.93 9.15049 12 9.50049 12C10.8805 12 12.0005 10.88 12.0005 9.5C12.0005 8.12 10.8805 7 9.50049 7C8.12049 7 7.00049 8.12 7.00049 9.5" stroke="#211B2A" stroke-width="1.5" stroke-linecap="round"/>
<path d="M13.0005 17L17.0005 13" stroke="#211B2A" stroke-width="1.5" stroke-miterlimit="10" stroke-linecap="round" stroke-linejoin="round"/>
</svg>
