<svg width="24" height="24" viewBox="0 0 24 24" fill="none" xmlns="http://www.w3.org/2000/svg">
<path d="M4.40524 15.5264L8.93524 20.0564C10.7952 21.9164 13.8152 21.9164 15.6852 20.0564L20.0752 15.6664C21.9352 13.8064 21.9352 10.7864 20.0752 8.91637L15.5352 4.39637C14.5852 3.44637 13.2752 2.93637 11.9352 3.00637L6.93524 3.24637C4.93524 3.33637 3.34524 4.92637 3.24524 6.91637L3.00524 11.9164C2.94524 13.2664 3.45524 14.5764 4.40524 15.5264Z" stroke="#211B2A" stroke-width="1.5" stroke-linecap="round" stroke-linejoin="round"/>
<path d="M9.73524 12.2266C11.116 12.2266 12.2352 11.1073 12.2352 9.72656C12.2352 8.34585 11.116 7.22656 9.73524 7.22656C8.35453 7.22656 7.23524 8.34585 7.23524 9.72656C7.23524 11.1073 8.35453 12.2266 9.73524 12.2266Z" stroke="#211B2A" stroke-width="1.5" stroke-linecap="round"/>
<path d="M13.2352 17.2266L17.2352 13.2266" stroke="#211B2A" stroke-width="1.5" stroke-miterlimit="10" stroke-linecap="round" stroke-linejoin="round"/>
</svg>
