<svg width="24" height="24" viewBox="0 0 24 24" fill="none" xmlns="http://www.w3.org/2000/svg">
<path opacity="0.4" d="M4.17049 15.2998L8.70049 19.8298C10.5605 21.6898 13.5805 21.6898 15.4505 19.8298L19.8405 15.4398C21.7005 13.5798 21.7005 10.5598 19.8405 8.6898L15.3005 4.1698C14.3505 3.2198 13.0405 2.7098 11.7005 2.7798L6.70049 3.0198C4.70049 3.1098 3.11049 4.6998 3.01049 6.6898L2.77049 11.6898C2.71049 13.0398 3.22049 14.3498 4.17049 15.2998Z" fill="#211B2A"/>
<path d="M9.50049 12.3801C11.0911 12.3801 12.3805 11.0907 12.3805 9.50012C12.3805 7.90954 11.0911 6.62012 9.50049 6.62012C7.90991 6.62012 6.62049 7.90954 6.62049 9.50012C6.62049 11.0907 7.90991 12.3801 9.50049 12.3801Z" fill="#211B2A"/>
<path d="M13.0005 17.7504C12.8105 17.7504 12.6205 17.6804 12.4705 17.5304C12.1805 17.2404 12.1805 16.7604 12.4705 16.4704L16.4705 12.4704C16.7605 12.1804 17.2405 12.1804 17.5305 12.4704C17.8205 12.7604 17.8205 13.2404 17.5305 13.5304L13.5305 17.5304C13.3805 17.6804 13.1905 17.7504 13.0005 17.7504Z" fill="#211B2A"/>
</svg>
