<svg width="24" height="24" viewBox="0 0 24 24" fill="none" xmlns="http://www.w3.org/2000/svg">
<path d="M12.0705 21.9797C10.6605 21.9797 9.24052 21.4397 8.17052 20.3697L3.64052 15.8397C2.54052 14.7397 1.96052 13.2197 2.03052 11.6697L2.27052 6.66969C2.38052 4.27969 4.27052 2.38969 6.67052 2.26969L11.6705 2.02969C13.2205 1.96969 14.7405 2.53969 15.8405 3.63969L20.3705 8.16969C22.5205 10.3197 22.5205 13.8297 20.3705 15.9797L15.9805 20.3697C14.9005 21.4397 13.4905 21.9797 12.0705 21.9797ZM4.70052 14.7697L9.23052 19.2997C9.99051 20.0597 11.0005 20.4797 12.0705 20.4797C13.1405 20.4797 14.1505 20.0597 14.9105 19.2997L19.3005 14.9097C20.0605 14.1497 20.4805 13.1397 20.4805 12.0697C20.4805 10.9997 20.0605 9.98969 19.3005 9.22969L14.7705 4.69969C13.9705 3.89969 12.8605 3.46969 11.7405 3.52969L6.74052 3.76969C5.11052 3.83969 3.84052 5.10969 3.76052 6.72969L3.52052 11.7297C3.47052 12.8597 3.90052 13.9697 4.70052 14.7697Z" fill="#211B2A"/>
<path d="M9.50049 12.75C7.71049 12.75 6.25049 11.29 6.25049 9.5C6.25049 7.71 7.71049 6.25 9.50049 6.25C11.2905 6.25 12.7505 7.71 12.7505 9.5C12.7505 11.29 11.2905 12.75 9.50049 12.75ZM9.50049 7.75C8.54049 7.75 7.75049 8.54 7.75049 9.5C7.75049 10.46 8.54049 11.25 9.50049 11.25C10.4605 11.25 11.2505 10.46 11.2505 9.5C11.2505 8.54 10.4605 7.75 9.50049 7.75Z" fill="#211B2A"/>
</svg>
