<svg width="24" height="24" viewBox="0 0 24 24" fill="none" xmlns="http://www.w3.org/2000/svg">
<path d="M19.0305 14.97C19.0305 16.26 20.0905 17.31 21.3805 17.31C21.3805 21.06 20.4405 22 16.6905 22H7.31048C3.56048 22 2.62048 21.06 2.62048 17.31V16.85C3.91048 16.85 4.97048 15.79 4.97048 14.5C4.97048 13.21 3.91048 12.15 2.62048 12.15V11.69C2.63048 7.94 3.56048 7 7.31048 7H16.6805C20.4305 7 21.3705 7.94 21.3705 11.69V12.63" stroke="#211B2A" stroke-width="1.5" stroke-linecap="round" stroke-linejoin="round"/>
<path d="M16.3305 6.99984H7.24048L10.1705 4.06984C12.5605 1.67984 13.7605 1.67984 16.1505 4.06984L16.7505 4.66984C16.1205 5.29984 15.9705 6.22984 16.3305 6.99984Z" stroke="#211B2A" stroke-width="1.5" stroke-linecap="round" stroke-linejoin="round"/>
<path d="M10.0005 7L10.0005 22" stroke="#211B2A" stroke-width="1.5" stroke-linecap="round" stroke-linejoin="round" stroke-dasharray="5 5"/>
</svg>
