<svg width="24" height="24" viewBox="0 0 24 24" fill="none" xmlns="http://www.w3.org/2000/svg">
<path d="M17.1919 4.96C17.1919 4.97 17.1919 4.97 17.1919 4.98C16.9419 4.97 16.6919 4.96 16.4219 4.96H8.72192L9.79192 3.9C10.7719 2.91 11.8519 2 13.1019 2C14.3619 2 15.4419 2.91 16.4219 3.9L16.9819 4.46C17.1219 4.59 17.1919 4.77 17.1919 4.96Z" fill="#211B2A"/>
<path d="M20.8419 13.1702C21.2319 13.1702 21.5419 12.8502 21.5419 12.4502V11.5702C21.5419 7.6402 20.3419 6.4502 16.4219 6.4502H10.1219H7.58191C3.66191 6.4502 2.46191 7.6502 2.46191 11.5702V12.0002C2.46191 12.4002 2.77191 12.7102 3.16191 12.7102C4.00191 12.7102 4.67191 13.3902 4.67191 14.2202C4.67191 15.0502 4.00191 15.7402 3.16191 15.7402C2.77191 15.7402 2.46191 16.0502 2.46191 16.4502V16.8802C2.46191 20.8102 3.66191 22.0002 7.58191 22.0002H10.1119H16.4119C20.3319 22.0002 21.5319 20.8002 21.5319 16.8802C21.5319 16.4902 21.2219 16.1702 20.8319 16.1702C19.9919 16.1702 19.3219 15.5002 19.3219 14.6702C19.3319 13.8402 20.0019 13.1702 20.8419 13.1702ZM10.8219 18.8602C10.8219 19.2502 10.5019 19.5702 10.1119 19.5702C9.72191 19.5702 9.40191 19.2502 9.40191 18.8602V16.1802C9.40191 15.7902 9.72191 15.4702 10.1119 15.4702C10.5019 15.4702 10.8219 15.7902 10.8219 16.1802V18.8602ZM10.8219 12.2702C10.8219 12.6602 10.5019 12.9802 10.1119 12.9802C9.72191 12.9802 9.40191 12.6602 9.40191 12.2702V9.5902C9.40191 9.2002 9.72191 8.8802 10.1119 8.8802C10.5019 8.8802 10.8219 9.2002 10.8219 9.5902V12.2702Z" fill="#211B2A"/>
</svg>
