<svg width="24" height="24" viewBox="0 0 24 24" fill="none" xmlns="http://www.w3.org/2000/svg">
<path opacity="0.4" d="M22.0004 9.21035V14.7904C22.0004 18.8904 20.7504 20.1404 16.6504 20.1404H9.91045V17.1204C9.91045 16.7404 9.59045 16.4204 9.21045 16.4204V7.58035C9.59045 7.58035 9.91045 7.26035 9.91045 6.88035V3.86035H16.6504C20.7504 3.86035 22.0004 5.11035 22.0004 9.21035Z" fill="#211B2A"/>
<path d="M18.4704 11.9001C18.6404 11.7401 18.7004 11.4901 18.6304 11.2701C18.5604 11.0401 18.3704 10.8801 18.1304 10.8501L16.8504 10.6601C16.8004 10.6501 16.7604 10.6201 16.7404 10.5801L16.1704 9.42008C16.0704 9.21008 15.8504 9.08008 15.6204 9.08008C15.3804 9.08008 15.1704 9.21008 15.0604 9.42008L14.4904 10.5801C14.4704 10.6301 14.4204 10.6601 14.3704 10.6601L13.0904 10.8501C12.8604 10.8801 12.6604 11.0501 12.5904 11.2701C12.5204 11.5001 12.5804 11.7401 12.7504 11.9001L13.6804 12.8001C13.7204 12.8301 13.7304 12.8901 13.7204 12.9401L13.5004 14.2101C13.4604 14.4401 13.5504 14.6801 13.7504 14.8101C13.8604 14.8901 13.9804 14.9301 14.1104 14.9301C14.2104 14.9301 14.3104 14.9101 14.4004 14.8601L15.5504 14.2601C15.5904 14.2401 15.6504 14.2401 15.6904 14.2601L16.8404 14.8601C17.0504 14.9701 17.3004 14.9501 17.4904 14.8101C17.6804 14.6701 17.7804 14.4401 17.7404 14.2001L17.5204 12.9301C17.5104 12.8801 17.5304 12.8301 17.5604 12.7901L18.4704 11.9001Z" fill="#211B2A"/>
<path d="M9.21048 7.58035V16.4204C8.83048 16.4204 8.51048 16.7404 8.51048 17.1204V20.1404H7.35048C3.40048 20.1404 2.10048 18.9604 2.01048 15.2804C2.00048 15.0904 2.08048 14.9104 2.21048 14.7804C2.34048 14.6404 2.53048 14.5704 2.71048 14.5704C4.11048 14.5704 5.26048 13.4204 5.26048 12.0104C5.26048 10.6004 4.11048 9.44035 2.71048 9.44035C2.51048 9.44035 2.34048 9.37035 2.21048 9.23035C2.08048 9.10035 2.00048 8.91035 2.01048 8.73035C2.10048 5.04035 3.40048 3.86035 7.35048 3.86035H8.51048V6.88035C8.51048 7.27035 8.83048 7.58035 9.21048 7.58035Z" fill="#211B2A"/>
</svg>
