<svg width="24" height="24" viewBox="0 0 24 24" fill="none" xmlns="http://www.w3.org/2000/svg">
<path d="M3.2405 15.27C2.8605 15.41 2.4405 15.49 2.0105 15.49C2.1005 19.08 3.1705 20 7.0005 20H17.0005C21.0005 20 22.0005 19 22.0005 15V9C22.0005 5 21.0005 4 17.0005 4H7.0005C3.1705 4 2.1005 4.92 2.0105 8.5C3.9405 8.5 5.5005 10.07 5.5005 12" stroke="#211B2A" stroke-width="1.5" stroke-linecap="round" stroke-linejoin="round"/>
<path d="M9.00049 4V7.5" stroke="#211B2A" stroke-width="1.5" stroke-linecap="round" stroke-linejoin="round"/>
<path d="M9.00049 16.5V20" stroke="#211B2A" stroke-width="1.5" stroke-linecap="round" stroke-linejoin="round"/>
<path d="M14.8605 14.2104C14.7405 14.1504 14.5905 14.1504 14.4705 14.2104L13.2405 14.8604C12.9305 15.0204 12.5805 14.7604 12.6405 14.4204L12.8805 13.0504C12.9005 12.9104 12.8605 12.7804 12.7605 12.6804L11.7705 11.7104C11.5205 11.4704 11.6605 11.0504 12.0005 11.0004L13.3805 10.8004C13.5205 10.7804 13.6305 10.7004 13.6905 10.5704L14.3005 9.32039C14.4505 9.01039 14.8905 9.01039 15.0405 9.32039L15.6605 10.5704C15.7205 10.6904 15.8405 10.7804 15.9705 10.8004L17.3505 11.0004C17.6905 11.0504 17.8305 11.4704 17.5805 11.7104L16.5805 12.6804C16.4805 12.7704 16.4405 12.9104 16.4605 13.0504" stroke="#211B2A" stroke-width="1.5" stroke-linecap="round" stroke-linejoin="round"/>
</svg>
