<svg width="24" height="24" viewBox="0 0 24 24" fill="none" xmlns="http://www.w3.org/2000/svg">
<path opacity="0.4" d="M19.8504 12.9397C19.8504 13.7397 20.5004 14.3997 21.3004 14.3997C21.6804 14.3997 22.0004 14.7097 22.0004 15.0897C22.0004 18.9297 20.8404 20.0897 17.0004 20.0897H11.7504V18.4997C11.7504 18.1097 11.4504 17.7897 11.0704 17.7597V14.9097C11.4504 14.8797 11.7504 14.5597 11.7504 14.1697V9.82969C11.7504 9.43969 11.4504 9.11969 11.0704 9.08969V4.92969H17.0004C20.8404 4.92969 22.0004 6.08969 22.0004 9.92969V10.7797C22.0004 11.1697 21.6804 11.4797 21.3004 11.4797C20.5004 11.4797 19.8504 12.1297 19.8504 12.9397Z" fill="#211B2A"/>
<path d="M11.0705 9.08981C10.6605 9.08981 10.2505 9.41981 10.2505 9.82981V14.1698C10.2505 14.5798 10.5905 14.9198 11.0005 14.9198C11.0205 14.9198 11.0505 14.9198 11.0705 14.9098V17.7598C11.0505 17.7498 11.0205 17.7498 11.0005 17.7498C10.5905 17.7498 10.2505 18.0898 10.2505 18.4998V20.0898H8.49046C6.61046 20.0898 5.64046 18.6798 4.76046 16.5498L4.59046 16.1298C4.45046 15.7698 4.62046 15.3598 4.98046 15.2198C5.35046 15.0798 5.64046 14.7898 5.79046 14.4098C5.95046 14.0398 5.95046 13.6298 5.80046 13.2598C5.48046 12.4898 4.60046 12.1198 3.82046 12.4298C3.65046 12.5098 3.45046 12.5098 3.28046 12.4298C3.11046 12.3598 2.98046 12.2198 2.90046 12.0398L2.75046 11.6398C1.26046 8.01981 1.91046 6.46981 5.53046 4.96981L7.98046 3.95981C8.34046 3.80981 8.75046 3.97981 8.89046 4.33981L11.0705 9.08981Z" fill="#211B2A"/>
</svg>
