<svg width="24" height="24" viewBox="0 0 24 24" fill="none" xmlns="http://www.w3.org/2000/svg">
<path d="M18.9105 14.6927C18.9105 15.9827 19.9705 17.0327 21.2605 17.0327C21.2605 20.7827 20.3205 21.7227 16.5705 21.7227H7.19049C3.44049 21.7227 2.50049 20.7827 2.50049 17.0327V16.5727C3.79049 16.5727 4.85049 15.5127 4.85049 14.2227C4.85049 12.9327 3.79049 11.8727 2.50049 11.8727V11.4127C2.51049 7.66266 3.44049 6.72266 7.19049 6.72266H16.5605C20.3105 6.72266 21.2505 7.66266 21.2505 11.4127V12.3527C19.9605 12.3527 18.9105 13.3927 18.9105 14.6927Z" stroke="#211B2A" stroke-width="1.5" stroke-linecap="round" stroke-linejoin="round"/>
<path opacity="0.4" d="M16.2116 6.7225H7.12158L10.0516 3.7925C12.4416 1.4025 13.6416 1.4025 16.0316 3.7925L16.6316 4.3925C16.0016 5.0225 15.8516 5.9525 16.2116 6.7225Z" stroke="#211B2A" stroke-width="1.5" stroke-linecap="round" stroke-linejoin="round"/>
<path opacity="0.4" d="M9.87939 6.72266L9.8794 21.7227" stroke="#211B2A" stroke-width="1.5" stroke-linecap="round" stroke-linejoin="round" stroke-dasharray="5 5"/>
</svg>
