<svg width="24" height="24" viewBox="0 0 24 24" fill="none" xmlns="http://www.w3.org/2000/svg">
<path d="M22.0005 10.75V9.82996C22.0005 6.12996 21.0805 5.20996 17.3805 5.20996H11.0005V12" stroke="#211B2A" stroke-width="1.5" stroke-linecap="round" stroke-linejoin="round"/>
<path d="M10.9105 20.0003H17.3805C21.0805 20.0003 22.0005 19.0803 22.0005 15.3803C20.7205 15.3803 19.6905 14.3403 19.6905 13.0703" stroke="#211B2A" stroke-width="1.5" stroke-linecap="round" stroke-linejoin="round"/>
<path d="M11.0005 16.9999V19.9999H8.23052C6.75052 19.9999 5.88052 18.9899 4.92052 16.6699L4.74052 16.2199C5.95052 15.7399 6.54052 14.3399 6.03052 13.1299C5.54052 11.9199 4.15052 11.3399 2.93052 11.8399L2.76052 11.4099C1.32052 7.88988 1.82052 6.65988 5.34052 5.20988L7.98052 4.12988L11.0005 11.4499V13.9999" stroke="#211B2A" stroke-width="1.5" stroke-linecap="round" stroke-linejoin="round"/>
<path d="M8.17049 20H8.00049" stroke="#211B2A" stroke-width="1.5" stroke-linecap="round" stroke-linejoin="round"/>
</svg>
