<svg width="24" height="24" viewBox="0 0 24 24" fill="none" xmlns="http://www.w3.org/2000/svg">
<path d="M21.302 10.8404C21.692 10.8404 22.002 10.5304 22.002 10.1404V9.21035C22.002 5.11035 20.752 3.86035 16.652 3.86035H7.35195C3.25195 3.86035 2.00195 5.11035 2.00195 9.21035V9.68035C2.00195 10.0704 2.31195 10.3804 2.70195 10.3804C3.60195 10.3804 4.33195 11.1104 4.33195 12.0104C4.33195 12.9104 3.60195 13.6304 2.70195 13.6304C2.31195 13.6304 2.00195 13.9404 2.00195 14.3304V14.8004C2.00195 18.9004 3.25195 20.1504 7.35195 20.1504H16.652C20.752 20.1504 22.002 18.9004 22.002 14.8004C22.002 14.4104 21.692 14.1004 21.302 14.1004C20.402 14.1004 19.672 13.3704 19.672 12.4704C19.672 11.5704 20.402 10.8404 21.302 10.8404ZM9.00195 8.88035C9.55195 8.88035 10.002 9.33035 10.002 9.88035C10.002 10.4304 9.56195 10.8804 9.00195 10.8804C8.45195 10.8804 8.00195 10.4304 8.00195 9.88035C8.00195 9.33035 8.44195 8.88035 9.00195 8.88035ZM15.002 15.8804C14.442 15.8804 13.992 15.4304 13.992 14.8804C13.992 14.3304 14.442 13.8804 14.992 13.8804C15.542 13.8804 15.992 14.3304 15.992 14.8804C15.992 15.4304 15.562 15.8804 15.002 15.8804ZM15.902 9.48035L9.17195 16.2104C9.02195 16.3604 8.83195 16.4304 8.64195 16.4304C8.45195 16.4304 8.26195 16.3604 8.11195 16.2104C7.82195 15.9204 7.82195 15.4404 8.11195 15.1504L14.842 8.42035C15.132 8.13035 15.612 8.13035 15.902 8.42035C16.192 8.71035 16.192 9.19035 15.902 9.48035Z" fill="#211B2A"/>
</svg>
