<svg width="24" height="24" viewBox="0 0 24 24" fill="none" xmlns="http://www.w3.org/2000/svg">
<path d="M19.8519 12.9398C19.8519 13.7398 20.5019 14.3998 21.3019 14.3998C21.6819 14.3998 22.0019 14.7098 22.0019 15.0898C22.0019 18.9298 20.8419 20.0898 17.0019 20.0898H11.7519V18.4998C11.7519 18.1098 11.4519 17.7898 11.0719 17.7598C11.0519 17.7498 11.0219 17.7498 11.0019 17.7498C10.5919 17.7498 10.2519 18.0898 10.2519 18.4998V20.0898H8.49192C6.61192 20.0898 5.64192 18.6798 4.76192 16.5498L4.59192 16.1298C4.45192 15.7698 4.62192 15.3598 4.98192 15.2198C5.35192 15.0798 5.64192 14.7898 5.79192 14.4098C5.95192 14.0398 5.95192 13.6298 5.80192 13.2598C5.48192 12.4898 4.60192 12.1198 3.82192 12.4298C3.65192 12.5098 3.45192 12.5098 3.28192 12.4298C3.11192 12.3598 2.98192 12.2198 2.90192 12.0398L2.75192 11.6398C1.26192 8.01981 1.91192 6.46981 5.53192 4.96981L7.98192 3.95981C8.34192 3.80981 8.75192 3.97981 8.89192 4.33981L11.0719 9.08981C10.6619 9.08981 10.2519 9.41981 10.2519 9.82981V14.1698C10.2519 14.5798 10.5919 14.9198 11.0019 14.9198C11.0219 14.9198 11.0519 14.9198 11.0719 14.9098C11.4519 14.8798 11.7519 14.5598 11.7519 14.1698V9.82981C11.7519 9.43981 11.4519 9.11981 11.0719 9.08981V4.92981H17.0019C20.8419 4.92981 22.0019 6.08981 22.0019 9.92981V10.7798C22.0019 11.1698 21.6819 11.4798 21.3019 11.4798C20.5019 11.4798 19.8519 12.1298 19.8519 12.9398Z" fill="#211B2A"/>
</svg>
