<svg width="24" height="24" viewBox="0 0 24 24" fill="none" xmlns="http://www.w3.org/2000/svg">
<path d="M17.0005 20.75H7.00049C2.59049 20.75 1.25049 19.41 1.25049 15V14.5C1.25049 14.09 1.59049 13.75 2.00049 13.75C2.96049 13.75 3.75049 12.96 3.75049 12C3.75049 11.04 2.96049 10.25 2.00049 10.25C1.59049 10.25 1.25049 9.91 1.25049 9.5V9C1.25049 4.59 2.59049 3.25 7.00049 3.25H17.0005C21.4105 3.25 22.7505 4.59 22.7505 9V10C22.7505 10.41 22.4105 10.75 22.0005 10.75C21.0405 10.75 20.2505 11.54 20.2505 12.5C20.2505 13.46 21.0405 14.25 22.0005 14.25C22.4105 14.25 22.7505 14.59 22.7505 15C22.7505 19.41 21.4105 20.75 17.0005 20.75ZM2.75049 15.16C2.77049 18.6 3.48049 19.25 7.00049 19.25H17.0005C20.3405 19.25 21.1505 18.66 21.2405 15.66C19.8105 15.32 18.7505 14.03 18.7505 12.5C18.7505 10.97 19.8205 9.68 21.2505 9.34V9C21.2505 5.43 20.5705 4.75 17.0005 4.75H7.00049C3.48049 4.75 2.77049 5.4 2.75049 8.84C4.18049 9.18 5.25049 10.47 5.25049 12C5.25049 13.53 4.18049 14.82 2.75049 15.16Z" fill="#211B2A"/>
<path d="M15.0005 15.8799C14.4405 15.8799 13.9905 15.4299 13.9905 14.8799C13.9905 14.3299 14.4405 13.8799 14.9905 13.8799C15.5405 13.8799 15.9905 14.3299 15.9905 14.8799C15.9905 15.4299 15.5605 15.8799 15.0005 15.8799Z" fill="#211B2A"/>
<path d="M9.00048 10.8799C8.44048 10.8799 7.99048 10.4299 7.99048 9.87988C7.99048 9.32988 8.44048 8.87988 8.99048 8.87988C9.54048 8.87988 9.99048 9.32988 9.99048 9.87988C9.99048 10.4299 9.56048 10.8799 9.00048 10.8799Z" fill="#211B2A"/>
<path d="M8.63031 16.4296C8.44031 16.4296 8.25031 16.3596 8.10031 16.2096C7.81031 15.9196 7.81031 15.4396 8.10031 15.1496L14.8303 8.41965C15.1203 8.12965 15.6003 8.12965 15.8903 8.41965C16.1803 8.70965 16.1803 9.18965 15.8903 9.47965L9.16031 16.2096C9.02031 16.3596 8.82031 16.4296 8.63031 16.4296Z" fill="#211B2A"/>
</svg>
