<svg width="24" height="24" viewBox="0 0 24 24" fill="none" xmlns="http://www.w3.org/2000/svg">
<path d="M16.6905 22.75H7.31048C3.14048 22.75 1.87048 21.48 1.87048 17.31V16.85C1.87048 16.44 2.21048 16.1 2.62048 16.1C3.50048 16.1 4.22048 15.38 4.22048 14.5C4.22048 13.62 3.50048 12.9 2.62048 12.9C2.21048 12.9 1.87048 12.56 1.87048 12.15V11.69C1.87048 7.52 3.14048 6.25 7.31048 6.25H16.6905C20.8605 6.25 22.1305 7.52 22.1305 11.69V12.63C22.1305 13.04 21.7905 13.38 21.3805 13.38C20.5005 13.38 19.7805 14.1 19.7805 14.98C19.7805 15.86 20.5005 16.57 21.3805 16.57C21.7905 16.57 22.1305 16.91 22.1305 17.32C22.1205 21.48 20.8505 22.75 16.6905 22.75ZM3.38048 17.51C3.40048 20.69 4.03048 21.25 7.32048 21.25H16.7005C19.8205 21.25 20.5405 20.74 20.6305 17.97C19.2905 17.63 18.2905 16.42 18.2905 14.97C18.2905 13.52 19.2905 12.3 20.6405 11.96V11.68C20.6405 8.33 20.0505 7.74 16.7005 7.74H7.31048C4.03048 7.74 3.40048 8.31 3.37048 11.48C4.72048 11.82 5.72048 13.04 5.72048 14.49C5.72048 15.94 4.72048 17.17 3.38048 17.51Z" fill="#211B2A"/>
<path d="M10.0005 10.25C9.59049 10.25 9.25049 9.91 9.25049 9.5V7C9.25049 6.59 9.59049 6.25 10.0005 6.25C10.4105 6.25 10.7505 6.59 10.7505 7V9.5C10.7505 9.91 10.4105 10.25 10.0005 10.25Z" fill="#211B2A"/>
<path d="M10.0005 16.9198C9.59049 16.9198 9.25049 16.5798 9.25049 16.1698V12.8398C9.25049 12.4298 9.59049 12.0898 10.0005 12.0898C10.4105 12.0898 10.7505 12.4298 10.7505 12.8398V16.1698C10.7505 16.5798 10.4105 16.9198 10.0005 16.9198Z" fill="#211B2A"/>
<path d="M10.0005 22.75C9.59049 22.75 9.25049 22.41 9.25049 22V19.5C9.25049 19.09 9.59049 18.75 10.0005 18.75C10.4105 18.75 10.7505 19.09 10.7505 19.5V22C10.7505 22.41 10.4105 22.75 10.0005 22.75Z" fill="#211B2A"/>
<path d="M16.3305 7.74965H7.24054C6.94054 7.74965 6.66054 7.56965 6.55054 7.28965C6.44054 7.00965 6.50054 6.67965 6.71054 6.46965L9.64054 3.53965C12.3405 0.839648 13.9905 0.839648 16.6805 3.53965L17.2805 4.13965C17.4205 4.27965 17.5005 4.46965 17.5005 4.66965C17.5005 4.86965 17.4205 5.05965 17.2805 5.19965C16.8805 5.59965 16.7705 6.18965 17.0005 6.69965C17.1105 6.92965 17.0905 7.19965 16.9505 7.41965C16.8205 7.61965 16.5805 7.74965 16.3305 7.74965ZM9.05054 6.24965H15.3805C15.3605 5.71965 15.4905 5.18965 15.7605 4.72965L15.6305 4.59965C13.5405 2.50965 12.8005 2.50965 10.7105 4.59965L9.05054 6.24965Z" fill="#211B2A"/>
</svg>
