<svg width="24" height="24" viewBox="0 0 24 24" fill="none" xmlns="http://www.w3.org/2000/svg">
<path d="M17.0005 20.75H7.00046C2.75046 20.75 1.36046 19.48 1.26046 15.52C1.26046 15.32 1.33046 15.12 1.47046 14.98C1.61046 14.84 1.80046 14.75 2.01046 14.75C3.52046 14.75 4.75046 13.51 4.75046 12C4.75046 10.49 3.52046 9.25 2.01046 9.25C1.81046 9.25 1.62046 9.17 1.47046 9.02C1.32046 8.87 1.25046 8.68 1.26046 8.48C1.36046 4.52 2.75046 3.25 7.00046 3.25H17.0005C21.4105 3.25 22.7505 4.59 22.7505 9V15C22.7505 19.41 21.4105 20.75 17.0005 20.75ZM2.79046 16.18C2.96046 18.72 3.82046 19.25 7.00046 19.25H17.0005C20.5805 19.25 21.2505 18.57 21.2505 15V9C21.2505 5.43 20.5805 4.75 17.0005 4.75H7.00046C3.82046 4.75 2.96046 5.29 2.79046 7.82C4.76046 8.2 6.25046 9.93 6.25046 12C6.25046 14.07 4.76046 15.8 2.79046 16.18Z" fill="#211B2A"/>
<path d="M9.00049 8.25C8.59049 8.25 8.25049 7.91 8.25049 7.5V4C8.25049 3.59 8.59049 3.25 9.00049 3.25C9.41049 3.25 9.75049 3.59 9.75049 4V7.5C9.75049 7.91 9.41049 8.25 9.00049 8.25Z" fill="#211B2A"/>
<path d="M9.00049 20.75C8.59049 20.75 8.25049 20.41 8.25049 20V16.5C8.25049 16.09 8.59049 15.75 9.00049 15.75C9.41049 15.75 9.75049 16.09 9.75049 16.5V20C9.75049 20.41 9.41049 20.75 9.00049 20.75Z" fill="#211B2A"/>
<path d="M13.0405 15.6496C12.8005 15.6496 12.5605 15.5696 12.3605 15.4296C12.0005 15.1696 11.8205 14.7296 11.9005 14.2896L12.1105 13.0996L11.2405 12.2496C10.9205 11.9396 10.8105 11.4796 10.9405 11.0596C11.0805 10.6396 11.4405 10.3296 11.8805 10.2696L13.0805 10.0896L13.6205 8.99961C13.8205 8.59961 14.2205 8.34961 14.6605 8.34961C15.1105 8.34961 15.5105 8.59961 15.7005 8.99961L16.2405 10.0896L17.4405 10.2696C17.8805 10.3296 18.2405 10.6396 18.3805 11.0596C18.5205 11.4796 18.4005 11.9396 18.0805 12.2496L17.2105 13.0996L17.4205 14.2896C17.5005 14.7296 17.3205 15.1696 16.9605 15.4296C16.6005 15.6896 16.1305 15.7196 15.7405 15.5196L14.6705 14.9596L13.5905 15.5196C13.4205 15.6096 13.2305 15.6496 13.0405 15.6496ZM12.7705 11.6496L13.2805 12.1496C13.5605 12.4196 13.6805 12.7996 13.6205 13.1796L13.5005 13.8796L14.1305 13.5496C14.4705 13.3696 14.8705 13.3696 15.2105 13.5496L15.8405 13.8796L15.7205 13.1796C15.6605 12.7896 15.7805 12.4096 16.0605 12.1496L16.5705 11.6496L15.8705 11.5496C15.4905 11.4896 15.1605 11.2496 14.9905 10.9096L14.6805 10.2696L14.3705 10.9096C14.2005 11.2496 13.8705 11.4896 13.4905 11.5496L12.7705 11.6496Z" fill="#211B2A"/>
</svg>
