<svg width="24" height="24" viewBox="0 0 24 24" fill="none" xmlns="http://www.w3.org/2000/svg">
<path opacity="0.4" d="M21.3005 10.8404C21.6905 10.8404 22.0005 10.5304 22.0005 10.1404V9.21035C22.0005 5.11035 20.7505 3.86035 16.6505 3.86035H7.35049C3.25049 3.86035 2.00049 5.11035 2.00049 9.21035V9.68035C2.00049 10.0704 2.31049 10.3804 2.70049 10.3804C3.60049 10.3804 4.33049 11.1104 4.33049 12.0104C4.33049 12.9104 3.60049 13.6304 2.70049 13.6304C2.31049 13.6304 2.00049 13.9404 2.00049 14.3304V14.8004C2.00049 18.9004 3.25049 20.1504 7.35049 20.1504H16.6505C20.7505 20.1504 22.0005 18.9004 22.0005 14.8004C22.0005 14.4104 21.6905 14.1004 21.3005 14.1004C20.4005 14.1004 19.6705 13.3704 19.6705 12.4704C19.6705 11.5704 20.4005 10.8404 21.3005 10.8404Z" fill="#211B2A"/>
<path d="M15.0005 15.8799C14.4405 15.8799 13.9905 15.4299 13.9905 14.8799C13.9905 14.3299 14.4405 13.8799 14.9905 13.8799C15.5405 13.8799 15.9905 14.3299 15.9905 14.8799C15.9905 15.4299 15.5605 15.8799 15.0005 15.8799Z" fill="#211B2A"/>
<path d="M9.00048 10.8799C8.44048 10.8799 7.99048 10.4299 7.99048 9.87988C7.99048 9.32988 8.44048 8.87988 8.99048 8.87988C9.54048 8.87988 9.99048 9.32988 9.99048 9.87988C9.99048 10.4299 9.56048 10.8799 9.00048 10.8799Z" fill="#211B2A"/>
<path d="M8.63031 16.4296C8.44031 16.4296 8.25031 16.3596 8.10031 16.2096C7.81031 15.9196 7.81031 15.4396 8.10031 15.1496L14.8303 8.41965C15.1203 8.12965 15.6003 8.12965 15.8903 8.41965C16.1803 8.70965 16.1803 9.18965 15.8903 9.47965L9.16031 16.2096C9.02031 16.3596 8.82031 16.4296 8.63031 16.4296Z" fill="#211B2A"/>
</svg>
