<svg width="24" height="24" viewBox="0 0 24 24" fill="none" xmlns="http://www.w3.org/2000/svg">
<path d="M16.9955 4H6.99549C3.16549 4 2.09549 4.92 2.00549 8.5C3.93549 8.5 5.49549 10.07 5.49549 12C5.49549 13.93 3.93549 15.49 2.00549 15.5C2.09549 19.08 3.16549 20 6.99549 20H16.9955C20.9955 20 21.9955 19 21.9955 15V9C21.9955 5 20.9955 4 16.9955 4Z" stroke="#211B2A" stroke-width="1.5" stroke-linecap="round" stroke-linejoin="round"/>
<path opacity="0.4" d="M8.99377 4V7.5" stroke="#211B2A" stroke-width="1.5" stroke-linecap="round" stroke-linejoin="round"/>
<path opacity="0.4" d="M8.99377 16.5V20" stroke="#211B2A" stroke-width="1.5" stroke-linecap="round" stroke-linejoin="round"/>
<path opacity="0.4" d="M15.0255 9.33016L15.6455 10.5802C15.7055 10.7002 15.8255 10.7902 15.9555 10.8102L17.3355 11.0102C17.6755 11.0602 17.8155 11.4802 17.5655 11.7202L16.5655 12.6902C16.4655 12.7802 16.4255 12.9202 16.4455 13.0602L16.6855 14.4302C16.7455 14.7702 16.3855 15.0302 16.0855 14.8702L14.8555 14.2202C14.7355 14.1602 14.5855 14.1602 14.4655 14.2202L13.2355 14.8702C12.9255 15.0302 12.5755 14.7702 12.6355 14.4302L12.8755 13.0602C12.8955 12.9202 12.8555 12.7902 12.7555 12.6902L11.7655 11.7202C11.5155 11.4802 11.6555 11.0602 11.9955 11.0102L13.3755 10.8102C13.5155 10.7902 13.6255 10.7102 13.6855 10.5802L14.2955 9.33016C14.4355 9.02016 14.8755 9.02016 15.0255 9.33016Z" stroke="#211B2A" stroke-width="1.5" stroke-linecap="round" stroke-linejoin="round"/>
</svg>
