<svg width="24" height="24" viewBox="0 0 24 24" fill="none" xmlns="http://www.w3.org/2000/svg">
<path d="M16.6519 3.86035H9.91195V6.88035C9.91195 7.27035 9.59195 7.58035 9.21195 7.58035C8.83195 7.58035 8.51195 7.27035 8.51195 6.88035V3.86035H7.35195C3.40195 3.86035 2.10195 5.04035 2.01195 8.73035C2.00195 8.91035 2.08195 9.10035 2.21195 9.23035C2.34195 9.37035 2.51195 9.44035 2.71195 9.44035C4.11195 9.44035 5.26195 10.6004 5.26195 12.0004C5.26195 13.4004 4.11195 14.5604 2.71195 14.5604C2.52195 14.5604 2.34195 14.6304 2.21195 14.7704C2.08195 14.9004 2.00195 15.0904 2.01195 15.2704C2.10195 18.9604 3.40195 20.1404 7.35195 20.1404H8.51195V17.1204C8.51195 16.7304 8.83195 16.4204 9.21195 16.4204C9.59195 16.4204 9.91195 16.7304 9.91195 17.1204V20.1404H16.6519C20.7519 20.1404 22.0019 18.8904 22.0019 14.7904V9.21035C22.0019 5.11035 20.7519 3.86035 16.6519 3.86035ZM18.4719 11.9004L17.5419 12.8004C17.5019 12.8304 17.4919 12.8904 17.5019 12.9404L17.7219 14.2104C17.7619 14.4404 17.6719 14.6804 17.4719 14.8204C17.2819 14.9604 17.0319 14.9804 16.8219 14.8704L15.6719 14.2704C15.6319 14.2504 15.5719 14.2504 15.5319 14.2704L14.3819 14.8704C14.2919 14.9204 14.1919 14.9404 14.0919 14.9404C13.9619 14.9404 13.8419 14.9004 13.7319 14.8204C13.5419 14.6804 13.4419 14.4504 13.4819 14.2104L13.7019 12.9404C13.7119 12.8904 13.6919 12.8404 13.6619 12.8004L12.7319 11.9004C12.5619 11.7404 12.5019 11.4904 12.5719 11.2704C12.6419 11.0404 12.8319 10.8804 13.0719 10.8504L14.3519 10.6604C14.4019 10.6504 14.4419 10.6204 14.4719 10.5804L15.0419 9.42035C15.1519 9.21035 15.3619 9.08035 15.6019 9.08035C15.8419 9.08035 16.0519 9.21035 16.1519 9.42035L16.7219 10.5804C16.7419 10.6304 16.7819 10.6604 16.8319 10.6604L18.1119 10.8504C18.3519 10.8804 18.542 11.0504 18.6119 11.2704C18.702 11.4904 18.6419 11.7304 18.4719 11.9004Z" fill="#211B2A"/>
</svg>
