<svg width="24" height="24" viewBox="0 0 24 24" fill="none" xmlns="http://www.w3.org/2000/svg">
<path d="M14.5005 15.4404H9.50049" stroke="#211B2A" stroke-width="1.5" stroke-miterlimit="10" stroke-linecap="round" stroke-linejoin="round"/>
<path d="M12.0005 13V18" stroke="#211B2A" stroke-width="1.5" stroke-miterlimit="10" stroke-linecap="round" stroke-linejoin="round"/>
<path d="M12.0005 22.0003H8.10049C7.86049 22.0003 7.62049 21.9803 7.39049 21.9503C4.21049 21.7403 2.51049 20.0403 2.30049 16.8603C2.27049 16.6303 2.25049 16.3903 2.25049 16.1503V14.2003C2.25049 12.1903 3.47049 10.4603 5.21049 9.71031C5.81049 9.46031 6.45049 9.32031 7.13049 9.32031H16.8905C17.3805 9.32031 17.8605 9.39031 18.3005 9.52031C20.3005 10.1203 21.7605 11.9903 21.7605 14.1903V16.1403C21.7605 16.3403 21.7505 16.5403 21.7405 16.7403C21.5505 20.2403 19.6005 22.0003 15.9005 22.0003" stroke="#211B2A" stroke-width="1.5" stroke-linecap="round" stroke-linejoin="round"/>
<path d="M12.9004 2.52009L12.8704 2.59009L9.97044 9.32009H7.12044C6.44044 9.32009 5.79044 9.46009 5.20044 9.71009L6.95044 5.53009L6.99044 5.43009L7.06044 5.27009C7.08044 5.21009 7.10044 5.15009 7.13044 5.10009C8.44044 2.07009 9.92044 1.38009 12.9004 2.52009Z" stroke="#211B2A" stroke-width="1.5" stroke-linecap="round" stroke-linejoin="round"/>
<path d="M18.2905 9.51953C17.8405 9.37953 17.3605 9.31953 16.8805 9.31953H9.97046L12.8705 2.58953L12.9005 2.51953C13.0505 2.56953 13.1905 2.63953 13.3405 2.69953L15.5505 3.62953C16.7805 4.13953 17.6405 4.66953 18.1605 5.30953C18.2605 5.42953 18.3405 5.53953 18.4105 5.66953C18.5005 5.80953 18.5705 5.94953 18.6105 6.09953C18.6505 6.18953 18.6805 6.27953 18.7005 6.35953C18.9705 7.19953 18.8105 8.22953 18.2905 9.51953Z" stroke="#211B2A" stroke-width="1.5" stroke-linecap="round" stroke-linejoin="round"/>
<path d="M6.95048 5.53027L5.20048 9.71027C3.46048 10.4603 2.24048 12.1903 2.24048 14.2003V11.2703C2.24048 8.43027 4.26048 6.06027 6.95048 5.53027Z" stroke="#211B2A" stroke-width="1.5" stroke-linecap="round" stroke-linejoin="round"/>
<path d="M21.7605 11.2696V14.1996C21.7605 11.9996 20.3005 10.1296 18.3005 9.52961C18.8205 8.22961 18.9705 7.20961 18.7205 6.35961C18.7005 6.26961 18.6705 6.17961 18.6305 6.09961C20.4905 7.05961 21.7605 9.02961 21.7605 11.2696Z" stroke="#211B2A" stroke-width="1.5" stroke-linecap="round" stroke-linejoin="round"/>
</svg>
