<svg width="24" height="24" viewBox="0 0 24 24" fill="none" xmlns="http://www.w3.org/2000/svg">
<path d="M11.942 2.20983L9.53197 7.81983H7.12197C6.72197 7.81983 6.33197 7.84983 5.95197 7.92983L6.95197 5.52983L6.99197 5.43983L7.05197 5.27983C7.08197 5.20983 7.10197 5.14983 7.13197 5.09983C8.29197 2.40983 9.59197 1.56983 11.942 2.20983Z" fill="#211B2A"/>
<path d="M18.7319 8.08953L18.7119 8.07953C18.1119 7.90953 17.5019 7.81953 16.8819 7.81953H10.6219L12.8719 2.58953L12.9019 2.51953C13.0419 2.56953 13.1919 2.63953 13.3419 2.68953L15.5519 3.61953C16.7819 4.12953 17.6419 4.65953 18.1719 5.29953C18.2619 5.41953 18.3419 5.52953 18.4219 5.65953C18.5119 5.79953 18.5819 5.93953 18.6219 6.08953C18.6619 6.17953 18.6919 6.25953 18.7119 6.34953C18.8619 6.85953 18.8719 7.43953 18.7319 8.08953Z" fill="#211B2A"/>
<path d="M12.5219 17.6601H12.7719C13.0719 17.6601 13.3219 17.3901 13.3219 17.0601C13.3219 16.6401 13.2019 16.5801 12.9419 16.4801L12.5219 16.3301V17.6601Z" fill="#211B2A"/>
<path d="M18.2919 9.52031C17.8419 9.39031 17.3719 9.32031 16.8819 9.32031H7.12194C6.44194 9.32031 5.80194 9.45031 5.20194 9.71031C3.46194 10.4603 2.24194 12.1903 2.24194 14.2003V16.1503C2.24194 16.3903 2.26194 16.6203 2.29194 16.8603C2.51194 20.0403 4.21194 21.7403 7.39194 21.9503C7.62194 21.9803 7.85194 22.0003 8.10194 22.0003H15.9019C19.6019 22.0003 21.5519 20.2403 21.7419 16.7403C21.7519 16.5503 21.7619 16.3503 21.7619 16.1503V14.2003C21.7619 11.9903 20.2919 10.1303 18.2919 9.52031ZM13.2819 15.5003C13.7419 15.6603 14.3619 16.0003 14.3619 17.0603C14.3619 17.9703 13.6519 18.7003 12.7719 18.7003H12.5219V18.9203C12.5219 19.2103 12.2919 19.4403 12.0019 19.4403C11.7119 19.4403 11.4819 19.2103 11.4819 18.9203V18.7003H11.3919C10.4319 18.7003 9.64194 17.8903 9.64194 16.8903C9.64194 16.6003 9.87194 16.3703 10.1619 16.3703C10.4519 16.3703 10.6819 16.6003 10.6819 16.8903C10.6819 17.3103 11.0019 17.6603 11.3919 17.6603H11.4819V15.9703L10.7219 15.7003C10.2619 15.5403 9.64194 15.2003 9.64194 14.1403C9.64194 13.2303 10.3519 12.5003 11.2319 12.5003H11.4819V12.2803C11.4819 11.9903 11.7119 11.7603 12.0019 11.7603C12.2919 11.7603 12.5219 11.9903 12.5219 12.2803V12.5003H12.6119C13.5719 12.5003 14.3619 13.3103 14.3619 14.3103C14.3619 14.6003 14.1319 14.8303 13.8419 14.8303C13.5519 14.8303 13.3219 14.6003 13.3219 14.3103C13.3219 13.8903 13.0019 13.5403 12.6119 13.5403H12.5219V15.2303L13.2819 15.5003Z" fill="#211B2A"/>
<path d="M10.6819 14.14C10.6819 14.56 10.8019 14.62 11.0619 14.72L11.4819 14.87V13.54H11.2319C10.9219 13.54 10.6819 13.81 10.6819 14.14Z" fill="#211B2A"/>
</svg>
