<svg width="24" height="24" viewBox="0 0 24 24" fill="none" xmlns="http://www.w3.org/2000/svg">
<path d="M11.9419 2.20983L9.5319 7.81983H7.1219C6.7219 7.81983 6.3319 7.84983 5.9519 7.92983L6.9519 5.52983L6.9919 5.43983L7.0519 5.27983C7.0819 5.20983 7.1019 5.14983 7.1319 5.09983C8.2919 2.40983 9.5919 1.56983 11.9419 2.20983Z" fill="#211B2A"/>
<path d="M18.7319 8.08953L18.7119 8.07953C18.1119 7.90953 17.5019 7.81953 16.8819 7.81953H10.6219L12.8719 2.58953L12.9019 2.51953C13.0419 2.56953 13.1919 2.63953 13.3419 2.68953L15.5519 3.61953C16.7819 4.12953 17.6419 4.65953 18.1719 5.29953C18.2619 5.41953 18.3419 5.52953 18.4219 5.65953C18.5119 5.79953 18.5819 5.93953 18.6219 6.08953C18.6619 6.17953 18.6919 6.25953 18.7119 6.34953C18.8619 6.85953 18.8719 7.43953 18.7319 8.08953Z" fill="#211B2A"/>
<path d="M18.2919 9.52031C17.8419 9.39031 17.3719 9.32031 16.8819 9.32031H7.12194C6.44194 9.32031 5.80194 9.45031 5.20194 9.71031C3.46194 10.4603 2.24194 12.1903 2.24194 14.2003V16.1503C2.24194 16.3903 2.26194 16.6203 2.29194 16.8603C2.51194 20.0403 4.21194 21.7403 7.39194 21.9503C7.62194 21.9803 7.85194 22.0003 8.10194 22.0003H15.9019C19.6019 22.0003 21.5519 20.2403 21.7419 16.7403C21.7519 16.5503 21.7619 16.3503 21.7619 16.1503V14.2003C21.7619 11.9903 20.2919 10.1303 18.2919 9.52031ZM14.5019 16.1903H12.7519V18.0003C12.7519 18.4103 12.4119 18.7503 12.0019 18.7503C11.5919 18.7503 11.2519 18.4103 11.2519 18.0003V16.1903H9.50194C9.09194 16.1903 8.75194 15.8603 8.75194 15.4403C8.75194 15.0303 9.09194 14.6903 9.50194 14.6903H11.2519V13.0003C11.2519 12.5903 11.5919 12.2503 12.0019 12.2503C12.4119 12.2503 12.7519 12.5903 12.7519 13.0003V14.6903H14.5019C14.9119 14.6903 15.2519 15.0303 15.2519 15.4403C15.2519 15.8603 14.9119 16.1903 14.5019 16.1903Z" fill="#211B2A"/>
</svg>
