<svg width="24" height="24" viewBox="0 0 24 24" fill="none" xmlns="http://www.w3.org/2000/svg">
<path d="M1.23132 21.6817L1.99132 20.9217C1.59132 20.3217 1.36132 19.6017 1.36132 18.8317C1.36132 16.7217 3.07132 15.0117 5.18132 15.0117C7.29132 15.0117 9.00132 16.7117 9.00132 18.8217C9.00132 20.9317 7.29132 22.6417 5.18132 22.6417C4.41132 22.6417 3.69132 22.4117 3.09132 22.0117L2.33132 22.7717C2.17132 22.9217 1.97132 23.0017 1.77132 23.0017C1.57132 23.0017 1.37132 22.9217 1.22132 22.7717C0.921324 22.4717 0.921324 21.9817 1.23132 21.6817Z" fill="#211B2A"/>
<path d="M21.5015 12.5H19.0015C17.9015 12.5 17.0015 13.4 17.0015 14.5C17.0015 15.6 17.9015 16.5 19.0015 16.5H21.5015C21.7815 16.5 22.0015 16.28 22.0015 16V13C22.0015 12.72 21.7815 12.5 21.5015 12.5Z" fill="#211B2A"/>
<path d="M16.5315 5.40016C16.8315 5.69016 16.5815 6.14016 16.1615 6.14016L7.88146 6.13016C7.40146 6.13016 7.16146 5.55016 7.50146 5.21016L9.25146 3.45016C10.7315 1.98016 13.1215 1.98016 14.6015 3.45016L16.4915 5.36016C16.5015 5.37016 16.5215 5.39016 16.5315 5.40016Z" fill="#211B2A"/>
<path d="M21.8715 18.66C21.2615 20.72 19.5015 22 17.1015 22H10.6015C10.2115 22 9.96147 21.57 10.1215 21.21C10.4215 20.51 10.6115 19.72 10.6115 19C10.6115 15.97 8.14147 13.5 5.11147 13.5C4.35147 13.5 3.61147 13.66 2.93147 13.96C2.56147 14.12 2.11147 13.87 2.11147 13.47V12C2.11147 9.28 3.75147 7.38 6.30147 7.06C6.55147 7.02 6.82147 7 7.10147 7H17.1015C17.3615 7 17.6115 7.01 17.8515 7.05C19.8715 7.28 21.3315 8.51 21.8715 10.34C21.9715 10.67 21.7315 11 21.3915 11H19.1015C16.9315 11 15.2115 12.98 15.6815 15.23C16.0115 16.87 17.5315 18 19.2015 18H21.3915C21.7415 18 21.9715 18.34 21.8715 18.66Z" fill="#211B2A"/>
</svg>
