<svg width="24" height="24" viewBox="0 0 24 24" fill="none" xmlns="http://www.w3.org/2000/svg">
<path d="M5.20049 10.4599C5.01049 10.4599 4.81049 10.3799 4.67049 10.2399C4.46049 10.0199 4.39049 9.69988 4.51049 9.41988L6.37049 4.97988C6.41049 4.88988 6.43049 4.82988 6.46049 4.77988C7.94049 1.36988 9.83049 0.539877 13.1705 1.81988C13.3605 1.88988 13.5105 2.03988 13.5905 2.22988C13.6705 2.41988 13.6705 2.62988 13.5905 2.81988L10.6605 9.61988C10.5405 9.89988 10.2705 10.0699 9.97049 10.0699H7.12049C6.55049 10.0699 6.01049 10.1799 5.49049 10.3999C5.40049 10.4399 5.30049 10.4599 5.20049 10.4599ZM10.6105 2.74988C9.37049 2.74988 8.61049 3.55988 7.82049 5.39988C7.81049 5.42988 7.79049 5.45988 7.78049 5.48988L6.47049 8.59988C6.69049 8.57988 6.90049 8.56988 7.12049 8.56988H9.47049L11.8805 2.96988C11.4105 2.81988 10.9905 2.74988 10.6105 2.74988Z" fill="#211B2A"/>
<path d="M18.2905 10.2702C18.2205 10.2702 18.1405 10.2602 18.0705 10.2402C17.6905 10.1302 17.2905 10.0702 16.8705 10.0702H9.9705C9.7205 10.0702 9.4805 9.94024 9.3405 9.73024C9.2105 9.52024 9.1805 9.25024 9.2805 9.02024L12.1805 2.29024C12.3305 1.93024 12.7705 1.68024 13.1405 1.81024C13.2605 1.85024 13.3705 1.90024 13.4905 1.95024L15.8505 2.94024C17.2305 3.51024 18.1505 4.11024 18.7505 4.83024C18.8705 4.97024 18.9705 5.12024 19.0705 5.28024C19.1805 5.45024 19.2805 5.65024 19.3505 5.86024C19.3805 5.93024 19.4305 6.06024 19.4605 6.20024C19.7405 7.15024 19.6005 8.31024 19.0005 9.81024C18.8705 10.0902 18.5905 10.2702 18.2905 10.2702ZM11.1105 8.57024H16.8805C17.2005 8.57024 17.5105 8.60024 17.8205 8.65024C18.1005 7.78024 18.1605 7.11024 18.0005 6.57024C17.9805 6.48024 17.9605 6.44024 17.9505 6.40024C17.8905 6.24024 17.8505 6.15024 17.8005 6.07024C17.7305 5.96024 17.6805 5.87024 17.6005 5.78024C17.1705 5.26024 16.4105 4.78024 15.2705 4.31024L13.3005 3.49024L11.1105 8.57024Z" fill="#211B2A"/>
<path d="M15.9005 22.7503H8.10049C7.82049 22.7503 7.56049 22.7303 7.30049 22.7003C3.79049 22.4703 1.79049 20.4603 1.55049 16.9103C1.52049 16.6903 1.50049 16.4203 1.50049 16.1503V14.2003C1.50049 11.9503 2.84049 9.92031 4.91049 9.02031C5.62049 8.72031 6.36049 8.57031 7.13049 8.57031H16.8905C17.4605 8.57031 18.0105 8.65031 18.5205 8.81031C20.8705 9.52031 22.5205 11.7403 22.5205 14.2003V16.1503C22.5205 16.3703 22.5105 16.5803 22.5005 16.7803C22.2805 20.6903 20.0005 22.7503 15.9005 22.7503ZM7.12049 10.0703C6.55049 10.0703 6.01049 10.1803 5.49049 10.4003C3.97049 11.0603 2.99049 12.5503 2.99049 14.2003V16.1503C2.99049 16.3603 3.01049 16.5703 3.03049 16.7703C3.22049 19.6203 4.62049 21.0203 7.43049 21.2103C7.68049 21.2403 7.88049 21.2603 8.09049 21.2603H15.8905C19.1905 21.2603 20.8105 19.8103 20.9705 16.7103C20.9805 16.5303 20.9905 16.3503 20.9905 16.1503V14.2003C20.9905 12.3903 19.7805 10.7703 18.0605 10.2403C17.6805 10.1303 17.2805 10.0703 16.8605 10.0703H7.12049Z" fill="#211B2A"/>
<path d="M2.24048 14.9498C1.83048 14.9498 1.49048 14.6098 1.49048 14.1998V11.2698C1.49048 8.1198 3.72048 5.3998 6.80048 4.7998C7.07048 4.7498 7.35048 4.8498 7.53048 5.0598C7.70048 5.2698 7.75048 5.5698 7.64048 5.8198L5.89048 9.9998C5.81048 10.1798 5.67048 10.3198 5.50048 10.3998C3.98048 11.0598 3.00048 12.5498 3.00048 14.1998C2.99048 14.6098 2.66048 14.9498 2.24048 14.9498ZM5.60048 6.8198C4.32048 7.5398 3.39048 8.7998 3.10048 10.2698C3.54048 9.8198 4.05048 9.4398 4.63048 9.1598L5.60048 6.8198Z" fill="#211B2A"/>
<path d="M21.7605 14.9498C21.3505 14.9498 21.0105 14.6098 21.0105 14.1998C21.0105 12.3898 19.8005 10.7698 18.0805 10.2398C17.8805 10.1798 17.7105 10.0398 17.6205 9.84978C17.5305 9.65978 17.5205 9.43978 17.6005 9.24978C18.0705 8.07978 18.1905 7.22978 18.0005 6.56978C17.9805 6.47978 17.9605 6.43978 17.9505 6.39978C17.8205 6.10978 17.8905 5.76978 18.1205 5.54978C18.3505 5.32978 18.7005 5.27978 18.9805 5.42978C21.1605 6.56978 22.5105 8.80978 22.5105 11.2698V14.1998C22.5105 14.6098 22.1705 14.9498 21.7605 14.9498ZM19.2505 9.08978C19.8805 9.37978 20.4405 9.78978 20.9105 10.2798C20.7205 9.29978 20.2505 8.40978 19.5605 7.70978C19.5105 8.12978 19.4105 8.58978 19.2505 9.08978Z" fill="#211B2A"/>
</svg>
