<svg width="24" height="24" viewBox="0 0 24 24" fill="none" xmlns="http://www.w3.org/2000/svg">
<path d="M22.0014 12.6196V14.6796C22.0014 15.2396 21.5414 15.6996 20.9714 15.6996H19.0414C17.9614 15.6996 16.9714 14.9096 16.8814 13.8296C16.8214 13.1996 17.0614 12.6096 17.4814 12.1996C17.8514 11.8196 18.3614 11.5996 18.9214 11.5996H20.9714C21.5414 11.5996 22.0014 12.0596 22.0014 12.6196Z" fill="#211B2A"/>
<path d="M15.3815 13.9604C15.2915 12.9104 15.6715 11.8804 16.4315 11.1304C17.0715 10.4804 17.9615 10.1004 18.9215 10.1004H19.4915C19.7715 10.1004 20.0015 9.87039 19.9615 9.59039C19.6915 7.65039 18.0115 6.15039 16.0015 6.15039H6.00146C3.79146 6.15039 2.00146 7.94039 2.00146 10.1504V17.1504C2.00146 19.3604 3.79146 21.1504 6.00146 21.1504H16.0015C18.0215 21.1504 19.6915 19.6504 19.9615 17.7104C20.0015 17.4304 19.7715 17.2004 19.4915 17.2004H19.0415C17.1415 17.2004 15.5415 15.7804 15.3815 13.9604ZM13.0015 11.9004H7.00146C6.59146 11.9004 6.25146 11.5704 6.25146 11.1504C6.25146 10.7304 6.59146 10.4004 7.00146 10.4004H13.0015C13.4115 10.4004 13.7515 10.7404 13.7515 11.1504C13.7515 11.5604 13.4115 11.9004 13.0015 11.9004Z" fill="#211B2A"/>
<path d="M14.2116 3.97961C14.4716 4.24961 14.2416 4.64961 13.8616 4.64961H6.03162C4.94162 4.64961 3.92162 4.96961 3.07162 5.51961C2.68162 5.76961 2.15162 5.49961 2.34162 5.06961C2.90162 3.75961 4.21162 2.84961 5.72162 2.84961H11.3416C12.5016 2.84961 13.5316 3.25961 14.2116 3.97961Z" fill="#211B2A"/>
</svg>
