<svg width="24" height="24" viewBox="0 0 24 24" fill="none" xmlns="http://www.w3.org/2000/svg">
<path d="M20.9715 16.08C20.7315 18.75 18.8015 20.5 16.0015 20.5H7.00146C4.24146 20.5 2.00146 18.26 2.00146 15.5V8.5C2.00146 5.78 3.64146 3.88 6.19146 3.56C6.45146 3.52 6.72146 3.5 7.00146 3.5H16.0015C16.2615 3.5 16.5115 3.51 16.7515 3.55C19.1415 3.83 20.7615 5.5 20.9715 7.92C21.0015 8.21 20.7615 8.45 20.4715 8.45H18.9215C17.9615 8.45 17.0715 8.82 16.4315 9.48C15.6715 10.22 15.2915 11.26 15.3815 12.3C15.5415 14.12 17.1415 15.55 19.0415 15.55H20.4715C20.7615 15.55 21.0015 15.79 20.9715 16.08Z" fill="#211B2A"/>
<path d="M22.0014 10.9702V13.0302C22.0014 13.5802 21.5614 14.0302 21.0014 14.0502H19.0414C17.9614 14.0502 16.9714 13.2602 16.8814 12.1802C16.8214 11.5502 17.0614 10.9602 17.4814 10.5502C17.8514 10.1702 18.3614 9.9502 18.9214 9.9502H21.0014C21.5614 9.9702 22.0014 10.4202 22.0014 10.9702Z" fill="#211B2A"/>
</svg>
