<svg width="24" height="24" viewBox="0 0 24 24" fill="none" xmlns="http://www.w3.org/2000/svg">
<path d="M17.75 7.04997C17.51 7.00997 17.26 6.99998 17 6.99998H7C6.72 6.99998 6.45 7.01998 6.19 7.05998C6.33 6.77998 6.53 6.52001 6.77 6.28001L10.02 3.02C11.39 1.66 13.61 1.66 14.98 3.02L16.73 4.78996C17.37 5.41996 17.71 6.21997 17.75 7.04997Z" fill="#211B2A"/>
<path opacity="0.4" d="M2 16.36V12C2 9.28 3.64 7.38 6.19 7.06C6.45 7.02 6.72 7 7 7H17C17.26 7 17.51 7.00999 17.75 7.04999C20.33 7.34999 22 9.26 22 12V17C22 19.76 19.76 22 17 22H7.63H7C4.24 22 2 19.76 2 17V16.36Z" fill="#211B2A"/>
<path d="M22 12.5H19C17.9 12.5 17 13.4 17 14.5C17 15.6 17.9 16.5 19 16.5H22" fill="#211B2A"/>
<path d="M1.23 21.6797L1.98999 20.9197C1.58999 20.3197 1.35999 19.5998 1.35999 18.8298C1.35999 16.7198 3.06999 15.0098 5.17999 15.0098C7.28999 15.0098 8.99999 16.7198 8.99999 18.8298C8.99999 20.9398 7.28999 22.6498 5.17999 22.6498C4.40999 22.6498 3.68999 22.4198 3.08999 22.0198L2.33 22.7798C2.18 22.9298 1.97999 23.0098 1.77999 23.0098C1.57999 23.0098 1.38 22.9298 1.23 22.7798C0.919998 22.4698 0.919998 21.9797 1.23 21.6797Z" fill="#211B2A"/>
</svg>
