<svg width="24" height="24" viewBox="0 0 24 24" fill="none" xmlns="http://www.w3.org/2000/svg">
<path d="M17.0002 22.75H7.63025C7.31025 22.75 7.03023 22.55 6.92023 22.26C6.81023 21.97 6.90026 21.63 7.14026 21.43C7.38026 21.23 7.60025 20.97 7.76025 20.69C8.08025 20.18 8.24023 19.6 8.24023 19.01C8.24023 17.22 6.78023 15.76 4.99023 15.76C4.06023 15.76 3.17023 16.16 2.55023 16.87C2.34023 17.1 2.01021 17.19 1.72021 17.08C1.43021 16.97 1.23022 16.69 1.23022 16.38V12C1.23022 8.92 3.13026 6.69001 6.08026 6.32001C6.35026 6.28001 6.66022 6.25 6.98022 6.25H16.9802C17.2202 6.25 17.5302 6.26 17.8502 6.31C20.8002 6.65 22.7302 8.89 22.7302 12V17C22.7502 20.44 20.4402 22.75 17.0002 22.75ZM9.18024 21.25H17.0002C19.5802 21.25 21.2502 19.58 21.2502 17V12C21.2502 9.66 19.8802 8.04998 17.6602 7.78998C17.4202 7.74998 17.2102 7.75 17.0002 7.75H7.00024C6.76024 7.75 6.53023 7.76999 6.30023 7.79999C4.10023 8.07999 2.75024 9.68 2.75024 12V14.82C3.43024 14.45 4.21024 14.25 5.00024 14.25C7.62024 14.25 9.75024 16.38 9.75024 19C9.75024 19.79 9.55024 20.57 9.18024 21.25Z" fill="#211B2A"/>
<path d="M6.19027 7.80946C5.95027 7.80946 5.73029 7.69946 5.58029 7.49946C5.41029 7.26946 5.39029 6.96943 5.52029 6.71943C5.69029 6.37943 5.93026 6.04946 6.24026 5.74946L9.49026 2.48945C11.1503 0.839453 13.8503 0.839453 15.5103 2.48945L17.2603 4.26948C18.0003 4.99948 18.4503 5.97948 18.5003 7.01948C18.5103 7.24948 18.4203 7.46946 18.2503 7.61946C18.0803 7.76946 17.8503 7.83945 17.6303 7.79945C17.4303 7.76945 17.2203 7.75947 17.0003 7.75947H7.00027C6.76027 7.75947 6.53026 7.77946 6.30026 7.80946C6.27026 7.80946 6.23027 7.80946 6.19027 7.80946ZM7.86026 6.24946H16.8203C16.6903 5.90946 16.4803 5.59947 16.2003 5.31947L14.4403 3.53944C13.3703 2.47944 11.6203 2.47944 10.5403 3.53944L7.86026 6.24946Z" fill="#211B2A"/>
<path d="M22.0002 17.25H19.0002C17.4802 17.25 16.2502 16.02 16.2502 14.5C16.2502 12.98 17.4802 11.75 19.0002 11.75H22.0002C22.4102 11.75 22.7502 12.09 22.7502 12.5C22.7502 12.91 22.4102 13.25 22.0002 13.25H19.0002C18.3102 13.25 17.7502 13.81 17.7502 14.5C17.7502 15.19 18.3102 15.75 19.0002 15.75H22.0002C22.4102 15.75 22.7502 16.09 22.7502 16.5C22.7502 16.91 22.4102 17.25 22.0002 17.25Z" fill="#211B2A"/>
<path d="M5.00024 23.75C3.34024 23.75 1.78025 22.87 0.940247 21.44C0.490247 20.72 0.250244 19.87 0.250244 19C0.250244 17.85 0.670247 16.74 1.44025 15.87C2.34025 14.84 3.64024 14.25 5.00024 14.25C7.62024 14.25 9.75024 16.38 9.75024 19C9.75024 19.87 9.51024 20.72 9.06024 21.45C8.81024 21.87 8.49023 22.25 8.11023 22.57C7.28023 23.33 6.17024 23.75 5.00024 23.75ZM5.00024 15.75C4.07024 15.75 3.18024 16.15 2.56024 16.86C2.04024 17.46 1.75024 18.22 1.75024 19C1.75024 19.59 1.91021 20.17 2.22021 20.67C2.80021 21.65 3.87024 22.25 5.00024 22.25C5.79024 22.25 6.55025 21.96 7.13025 21.44C7.39025 21.22 7.61026 20.96 7.77026 20.68C8.09026 20.17 8.25024 19.59 8.25024 19C8.25024 17.21 6.79024 15.75 5.00024 15.75Z" fill="#211B2A"/>
<path d="M6.07016 20.7901C5.88016 20.7901 5.69013 20.7201 5.54013 20.5701L3.43015 18.4601C3.14015 18.1701 3.14015 17.6901 3.43015 17.4001C3.72015 17.1101 4.20014 17.1101 4.49014 17.4001L6.60013 19.5101C6.89013 19.8001 6.89013 20.2801 6.60013 20.5701C6.45013 20.7201 6.26016 20.7901 6.07016 20.7901Z" fill="#211B2A"/>
<path d="M3.93033 20.8204C3.74033 20.8204 3.55036 20.7504 3.40036 20.6004C3.11036 20.3104 3.11036 19.8304 3.40036 19.5404L5.51035 17.4304C5.80035 17.1404 6.28034 17.1404 6.57034 17.4304C6.86034 17.7204 6.86034 18.2004 6.57034 18.4904L4.46036 20.6004C4.31036 20.7504 4.12033 20.8204 3.93033 20.8204Z" fill="#211B2A"/>
</svg>
