<svg width="24" height="24" viewBox="0 0 24 24" fill="none" xmlns="http://www.w3.org/2000/svg">
<path d="M14.9998 6.14966H5.99976C3.78976 6.14966 1.99976 7.93966 1.99976 10.1497V6.53961C1.99976 4.49961 3.64976 2.84961 5.68976 2.84961H11.3098C13.3498 2.84961 14.9998 4.10966 14.9998 6.14966Z" fill="#211B2A"/>
<path opacity="0.4" d="M17.4797 12.2004C16.9797 12.6904 16.7398 13.4304 16.9398 14.1804C17.1898 15.1104 18.1098 15.7004 19.0698 15.7004H19.9998V17.1504C19.9998 19.3604 18.2098 21.1504 15.9998 21.1504H5.99976C3.78976 21.1504 1.99976 19.3604 1.99976 17.1504V10.1504C1.99976 7.94039 3.78976 6.15039 5.99976 6.15039H15.9998C18.1998 6.15039 19.9998 7.95039 19.9998 10.1504V11.6003H18.9197C18.3597 11.6003 17.8497 11.8204 17.4797 12.2004Z" fill="#211B2A"/>
<path d="M21.9997 12.6196V14.6796C21.9997 15.2396 21.5397 15.6996 20.9697 15.6996H19.0397C17.9597 15.6996 16.9697 14.9097 16.8797 13.8297C16.8197 13.1997 17.0597 12.6096 17.4797 12.1996C17.8497 11.8196 18.3597 11.5996 18.9197 11.5996H20.9697C21.5397 11.5996 21.9997 12.0596 21.9997 12.6196Z" fill="#211B2A"/>
<path d="M12.9998 11.9004H6.99976C6.58976 11.9004 6.24976 11.5604 6.24976 11.1504C6.24976 10.7404 6.58976 10.4004 6.99976 10.4004H12.9998C13.4098 10.4004 13.7498 10.7404 13.7498 11.1504C13.7498 11.5604 13.4098 11.9004 12.9998 11.9004Z" fill="#211B2A"/>
</svg>
