<svg width="24" height="24" viewBox="0 0 24 24" fill="none" xmlns="http://www.w3.org/2000/svg">
<path d="M12.1401 15.8198C11.7301 15.8198 11.3901 15.4798 11.3901 15.0698V13.1098C11.3901 10.1798 13.7701 7.7998 16.7101 7.7998H18.6701C19.0801 7.7998 19.4201 8.1398 19.4201 8.5498C19.4201 8.9598 19.0801 9.2998 18.6701 9.2998H16.7101C14.6101 9.2998 12.8901 11.0098 12.8901 13.1098V15.0698C12.8901 15.4898 12.5501 15.8198 12.1401 15.8198Z" fill="#211B2A"/>
<path d="M12.1401 17.9996C11.7301 17.9996 11.3901 17.6596 11.3901 17.2496V13.1196C11.3901 11.0196 9.68014 9.30957 7.58014 9.30957H5.62012C5.21012 9.30957 4.87012 8.96957 4.87012 8.55957C4.87012 8.14957 5.21012 7.80957 5.62012 7.80957H7.58014C10.5101 7.80957 12.8901 10.1896 12.8901 13.1196V17.2496C12.8901 17.6596 12.5501 17.9996 12.1401 17.9996Z" fill="#211B2A"/>
<path d="M7.1398 11.1004C6.9498 11.1004 6.75977 11.0304 6.60977 10.8804L4.80979 9.08043C4.51979 8.79043 4.51979 8.31043 4.80979 8.02043L6.60977 6.22043C6.89977 5.93043 7.37977 5.93043 7.66977 6.22043C7.95977 6.51043 7.95977 6.99043 7.66977 7.28043L6.39981 8.55043L7.66977 9.82044C7.95977 10.1104 7.95977 10.5904 7.66977 10.8804C7.51977 11.0304 7.3298 11.1004 7.1398 11.1004Z" fill="#211B2A"/>
<path d="M16.8598 11.1004C16.6698 11.1004 16.4798 11.0304 16.3298 10.8804C16.0398 10.5904 16.0398 10.1104 16.3298 9.82044L17.5998 8.55043L16.3298 7.28043C16.0398 6.99043 16.0398 6.51043 16.3298 6.22043C16.6198 5.93043 17.0998 5.93043 17.3898 6.22043L19.1898 8.02043C19.4798 8.31043 19.4798 8.79043 19.1898 9.08043L17.3898 10.8804C17.2498 11.0304 17.0498 11.1004 16.8598 11.1004Z" fill="#211B2A"/>
<path d="M15 22.75H9C3.57 22.75 1.25 20.43 1.25 15V9C1.25 3.57 3.57 1.25 9 1.25H15C20.43 1.25 22.75 3.57 22.75 9V15C22.75 20.43 20.43 22.75 15 22.75ZM9 2.75C4.39 2.75 2.75 4.39 2.75 9V15C2.75 19.61 4.39 21.25 9 21.25H15C19.61 21.25 21.25 19.61 21.25 15V9C21.25 4.39 19.61 2.75 15 2.75H9Z" fill="#211B2A"/>
</svg>
