<svg width="24" height="24" viewBox="0 0 24 24" fill="none" xmlns="http://www.w3.org/2000/svg">
<path d="M6.18999 22.0598C5.18999 22.0598 4.21999 21.6698 3.44999 20.9198C2.19999 19.6998 1.89999 17.8998 2.67999 16.3398L4.29999 13.0998C4.63999 12.4198 4.63999 11.5998 4.29999 10.9098L2.67999 7.65985C1.89999 6.09985 2.19999 4.29985 3.44999 3.07985C4.69999 1.85985 6.49999 1.58985 8.04999 2.40985L19.64 8.50985C20.94 9.18985 21.75 10.5298 21.75 11.9998C21.75 13.4698 20.94 14.8098 19.64 15.4898L8.04999 21.5898C7.44999 21.9098 6.81999 22.0598 6.18999 22.0598ZM6.19999 3.43985C5.50999 3.43985 4.90999 3.75985 4.49999 4.15985C3.87999 4.75985 3.43999 5.82985 4.01999 6.99985L5.63999 10.2398C6.18999 11.3498 6.18999 12.6598 5.63999 13.7698L4.01999 17.0098C3.42999 18.1798 3.87999 19.2498 4.49999 19.8498C5.11999 20.4498 6.18999 20.8798 7.34999 20.2698L18.94 14.1698C19.76 13.7398 20.25 12.9298 20.25 12.0098C20.25 11.0898 19.76 10.2798 18.94 9.84985L7.34999 3.72985C6.94999 3.51985 6.55999 3.43985 6.19999 3.43985Z" fill="#211B2A"/>
</svg>
