<svg width="24" height="24" viewBox="0 0 24 24" fill="none" xmlns="http://www.w3.org/2000/svg">
<g clip-path="url(#clip0_6502_57995)">
<path d="M21.29 17.0198L19.55 13.5398C19.07 12.5698 19.07 11.4398 19.55 10.4698L21.29 6.98983C22.78 3.99983 19.57 0.859829 16.62 2.41983L15.08 3.23983C14.87 3.34983 14.7 3.52983 14.6 3.74983L8.89999 16.3898C8.66999 16.9098 8.87999 17.5198 9.37999 17.7798L16.62 21.5898C19.57 23.1498 22.78 19.9998 21.29 17.0198Z" fill="#211B2A"/>
<path d="M7.69002 15.6004L11.42 7.32045C11.84 6.39045 10.84 5.45045 9.94002 5.93045L4.17002 8.96045C1.72002 10.2504 1.72002 13.7504 4.17002 15.0404L6.21002 16.1104C6.76002 16.4004 7.43002 16.1704 7.69002 15.6004Z" fill="#211B2A"/>
</g>
<defs>
<clipPath id="clip0_6502_57995">
<rect width="24" height="24" fill="white"/>
</clipPath>
</defs>
</svg>
