<svg width="24" height="24" viewBox="0 0 24 24" fill="none" xmlns="http://www.w3.org/2000/svg">
<g clip-path="url(#clip0_6502_57929)">
<path d="M17.02 21.2897L13.54 19.5497C12.57 19.0697 11.44 19.0697 10.47 19.5497L6.98997 21.2897C3.99997 22.7797 0.849974 19.5697 2.40997 16.6197L3.22997 15.0797C3.33997 14.8697 3.51997 14.6997 3.73997 14.5997L16.38 8.89969C16.9 8.66969 17.51 8.87969 17.77 9.37969L21.58 16.6197C23.14 19.5697 20 22.7797 17.02 21.2897Z" fill="#211B2A"/>
<path d="M15.6 7.68953L7.32002 11.4195C6.39002 11.8395 5.45002 10.8395 5.93002 9.93953L8.97002 4.16953C10.26 1.71953 13.76 1.71953 15.05 4.16953L16.12 6.20953C16.4 6.75953 16.16 7.43953 15.6 7.68953Z" fill="#211B2A"/>
</g>
<defs>
<clipPath id="clip0_6502_57929">
<rect width="24" height="24" fill="white"/>
</clipPath>
</defs>
</svg>
