<svg width="24" height="24" viewBox="0 0 24 24" fill="none" xmlns="http://www.w3.org/2000/svg">
<path d="M2.70999 17.0202L4.44999 13.5402C4.92999 12.5702 4.92999 11.4402 4.44999 10.4702L2.70999 6.98022C1.21999 4.00022 4.42999 0.850218 7.37999 2.41022L8.91999 3.23022C9.13999 3.34022 9.30999 3.52022 9.39999 3.74022L15.09 16.3902C15.32 16.9102 15.11 17.5202 14.61 17.7802L7.36999 21.5902C4.42999 23.1502 1.21999 20.0002 2.70999 17.0202Z" fill="#211B2A"/>
<path opacity="0.4" d="M16.31 15.6004L12.58 7.32045C12.16 6.39045 13.16 5.45045 14.06 5.93045L19.83 8.97045C22.28 10.2604 22.28 13.7604 19.83 15.0504L17.79 16.1204C17.24 16.4004 16.57 16.1704 16.31 15.6004Z" fill="#211B2A"/>
</svg>
