<svg width="24" height="24" viewBox="0 0 24 24" fill="none" xmlns="http://www.w3.org/2000/svg">
<path d="M12 22.75C6.07 22.75 1.25 17.93 1.25 12C1.25 6.07 6.07 1.25 12 1.25C17.93 1.25 22.75 6.07 22.75 12C22.75 17.93 17.93 22.75 12 22.75ZM12 2.75C6.9 2.75 2.75 6.9 2.75 12C2.75 17.1 6.9 21.25 12 21.25C17.1 21.25 21.25 17.1 21.25 12C21.25 6.9 17.1 2.75 12 2.75Z" fill="#211B2A"/>
<path d="M9 21.75H8C7.59 21.75 7.25 21.41 7.25 21C7.25 20.59 7.57 20.26 7.98 20.25C6.41 14.89 6.41 9.11 7.98 3.75C7.57 3.74 7.25 3.41 7.25 3C7.25 2.59 7.59 2.25 8 2.25H9C9.24 2.25 9.47 2.37 9.61 2.56C9.75 2.76 9.79 3.01 9.71 3.24C7.83 8.89 7.83 15.11 9.71 20.77C9.79 21 9.75 21.25 9.61 21.45C9.47 21.63 9.24 21.75 9 21.75Z" fill="#211B2A"/>
<path d="M15 21.7497C14.92 21.7497 14.84 21.7397 14.76 21.7097C14.37 21.5797 14.15 21.1497 14.29 20.7597C16.17 15.1097 16.17 8.88969 14.29 3.22969C14.16 2.83969 14.37 2.40969 14.76 2.27969C15.16 2.14969 15.58 2.35969 15.71 2.74969C17.7 8.70969 17.7 15.2697 15.71 21.2197C15.61 21.5497 15.31 21.7497 15 21.7497Z" fill="#211B2A"/>
<path d="M12 17.1998C9.21 17.1998 6.43 16.8098 3.75 16.0198C3.74 16.4198 3.41 16.7498 3 16.7498C2.59 16.7498 2.25 16.4098 2.25 15.9998V14.9998C2.25 14.7598 2.37 14.5298 2.56 14.3898C2.76 14.2498 3.01 14.2098 3.24 14.2898C8.89 16.1698 15.12 16.1698 20.77 14.2898C21 14.2098 21.25 14.2498 21.45 14.3898C21.65 14.5298 21.76 14.7598 21.76 14.9998V15.9998C21.76 16.4098 21.42 16.7498 21.01 16.7498C20.6 16.7498 20.27 16.4298 20.26 16.0198C17.57 16.8098 14.79 17.1998 12 17.1998Z" fill="#211B2A"/>
<path d="M21 9.75035C20.92 9.75035 20.84 9.74035 20.76 9.71035C15.11 7.83035 8.88 7.83035 3.23 9.71035C2.83 9.84035 2.41 9.63035 2.28 9.24035C2.16 8.84035 2.37 8.42035 2.76 8.29035C8.72 6.30035 15.28 6.30035 21.23 8.29035C21.62 8.42035 21.84 8.85035 21.7 9.24035C21.61 9.55035 21.31 9.75035 21 9.75035Z" fill="#211B2A"/>
</svg>
