<svg width="24" height="24" viewBox="0 0 24 24" fill="none" xmlns="http://www.w3.org/2000/svg">
<path d="M22.65 18.1304C22.55 17.7304 22.15 17.4804 21.75 17.5804C21.35 17.6804 21.1 18.0804 21.19 18.4804C21.23 18.6504 21.25 18.8204 21.25 19.0004C21.25 20.2404 20.24 21.2504 19 21.2504C17.76 21.2504 16.75 20.2404 16.75 19.0004C16.75 17.9004 17.54 16.9904 18.59 16.7904C18.49 17.0204 18.5 17.3004 18.66 17.5204C18.81 17.7204 19.04 17.8304 19.27 17.8304C19.42 17.8304 19.58 17.7804 19.71 17.6904L20.88 16.8404C20.89 16.8304 20.89 16.8204 20.9 16.8204C20.91 16.8104 20.92 16.8104 20.93 16.8004C20.96 16.7704 20.98 16.7404 21 16.7004C21.03 16.6604 21.07 16.6304 21.09 16.5804C21.11 16.5404 21.12 16.4904 21.14 16.4504C21.15 16.4004 21.17 16.3604 21.18 16.3104C21.19 16.2604 21.18 16.2204 21.17 16.1704C21.17 16.1204 21.17 16.0704 21.15 16.0204C21.14 15.9704 21.11 15.9304 21.09 15.8904C21.07 15.8504 21.06 15.8104 21.04 15.7804C21.03 15.7704 21.02 15.7704 21.01 15.7604C21 15.7504 21 15.7404 20.99 15.7304L19.99 14.5804C19.72 14.2704 19.24 14.2304 18.93 14.5104C18.71 14.7104 18.63 15.0004 18.71 15.2704C16.78 15.4204 15.25 17.0204 15.25 18.9904C15.25 21.0604 16.93 22.7404 19 22.7404C21.07 22.7404 22.75 21.0604 22.75 18.9904C22.75 18.7104 22.72 18.4104 22.65 18.1304Z" fill="#211B2A"/>
<path opacity="0.4" d="M2.03 14.6299C2.03 14.6599 2.01001 14.6999 2.01001 14.7299C2.93001 16.5699 4.42999 18.0799 6.26999 18.9899C6.29999 18.9899 6.33999 18.9699 6.37 18.9699C6.02999 17.8099 5.76999 16.6199 5.57999 15.4299C4.37999 15.2299 3.19 14.9699 2.03 14.6299Z" fill="#211B2A"/>
<path opacity="0.4" d="M19.07 6.43042C18.13 4.46042 16.54 2.87043 14.58 1.94043C14.94 3.13043 15.24 4.35043 15.44 5.57043C16.66 5.77043 17.88 6.06042 19.07 6.43042Z" fill="#211B2A"/>
<path opacity="0.4" d="M1.92999 6.42953C3.12999 6.06953 4.35001 5.76955 5.57001 5.56955C5.77001 4.37955 6.01999 3.19955 6.35999 2.03955C6.32999 2.03955 6.29001 2.01953 6.26001 2.01953C4.38001 2.94953 2.84999 4.51954 1.92999 6.42953Z" fill="#211B2A"/>
<path opacity="0.4" d="M13.82 5.36023C13.58 4.06023 13.28 2.76024 12.85 1.50024C12.83 1.43024 12.83 1.37025 12.82 1.29025C12.08 1.11025 11.3 0.990234 10.5 0.990234C9.69 0.990234 8.92001 1.10025 8.17001 1.29025C8.16001 1.36025 8.16999 1.42024 8.14999 1.50024C7.72999 2.76024 7.41999 4.06023 7.17999 5.36023C9.38999 5.12023 11.61 5.12023 13.82 5.36023Z" fill="#211B2A"/>
<path opacity="0.4" d="M5.35999 7.17969C4.04999 7.41969 2.76 7.71969 1.5 8.14969C1.43 8.16969 1.37001 8.16969 1.29001 8.17969C1.11001 8.91969 0.98999 9.69969 0.98999 10.4997C0.98999 11.3097 1.10001 12.0797 1.29001 12.8297C1.36001 12.8397 1.42 12.8297 1.5 12.8497C2.76 13.2697 4.04999 13.5797 5.35999 13.8197C5.11999 11.6097 5.11999 9.38969 5.35999 7.17969Z" fill="#211B2A"/>
<path opacity="0.4" d="M19.7 8.17969C19.63 8.17969 19.57 8.16969 19.49 8.14969C18.23 7.72969 16.93 7.41969 15.63 7.17969C15.88 9.38969 15.88 11.6097 15.63 13.8097C16.93 13.5697 18.23 13.2697 19.49 12.8397C19.56 12.8197 19.62 12.8297 19.7 12.8197C19.88 12.0697 20 11.2997 20 10.4897C20 9.69969 19.89 8.92969 19.7 8.17969Z" fill="#211B2A"/>
<path opacity="0.4" d="M7.17999 15.6396C7.41999 16.9496 7.71999 18.2396 8.14999 19.4996C8.16999 19.5696 8.16001 19.6296 8.17001 19.7096C8.92001 19.8896 9.69 20.0096 10.5 20.0096C11.3 20.0096 12.08 19.8996 12.82 19.7096C12.83 19.6396 12.83 19.5796 12.85 19.4996C13.27 18.2396 13.58 16.9496 13.82 15.6396C12.72 15.7596 11.61 15.8496 10.5 15.8496C9.39 15.8396 8.27999 15.7596 7.17999 15.6396Z" fill="#211B2A"/>
<path opacity="0.4" d="M6.95001 6.94961C6.65001 9.30961 6.65001 11.6896 6.95001 14.0596C9.31001 14.3596 11.69 14.3596 14.06 14.0596C14.36 11.6996 14.36 9.31961 14.06 6.94961C11.69 6.64961 9.31001 6.64961 6.95001 6.94961Z" fill="#211B2A"/>
</svg>
