<svg width="24" height="24" viewBox="0 0 24 24" fill="none" xmlns="http://www.w3.org/2000/svg">
<path d="M21.79 20.76L21.07 20.04C21.44 19.48 21.66 18.8 21.66 18.08C21.66 16.1 20.06 14.5 18.08 14.5C16.1 14.5 14.5 16.1 14.5 18.08C14.5 20.06 16.1 21.66 18.08 21.66C18.81 21.66 19.48 21.44 20.04 21.07L20.76 21.79C20.9 21.93 21.09 22 21.27 22C21.46 22 21.64 21.93 21.78 21.79C22.07 21.5 22.07 21.04 21.79 20.76Z" fill="#211B2A"/>
<path opacity="0.4" d="M2.03 14.6299C2.03 14.6599 2.00999 14.6999 2.00999 14.7299C2.92999 16.5699 4.43 18.0799 6.27 18.9899C6.3 18.9899 6.33999 18.9699 6.37 18.9699C6.02999 17.8099 5.77 16.6199 5.58 15.4299C4.38 15.2299 3.19 14.9699 2.03 14.6299Z" fill="#211B2A"/>
<path opacity="0.4" d="M19.07 6.43042C18.13 4.46042 16.54 2.87043 14.58 1.94043C14.94 3.13043 15.24 4.35043 15.44 5.57043C16.66 5.77043 17.88 6.06042 19.07 6.43042Z" fill="#211B2A"/>
<path opacity="0.4" d="M1.92999 6.42953C3.12999 6.06953 4.35001 5.76955 5.57001 5.56955C5.77001 4.37955 6.02 3.19955 6.36 2.03955C6.33 2.03955 6.28999 2.01953 6.25999 2.01953C4.37999 2.94953 2.84999 4.51954 1.92999 6.42953Z" fill="#211B2A"/>
<path opacity="0.4" d="M13.82 5.36023C13.58 4.06023 13.28 2.76024 12.85 1.50024C12.83 1.43024 12.83 1.37025 12.82 1.29025C12.08 1.11025 11.3 0.990234 10.5 0.990234C9.69 0.990234 8.92 1.10025 8.17 1.29025C8.16 1.36025 8.16999 1.42024 8.14999 1.50024C7.72999 2.76024 7.41999 4.06023 7.17999 5.36023C9.38999 5.12023 11.61 5.12023 13.82 5.36023Z" fill="#211B2A"/>
<path opacity="0.4" d="M5.36 7.17969C4.05 7.41969 2.76 7.71969 1.5 8.14969C1.43 8.16969 1.36999 8.16969 1.28999 8.17969C1.10999 8.91969 0.990005 9.69969 0.990005 10.4997C0.990005 11.3097 1.09999 12.0797 1.28999 12.8297C1.35999 12.8397 1.42 12.8297 1.5 12.8497C2.76 13.2697 4.05 13.5797 5.36 13.8197C5.12 11.6097 5.12 9.38969 5.36 7.17969Z" fill="#211B2A"/>
<path opacity="0.4" d="M19.7 8.17969C19.63 8.17969 19.57 8.16969 19.49 8.14969C18.23 7.72969 16.93 7.41969 15.63 7.17969C15.88 9.38969 15.88 11.6097 15.63 13.8097C16.93 13.5697 18.23 13.2697 19.49 12.8397C19.56 12.8197 19.62 12.8297 19.7 12.8197C19.88 12.0697 20 11.2997 20 10.4897C20 9.69969 19.89 8.92969 19.7 8.17969Z" fill="#211B2A"/>
<path opacity="0.4" d="M7.17999 15.6396C7.41999 16.9496 7.71999 18.2396 8.14999 19.4996C8.16999 19.5696 8.16 19.6296 8.17 19.7096C8.92 19.8896 9.69 20.0096 10.5 20.0096C11.3 20.0096 12.08 19.8996 12.82 19.7096C12.83 19.6396 12.83 19.5796 12.85 19.4996C13.27 18.2396 13.58 16.9496 13.82 15.6396C12.72 15.7596 11.61 15.8496 10.5 15.8496C9.39 15.8396 8.27999 15.7596 7.17999 15.6396Z" fill="#211B2A"/>
<path opacity="0.4" d="M6.94999 6.94961C6.64999 9.30961 6.64999 11.6896 6.94999 14.0596C9.30999 14.3596 11.69 14.3596 14.06 14.0596C14.36 11.6996 14.36 9.31961 14.06 6.94961C11.69 6.64961 9.30999 6.64961 6.94999 6.94961Z" fill="#211B2A"/>
</svg>
