<svg width="24" height="24" viewBox="0 0 24 24" fill="none" xmlns="http://www.w3.org/2000/svg">
<g clip-path="url(#clip0_6502_57786)">
<path d="M22.65 18.1302C22.55 17.7302 22.15 17.4802 21.75 17.5802C21.35 17.6802 21.1 18.0802 21.19 18.4802C21.23 18.6502 21.25 18.8202 21.25 19.0002C21.25 20.2402 20.24 21.2502 19 21.2502C17.76 21.2502 16.75 20.2402 16.75 19.0002C16.75 17.9002 17.54 16.9902 18.59 16.7902C18.49 17.0202 18.5 17.3002 18.66 17.5202C18.81 17.7202 19.04 17.8302 19.27 17.8302C19.42 17.8302 19.58 17.7802 19.71 17.6902L20.88 16.8402C20.89 16.8302 20.89 16.8202 20.9 16.8202C20.91 16.8102 20.92 16.8102 20.93 16.8002C20.96 16.7702 20.98 16.7402 21 16.7002C21.03 16.6602 21.07 16.6302 21.09 16.5802C21.11 16.5402 21.12 16.4902 21.14 16.4502C21.15 16.4002 21.17 16.3602 21.18 16.3102C21.19 16.2602 21.18 16.2202 21.17 16.1702C21.17 16.1202 21.17 16.0702 21.15 16.0202C21.14 15.9702 21.11 15.9302 21.09 15.8902C21.07 15.8502 21.06 15.8102 21.04 15.7802C21.03 15.7702 21.02 15.7702 21.01 15.7602C21 15.7602 21 15.7502 21 15.7402L20 14.5902C19.73 14.2802 19.25 14.2402 18.94 14.5202C18.72 14.7202 18.64 15.0102 18.72 15.2802C16.79 15.4302 15.26 17.0302 15.26 19.0002C15.26 21.0702 16.94 22.7502 19.01 22.7502C21.08 22.7502 22.76 21.0702 22.76 19.0002C22.75 18.7102 22.72 18.4102 22.65 18.1302Z" fill="#211B2A"/>
<path d="M2.03 14.6299C2.03 14.6599 2.01 14.6999 2.01 14.7299C2.93 16.5699 4.43 18.0799 6.27 18.9899C6.3 18.9899 6.34 18.9699 6.37 18.9699C6.03 17.8099 5.77 16.6199 5.58 15.4299C4.38 15.2299 3.19 14.9699 2.03 14.6299Z" fill="#211B2A"/>
<path d="M19.07 6.43043C18.13 4.46043 16.54 2.87043 14.58 1.94043C14.94 3.13043 15.24 4.35043 15.44 5.57043C16.66 5.77043 17.88 6.06043 19.07 6.43043Z" fill="#211B2A"/>
<path d="M1.92999 6.42953C3.12999 6.06953 4.34999 5.76953 5.56999 5.56953C5.76999 4.37953 6.01999 3.19953 6.35999 2.03953C6.32999 2.03953 6.28999 2.01953 6.25999 2.01953C4.37999 2.94953 2.84999 4.51953 1.92999 6.42953Z" fill="#211B2A"/>
<path d="M13.82 5.36C13.58 4.06 13.28 2.76 12.85 1.5C12.83 1.43 12.83 1.37 12.82 1.29C12.08 1.11 11.3 1 10.5 1C9.69 1 8.92 1.11 8.17 1.3C8.16 1.37 8.17 1.43 8.15 1.51C7.73 2.77 7.42 4.06 7.18 5.36C9.39 5.12 11.61 5.12 13.82 5.36Z" fill="#211B2A"/>
<path d="M5.36 7.17969C4.05 7.41969 2.77 7.72969 1.5 8.14969C1.43 8.16969 1.37 8.16969 1.3 8.17969C1.11 8.91969 1 9.69969 1 10.4997C1 11.3097 1.11 12.0797 1.3 12.8297C1.37 12.8397 1.43 12.8297 1.51 12.8497C2.77 13.2697 4.06 13.5797 5.37 13.8197C5.12 11.6097 5.12 9.38969 5.36 7.17969Z" fill="#211B2A"/>
<path d="M19.7 8.17969C19.63 8.17969 19.57 8.16969 19.49 8.14969C18.23 7.72969 16.93 7.41969 15.63 7.17969C15.88 9.38969 15.88 11.6097 15.63 13.8097C16.93 13.5697 18.23 13.2697 19.49 12.8397C19.56 12.8197 19.62 12.8297 19.7 12.8197C19.88 12.0697 20 11.2997 20 10.4897C20 9.69969 19.89 8.92969 19.7 8.17969Z" fill="#211B2A"/>
<path d="M7.18 15.6399C7.42 16.9499 7.72 18.2399 8.15 19.4999C8.17 19.5699 8.16 19.6299 8.17 19.7099C8.92 19.8899 9.69 19.9999 10.5 19.9999C11.3 19.9999 12.08 19.8899 12.82 19.6999C12.83 19.6299 12.83 19.5699 12.85 19.4899C13.27 18.2299 13.58 16.9399 13.82 15.6299C12.72 15.7499 11.61 15.8399 10.5 15.8399C9.39 15.8399 8.28 15.7599 7.18 15.6399Z" fill="#211B2A"/>
<path d="M6.95001 6.94961C6.65001 9.30961 6.65001 11.6896 6.95001 14.0596C9.31001 14.3596 11.69 14.3596 14.06 14.0596C14.36 11.6996 14.36 9.31961 14.06 6.94961C11.69 6.64961 9.31001 6.64961 6.95001 6.94961Z" fill="#211B2A"/>
</g>
<defs>
<clipPath id="clip0_6502_57786">
<rect width="24" height="24" fill="white"/>
</clipPath>
</defs>
</svg>
