<svg width="24" height="24" viewBox="0 0 24 24" fill="none" xmlns="http://www.w3.org/2000/svg">
<path d="M10.42 13.7502C10.29 13.7502 10.16 13.7202 10.04 13.6502C8.86 12.9602 8.13 11.6802 8.13 10.3202C8.13 8.1902 9.86 6.4502 12 6.4502C13.37 6.4502 14.65 7.1802 15.34 8.3702C15.55 8.7302 15.43 9.1902 15.07 9.4002C14.71 9.6102 14.25 9.4902 14.04 9.1302C13.62 8.3902 12.84 7.9402 12 7.9402C10.7 7.9402 9.63 9.0002 9.63 10.3102C9.63 11.1502 10.08 11.9302 10.8 12.3502C11.16 12.5602 11.28 13.0202 11.07 13.3802C10.93 13.6102 10.68 13.7502 10.42 13.7502Z" fill="#211B2A"/>
<path d="M5.98999 18.5601C5.75999 18.5601 5.52999 18.4501 5.37999 18.2501C2.97999 14.9601 2.13999 11.6201 2.88999 8.32007C3.66999 4.89007 6.18999 2.35007 9.62999 1.52007C13.23 0.650071 17.01 1.82007 19.24 4.49007C19.51 4.81007 19.46 5.28007 19.15 5.55007C18.83 5.82007 18.36 5.77007 18.09 5.45007C16.22 3.21007 13.04 2.24007 9.97999 2.97007C7.05999 3.67007 5.00999 5.74007 4.34999 8.64007C3.69999 11.5001 4.44999 14.4301 6.58999 17.3501C6.82999 17.6801 6.75999 18.1501 6.42999 18.4001C6.29999 18.5101 6.13999 18.5601 5.98999 18.5601Z" fill="#211B2A"/>
<path d="M12 22.7603C10.52 22.7603 9.03 22.2003 7.87 21.0903C7.57 20.8003 7.56 20.3303 7.85 20.0303C8.14 19.7303 8.61 19.7203 8.91 20.0103C10.64 21.6803 13.35 21.6803 15.08 20.0103C17.75 17.4403 20.71 13.3803 19.65 8.67026C19.56 8.27026 19.81 7.86026 20.22 7.77026C20.62 7.68026 21.03 7.93026 21.12 8.34026C22.34 13.7303 19.08 18.2503 16.13 21.0903C14.97 22.2003 13.48 22.7603 12 22.7603Z" fill="#211B2A"/>
<path d="M2 22.7504C1.81 22.7504 1.62 22.6804 1.47 22.5304C1.18 22.2404 1.18 21.7604 1.47 21.4704L21.47 1.47043C21.76 1.18043 22.24 1.18043 22.53 1.47043C22.82 1.76043 22.82 2.24043 22.53 2.53043L2.53 22.5304C2.38 22.6804 2.19 22.7504 2 22.7504Z" fill="#211B2A"/>
</svg>
