<svg width="24" height="24" viewBox="0 0 24 24" fill="none" xmlns="http://www.w3.org/2000/svg">
<path opacity="0.4" d="M20.62 8.7C19.58 4.07 15.54 2 12 2C12 2 12 2 11.99 2C8.45999 2 4.42999 4.07 3.37999 8.69C2.19999 13.85 5.35999 18.22 8.21999 20.98C9.27999 22 10.64 22.51 12 22.51C13.36 22.51 14.72 22 15.77 20.98C18.63 18.22 21.79 13.86 20.62 8.7Z" fill="#211B2A"/>
<path d="M10.75 13.7504C10.56 13.7504 10.37 13.6804 10.22 13.5304L8.72 12.0304C8.43 11.7404 8.43 11.2604 8.72 10.9704C9.01 10.6804 9.49 10.6804 9.78 10.9704L10.75 11.9404L14.22 8.47043C14.51 8.18043 14.99 8.18043 15.28 8.47043C15.57 8.76043 15.57 9.24043 15.28 9.53043L11.28 13.5304C11.13 13.6804 10.94 13.7504 10.75 13.7504Z" fill="#211B2A"/>
</svg>
