<svg width="24" height="24" viewBox="0 0 24 24" fill="none" xmlns="http://www.w3.org/2000/svg">
<path opacity="0.4" d="M18.89 5.11L5.78999 18.21C3.89999 15.64 2.53999 12.36 3.37999 8.69C3.89999 6.38 5.17999 4.71 6.75999 3.61C8.33999 2.52 10.23 2 12 2C14.44 2 17.12 2.98 18.89 5.11Z" fill="#211B2A"/>
<path opacity="0.4" d="M15.78 20.98C14.72 22 13.36 22.51 12 22.51C10.64 22.51 9.28001 21.99 8.22002 20.97C7.86002 20.63 7.50001 20.25 7.14001 19.86L20.04 6.95996C20.29 7.49996 20.48 8.06996 20.62 8.69996C21.79 13.86 18.63 18.22 15.78 20.98Z" fill="#211B2A"/>
<path d="M21.77 2.22957C21.47 1.91957 20.99 1.91957 20.69 2.22957L15.02 7.89957L14.3 8.61957C13.76 7.87957 12.91 7.43957 12 7.43957C10.42 7.43957 9.13 8.72957 9.13 10.3096C9.13 11.2096 9.57 12.0596 10.31 12.6096L2.23 20.6896C1.92 20.9896 1.92 21.4696 2.23 21.7696C2.38 21.9196 2.57 21.9996 2.77 21.9996C2.97 21.9996 3.16 21.9196 3.31 21.7696L21.77 3.30957C22.08 3.00957 22.08 2.52957 21.77 2.22957Z" fill="#211B2A"/>
</svg>
