<svg width="24" height="24" viewBox="0 0 24 24" fill="none" xmlns="http://www.w3.org/2000/svg">
<path d="M12 22.76C10.52 22.76 9.02999 22.2 7.86999 21.09C4.91999 18.25 1.65999 13.72 2.88999 8.33C3.99999 3.44 8.26999 1.25 12 1.25C12 1.25 12 1.25 12.01 1.25C15.74 1.25 20.01 3.44 21.12 8.34C22.34 13.73 19.08 18.25 16.13 21.09C14.97 22.2 13.48 22.76 12 22.76ZM12 2.75C9.08999 2.75 5.34999 4.3 4.35999 8.66C3.27999 13.37 6.23999 17.43 8.91999 20C10.65 21.67 13.36 21.67 15.09 20C17.76 17.43 20.72 13.37 19.66 8.66C18.66 4.3 14.91 2.75 12 2.75Z" fill="#211B2A"/>
<path d="M14 13.7104C13.81 13.7104 13.62 13.6404 13.47 13.4904L9.50998 9.53043C9.21998 9.24043 9.21998 8.76043 9.50998 8.47043C9.79998 8.18043 10.28 8.18043 10.57 8.47043L14.53 12.4304C14.82 12.7204 14.82 13.2004 14.53 13.4904C14.38 13.6304 14.19 13.7104 14 13.7104Z" fill="#211B2A"/>
<path d="M10 13.7505C9.81 13.7505 9.62 13.6805 9.47 13.5305C9.18 13.2405 9.18 12.7605 9.47 12.4705L13.43 8.51047C13.72 8.22047 14.2 8.22047 14.49 8.51047C14.78 8.80047 14.78 9.28047 14.49 9.57047L10.53 13.5305C10.38 13.6805 10.19 13.7505 10 13.7505Z" fill="#211B2A"/>
</svg>
