<svg width="24" height="24" viewBox="0 0 24 24" fill="none" xmlns="http://www.w3.org/2000/svg">
<path d="M14.53 12.4197L13.08 10.9697L14.48 9.56969C14.77 9.27969 14.77 8.79969 14.48 8.50969C14.19 8.21969 13.71 8.21969 13.42 8.50969L12.02 9.90969L10.57 8.45969C10.28 8.16969 9.8 8.16969 9.51 8.45969C9.22 8.74969 9.22 9.22969 9.51 9.51969L10.96 10.9697L9.47 12.4597C9.18 12.7497 9.18 13.2297 9.47 13.5197C9.62 13.6697 9.81 13.7397 10 13.7397C10.19 13.7397 10.38 13.6697 10.53 13.5197L12.02 12.0297L13.47 13.4797C13.62 13.6297 13.81 13.6997 14 13.6997C14.19 13.6997 14.38 13.6297 14.53 13.4797C14.82 13.1897 14.82 12.7197 14.53 12.4197Z" fill="#211B2A"/>
<path opacity="0.4" d="M20.62 8.7C19.58 4.07 15.54 2 12 2C12 2 12 2 11.99 2C8.45999 2 4.42999 4.07 3.37999 8.69C2.19999 13.85 5.35999 18.22 8.21999 20.98C9.27999 22 10.64 22.51 12 22.51C13.36 22.51 14.72 22 15.77 20.98C18.63 18.22 21.79 13.86 20.62 8.7Z" fill="#211B2A"/>
</svg>
