<svg width="24" height="24" viewBox="0 0 24 24" fill="none" xmlns="http://www.w3.org/2000/svg">
<path opacity="0.4" d="M8.55998 3.33984V17.6698C8.21998 17.6798 7.87998 17.7598 7.62998 17.9098L5.27998 19.2498C3.63998 20.1898 2.28998 19.4098 2.28998 17.5098V7.77984C2.28998 7.14984 2.73998 6.36984 3.29998 6.04984L7.62998 3.56984C7.87998 3.42984 8.21998 3.34984 8.55998 3.33984Z" fill="#211B2A"/>
<path d="M15.73 6.32994V20.6599C15.38 20.6699 15.04 20.6099 14.77 20.4799L9.52 17.8499C9.25 17.7199 8.91 17.6599 8.56 17.6699V3.33994C8.91 3.32994 9.25 3.38994 9.52 3.51994L14.77 6.14994C15.04 6.27994 15.38 6.33994 15.73 6.32994Z" fill="#211B2A"/>
<path opacity="0.4" d="M22 6.49006V16.2201C22 16.8501 21.55 17.6301 20.99 17.9501L16.66 20.4301C16.41 20.5701 16.07 20.6501 15.73 20.6601V6.33006C16.07 6.32006 16.41 6.24006 16.66 6.09006L19.01 4.75006C20.65 3.81006 22 4.59006 22 6.49006Z" fill="#211B2A"/>
</svg>
