<svg width="24" height="24" viewBox="0 0 24 24" fill="none" xmlns="http://www.w3.org/2000/svg">
<path d="M4.26998 5.48998L3.29998 6.04998C2.74998 6.36998 2.28998 7.14998 2.28998 7.78998V17.52C2.28998 19.42 3.63998 20.2 5.27998 19.26L7.62998 17.92C8.13998 17.63 8.98998 17.6 9.51998 17.87L14.77 20.5C15.3 20.76 16.15 20.74 16.66 20.45L20.99 17.97C21.54 17.65 22 16.87 22 16.23V6.48998C22 4.58998 20.65 3.80998 19.01 4.74998L16.66 6.08998C16.15 6.37998 15.3 6.40998 14.77 6.13998L9.51998 3.51998C8.98998 3.25998 8.13998 3.27998 7.62998 3.56998" stroke="#211B2A" stroke-width="1.5" stroke-linecap="round" stroke-linejoin="round"/>
<path d="M8.56 4V17" stroke="#211B2A" stroke-width="1.5" stroke-linecap="round" stroke-linejoin="round"/>
<path d="M15.73 6.62012V20.0001" stroke="#211B2A" stroke-width="1.5" stroke-linecap="round" stroke-linejoin="round"/>
</svg>
