<svg width="24" height="24" viewBox="0 0 24 24" fill="none" xmlns="http://www.w3.org/2000/svg">
<path opacity="0.4" d="M5.46997 9C7.40297 9 8.96997 7.433 8.96997 5.5C8.96997 3.567 7.40297 2 5.46997 2C3.53697 2 1.96997 3.567 1.96997 5.5C1.96997 7.433 3.53697 9 5.46997 9Z" fill="#211B2A"/>
<path opacity="0.4" d="M17 15H20C21.1 15 22 15.9 22 17V20C22 21.1 21.1 22 20 22H17C15.9 22 15 21.1 15 20V17C15 15.9 15.9 15 17 15Z" fill="#211B2A"/>
<path d="M12 19.75H9.32C8.16 19.75 7.15 19.05 6.75 17.97C6.34 16.89 6.64 15.7 7.51 14.93L15.5 7.94C15.98 7.52 15.99 6.95 15.85 6.56C15.7 6.17 15.32 5.75 14.68 5.75H12C11.59 5.75 11.25 5.41 11.25 5C11.25 4.59 11.59 4.25 12 4.25H14.68C15.84 4.25 16.85 4.95 17.25 6.03C17.66 7.11 17.36 8.3 16.49 9.07L8.5 16.06C8.02 16.48 8.01 17.05 8.15 17.44C8.3 17.83 8.68 18.25 9.32 18.25H12C12.41 18.25 12.75 18.59 12.75 19C12.75 19.41 12.41 19.75 12 19.75Z" fill="#211B2A"/>
<path d="M18.51 19.5C17.96 19.5 17.51 19.05 17.51 18.5C17.51 17.95 17.95 17.5 18.51 17.5H18.52C19.07 17.5 19.52 17.95 19.52 18.5C19.52 19.05 19.07 19.5 18.51 19.5Z" fill="#211B2A"/>
<path d="M5.51001 6.5C4.96001 6.5 4.51001 6.05 4.51001 5.5C4.51001 4.95 4.95001 4.5 5.51001 4.5H5.52001C6.07001 4.5 6.52001 4.95 6.52001 5.5C6.52001 6.05 6.07001 6.5 5.51001 6.5Z" fill="#211B2A"/>
</svg>
