<svg width="24" height="24" viewBox="0 0 24 24" fill="none" xmlns="http://www.w3.org/2000/svg">
<path d="M6.94003 9.41988C6.12003 10.1999 4.83003 10.1899 4.01003 9.41988C2.89003 8.34988 1.60002 6.62988 2.07002 4.59988C2.87002 1.13988 8.08003 1.13988 8.87003 4.59988C8.99003 5.08988 9.00002 5.54988 8.94002 5.99988" stroke="#211B2A" stroke-width="1.5" stroke-linecap="round" stroke-linejoin="round"/>
<path d="M15.07 16.5999C15.87 13.1399 21.11 13.1399 21.91 16.5999C22.38 18.6299 21.09 20.3499 19.96 21.4199C19.14 22.1999 17.84 22.1899 17.02 21.4199C15.89 20.3499 14.6 18.6299 15.07 16.5999Z" stroke="#211B2A" stroke-width="1.5"/>
<path d="M12 5H14.68C16.53 5 17.39 7.29 16 8.51L8.01001 15.5C6.62001 16.71 7.48001 19 9.32001 19H12" stroke="#211B2A" stroke-width="1.5" stroke-linecap="round" stroke-linejoin="round"/>
<path d="M12 5H14.68C16.53 5 17.39 7.29 16 8.51L8.01001 15.5C6.62001 16.71 7.48001 19 9.32001 19H12" stroke="#211B2A" stroke-width="1.5" stroke-linecap="round" stroke-linejoin="round"/>
<path d="M5.48622 5.5H5.49777" stroke="#211B2A" stroke-width="2" stroke-linecap="round" stroke-linejoin="round"/>
<path d="M18.4862 17.5H18.4978" stroke="#211B2A" stroke-width="2" stroke-linecap="round" stroke-linejoin="round"/>
</svg>
