<svg width="24" height="24" viewBox="0 0 24 24" fill="none" xmlns="http://www.w3.org/2000/svg">
<g clip-path="url(#clip0_6502_58287)">
<path d="M8.88003 4.59973C8.08003 1.13973 2.87002 1.12973 2.07002 4.59973C1.60002 6.62973 2.89003 8.34973 4.01003 9.41973C4.83003 10.1897 6.12003 10.1897 6.94003 9.41973C8.06003 8.34973 9.34003 6.62973 8.88003 4.59973ZM5.51003 6.19973C4.96003 6.19973 4.51003 5.74973 4.51003 5.19973C4.51003 4.64973 4.95003 4.19973 5.50003 4.19973H5.51003C6.07003 4.19973 6.51003 4.64973 6.51003 5.19973C6.51003 5.74973 6.07003 6.19973 5.51003 6.19973Z" fill="#211B2A"/>
<path d="M21.91 16.5997C21.11 13.1397 15.88 13.1297 15.07 16.5997C14.6 18.6297 15.89 20.3497 17.02 21.4197C17.84 22.1897 19.14 22.1897 19.96 21.4197C21.09 20.3497 22.38 18.6297 21.91 16.5997ZM18.53 18.1997C17.98 18.1997 17.53 17.7497 17.53 17.1997C17.53 16.6497 17.97 16.1997 18.52 16.1997H18.53C19.08 16.1997 19.53 16.6497 19.53 17.1997C19.53 17.7497 19.08 18.1997 18.53 18.1997Z" fill="#211B2A"/>
<path d="M11.9999 19.75H9.31994C8.15994 19.75 7.14994 19.05 6.74994 17.97C6.33994 16.89 6.63994 15.7 7.50994 14.93L15.4999 7.94C15.9799 7.52 15.9899 6.95 15.8499 6.56C15.6999 6.17 15.3199 5.75 14.6799 5.75H11.9999C11.5899 5.75 11.2499 5.41 11.2499 5C11.2499 4.59 11.5899 4.25 11.9999 4.25H14.6799C15.8399 4.25 16.8499 4.95 17.2499 6.03C17.6599 7.11 17.3599 8.3 16.4899 9.07L8.49994 16.06C8.01994 16.48 8.00994 17.05 8.14994 17.44C8.29994 17.83 8.67994 18.25 9.31994 18.25H11.9999C12.4099 18.25 12.7499 18.59 12.7499 19C12.7499 19.41 12.4099 19.75 11.9999 19.75Z" fill="#211B2A"/>
</g>
<defs>
<clipPath id="clip0_6502_58287">
<rect width="24" height="24" fill="white"/>
</clipPath>
</defs>
</svg>
