<svg width="24" height="24" viewBox="0 0 24 24" fill="none" xmlns="http://www.w3.org/2000/svg">
<path opacity="0.4" d="M8.88003 4.59973C8.08003 1.13973 2.87002 1.12973 2.07002 4.59973C1.60002 6.62973 2.89003 8.34973 4.01003 9.41973C4.83003 10.1897 6.12003 10.1897 6.94003 9.41973C8.06003 8.34973 9.34003 6.62973 8.88003 4.59973ZM5.51003 6.19973C4.96003 6.19973 4.51003 5.74973 4.51003 5.19973C4.51003 4.64973 4.95003 4.19973 5.50003 4.19973H5.51003C6.07003 4.19973 6.51003 4.64973 6.51003 5.19973C6.51003 5.74973 6.07003 6.19973 5.51003 6.19973Z" fill="#211B2A"/>
<path d="M6.51001 5.2002C6.51001 5.7502 6.07001 6.2002 5.51001 6.2002C4.96001 6.2002 4.51001 5.7502 4.51001 5.2002C4.51001 4.6502 4.95001 4.2002 5.50001 4.2002H5.51001C6.07001 4.2002 6.51001 4.6502 6.51001 5.2002Z" fill="#211B2A"/>
<path opacity="0.4" d="M21.91 16.5997C21.11 13.1397 15.88 13.1297 15.07 16.5997C14.6 18.6297 15.89 20.3497 17.02 21.4197C17.84 22.1897 19.14 22.1897 19.96 21.4197C21.09 20.3497 22.38 18.6297 21.91 16.5997ZM18.53 18.1997C17.98 18.1997 17.53 17.7497 17.53 17.1997C17.53 16.6497 17.97 16.1997 18.52 16.1997H18.53C19.08 16.1997 19.53 16.6497 19.53 17.1997C19.53 17.7497 19.08 18.1997 18.53 18.1997Z" fill="#211B2A"/>
<path d="M19.53 17.2002C19.53 17.7502 19.08 18.2002 18.53 18.2002C17.98 18.2002 17.53 17.7502 17.53 17.2002C17.53 16.6502 17.97 16.2002 18.52 16.2002H18.53C19.08 16.2002 19.53 16.6502 19.53 17.2002Z" fill="#211B2A"/>
<path d="M12 19.75H9.32C8.16 19.75 7.15 19.05 6.75 17.97C6.34 16.89 6.64 15.7 7.51 14.93L15.5 7.94C15.98 7.52 15.99 6.95 15.85 6.56C15.7 6.17 15.32 5.75 14.68 5.75H12C11.59 5.75 11.25 5.41 11.25 5C11.25 4.59 11.59 4.25 12 4.25H14.68C15.84 4.25 16.85 4.95 17.25 6.03C17.66 7.11 17.36 8.3 16.49 9.07L8.5 16.06C8.02 16.48 8.01 17.05 8.15 17.44C8.3 17.83 8.68 18.25 9.32 18.25H12C12.41 18.25 12.75 18.59 12.75 19C12.75 19.41 12.41 19.75 12 19.75Z" fill="#211B2A"/>
</svg>
