<svg width="24" height="24" viewBox="0 0 24 24" fill="none" xmlns="http://www.w3.org/2000/svg">
<path d="M5.46997 10.75C4.75997 10.75 4.03997 10.49 3.48997 9.96C1.64997 8.21 0.909972 6.3 1.33997 4.43C1.84997 2.23 3.77997 1.25 5.46997 1.25C7.15997 1.25 9.09997 2.24 9.59997 4.43C10.03 6.3 9.27997 8.21 7.44997 9.96C6.89997 10.49 6.18997 10.75 5.46997 10.75ZM2.79997 4.77C2.41997 6.44 3.52997 7.92 4.52997 8.87C5.05997 9.38 5.88997 9.37 6.41997 8.87C7.41997 7.92 8.52997 6.44 8.13997 4.76C7.79997 3.28 6.48997 2.75 5.47997 2.75C4.45997 2.75 3.14997 3.28 2.79997 4.77Z" fill="#211B2A"/>
<path d="M5.51001 6.2002C4.96001 6.2002 4.51001 5.7502 4.51001 5.2002C4.51001 4.6502 4.95001 4.2002 5.51001 4.2002H5.52001C6.07001 4.2002 6.52001 4.6502 6.52001 5.2002C6.52001 5.7502 6.07001 6.2002 5.51001 6.2002Z" fill="#211B2A"/>
<path d="M18.49 22.7502C17.78 22.7502 17.06 22.4902 16.5 21.9602C14.65 20.2102 13.9 18.3002 14.34 16.4202C14.85 14.2302 16.79 13.2402 18.49 13.2402C20.19 13.2402 22.13 14.2302 22.64 16.4202C23.07 18.2902 22.32 20.2102 20.47 21.9502C19.92 22.4902 19.21 22.7502 18.49 22.7502ZM18.49 14.7502C17.47 14.7502 16.15 15.2802 15.8 16.7702C15.41 18.4402 16.53 19.9302 17.53 20.8802C18.06 21.3902 18.9 21.3902 19.44 20.8802C20.44 19.9302 21.56 18.4502 21.17 16.7802C20.84 15.2802 19.52 14.7502 18.49 14.7502Z" fill="#211B2A"/>
<path d="M18.53 18.2002C17.98 18.2002 17.53 17.7502 17.53 17.2002C17.53 16.6502 17.97 16.2002 18.53 16.2002H18.54C19.09 16.2002 19.54 16.6502 19.54 17.2002C19.54 17.7502 19.08 18.2002 18.53 18.2002Z" fill="#211B2A"/>
<path d="M12 19.75H9.32C8.16 19.75 7.15 19.05 6.75 17.97C6.34 16.89 6.64 15.7 7.51 14.93L15.5 7.94C15.98 7.52 15.99 6.95 15.85 6.56C15.7 6.17 15.32 5.75 14.68 5.75H12C11.59 5.75 11.25 5.41 11.25 5C11.25 4.59 11.59 4.25 12 4.25H14.68C15.84 4.25 16.85 4.95 17.25 6.03C17.66 7.11 17.36 8.3 16.49 9.07L8.5 16.06C8.02 16.48 8.01 17.05 8.15 17.44C8.3 17.83 8.68 18.25 9.32 18.25H12C12.41 18.25 12.75 18.59 12.75 19C12.75 19.41 12.41 19.75 12 19.75Z" fill="#211B2A"/>
<path d="M12 19.75H9.32C8.16 19.75 7.15 19.05 6.75 17.97C6.34 16.89 6.64 15.7 7.51 14.93L15.5 7.94C15.98 7.52 15.99 6.95 15.85 6.56C15.7 6.17 15.32 5.75 14.68 5.75H12C11.59 5.75 11.25 5.41 11.25 5C11.25 4.59 11.59 4.25 12 4.25H14.68C15.84 4.25 16.85 4.95 17.25 6.03C17.66 7.11 17.36 8.3 16.49 9.07L8.5 16.06C8.02 16.48 8.01 17.05 8.15 17.44C8.3 17.83 8.68 18.25 9.32 18.25H12C12.41 18.25 12.75 18.59 12.75 19C12.75 19.41 12.41 19.75 12 19.75Z" fill="#211B2A"/>
</svg>
