<svg width="24" height="24" viewBox="0 0 24 24" fill="none" xmlns="http://www.w3.org/2000/svg">
<path d="M22.001 9.75C21.591 9.75 21.251 9.41 21.251 9V7C21.251 4.42 19.581 2.75 17.001 2.75H7.00098C4.42098 2.75 2.75098 4.42 2.75098 7V9C2.75098 9.41 2.41098 9.75 2.00098 9.75C1.59098 9.75 1.25098 9.41 1.25098 9V7C1.25098 3.56 3.56098 1.25 7.00098 1.25H17.001C20.441 1.25 22.751 3.56 22.751 7V9C22.751 9.41 22.411 9.75 22.001 9.75Z" fill="#211B2A"/>
<path d="M17.001 22.75H7.00098C3.56098 22.75 1.25098 20.44 1.25098 17V15C1.25098 14.59 1.59098 14.25 2.00098 14.25C2.41098 14.25 2.75098 14.59 2.75098 15V17C2.75098 19.58 4.42098 21.25 7.00098 21.25H17.001C19.581 21.25 21.251 19.58 21.251 17V15C21.251 14.59 21.591 14.25 22.001 14.25C22.411 14.25 22.751 14.59 22.751 15V17C22.751 20.44 20.441 22.75 17.001 22.75Z" fill="#211B2A"/>
<path d="M16.4009 8.20996L12.641 6.17996C12.241 5.96996 11.7709 5.96996 11.3709 6.17996L7.60095 8.20996C7.33095 8.35996 7.16095 8.64996 7.16095 8.96996C7.16095 9.29996 7.33095 9.58996 7.60095 9.73996L11.3609 11.77C11.5609 11.88 11.781 11.93 12.0009 11.93C12.2209 11.93 12.441 11.88 12.641 11.77L16.4009 9.73996C16.6709 9.58996 16.841 9.29996 16.841 8.96996C16.841 8.64996 16.6709 8.35996 16.4009 8.20996Z" fill="#211B2A"/>
<path d="M10.741 12.4704L7.24098 10.7204C6.97098 10.5904 6.66098 10.6004 6.40098 10.7604C6.15098 10.9204 6.00098 11.1904 6.00098 11.4904V14.8004C6.00098 15.3704 6.32098 15.8904 6.83098 16.1404L10.331 17.8904C10.451 17.9504 10.581 17.9804 10.721 17.9804C10.881 17.9804 11.031 17.9404 11.171 17.8504C11.431 17.6904 11.581 17.4204 11.581 17.1204V13.8104C11.571 13.2404 11.261 12.7304 10.741 12.4704Z" fill="#211B2A"/>
<path d="M17.591 10.7604C17.331 10.6004 17.021 10.5904 16.751 10.7204L13.251 12.4704C12.741 12.7304 12.421 13.2404 12.421 13.8104V17.1204C12.421 17.4204 12.571 17.6904 12.831 17.8504C12.971 17.9404 13.121 17.9804 13.281 17.9804C13.411 17.9804 13.541 17.9504 13.671 17.8904L17.171 16.1404C17.681 15.8804 18.001 15.3704 18.001 14.8004V11.4904C18.001 11.1904 17.851 10.9204 17.591 10.7604Z" fill="#211B2A"/>
</svg>
