<svg width="24" height="24" viewBox="0 0 24 24" fill="none" xmlns="http://www.w3.org/2000/svg">
<path d="M17.001 2C20.001 2 22.001 4 22.001 7V9" stroke="#211B2A" stroke-width="1.5" stroke-miterlimit="10" stroke-linecap="round" stroke-linejoin="round"/>
<path d="M2.00098 9V7C2.00098 4 4.00098 2 7.00098 2H12.771" stroke="#211B2A" stroke-width="1.5" stroke-miterlimit="10" stroke-linecap="round" stroke-linejoin="round"/>
<path d="M22.0009 15V17C22.0009 20 20.0009 22 17.0009 22H11.4709" stroke="#211B2A" stroke-width="1.5" stroke-miterlimit="10" stroke-linecap="round" stroke-linejoin="round"/>
<path d="M2.00098 15V17C2.00098 20 4.00098 22 7.00098 22" stroke="#211B2A" stroke-width="1.5" stroke-miterlimit="10" stroke-linecap="round" stroke-linejoin="round"/>
<path d="M6.70099 9.25977L12.001 12.3298L17.261 9.27979" stroke="#211B2A" stroke-width="1.5" stroke-linecap="round" stroke-linejoin="round"/>
<path d="M12.001 17.7693V12.3193" stroke="#211B2A" stroke-width="1.5" stroke-linecap="round" stroke-linejoin="round"/>
<path d="M10.761 6.28957L7.56096 8.0696C6.84096 8.4696 6.24097 9.47959 6.24097 10.3096V13.6996C6.24097 14.5296 6.83096 15.5396 7.56096 15.9396L10.761 17.7196C11.441 18.0996 12.561 18.0996 13.251 17.7196L16.451 15.9396C17.171 15.5396 17.771 14.5296 17.771 13.6996V10.3096C17.771 9.47959 17.181 8.4696 16.451 8.0696L13.251 6.28957C12.561 5.89957 11.441 5.89957 10.761 6.28957Z" stroke="#211B2A" stroke-width="1.5" stroke-linecap="round" stroke-linejoin="round"/>
</svg>
