<svg width="24" height="24" viewBox="0 0 24 24" fill="none" xmlns="http://www.w3.org/2000/svg">
<path d="M2.00098 9V7C2.00098 4 4.00098 2 7.00098 2H17.001C20.001 2 22.001 4 22.001 7V9" stroke="#211B2A" stroke-width="1.5" stroke-miterlimit="10" stroke-linecap="round" stroke-linejoin="round"/>
<path d="M2.00098 15V17C2.00098 20 4.00098 22 7.00098 22H17.001C20.001 22 22.001 20 22.001 17V15" stroke="#211B2A" stroke-width="1.5" stroke-miterlimit="10" stroke-linecap="round" stroke-linejoin="round"/>
<g opacity="0.4">
<path d="M6.70117 9.25977L12.0012 12.3298L17.2612 9.27979" stroke="#211B2A" stroke-width="1.5" stroke-linecap="round" stroke-linejoin="round"/>
<path d="M12.001 17.7693V12.3193" stroke="#211B2A" stroke-width="1.5" stroke-linecap="round" stroke-linejoin="round"/>
<path d="M10.7612 6.28957L7.5612 8.0696C6.8412 8.4696 6.24121 9.47959 6.24121 10.3096V13.6996C6.24121 14.5296 6.8312 15.5396 7.5612 15.9396L10.7612 17.7196C11.4412 18.0996 12.5612 18.0996 13.2512 17.7196L16.4512 15.9396C17.1712 15.5396 17.7712 14.5296 17.7712 13.6996V10.3096C17.7712 9.47959 17.1812 8.4696 16.4512 8.0696L13.2512 6.28957C12.5612 5.89957 11.4412 5.89957 10.7612 6.28957Z" stroke="#211B2A" stroke-width="1.5" stroke-linecap="round" stroke-linejoin="round"/>
</g>
</svg>
