<svg width="24" height="24" viewBox="0 0 24 24" fill="none" xmlns="http://www.w3.org/2000/svg">
<path opacity="0.4" d="M22 9.75C21.59 9.75 21.25 9.41 21.25 9V7C21.25 4.42 19.58 2.75 17 2.75H7C4.42 2.75 2.75 4.42 2.75 7V9C2.75 9.41 2.41 9.75 2 9.75C1.59 9.75 1.25 9.41 1.25 9V7C1.25 3.56 3.56 1.25 7 1.25H17C20.44 1.25 22.75 3.56 22.75 7V9C22.75 9.41 22.41 9.75 22 9.75Z" fill="#211B2A"/>
<path opacity="0.4" d="M17 22.75H7C3.56 22.75 1.25 20.44 1.25 17V15C1.25 14.59 1.59 14.25 2 14.25C2.41 14.25 2.75 14.59 2.75 15V17C2.75 19.58 4.42 21.25 7 21.25H17C19.58 21.25 21.25 19.58 21.25 17V15C21.25 14.59 21.59 14.25 22 14.25C22.41 14.25 22.75 14.59 22.75 15V17C22.75 20.44 20.44 22.75 17 22.75Z" fill="#211B2A"/>
<path d="M16.4 8.20999L12.64 6.17996C12.24 5.96996 11.77 5.96996 11.37 6.17996L7.60999 8.20999C7.33999 8.35999 7.16998 8.64995 7.16998 8.97995C7.16998 9.30995 7.33999 9.59997 7.60999 9.74997L11.37 11.78C11.57 11.89 11.79 11.94 12.01 11.94C12.23 11.94 12.45 11.89 12.65 11.78L16.41 9.74997C16.68 9.59997 16.85 9.30995 16.85 8.97995C16.84 8.64995 16.67 8.35999 16.4 8.20999Z" fill="#211B2A"/>
<path d="M10.74 12.4704L7.23999 10.7204C6.96999 10.5904 6.65998 10.6004 6.39998 10.7604C6.13998 10.9204 5.98999 11.1904 5.98999 11.4904V14.8004C5.98999 15.3704 6.30999 15.8904 6.81999 16.1404L10.32 17.8904C10.44 17.9504 10.57 17.9804 10.71 17.9804C10.87 17.9804 11.02 17.9404 11.16 17.8504C11.42 17.6904 11.57 17.4204 11.57 17.1204V13.8104C11.57 13.2404 11.26 12.7304 10.74 12.4704Z" fill="#211B2A"/>
<path d="M17.59 10.7604C17.33 10.6004 17.02 10.5904 16.75 10.7204L13.25 12.4704C12.74 12.7304 12.42 13.2404 12.42 13.8104V17.1204C12.42 17.4204 12.57 17.6904 12.83 17.8504C12.97 17.9404 13.12 17.9804 13.28 17.9804C13.41 17.9804 13.54 17.9504 13.67 17.8904L17.17 16.1404C17.68 15.8804 18 15.3704 18 14.8004V11.4904C18 11.1904 17.85 10.9204 17.59 10.7604Z" fill="#211B2A"/>
</svg>
