<svg width="24" height="24" viewBox="0 0 24 24" fill="none" xmlns="http://www.w3.org/2000/svg">
<path d="M15.001 22.7502C14.731 22.7502 14.481 22.6002 14.351 22.3702C14.221 22.1302 14.221 21.8502 14.361 21.6102L15.411 19.8602C15.621 19.5102 16.081 19.3902 16.441 19.6002C16.801 19.8102 16.911 20.2702 16.701 20.6302L16.431 21.0802C19.191 20.4302 21.261 17.9502 21.261 14.9902C21.261 14.5802 21.601 14.2402 22.011 14.2402C22.421 14.2402 22.761 14.5802 22.761 14.9902C22.751 19.2702 19.271 22.7502 15.001 22.7502Z" fill="#211B2A"/>
<path d="M2.00098 9.75C1.59098 9.75 1.25098 9.41 1.25098 9C1.25098 4.73 4.73098 1.25 9.00098 1.25C9.27098 1.25 9.52098 1.4 9.65098 1.63C9.78098 1.87 9.78098 2.15 9.64098 2.39L8.59098 4.14C8.38098 4.49 7.92098 4.61 7.56098 4.39C7.21098 4.18 7.09098 3.72 7.31098 3.36L7.58098 2.91C4.81098 3.56 2.75098 6.04 2.75098 9C2.75098 9.41 2.41098 9.75 2.00098 9.75Z" fill="#211B2A"/>
<path d="M16.401 8.20996L12.641 6.17996C12.241 5.96996 11.771 5.96996 11.371 6.17996L7.60098 8.20996C7.33098 8.35996 7.16098 8.64996 7.16098 8.96996C7.16098 9.29996 7.33098 9.58996 7.60098 9.73996L11.361 11.77C11.561 11.88 11.781 11.93 12.001 11.93C12.221 11.93 12.441 11.88 12.641 11.77L16.401 9.73996C16.671 9.58996 16.841 9.29996 16.841 8.96996C16.841 8.64996 16.671 8.35996 16.401 8.20996Z" fill="#211B2A"/>
<path d="M10.741 12.4704L7.24098 10.7204C6.97098 10.5904 6.66098 10.6004 6.40098 10.7604C6.15098 10.9204 6.00098 11.1904 6.00098 11.4904V14.8004C6.00098 15.3704 6.32098 15.8904 6.83098 16.1404L10.331 17.8904C10.451 17.9504 10.581 17.9804 10.721 17.9804C10.881 17.9804 11.031 17.9404 11.171 17.8504C11.431 17.6904 11.581 17.4204 11.581 17.1204V13.8104C11.571 13.2404 11.261 12.7304 10.741 12.4704Z" fill="#211B2A"/>
<path d="M17.5909 10.7604C17.3309 10.6004 17.0209 10.5904 16.7509 10.7204L13.2509 12.4704C12.7409 12.7304 12.4209 13.2404 12.4209 13.8104V17.1204C12.4209 17.4204 12.5709 17.6904 12.8309 17.8504C12.9709 17.9404 13.1209 17.9804 13.2809 17.9804C13.4109 17.9804 13.5409 17.9504 13.6709 17.8904L17.1709 16.1404C17.6809 15.8804 18.0009 15.3704 18.0009 14.8004V11.4904C18.0009 11.1904 17.8509 10.9204 17.5909 10.7604Z" fill="#211B2A"/>
</svg>
