<svg width="24" height="24" viewBox="0 0 24 24" fill="none" xmlns="http://www.w3.org/2000/svg">
<path d="M6.70096 9.25977L12.0009 12.3298L17.261 9.27976" stroke="#211B2A" stroke-width="1.5" stroke-linecap="round" stroke-linejoin="round"/>
<path d="M12.001 17.7693V12.3193" stroke="#211B2A" stroke-width="1.5" stroke-linecap="round" stroke-linejoin="round"/>
<path d="M6.23099 10.3001C6.23099 9.47012 6.82096 8.46012 7.55096 8.06012L10.751 6.28012C11.431 5.90012 12.551 5.90012 13.241 6.28012L16.441 8.06012C17.161 8.46012 17.761 9.47012 17.761 10.3001V13.6901C17.761 14.5201 17.171 15.5301 16.441 15.9301L13.241 17.7101C12.561 18.0901 11.441 18.0901 10.751 17.7101L7.55096 15.9301C7.19096 15.7301 6.86097 15.3801 6.62097 14.9701" stroke="#211B2A" stroke-width="1.5" stroke-linecap="round" stroke-linejoin="round"/>
<path d="M22.001 15C22.001 18.87 18.871 22 15.001 22L16.051 20.25" stroke="#211B2A" stroke-width="1.5" stroke-linecap="round" stroke-linejoin="round"/>
<path d="M2.00098 9C2.00098 5.13 5.13098 2 9.00098 2L7.95099 3.75" stroke="#211B2A" stroke-width="1.5" stroke-linecap="round" stroke-linejoin="round"/>
</svg>
