<svg width="24" height="24" viewBox="0 0 24 24" fill="none" xmlns="http://www.w3.org/2000/svg">
<path d="M2.00098 14V15C2.00098 20 4.00098 22 9.00098 22H15.001C20.001 22 22.001 20 22.001 15V9C22.001 4 20.001 2 15.001 2H9.00098C4.00098 2 2.00098 4 2.00098 9" stroke="#211B2A" stroke-width="1.5" stroke-linecap="round" stroke-linejoin="round"/>
<path d="M6.70099 9.25977L12.001 12.3298L17.261 9.27976" stroke="#211B2A" stroke-width="1.5" stroke-linecap="round" stroke-linejoin="round"/>
<path d="M12.001 17.7693V12.3193" stroke="#211B2A" stroke-width="1.5" stroke-linecap="round" stroke-linejoin="round"/>
<path d="M10.761 6.28986L7.56097 8.06986C6.84097 8.46986 6.24097 9.47985 6.24097 10.3099V13.6999C6.24097 14.5299 6.83097 15.5399 7.56097 15.9399L10.761 17.7199C11.441 18.0999 12.561 18.0999 13.251 17.7199L16.451 15.9399C17.171 15.5399 17.771 14.5299 17.771 13.6999V10.2999C17.771 9.46986 17.181 8.45985 16.451 8.05985L13.251 6.27985C12.561 5.89985 11.441 5.89986 10.761 6.28986Z" stroke="#211B2A" stroke-width="1.5" stroke-linecap="round" stroke-linejoin="round"/>
</svg>
