<svg width="24" height="24" viewBox="0 0 24 24" fill="none" xmlns="http://www.w3.org/2000/svg">
<path opacity="0.4" d="M16.19 2.33008H7.82001C4.18001 2.33008 2.01001 4.50008 2.01001 8.14008V16.5101C2.01001 20.1501 4.18001 22.3201 7.82001 22.3201H16.19C19.83 22.3201 22 20.1501 22 16.5101V8.15008C22 4.51008 19.83 2.33008 16.19 2.33008Z" fill="#211B2A"/>
<path d="M16.4 8.20996L12.64 6.17996C12.24 5.96996 11.77 5.96996 11.37 6.17996L7.60999 8.20996C7.33999 8.35996 7.17001 8.64996 7.17001 8.97996C7.17001 9.30996 7.33999 9.59996 7.60999 9.74996L11.37 11.78C11.57 11.89 11.79 11.94 12.01 11.94C12.23 11.94 12.45 11.89 12.65 11.78L16.41 9.74996C16.68 9.59996 16.85 9.30996 16.85 8.97996C16.84 8.64996 16.67 8.35996 16.4 8.20996Z" fill="#211B2A"/>
<path d="M10.74 12.4704L7.23999 10.7204C6.96999 10.5904 6.65999 10.6004 6.39999 10.7604C6.13999 10.9204 5.98999 11.1904 5.98999 11.4904V14.8004C5.98999 15.3704 6.31001 15.8904 6.82001 16.1404L10.32 17.8904C10.44 17.9504 10.57 17.9804 10.71 17.9804C10.87 17.9804 11.02 17.9404 11.16 17.8504C11.42 17.6904 11.57 17.4204 11.57 17.1204V13.8104C11.57 13.2404 11.26 12.7304 10.74 12.4704Z" fill="#211B2A"/>
<path d="M17.59 10.7604C17.33 10.6004 17.02 10.5904 16.75 10.7204L13.25 12.4704C12.74 12.7304 12.42 13.2404 12.42 13.8104V17.1204C12.42 17.4204 12.57 17.6904 12.83 17.8504C12.97 17.9404 13.12 17.9804 13.28 17.9804C13.41 17.9804 13.54 17.9504 13.67 17.8904L17.17 16.1404C17.68 15.8804 18 15.3704 18 14.8004V11.4904C18 11.1904 17.85 10.9204 17.59 10.7604Z" fill="#211B2A"/>
</svg>
