<svg width="24" height="24" viewBox="0 0 24 24" fill="none" xmlns="http://www.w3.org/2000/svg">
<path d="M17.601 5.31027L11.951 2.27027C11.351 1.95027 10.641 1.95027 10.041 2.27027L4.40099 5.31027C3.99099 5.54027 3.73099 5.98027 3.73099 6.46027C3.73099 6.95027 3.98099 7.39027 4.40099 7.61027L10.051 10.6503C10.351 10.8103 10.681 10.8903 11.001 10.8903C11.321 10.8903 11.661 10.8103 11.951 10.6503L17.601 7.61027C18.011 7.39027 18.271 6.95027 18.271 6.46027C18.271 5.98027 18.011 5.54027 17.601 5.31027Z" fill="#211B2A"/>
<path d="M9.12098 11.7106L3.87098 9.09058C3.46098 8.88058 3.00098 8.91058 2.61098 9.14058C2.23098 9.38058 2.00098 9.79058 2.00098 10.2406V15.2006C2.00098 16.0606 2.48098 16.8306 3.25098 17.2206L8.50098 19.8406C8.68098 19.9306 8.88098 19.9806 9.08098 19.9806C9.31098 19.9806 9.55098 19.9106 9.76098 19.7906C10.141 19.5506 10.371 19.1406 10.371 18.6906V13.7306C10.361 12.8706 9.88098 12.1006 9.12098 11.7106Z" fill="#211B2A"/>
<path d="M20.001 10.2406V12.7006C19.521 12.5606 19.011 12.5006 18.501 12.5006C17.141 12.5006 15.811 12.9706 14.761 13.8106C13.321 14.9406 12.501 16.6506 12.501 18.5006C12.501 18.9906 12.561 19.4806 12.691 19.9506C12.541 19.9306 12.391 19.8706 12.251 19.7806C11.871 19.5506 11.641 19.1406 11.641 18.6906V13.7306C11.641 12.8706 12.121 12.1006 12.881 11.7106L18.131 9.09058C18.541 8.88058 19.001 8.91058 19.391 9.14058C19.771 9.38058 20.001 9.79058 20.001 10.2406Z" fill="#211B2A"/>
<path d="M21.981 15.6695C21.161 14.6595 19.911 14.0195 18.501 14.0195C17.441 14.0195 16.461 14.3895 15.691 15.0095C14.651 15.8295 14.001 17.0995 14.001 18.5195C14.001 19.3595 14.241 20.1595 14.651 20.8395C14.921 21.2895 15.261 21.6795 15.661 21.9995H15.671C16.441 22.6395 17.431 23.0195 18.501 23.0195C19.641 23.0195 20.671 22.5995 21.461 21.8995C21.811 21.5995 22.111 21.2395 22.351 20.8395C22.761 20.1595 23.001 19.3595 23.001 18.5195C23.001 17.4395 22.621 16.4395 21.981 15.6695ZM20.761 17.9595L18.361 20.1795C18.221 20.3095 18.031 20.3795 17.851 20.3795C17.661 20.3795 17.471 20.3095 17.321 20.1595L16.211 19.0495C15.921 18.7595 15.921 18.2795 16.211 17.9895C16.501 17.6995 16.981 17.6995 17.271 17.9895L17.871 18.5895L19.741 16.8595C20.041 16.5795 20.521 16.5995 20.801 16.8995C21.091 17.2095 21.071 17.6795 20.761 17.9595Z" fill="#211B2A"/>
</svg>
