<svg width="24" height="24" viewBox="0 0 24 24" fill="none" xmlns="http://www.w3.org/2000/svg">
<path d="M17.601 5.31027L11.951 2.27027C11.351 1.95027 10.641 1.95027 10.041 2.27027L4.40099 5.31027C3.99099 5.54027 3.73099 5.98027 3.73099 6.46027C3.73099 6.95027 3.98099 7.39027 4.40099 7.61027L10.051 10.6503C10.351 10.8103 10.681 10.8903 11.001 10.8903C11.321 10.8903 11.661 10.8103 11.951 10.6503L17.601 7.61027C18.011 7.39027 18.271 6.95027 18.271 6.46027C18.271 5.98027 18.011 5.54027 17.601 5.31027Z" fill="#211B2A"/>
<path d="M9.12098 11.7106L3.87098 9.09058C3.46098 8.88058 3.00098 8.91058 2.61098 9.14058C2.23098 9.38058 2.00098 9.79058 2.00098 10.2406V15.2006C2.00098 16.0606 2.48098 16.8306 3.25098 17.2206L8.50098 19.8406C8.68098 19.9306 8.88098 19.9806 9.08098 19.9806C9.31098 19.9806 9.55098 19.9106 9.76098 19.7906C10.141 19.5506 10.371 19.1406 10.371 18.6906V13.7306C10.361 12.8706 9.88098 12.1006 9.12098 11.7106Z" fill="#211B2A"/>
<path d="M20.001 10.2406V12.7006C19.521 12.5606 19.011 12.5006 18.501 12.5006C17.141 12.5006 15.811 12.9706 14.761 13.8106C13.321 14.9406 12.501 16.6506 12.501 18.5006C12.501 18.9906 12.561 19.4806 12.691 19.9506C12.541 19.9306 12.391 19.8706 12.251 19.7806C11.871 19.5506 11.641 19.1406 11.641 18.6906V13.7306C11.641 12.8706 12.121 12.1006 12.881 11.7106L18.131 9.09058C18.541 8.88058 19.001 8.91058 19.391 9.14058C19.771 9.38058 20.001 9.79058 20.001 10.2406Z" fill="#211B2A"/>
<path d="M21.981 15.65C21.161 14.64 19.911 14 18.501 14C17.441 14 16.461 14.37 15.691 14.99C14.651 15.81 14.001 17.08 14.001 18.5C14.001 19.91 14.641 21.16 15.651 21.98C16.421 22.62 17.421 23 18.501 23C19.641 23 20.671 22.57 21.471 21.88C22.401 21.05 23.001 19.85 23.001 18.5C23.001 17.42 22.621 16.42 21.981 15.65ZM19.531 18.78C19.531 19.04 19.391 19.29 19.171 19.42L17.761 20.26C17.641 20.33 17.511 20.37 17.371 20.37C17.121 20.37 16.871 20.24 16.731 20.01C16.521 19.65 16.631 19.19 16.991 18.98L18.031 18.36V17.1C18.031 16.69 18.371 16.35 18.781 16.35C19.191 16.35 19.531 16.69 19.531 17.1V18.78Z" fill="#211B2A"/>
</svg>
