<svg width="24" height="24" viewBox="0 0 24 24" fill="none" xmlns="http://www.w3.org/2000/svg">
<path d="M12.001 13.2999C11.871 13.2999 11.741 13.2699 11.621 13.1999L2.791 8.08986C2.441 7.87986 2.311 7.41986 2.521 7.05986C2.731 6.69986 3.191 6.57986 3.551 6.78986L12.001 11.6799L20.401 6.81986C20.761 6.60986 21.221 6.73986 21.431 7.08986C21.641 7.44986 21.511 7.90986 21.161 8.11986L12.391 13.1999C12.261 13.2599 12.131 13.2999 12.001 13.2999Z" fill="#211B2A"/>
<path d="M12.001 22.36C11.591 22.36 11.251 22.02 11.251 21.61V12.54C11.251 12.13 11.591 11.79 12.001 11.79C12.411 11.79 12.751 12.13 12.751 12.54V21.61C12.751 22.02 12.411 22.36 12.001 22.36Z" fill="#211B2A"/>
<path d="M12.001 22.75C11.121 22.75 10.251 22.56 9.56099 22.18L4.22099 19.21C2.77099 18.41 1.64099 16.48 1.64099 14.82V9.17C1.64099 7.51 2.77099 5.59 4.22099 4.78L9.56099 1.82C10.931 1.06 13.071 1.06 14.441 1.82L19.781 4.79C21.231 5.59 22.361 7.52 22.361 9.18V14.83C22.361 16.49 21.231 18.41 19.781 19.22L14.441 22.18C13.751 22.56 12.881 22.75 12.001 22.75ZM12.001 2.75C11.371 2.75 10.751 2.88 10.291 3.13L4.95099 6.1C3.99099 6.63 3.14099 8.07 3.14099 9.17V14.82C3.14099 15.92 3.99099 17.36 4.95099 17.9L10.291 20.87C11.201 21.38 12.801 21.38 13.711 20.87L19.051 17.9C20.011 17.36 20.861 15.93 20.861 14.82V9.17C20.861 8.07 20.011 6.63 19.051 6.09L13.711 3.12C13.251 2.88 12.631 2.75 12.001 2.75Z" fill="#211B2A"/>
</svg>
