<svg width="24" height="24" viewBox="0 0 24 24" fill="none" xmlns="http://www.w3.org/2000/svg">
<path d="M17.601 5.31027L11.951 2.27027C11.351 1.95027 10.641 1.95027 10.041 2.27027L4.40096 5.31027C3.99096 5.54027 3.73096 5.98027 3.73096 6.46027C3.73096 6.95027 3.98096 7.39027 4.40096 7.61027L10.051 10.6503C10.351 10.8103 10.681 10.8903 11.001 10.8903C11.321 10.8903 11.661 10.8103 11.951 10.6503L17.601 7.61027C18.011 7.39027 18.271 6.95027 18.271 6.46027C18.271 5.98027 18.011 5.54027 17.601 5.31027Z" fill="#211B2A"/>
<path d="M9.12098 11.7106L3.87098 9.09058C3.46098 8.88058 3.00098 8.91058 2.61098 9.14058C2.23098 9.38058 2.00098 9.79058 2.00098 10.2406V15.2006C2.00098 16.0606 2.48098 16.8306 3.25098 17.2206L8.50098 19.8406C8.68098 19.9306 8.88098 19.9806 9.08098 19.9806C9.31098 19.9806 9.55098 19.9106 9.76098 19.7906C10.141 19.5506 10.371 19.1406 10.371 18.6906V13.7306C10.361 12.8706 9.88098 12.1006 9.12098 11.7106Z" fill="#211B2A"/>
<path d="M20.001 10.2406V12.7006C19.521 12.5606 19.011 12.5006 18.501 12.5006C17.141 12.5006 15.811 12.9706 14.761 13.8106C13.321 14.9406 12.501 16.6506 12.501 18.5006C12.501 18.9906 12.561 19.4806 12.691 19.9506C12.541 19.9306 12.391 19.8706 12.251 19.7806C11.871 19.5506 11.641 19.1406 11.641 18.6906V13.7306C11.641 12.8706 12.121 12.1006 12.881 11.7106L18.131 9.09058C18.541 8.88058 19.001 8.91058 19.391 9.14058C19.771 9.38058 20.001 9.79058 20.001 10.2406Z" fill="#211B2A"/>
<path d="M21.681 15.3197C20.791 14.4297 19.611 13.9797 18.441 13.9997C17.311 14.0097 16.181 14.4597 15.321 15.3197C14.721 15.9097 14.331 16.6497 14.141 17.4197C14.031 17.8397 13.991 18.2697 14.021 18.6997V18.7497C14.021 18.8197 14.031 18.8797 14.041 18.9597C14.041 18.9597 14.041 18.9597 14.051 18.9697V18.9997C14.141 19.9797 14.561 20.9297 15.321 21.6797C16.481 22.8397 18.111 23.2297 19.581 22.8597C20.021 22.7497 20.451 22.5697 20.851 22.3297C21.151 22.1597 21.431 21.9397 21.681 21.6797C22.431 20.9297 22.861 19.9797 22.951 18.9897C22.961 18.9897 22.961 18.9697 22.961 18.9597C22.981 18.8897 22.981 18.8097 22.981 18.7397C22.981 18.7297 22.991 18.7097 22.991 18.6897C23.051 17.4797 22.611 16.2397 21.681 15.3197ZM20.231 20.2097C19.941 20.4997 19.471 20.4997 19.171 20.2097L18.511 19.5497L17.831 20.2297C17.531 20.5297 17.061 20.5297 16.771 20.2297C16.471 19.9397 16.471 19.4697 16.771 19.1697L17.451 18.4897L16.791 17.8297C16.501 17.5297 16.501 17.0597 16.791 16.7697C17.091 16.4697 17.561 16.4697 17.861 16.7697L18.511 17.4297L19.141 16.7897C19.441 16.4997 19.911 16.4997 20.211 16.7897C20.501 17.0897 20.501 17.5597 20.211 17.8597L19.571 18.4897L20.231 19.1397C20.531 19.4397 20.531 19.9097 20.231 20.2097Z" fill="#211B2A"/>
</svg>
