<svg width="24" height="24" viewBox="0 0 24 24" fill="none" xmlns="http://www.w3.org/2000/svg">
<path d="M17.601 5.31027L11.951 2.27027C11.351 1.95027 10.641 1.95027 10.041 2.27027L4.40096 5.31027C3.99096 5.54027 3.73096 5.98027 3.73096 6.46027C3.73096 6.95027 3.98096 7.39027 4.40096 7.61027L10.051 10.6503C10.351 10.8103 10.681 10.8903 11.001 10.8903C11.321 10.8903 11.661 10.8103 11.951 10.6503L17.601 7.61027C18.011 7.39027 18.271 6.95027 18.271 6.46027C18.271 5.98027 18.011 5.54027 17.601 5.31027Z" fill="#211B2A"/>
<path d="M9.12098 11.7106L3.87098 9.09058C3.46098 8.88058 3.00098 8.91058 2.61098 9.14058C2.23098 9.38058 2.00098 9.79058 2.00098 10.2406V15.2006C2.00098 16.0606 2.48098 16.8306 3.25098 17.2206L8.50098 19.8406C8.68098 19.9306 8.88098 19.9806 9.08098 19.9806C9.31098 19.9806 9.55098 19.9106 9.76098 19.7906C10.141 19.5506 10.371 19.1406 10.371 18.6906V13.7306C10.361 12.8706 9.88098 12.1006 9.12098 11.7106Z" fill="#211B2A"/>
<path d="M20.001 10.2406V12.7006C19.521 12.5606 19.011 12.5006 18.501 12.5006C17.141 12.5006 15.811 12.9706 14.761 13.8106C13.321 14.9406 12.501 16.6506 12.501 18.5006C12.501 18.9906 12.561 19.4806 12.691 19.9506C12.541 19.9306 12.391 19.8706 12.251 19.7806C11.871 19.5506 11.641 19.1406 11.641 18.6906V13.7306C11.641 12.8706 12.121 12.1006 12.881 11.7106L18.131 9.09058C18.541 8.88058 19.001 8.91058 19.391 9.14058C19.771 9.38058 20.001 9.79058 20.001 10.2406Z" fill="#211B2A"/>
<path d="M22.001 15.7C22.001 15.69 21.991 15.68 21.981 15.67C21.941 15.61 21.891 15.55 21.841 15.5C21.831 15.49 21.821 15.47 21.811 15.46C21.001 14.56 19.811 14 18.501 14C17.241 14 16.091 14.52 15.271 15.36C14.481 16.17 14.001 17.28 14.001 18.5C14.001 19.34 14.241 20.14 14.651 20.82C14.871 21.19 15.151 21.53 15.471 21.81C15.491 21.82 15.501 21.83 15.511 21.84C15.561 21.89 15.611 21.93 15.671 21.98C15.671 21.98 15.671 21.98 15.681 21.98C15.691 21.99 15.701 22 15.711 22C16.461 22.63 17.431 23 18.501 23C20.141 23 21.571 22.12 22.351 20.82C22.581 20.43 22.761 20 22.871 19.55C22.961 19.21 23.001 18.86 23.001 18.5C23.001 17.44 22.631 16.46 22.001 15.7ZM20.181 19.23H19.251V20.2C19.251 20.61 18.911 20.95 18.501 20.95C18.091 20.95 17.751 20.61 17.751 20.2V19.23H16.821C16.411 19.23 16.071 18.89 16.071 18.48C16.071 18.07 16.411 17.73 16.821 17.73H17.751V16.84C17.751 16.43 18.091 16.09 18.501 16.09C18.911 16.09 19.251 16.43 19.251 16.84V17.73H20.181C20.591 17.73 20.931 18.07 20.931 18.48C20.931 18.89 20.601 19.23 20.181 19.23Z" fill="#211B2A"/>
</svg>
