<svg width="24" height="24" viewBox="0 0 24 24" fill="none" xmlns="http://www.w3.org/2000/svg">
<path opacity="0.4" d="M21.0406 7.19L12.0006 12.42L2.96063 7.19C3.36063 6.45 3.94063 5.8 4.59063 5.44L9.93063 2.48C11.0706 1.84 12.9306 1.84 14.0706 2.48L19.4106 5.44C20.0606 5.8 20.6406 6.45 21.0406 7.19Z" fill="#211B2A"/>
<path opacity="0.6" d="M12.0006 12.4204V22.0004C11.2506 22.0004 10.5006 21.8404 9.93062 21.5204L4.59063 18.5604C3.38063 17.8904 2.39062 16.2104 2.39062 14.8304V9.17043C2.39062 8.53043 2.61062 7.83043 2.96062 7.19043L12.0006 12.4204Z" fill="#211B2A"/>
<path d="M21.6106 9.17043V14.8304C21.6106 16.2104 20.6206 17.8904 19.4106 18.5604L14.0706 21.5204C13.5006 21.8404 12.7506 22.0004 12.0006 22.0004V12.4204L21.0406 7.19043C21.3906 7.83043 21.6106 8.53043 21.6106 9.17043Z" fill="#211B2A"/>
</svg>
