<svg width="24" height="24" viewBox="0 0 24 24" fill="none" xmlns="http://www.w3.org/2000/svg">
<path d="M23.001 18C23.001 18.75 22.791 19.46 22.421 20.06C22.211 20.42 21.941 20.74 21.631 21C20.931 21.63 20.011 22 19.001 22C17.781 22 16.691 21.45 15.971 20.59C15.951 20.56 15.921 20.54 15.901 20.51C15.781 20.37 15.671 20.22 15.581 20.06C15.211 19.46 15.001 18.75 15.001 18C15.001 16.74 15.581 15.61 16.501 14.88C17.191 14.33 18.061 14 19.001 14C20.001 14 20.901 14.36 21.601 14.97C21.721 15.06 21.831 15.17 21.931 15.28C22.591 16 23.001 16.95 23.001 18Z" stroke="#211B2A" stroke-width="1.5" stroke-miterlimit="10" stroke-linecap="round" stroke-linejoin="round"/>
<path d="M20.491 17.9795H17.511" stroke="#211B2A" stroke-width="1.5" stroke-miterlimit="10" stroke-linecap="round" stroke-linejoin="round"/>
<path d="M19.001 16.5195V19.5095" stroke="#211B2A" stroke-width="1.5" stroke-miterlimit="10" stroke-linecap="round" stroke-linejoin="round"/>
<path d="M3.17102 7.44043L12.001 12.5504L20.771 7.4704" stroke="#211B2A" stroke-width="1.5" stroke-linecap="round" stroke-linejoin="round"/>
<path d="M12.001 21.61V12.54" stroke="#211B2A" stroke-width="1.5" stroke-linecap="round" stroke-linejoin="round"/>
<path d="M2.39099 14.83V9.17C2.39099 7.79 3.38099 6.11002 4.59099 5.44002L9.93098 2.48C11.071 1.84 12.931 1.84 14.071 2.48L19.411 5.44002C20.621 6.11002 21.611 7.79 21.611 9.17V14.83C21.611 14.88 21.611 14.92 21.601 14.97C20.901 14.36 20.001 14 19.001 14C18.061 14 17.191 14.33 16.501 14.88C15.581 15.61 15.001 16.74 15.001 18C15.001 18.75 15.211 19.46 15.581 20.06C15.671 20.22 15.781 20.37 15.901 20.51L14.071 21.52C12.931 22.16 11.071 22.16 9.93098 21.52L4.59099 18.56" stroke="#211B2A" stroke-width="1.5" stroke-linecap="round" stroke-linejoin="round"/>
</svg>
