<svg width="24" height="24" viewBox="0 0 24 24" fill="none" xmlns="http://www.w3.org/2000/svg">
<path d="M23.001 17.91C23.021 18.66 22.821 19.37 22.461 19.98C22.261 20.34 21.991 20.6701 21.691 20.9401C21.001 21.5801 20.091 21.9701 19.081 22.0001C17.621 22.0301 16.331 21.2801 15.621 20.1301C15.241 19.5401 15.011 18.8301 15.001 18.0801C14.971 16.8201 15.531 15.6801 16.431 14.9301C17.111 14.3701 17.971 14.0201 18.911 14.0001C21.121 13.9501 22.951 15.7 23.001 17.91Z" stroke="#211B2A" stroke-width="1.5" stroke-miterlimit="10" stroke-linecap="round" stroke-linejoin="round"/>
<path d="M17.441 18.0298L18.451 18.9897L20.541 16.9697" stroke="#211B2A" stroke-width="1.5" stroke-linecap="round" stroke-linejoin="round"/>
<path d="M3.17102 7.44043L12.001 12.5504L20.771 7.4704" stroke="#211B2A" stroke-width="1.5" stroke-linecap="round" stroke-linejoin="round"/>
<path d="M12.001 21.61V12.54" stroke="#211B2A" stroke-width="1.5" stroke-linecap="round" stroke-linejoin="round"/>
<path d="M21.611 9.17V14.83C21.611 14.88 21.611 14.92 21.601 14.97C20.901 14.36 20.001 14 19.001 14C18.061 14 17.191 14.33 16.501 14.88C15.581 15.61 15.001 16.74 15.001 18C15.001 18.75 15.211 19.46 15.581 20.06C15.671 20.22 15.781 20.37 15.901 20.51L14.071 21.52C12.931 22.16 11.071 22.16 9.93097 21.52L4.59097 18.56C3.38097 17.89 2.39099 16.21 2.39099 14.83V9.17C2.39099 7.79 3.38097 6.11002 4.59097 5.44002L9.93097 2.48C11.071 1.84 12.931 1.84 14.071 2.48L19.411 5.44002C20.621 6.11002 21.611 7.79 21.611 9.17Z" stroke="#211B2A" stroke-width="1.5" stroke-linecap="round" stroke-linejoin="round"/>
</svg>
