<svg width="24" height="24" viewBox="0 0 24 24" fill="none" xmlns="http://www.w3.org/2000/svg">
<path d="M21.68 15.3197C20.79 14.4297 19.61 13.9797 18.44 13.9997C17.31 14.0097 16.18 14.4597 15.32 15.3197C14.72 15.9097 14.33 16.6496 14.14 17.4196C14.03 17.8396 13.99 18.2697 14.02 18.6997V18.7497C14.02 18.8197 14.03 18.8797 14.04 18.9597C14.04 18.9597 14.04 18.9596 14.05 18.9696V18.9997C14.14 19.9797 14.56 20.9297 15.32 21.6797C16.48 22.8397 18.11 23.2296 19.58 22.8596C20.02 22.7496 20.45 22.5697 20.85 22.3297C21.15 22.1597 21.43 21.9397 21.68 21.6797C22.43 20.9297 22.86 19.9797 22.95 18.9897C22.96 18.9897 22.96 18.9697 22.96 18.9597C22.98 18.8897 22.98 18.8097 22.98 18.7397C22.98 18.7297 22.99 18.7097 22.99 18.6897C23.05 17.4797 22.61 16.2397 21.68 15.3197ZM20.23 20.2097C19.94 20.4997 19.47 20.4997 19.17 20.2097L18.51 19.5496L17.83 20.2296C17.53 20.5296 17.06 20.5296 16.77 20.2296C16.47 19.9396 16.47 19.4696 16.77 19.1696L17.45 18.4897L16.79 17.8297C16.5 17.5297 16.5 17.0597 16.79 16.7697C17.09 16.4697 17.56 16.4697 17.86 16.7697L18.51 17.4297L19.14 16.7896C19.44 16.4996 19.91 16.4996 20.21 16.7896C20.5 17.0896 20.5 17.5596 20.21 17.8596L19.57 18.4897L20.23 19.1397C20.53 19.4397 20.53 19.9097 20.23 20.2097Z" fill="#211B2A"/>
<path opacity="0.4" d="M19.35 5.65995L13.06 2.27C12.4 1.91 11.6 1.91 10.93 2.27L4.64005 5.65995C4.18005 5.90995 3.90002 6.39998 3.90002 6.93998C3.90002 7.47998 4.18005 7.96995 4.64005 8.21995L10.93 11.61C11.26 11.79 11.63 11.88 11.99 11.88C12.35 11.88 12.72 11.79 13.05 11.61L19.34 8.21995C19.8 7.96995 20.08 7.47998 20.08 6.93998C20.1 6.39998 19.81 5.90995 19.35 5.65995Z" fill="#211B2A"/>
<path opacity="0.4" d="M9.89996 12.7904L4.04996 9.86038C3.59996 9.63038 3.07996 9.66037 2.64996 9.92037C2.21996 10.1804 1.96997 10.6404 1.96997 11.1404V16.6704C1.96997 17.6304 2.49995 18.4904 3.35995 18.9204L9.20996 21.8404C9.40996 21.9404 9.62998 21.9904 9.84998 21.9904C10.11 21.9904 10.37 21.9204 10.6 21.7704C11.03 21.5104 11.28 21.0504 11.28 20.5504V15.0204C11.29 14.0804 10.76 13.2204 9.89996 12.7904Z" fill="#211B2A"/>
<path opacity="0.4" d="M22.03 11.1497V15.7396C22.02 15.7296 22.01 15.7097 22 15.6997C22 15.6897 21.99 15.6796 21.98 15.6696C21.94 15.6096 21.89 15.5496 21.84 15.4996C21.83 15.4896 21.82 15.4697 21.81 15.4597C21 14.5597 19.81 13.9996 18.5 13.9996C17.24 13.9996 16.09 14.5196 15.27 15.3596C14.48 16.1696 14 17.2796 14 18.4996C14 19.3396 14.24 20.1397 14.65 20.8197C14.82 21.1097 15.03 21.3696 15.26 21.6096L14.79 21.8496C14.59 21.9496 14.37 21.9996 14.15 21.9996C13.89 21.9996 13.63 21.9297 13.39 21.7797C12.97 21.5197 12.71 21.0596 12.71 20.5596V15.0396C12.71 14.0796 13.24 13.2196 14.1 12.7896L19.95 9.86964C20.4 9.63964 20.92 9.65964 21.35 9.92964C21.77 10.1896 22.03 10.6497 22.03 11.1497Z" fill="#211B2A"/>
</svg>
