<svg width="24" height="24" viewBox="0 0 24 24" fill="none" xmlns="http://www.w3.org/2000/svg">
<path d="M15.001 22.75C14.731 22.75 14.481 22.6 14.351 22.37C14.221 22.14 14.221 21.85 14.361 21.62L15.411 19.87C15.621 19.51 16.081 19.4 16.441 19.61C16.801 19.82 16.911 20.28 16.701 20.64L16.431 21.09C19.191 20.44 21.261 17.96 21.261 15C21.261 14.59 21.601 14.25 22.011 14.25C22.421 14.25 22.761 14.59 22.761 15C22.751 19.27 19.271 22.75 15.001 22.75Z" fill="#211B2A"/>
<path d="M2.00098 9.75C1.59098 9.75 1.25098 9.41 1.25098 9C1.25098 4.73 4.73098 1.25 9.00098 1.25C9.27098 1.25 9.52098 1.4 9.65098 1.63C9.78098 1.86 9.78098 2.15 9.64098 2.38L8.59098 4.14C8.38098 4.49 7.92098 4.61 7.56098 4.39C7.21098 4.18 7.09098 3.72 7.31098 3.36L7.58098 2.91C4.81098 3.56 2.75098 6.04 2.75098 9C2.75098 9.41 2.41098 9.75 2.00098 9.75Z" fill="#211B2A"/>
<path d="M10.671 13.8504L7.531 12.1604C7.201 11.9804 6.801 11.9804 6.471 12.1604L3.331 13.8504C3.101 13.9704 2.961 14.2204 2.961 14.4904C2.961 14.7604 3.101 15.0104 3.331 15.1304L6.471 16.8204C6.641 16.9104 6.821 16.9504 7.001 16.9504C7.181 16.9504 7.361 16.9104 7.531 16.8204L10.671 15.1304C10.901 15.0104 11.041 14.7604 11.041 14.4904C11.041 14.2204 10.891 13.9804 10.671 13.8504Z" fill="#211B2A"/>
<path d="M5.95098 17.4096L3.03098 15.9496C2.81098 15.8396 2.55098 15.8496 2.33098 15.9796C2.13098 16.1096 2.00098 16.3396 2.00098 16.5896V19.3496C2.00098 19.8296 2.26098 20.2596 2.69098 20.4696L5.61098 21.9296C5.71098 21.9696 5.82098 21.9996 5.93098 21.9996C6.06098 21.9996 6.19098 21.9596 6.31098 21.8896C6.52098 21.7596 6.65098 21.5296 6.65098 21.2796V18.5196C6.65098 18.0496 6.38098 17.6196 5.95098 17.4096Z" fill="#211B2A"/>
<path d="M11.661 15.9796C11.451 15.8496 11.191 15.8396 10.961 15.9496L8.04095 17.4096C7.61095 17.6196 7.35095 18.0496 7.35095 18.5296V21.2896C7.35095 21.5396 7.48095 21.7696 7.69095 21.8996C7.81095 21.9596 7.94095 21.9996 8.07095 21.9996C8.18095 21.9996 8.29095 21.9696 8.39095 21.9196L11.311 20.4596C11.741 20.2496 12.001 19.8196 12.001 19.3396V16.5796C12.001 16.3396 11.871 16.1096 11.661 15.9796Z" fill="#211B2A"/>
<path d="M20.671 3.82988L17.531 2.13988C17.201 1.95988 16.801 1.95988 16.471 2.13988L13.331 3.82988C13.101 3.94988 12.961 4.19988 12.961 4.46988C12.961 4.73988 13.101 4.98988 13.331 5.10988L16.471 6.79988C16.641 6.88988 16.821 6.92988 17.001 6.92988C17.181 6.92988 17.361 6.88988 17.531 6.79988L20.671 5.10988C20.901 4.98988 21.041 4.73988 21.041 4.46988C21.041 4.18988 20.891 3.94988 20.671 3.82988Z" fill="#211B2A"/>
<path d="M15.951 7.38035L13.031 5.92035C12.811 5.81035 12.551 5.82035 12.331 5.95035C12.131 6.08035 12.001 6.31035 12.001 6.56035V9.32035C12.001 9.80035 12.261 10.2304 12.691 10.4404L15.611 11.9004C15.711 11.9504 15.821 11.9804 15.931 11.9804C16.061 11.9804 16.191 11.9404 16.311 11.8704C16.521 11.7404 16.651 11.5104 16.651 11.2604V8.50035C16.651 8.02035 16.381 7.59035 15.951 7.38035Z" fill="#211B2A"/>
<path d="M21.661 5.95035C21.451 5.82035 21.191 5.81035 20.961 5.92035L18.041 7.38035C17.611 7.59035 17.351 8.02035 17.351 8.50035V11.2604C17.351 11.5104 17.481 11.7404 17.691 11.8704C17.811 11.9404 17.941 11.9804 18.071 11.9804C18.181 11.9804 18.291 11.9504 18.391 11.9004L21.311 10.4404C21.741 10.2204 22.001 9.79035 22.001 9.32035V6.56035C22.001 6.31035 21.871 6.08035 21.661 5.95035Z" fill="#211B2A"/>
</svg>
