<svg width="24" height="24" viewBox="0 0 24 24" fill="none" xmlns="http://www.w3.org/2000/svg">
<path d="M21.501 15.5C21.781 15.5 22.001 15.72 22.001 16V17C22.001 18.66 20.661 20 19.001 20C19.001 18.35 17.651 17 16.001 17C14.351 17 13.001 18.35 13.001 20H11.001C11.001 18.35 9.65098 17 8.00098 17C6.35098 17 5.00098 18.35 5.00098 20C3.34098 20 2.00098 18.66 2.00098 17V15C2.00098 14.45 2.45098 14 3.00098 14H12.501C13.881 14 15.001 12.88 15.001 11.5V6C15.001 5.45 15.451 5 16.001 5H16.841C17.561 5 18.221 5.39 18.581 6.01L19.221 7.13C19.311 7.29 19.191 7.5 19.001 7.5C17.621 7.5 16.501 8.62 16.501 10V13C16.501 14.38 17.621 15.5 19.001 15.5H21.501Z" fill="#211B2A"/>
<path d="M8.00098 22C9.10555 22 10.001 21.1046 10.001 20C10.001 18.8954 9.10555 18 8.00098 18C6.89641 18 6.00098 18.8954 6.00098 20C6.00098 21.1046 6.89641 22 8.00098 22Z" fill="#211B2A"/>
<path d="M16.001 22C17.1055 22 18.001 21.1046 18.001 20C18.001 18.8954 17.1055 18 16.001 18C14.8964 18 14.001 18.8954 14.001 20C14.001 21.1046 14.8964 22 16.001 22Z" fill="#211B2A"/>
<path d="M22.001 12.53V14H19.001C18.451 14 18.001 13.55 18.001 13V10C18.001 9.45 18.451 9 19.001 9H20.291L21.741 11.54C21.911 11.84 22.001 12.18 22.001 12.53Z" fill="#211B2A"/>
<path d="M13.081 1.98047H5.69098C3.65098 1.98047 2.00098 3.63047 2.00098 5.67047V12.0605C2.00098 12.6105 2.45098 13.0605 3.00098 13.0605H12.151C13.171 13.0605 14.001 12.2305 14.001 11.2105V2.90047C14.001 2.39047 13.591 1.98047 13.081 1.98047ZM9.60098 9.10047C9.45098 9.24047 9.26098 9.31047 9.07098 9.31047C8.88098 9.31047 8.69098 9.24047 8.54098 9.10047L8.01098 8.57047L7.46098 9.12047C7.31098 9.27047 7.12098 9.34047 6.93098 9.34047C6.74098 9.34047 6.55098 9.27047 6.40098 9.12047C6.11098 8.83047 6.11098 8.35047 6.40098 8.06047L6.95098 7.51047L6.42098 6.98047C6.13098 6.69047 6.13098 6.21047 6.42098 5.92047C6.72098 5.63047 7.19098 5.63047 7.49098 5.92047L8.01098 6.45047L8.51098 5.94047C8.81098 5.65047 9.28098 5.65047 9.58098 5.94047C9.87098 6.24047 9.87098 6.71047 9.58098 7.01047L9.07098 7.51047L9.60098 8.03047C9.89098 8.33047 9.89098 8.80047 9.60098 9.10047Z" fill="#211B2A"/>
</svg>
