<svg width="24" height="24" viewBox="0 0 24 24" fill="none" xmlns="http://www.w3.org/2000/svg">
<path d="M14.13 11.34C14.52 9.70003 13.09 8.27003 11.45 8.66003C10.68 8.85003 10.05 9.48003 9.86001 10.25C9.47001 11.89 10.9 13.32 12.54 12.93C13.32 12.74 13.95 12.11 14.13 11.34Z" fill="#211B2A"/>
<path d="M6.01999 17.97C5.83999 17.97 5.64999 17.9 5.50999 17.77C3.56999 15.97 2.45999 13.43 2.45999 10.79C2.45999 5.53 6.73999 1.25 12 1.25C17.26 1.25 21.54 5.53 21.54 10.79C21.54 13.45 20.47 15.91 18.53 17.74C18.23 18.02 17.75 18.01 17.47 17.71C17.19 17.41 17.2 16.93 17.5 16.65C19.14 15.11 20.04 13.04 20.04 10.8C20.04 6.37 16.43 2.76 12 2.76C7.56999 2.76 3.95999 6.37 3.95999 10.8C3.95999 13.06 4.86999 15.14 6.52999 16.68C6.82999 16.96 6.84999 17.44 6.56999 17.74C6.41999 17.89 6.21999 17.97 6.01999 17.97Z" fill="#211B2A"/>
<path d="M16 15.3001C15.82 15.3001 15.63 15.2301 15.49 15.1001C15.19 14.8201 15.17 14.3401 15.46 14.0401C16.29 13.1601 16.75 12.0001 16.75 10.8001C16.75 8.18006 14.62 6.06006 12.01 6.06006C9.39999 6.06006 7.26999 8.19006 7.26999 10.8001C7.26999 12.0101 7.72999 13.1601 8.55999 14.0401C8.83999 14.3401 8.82999 14.8201 8.52999 15.1001C8.22999 15.3901 7.74999 15.3701 7.46999 15.0701C6.37999 13.9101 5.76999 12.3901 5.76999 10.8001C5.76999 7.36006 8.56999 4.56006 12.01 4.56006C15.45 4.56006 18.25 7.36006 18.25 10.8001C18.25 12.3901 17.65 13.9101 16.55 15.0701C16.4 15.2201 16.2 15.3001 16 15.3001Z" fill="#211B2A"/>
<path d="M10.3 16.66L8.86001 18.45C7.72001 19.88 8.74001 22 10.56 22H13.43C15.26 22 16.28 19.88 15.13 18.46L13.69 16.67C12.83 15.57 11.17 15.57 10.3 16.66Z" fill="#211B2A"/>
</svg>
