<svg width="24" height="24" viewBox="0 0 24 24" fill="none" xmlns="http://www.w3.org/2000/svg">
<path opacity="0.4" d="M14.13 11.3401C14.52 9.70008 13.09 8.27003 11.45 8.66003C10.68 8.85003 10.05 9.48005 9.85998 10.2501C9.46998 11.8901 10.9 13.32 12.54 12.93C13.32 12.74 13.95 12.1101 14.13 11.3401Z" stroke="#211B2A" stroke-width="1.5" stroke-linecap="round" stroke-linejoin="round"/>
<path d="M18.01 17.19C19.72 15.59 20.79 13.32 20.79 10.79C20.79 5.92998 16.85 2 12 2C7.15002 2 3.21002 5.93998 3.21002 10.79C3.21002 13.33 4.29002 15.62 6.02002 17.22" stroke="#211B2A" stroke-width="1.5" stroke-linecap="round" stroke-linejoin="round"/>
<path opacity="0.4" d="M8.00002 14.55C7.08002 13.57 6.51001 12.25 6.51001 10.79C6.51001 7.76004 8.97002 5.30005 12 5.30005C15.03 5.30005 17.49 7.76004 17.49 10.79C17.49 12.25 16.92 13.56 16 14.55" stroke="#211B2A" stroke-width="1.5" stroke-linecap="round" stroke-linejoin="round"/>
<path opacity="0.4" d="M10.3 16.66L8.86001 18.4501C7.72001 19.8801 8.73 21.99 10.56 21.99H13.43C15.26 21.99 16.28 19.8701 15.13 18.4501L13.69 16.66C12.83 15.57 11.17 15.57 10.3 16.66Z" stroke="#211B2A" stroke-width="1.5" stroke-linecap="round" stroke-linejoin="round"/>
</svg>
