<svg width="24" height="24" viewBox="0 0 24 24" fill="none" xmlns="http://www.w3.org/2000/svg">
<path d="M14.13 11.3401C14.52 9.70008 13.09 8.27003 11.45 8.66003C10.68 8.85003 10.05 9.48005 9.85998 10.2501C9.46998 11.8901 10.9 13.32 12.54 12.93C13.32 12.74 13.95 12.1101 14.13 11.3401Z" stroke="#211B2A" stroke-width="1.5" stroke-linecap="round" stroke-linejoin="round"/>
<path d="M18.01 17.19C19.72 15.59 20.79 13.32 20.79 10.79C20.79 5.92998 16.85 2 12 2C7.15002 2 3.21002 5.93998 3.21002 10.79C3.21002 13.33 4.29002 15.62 6.02002 17.22" stroke="#211B2A" stroke-width="1.5" stroke-linecap="round" stroke-linejoin="round"/>
<path d="M8.00002 14.5498C7.08002 13.5698 6.51001 12.2498 6.51001 10.7898C6.51001 7.75979 8.97002 5.2998 12 5.2998C15.03 5.2998 17.49 7.75979 17.49 10.7898C17.49 12.2498 16.92 13.5598 16 14.5498" stroke="#211B2A" stroke-width="1.5" stroke-linecap="round" stroke-linejoin="round"/>
<path d="M10.3 16.6598L8.86001 18.4498C7.72001 19.8798 8.73 21.9898 10.56 21.9898H13.43C15.26 21.9898 16.28 19.8698 15.13 18.4498L13.69 16.6598C12.83 15.5698 11.17 15.5698 10.3 16.6598Z" stroke="#211B2A" stroke-width="1.5" stroke-linecap="round" stroke-linejoin="round"/>
</svg>
