<svg width="24" height="24" viewBox="0 0 24 24" fill="none" xmlns="http://www.w3.org/2000/svg">
<path opacity="0.4" d="M12 22C17.5228 22 22 17.5228 22 12C22 6.47715 17.5228 2 12 2C6.47715 2 2 6.47715 2 12C2 17.5228 6.47715 22 12 22Z" fill="#211B2A"/>
<path fill-rule="evenodd" clip-rule="evenodd" d="M12.1187 6.00216C12.6994 5.72427 13.2668 6.01769 13.6101 6.30377L15.6682 8.02214C15.6687 8.02256 15.6692 8.02298 15.6697 8.02341C16.3051 8.5507 16.3364 9.48518 15.7138 10.0455L13.5768 12.0049L15.7138 13.9644C16.3364 14.5247 16.3051 15.4591 15.6697 15.9864C15.6692 15.9869 15.6687 15.9873 15.6682 15.9877L13.6107 17.7056L13.609 17.707C13.2658 17.992 12.7037 18.276 12.1283 18.0067C11.5514 17.7367 11.41 17.121 11.41 16.6699V13.9918L9.09684 16.1127C8.79154 16.3927 8.31711 16.3721 8.03717 16.0668C7.75724 15.7615 7.7778 15.2871 8.0831 15.0071L11.3573 12.0049L8.0831 9.00274C7.7778 8.7228 7.75724 8.24837 8.03717 7.94307C8.31711 7.63777 8.79154 7.61721 9.09684 7.89714L11.41 10.0181V7.33993C11.41 6.89698 11.544 6.27721 12.1187 6.00216ZM12.91 13.4286L14.5699 14.9506L12.91 16.3366V13.4286ZM12.91 10.5813V7.6733L14.5699 9.05926L12.91 10.5813Z" fill="#211B2A"/>
</svg>
