<svg width="24" height="24" viewBox="0 0 24 24" fill="none" xmlns="http://www.w3.org/2000/svg">
<path opacity="0.4" d="M16.19 2H7.82001C4.18001 2 2.01001 4.17 2.01001 7.81V16.18C2.01001 19.82 4.18001 21.99 7.82001 21.99H16.19C19.83 21.99 22 19.82 22 16.18V7.81C22 4.17 19.83 2 16.19 2Z" fill="#211B2A"/>
<path d="M12.08 18.9999C11.85 18.9999 11.67 18.9399 11.57 18.8899C11.34 18.7799 10.8 18.4299 10.8 17.4499V14.0599L7.89996 16.7099C7.59996 16.9899 7.11996 16.9699 6.83996 16.6599C6.55996 16.3499 6.57998 15.8799 6.88998 15.5999L10.8 12.0199V11.9399L6.88998 8.39992C6.57998 8.11992 6.55996 7.64992 6.83996 7.33992C7.11996 7.02992 7.58996 7.00992 7.89996 7.28992L10.8 9.93992V6.54993C10.8 5.56993 11.34 5.20992 11.57 5.10992C11.8 4.99992 12.42 4.81992 13.17 5.44992L15.58 7.45993C15.91 7.72993 16.1 8.11992 16.11 8.52992C16.12 8.93992 15.95 9.33993 15.64 9.62993L13.05 11.9999L15.64 14.3699C15.95 14.6599 16.13 15.0599 16.12 15.4699C16.11 15.8799 15.92 16.2699 15.59 16.5399L13.18 18.5499C12.75 18.8999 12.37 18.9999 12.08 18.9999ZM12.3 13.2999V17.3199L14.61 15.3899L12.3 13.2999ZM12.3 6.67991V10.6399L14.61 8.51993L12.3 6.67991Z" fill="#211B2A"/>
<path d="M6.62 13.3801C5.86 13.3801 5.23999 12.7601 5.23999 12.0001C5.23999 11.2401 5.86 10.6201 6.62 10.6201C7.38 10.6201 8 11.2401 8 12.0001C8 12.7601 7.38 13.3801 6.62 13.3801ZM6.62 11.8801C6.55 11.8801 6.5 11.9401 6.5 12.0001C6.5 12.1401 6.75 12.1401 6.75 12.0001C6.75 11.9301 6.69 11.8801 6.62 11.8801Z" fill="#211B2A"/>
<path d="M17.38 13.3801C16.62 13.3801 16 12.7601 16 12.0001C16 11.2401 16.62 10.6201 17.38 10.6201C18.14 10.6201 18.76 11.2401 18.76 12.0001C18.76 12.7601 18.13 13.3801 17.38 13.3801ZM17.38 11.8801C17.31 11.8801 17.26 11.9401 17.26 12.0001C17.26 12.1401 17.51 12.1401 17.51 12.0001C17.5 11.9301 17.44 11.8801 17.38 11.8801Z" fill="#211B2A"/>
</svg>
