<svg width="24" height="24" viewBox="0 0 24 24" fill="none" xmlns="http://www.w3.org/2000/svg">
<path opacity="0.4" d="M16.19 2H7.82001C4.18001 2 2.01001 4.17 2.01001 7.81V16.18C2.01001 19.82 4.18001 21.99 7.82001 21.99H16.19C19.83 21.99 22 19.82 22 16.18V7.81C22 4.17 19.83 2 16.19 2Z" fill="#211B2A"/>
<path d="M12.71 19.0299C12.48 19.0299 12.3 18.9699 12.2 18.9199C11.97 18.8099 11.43 18.4499 11.43 17.4699V14.0499L8.51002 16.7299C8.21002 17.0099 7.73002 16.9899 7.45002 16.6799C7.17002 16.3699 7.19001 15.8999 7.50001 15.6199L11.43 12.0199V11.9399L7.50001 8.3799C7.19001 8.0999 7.17002 7.6299 7.45002 7.3199C7.73002 7.0199 8.21002 6.9899 8.51002 7.2699L11.43 9.94989V6.52989C11.43 5.54989 11.97 5.18989 12.2 5.07989C12.43 4.96989 13.05 4.78989 13.8 5.41989L16.22 7.43989C16.55 7.70989 16.74 8.1099 16.75 8.5199C16.76 8.9299 16.59 9.32989 16.27 9.61989L13.66 12.0099L16.27 14.3999C16.58 14.6899 16.76 15.0899 16.75 15.4999C16.74 15.9099 16.55 16.2999 16.22 16.5799L13.8 18.5999C13.38 18.9399 13 19.0299 12.71 19.0299ZM12.93 13.2999V17.3599L15.26 15.4099L12.93 13.2999ZM12.93 6.63989V10.6399L15.26 8.49989L12.93 6.63989Z" fill="#211B2A"/>
</svg>
