<svg width="24" height="24" viewBox="0 0 24 24" fill="none" xmlns="http://www.w3.org/2000/svg">
<path opacity="0.4" d="M5.5 12C5.5 8.41 8.41 5.5 12 5.5C15.59 5.5 18.5 8.41 18.5 12C18.5 14.08 17.52 15.94 16 17.13H15.99C14.89 17.99 13.51 18.5 12 18.5C10.51 18.5 9.14 18 8.04 17.15H8.03C6.49 15.96 5.5 14.1 5.5 12Z" fill="#211B2A"/>
<path d="M8.03003 17.1499H8.04003C9.14003 17.9999 10.51 18.4999 12 18.4999C13.51 18.4999 14.89 17.9899 15.99 17.1299H16L15.49 19.5999C15 21.4999 13.9 21.9999 12.55 21.9999H11.46C10.11 21.9999 9.00003 21.4999 8.52003 19.5899L8.03003 17.1499Z" fill="#211B2A"/>
<path d="M8.03003 6.85H8.04003C9.14003 6 10.51 5.5 12 5.5C13.51 5.5 14.89 6.01 15.99 6.87H16L15.49 4.4C15 2.5 13.9 2 12.55 2H11.46C10.11 2 9.00003 2.5 8.52003 4.41L8.03003 6.85Z" fill="#211B2A"/>
<path d="M13.4 14.5999C13.21 14.5999 13.02 14.5299 12.87 14.3799L11.47 12.9799C11.33 12.8399 11.25 12.6499 11.25 12.4499V9.65991C11.25 9.24991 11.59 8.90991 12 8.90991C12.41 8.90991 12.75 9.24991 12.75 9.65991V12.1399L13.93 13.3199C14.22 13.6099 14.22 14.0899 13.93 14.3799C13.78 14.5299 13.59 14.5999 13.4 14.5999Z" fill="#211B2A"/>
</svg>
