<svg width="24" height="24" viewBox="0 0 24 24" fill="none" xmlns="http://www.w3.org/2000/svg">
<path opacity="0.4" d="M20.27 17.1901C19.27 18.1001 17.98 18.6001 16.63 18.5901H16.54C16.84 17.9701 17 17.2701 17 16.5301C17 13.7701 14.76 11.5301 12 11.5301C9.23999 11.5301 6.99999 13.7701 6.99999 16.5301C6.99999 17.2701 7.16001 17.9701 7.46001 18.5901H5.53997C0.859968 18.2601 0.859968 11.4501 5.53997 11.1201H5.59002C2.38002 2.19014 15.92 -1.37986 17.47 8.00014C21.8 8.55014 23.55 14.3201 20.27 17.1901Z" fill="#211B2A"/>
<path d="M12 11.5298C9.24 11.5298 7 13.7698 7 16.5298C7 17.2698 7.16002 17.9698 7.46002 18.5898C7.54002 18.7698 7.62998 18.9398 7.72998 19.0998C8.58998 20.5498 10.18 21.5298 12 21.5298C13.82 21.5298 15.41 20.5498 16.27 19.0998C16.37 18.9398 16.46 18.7698 16.54 18.5898C16.84 17.9698 17 17.2698 17 16.5298C17 13.7698 14.76 11.5298 12 11.5298ZM14.07 16.0998L11.94 18.0698C11.8 18.1998 11.61 18.2698 11.43 18.2698C11.24 18.2698 11.05 18.1998 10.9 18.0498L9.90997 17.0598C9.61997 16.7698 9.61997 16.2898 9.90997 15.9998C10.2 15.7098 10.68 15.7098 10.97 15.9998L11.45 16.4798L13.05 14.9998C13.36 14.7198 13.83 14.7398 14.11 15.0398C14.39 15.3398 14.37 15.8098 14.07 16.0998Z" fill="#211B2A"/>
</svg>
