<svg width="24" height="24" viewBox="0 0 24 24" fill="none" xmlns="http://www.w3.org/2000/svg">
<path d="M12 11.5298C9.24 11.5298 7 13.7698 7 16.5298C7 17.2698 7.16 17.9698 7.46 18.5898C7.54 18.7698 7.63 18.9398 7.73 19.0998C8.59 20.5498 10.18 21.5298 12 21.5298C13.82 21.5298 15.41 20.5498 16.27 19.0998C16.37 18.9398 16.46 18.7698 16.54 18.5898C16.84 17.9698 17 17.2698 17 16.5298C17 13.7698 14.76 11.5298 12 11.5298ZM14.07 16.0998L11.94 18.0698C11.8 18.1998 11.61 18.2698 11.43 18.2698C11.24 18.2698 11.05 18.1998 10.9 18.0498L9.91 17.0598C9.62 16.7698 9.62 16.2898 9.91 15.9998C10.2 15.7098 10.68 15.7098 10.97 15.9998L11.45 16.4798L13.05 14.9998C13.36 14.7198 13.83 14.7398 14.11 15.0398C14.39 15.3398 14.37 15.8098 14.07 16.0998Z" fill="#211B2A"/>
<path d="M20.2 17.07C19.84 17.39 19.45 17.66 19.03 17.88C18.67 18.06 18.31 17.71 18.37 17.31C18.41 17.02 18.43 16.72 18.43 16.41C18.43 12.83 15.51 9.91003 11.93 9.91003C8.35001 9.91003 5.43001 12.83 5.43001 16.41C5.43001 16.87 5.48001 17.31 5.57001 17.74C5.64001 18.09 5.37001 18.44 5.02001 18.35C1.07001 17.39 1.05001 11.31 5.47001 11H5.52001C2.31001 2.07003 15.85 -1.49997 17.4 7.88003C21.73 8.43003 23.48 14.2 20.2 17.07Z" fill="#211B2A"/>
</svg>
