<svg width="24" height="24" viewBox="0 0 24 24" fill="none" xmlns="http://www.w3.org/2000/svg">
<path d="M5.54 11.1201C0.859999 11.4501 0.859999 18.2601 5.54 18.5901H7.46" stroke="#211B2A" stroke-width="1.5" stroke-miterlimit="10" stroke-linecap="round" stroke-linejoin="round"/>
<path d="M17.47 8C21.8 8.55 23.55 14.32 20.27 17.19C19.27 18.1 17.98 18.6 16.63 18.59H16.54" stroke="#211B2A" stroke-width="1.5" stroke-miterlimit="10" stroke-linecap="round" stroke-linejoin="round"/>
<path d="M5.59 11.1202C3.06 4.09022 10.92 0.380226 15.13 3.70023" stroke="#211B2A" stroke-width="1.5" stroke-miterlimit="10" stroke-linecap="round" stroke-linejoin="round"/>
<path d="M12.97 17.61L10.86 15.5" stroke="#211B2A" stroke-width="1.5" stroke-miterlimit="10" stroke-linecap="round" stroke-linejoin="round"/>
<path d="M12.95 15.52L10.83 17.64" stroke="#211B2A" stroke-width="1.5" stroke-miterlimit="10" stroke-linecap="round" stroke-linejoin="round"/>
<path d="M17 16.5298C17 17.2698 16.84 17.9698 16.54 18.5898C16.46 18.7698 16.37 18.9398 16.27 19.0998C15.41 20.5498 13.82 21.5298 12 21.5298C10.18 21.5298 8.59 20.5498 7.73 19.0998C7.63 18.9398 7.54 18.7698 7.46 18.5898C7.16 17.9698 7 17.2698 7 16.5298C7 13.7698 9.24 11.5298 12 11.5298C14.76 11.5298 17 13.7698 17 16.5298Z" stroke="#211B2A" stroke-width="1.5" stroke-miterlimit="10" stroke-linecap="round" stroke-linejoin="round"/>
</svg>
