<svg width="24" height="24" viewBox="0 0 24 24" fill="none" xmlns="http://www.w3.org/2000/svg">
<path opacity="0.4" d="M20 9V11.92L19.22 11.47C18.58 11.1 17.78 11.21 17.26 11.71C17.15 11.81 17.06 11.93 16.98 12.06L16.92 12.17C16.81 12.36 16.72 12.41 16.71 12.42C16.69 12.41 16.59 12.36 16.48 12.16L16.42 12.06C16.2 11.68 15.85 11.42 15.43 11.31C15 11.19 14.56 11.25 14.19 11.47L13.28 12C12.87 12.23 12.58 12.61 12.46 13.06C12.34 13.52 12.4 13.99 12.63 14.4C12.74 14.58 12.74 14.69 12.74 14.71C12.73 14.72 12.63 14.78 12.41 14.78C11.44 14.78 10.65 15.57 10.65 16.53V17.47C10.65 18.43 11.44 19.22 12.41 19.22C12.63 19.22 12.73 19.28 12.73 19.29C12.74 19.3 12.74 19.42 12.63 19.6C12.56 19.73 12.5 19.86 12.47 20H9C6.24 20 4 17.76 4 15V9C4 6.24 6.24 4 9 4H15C17.76 4 20 6.24 20 9Z" fill="#211B2A"/>
<path d="M17.26 9.74023V11.7102C17.15 11.8102 17.06 11.9302 16.98 12.0602L16.92 12.1702C16.81 12.3602 16.72 12.4102 16.71 12.4202C16.69 12.4102 16.59 12.3602 16.48 12.1602L16.42 12.0602C16.2 11.6802 15.85 11.4202 15.43 11.3102C15 11.1902 14.56 11.2502 14.19 11.4702L13.28 12.0002C12.87 12.2302 12.58 12.6102 12.46 13.0602C12.34 13.5202 12.4 13.9902 12.63 14.4002C12.74 14.5802 12.74 14.6902 12.74 14.7102C12.73 14.7202 12.63 14.7802 12.41 14.7802C11.44 14.7802 10.65 15.5702 10.65 16.5302V17.2602H9.73999C8.08999 17.2602 6.73999 15.9102 6.73999 14.2602V9.74023C6.73999 8.09023 8.08999 6.74023 9.73999 6.74023H14.26C15.91 6.74023 17.26 8.09023 17.26 9.74023Z" fill="#211B2A"/>
<path d="M9.06 2.75V4H9C8.5 4 8.02 4.07 7.56 4.21V2.75C7.56 2.34 7.89 2 8.31 2C8.72 2 9.06 2.34 9.06 2.75Z" fill="#211B2A"/>
<path d="M12.75 2.75V4H11.25V2.75C11.25 2.34 11.59 2 12 2C12.41 2 12.75 2.34 12.75 2.75Z" fill="#211B2A"/>
<path d="M16.45 2.75V4.21C15.99 4.07 15.5 4 15 4H14.95V2.75C14.95 2.34 15.29 2 15.7 2C16.11 2 16.45 2.34 16.45 2.75Z" fill="#211B2A"/>
<path d="M22 8.2998C22 8.7198 21.67 9.0498 21.25 9.0498H20V8.9998C20 8.4998 19.93 8.0098 19.79 7.5498H21.25C21.67 7.5498 22 7.8898 22 8.2998Z" fill="#211B2A"/>
<path d="M9.06 20V21.25C9.06 21.66 8.72 22 8.31 22C7.89 22 7.56 21.66 7.56 21.25V19.79C8.02 19.93 8.5 20 9 20H9.06Z" fill="#211B2A"/>
<path d="M4.21 7.5498C4.07 8.0098 4 8.4998 4 8.9998V9.0498H2.75C2.34 9.0498 2 8.7198 2 8.2998C2 7.8898 2.34 7.5498 2.75 7.5498H4.21Z" fill="#211B2A"/>
<path d="M4 11.25V12.75H2.75C2.34 12.75 2 12.41 2 12C2 11.58 2.34 11.25 2.75 11.25H4Z" fill="#211B2A"/>
<path d="M4.21 16.4502H2.75C2.34 16.4502 2 16.1102 2 15.7002C2 15.2802 2.34 14.9502 2.75 14.9502H4V15.0002C4 15.5002 4.07 15.9902 4.21 16.4502Z" fill="#211B2A"/>
<path opacity="0.4" d="M20.99 15.53C20.31 15.53 19.92 15.19 19.92 14.69C19.92 14.49 19.98 14.26 20.12 14.02C20.4 13.54 20.23 12.92 19.75 12.65L18.84 12.12C18.42 11.87 17.88 12.02 17.63 12.44L17.57 12.54C17.09 13.37 16.31 13.37 15.83 12.54L15.77 12.44C15.53 12.02 14.98 11.87 14.57 12.12L13.65 12.65C13.33 12.83 13.14 13.17 13.14 13.52C13.14 13.69 13.19 13.86 13.28 14.02C13.42 14.26 13.49 14.49 13.49 14.69C13.49 15.19 13.09 15.53 12.41 15.53C11.86 15.53 11.4 15.98 11.4 16.53V17.47C11.4 18.02 11.86 18.47 12.41 18.47C13.09 18.47 13.49 18.81 13.49 19.31C13.49 19.51 13.42 19.74 13.28 19.98C13 20.46 13.17 21.08 13.65 21.35L14.57 21.88C14.98 22.13 15.53 21.98 15.77 21.56L15.83 21.46C16.31 20.63 17.09 20.63 17.57 21.46L17.63 21.56C17.88 21.98 18.42 22.13 18.84 21.88L19.75 21.35C20.07 21.17 20.26 20.83 20.26 20.48C20.26 20.31 20.21 20.14 20.12 19.98C19.98 19.74 19.92 19.51 19.92 19.31C19.92 18.81 20.31 18.47 20.99 18.47C21.55 18.47 22 18.02 22 17.47V16.53C22 15.98 21.55 15.53 20.99 15.53ZM16.7 18.72C15.75 18.72 14.98 17.95 14.98 17C14.98 16.05 15.75 15.28 16.7 15.28C17.65 15.28 18.42 16.05 18.42 17C18.42 17.95 17.65 18.72 16.7 18.72Z" fill="#211B2A"/>
<path d="M18.42 16.9998C18.42 17.9498 17.65 18.7198 16.7 18.7198C15.75 18.7198 14.98 17.9498 14.98 16.9998C14.98 16.0498 15.75 15.2798 16.7 15.2798C17.65 15.2798 18.42 16.0498 18.42 16.9998Z" fill="#211B2A"/>
</svg>
