<svg width="24" height="24" viewBox="0 0 24 24" fill="none" xmlns="http://www.w3.org/2000/svg">
<path opacity="0.4" d="M17 22H7C4.8 22 3 20.2 3 18V6C3 3.8 4.8 2 7 2H17C19.2 2 21 3.8 21 6V18C21 20.2 19.2 22 17 22Z" fill="#211B2A"/>
<path d="M16.25 11H7.75C6.79 11 6 10.21 6 9.25V6.75C6 5.79 6.79 5 7.75 5H16.25C17.21 5 18 5.79 18 6.75V9.25C18 10.21 17.21 11 16.25 11Z" fill="#211B2A"/>
<path d="M10.86 17.0797L10.21 16.4297L10.83 15.8097C11.12 15.5197 11.12 15.0397 10.83 14.7497C10.54 14.4597 10.06 14.4597 9.76999 14.7497L9.15 15.3697L8.56 14.7798C8.27 14.4898 7.79 14.4898 7.5 14.7798C7.21 15.0698 7.21 15.5498 7.5 15.8398L8.09 16.4297L7.47 17.0497C7.18 17.3397 7.18 17.8197 7.47 18.1097C7.62 18.2597 7.81 18.3297 8 18.3297C8.19 18.3297 8.38 18.2597 8.53 18.1097L9.15 17.4897L9.79999 18.1397C9.94999 18.2897 10.14 18.3597 10.33 18.3597C10.52 18.3597 10.71 18.2897 10.86 18.1397C11.15 17.8497 11.15 17.3697 10.86 17.0797Z" fill="#211B2A"/>
<path d="M16.51 16.3301C15.96 16.3301 15.5 15.8801 15.5 15.3301C15.5 14.7801 15.94 14.3301 16.49 14.3301H16.51C17.06 14.3301 17.51 14.7801 17.51 15.3301C17.51 15.8801 17.06 16.3301 16.51 16.3301Z" fill="#211B2A"/>
<path d="M14.49 18.49C13.94 18.49 13.49 18.05 13.49 17.5V17.48C13.49 16.93 13.94 16.48 14.49 16.48C15.04 16.48 15.49 16.93 15.49 17.48C15.49 18.03 15.04 18.49 14.49 18.49Z" fill="#211B2A"/>
</svg>
