<svg width="24" height="24" viewBox="0 0 24 24" fill="none" xmlns="http://www.w3.org/2000/svg">
<path d="M5.57 22.6998C3.23 22.6998 1.25 20.7198 1.25 18.3798V12.2198C1.2 9.2998 2.28 6.5498 4.3 4.4898C6.32 2.4398 9.03 1.2998 11.95 1.2998C17.91 1.2998 22.75 6.14981 22.75 12.0998V18.2598C22.75 20.6398 20.81 22.5798 18.43 22.5798C16.09 22.5798 14.11 20.5998 14.11 18.2598V15.4498C14.11 13.9998 15.25 12.8598 16.7 12.8598C18.15 12.8598 19.29 13.9998 19.29 15.4498V18.4798C19.29 18.8898 18.95 19.2298 18.54 19.2298C18.13 19.2298 17.79 18.8898 17.79 18.4798V15.4498C17.79 14.7698 17.24 14.3598 16.7 14.3598C16.02 14.3598 15.61 14.9098 15.61 15.4498V18.2598C15.61 19.7898 16.9 21.0798 18.43 21.0798C19.96 21.0798 21.25 19.7898 21.25 18.2598V12.0998C21.25 6.9698 17.08 2.7998 11.95 2.7998C9.44 2.7998 7.11 3.7698 5.37 5.5398C3.63 7.3098 2.7 9.6798 2.75 12.1998V18.3798C2.75 19.9098 4.04 21.1998 5.57 21.1998C7.1 21.1998 8.39 19.9098 8.39 18.3798V15.5698C8.39 14.8898 7.84 14.4798 7.3 14.4798C6.62 14.4798 6.21 15.0298 6.21 15.5698V18.4898C6.21 18.8998 5.87 19.2398 5.46 19.2398C5.05 19.2398 4.71 18.8998 4.71 18.4898V15.5698C4.71 14.1198 5.85 12.9798 7.3 12.9798C8.75 12.9798 9.89 14.1198 9.89 15.5698V18.3798C9.89 20.7198 7.91 22.6998 5.57 22.6998Z" fill="#211B2A"/>
</svg>
