<svg width="24" height="24" viewBox="0 0 24 24" fill="none" xmlns="http://www.w3.org/2000/svg">
<path opacity="0.4" d="M18.21 14.69H5.79C4.13001 14.69 3.13001 13.38 3.57001 11.78L5.77 3.7C6.02 2.77 7.03 2 7.99001 2H16.01C16.97 2 17.98 2.77 18.23 3.7L20.43 11.78C20.87 13.38 19.87 14.69 18.21 14.69Z" fill="#211B2A"/>
<path d="M16.75 21.2499C16.75 21.6599 16.41 21.9999 16 21.9999H8C7.59 21.9999 7.25 21.6599 7.25 21.2499C7.25 20.8399 7.59 20.4999 8 20.4999H11.25V14.6899H12.75V20.4999H16C16.41 20.4999 16.75 20.8399 16.75 21.2499Z" fill="#211B2A"/>
</svg>
