<svg width="24" height="24" viewBox="0 0 24 24" fill="none" xmlns="http://www.w3.org/2000/svg">
<path d="M14.04 4.51996L11.83 5.99997L15.03 10.78L20.69 6.98996C21.26 6.60996 21.41 5.82996 21.03 5.26996L19.21 2.55996C18.83 1.98996 18.05 1.83997 17.49 2.21997" stroke="#211B2A" stroke-width="1.5" stroke-linecap="round" stroke-linejoin="round"/>
<path d="M12.1738 6.47932L7.39616 9.6792L9.95607 13.5013L14.7337 10.3015L12.1738 6.47932Z" stroke="#211B2A" stroke-width="1.5" stroke-linecap="round" stroke-linejoin="round"/>
<path d="M5.83 15.8999L9.78 13.2599L7.54 9.91992L3.59 12.5599C3.13 12.8699 3.01 13.4899 3.32 13.9499L4.45 15.6299C4.75 16.0799 5.37 16.1999 5.83 15.8999Z" stroke="#211B2A" stroke-width="1.5" stroke-linecap="round" stroke-linejoin="round"/>
<path d="M12.05 12.2L7.56 21.9999" stroke="#211B2A" stroke-width="1.5" stroke-linecap="round" stroke-linejoin="round"/>
<path d="M12 12.2L16.44 21.9999" stroke="#211B2A" stroke-width="1.5" stroke-linecap="round" stroke-linejoin="round"/>
</svg>
