<svg width="24" height="24" viewBox="0 0 24 24" fill="none" xmlns="http://www.w3.org/2000/svg">
<path d="M15.03 10.7702L20.69 6.98022C21.26 6.60022 21.41 5.82022 21.03 5.26022L19.21 2.5502C18.83 1.9802 18.05 1.8302 17.49 2.2102L11.83 6.00021L15.03 10.7702Z" stroke="#211B2A" stroke-width="1.5" stroke-linecap="round" stroke-linejoin="round"/>
<path d="M12.1738 6.47932L7.39616 9.6792L9.95607 13.5013L14.7337 10.3015L12.1738 6.47932Z" stroke="#211B2A" stroke-width="1.5" stroke-linecap="round" stroke-linejoin="round"/>
<path d="M5.83 15.9004L9.78 13.2604L7.54 9.92041L3.59 12.5604C3.13 12.8704 3.01 13.4904 3.32 13.9504L4.45 15.6304C4.75 16.0804 5.37 16.2004 5.83 15.9004Z" stroke="#211B2A" stroke-width="1.5" stroke-linecap="round" stroke-linejoin="round"/>
<path d="M12.05 12.2002L7.56 22.0002" stroke="#211B2A" stroke-width="1.5" stroke-linecap="round" stroke-linejoin="round"/>
<path d="M12 12.2002L16.44 22.0002" stroke="#211B2A" stroke-width="1.5" stroke-linecap="round" stroke-linejoin="round"/>
</svg>
