<svg width="24" height="24" viewBox="0 0 24 24" fill="none" xmlns="http://www.w3.org/2000/svg">
<path opacity="0.4" d="M2 9V8C2 5.24 4.24 3 7 3H17C19.76 3 22 5.24 22 8V16C22 18.76 19.76 21 17 21H16H7C4.24 21 2 18.76 2 16V9Z" fill="#211B2A"/>
<path d="M16.14 15.44C15.77 15.44 15.45 15.16 15.4 14.79C14.97 11.41 12.51 8.95003 9.13001 8.52003C8.72001 8.47003 8.43 8.09001 8.48 7.68001C8.53 7.27001 8.91001 6.98002 9.32001 7.03002C13.39 7.55002 16.36 10.52 16.89 14.6C16.94 15.01 16.65 15.39 16.24 15.44C16.21 15.44 16.18 15.44 16.14 15.44Z" fill="#211B2A"/>
<path d="M13.44 16.3C13.07 16.3 12.75 16.02 12.7 15.65C12.39 13.27 10.66 11.53 8.27001 11.22C7.86001 11.17 7.57 10.79 7.62 10.38C7.67 9.96998 8.05001 9.67997 8.46001 9.72997C11.54 10.13 13.79 12.37 14.19 15.46C14.24 15.87 13.95 16.25 13.54 16.3C13.51 16.3 13.47 16.3 13.44 16.3Z" fill="#211B2A"/>
<path d="M10.39 16.81C10.02 16.81 9.7 16.53 9.65 16.16C9.52 15.14 8.78 14.4 7.76 14.27C7.35 14.22 7.06001 13.84 7.11001 13.43C7.16001 13.02 7.54 12.73 7.95 12.78C9.64 13 10.92 14.28 11.14 15.97C11.19 16.38 10.9 16.76 10.49 16.81C10.46 16.81 10.42 16.81 10.39 16.81Z" fill="#211B2A"/>
</svg>
