<svg width="24" height="24" viewBox="0 0 24 24" fill="none" xmlns="http://www.w3.org/2000/svg">
<path d="M5.47997 18.4898V15.5698C5.47997 14.5998 6.23996 13.7298 7.31996 13.7298C8.28996 13.7298 9.15996 14.4898 9.15996 15.5698V18.3798C9.15996 20.3298 7.53995 21.9498 5.58995 21.9498C3.63995 21.9498 2.01994 20.3198 2.01994 18.3798V12.2198C1.90994 6.59979 6.34996 2.0498 11.97 2.0498C17.59 2.0498 22.0199 6.5998 22.0199 12.1098V18.2698C22.0199 20.2198 20.4 21.8398 18.45 21.8398C16.5 21.8398 14.88 20.2198 14.88 18.2698V15.4598C14.88 14.4898 15.64 13.6198 16.72 13.6198C17.69 13.6198 18.56 14.3798 18.56 15.4598V18.4898" stroke="#211B2A" stroke-width="1.5" stroke-linecap="round" stroke-linejoin="round"/>
<path d="M15.53 9.11999H14.72C14.5 9.11999 14.29 9.25 14.19 9.44L13.44 10.94C13.33 11.16 13.02 11.16 12.91 10.94L11.07 7.27002C10.96 7.06002 10.66 7.05001 10.55 7.26001L9.70996 8.80999C9.60996 8.99999 9.40997 9.11999 9.18997 9.11999H8.45996" stroke="#211B2A" stroke-width="1.5" stroke-linecap="round" stroke-linejoin="round"/>
</svg>
