<svg width="24" height="24" viewBox="0 0 24 24" fill="none" xmlns="http://www.w3.org/2000/svg">
<path d="M2.01994 12.2198C1.90994 6.59979 6.34996 2.0498 11.97 2.0498C17.59 2.0498 22.0199 6.5998 22.0199 12.1098V18.2698C22.0199 20.2198 20.4 21.8398 18.45 21.8398C16.5 21.8398 14.88 20.2198 14.88 18.2698V15.4598C14.88 14.4898 15.64 13.6198 16.72 13.6198C17.69 13.6198 18.56 14.3798 18.56 15.4598V18.4898" stroke="#211B2A" stroke-width="1.5" stroke-linecap="round" stroke-linejoin="round"/>
<path d="M5.48004 18.49V15.57C5.48004 14.6 6.24004 13.73 7.32004 13.73C8.29004 13.73 9.16003 14.49 9.16003 15.57V18.38C9.16003 20.33 7.54003 21.95 5.59003 21.95C3.64003 21.95 2.02002 20.32 2.02002 18.38V16.01" stroke="#211B2A" stroke-width="1.5" stroke-linecap="round" stroke-linejoin="round"/>
<path d="M11.54 8.19L11.08 7.27002C10.97 7.06002 10.67 7.05001 10.56 7.26001L9.71997 8.80999C9.61997 8.99999 9.41998 9.11999 9.19998 9.11999H8.46997" stroke="#211B2A" stroke-width="1.5" stroke-linecap="round" stroke-linejoin="round"/>
<path d="M15.53 9.12012H14.72C14.5 9.12012 14.29 9.25012 14.19 9.44012L13.44 10.9401C13.33 11.1601 13.02 11.1601 12.91 10.9401" stroke="#211B2A" stroke-width="1.5" stroke-linecap="round" stroke-linejoin="round"/>
</svg>
