<svg width="24" height="24" viewBox="0 0 24 24" fill="none" xmlns="http://www.w3.org/2000/svg">
<path d="M13.18 11.8601C12.78 11.8601 12.42 11.6401 12.25 11.2801L10.8 8.39013L10.38 9.17009C10.15 9.60009 9.68998 9.87011 9.19998 9.87011H8.46997C8.05997 9.87011 7.71997 9.53011 7.71997 9.12011C7.71997 8.71011 8.05997 8.37011 8.46997 8.37011H9.10995L9.89996 6.91008C10.09 6.57008 10.47 6.3401 10.83 6.3601C11.22 6.3601 11.57 6.5901 11.75 6.9301L13.18 9.79009L13.52 9.10009C13.75 8.64009 14.2 8.3601 14.72 8.3601H15.53C15.94 8.3601 16.28 8.7001 16.28 9.1101C16.28 9.5201 15.94 9.8601 15.53 9.8601H14.82L14.11 11.2701C13.93 11.6401 13.58 11.8601 13.18 11.8601Z" fill="#211B2A"/>
<path opacity="0.4" d="M2.75 18.6498C2.34 18.6498 2 18.3098 2 17.8998V12.1998C1.95 9.48983 2.96 6.92983 4.84 5.00983C6.72 3.09983 9.24001 2.0498 11.95 2.0498C17.49 2.0498 22 6.55979 22 12.0998V17.7998C22 18.2098 21.66 18.5498 21.25 18.5498C20.84 18.5498 20.5 18.2098 20.5 17.7998V12.0998C20.5 7.38979 16.67 3.5498 11.95 3.5498C9.64001 3.5498 7.50001 4.43981 5.91001 6.05981C4.31001 7.68981 3.46 9.85981 3.5 12.1798V17.8898C3.5 18.3098 3.17 18.6498 2.75 18.6498Z" fill="#211B2A"/>
<path d="M5.94 12.4497H5.81C3.71 12.4497 2 14.1597 2 16.2597V18.1397C2 20.2397 3.71 21.9497 5.81 21.9497H5.94C8.04 21.9497 9.75 20.2397 9.75 18.1397V16.2597C9.75 14.1597 8.04 12.4497 5.94 12.4497Z" fill="#211B2A"/>
<path d="M18.19 12.4497H18.06C15.96 12.4497 14.25 14.1597 14.25 16.2597V18.1397C14.25 20.2397 15.96 21.9497 18.06 21.9497H18.19C20.29 21.9497 22 20.2397 22 18.1397V16.2597C22 14.1597 20.29 12.4497 18.19 12.4497Z" fill="#211B2A"/>
</svg>
