<svg width="24" height="24" viewBox="0 0 24 24" fill="none" xmlns="http://www.w3.org/2000/svg">
<path opacity="0.4" d="M18.5 10V12.17C18.5 12.7 18.71 13.21 19.09 13.59L19.91 14.41C20.29 14.79 20.5 15.3 20.5 15.83V17C20.5 20 18.97 22 15.5 22H8.5C4.97 22 3.5 20 3.5 17V7C3.5 4.08 4.9 2.1 8.24 2.01C8.32 2 8.41 2 8.5 2H15.5C15.58 2 15.66 2 15.74 2.01C19.04 2.09 20.5 4.07 20.5 7V8C20.5 8.55 20.05 9 19.5 9C18.95 9 18.5 9.45 18.5 10Z" fill="#211B2A"/>
<path d="M9.74001 2L9.69001 4.96C9.68001 5.37 9.35001 5.7 8.94001 5.7H8.93001C8.51001 5.69 8.18001 5.35 8.19001 4.93L8.24001 2.01C8.32001 2 8.41001 2 8.50001 2H9.74001Z" fill="#211B2A"/>
<path d="M12.74 2L12.69 4.95C12.68 5.35 12.35 5.68 11.94 5.68H11.93C11.51 5.67 11.18 5.33 11.19 4.92L11.24 2H12.74Z" fill="#211B2A"/>
<path d="M15.74 2.01L15.69 4.89C15.68 5.3 15.35 5.63 14.94 5.63H14.93C14.51 5.62 14.18 5.28 14.19 4.87L14.24 2H15.5C15.58 2 15.66 2 15.74 2.01Z" fill="#211B2A"/>
<path d="M16.02 21.98C15.85 21.99 15.68 22 15.51 22H8.51001C8.33001 22 8.16001 22 8.00001 21.98L7.98001 19C7.98001 17.9 8.87001 17 9.98001 17H13.99C15.09 17 15.98 17.89 15.99 18.99L16.02 21.98Z" fill="#211B2A"/>
</svg>
