<svg width="24" height="24" viewBox="0 0 24 24" fill="none" xmlns="http://www.w3.org/2000/svg">
<path d="M15.5 22.75H8.5C4.79 22.75 2.75 20.71 2.75 17V7C2.75 3.29 4.79 1.25 8.5 1.25H15.5C19.15 1.25 21.25 3.35 21.25 7V8C21.25 8.96 20.46 9.75 19.5 9.75C19.36 9.75 19.25 9.86 19.25 10V12.17C19.25 12.5 19.38 12.82 19.62 13.05L20.45 13.88C20.97 14.4 21.26 15.09 21.26 15.82V17C21.25 20.65 19.15 22.75 15.5 22.75ZM8.5 2.75C5.64 2.75 4.25 4.14 4.25 7V17C4.25 19.86 5.64 21.25 8.5 21.25H15.5C18.32 21.25 19.75 19.82 19.75 17V15.83C19.75 15.5 19.62 15.18 19.38 14.95L18.55 14.12C18.03 13.6 17.74 12.91 17.74 12.18V10C17.74 9.04 18.53 8.25 19.49 8.25C19.63 8.25 19.74 8.14 19.74 8V7C19.74 4.18 18.31 2.75 15.49 2.75H8.5Z" fill="#211B2A"/>
<path d="M16.01 22.7202C15.6 22.7202 15.26 22.3902 15.26 21.9802L15.23 18.9902C15.23 18.3002 14.66 17.7502 13.98 17.7502H9.98001C9.65001 17.7502 9.33001 17.8802 9.09001 18.1202C8.86001 18.3502 8.73001 18.6702 8.73001 19.0002L8.74001 21.9702C8.74001 22.3802 8.41001 22.7202 7.99001 22.7202C7.58001 22.7202 7.24001 22.3902 7.24001 21.9702L7.23001 19.0002C7.23001 18.2602 7.51001 17.5702 8.03001 17.0502C8.55001 16.5302 9.24001 16.2402 9.98001 16.2402H13.99C15.5 16.2402 16.73 17.4702 16.74 18.9702L16.77 21.9502C16.77 22.3802 16.43 22.7202 16.01 22.7202C16.02 22.7202 16.01 22.7202 16.01 22.7202Z" fill="#211B2A"/>
<path d="M8.94001 5.6998H8.93001C8.51001 5.6898 8.18001 5.3498 8.19001 4.9298L8.24001 2.0398C8.25001 1.6298 8.58001 1.2998 8.99001 1.2998H9.00001C9.41001 1.3098 9.74001 1.6498 9.74001 2.0598L9.69001 4.9598C9.68001 5.3698 9.35001 5.6998 8.94001 5.6998Z" fill="#211B2A"/>
<path d="M11.94 5.70006H11.93C11.52 5.69006 11.19 5.35006 11.19 4.94006L11.24 2.05006C11.25 1.64006 11.58 1.31006 11.99 1.31006H12C12.41 1.32006 12.74 1.66006 12.74 2.07006L12.69 4.96006C12.68 5.37006 12.35 5.70006 11.94 5.70006Z" fill="#211B2A"/>
<path d="M14.94 5.66979H14.93C14.52 5.65979 14.19 5.31979 14.19 4.90979L14.24 2.01979C14.25 1.60979 14.58 1.27979 14.99 1.27979H15C15.41 1.28979 15.74 1.62979 15.74 2.03979L15.69 4.92979C15.68 5.33979 15.35 5.66979 14.94 5.66979Z" fill="#211B2A"/>
</svg>
