<svg width="24" height="24" viewBox="0 0 24 24" fill="none" xmlns="http://www.w3.org/2000/svg">
<path d="M4.47 11.4197L2.73 9.67969L1 11.4197" stroke="#211B2A" stroke-width="1.5" stroke-linecap="round" stroke-linejoin="round"/>
<path d="M19.53 12.5801L21.27 14.3201L23.01 12.5801" stroke="#211B2A" stroke-width="1.5" stroke-linecap="round" stroke-linejoin="round"/>
<path d="M12 2.74023C9.08002 2.74023 6.47002 4.10027 4.77002 6.21027" stroke="#211B2A" stroke-width="1.5" stroke-linecap="round" stroke-linejoin="round"/>
<path d="M21.26 14.3196V11.9996C21.26 8.31963 19.11 5.13965 16 3.63965" stroke="#211B2A" stroke-width="1.5" stroke-linecap="round" stroke-linejoin="round"/>
<path d="M12 21.2601C14.92 21.2601 17.53 19.9 19.23 17.79" stroke="#211B2A" stroke-width="1.5" stroke-linecap="round" stroke-linejoin="round"/>
<path d="M2.73999 9.67969V11.9997C2.73999 15.6497 4.84999 18.8097 7.92999 20.3197" stroke="#211B2A" stroke-width="1.5" stroke-linecap="round" stroke-linejoin="round"/>
<path d="M9 8.5H13.38C14.35 8.5 15.13 9.38 15.13 10.25C15.13 11.22 14.35 12 13.38 12H9V8.5Z" stroke="#211B2A" stroke-width="1.5" stroke-miterlimit="10" stroke-linecap="round" stroke-linejoin="round"/>
<path d="M9 12H14C15.1 12 16 12.78 16 13.75C16 14.72 15.1 15.5 14 15.5H9V12Z" stroke="#211B2A" stroke-width="1.5" stroke-miterlimit="10" stroke-linecap="round" stroke-linejoin="round"/>
<path d="M11.8 15.5V17.25" stroke="#211B2A" stroke-width="1.5" stroke-miterlimit="10" stroke-linecap="round" stroke-linejoin="round"/>
<path d="M11.8 6.75V8.5" stroke="#211B2A" stroke-width="1.5" stroke-miterlimit="10" stroke-linecap="round" stroke-linejoin="round"/>
</svg>
