<svg width="24" height="24" viewBox="0 0 24 24" fill="none" xmlns="http://www.w3.org/2000/svg">
<path opacity="0.4" fill-rule="evenodd" clip-rule="evenodd" d="M23 15.2197C23.4142 15.2197 23.75 15.5555 23.75 15.9697C23.75 20.2539 20.2842 23.7197 16 23.7197C15.7298 23.7197 15.4805 23.5744 15.3474 23.3393C15.2142 23.1041 15.2179 22.8156 15.3569 22.5839L16.4069 20.8339C16.62 20.4787 17.0807 20.3635 17.4359 20.5766C17.7911 20.7897 17.9062 21.2504 17.6931 21.6056L17.4218 22.0578C20.1909 21.4154 22.25 18.9363 22.25 15.9697C22.25 15.5555 22.5858 15.2197 23 15.2197Z" fill="#211B2A"/>
<path opacity="0.4" fill-rule="evenodd" clip-rule="evenodd" d="M6.5782 1.88166C3.8091 2.5241 1.75 5.00315 1.75 7.96973C1.75 8.38394 1.41421 8.71973 1 8.71973C0.585786 8.71973 0.25 8.38394 0.25 7.96973C0.25 3.68551 3.71579 0.219727 8 0.219727C8.2702 0.219727 8.51952 0.365071 8.65265 0.600202C8.78578 0.835334 8.78214 1.1239 8.64312 1.3556L7.59312 3.1056C7.38001 3.46078 6.91931 3.57596 6.56413 3.36285C6.20894 3.14974 6.09377 2.68904 6.30688 2.33385L6.5782 1.88166Z" fill="#211B2A"/>
<path opacity="0.4" d="M14.85 15.3302C14.85 18.7402 12.09 21.5002 8.68001 21.5002C5.27001 21.5002 2.51001 18.7402 2.51001 15.3302C2.51001 11.9202 5.27001 9.16016 8.68001 9.16016C8.84001 9.16016 8.99001 9.17018 9.16001 9.18018C12.19 9.41018 14.61 11.8302 14.84 14.8602C14.84 15.0102 14.85 15.1602 14.85 15.3302Z" fill="#211B2A"/>
<path d="M21.5 8.66998C21.5 12.08 18.74 14.84 15.33 14.84H14.84C14.61 11.81 12.19 9.38997 9.15997 9.15997V8.66998C9.15997 5.25998 11.92 2.5 15.33 2.5C18.74 2.5 21.5 5.25998 21.5 8.66998Z" fill="#211B2A"/>
<path d="M11.12 15.0104C11.24 14.7604 11.31 14.4904 11.31 14.2004C11.31 13.2004 10.43 12.3204 9.43 12.3204H9.16999V11.9404C9.16999 11.5304 8.82999 11.1904 8.41999 11.1904C8.00999 11.1904 7.66999 11.5304 7.66999 11.9404V12.3204H6.62C6.21 12.3204 5.87 12.6604 5.87 13.0704V15.3204V17.5704C5.87 17.9804 6.21 18.3204 6.62 18.3204H7.66999V18.7004C7.66999 19.1104 8.00999 19.4504 8.41999 19.4504C8.82999 19.4504 9.16999 19.1104 9.16999 18.7004V18.3204H9.83C10.95 18.3204 11.87 17.4804 11.87 16.4404C11.87 15.8704 11.57 15.3504 11.12 15.0104ZM7.37 13.8204H9.43C9.64 13.8204 9.81 14.0504 9.81 14.2004C9.81 14.4104 9.64 14.5804 9.43 14.5804H7.37V13.8204ZM9.83 16.8304H7.36V16.0804H9.41999H9.82C10.14 16.0804 10.36 16.2804 10.36 16.4604C10.36 16.6404 10.15 16.8304 9.83 16.8304Z" fill="#211B2A"/>
</svg>
