<svg width="24" height="24" viewBox="0 0 24 24" fill="none" xmlns="http://www.w3.org/2000/svg">
<path opacity="0.4" d="M12.93 4.79004H7.35C3.25 4.79004 2 6.04004 2 10.14V13.86C2 17.96 3.25 19.21 7.35 19.21H12.93C17.03 19.21 18.28 17.96 18.28 13.86V10.14C18.28 6.04004 17.03 4.79004 12.93 4.79004Z" fill="#211B2A"/>
<path d="M20.42 9.00047C20.28 8.99047 20.1 8.98047 19.9 8.98047C19.51 8.98047 19.2 9.29047 19.2 9.68047V14.3305C19.2 14.7205 19.51 15.0305 19.9 15.0305C20.1 15.0305 20.27 15.0205 20.44 15.0105C22 14.8305 22 13.7305 22 12.9305V11.0705C22 10.2705 22 9.17047 20.42 9.00047Z" fill="#211B2A"/>
<path d="M6.38001 14.7501C6.32001 14.7501 6.26001 14.7401 6.20001 14.7301C5.80001 14.6301 5.55001 14.2201 5.65001 13.8201C5.95001 12.6301 5.95001 11.3701 5.65001 10.1801C5.55001 9.7801 5.79001 9.3701 6.20001 9.2701C6.59001 9.1701 7.00001 9.4201 7.10001 9.8201C7.46001 11.2501 7.46001 12.7601 7.10001 14.1801C7.02001 14.5201 6.71001 14.7501 6.38001 14.7501Z" fill="#211B2A"/>
</svg>
