<svg width="24" height="24" viewBox="0 0 24 24" fill="none" xmlns="http://www.w3.org/2000/svg">
<path opacity="0.4" d="M12.93 4.79004H7.35C3.25 4.79004 2 6.04004 2 10.14V13.86C2 17.96 3.25 19.21 7.35 19.21H12.93C17.03 19.21 18.28 17.96 18.28 13.86V10.14C18.28 6.04004 17.03 4.79004 12.93 4.79004Z" fill="#211B2A"/>
<path d="M20.42 9.00047C20.28 8.99047 20.1 8.98047 19.9 8.98047C19.51 8.98047 19.2 9.29047 19.2 9.68047V14.3305C19.2 14.7205 19.51 15.0305 19.9 15.0305C20.1 15.0305 20.27 15.0205 20.44 15.0105C22 14.8305 22 13.7305 22 12.9305V11.0705C22 10.2705 22 9.17047 20.42 9.00047Z" fill="#211B2A"/>
<path d="M10.0101 16.2403C9.84005 16.2403 9.66005 16.1803 9.52005 16.0603C9.21005 15.7903 9.17005 15.3203 9.44005 15.0003L11.2401 12.8903C11.2501 12.8603 11.2401 12.8303 11.2201 12.8003C11.2001 12.7603 11.1601 12.7403 11.1101 12.7403H9.12005C8.53005 12.7403 8.01005 12.4403 7.71005 11.9303C7.42005 11.4203 7.42005 10.8203 7.71005 10.3103L9.42005 8.05027C9.67005 7.72027 10.1401 7.65027 10.4701 7.90027C10.8001 8.15027 10.8701 8.62027 10.6201 8.95027L8.97005 11.1403C9.00005 11.1003 9.00005 11.1403 9.02005 11.1903C9.04005 11.2303 9.08005 11.2503 9.13005 11.2503H11.1401C11.7301 11.2503 12.2501 11.5503 12.5501 12.0603C12.8401 12.5703 12.8401 13.1703 12.5501 13.6803C12.5301 13.7203 12.5001 13.7603 12.4701 13.7903L10.6001 15.9803C10.4401 16.1603 10.2301 16.2403 10.0101 16.2403Z" fill="#211B2A"/>
</svg>
