<svg width="24" height="24" viewBox="0 0 24 24" fill="none" xmlns="http://www.w3.org/2000/svg">
<path d="M20.42 9.00047C20.28 8.99047 20.1 8.98047 19.9 8.98047C19.51 8.98047 19.2 9.29047 19.2 9.68047V14.3305C19.2 14.7205 19.51 15.0305 19.9 15.0305C20.1 15.0305 20.27 15.0205 20.44 15.0105C22 14.8305 22 13.7305 22 12.9305V11.0705C22 10.2705 22 9.17047 20.42 9.00047Z" fill="#211B2A"/>
<path opacity="0.4" d="M14.5 4.87004L5.52 19.09C2.87 18.71 2 17.27 2 13.86V10.14C2 6.04004 3.25 4.79004 7.35 4.79004H12.93C13.51 4.79004 14.03 4.81004 14.5 4.87004Z" fill="#211B2A"/>
<path opacity="0.4" d="M18.28 10.1396V13.8596C18.28 16.8096 15.88 19.2096 12.93 19.2096H7.45001L16.23 5.30957C17.75 5.99957 18.28 7.45957 18.28 10.1396Z" fill="#211B2A"/>
<path d="M4.00003 22.2504C3.86003 22.2504 3.72003 22.2104 3.60003 22.1304C3.25003 21.9104 3.14003 21.4504 3.37003 21.1004L15.37 2.10036C15.59 1.75036 16.06 1.65036 16.4 1.87036C16.75 2.09036 16.86 2.55036 16.63 2.90036L4.63003 21.9004C4.49003 22.1304 4.25003 22.2504 4.00003 22.2504Z" fill="#211B2A"/>
</svg>
