<svg width="24" height="24" viewBox="0 0 24 24" fill="none" xmlns="http://www.w3.org/2000/svg">
<path opacity="0.4" d="M5.32999 19.4203C5.21999 19.4203 5.09999 19.3903 4.99999 19.3403L2.77999 18.2303C2.52999 18.1003 2.37 17.8403 2.37 17.5603V14.7803C2.37 14.3703 2.71 14.0303 3.12 14.0303C3.53 14.0303 3.87 14.3703 3.87 14.7803V17.0903L5.67999 17.9903C6.04999 18.1803 6.19999 18.6303 6.01999 19.0003C5.86999 19.2603 5.60999 19.4203 5.32999 19.4203Z" fill="#211B2A"/>
<path d="M12 22.7497C11.94 22.7497 11.88 22.7397 11.83 22.7297C11.77 22.7197 11.71 22.6897 11.65 22.6597L9.43996 21.5597C9.06996 21.3697 8.91996 20.9197 9.09996 20.5497C9.28996 20.1797 9.73996 20.0297 10.11 20.2097L11.25 20.7797V19.2197C11.25 18.8097 11.59 18.4697 12 18.4697C12.41 18.4697 12.75 18.8097 12.75 19.2197V20.7797L13.89 20.2097C14.26 20.0297 14.71 20.1797 14.9 20.5497C15.09 20.9197 14.94 21.3697 14.56 21.5597L12.35 22.6597C12.29 22.6897 12.23 22.7097 12.17 22.7297C12.11 22.7397 12.06 22.7497 12 22.7497Z" fill="#211B2A"/>
<path opacity="0.4" d="M18.6699 19.42C18.3999 19.42 18.1299 19.27 17.9999 19.01C17.8099 18.64 17.9599 18.19 18.3399 18L20.1499 17.1001V14.79C20.1499 14.38 20.4899 14.04 20.8999 14.04C21.3099 14.04 21.6499 14.38 21.6499 14.79V17.5701C21.6499 17.8501 21.4899 18.1101 21.2399 18.2401L19.0199 19.3501C18.8899 19.3901 18.7799 19.42 18.6699 19.42Z" fill="#211B2A"/>
<path d="M12 14.42C11.59 14.42 11.25 14.08 11.25 13.67V11.36L9.43996 10.4601C9.06996 10.2701 8.91996 9.82004 9.09996 9.45004C9.28996 9.08004 9.73996 8.93005 10.11 9.11005L12 10.05L13.89 9.11005C14.26 8.93005 14.71 9.07004 14.9 9.45004C15.09 9.82004 14.94 10.2701 14.56 10.4601L12.75 11.36V13.67C12.75 14.08 12.41 14.42 12 14.42Z" fill="#211B2A"/>
<path opacity="0.4" d="M3.10999 9.97036C2.69999 9.97036 2.35999 9.63036 2.35999 9.22036V6.46037V6.45036C2.35999 6.39036 2.36998 6.33036 2.37998 6.28036C2.39998 6.20036 2.42999 6.13036 2.46999 6.06036C2.49999 6.01036 2.52998 5.97036 2.56998 5.93036C2.60998 5.89036 2.65998 5.85037 2.70998 5.82037C2.72998 5.81037 2.75998 5.79036 2.77998 5.78036L4.98998 4.68036C5.35998 4.50036 5.80998 4.64037 5.99998 5.02037C6.18998 5.39037 6.03999 5.84036 5.65999 6.03036L4.77998 6.47036L5.65999 6.91037C6.02999 7.10037 6.17998 7.55036 5.99998 7.92036C5.81998 8.29036 5.35998 8.44036 4.98998 8.26036L3.84998 7.69036V9.25036C3.85998 9.64036 3.52999 9.97036 3.10999 9.97036Z" fill="#211B2A"/>
<path d="M14.22 3.8598C14.11 3.8598 13.99 3.8298 13.89 3.7798L12 2.83979L10.11 3.7798C9.74003 3.9698 9.29003 3.8198 9.10003 3.4398C8.91003 3.0698 9.06004 2.61979 9.44004 2.42979L11.66 1.3198C11.87 1.2098 12.12 1.2098 12.33 1.3198L14.55 2.42979C14.92 2.61979 15.07 3.0698 14.89 3.4398C14.76 3.7098 14.5 3.8598 14.22 3.8598Z" fill="#211B2A"/>
<path opacity="0.4" d="M20.89 9.97026C20.48 9.97026 20.14 9.63026 20.14 9.22026V7.66026L19 8.23025C18.63 8.42025 18.18 8.27026 17.99 7.89026C17.8 7.52026 17.9501 7.07026 18.3301 6.88026L19.21 6.44026L18.3301 6.00026C17.9601 5.81026 17.81 5.36026 17.99 4.99026C18.17 4.62026 18.63 4.47025 19 4.65025L21.21 5.75026C21.23 5.76026 21.26 5.77025 21.28 5.79025C21.34 5.82025 21.3901 5.87026 21.4401 5.92026C21.4701 5.96026 21.5 6.00025 21.53 6.04025C21.57 6.11025 21.6001 6.18025 21.6201 6.26025C21.6301 6.32025 21.64 6.38025 21.64 6.43025V6.44026V9.20025C21.64 9.64025 21.3 9.97026 20.89 9.97026Z" fill="#211B2A"/>
</svg>
