<svg width="24" height="24" viewBox="0 0 24 24" fill="none" xmlns="http://www.w3.org/2000/svg">
<path opacity="0.4" d="M9.83 5.57026L6.36 7.68024L4.78 5.08027C4.2 4.13027 4.50001 2.87023 5.46001 2.29023C6.41001 1.71023 7.67 2.01022 8.25 2.97022L9.83 5.57026Z" fill="#211B2A"/>
<path opacity="0.4" d="M19.27 17.6403L19.26 17.6503L17.96 18.4403L16.66 19.2302L15.36 20.0203L14.06 20.8103L12.76 21.6002H12.75C11.44 22.4002 9.82 21.9203 9.15 20.5503L7.07001 16.3103C6.34001 14.8303 6.57 13.0303 7.69 11.8003C7.95 11.5203 8.25001 11.2603 8.60001 11.0503L11.81 9.10024C12.17 8.89024 12.53 8.73028 12.9 8.64028C14.5 8.20028 16.2 8.82029 17.18 10.1503L19.99 13.9503C20.9 15.2003 20.58 16.8503 19.27 17.6403Z" fill="#211B2A"/>
<path d="M12.9 8.65957C12.53 8.74957 12.17 8.8996 11.81 9.1196L8.59999 11.0696C8.23999 11.2796 7.94999 11.5396 7.68999 11.8196C7.67999 11.8196 7.67998 11.8096 7.67998 11.8096L6.02998 9.07962C5.73998 8.59962 5.88999 7.9696 6.35999 7.6896L9.82999 5.57962C10.31 5.28962 10.93 5.43957 11.22 5.90957L12.88 8.63962C12.89 8.64962 12.9 8.64957 12.9 8.65957Z" fill="#211B2A"/>
<path d="M16.66 19.2297L15.36 20.0197L13.69 17.2697C13.48 16.9097 13.59 16.4497 13.94 16.2197C14.31 16.0097 14.77 16.1197 14.99 16.4697L16.66 19.2297Z" fill="#211B2A"/>
<path d="M14.06 20.8195L12.76 21.6095L11.09 18.8595C10.87 18.4995 10.98 18.0395 11.34 17.8095C11.7 17.5995 12.16 17.7095 12.39 18.0595L14.06 20.8195Z" fill="#211B2A"/>
<path d="M19.26 17.6496L17.96 18.4396L16.29 15.6896C16.08 15.3296 16.19 14.8696 16.54 14.6396C16.91 14.4296 17.37 14.5396 17.59 14.8896L19.26 17.6496Z" fill="#211B2A"/>
</svg>
