<svg width="24" height="24" viewBox="0 0 24 24" fill="none" xmlns="http://www.w3.org/2000/svg">
<path d="M9.87 5.6701L6.45 7.75012L4.89001 5.19012C4.32001 4.25012 4.62 3.01012 5.56 2.44012C6.5 1.87012 7.74 2.1701 8.31 3.1101L9.87 5.6701Z" stroke="#211B2A" stroke-width="1.5" stroke-linecap="round" stroke-linejoin="round"/>
<path d="M11.82 9.1596L8.66 11.0796C6.82 12.1996 6.25999 14.4596 7.14999 16.2596L9.19999 20.4396C9.85999 21.7896 11.46 22.2596 12.74 21.4696L19.17 17.5596C20.46 16.7796 20.77 15.1496 19.88 13.9396L17.11 10.1996C15.91 8.57964 13.66 8.0396 11.82 9.1596Z" stroke="#211B2A" stroke-width="1.5" stroke-linecap="round" stroke-linejoin="round"/>
<path d="M10.7566 5.09815L5.63205 8.21875L7.71245 11.6351L12.837 8.51455L10.7566 5.09815Z" stroke="#211B2A" stroke-width="1.5" stroke-linecap="round" stroke-linejoin="round"/>
<path d="M14.31 16.8096L15.96 19.5196" stroke="#211B2A" stroke-width="1.5" stroke-linecap="round" stroke-linejoin="round"/>
<path d="M11.75 18.3701L13.4 21.0801" stroke="#211B2A" stroke-width="1.5" stroke-linecap="round" stroke-linejoin="round"/>
<path d="M16.87 15.25L18.52 17.96" stroke="#211B2A" stroke-width="1.5" stroke-linecap="round" stroke-linejoin="round"/>
</svg>
