<svg width="24" height="24" viewBox="0 0 24 24" fill="none" xmlns="http://www.w3.org/2000/svg">
<path d="M15.59 1.75C12.62 1.75 10.21 4.16 10.21 7.13C10.21 10.1 12.62 12.51 15.59 12.51C18.56 12.51 20.97 10.1 20.97 7.13C20.97 4.16 18.56 1.75 15.59 1.75Z" fill="#211B2A"/>
<path opacity="0.4" d="M6.36002 13.0303C4.53002 13.0303 3.03003 14.5203 3.03003 16.3603C3.03003 18.2003 4.52002 19.6903 6.36002 19.6903C8.19002 19.6903 9.69003 18.2003 9.69003 16.3603C9.69003 14.5203 8.19002 13.0303 6.36002 13.0303Z" fill="#211B2A"/>
<path opacity="0.4" d="M16.62 16.6201C15.07 16.6201 13.81 17.8801 13.81 19.4301C13.81 20.9801 15.07 22.2401 16.62 22.2401C18.17 22.2401 19.43 20.9801 19.43 19.4301C19.43 17.8801 18.17 16.6201 16.62 16.6201Z" fill="#211B2A"/>
</svg>
