<svg width="24" height="24" viewBox="0 0 24 24" fill="none" xmlns="http://www.w3.org/2000/svg">
<path d="M20.89 13V14H20.02C19.28 14 18.68 14.6 18.68 15.35V15.65C18.68 16.4 18.08 17 17.33 17C16.59 17 15.99 16.4 15.99 15.65V15.35C15.99 14.6 15.38 14 14.64 14C13.9 14 13.3 14.6 13.3 15.35V15.65C13.3 16.4 12.69 17 11.95 17C11.21 17 10.6 16.4 10.6 15.65V15.35C10.6 14.6 9.99999 14 9.25999 14C8.51999 14 7.90999 14.6 7.90999 15.35V15.65C7.90999 16.4 7.30999 17 6.56999 17C5.81999 17 5.21999 16.4 5.21999 15.65V15.33C5.21999 14.59 4.62999 13.99 3.89999 13.98H3.10999V13C3.10999 11.62 4.14999 10.45 5.55999 10.11C5.83999 10.04 6.12999 10 6.43999 10H17.56C17.87 10 18.16 10.04 18.44 10.11C19.85 10.45 20.89 11.62 20.89 13Z" fill="#211B2A"/>
<path d="M18.4401 7.17V8.58C18.1501 8.52 17.8601 8.5 17.5601 8.5H6.44006C6.14006 8.5 5.85006 8.53 5.56006 8.59V7.17C5.56006 5.97 6.64006 5 7.98006 5H16.0201C17.3601 5 18.4401 5.97 18.4401 7.17Z" fill="#211B2A"/>
<path d="M8.75 3.55039V5.01039H7.98C7.72 5.01039 7.48 5.04039 7.25 5.10039V3.55039C7.25 3.20039 7.59 2.90039 8 2.90039C8.41 2.90039 8.75 3.20039 8.75 3.55039Z" fill="#211B2A"/>
<path d="M16.75 3.33008V5.10008C16.52 5.03008 16.28 5.00008 16.02 5.00008H15.25V3.33008C15.25 2.92008 15.59 2.58008 16 2.58008C16.41 2.58008 16.75 2.92008 16.75 3.33008Z" fill="#211B2A"/>
<path d="M12.75 2.82V5H11.25V2.82C11.25 2.37 11.59 2 12 2C12.41 2 12.75 2.37 12.75 2.82Z" fill="#211B2A"/>
<path d="M22 21.2505C22 21.6605 21.66 22.0005 21.25 22.0005H2.75C2.34 22.0005 2 21.6605 2 21.2505C2 20.8405 2.34 20.5005 2.75 20.5005H3.11V15.4805H3.72V15.5505C3.72 16.8905 4.6 18.1305 5.91 18.4205C6.93 18.6605 7.9 18.3305 8.56 17.6805C8.94 17.3005 9.56 17.2905 9.94 17.6705C10.46 18.1805 11.17 18.5005 11.95 18.5005C12.73 18.5005 13.44 18.1905 13.96 17.6705C14.34 17.3005 14.95 17.3005 15.34 17.6805C15.99 18.3305 16.96 18.6605 17.99 18.4205C19.3 18.1305 20.18 16.8905 20.18 15.5505V15.5005H20.89V20.5005H21.25C21.66 20.5005 22 20.8405 22 21.2505Z" fill="#211B2A"/>
</svg>
