<svg width="24" height="24" viewBox="0 0 24 24" fill="none" xmlns="http://www.w3.org/2000/svg">
<path d="M11.82 6.9C14.68 6.28 17.58 6.19 20.45 6.66C18.68 3.86 15.56 2 12 2C8.88999 2 6.10999 3.42 4.26999 5.65C4.70999 6.95 5.26999 8.19 5.93999 9.37C6.31999 10.05 7.28999 10.02 7.67999 9.35C8.52999 7.92 10.06 6.96 11.82 6.9Z" fill="#211B2A"/>
<path d="M7.72002 14.7204C5.72002 12.5804 4.16002 10.1404 3.09002 7.44043C1.59002 10.4004 1.60002 14.0304 3.43002 17.0804C5.03002 19.7504 7.67002 21.4104 10.53 21.8404C11.42 20.7904 12.2 19.6704 12.87 18.5004C13.26 17.8204 12.73 17.0104 11.95 17.0104C10.28 17.0204 8.67002 16.2004 7.72002 14.7204Z" fill="#211B2A"/>
<path d="M8.57001 12.0001C8.57001 12.6101 8.72001 13.1801 9.03001 13.7201C9.64001 14.7701 10.77 15.4301 11.99 15.4301C13.21 15.4301 14.35 14.7701 14.95 13.7201C15.26 13.1801 15.42 12.6101 15.42 12.0001C15.42 10.1101 13.88 8.58013 11.99 8.58013C10.11 8.57013 8.57001 10.1101 8.57001 12.0001Z" fill="#211B2A"/>
<path d="M21.34 8.42028C19.97 8.13028 18.58 7.97028 17.2 7.95028C16.41 7.94028 15.96 8.80028 16.35 9.49028C16.75 10.2003 16.98 11.0203 16.98 11.8903C16.98 12.7303 16.76 13.5603 16.35 14.3003C15.41 17.1803 14.01 19.7403 12.16 22.0003C17.61 21.9103 22 17.4703 22 12.0003C22 10.7403 21.77 9.53028 21.34 8.42028Z" fill="#211B2A"/>
</svg>
