<svg width="24" height="24" viewBox="0 0 24 24" fill="none" xmlns="http://www.w3.org/2000/svg">
<path opacity="0.4" d="M22 12C22 17.47 17.61 21.91 12.16 22H12C11.39 22 10.79 21.94 10.21 21.84C5.54 20.99 2 16.91 2 12C2 10.29 2.43 8.68 3.19 7.27C3.5 6.7 3.86 6.15 4.27 5.65C6.11 3.42 8.89 2 12 2C15.56 2 18.68 3.86 20.45 6.66C20.8 7.21 21.1 7.8 21.34 8.42C21.77 9.53 22 10.74 22 12Z" fill="#211B2A"/>
<path d="M15.1 8.02039C17.18 7.85039 19.27 7.98039 21.34 8.42039C21.1 7.80039 20.8 7.21039 20.45 6.66039C17.58 6.19039 14.68 6.28039 11.82 6.90039C9.39 6.98039 7.41 8.78039 7.04 11.1304C5.88 9.45039 4.94 7.62039 4.27 5.65039C3.86 6.15039 3.5 6.70039 3.19 7.27039C4.25 9.96039 5.74 12.3604 7.65 14.4704C7.67 14.4904 7.7 14.5004 7.72 14.5204C8.63 15.9904 10.24 16.9004 11.97 16.9004C12.58 16.9004 13.17 16.7804 13.72 16.5704C12.81 18.4804 11.65 20.2504 10.21 21.8404C10.79 21.9404 11.39 22.0004 12 22.0004H12.16C14.01 19.7404 15.41 17.1804 16.35 14.3004C16.76 13.5604 16.98 12.7304 16.98 11.8904C16.98 10.3204 16.24 8.94039 15.1 8.02039ZM14.93 13.6104C14.33 14.6604 13.19 15.3204 11.97 15.3204C10.75 15.3204 9.62 14.6604 9.01 13.6104C8.7 13.0704 8.55 12.5004 8.55 11.8904C8.55 10.0004 10.08 8.47039 11.97 8.47039C13.86 8.47039 15.4 10.0004 15.4 11.8904C15.4 12.5004 15.24 13.0704 14.93 13.6104Z" fill="#211B2A"/>
</svg>
