<svg width="24" height="24" viewBox="0 0 24 24" fill="none" xmlns="http://www.w3.org/2000/svg">
<path d="M15.7123 16.7726L7.22699 8.28728C6.93708 7.99737 6.93708 7.51653 7.22699 7.22662C7.51691 6.93671 7.99774 6.93671 8.28765 7.22662L16.7729 15.7119C17.0628 16.0018 17.0628 16.4826 16.7729 16.7726C16.483 17.0625 16.0022 17.0625 15.7123 16.7726Z" fill="#211B2A"/>
<path d="M7.22706 16.7726C6.93715 16.4826 6.93715 16.0018 7.22706 15.7119L15.7123 7.22662C16.0023 6.93671 16.4831 6.93671 16.773 7.22662C17.0629 7.51653 17.0629 7.99737 16.773 8.28728L8.28772 16.7726C7.99781 17.0625 7.51698 17.0625 7.22706 16.7726Z" fill="#211B2A"/>
</svg>
