<svg width="24" height="24" viewBox="0 0 24 24" fill="none" xmlns="http://www.w3.org/2000/svg">
<path d="M12 22.75C6.07 22.75 1.25 17.93 1.25 12C1.25 6.07 6.07 1.25 12 1.25C17.93 1.25 22.75 6.07 22.75 12C22.75 17.93 17.93 22.75 12 22.75ZM12 2.75C6.9 2.75 2.75 6.9 2.75 12C2.75 17.1 6.9 21.25 12 21.25C17.1 21.25 21.25 17.1 21.25 12C21.25 6.9 17.1 2.75 12 2.75Z" fill="#211B2A"/>
<path d="M9.16999 15.5804C8.97999 15.5804 8.78999 15.5104 8.63999 15.3604C8.34999 15.0704 8.34999 14.5904 8.63999 14.3004L14.3 8.64035C14.59 8.35035 15.07 8.35035 15.36 8.64035C15.65 8.93035 15.65 9.41035 15.36 9.70035L9.69998 15.3604C9.55998 15.5104 9.35999 15.5804 9.16999 15.5804Z" fill="#211B2A"/>
<path d="M14.83 15.5804C14.64 15.5804 14.45 15.5104 14.3 15.3604L8.63999 9.70035C8.34999 9.41035 8.34999 8.93035 8.63999 8.64035C8.92999 8.35035 9.40998 8.35035 9.69998 8.64035L15.36 14.3004C15.65 14.5904 15.65 15.0704 15.36 15.3604C15.21 15.5104 15.02 15.5804 14.83 15.5804Z" fill="#211B2A"/>
</svg>
