<svg width="24" height="24" viewBox="0 0 24 24" fill="none" xmlns="http://www.w3.org/2000/svg">
<path d="M14.97 22.75H8.97C3.54 22.75 1.22 20.43 1.22 15V9C1.22 3.57 3.54 1.25 8.97 1.25H14.97C20.4 1.25 22.72 3.57 22.72 9V15C22.72 20.43 20.41 22.75 14.97 22.75ZM8.97 2.75C4.36 2.75 2.72 4.39 2.72 9V15C2.72 19.61 4.36 21.25 8.97 21.25H14.97C19.58 21.25 21.22 19.61 21.22 15V9C21.22 4.39 19.58 2.75 14.97 2.75H8.97Z" fill="#211B2A"/>
<path d="M3.27002 20.4504C3.08002 20.4504 2.89002 20.3804 2.74002 20.2304C2.45002 19.9404 2.45002 19.4604 2.74002 19.1704L19.19 2.72043C19.48 2.43043 19.96 2.43043 20.25 2.72043C20.54 3.01043 20.54 3.49043 20.25 3.78043L3.80002 20.2304C3.66002 20.3804 3.47002 20.4504 3.27002 20.4504Z" fill="#211B2A"/>
<path d="M16.06 18.75C15.65 18.75 15.31 18.41 15.31 18V13C15.31 12.59 15.65 12.25 16.06 12.25C16.47 12.25 16.81 12.59 16.81 13V18C16.81 18.41 16.47 18.75 16.06 18.75Z" fill="#211B2A"/>
<path d="M18.5 16.25H13.5C13.09 16.25 12.75 15.91 12.75 15.5C12.75 15.09 13.09 14.75 13.5 14.75H18.5C18.91 14.75 19.25 15.09 19.25 15.5C19.25 15.91 18.91 16.25 18.5 16.25Z" fill="#211B2A"/>
<path d="M10.5 8.25H5.5C5.09 8.25 4.75 7.91 4.75 7.5C4.75 7.09 5.09 6.75 5.5 6.75H10.5C10.91 6.75 11.25 7.09 11.25 7.5C11.25 7.91 10.91 8.25 10.5 8.25Z" fill="#211B2A"/>
</svg>
