<svg width="24" height="24" viewBox="0 0 24 24" fill="none" xmlns="http://www.w3.org/2000/svg">
<path d="M16.7001 19.7305H7.30006C6.56006 19.7305 5.81006 19.2005 5.56006 18.5105L1.42006 6.92047C0.910057 5.46047 1.28006 4.79047 1.68006 4.49047C2.08006 4.19047 2.83006 4.01047 4.09006 4.91047L7.99006 7.70047C8.11006 7.77047 8.22006 7.80047 8.30006 7.78047C8.39006 7.75047 8.46006 7.67047 8.51006 7.53047L10.2701 2.84047C10.8001 1.44047 11.5801 1.23047 12.0001 1.23047C12.4201 1.23047 13.2001 1.44047 13.7301 2.84047L15.4901 7.53047C15.5401 7.66047 15.6101 7.75047 15.7001 7.78047C15.7901 7.81047 15.9001 7.78047 16.0101 7.69047L19.6701 5.08047C21.0101 4.12047 21.7901 4.31047 22.2201 4.62047C22.6401 4.94047 23.0301 5.65047 22.4801 7.20047L18.4401 18.5105C18.1901 19.2005 17.4401 19.7305 16.7001 19.7305ZM2.68006 5.81047C2.70006 5.95047 2.74006 6.15047 2.84006 6.41047L6.98006 18.0005C7.02006 18.1005 7.20006 18.2305 7.30006 18.2305H16.7001C16.8101 18.2305 16.9901 18.1005 17.0201 18.0005L21.0601 6.70047C21.2001 6.32047 21.2401 6.06047 21.2501 5.91047C21.1001 5.96047 20.8701 6.07047 20.5401 6.31047L16.8801 8.92047C16.3801 9.27047 15.7901 9.38047 15.2601 9.22047C14.7301 9.06047 14.3001 8.64047 14.0801 8.07047L12.3201 3.38047C12.1901 3.03047 12.0701 2.86047 12.0001 2.78047C11.9301 2.86047 11.8101 3.03047 11.6801 3.37047L9.92006 8.06047C9.71006 8.63047 9.28006 9.05047 8.74006 9.21047C8.21006 9.37047 7.61006 9.26047 7.12006 8.91047L3.22006 6.12047C2.99006 5.96047 2.81006 5.86047 2.68006 5.81047Z" fill="#211B2A"/>
<path d="M17.5 22.75H6.5C6.09 22.75 5.75 22.41 5.75 22C5.75 21.59 6.09 21.25 6.5 21.25H17.5C17.91 21.25 18.25 21.59 18.25 22C18.25 22.41 17.91 22.75 17.5 22.75Z" fill="#211B2A"/>
<path d="M14.5 14.75H9.5C9.09 14.75 8.75 14.41 8.75 14C8.75 13.59 9.09 13.25 9.5 13.25H14.5C14.91 13.25 15.25 13.59 15.25 14C15.25 14.41 14.91 14.75 14.5 14.75Z" fill="#211B2A"/>
</svg>
