<svg width="24" height="24" viewBox="0 0 24 24" fill="none" xmlns="http://www.w3.org/2000/svg">
<path d="M20.1 5.69035C21.66 4.57035 22.41 5.14035 21.77 6.95035L17.73 18.2604C17.59 18.6604 17.12 18.9904 16.7 18.9904H7.29995C6.87995 18.9904 6.40995 18.6604 6.26995 18.2604L2.12995 6.67035C1.53996 5.01035 2.22996 4.50035 3.64996 5.52035L7.54995 8.31035C8.19995 8.76035 8.93995 8.53035 9.21995 7.80035L10.98 3.11035C11.54 1.61035 12.47 1.61035 13.03 3.11035L14.79 7.80035C15.07 8.53035 15.81 8.76035 16.45 8.31035L17.08 7.86035" stroke="#211B2A" stroke-width="1.5" stroke-linecap="round" stroke-linejoin="round"/>
<path d="M6.5 22H17.5" stroke="#211B2A" stroke-width="1.5" stroke-linecap="round" stroke-linejoin="round"/>
<path d="M9.5 14H14.5" stroke="#211B2A" stroke-width="1.5" stroke-linecap="round" stroke-linejoin="round"/>
</svg>
