<svg width="24" height="24" viewBox="0 0 24 24" fill="none" xmlns="http://www.w3.org/2000/svg">
<path d="M12.15 19.35C11.74 19.35 11.4 19.01 11.4 18.6V16.5C11.4 16.09 11.74 15.75 12.15 15.75C12.56 15.75 12.9 16.09 12.9 16.5V18.6C12.9 19.01 12.56 19.35 12.15 19.35Z" fill="#211B2A"/>
<path d="M17.9 22.75H6.40002V21C6.40002 19.48 7.63002 18.25 9.15002 18.25H15.15C16.67 18.25 17.9 19.48 17.9 21V22.75ZM7.90002 21.25H16.4V21C16.4 20.31 15.84 19.75 15.15 19.75H9.15002C8.46002 19.75 7.90002 20.31 7.90002 21V21.25Z" fill="#211B2A"/>
<path d="M18.15 22.75H6.15002C5.74002 22.75 5.40002 22.41 5.40002 22C5.40002 21.59 5.74002 21.25 6.15002 21.25H18.15C18.56 21.25 18.9 21.59 18.9 22C18.9 22.41 18.56 22.75 18.15 22.75Z" fill="#211B2A"/>
<path d="M18.43 12.4396C18.22 12.4396 18.01 12.3496 17.86 12.1796C17.67 11.9596 17.62 11.6496 17.74 11.3896C18.08 10.6096 18.25 9.77957 18.25 8.90957V5.90957C18.25 5.55957 18.19 5.21957 18.07 4.85957C18.06 4.82957 18.05 4.78957 18.04 4.74957C18.01 4.59957 18 4.44957 18 4.30957C18 3.89957 18.34 3.55957 18.75 3.55957H19.35C21.14 3.55957 22.6 5.05957 22.6 6.90957C22.6 8.43957 21.97 9.94957 20.88 11.0396C20.86 11.0596 20.8 11.1096 20.79 11.1196C20.2 11.6096 19.53 12.1596 18.63 12.4096C18.56 12.4296 18.5 12.4396 18.43 12.4396ZM19.68 5.08957C19.73 5.35957 19.75 5.63957 19.75 5.90957V8.90957C19.75 9.31957 19.72 9.70957 19.66 10.1096C19.72 10.0596 19.77 10.0196 19.83 9.96957C20.63 9.16957 21.1 8.04957 21.1 6.90957C21.1 6.00957 20.49 5.24957 19.68 5.08957Z" fill="#211B2A"/>
<path d="M5.58002 12.3996C5.50002 12.3996 5.43002 12.3896 5.35002 12.3596C4.53002 12.0996 3.76002 11.6196 3.12002 10.9796C1.97002 9.70961 1.40002 8.31961 1.40002 6.84961C1.40002 5.02961 2.83002 3.59961 4.65002 3.59961H5.30002C5.55002 3.59961 5.79002 3.72961 5.93002 3.93961C6.07002 4.14961 6.09002 4.41961 5.99002 4.64961C5.83002 5.00961 5.75002 5.41961 5.75002 5.84961V8.84961C5.75002 9.70961 5.92002 10.5496 6.27002 11.3496C6.39002 11.6196 6.33002 11.9296 6.14002 12.1496C5.99002 12.3096 5.79002 12.3996 5.58002 12.3996ZM4.30002 5.12961C3.49002 5.28961 2.90002 5.98961 2.90002 6.84961C2.90002 7.93961 3.34002 8.98961 4.21002 9.94961C4.25002 9.99961 4.30002 10.0396 4.35002 10.0796C4.28002 9.66961 4.25002 9.25961 4.25002 8.84961V5.84961C4.25002 5.60961 4.27002 5.36961 4.30002 5.12961Z" fill="#211B2A"/>
<path d="M12 16.75C7.73 16.75 4.25 13.27 4.25 9V6C4.25 3.38 6.38 1.25 9 1.25H15C17.62 1.25 19.75 3.38 19.75 6V9C19.75 13.27 16.27 16.75 12 16.75ZM9 2.75C7.21 2.75 5.75 4.21 5.75 6V9C5.75 12.45 8.55 15.25 12 15.25C15.45 15.25 18.25 12.45 18.25 9V6C18.25 4.21 16.79 2.75 15 2.75H9Z" fill="#211B2A"/>
</svg>
