<svg width="24" height="24" viewBox="0 0 24 24" fill="none" xmlns="http://www.w3.org/2000/svg">
<path opacity="0.4" d="M20.98 3.01986C20.11 2.14986 18.88 1.80986 17.69 2.10986L7.88998 4.55986C6.23998 4.96986 4.96998 6.24986 4.55998 7.88986L2.10998 17.6999C1.80998 18.8899 2.14998 20.1199 3.01998 20.9899C3.67998 21.6399 4.54998 21.9999 5.44998 21.9999C5.72998 21.9999 6.01998 21.9699 6.29998 21.8899L16.11 19.4399C17.75 19.0299 19.03 17.7599 19.44 16.1099L21.89 6.29986C22.19 5.10986 21.85 3.87986 20.98 3.01986Z" fill="#211B2A"/>
<path d="M12 15.8801C14.1429 15.8801 15.88 14.143 15.88 12.0001C15.88 9.85725 14.1429 8.12012 12 8.12012C9.85713 8.12012 8.12 9.85725 8.12 12.0001C8.12 14.143 9.85713 15.8801 12 15.8801Z" fill="#211B2A"/>
</svg>
