<svg width="24" height="24" viewBox="0 0 24 24" fill="none" xmlns="http://www.w3.org/2000/svg">
<path d="M7.86997 4.58951C6.41997 4.94951 4.94997 6.41951 4.58997 7.86951L2.09997 17.7995C1.34997 20.7995 3.18997 22.6495 6.19997 21.8995L16.13 19.4195C17.57 19.0595 19.05 17.5795 19.41 16.1395L21.9 6.19951C22.65 3.19951 20.81 1.34951 17.8 2.09951L13.01 3.29951" stroke="#211B2A" stroke-width="1.5" stroke-linecap="round" stroke-linejoin="round"/>
<path d="M12 15.5C13.933 15.5 15.5 13.933 15.5 12C15.5 10.067 13.933 8.5 12 8.5C10.067 8.5 8.5 10.067 8.5 12C8.5 13.933 10.067 15.5 12 15.5Z" stroke="#211B2A" stroke-width="1.5" stroke-linecap="round" stroke-linejoin="round"/>
</svg>
