<svg width="24" height="24" viewBox="0 0 24 24" fill="none" xmlns="http://www.w3.org/2000/svg">
<path opacity="0.4" d="M16.19 2H7.81C4.17 2 2 4.17 2 7.81V16.18C2 19.83 4.17 22 7.81 22H16.18C19.82 22 21.99 19.83 21.99 16.19V7.81C22 4.17 19.83 2 16.19 2Z" fill="#211B2A"/>
<path d="M8.81994 9.75043C7.96994 9.75043 7.11994 9.43043 6.46994 8.78043C6.17994 8.49043 6.17994 8.01043 6.46994 7.72043C6.75994 7.43043 7.23994 7.43043 7.52994 7.72043C8.23994 8.43043 9.39994 8.43043 10.1099 7.72043C10.3999 7.43043 10.8799 7.43043 11.1699 7.72043C11.4599 8.01043 11.4599 8.49043 11.1699 8.78043C10.5199 9.42043 9.66994 9.75043 8.81994 9.75043Z" fill="#211B2A"/>
<path d="M15.18 9.75043C14.33 9.75043 13.48 9.43043 12.83 8.78043C12.54 8.49043 12.54 8.01043 12.83 7.72043C13.12 7.43043 13.6 7.43043 13.89 7.72043C14.6 8.43043 15.76 8.43043 16.47 7.72043C16.76 7.43043 17.24 7.43043 17.53 7.72043C17.82 8.01043 17.82 8.49043 17.53 8.78043C16.88 9.42043 16.03 9.75043 15.18 9.75043Z" fill="#211B2A"/>
<path d="M15.6 12.6201H8.4C7.7 12.6201 7.13 13.1901 7.13 13.9001C7.13 16.5901 9.32 18.7801 12.01 18.7801C14.7 18.7801 16.89 16.5901 16.89 13.9001C16.88 13.2001 16.3 12.6201 15.6 12.6201Z" fill="#211B2A"/>
</svg>
