<svg width="24" height="24" viewBox="0 0 24 24" fill="none" xmlns="http://www.w3.org/2000/svg">
<path opacity="0.4" d="M16.19 2H7.81C4.17 2 2 4.17 2 7.81V16.18C2 19.83 4.17 22 7.81 22H16.18C19.82 22 21.99 19.83 21.99 16.19V7.81C22 4.17 19.83 2 16.19 2Z" fill="#211B2A"/>
<path d="M10.6399 9.50043C10.4499 9.50043 10.2599 9.43043 10.1099 9.28043C9.39994 8.57043 8.23994 8.57043 7.52994 9.28043C7.23994 9.57043 6.75994 9.57043 6.46994 9.28043C6.17994 8.99043 6.17994 8.51043 6.46994 8.22043C7.75994 6.93043 9.86994 6.93043 11.1699 8.22043C11.4599 8.51043 11.4599 8.99043 11.1699 9.28043C11.0199 9.43043 10.8299 9.50043 10.6399 9.50043Z" fill="#211B2A"/>
<path d="M13.36 9.50043C13.17 9.50043 12.98 9.43043 12.83 9.28043C12.54 8.99043 12.54 8.51043 12.83 8.22043C14.12 6.93043 16.23 6.93043 17.53 8.22043C17.82 8.51043 17.82 8.99043 17.53 9.28043C17.24 9.57043 16.76 9.57043 16.47 9.28043C15.76 8.57043 14.6 8.57043 13.89 9.28043C13.75 9.43043 13.56 9.50043 13.36 9.50043Z" fill="#211B2A"/>
<path d="M12 11.9199C9.31 11.9199 7.12 14.1099 7.12 16.7999C7.12 17.4999 7.69 18.0799 8.39 18.0799H15.59C16.29 18.0799 16.86 17.5099 16.86 16.7999C16.88 14.1099 14.69 11.9199 12 11.9199Z" fill="#211B2A"/>
</svg>
