<svg width="24" height="24" viewBox="0 0 24 24" fill="none" xmlns="http://www.w3.org/2000/svg">
<path opacity="0.4" d="M20.58 4.01999V5.97C19.9 5.47 19.12 5.1 18.27 4.91C17.83 4.8 17.36 4.75 16.88 4.75C13.43 4.75 10.63 7.55 10.63 11C10.63 12.14 10.94 13.26 11.53 14.22C12.03 15.06 12.73 15.76 13.49 16.23C13.75 16.4 14.02 16.55 14.3 16.68V19.07C14.3 19.68 13.9 20.49 13.4 20.79L12 21.7C10.7 22.51 8.90997 21.6 8.90997 19.98V14.63C8.90997 13.92 8.50999 13.01 8.10999 12.51L4.32001 8.47C3.82001 7.96 3.41998 7.05001 3.41998 6.45001V4.12C3.41998 2.91 4.31997 2 5.40997 2H18.59C19.68 2 20.58 2.90999 20.58 4.01999Z" fill="#211B2A"/>
<path d="M17.92 6.37C17.59 6.29 17.24 6.25 16.88 6.25C14.26 6.25 12.13 8.38 12.13 11C12.13 11.89 12.38 12.73 12.82 13.45C13.19 14.07 13.7 14.6 14.32 14.98C15.06 15.47 15.94 15.75 16.88 15.75C18.62 15.75 20.13 14.82 20.95 13.45C21.39 12.73 21.63 11.89 21.63 11C21.63 8.74 20.05 6.84 17.92 6.37ZM18.83 10.57L16.4 13C16.31 13.09 16.12 13.18 15.99 13.2L15.06 13.33C14.72 13.38 14.49 13.14 14.54 12.81L14.67 11.88C14.69 11.75 14.78 11.57 14.87 11.47L16.95 9.39001L17.3 9.04001C17.72 8.62001 18.21 8.42001 18.82 9.04001C19.43 9.66001 19.25 10.15 18.83 10.57Z" fill="#211B2A"/>
</svg>
