<svg width="24" height="24" viewBox="0 0 24 24" fill="none" xmlns="http://www.w3.org/2000/svg">
<path d="M5.33002 2H18.67C19.78 2 20.69 2.90999 20.69 4.01999V6.23999C20.69 7.04999 20.18 8.06 19.68 8.56" stroke="#211B2A" stroke-width="1.5" stroke-miterlimit="10" stroke-linecap="round" stroke-linejoin="round"/>
<path d="M14.32 19.0702C14.32 19.6802 13.92 20.4802 13.41 20.7902L12 21.7002C10.69 22.5102 8.87 21.6002 8.87 19.9802V14.6302C8.87 13.9202 8.47 13.0102 8.06 12.5102L4.21997 8.47018C3.70997 7.96018 3.31 7.0602 3.31 6.4502" stroke="#211B2A" stroke-width="1.5" stroke-miterlimit="10" stroke-linecap="round" stroke-linejoin="round"/>
<path d="M16.07 16.5201C17.8373 16.5201 19.27 15.0874 19.27 13.3201C19.27 11.5528 17.8373 10.1201 16.07 10.1201C14.3027 10.1201 12.87 11.5528 12.87 13.3201C12.87 15.0874 14.3027 16.5201 16.07 16.5201Z" stroke="#211B2A" stroke-width="1.5" stroke-linecap="round" stroke-linejoin="round"/>
<path d="M19.87 17.1201L18.87 16.1201" stroke="#211B2A" stroke-width="1.5" stroke-linecap="round" stroke-linejoin="round"/>
</svg>
