<svg width="24" height="24" viewBox="0 0 24 24" fill="none" xmlns="http://www.w3.org/2000/svg">
<path d="M20.6 4.09961V6.29961C20.6 7.09961 20.1 8.09961 19.6 8.59961L15.3 12.3996C14.7 12.8996 14.3 13.8996 14.3 14.6996V18.9996C14.3 19.5996 13.9 20.3996 13.4 20.6996L12 21.5996C10.7 22.3996 8.90001 21.4996 8.90001 19.8996V14.5996C8.90001 13.8996 8.50001 12.9996 8.10001 12.4996L7.63001 12.0096C7.32001 11.6796 7.26001 11.1796 7.51001 10.7896L12.63 2.56961C12.81 2.27961 13.13 2.09961 13.48 2.09961H18.6C19.7 2.09961 20.6 2.99961 20.6 4.09961Z" fill="#211B2A"/>
<path d="M10.35 3.62961L6.80002 9.31961C6.46002 9.86961 5.68002 9.94961 5.23002 9.47961L4.30002 8.49961C3.80002 7.99961 3.40002 7.09961 3.40002 6.49961V4.19961C3.40002 2.99961 4.30002 2.09961 5.40002 2.09961H9.50002C10.28 2.09961 10.76 2.95961 10.35 3.62961Z" fill="#211B2A"/>
</svg>
