<svg width="24" height="24" viewBox="0 0 24 24" fill="none" xmlns="http://www.w3.org/2000/svg">
<path d="M5.33002 2H18.67C19.78 2 20.69 2.90999 20.69 4.01999V6.23999C20.69 7.04999 20.18 8.06 19.68 8.56" stroke="#211B2A" stroke-width="1.5" stroke-miterlimit="10" stroke-linecap="round" stroke-linejoin="round"/>
<path d="M13.41 20.7902L12 21.7002C10.69 22.5102 8.87 21.6002 8.87 19.9802V14.6302C8.87 13.9202 8.47 13.0102 8.06 12.5102L4.21997 8.47018C3.70997 7.96018 3.31 7.0602 3.31 6.4502" stroke="#211B2A" stroke-width="1.5" stroke-miterlimit="10" stroke-linecap="round" stroke-linejoin="round"/>
<path d="M17.08 11.8904L13.54 15.4304C13.4 15.5704 13.27 15.8304 13.24 16.0204L13.05 17.3704C12.98 17.8604 13.32 18.2004 13.81 18.1304L15.1599 17.9404C15.3499 17.9104 15.62 17.7804 15.75 17.6404L19.29 14.1004C19.9 13.4904 20.19 12.7804 19.29 11.8804C18.4 10.9904 17.69 11.2804 17.08 11.8904Z" stroke="#211B2A" stroke-width="1.5" stroke-miterlimit="10" stroke-linecap="round" stroke-linejoin="round"/>
<path d="M16.58 12.3906C16.88 13.4706 17.72 14.3106 18.8 14.6106" stroke="#211B2A" stroke-width="1.5" stroke-miterlimit="10" stroke-linecap="round" stroke-linejoin="round"/>
</svg>
