<svg width="24" height="24" viewBox="0 0 24 24" fill="none" xmlns="http://www.w3.org/2000/svg">
<path d="M10.94 22.6496C10.46 22.6496 9.99002 22.5296 9.55002 22.2896C8.67002 21.7996 8.14002 20.9096 8.14002 19.9096V14.6096C8.14002 14.1096 7.81002 13.3596 7.50002 12.9796L3.76002 9.01961C3.13002 8.38961 2.65002 7.30961 2.65002 6.49961V4.19961C2.65002 2.59961 3.86002 1.34961 5.40002 1.34961H18.6C20.12 1.34961 21.35 2.57961 21.35 4.09961V6.29961C21.35 7.34961 20.72 8.53961 20.13 9.12961L15.8 12.9596C15.38 13.3096 15.05 14.0796 15.05 14.6996V18.9996C15.05 19.8896 14.49 20.9196 13.79 21.3396L12.41 22.2296C11.96 22.5096 11.45 22.6496 10.94 22.6496ZM5.40002 2.84961C4.70002 2.84961 4.15002 3.43961 4.15002 4.19961V6.49961C4.15002 6.86961 4.45002 7.58961 4.83002 7.96961L8.64002 11.9796C9.15002 12.6096 9.65002 13.6596 9.65002 14.5996V19.8996C9.65002 20.5496 10.1 20.8696 10.29 20.9696C10.71 21.1996 11.22 21.1996 11.61 20.9596L13 20.0696C13.28 19.8996 13.56 19.3596 13.56 18.9996V14.6996C13.56 13.6296 14.08 12.4496 14.83 11.8196L19.11 8.02961C19.45 7.68961 19.86 6.87961 19.86 6.28961V4.09961C19.86 3.40961 19.3 2.84961 18.61 2.84961H5.40002Z" fill="#211B2A"/>
<path d="M5.99992 10.7503C5.85992 10.7503 5.72992 10.7103 5.59992 10.6403C5.24992 10.4203 5.13992 9.95026 5.35992 9.60026L10.2899 1.70026C10.5099 1.35026 10.9699 1.24026 11.3199 1.46026C11.6699 1.68026 11.7799 2.14026 11.5599 2.49026L6.62992 10.3903C6.48992 10.6203 6.24992 10.7503 5.99992 10.7503Z" fill="#211B2A"/>
</svg>
