<svg width="24" height="24" viewBox="0 0 24 24" fill="none" xmlns="http://www.w3.org/2000/svg">
<path opacity="0.4" d="M13.41 20.7898L12 21.6998C10.69 22.5098 8.87 21.5998 8.87 19.9798V14.6298C8.87 13.9198 8.47 13.0098 8.06 12.5098L4.21997 8.46976C3.70997 7.95976 3.31 7.05977 3.31 6.44977V4.12976C3.31 2.91976 4.22002 2.00977 5.33002 2.00977H18.67C19.78 2.00977 20.69 2.91975 20.69 4.02975V6.24976C20.69 7.05976 20.18 8.06976 19.68 8.56976" stroke="#211B2A" stroke-width="1.5" stroke-miterlimit="10" stroke-linecap="round" stroke-linejoin="round"/>
<path d="M17.08 11.8904L13.54 15.4304C13.4 15.5704 13.27 15.8304 13.24 16.0204L13.05 17.3704C12.98 17.8604 13.32 18.2004 13.81 18.1304L15.1599 17.9404C15.3499 17.9104 15.62 17.7804 15.75 17.6404L19.29 14.1004C19.9 13.4904 20.19 12.7804 19.29 11.8804C18.4 10.9904 17.69 11.2804 17.08 11.8904Z" stroke="#211B2A" stroke-width="1.5" stroke-miterlimit="10" stroke-linecap="round" stroke-linejoin="round"/>
<path d="M16.58 12.3906C16.88 13.4706 17.72 14.3106 18.8 14.6106" stroke="#211B2A" stroke-width="1.5" stroke-miterlimit="10" stroke-linecap="round" stroke-linejoin="round"/>
</svg>
