<svg width="24" height="24" viewBox="0 0 24 24" fill="none" xmlns="http://www.w3.org/2000/svg">
<path d="M6.44995 22C6.03995 22 5.69995 21.66 5.69995 21.25V2.75C5.69995 2.34 6.03995 2 6.44995 2C6.85995 2 7.19995 2.34 7.19995 2.75V21.25C7.19995 21.66 6.85995 22 6.44995 22Z" fill="#211B2A"/>
<path opacity="0.4" d="M15.2001 7.15955L7.10008 3.65955C6.98008 3.59955 6.85008 3.61955 6.74008 3.68955C6.64008 3.75955 6.58008 3.86955 6.58008 3.99955V16.9996C6.58008 17.1296 6.65008 17.2496 6.76008 17.3196C6.82008 17.3596 6.89008 17.3795 6.96008 17.3795C7.02008 17.3795 7.07008 17.3696 7.13008 17.3396L15.4301 13.2396C15.4301 13.2396 15.4301 13.2396 15.4401 13.2396C17.1001 12.3796 17.9901 11.2696 17.9401 10.0996C17.8801 8.91955 16.9101 7.87955 15.2001 7.15955Z" fill="#211B2A"/>
</svg>
