<svg width="24" height="24" viewBox="0 0 24 24" fill="none" xmlns="http://www.w3.org/2000/svg">
<path d="M5.15002 22C4.74002 22 4.40002 21.66 4.40002 21.25V2.75C4.40002 2.34 4.74002 2 5.15002 2C5.56002 2 5.90002 2.34 5.90002 2.75V21.25C5.90002 21.66 5.56002 22 5.15002 22Z" fill="#211B2A"/>
<path opacity="0.4" d="M18.02 12.3304L16.8 11.1104C16.51 10.8604 16.34 10.4904 16.33 10.0804C16.31 9.63035 16.49 9.18035 16.82 8.85035L18.02 7.65035C19.06 6.61035 19.45 5.61035 19.12 4.82035C18.8 4.04035 17.81 3.61035 16.35 3.61035H5.15002C4.94002 3.62035 4.77002 3.79035 4.77002 4.00035V16.0004C4.77002 16.2104 4.94002 16.3804 5.15002 16.3804H16.35C17.79 16.3804 18.76 15.9404 19.09 15.1504C19.42 14.3504 19.04 13.3604 18.02 12.3304Z" fill="#211B2A"/>
</svg>
