<svg width="24" height="24" viewBox="0 0 24 24" fill="none" xmlns="http://www.w3.org/2000/svg">
<path d="M9.99005 22.75C9.79005 22.75 9.63005 22.71 9.51005 22.66C9.11005 22.51 8.43005 22.02 8.43005 20.47V18.03C8.43005 17.62 8.77005 17.28 9.18005 17.28C9.59005 17.28 9.93005 17.62 9.93005 18.03V20.47C9.93005 20.97 10.0201 21.19 10.0601 21.25C10.0901 21.21 10.3001 21.11 10.6301 20.73L18.2001 12.13C18.4801 11.81 18.5201 11.61 18.5201 11.57C18.5001 11.56 18.3201 11.46 17.9001 11.46H16.9701C16.5601 11.46 16.2201 11.12 16.2201 10.71C16.2201 10.3 16.5601 9.95996 16.9701 9.95996H17.9001C19.2401 9.95996 19.7201 10.59 19.8901 10.96C20.0601 11.34 20.2101 12.11 19.3301 13.12L11.7601 21.72C11.0501 22.54 10.4301 22.75 9.99005 22.75Z" fill="#211B2A"/>
<path d="M9.17996 15.2201C8.76996 15.2201 8.42996 14.8801 8.42996 14.4701V14.0401H6.08996C4.74996 14.0401 4.26996 13.4101 4.09996 13.0401C3.92996 12.6601 3.77996 11.8901 4.65996 10.8801L12.23 2.28015C13.25 1.12015 14.08 1.20015 14.48 1.35015C14.88 1.50015 15.56 1.99015 15.56 3.54015V8.85015C15.56 9.26015 15.22 9.60015 14.81 9.60015C14.4 9.60015 14.06 9.26015 14.06 8.85015V3.52015C14.06 3.02015 13.97 2.80015 13.93 2.74015C13.9 2.78015 13.69 2.88015 13.36 3.26015L5.78996 11.8601C5.50996 12.1801 5.46996 12.3801 5.46996 12.4201C5.48996 12.4301 5.66996 12.5301 6.08996 12.5301H9.17996C9.58996 12.5301 9.92996 12.8701 9.92996 13.2801V14.4601C9.92996 14.8801 9.58996 15.2201 9.17996 15.2201Z" fill="#211B2A"/>
<path d="M1.99994 22.7504C1.80994 22.7504 1.61994 22.6804 1.46994 22.5304C1.17994 22.2404 1.17994 21.7604 1.46994 21.4704L21.4699 1.47043C21.7599 1.18043 22.2399 1.18043 22.5299 1.47043C22.8199 1.76043 22.8199 2.24043 22.5299 2.53043L2.52994 22.5304C2.37994 22.6804 2.18994 22.7504 1.99994 22.7504Z" fill="#211B2A"/>
</svg>
