<svg width="24" height="24" viewBox="0 0 24 24" fill="none" xmlns="http://www.w3.org/2000/svg">
<path d="M11.07 18.1696C10.9 18.1696 10.74 18.1396 10.57 18.0796C10.02 17.8696 9.65995 17.3596 9.65995 16.7696V13.4696H8.67995C8.11995 13.4696 7.62995 13.1496 7.39995 12.6496C7.16995 12.1396 7.25995 11.5696 7.62995 11.1496L11.89 6.30963C12.28 5.86963 12.88 5.71963 13.43 5.92963C13.98 6.13963 14.34 6.64963 14.34 7.23963V10.5396H15.33C15.89 10.5396 16.38 10.8596 16.61 11.3596C16.84 11.8696 16.75 12.4396 16.38 12.8596L12.12 17.6996C11.84 17.9996 11.46 18.1696 11.07 18.1696ZM8.89995 11.9696H10.41C10.82 11.9696 11.16 12.3096 11.16 12.7196V16.4996L15.1 12.0296H13.59C13.18 12.0296 12.84 11.6896 12.84 11.2796V7.49963L8.89995 11.9696Z" fill="#211B2A"/>
<path d="M11.97 22.75C6.04997 22.75 1.21997 17.93 1.21997 12C1.21997 6.07 6.04997 1.25 11.97 1.25C17.89 1.25 22.72 6.07 22.72 12C22.72 17.93 17.9 22.75 11.97 22.75ZM11.97 2.75C6.86997 2.75 2.71997 6.9 2.71997 12C2.71997 17.1 6.86997 21.25 11.97 21.25C17.07 21.25 21.22 17.1 21.22 12C21.22 6.9 17.07 2.75 11.97 2.75Z" fill="#211B2A"/>
</svg>
