<svg width="24" height="24" viewBox="0 0 24 24" fill="none" xmlns="http://www.w3.org/2000/svg">
<path opacity="0.4" d="M14.9 2H9.10001C8.42001 2 7.46 2.4 6.98 2.88L2.88 6.98001C2.4 7.46001 2 8.42001 2 9.10001V14.9C2 15.58 2.4 16.54 2.88 17.02L6.98 21.12C7.46 21.6 8.42001 22 9.10001 22H14.9C15.58 22 16.54 21.6 17.02 21.12L21.12 17.02C21.6 16.54 22 15.58 22 14.9V9.10001C22 8.42001 21.6 7.46001 21.12 6.98001L17.02 2.88C16.54 2.4 15.58 2 14.9 2Z" fill="#211B2A"/>
<path d="M13.06 12.0004L16.03 9.03043C16.32 8.74043 16.32 8.26043 16.03 7.97043C15.74 7.68043 15.26 7.68043 14.97 7.97043L12 10.9404L9.03 7.97043C8.74 7.68043 8.26 7.68043 7.97 7.97043C7.68 8.26043 7.68 8.74043 7.97 9.03043L10.94 12.0004L7.97 14.9704C7.68 15.2604 7.68 15.7404 7.97 16.0304C8.12 16.1804 8.31 16.2504 8.5 16.2504C8.69 16.2504 8.88 16.1804 9.03 16.0304L12 13.0604L14.97 16.0304C15.12 16.1804 15.31 16.2504 15.5 16.2504C15.69 16.2504 15.88 16.1804 16.03 16.0304C16.32 15.7404 16.32 15.2604 16.03 14.9704L13.06 12.0004Z" fill="#211B2A"/>
</svg>
