<svg width="24" height="24" viewBox="0 0 24 24" fill="none" xmlns="http://www.w3.org/2000/svg">
<path d="M17.02 2.88C16.54 2.4 15.58 2 14.9 2H9.1C8.42 2 7.46 2.4 6.98 2.88L2.88 6.98C2.4 7.46 2 8.42 2 9.1V14.9C2 15.58 2.4 16.54 2.88 17.02L4.41 18.55L18.55 4.41L17.02 2.88Z" fill="#211B2A"/>
<path d="M21.12 6.97973L19.61 5.46973L5.46997 19.6097L6.97997 21.1197C7.45997 21.5997 8.41997 21.9997 9.09997 21.9997H14.9C15.58 21.9997 16.54 21.5997 17.02 21.1197L21.12 17.0197C21.6 16.5397 22 15.5797 22 14.8997V9.09973C22 8.41973 21.6 7.45973 21.12 6.97973Z" fill="#211B2A"/>
<path d="M2.49001 20.4698C2.20001 20.7598 2.20001 21.2398 2.49001 21.5298C2.64001 21.6798 2.83001 21.7498 3.02001 21.7498C3.21001 21.7498 3.40001 21.6798 3.55001 21.5298L5.47001 19.6098L4.41001 18.5498L2.49001 20.4698Z" fill="#211B2A"/>
<path d="M21.53 3.54996C21.82 3.25996 21.82 2.77996 21.53 2.48996C21.24 2.19996 20.76 2.19996 20.47 2.48996L18.55 4.40996L19.61 5.46996L21.53 3.54996Z" fill="#211B2A"/>
</svg>
