<svg width="24" height="24" viewBox="0 0 24 24" fill="none" xmlns="http://www.w3.org/2000/svg">
<path opacity="0.4" d="M22 20.07V12.18C22 6.57999 17.5 2 12 2C6.5 2 2 6.57999 2 12.18V20.07C2 21.33 2.74998 21.67 3.66998 20.83L4.66998 19.92C5.03998 19.58 5.64001 19.58 6.01001 19.92L8.01001 21.75C8.38001 22.09 8.97998 22.09 9.34998 21.75L11.35 19.92C11.72 19.58 12.32 19.58 12.69 19.92L14.69 21.75C15.06 22.09 15.66 22.09 16.03 21.75L18.03 19.92C18.4 19.58 19 19.58 19.37 19.92L20.37 20.83C21.25 21.67 22 21.33 22 20.07Z" fill="#211B2A"/>
<path d="M12 16.0703C10.43 16.0703 8.86001 15.5803 7.55001 14.6003C7.22001 14.3503 7.15004 13.8803 7.40004 13.5503C7.65004 13.2203 8.12003 13.1503 8.45003 13.4003C10.54 14.9703 13.46 14.9703 15.55 13.4003C15.88 13.1503 16.35 13.2203 16.6 13.5503C16.85 13.8803 16.78 14.3503 16.45 14.6003C15.14 15.5803 13.57 16.0703 12 16.0703Z" fill="#211B2A"/>
<path d="M12 11.3801C13.3144 11.3801 14.38 10.3146 14.38 9.00012C14.38 7.68568 13.3144 6.62012 12 6.62012C10.6856 6.62012 9.62 7.68568 9.62 9.00012C9.62 10.3146 10.6856 11.3801 12 11.3801Z" fill="#211B2A"/>
</svg>
