<svg width="24" height="24" viewBox="0 0 24 24" fill="none" xmlns="http://www.w3.org/2000/svg">
<path d="M13.19 16.29H10.81V17.71H13.19V16.29Z" fill="#211B2A"/>
<path d="M7.95001 2.71C7.95001 3.11 7.63001 3.43 7.24001 3.43H6.29001C4.58001 3.43 3.19001 4.82 3.19001 6.52V12.4C2.34001 12.83 1.76001 13.71 1.76001 14.73V6.52C1.76001 4.03 3.79001 2 6.29001 2H7.24001C7.63001 2 7.95001 2.32 7.95001 2.71Z" fill="#211B2A"/>
<path d="M22.24 6.52V14.73C22.24 13.71 21.66 12.83 20.81 12.4V6.52C20.81 4.82 19.42 3.43 17.71 3.43H16.76C16.37 3.43 16.05 3.11 16.05 2.71C16.05 2.32 16.37 2 16.76 2H17.71C20.21 2 22.24 4.03 22.24 6.52Z" fill="#211B2A"/>
<path opacity="0.4" d="M10.81 14.7304V19.3804C10.81 20.8304 9.63001 22.0004 8.19001 22.0004H4.38001C2.94001 22.0004 1.76001 20.8304 1.76001 19.3804V14.7304C1.76001 13.7104 2.34001 12.8304 3.19001 12.4004C3.55001 12.2104 3.95001 12.1104 4.38001 12.1104H8.19001C9.63001 12.1104 10.81 13.2804 10.81 14.7304Z" fill="#211B2A"/>
<path opacity="0.4" d="M22.24 14.7304V19.3804C22.24 20.8304 21.06 22.0004 19.62 22.0004H15.81C14.37 22.0004 13.19 20.8304 13.19 19.3804V14.7304C13.19 13.2804 14.37 12.1104 15.81 12.1104H19.62C20.05 12.1104 20.45 12.2104 20.81 12.4004C21.66 12.8304 22.24 13.7104 22.24 14.7304Z" fill="#211B2A"/>
</svg>
