<svg width="24" height="24" viewBox="0 0 24 24" fill="none" xmlns="http://www.w3.org/2000/svg">
<path opacity="0.4" d="M11.97 22C17.4928 22 21.97 17.5228 21.97 12C21.97 6.47715 17.4928 2 11.97 2C6.44715 2 1.97 6.47715 1.97 12C1.97 17.5228 6.44715 22 11.97 22Z" fill="#211B2A"/>
<path d="M12 19.2499C9.85 19.2499 7.83 18.1999 6.6 16.4299C6.36 16.0899 6.45 15.6199 6.79 15.3899C7.13 15.1499 7.6 15.2399 7.83 15.5799C8.78 16.9399 10.34 17.7599 12 17.7599C13.66 17.7599 15.22 16.9499 16.17 15.5799C16.41 15.2399 16.87 15.1599 17.21 15.3899C17.55 15.6299 17.63 16.0899 17.4 16.4299C16.17 18.1999 14.15 19.2499 12 19.2499Z" fill="#211B2A"/>
</svg>
