<svg width="24" height="24" viewBox="0 0 24 24" fill="none" xmlns="http://www.w3.org/2000/svg">
<path d="M2.03002 11.2799C1.86002 10.2999 2.36004 8.98989 3.14004 8.36989L10.07 2.81984C11.13 1.96984 12.86 1.96985 13.93 2.82985L20.86 8.36989C21.63 8.98989 22.13 10.2999 21.97 11.2799L20.64 19.2399C20.4 20.6499 19.03 21.81 17.6 21.81H6.40002C4.96002 21.81 3.60001 20.6599 3.36001 19.2399L2.72002 15.3799" stroke="#211B2A" stroke-width="1.5" stroke-linecap="round" stroke-linejoin="round"/>
<path d="M9.88 14.3802C11.15 13.1702 12.85 13.1702 14.12 14.3802" stroke="#211B2A" stroke-width="1.5" stroke-linecap="round" stroke-linejoin="round"/>
<path d="M8.75 11.4502C8.4 11.6802 8.07 11.9503 7.75 12.2603" stroke="#211B2A" stroke-width="1.5" stroke-linecap="round" stroke-linejoin="round"/>
<path d="M16.24 12.2603C15.7 11.7303 15.1 11.3203 14.48 11.0203C13.68 10.6403 12.84 10.4502 12 10.4502" stroke="#211B2A" stroke-width="1.5" stroke-linecap="round" stroke-linejoin="round"/>
<path d="M11.9955 16.5H12.0045" stroke="#211B2A" stroke-width="2" stroke-linecap="round" stroke-linejoin="round"/>
</svg>
