<svg width="24" height="24" viewBox="0 0 24 24" fill="none" xmlns="http://www.w3.org/2000/svg">
<path opacity="0.4" d="M10.07 2.81984L3.14004 8.36983C2.36004 8.98983 1.86002 10.2999 2.03002 11.2799L3.36001 19.2398C3.60001 20.6598 4.96002 21.8098 6.40002 21.8098H17.6C19.03 21.8098 20.4 20.6498 20.64 19.2398L21.97 11.2799C22.13 10.2999 21.63 8.98983 20.86 8.36983L13.93 2.82985C12.86 1.96985 11.13 1.96984 10.07 2.81984Z" fill="#211B2A"/>
<path d="M14.12 15.1301C13.93 15.1301 13.75 15.0601 13.6 14.9201C12.63 13.9901 11.37 13.9901 10.39 14.9201C10.09 15.2101 9.61997 15.2002 9.32997 14.9002C9.03997 14.6002 9.04999 14.1302 9.34999 13.8402C10.9 12.3502 13.07 12.3502 14.63 13.8402C14.93 14.1302 14.94 14.6002 14.65 14.9002C14.52 15.0502 14.32 15.1301 14.12 15.1301Z" fill="#211B2A"/>
<path d="M16.24 13.0098C16.05 13.0098 15.86 12.9398 15.72 12.7998C15.25 12.3398 14.72 11.9698 14.16 11.6998C12.76 11.0298 11.23 11.0298 9.84 11.6998C9.28 11.9698 8.76 12.3398 8.28 12.7998C7.99 13.0898 7.51001 13.0898 7.22001 12.7898C6.93001 12.4898 6.94002 12.0198 7.23002 11.7298C7.82002 11.1498 8.48001 10.6898 9.19001 10.3498C11 9.47977 13 9.47977 14.8 10.3498C15.51 10.6898 16.17 11.1498 16.76 11.7298C17.06 12.0198 17.06 12.4898 16.77 12.7898C16.63 12.9298 16.44 13.0098 16.24 13.0098Z" fill="#211B2A"/>
<path d="M12 17.5003C11.74 17.5003 11.49 17.4003 11.29 17.2103C10.9 16.8203 10.9 16.1903 11.29 15.8003C11.68 15.4103 12.32 15.4103 12.71 15.8003C13.1 16.1903 13.1 16.8203 12.71 17.2103C12.51 17.4003 12.26 17.5003 12 17.5003Z" fill="#211B2A"/>
</svg>
