<svg width="24" height="24" viewBox="0 0 24 24" fill="none" xmlns="http://www.w3.org/2000/svg">
<path d="M12.01 22.7403C11.38 22.7403 10.76 22.5303 10.27 22.1103L8.68999 20.7603C8.52999 20.6203 8.13 20.4803 7.92 20.4803H6.17C4.69 20.4803 3.49 19.2803 3.49 17.8003V16.0903C3.49 15.8803 3.35 15.4803 3.22 15.3303L1.86 13.7303C1.04 12.7603 1.04 11.2403 1.86 10.2603L3.22 8.66031C3.35 8.51031 3.49 8.11031 3.49 7.90031V6.20031C3.49 4.72031 4.69 3.52031 6.17 3.52031H7.9C8.11 3.52031 8.5 3.37031 8.67 3.23031L10.25 1.88031C11.23 1.05031 12.76 1.05031 13.74 1.88031L15.32 3.23031C15.48 3.37031 15.89 3.51031 16.1 3.51031H17.8C19.28 3.51031 20.48 4.71031 20.48 6.19031V7.89031C20.48 8.10031 20.63 8.49031 20.77 8.66031L22.12 10.2403C22.96 11.2303 22.95 12.7603 22.12 13.7303L20.77 15.3103C20.63 15.4803 20.49 15.8703 20.49 16.0803V17.7803C20.49 19.2603 19.29 20.4603 17.81 20.4603H16.11C15.9 20.4603 15.51 20.6103 15.33 20.7503L13.75 22.1003C13.26 22.5303 12.63 22.7403 12.01 22.7403ZM6.17 5.02031C5.52 5.02031 4.98999 5.55031 4.98999 6.20031V7.90031C4.98999 8.47031 4.73 9.19031 4.36 9.63031L3 11.2303C2.66 11.6403 2.66 12.3603 3 12.7603L4.34999 14.3503C4.70999 14.7603 4.98 15.5103 4.98 16.0803V17.7903C4.98 18.4403 5.50999 18.9703 6.16 18.9703H7.9C8.46 18.9703 9.2 19.2403 9.64 19.6103L11.23 20.9703C11.64 21.3203 12.36 21.3203 12.77 20.9703L14.35 19.6203C14.8 19.2403 15.53 18.9803 16.09 18.9803H17.79C18.44 18.9803 18.97 18.4503 18.97 17.8003V16.1003C18.97 15.5403 19.24 14.8103 19.61 14.3603L20.97 12.7703C21.32 12.3603 21.32 11.6403 20.97 11.2303L19.62 9.65031C19.24 9.20031 18.98 8.47031 18.98 7.91031V6.20031C18.98 5.55031 18.45 5.02031 17.8 5.02031H16.1C15.53 5.02031 14.79 4.75031 14.35 4.38031L12.76 3.02031C12.35 2.67031 11.64 2.67031 11.22 3.02031L9.64999 4.38031C9.2 4.75031 8.47 5.02031 7.9 5.02031H6.17Z" fill="#211B2A"/>
<path d="M12 16.8701C11.45 16.8701 11 16.4201 11 15.8701C11 15.3201 11.44 14.8701 12 14.8701C12.55 14.8701 13 15.3201 13 15.8701C13 16.4201 12.56 16.8701 12 16.8701Z" fill="#211B2A"/>
<path d="M12 13.7199C11.59 13.7199 11.25 13.3799 11.25 12.9699V8.12988C11.25 7.71988 11.59 7.37988 12 7.37988C12.41 7.37988 12.75 7.71988 12.75 8.12988V12.9599C12.75 13.3799 12.42 13.7199 12 13.7199Z" fill="#211B2A"/>
</svg>
