<svg width="24" height="24" viewBox="0 0 24 24" fill="none" xmlns="http://www.w3.org/2000/svg">
<path d="M12.5 5.48027C12.58 5.48027 12.66 5.48027 12.75 5.49027V2.53027C12.75 2.12027 12.41 1.78027 12 1.78027C11.59 1.78027 11.25 2.12027 11.25 2.53027V5.49027C11.33 5.48027 11.41 5.48027 11.5 5.48027C6.88997 5.71027 3.21997 9.51027 3.21997 14.1803V16.1203C3.21997 17.2203 4.11997 18.1203 5.21997 18.1203H18.78C19.88 18.1203 20.78 17.2203 20.78 16.1203V14.1803C20.78 9.51027 17.11 5.71027 12.5 5.48027Z" fill="#211B2A"/>
<path d="M14.73 19.1104C15.06 19.1104 15.3 19.4204 15.22 19.7404C14.84 21.1704 13.54 22.2204 12 22.2204C10.46 22.2204 9.16001 21.1704 8.78001 19.7404C8.70001 19.4204 8.94001 19.1104 9.27001 19.1104H14.73Z" fill="#211B2A"/>
</svg>
