<svg width="24" height="24" viewBox="0 0 24 24" fill="none" xmlns="http://www.w3.org/2000/svg">
<path d="M20.96 17.8405L19.33 18.3905C18.88 18.5405 18.52 18.8905 18.37 19.3505L17.82 20.9805C17.35 22.3905 15.37 22.3605 14.93 20.9505L13.08 15.0005C12.72 13.8205 13.81 12.7205 14.98 13.0905L20.94 14.9405C22.34 15.3805 22.36 17.3705 20.96 17.8405Z" fill="#211B2A"/>
<path opacity="0.4" d="M11.5 21C16.7467 21 21 16.7467 21 11.5C21 6.25329 16.7467 2 11.5 2C6.25329 2 2 6.25329 2 11.5C2 16.7467 6.25329 21 11.5 21Z" fill="#211B2A"/>
</svg>
