<svg width="24" height="24" viewBox="0 0 24 24" fill="none" xmlns="http://www.w3.org/2000/svg">
<path d="M20.96 17.8405L19.33 18.3905C18.88 18.5405 18.52 18.8905 18.37 19.3505L17.82 20.9805C17.35 22.3905 15.37 22.3605 14.93 20.9505L13.08 15.0005C12.72 13.8205 13.81 12.7205 14.98 13.0905L20.94 14.9405C22.34 15.3805 22.36 17.3705 20.96 17.8405Z" stroke="#211B2A" stroke-width="1.5" stroke-linecap="round" stroke-linejoin="round"/>
<path d="M3.98 6.03027C2.74 7.70027 2 9.76027 2 12.0003C2 17.5203 6.48 22.0003 12 22.0003" stroke="#211B2A" stroke-width="1.5" stroke-linecap="round" stroke-linejoin="round"/>
<path d="M22 12C22 6.48 17.52 2 12 2C10.48 2 9.05001 2.34 7.76001 2.94" stroke="#211B2A" stroke-width="1.5" stroke-linecap="round" stroke-linejoin="round"/>
</svg>
