<svg width="24" height="24" viewBox="0 0 24 24" fill="none" xmlns="http://www.w3.org/2000/svg">
<path d="M20.96 17.8405L19.33 18.3905C18.88 18.5405 18.52 18.8905 18.37 19.3505L17.82 20.9805C17.35 22.3905 15.37 22.3605 14.93 20.9505L13.08 15.0005C12.72 13.8205 13.81 12.7205 14.98 13.0905L20.94 14.9405C22.34 15.3805 22.36 17.3705 20.96 17.8405Z" fill="#211B2A"/>
<path d="M21 11.5004C21 11.9304 20.97 12.3604 20.92 12.7804C20.88 13.0804 20.57 13.2604 20.28 13.1704L15.43 11.6604C14.35 11.3304 13.2 11.6104 12.4 12.4004C11.6 13.2004 11.31 14.3704 11.65 15.4504L13.15 20.2804C13.24 20.5704 13.05 20.8804 12.75 20.9204C12.33 20.9704 11.92 21.0004 11.5 21.0004C6.16003 21.0004 1.86003 16.6104 2.00003 11.2304C2.14003 6.27039 6.27003 2.14039 11.23 2.00039C16.61 1.86039 21 6.16039 21 11.5004Z" fill="#211B2A"/>
</svg>
