<svg width="24" height="24" viewBox="0 0 24 24" fill="none" xmlns="http://www.w3.org/2000/svg">
<path opacity="0.4" d="M15.48 2H7.53001C4.07001 2 2.01001 4.05999 2.01001 7.51999V15.47C2.01001 18.93 4.08001 20.99 7.53001 20.99H15.48C18.94 20.99 21 18.93 21 15.47V7.51999C21 4.05999 18.93 2 15.48 2Z" fill="#211B2A"/>
<path d="M21.96 18.8405L20.33 19.3905C19.88 19.5405 19.52 19.8905 19.37 20.3505L18.82 21.9805C18.35 23.3905 16.37 23.3605 15.93 21.9505L14.08 16.0005C13.72 14.8205 14.81 13.7205 15.98 14.0905L21.94 15.9405C23.34 16.3805 23.36 18.3705 21.96 18.8405Z" fill="#211B2A"/>
</svg>
