<svg width="24" height="24" viewBox="0 0 24 24" fill="none" xmlns="http://www.w3.org/2000/svg">
<path d="M14.04 22.75H9.25C7.63 22.75 6.16 22.12 5.1 20.96C4.04 19.81 3.53 18.29 3.67 16.68C4.01 12.58 7.63 9.25 11.75 9.25C15.54 9.25 19.12 12.29 19.75 16.02C20.05 17.8 19.61 19.48 18.53 20.76C17.43 22.04 15.84 22.75 14.04 22.75ZM11.74 10.75C8.39 10.75 5.44 13.47 5.16 16.81C5.06 18 5.43 19.11 6.2 19.95C6.97 20.79 8.05 21.25 9.24 21.25H14.03C15.38 21.25 16.57 20.73 17.36 19.8C18.15 18.87 18.47 17.61 18.25 16.27C17.75 13.23 14.83 10.75 11.74 10.75Z" fill="#211B2A"/>
<path d="M10.47 8.25C8.68 8.25 7.22 6.79 7.22 5C7.22 3.21 8.68 1.75 10.47 1.75C12.26 1.75 13.72 3.21 13.72 5C13.72 6.79 12.27 8.25 10.47 8.25ZM10.47 3.25C9.51 3.25 8.72 4.04 8.72 5C8.72 5.96 9.51 6.75 10.47 6.75C11.43 6.75 12.22 5.96 12.22 5C12.22 4.04 11.44 3.25 10.47 3.25Z" fill="#211B2A"/>
<path d="M17.3 9.4502C15.78 9.4502 14.55 8.22019 14.55 6.7002C14.55 5.1802 15.78 3.9502 17.3 3.9502C18.82 3.9502 20.05 5.1802 20.05 6.7002C20.05 8.22019 18.82 9.4502 17.3 9.4502ZM17.3 5.4502C16.61 5.4502 16.05 6.0102 16.05 6.7002C16.05 7.3902 16.61 7.9502 17.3 7.9502C17.99 7.9502 18.55 7.3902 18.55 6.7002C18.55 6.0102 17.99 5.4502 17.3 5.4502Z" fill="#211B2A"/>
<path d="M21 13.4502C19.76 13.4502 18.75 12.4402 18.75 11.2002C18.75 9.9602 19.76 8.9502 21 8.9502C22.24 8.9502 23.25 9.9602 23.25 11.2002C23.25 12.4402 22.24 13.4502 21 13.4502ZM21 10.4502C20.59 10.4502 20.25 10.7902 20.25 11.2002C20.25 11.6102 20.59 11.9502 21 11.9502C21.41 11.9502 21.75 11.6102 21.75 11.2002C21.75 10.7902 21.41 10.4502 21 10.4502Z" fill="#211B2A"/>
<path d="M3.97 11.4502C2.45 11.4502 1.22 10.2202 1.22 8.7002C1.22 7.1802 2.45 5.9502 3.97 5.9502C5.49 5.9502 6.72 7.1802 6.72 8.7002C6.72 10.2202 5.49 11.4502 3.97 11.4502ZM3.97 7.4502C3.28 7.4502 2.72 8.0102 2.72 8.7002C2.72 9.3902 3.28 9.9502 3.97 9.9502C4.66 9.9502 5.22 9.3902 5.22 8.7002C5.22 8.0102 4.66 7.4502 3.97 7.4502Z" fill="#211B2A"/>
</svg>
