<svg width="24" height="24" viewBox="0 0 24 24" fill="none" xmlns="http://www.w3.org/2000/svg">
<path d="M19.08 15.7203C18.49 12.1903 15.1 9.32031 11.52 9.32031C7.62997 9.32031 4.20997 12.4703 3.87997 16.3503C3.74997 17.8503 4.22997 19.2703 5.21997 20.3403C6.19997 21.4103 7.57997 22.0003 9.07997 22.0003H13.76C15.45 22.0003 16.93 21.3403 17.94 20.1503C18.95 18.9603 19.35 17.3803 19.08 15.7203Z" fill="#211B2A"/>
<path d="M10.28 7.86C11.8982 7.86 13.21 6.54819 13.21 4.93C13.21 3.31181 11.8982 2 10.28 2C8.6618 2 7.35 3.31181 7.35 4.93C7.35 6.54819 8.6618 7.86 10.28 7.86Z" fill="#211B2A"/>
<path d="M16.94 9.03039C18.2876 9.03039 19.38 7.93797 19.38 6.59039C19.38 5.24282 18.2876 4.15039 16.94 4.15039C15.5924 4.15039 14.5 5.24282 14.5 6.59039C14.5 7.93797 15.5924 9.03039 16.94 9.03039Z" fill="#211B2A"/>
<path d="M20.55 12.9303C21.6269 12.9303 22.5 12.0572 22.5 10.9803C22.5 9.90332 21.6269 9.03027 20.55 9.03027C19.473 9.03027 18.6 9.90332 18.6 10.9803C18.6 12.0572 19.473 12.9303 20.55 12.9303Z" fill="#211B2A"/>
<path d="M3.94 10.9796C5.28757 10.9796 6.38 9.88718 6.38 8.53961C6.38 7.19203 5.28757 6.09961 3.94 6.09961C2.59243 6.09961 1.5 7.19203 1.5 8.53961C1.5 9.88718 2.59243 10.9796 3.94 10.9796Z" fill="#211B2A"/>
</svg>
