<svg width="24" height="24" viewBox="0 0 24 24" fill="none" xmlns="http://www.w3.org/2000/svg">
<path opacity="0.4" d="M8.67 14H4C2.9 14 2 14.9 2 16V22H8.67V14Z" fill="#211B2A"/>
<path d="M13.33 10H10.66C9.56 10 8.66 10.9 8.66 12V22H15.33V12C15.33 10.9 14.44 10 13.33 10Z" fill="#211B2A"/>
<path opacity="0.4" d="M20 17H15.33V22H22V19C22 17.9 21.1 17 20 17Z" fill="#211B2A"/>
<path d="M15.01 4.85048C15.32 4.54048 15.4401 4.17048 15.3401 3.85048C15.2401 3.53048 14.9301 3.30049 14.4901 3.23049L13.53 3.07048C13.49 3.06048 13.4001 3.00047 13.3801 2.96047L12.85 1.90047C12.45 1.09047 11.5401 1.09047 11.1401 1.90047L10.6101 2.96047C10.5901 3.00047 10.5 3.06048 10.46 3.07048L9.50005 3.23049C9.06005 3.30049 8.76005 3.53048 8.65005 3.85048C8.55005 4.17048 8.67005 4.54048 8.98005 4.85048L9.72005 5.60048C9.75005 5.63048 9.79005 5.75048 9.78005 5.79048L9.57005 6.71047C9.41005 7.39047 9.67005 7.70046 9.84005 7.83046C10.0101 7.95046 10.3801 8.11048 10.9901 7.75047L11.8901 7.22048C11.9301 7.19048 12.06 7.19048 12.1 7.22048L13.0001 7.75047C13.2801 7.92048 13.51 7.97048 13.69 7.97048C13.9 7.97048 14.0501 7.89046 14.1401 7.83046C14.3101 7.71046 14.5701 7.40047 14.4101 6.71047L14.2001 5.79048C14.1901 5.74048 14.22 5.63048 14.26 5.60048L15.01 4.85048Z" fill="#211B2A"/>
</svg>
