<svg width="24" height="24" viewBox="0 0 24 24" fill="none" xmlns="http://www.w3.org/2000/svg">
<path d="M23 15.3695V17.5596C23 19.9996 21.22 22.2995 18.8 22.9695C18.63 23.0095 18.45 23.0095 18.29 22.9695C17.11 22.6495 16.07 21.9295 15.34 20.9995C14.55 20.0195 14.09 18.8096 14.09 17.5596V15.3695C14.09 14.9495 14.4 14.4895 14.78 14.3295L17.56 13.1895C18.19 12.9395 18.89 12.9395 19.52 13.1895L20.52 13.5995L22.31 14.3295C22.69 14.4895 23 14.9495 23 15.3695Z" stroke="#211B2A" stroke-width="1.5" stroke-linecap="round" stroke-linejoin="round"/>
<path opacity="0.4" d="M20.9501 11.0103L20.52 13.6003L19.52 13.1902C18.89 12.9402 18.19 12.9402 17.56 13.1902L14.78 14.3302C14.4 14.4902 14.09 14.9503 14.09 15.3703V17.5604C14.09 18.8104 14.55 20.0203 15.34 21.0003H6.18003C4.81003 21.0003 3.52005 19.9104 3.29005 18.5604L2.03004 11.0103C1.87004 10.0803 2.34002 8.83028 3.08002 8.24028L9.66004 2.98027C10.67 2.17027 12.31 2.17028 13.32 2.99028L19.9 8.24028C20.63 8.83028 21.1101 10.0803 20.9501 11.0103Z" stroke="#211B2A" stroke-width="1.5" stroke-linecap="round" stroke-linejoin="round"/>
</svg>
