<svg width="24" height="24" viewBox="0 0 24 24" fill="none" xmlns="http://www.w3.org/2000/svg">
<path d="M23 15.3704V17.5604C23 20.0004 21.22 22.3004 18.8 22.9704C18.63 23.0104 18.45 23.0104 18.29 22.9704C17.11 22.6504 16.07 21.9304 15.34 21.0004C14.55 20.0204 14.09 18.8104 14.09 17.5604V15.3704C14.09 14.9504 14.4 14.4904 14.78 14.3304L17.56 13.1904C18.19 12.9404 18.89 12.9404 19.52 13.1904L20.52 13.6004L22.31 14.3304C22.69 14.4904 23 14.9504 23 15.3704Z" fill="#211B2A"/>
<path opacity="0.4" d="M20.9501 11.0103L20.52 13.6003L19.52 13.1903C18.89 12.9403 18.19 12.9403 17.56 13.1903L14.78 14.3303C14.4 14.4903 14.09 14.9503 14.09 15.3703V17.5603C14.09 18.8103 14.55 20.0203 15.34 21.0003H6.18003C4.81003 21.0003 3.52005 19.9103 3.29005 18.5603L2.03004 11.0103C1.87004 10.0803 2.34002 8.83028 3.08002 8.24028L9.66004 2.98027C10.67 2.17027 12.31 2.17028 13.32 2.99028L19.9 8.24028C20.63 8.83028 21.1101 10.0803 20.9501 11.0103Z" fill="#211B2A"/>
</svg>
