<svg width="24" height="24" viewBox="0 0 24 24" fill="none" xmlns="http://www.w3.org/2000/svg">
<path opacity="0.4" d="M9.51002 4.22965L18.07 8.50965C21.91 10.4296 21.91 13.5696 18.07 15.4896L9.51002 19.7696C3.75002 22.6496 1.40002 20.2896 4.28002 14.5396L5.15002 12.8096C5.40002 12.2996 5.40002 11.7096 5.15002 11.1996L4.28002 9.45965C1.40002 3.70965 3.76002 1.34965 9.51002 4.22965Z" fill="#211B2A"/>
<path d="M14.8399 12.75H9.43994C9.02994 12.75 8.68994 12.41 8.68994 12C8.68994 11.59 9.02994 11.25 9.43994 11.25H14.8399C15.2499 11.25 15.5899 11.59 15.5899 12C15.5899 12.41 15.2499 12.75 14.8399 12.75Z" fill="#211B2A"/>
</svg>
