<svg width="24" height="24" viewBox="0 0 24 24" fill="none" xmlns="http://www.w3.org/2000/svg">
<path d="M18.9699 3.75V7.25C18.9699 8.22 18.1899 9 17.2199 9H8.96C8.56999 9 8.17997 8.85999 7.86997 8.62L5.67997 6.87C4.80997 6.17 4.80997 4.83 5.67997 4.13L7.86997 2.38C8.17997 2.14 8.56999 2 8.96 2H17.2199C18.1899 2 18.9699 2.78 18.9699 3.75Z" fill="#211B2A"/>
<path d="M18.34 16.87L16.16 18.62C15.85 18.86 15.46 19 15.06 19H6.79999C5.82999 19 5.04999 18.22 5.04999 17.25V13.75C5.04999 12.78 5.82999 12 6.79999 12H15.06C15.46 12 15.85 12.14 16.16 12.38L18.34 14.13C19.22 14.83 19.22 16.17 18.34 16.87Z" fill="#211B2A"/>
<path opacity="0.4" d="M12.75 9H11.25V12H12.75V9Z" fill="#211B2A"/>
<path opacity="0.4" d="M15.75 22C15.75 22.41 15.41 22.75 15 22.75H9C8.59 22.75 8.25 22.41 8.25 22C8.25 21.59 8.59 21.25 9 21.25H11.25V19H12.75V21.25H15C15.41 21.25 15.75 21.59 15.75 22Z" fill="#211B2A"/>
</svg>
