<svg width="24" height="24" viewBox="0 0 24 24" fill="none" xmlns="http://www.w3.org/2000/svg">
<path d="M12 22.75C6.07 22.75 1.25 17.93 1.25 12C1.25 6.07 6.07 1.25 12 1.25C17.93 1.25 22.75 6.07 22.75 12C22.75 17.93 17.93 22.75 12 22.75ZM12 2.75C6.9 2.75 2.75 6.9 2.75 12C2.75 17.1 6.9 21.25 12 21.25C17.1 21.25 21.25 17.1 21.25 12C21.25 6.9 17.1 2.75 12 2.75Z" fill="#211B2A"/>
<path d="M4.89997 19.7504C4.70997 19.7504 4.51997 19.6804 4.36997 19.5304C4.07997 19.2404 4.07997 18.7604 4.36997 18.4704L18.37 4.47043C18.66 4.18043 19.14 4.18043 19.43 4.47043C19.72 4.76043 19.72 5.24043 19.43 5.53043L5.42997 19.5304C5.27997 19.6804 5.08997 19.7504 4.89997 19.7504Z" fill="#211B2A"/>
</svg>
