<svg width="24" height="24" viewBox="0 0 24 24" fill="none" xmlns="http://www.w3.org/2000/svg">
<path d="M21.97 11.2799C22.13 10.2999 21.63 8.98989 20.86 8.36989L13.93 2.82985C12.86 1.96985 11.13 1.96984 10.07 2.81984L3.14004 8.36989C2.36004 8.98989 1.86002 10.2999 2.03002 11.2799L2.31002 12.9599" stroke="#211B2A" stroke-width="1.5" stroke-linecap="round" stroke-linejoin="round"/>
<path d="M11.4 21.8101H17.6C19.03 21.8101 20.4 20.65 20.64 19.24L21.27 15.5" stroke="#211B2A" stroke-width="1.5" stroke-linecap="round" stroke-linejoin="round"/>
<path d="M2 19C3.76 19.04 4.96 20.24 5 22" stroke="#211B2A" stroke-width="1.5" stroke-linecap="round" stroke-linejoin="round"/>
<path d="M2 16C2.52 16.01 3.02 16.0701 3.5 16.1801" stroke="#211B2A" stroke-width="1.5" stroke-linecap="round" stroke-linejoin="round"/>
<path d="M8 21.9996C7.99 21.2396 7.86 20.5296 7.63 19.8796C7.36 19.1196 6.96 18.4496 6.44 17.8896" stroke="#211B2A" stroke-width="1.5" stroke-linecap="round" stroke-linejoin="round"/>
<path d="M1.9955 22H2.0045" stroke="#211B2A" stroke-width="2" stroke-linecap="round" stroke-linejoin="round"/>
</svg>
