<svg width="24" height="24" viewBox="0 0 24 24" fill="none" xmlns="http://www.w3.org/2000/svg">
<path opacity="0.4" d="M10.07 3.01027L3.14004 8.56026C2.36004 9.18026 1.86002 10.4902 2.03002 11.4702L3.36001 19.4303C3.60001 20.8503 4.96002 22.0003 6.40002 22.0003H17.6C19.03 22.0003 20.4 20.8403 20.64 19.4303L21.97 11.4702C22.13 10.4902 21.63 9.18026 20.86 8.56026L13.93 3.02028C12.86 2.16028 11.13 2.16027 10.07 3.01027Z" fill="#211B2A"/>
<path d="M12.37 17.1201C11.96 17.1201 11.63 16.7901 11.62 16.3901C11.59 15.0401 10.7 14.1501 9.34998 14.1201C8.93998 14.1101 8.60997 13.7701 8.61997 13.3501C8.62997 12.9401 8.95997 12.6201 9.36997 12.6201C9.37997 12.6201 9.37999 12.6201 9.38999 12.6201C11.54 12.6701 13.08 14.2001 13.12 16.3501C13.13 16.7601 12.8 17.1101 12.39 17.1201C12.39 17.1201 12.38 17.1201 12.37 17.1201Z" fill="#211B2A"/>
<path d="M15.37 17.1201C14.96 17.1201 14.62 16.7901 14.62 16.3801C14.61 15.7201 14.5 15.0901 14.3 14.5001C13.79 13.0401 12.7 11.9601 11.24 11.4401C10.65 11.2301 10.02 11.1201 9.35996 11.1201C8.94996 11.1201 8.60997 10.7801 8.61997 10.3601C8.61997 9.95011 8.95997 9.62012 9.36997 9.62012H9.37998C10.21 9.63012 11 9.77015 11.74 10.0302C13.63 10.7002 15.04 12.1101 15.71 14.0001C15.97 14.7401 16.11 15.5401 16.12 16.3601C16.13 16.7801 15.8 17.1201 15.37 17.1201C15.38 17.1201 15.38 17.1201 15.37 17.1201Z" fill="#211B2A"/>
<path d="M9.38 17.3799C8.82 17.3799 8.38 16.9299 8.38 16.3799C8.38 15.8299 8.83 15.3799 9.38 15.3799C9.93 15.3799 10.38 15.8299 10.38 16.3799C10.38 16.9299 9.93 17.3799 9.38 17.3799Z" fill="#211B2A"/>
</svg>
