<svg width="24" height="24" viewBox="0 0 24 24" fill="none" xmlns="http://www.w3.org/2000/svg">
<path opacity="0.4" d="M19.1 20.3002C18.9 20.3002 18.7 20.2002 18.6 20.1002C18.3 19.8002 18.3 19.3002 18.6 19.0002C20.3 17.3002 21.2 15.0002 21.2 12.5002C21.2 7.4002 17.1 3.3002 12 3.3002C6.89995 3.3002 2.79995 7.4002 2.79995 12.5002C2.79995 14.9002 3.69995 17.2002 5.39995 19.0002C5.69995 19.3002 5.69995 19.8002 5.39995 20.1002C5.09995 20.4002 4.59995 20.4002 4.29995 20.1002C2.29995 18.1002 1.19995 15.4002 1.19995 12.6002C1.19995 6.6002 6.09995 1.7002 12 1.7002C17.9 1.7002 22.7999 6.5002 22.7999 12.5002C22.7999 15.3002 21.7 18.0002 19.7 20.0002C19.5 20.2002 19.3 20.3002 19.1 20.3002Z" fill="#211B2A"/>
<path d="M12 22.0002C14.1539 22.0002 15.9 20.2541 15.9 18.1002C15.9 15.9463 14.1539 14.2002 12 14.2002C9.84606 14.2002 8.09998 15.9463 8.09998 18.1002C8.09998 20.2541 9.84606 22.0002 12 22.0002Z" fill="#211B2A"/>
<path d="M16 8.5C14.9 8.5 14 9.4 14 10.5V11.3C14 12 14.6 12.5 15.2 12.5H16C17.1 12.5 18 11.6 18 10.5C18 9.4 17.1 8.5 16 8.5Z" fill="#211B2A"/>
</svg>
