<svg width="24" height="24" viewBox="0 0 24 24" fill="none" xmlns="http://www.w3.org/2000/svg">
<path d="M11.97 22.7502C11.36 22.7502 10.73 22.7002 10.09 22.5902C5.69001 21.8402 2.10001 18.2402 1.37001 13.8202C0.790006 10.3102 1.88001 6.88015 4.37001 4.39015C6.86001 1.90015 10.29 0.820153 13.79 1.39015C18.2 2.12015 21.81 5.70015 22.56 10.1002C22.72 11.0702 22.76 12.0202 22.68 12.9202V12.9302C22.66 13.1602 22.62 13.3802 22.56 13.6002C22.49 13.8502 22.3 14.0402 22.06 14.1202C21.82 14.2002 21.55 14.1402 21.35 13.9802C20.41 13.1902 19.21 12.7502 17.97 12.7502C15.07 12.7502 12.72 15.1102 12.72 18.0002C12.72 19.2402 13.16 20.4402 13.95 21.3802C14.12 21.5802 14.17 21.8402 14.09 22.0902C14.01 22.3402 13.82 22.5202 13.57 22.5902C13.35 22.6502 13.13 22.6902 12.9 22.7102C12.6 22.7402 12.29 22.7502 11.97 22.7502ZM11.97 2.75015C9.52001 2.75015 7.20001 3.70015 5.44001 5.46015C3.30001 7.60015 2.36001 10.5602 2.86001 13.5802C3.49001 17.3702 6.56001 20.4702 10.35 21.1102C10.95 21.2102 11.52 21.2702 12.07 21.2502C11.53 20.2602 11.24 19.1402 11.24 18.0002C11.24 14.2802 14.27 11.2502 17.99 11.2502C19.13 11.2502 20.25 11.5402 21.24 12.0802C21.25 11.5302 21.2 10.9602 21.1 10.3602C20.46 6.58015 17.36 3.50015 13.57 2.88015C13.02 2.79015 12.49 2.75015 11.97 2.75015Z" fill="#211B2A"/>
<path d="M13.38 22.61C13.16 22.61 12.95 22.52 12.81 22.34C11.79 21.13 11.22 19.59 11.22 18C11.22 14.28 14.25 11.25 17.97 11.25C19.56 11.25 21.1 11.81 22.31 12.84C22.54 13.03 22.63 13.34 22.55 13.62C22.37 14.24 22.05 14.78 21.59 15.24L15.21 21.62C14.75 22.08 14.2 22.4 13.59 22.58C13.52 22.6 13.45 22.61 13.38 22.61ZM17.97 12.75C15.07 12.75 12.72 15.11 12.72 18C12.72 19.06 13.04 20.09 13.63 20.95C13.82 20.85 13.99 20.72 14.15 20.56L20.53 14.18C20.69 14.02 20.82 13.85 20.92 13.66C20.06 13.07 19.03 12.75 17.97 12.75Z" fill="#211B2A"/>
</svg>
