<svg width="24" height="24" viewBox="0 0 24 24" fill="none" xmlns="http://www.w3.org/2000/svg">
<path d="M16.42 7.95021C18.86 10.3902 18.86 14.3502 16.42 16.7902C13.98 19.2302 10.02 19.2302 7.58 16.7902C5.14 14.3502 5.14 10.3902 7.58 7.95021C8.95 6.58021 10.81 5.98022 12.6 6.15022" stroke="#211B2A" stroke-width="1.5" stroke-linecap="round" stroke-linejoin="round"/>
<path d="M8.24999 21.6399C6.24999 20.8399 4.49999 19.3899 3.33999 17.3799C2.19999 15.4099 1.81999 13.2199 2.08999 11.1299" stroke="#211B2A" stroke-width="1.5" stroke-linecap="round" stroke-linejoin="round"/>
<path d="M5.84998 4.48035C7.54998 3.15035 9.67997 2.36035 12 2.36035C14.27 2.36035 16.36 3.13034 18.04 4.41034" stroke="#211B2A" stroke-width="1.5" stroke-linecap="round" stroke-linejoin="round"/>
<path d="M15.75 21.6399C17.75 20.8399 19.5 19.3899 20.66 17.3799C21.8 15.4099 22.18 13.2199 21.91 11.1299" stroke="#211B2A" stroke-width="1.5" stroke-linecap="round" stroke-linejoin="round"/>
</svg>
