<svg width="24" height="24" viewBox="0 0 24 24" fill="none" xmlns="http://www.w3.org/2000/svg">
<path d="M16.42 7.95012C18.86 10.3901 18.86 14.3501 16.42 16.7901C13.98 19.2301 10.02 19.2301 7.58 16.7901C5.14 14.3501 5.14 10.3901 7.58 7.95012C10.02 5.51012 13.98 5.51012 16.42 7.95012Z" fill="#211B2A"/>
<path opacity="0.4" d="M8.25003 22.3899C8.16003 22.3899 8.06004 22.3699 7.97004 22.3399C5.72004 21.4399 3.90003 19.8499 2.68003 17.7499C1.50003 15.6999 1.03003 13.3799 1.34003 11.0199C1.39003 10.6099 1.78003 10.3199 2.18003 10.3699C2.59003 10.4199 2.88002 10.7999 2.83002 11.2099C2.57002 13.2299 2.97005 15.2299 3.98005 16.9899C5.02005 18.7899 6.59002 20.1599 8.52002 20.9299C8.90002 21.0899 9.09004 21.5198 8.94004 21.9098C8.83004 22.2098 8.54003 22.3899 8.25003 22.3899Z" fill="#211B2A"/>
<path opacity="0.4" d="M5.84998 5.23035C5.62998 5.23035 5.40998 5.13037 5.25998 4.94037C4.99998 4.61037 5.05999 4.14038 5.38999 3.89038C7.29999 2.40038 9.57997 1.61035 12 1.61035C14.36 1.61035 16.61 2.37036 18.5 3.81036C18.83 4.06036 18.89 4.53035 18.64 4.86035C18.39 5.19035 17.92 5.25037 17.59 5.00037C15.97 3.76037 14.04 3.11035 12 3.11035C9.91997 3.11035 7.94997 3.79037 6.30997 5.07037C6.16997 5.18037 6.00998 5.23035 5.84998 5.23035Z" fill="#211B2A"/>
<path opacity="0.4" d="M15.75 22.3896C15.45 22.3896 15.17 22.2096 15.05 21.9196C14.9 21.5396 15.08 21.0996 15.47 20.9396C17.4 20.1596 18.97 18.7996 20.01 16.9996C21.03 15.2396 21.43 13.2396 21.16 11.2196C21.11 10.8096 21.4 10.4296 21.81 10.3796C22.21 10.3296 22.6 10.6197 22.65 11.0297C22.95 13.3797 22.49 15.7096 21.31 17.7596C20.1 19.8596 18.27 21.4396 16.02 22.3496C15.94 22.3696 15.85 22.3896 15.75 22.3896Z" fill="#211B2A"/>
</svg>
