<svg width="24" height="24" viewBox="0 0 24 24" fill="none" xmlns="http://www.w3.org/2000/svg">
<path d="M17.88 6.11961L3.91997 20.0796C3.48997 20.5096 2.76997 20.4696 2.41997 19.9796C1.91997 19.2896 1.81997 18.3296 2.33997 17.4996L5.09997 13.0696C5.46997 12.4796 5.46997 11.5196 5.09997 10.9296L2.33997 6.49961C1.40997 5.01961 2.47997 3.09961 4.21997 3.09961H15.67C16.35 3.09961 17.19 3.56961 17.55 4.13961L18.02 4.87961C18.26 5.27961 18.21 5.78961 17.88 6.11961Z" fill="#211B2A"/>
<path d="M21.63 13.11L16.45 20.01C16.09 20.5 15.29 20.9 14.67 20.9H7.50999C6.61999 20.9 6.16999 19.82 6.79999 19.19L18.32 7.67999C18.77 7.22999 19.54 7.30999 19.88 7.85999L21.73 10.83C22.13 11.47 22.09 12.5 21.63 13.11Z" fill="#211B2A"/>
</svg>
