<svg width="24" height="24" viewBox="0 0 24 24" fill="none" xmlns="http://www.w3.org/2000/svg">
<path d="M17.88 6.11984L3.92997 20.0698C3.49997 20.4998 2.77997 20.4598 2.42997 19.9698C1.92997 19.2798 1.82998 18.3198 2.34998 17.4898L5.10998 13.0598C5.47998 12.4698 5.47998 11.5098 5.10998 10.9198L2.34998 6.48984C1.41998 5.00984 2.48997 3.08984 4.22997 3.08984H15.68C16.36 3.08984 17.2 3.55984 17.56 4.12984L18.03 4.86984C18.26 5.27984 18.21 5.78984 17.88 6.11984Z" fill="#211B2A"/>
<path opacity="0.4" d="M21.63 13.11L16.45 20.01C16.09 20.5 15.29 20.9 14.67 20.9H7.50999C6.61999 20.9 6.17 19.82 6.8 19.19L18.31 7.67999C18.76 7.22999 19.53 7.30999 19.87 7.85999L21.72 10.83C22.13 11.47 22.09 12.5 21.63 13.11Z" fill="#211B2A"/>
</svg>
