<svg width="24" height="24" viewBox="0 0 24 24" fill="none" xmlns="http://www.w3.org/2000/svg">
<path opacity="0.4" d="M10.28 20.25H17C19.76 20.25 22 18.01 22 15.25V8.75C22 5.99 19.76 3.75 17 3.75H10.28C8.86999 3.75 7.52999 4.34 6.57999 5.39L3.04999 9.27C1.63999 10.82 1.63999 13.18 3.04999 14.73L6.57999 18.61C7.52999 19.66 8.86999 20.25 10.28 20.25Z" fill="#211B2A"/>
<path d="M14.59 11.9997L16.53 10.0597C16.82 9.76973 16.82 9.28973 16.53 8.99973C16.24 8.70973 15.76 8.70973 15.47 8.99973L13.53 10.9397L11.59 8.99973C11.3 8.70973 10.82 8.70973 10.53 8.99973C10.24 9.28973 10.24 9.76973 10.53 10.0597L12.47 11.9997L10.53 13.9397C10.24 14.2297 10.24 14.7097 10.53 14.9997C10.68 15.1497 10.87 15.2197 11.06 15.2197C11.25 15.2197 11.44 15.1497 11.59 14.9997L13.53 13.0597L15.47 14.9997C15.62 15.1497 15.81 15.2197 16 15.2197C16.19 15.2197 16.38 15.1497 16.53 14.9997C16.82 14.7097 16.82 14.2297 16.53 13.9397L14.59 11.9997Z" fill="#211B2A"/>
</svg>
