<svg width="24" height="24" viewBox="0 0 24 24" fill="none" xmlns="http://www.w3.org/2000/svg">
<path opacity="0.4" d="M16.17 10.0603H7.82994C6.64995 10.0603 6.23995 9.27031 6.92995 8.31031L11.1 2.47031C11.59 1.77031 12.41 1.77031 12.9 2.47031L17.07 8.31031C17.76 9.27031 17.35 10.0603 16.17 10.0603Z" fill="#211B2A"/>
<path d="M17.59 17.9996H6.40997C4.82997 17.9996 4.28997 16.9496 5.21997 15.6696L9.20996 10.0596H14.79L18.78 15.6696C19.71 16.9496 19.17 17.9996 17.59 17.9996Z" fill="#211B2A"/>
<path d="M12.75 18V22C12.75 22.41 12.41 22.75 12 22.75C11.59 22.75 11.25 22.41 11.25 22V18H12.75Z" fill="#211B2A"/>
</svg>
