<svg width="24" height="24" viewBox="0 0 24 24" fill="none" xmlns="http://www.w3.org/2000/svg">
<path d="M11.25 3.89961V12.9196C11.25 13.2496 11.09 13.5496 10.82 13.7396L3.60999 18.7896C3.01999 19.1996 2.17999 18.8796 2.04999 18.1696C1.89999 17.3096 2.09999 16.2996 2.69999 15.2096L5.81999 9.59961L8.75999 4.30961C8.98999 3.89961 9.23999 3.53961 9.49999 3.22961C10.1 2.52961 11.25 2.97961 11.25 3.89961Z" fill="#211B2A"/>
<path d="M20.39 18.7896L13.18 13.7396C12.91 13.5496 12.75 13.2496 12.75 12.9196V3.89961C12.75 2.97961 13.9 2.52961 14.5 3.22961C14.76 3.53961 15.01 3.89961 15.24 4.30961L18.18 9.59961L21.3 15.2096C21.9 16.2996 22.1 17.3096 21.95 18.1696C21.82 18.8796 20.98 19.1996 20.39 18.7896Z" fill="#211B2A"/>
<path d="M5.26 19.14L11.41 15.04C11.74 14.82 12.28 14.82 12.61 15.04L18.76 19.14C20.39 20.23 20.12 21.12 18.16 21.12H5.85C3.9 21.11 3.63 20.22 5.26 19.14Z" fill="#211B2A"/>
</svg>
