<svg width="24" height="24" viewBox="0 0 24 24" fill="none" xmlns="http://www.w3.org/2000/svg">
<path opacity="0.4" d="M16.19 2H7.82002C4.18002 2 2.01001 4.17 2.01001 7.81V16.18C2.01001 19.82 4.18002 21.99 7.82002 21.99H16.19C19.83 21.99 22 19.82 22 16.18V7.81C22 4.17 19.83 2 16.19 2Z" fill="#211B2A"/>
<path d="M16.86 8.46008C16.02 8.38008 15.25 8.33008 14.5 8.28008L14.42 7.80008C14.35 7.32008 14.2 6.33008 12.69 6.33008H11.3C9.81004 6.33008 9.65004 7.28008 9.57004 7.79008L9.49004 8.26007C9.06004 8.29007 8.64004 8.31007 8.21004 8.35007L7.12003 8.46008C6.74003 8.50008 6.47003 8.83008 6.51003 9.21008C6.55003 9.56008 6.84004 9.83008 7.19004 9.83008C7.21004 9.83008 7.24003 9.83008 7.26003 9.83008L8.34003 9.72008C8.94003 9.67008 9.55003 9.62008 10.15 9.59008C11.37 9.54008 12.59 9.56008 13.82 9.62008C14.73 9.66008 15.68 9.73008 16.72 9.83008C16.74 9.83008 16.76 9.83008 16.78 9.83008C17.13 9.83008 17.43 9.56008 17.46 9.21008C17.51 8.83008 17.24 8.49008 16.86 8.46008Z" fill="#211B2A"/>
<path d="M15.83 11.0996C15.66 10.9096 15.41 10.8096 15.16 10.8096H8.84C8.59 10.8096 8.34 10.9196 8.17 11.0996C8 11.2896 7.91 11.5396 7.93 11.7896L8.24001 15.7496C8.30001 16.5996 8.37 17.6596 10.29 17.6596H13.71C15.63 17.6596 15.7 16.5996 15.76 15.7496L16.07 11.7896C16.09 11.5396 16 11.2896 15.83 11.0996Z" fill="#211B2A"/>
</svg>
