<svg width="24" height="24" viewBox="0 0 24 24" fill="none" xmlns="http://www.w3.org/2000/svg">
<path opacity="0.4" d="M21.08 8.58003V15.42C21.08 16.54 20.48 17.58 19.51 18.15L13.57 21.58C12.6 22.14 11.4 22.14 10.42 21.58L4.47998 18.15C3.50998 17.59 2.90997 16.55 2.90997 15.42V8.58003C2.90997 7.46003 3.50998 6.41999 4.47998 5.84999L10.42 2.42C11.39 1.86 12.59 1.86 13.57 2.42L19.51 5.84999C20.48 6.41999 21.08 7.45003 21.08 8.58003Z" fill="#211B2A"/>
<path d="M12 13.75C11.59 13.75 11.25 13.41 11.25 13V7.75C11.25 7.34 11.59 7 12 7C12.41 7 12.75 7.34 12.75 7.75V13C12.75 13.41 12.41 13.75 12 13.75Z" fill="#211B2A"/>
<path d="M12 17.2499C11.87 17.2499 11.74 17.2198 11.62 17.1698C11.49 17.1198 11.39 17.0499 11.29 16.9599C11.2 16.8599 11.13 16.7499 11.07 16.6299C11.02 16.5099 11 16.3799 11 16.2499C11 15.9899 11.1 15.7298 11.29 15.5398C11.39 15.4498 11.49 15.3799 11.62 15.3299C11.99 15.1699 12.43 15.2598 12.71 15.5398C12.8 15.6398 12.87 15.7399 12.92 15.8699C12.97 15.9899 13 16.1199 13 16.2499C13 16.3799 12.97 16.5099 12.92 16.6299C12.87 16.7499 12.8 16.8599 12.71 16.9599C12.52 17.1499 12.27 17.2499 12 17.2499Z" fill="#211B2A"/>
</svg>
