<svg width="24" height="24" viewBox="0 0 24 24" fill="none" xmlns="http://www.w3.org/2000/svg">
<path d="M19.0901 12.5904C18.9301 12.5904 18.7701 12.5404 18.6301 12.4304C14.6001 9.32039 9.39005 9.32039 5.36005 12.4304C5.03005 12.6804 4.56005 12.6204 4.31005 12.3004C4.06005 11.9704 4.12005 11.5004 4.44005 11.2504C9.03005 7.70039 14.9601 7.70039 19.5401 11.2504C19.8701 11.5004 19.9301 11.9704 19.6701 12.3004C19.5401 12.4904 19.3201 12.5904 19.0901 12.5904Z" fill="#211B2A"/>
<path d="M22 9.11039C21.84 9.11039 21.68 9.06039 21.54 8.95039C15.74 4.47039 8.25001 4.47039 2.46001 8.95039C2.13001 9.20039 1.66001 9.14039 1.41001 8.82039C1.15001 8.50039 1.21001 8.02039 1.54001 7.77039C7.89001 2.86039 16.1 2.86039 22.46 7.77039C22.79 8.02039 22.85 8.49039 22.59 8.82039C22.45 9.01039 22.22 9.11039 22 9.11039Z" fill="#211B2A"/>
<path d="M17.2099 16.2403C17.0499 16.2403 16.8899 16.1903 16.7499 16.0803C13.8699 13.8503 10.1399 13.8503 7.24995 16.0803C6.91995 16.3303 6.44995 16.2703 6.19995 15.9503C5.94995 15.6203 6.00995 15.1503 6.32995 14.9003C9.76995 12.2403 14.2199 12.2403 17.6599 14.9003C17.9899 15.1503 18.0499 15.6203 17.7899 15.9503C17.6499 16.1403 17.4299 16.2403 17.2099 16.2403Z" fill="#211B2A"/>
<path d="M14.6 19.9005C14.44 19.9005 14.28 19.8505 14.14 19.7405C12.84 18.7305 11.15 18.7305 9.85004 19.7405C9.52004 19.9905 9.05004 19.9305 8.80004 19.6105C8.55004 19.2805 8.61004 18.8105 8.93004 18.5605C10.79 17.1205 13.19 17.1205 15.05 18.5605C15.38 18.8105 15.44 19.2805 15.18 19.6105C15.05 19.7905 14.83 19.9005 14.6 19.9005Z" fill="#211B2A"/>
</svg>
