<svg width="24" height="24" viewBox="0 0 24 24" fill="none" xmlns="http://www.w3.org/2000/svg">
<path opacity="0.4" d="M16.19 2H7.82C4.17 2 2 4.17 2 7.81V16.18C2 19.82 4.17 21.99 7.81 21.99H16.18C19.82 21.99 21.99 19.82 21.99 16.18V7.81C22 4.17 19.83 2 16.19 2Z" fill="#211B2A"/>
<path d="M18 10.7102C17.84 10.7102 17.68 10.6602 17.54 10.5502C14.17 7.95016 9.82003 7.95016 6.46003 10.5502C6.13003 10.8002 5.66003 10.7402 5.41003 10.4202C5.16003 10.0902 5.22003 9.62016 5.54003 9.37016C9.46003 6.34016 14.53 6.34016 18.46 9.37016C18.79 9.62016 18.85 10.0902 18.59 10.4202C18.45 10.6102 18.22 10.7102 18 10.7102Z" fill="#211B2A"/>
<path d="M16.4 13.8C16.24 13.8 16.08 13.75 15.94 13.64C13.54 11.79 10.45 11.79 8.05 13.64C7.72 13.89 7.25 13.83 7 13.51C6.75 13.19 6.80999 12.71 7.12999 12.46C10.08 10.18 13.9 10.18 16.85 12.46C17.18 12.71 17.24 13.18 16.98 13.51C16.85 13.7 16.63 13.8 16.4 13.8Z" fill="#211B2A"/>
<path d="M14.2001 16.8904C14.0401 16.8904 13.8801 16.8404 13.7401 16.7304C12.6801 15.9104 11.3101 15.9104 10.2501 16.7304C9.92007 16.9804 9.45007 16.9204 9.20007 16.6004C8.95007 16.2704 9.01007 15.8004 9.33007 15.5504C10.9201 14.3204 13.0601 14.3204 14.6501 15.5504C14.9801 15.8004 15.0401 16.2704 14.7801 16.6004C14.6501 16.7904 14.4301 16.8904 14.2001 16.8904Z" fill="#211B2A"/>
</svg>
