<svg width="24" height="24" viewBox="0 0 24 24" fill="none" xmlns="http://www.w3.org/2000/svg">
<path opacity="0.4" d="M19.0899 12.5904C18.9299 12.5904 18.7699 12.5404 18.6299 12.4304C14.5999 9.32038 9.38993 9.32038 5.35993 12.4304C5.02993 12.6804 4.55993 12.6204 4.30993 12.3004C4.05993 11.9704 4.11994 11.5004 4.43994 11.2504C9.02994 7.70039 14.9599 7.70039 19.5399 11.2504C19.8699 11.5004 19.9299 11.9704 19.6699 12.3004C19.5399 12.4904 19.3199 12.5904 19.0899 12.5904Z" fill="#211B2A"/>
<path d="M22 9.11039C21.84 9.11039 21.68 9.06038 21.54 8.95038C15.74 4.47038 8.25004 4.47038 2.46004 8.95038C2.13004 9.20038 1.66003 9.14039 1.41003 8.82039C1.16003 8.49039 1.22002 8.02039 1.54002 7.77039C7.89002 2.86039 16.1 2.86039 22.46 7.77039C22.79 8.02039 22.85 8.49039 22.59 8.82039C22.45 9.01039 22.22 9.11039 22 9.11039Z" fill="#211B2A"/>
<path d="M17.21 16.2403C17.05 16.2403 16.8899 16.1903 16.7499 16.0803C13.8699 13.8503 10.1399 13.8503 7.24995 16.0803C6.91995 16.3303 6.44995 16.2703 6.19995 15.9503C5.94995 15.6203 6.00995 15.1503 6.32995 14.9003C9.76995 12.2403 14.22 12.2403 17.66 14.9003C17.99 15.1503 18.0499 15.6203 17.7899 15.9503C17.6499 16.1403 17.43 16.2403 17.21 16.2403Z" fill="#211B2A"/>
<path opacity="0.4" d="M14.6001 19.9005C14.4401 19.9005 14.28 19.8505 14.14 19.7405C12.84 18.7305 11.1501 18.7305 9.85005 19.7405C9.52005 19.9905 9.05005 19.9305 8.80005 19.6105C8.55005 19.2805 8.61004 18.8105 8.93004 18.5605C10.79 17.1205 13.19 17.1205 15.05 18.5605C15.38 18.8105 15.44 19.2805 15.18 19.6105C15.05 19.7905 14.8301 19.9005 14.6001 19.9005Z" fill="#211B2A"/>
</svg>
