<svg width="24" height="24" viewBox="0 0 24 24" fill="none" xmlns="http://www.w3.org/2000/svg">
<path d="M19.96 8.96039C19.29 8.22039 18.28 7.79039 16.88 7.64039V6.88039C16.88 5.51039 16.3 4.19039 15.28 3.27039C14.25 2.33039 12.91 1.89039 11.52 2.02039C9.12999 2.25039 7.11999 4.56039 7.11999 7.06039V7.64039C5.71999 7.79039 4.70999 8.22039 4.03999 8.96039C3.06999 10.0404 3.09999 11.4804 3.20999 12.4804L3.90999 18.0504C4.11999 20.0004 4.90999 22.0004 9.20999 22.0004H14.79C19.09 22.0004 19.88 20.0004 20.09 18.0604L20.79 12.4704C20.9 11.4804 20.93 10.0404 19.96 8.96039ZM11.66 3.41039C12.66 3.32039 13.61 3.63039 14.35 4.30039C15.08 4.96039 15.49 5.90039 15.49 6.88039V7.58039H8.50999V7.06039C8.50999 5.28039 9.97999 3.57039 11.66 3.41039ZM12 18.5804C9.90999 18.5804 8.20999 16.8804 8.20999 14.7904C8.20999 12.7004 9.90999 11.0004 12 11.0004C14.09 11.0004 15.79 12.7004 15.79 14.7904C15.79 16.8804 14.09 18.5804 12 18.5804Z" fill="#211B2A"/>
<path d="M13.6 15.3102L13.07 14.7802L13.57 14.2802C13.86 13.9902 13.86 13.5102 13.57 13.2202C13.28 12.9302 12.8 12.9302 12.51 13.2202L12.01 13.7202L11.48 13.1902C11.19 12.9002 10.71 12.9002 10.42 13.1902C10.13 13.4802 10.13 13.9602 10.42 14.2502L10.95 14.7802L10.4 15.3302C10.11 15.6202 10.11 16.1002 10.4 16.3902C10.55 16.5402 10.74 16.6102 10.93 16.6102C11.12 16.6102 11.31 16.5402 11.46 16.3902L12.01 15.8402L12.54 16.3702C12.69 16.5202 12.88 16.5902 13.07 16.5902C13.26 16.5902 13.45 16.5202 13.6 16.3702C13.89 16.0802 13.89 15.6102 13.6 15.3102Z" fill="#211B2A"/>
</svg>
