<svg width="24" height="24" viewBox="0 0 24 24" fill="none" xmlns="http://www.w3.org/2000/svg">
<path opacity="0.4" d="M16.19 8.86039C15.8 8.86039 15.49 8.55039 15.49 8.16039V6.88039C15.49 5.90039 15.07 4.96039 14.35 4.30039C13.61 3.63039 12.66 3.32039 11.66 3.41039C9.97999 3.57039 8.50999 5.28039 8.50999 7.06039V7.96039C8.50999 8.35039 8.19999 8.66039 7.80999 8.66039C7.41999 8.66039 7.10999 8.35039 7.10999 7.96039V7.06039C7.10999 4.56039 9.12999 2.25039 11.52 2.02039C12.91 1.89039 14.25 2.33039 15.28 3.27039C16.3 4.19039 16.88 5.51039 16.88 6.88039V8.16039C16.88 8.55039 16.57 8.86039 16.19 8.86039Z" fill="#211B2A"/>
<path d="M19.96 8.96008C19.12 8.03008 17.74 7.58008 15.72 7.58008H8.27999C6.25999 7.58008 4.87999 8.03008 4.03999 8.96008C3.06999 10.0401 3.09999 11.4801 3.20999 12.4801L3.90999 18.0501C4.11999 20.0001 4.90999 22.0001 9.20999 22.0001H14.79C19.09 22.0001 19.88 20.0001 20.09 18.0601L20.79 12.4701C20.9 11.4801 20.93 10.0401 19.96 8.96008ZM12 18.5801C9.90999 18.5801 8.20999 16.8801 8.20999 14.7901C8.20999 12.7001 9.90999 11.0001 12 11.0001C14.09 11.0001 15.79 12.7001 15.79 14.7901C15.79 16.8801 14.09 18.5801 12 18.5801Z" fill="#211B2A"/>
<path opacity="0.4" d="M15.79 14.79C15.79 16.88 14.09 18.58 12 18.58C9.91002 18.58 8.21002 16.88 8.21002 14.79C8.21002 12.7 9.91002 11 12 11C14.09 11 15.79 12.7 15.79 14.79Z" fill="#211B2A"/>
<path d="M11 16.5801C10.75 16.5801 10.5 16.4501 10.36 16.2201C10.15 15.8701 10.26 15.4001 10.62 15.1901L11.51 14.6601V13.5801C11.51 13.1701 11.85 12.8301 12.26 12.8301C12.67 12.8301 13 13.1601 13 13.5801V15.0801C13 15.3401 12.86 15.5901 12.64 15.7201L11.39 16.4701C11.27 16.5401 11.13 16.5801 11 16.5801Z" fill="#211B2A"/>
</svg>
