<svg width="24" height="24" viewBox="0 0 24 24" fill="none" xmlns="http://www.w3.org/2000/svg">
<path d="M19.24 5.57957H18.84L15.46 2.19957C15.19 1.92957 14.75 1.92957 14.47 2.19957C14.2 2.46957 14.2 2.90957 14.47 3.18957L16.86 5.57957H7.14L9.53 3.18957C9.8 2.91957 9.8 2.47957 9.53 2.19957C9.26 1.92957 8.82 1.92957 8.54 2.19957L5.17 5.57957H4.77C3.87 5.57957 2 5.57957 2 8.13957C2 9.10957 2.2 9.74957 2.62 10.1696C2.86 10.4196 3.15 10.5496 3.46 10.6196C3.75 10.6896 4.06 10.6996 4.36 10.6996H19.64C19.95 10.6996 20.24 10.6796 20.52 10.6196C21.36 10.4196 22 9.81957 22 8.13957C22 5.57957 20.13 5.57957 19.24 5.57957Z" fill="#211B2A"/>
<path d="M19.05 12H4.86997C4.24997 12 3.77997 12.55 3.87997 13.16L4.71997 18.3C4.99997 20.02 5.74997 22 9.07997 22H14.69C18.06 22 18.66 20.31 19.02 18.42L20.03 13.19C20.15 12.57 19.68 12 19.05 12ZM10.61 18.45C10.61 18.84 10.3 19.15 9.91997 19.15C9.52997 19.15 9.21997 18.84 9.21997 18.45V15.15C9.21997 14.77 9.52997 14.45 9.91997 14.45C10.3 14.45 10.61 14.77 10.61 15.15V18.45ZM14.89 18.45C14.89 18.84 14.58 19.15 14.19 19.15C13.81 19.15 13.49 18.84 13.49 18.45V15.15C13.49 14.77 13.81 14.45 14.19 14.45C14.58 14.45 14.89 14.77 14.89 15.15V18.45Z" fill="#211B2A"/>
</svg>
