<svg width="24" height="24" viewBox="0 0 24 24" fill="none" xmlns="http://www.w3.org/2000/svg">
<path d="M16.5 8.6303C16.09 8.6303 15.75 8.2903 15.75 7.8803V6.5003C15.75 5.4503 15.3 4.4303 14.52 3.7203C13.73 3.0003 12.71 2.6703 11.63 2.7703C9.83 2.9403 8.25 4.7803 8.25 6.7003V7.6703C8.25 8.0803 7.91 8.4203 7.5 8.4203C7.09 8.4203 6.75 8.0803 6.75 7.6703V6.6903C6.75 4.0003 8.92 1.5203 11.49 1.2703C12.99 1.1303 14.43 1.6003 15.53 2.6103C16.62 3.6003 17.25 5.0203 17.25 6.5003V7.8803C17.25 8.2903 16.91 8.6303 16.5 8.6303Z" fill="#211B2A"/>
<path d="M15 22.75H9C4.38 22.75 3.52 20.6 3.3 18.51L2.55 12.52C2.44 11.44 2.4 9.89 3.45 8.73C4.35 7.73 5.84 7.25 8 7.25H16C18.17 7.25 19.66 7.74 20.55 8.73C21.59 9.89 21.56 11.44 21.45 12.5L20.7 18.51C20.48 20.6 19.62 22.75 15 22.75ZM8 8.75C6.31 8.75 5.15 9.08 4.56 9.74C4.07 10.28 3.91 11.11 4.04 12.35L4.79 18.34C4.96 19.94 5.4 21.26 9 21.26H15C18.6 21.26 19.04 19.95 19.21 18.36L19.96 12.35C20.09 11.13 19.93 10.3 19.44 9.75C18.85 9.08 17.69 8.75 16 8.75H8Z" fill="#211B2A"/>
<path d="M15.42 13.1504C14.86 13.1504 14.41 12.7004 14.41 12.1504C14.41 11.6004 14.86 11.1504 15.41 11.1504C15.96 11.1504 16.41 11.6004 16.41 12.1504C16.41 12.7004 15.97 13.1504 15.42 13.1504Z" fill="#211B2A"/>
<path d="M8.42 13.1504C7.86 13.1504 7.41 12.7004 7.41 12.1504C7.41 11.6004 7.86 11.1504 8.41 11.1504C8.96 11.1504 9.41 11.6004 9.41 12.1504C9.41 12.7004 8.97 13.1504 8.42 13.1504Z" fill="#211B2A"/>
</svg>
