<svg width="24" height="24" viewBox="0 0 24 24" fill="none" xmlns="http://www.w3.org/2000/svg">
<path d="M11.12 18.25C10.93 18.25 10.74 18.18 10.59 18.03L9.09 16.53C8.8 16.24 8.8 15.76 9.09 15.47C9.38 15.18 9.86 15.18 10.15 15.47L11.14 16.46L13.86 13.95C14.16 13.67 14.64 13.69 14.92 13.99C15.2 14.29 15.18 14.77 14.88 15.05L11.63 18.05C11.49 18.18 11.31 18.25 11.12 18.25Z" fill="#211B2A"/>
<path d="M5.19001 6.38043C5.00001 6.38043 4.8 6.30043 4.66 6.16043C4.37 5.87043 4.37 5.39043 4.66 5.10043L8.29 1.47043C8.58001 1.18043 9.06001 1.18043 9.35001 1.47043C9.64001 1.76043 9.64001 2.24043 9.35001 2.53043L5.72 6.16043C5.57 6.30043 5.38001 6.38043 5.19001 6.38043Z" fill="#211B2A"/>
<path d="M18.81 6.38043C18.62 6.38043 18.43 6.31043 18.28 6.16043L14.65 2.53043C14.36 2.24043 14.36 1.76043 14.65 1.47043C14.94 1.18043 15.42 1.18043 15.71 1.47043L19.34 5.10043C19.63 5.39043 19.63 5.87043 19.34 6.16043C19.2 6.30043 19 6.38043 18.81 6.38043Z" fill="#211B2A"/>
<path d="M20.21 10.5996C20.14 10.5996 20.07 10.5996 20 10.5996H19.77H4C3.3 10.6096 2.5 10.6096 1.92 10.0296C1.46 9.57961 1.25 8.87961 1.25 7.84961C1.25 5.09961 3.26 5.09961 4.22 5.09961H19.78C20.74 5.09961 22.75 5.09961 22.75 7.84961C22.75 8.88961 22.54 9.57961 22.08 10.0296C21.56 10.5496 20.86 10.5996 20.21 10.5996ZM4.22 9.09961H20.01C20.46 9.10961 20.88 9.10961 21.02 8.96961C21.09 8.89961 21.24 8.65961 21.24 7.84961C21.24 6.71961 20.96 6.59961 19.77 6.59961H4.22C3.03 6.59961 2.75 6.71961 2.75 7.84961C2.75 8.65961 2.91 8.89961 2.97 8.96961C3.11 9.09961 3.54 9.09961 3.98 9.09961H4.22Z" fill="#211B2A"/>
<path d="M14.89 22.7498H8.86C5.28 22.7498 4.48 20.6198 4.17 18.7698L2.76 10.1198C2.69 9.70975 2.97 9.32975 3.38 9.25975C3.78 9.18975 4.17 9.46975 4.24 9.87975L5.65 18.5198C5.94 20.2898 6.54 21.2498 8.86 21.2498H14.89C17.46 21.2498 17.75 20.3498 18.08 18.6098L19.76 9.85975C19.84 9.44975 20.23 9.17975 20.64 9.26975C21.05 9.34975 21.31 9.73975 21.23 10.1498L19.55 18.8998C19.16 20.9298 18.51 22.7498 14.89 22.7498Z" fill="#211B2A"/>
</svg>
