<svg width="24" height="24" viewBox="0 0 24 24" fill="none" xmlns="http://www.w3.org/2000/svg">
<path opacity="0.4" d="M16.49 22H7.50999C3.99999 22 3.24 19.99 3.53 17.53L4.42999 10.03C4.65999 8.09 4.99999 6.5 8.39999 6.5H15.6C19 6.5 19.34 8.09 19.57 10.03L20.32 16.28L20.47 17.53C20.48 17.61 20.49 17.69 20.5 17.77C20.71 20.12 19.89 22 16.49 22Z" fill="#211B2A"/>
<path d="M16 8.75C15.59 8.75 15.25 8.41 15.25 8V4.5C15.25 3.42 14.58 2.75 13.5 2.75H10.5C9.42 2.75 8.75 3.42 8.75 4.5V8C8.75 8.41 8.41 8.75 8 8.75C7.59 8.75 7.25 8.41 7.25 8V4.5C7.25 2.59 8.59 1.25 10.5 1.25H13.5C15.41 1.25 16.75 2.59 16.75 4.5V8C16.75 8.41 16.41 8.75 16 8.75Z" fill="#211B2A"/>
<path d="M20.5 17.7703C20.47 17.7803 20.44 17.7803 20.41 17.7803H8C7.59 17.7803 7.25 17.4403 7.25 17.0303C7.25 16.6103 7.59 16.2803 8 16.2803H20.32L20.47 17.5303C20.48 17.6103 20.49 17.6903 20.5 17.7703Z" fill="#211B2A"/>
</svg>
