<svg width="24" height="24" viewBox="0 0 24 24" fill="none" xmlns="http://www.w3.org/2000/svg">
<path opacity="0.4" d="M21.37 11.3904V17.3804C21.37 20.1404 19.13 22.3804 16.37 22.3804H7.63C4.87 22.3804 2.63 20.1404 2.63 17.3804V11.4604C3.39 12.2804 4.47 12.7504 5.64 12.7504C6.9 12.7504 8.11 12.1204 8.87 11.1104C9.55 12.1204 10.71 12.7504 12 12.7504C13.28 12.7504 14.42 12.1504 15.11 11.1504C15.88 12.1404 17.07 12.7504 18.31 12.7504C19.52 12.7504 20.62 12.2604 21.37 11.3904Z" fill="#211B2A"/>
<path d="M14.99 1.25H8.99L8.25 8.61C8.19 9.29 8.29 9.93 8.54 10.51C9.12 11.87 10.48 12.75 12 12.75C13.54 12.75 14.87 11.89 15.47 10.52C15.65 10.09 15.76 9.59 15.77 9.08V8.89L14.99 1.25Z" fill="#211B2A"/>
<path opacity="0.6" d="M22.36 8.27L22.07 5.5C21.65 2.48 20.28 1.25 17.35 1.25H13.51L14.25 8.75C14.26 8.85 14.27 8.96 14.27 9.15C14.33 9.67 14.49 10.15 14.73 10.58C15.45 11.9 16.85 12.75 18.31 12.75C19.64 12.75 20.84 12.16 21.59 11.12C22.19 10.32 22.46 9.31 22.36 8.27Z" fill="#211B2A"/>
<path opacity="0.6" d="M6.59 1.25C3.65 1.25 2.29 2.48 1.86 5.53L1.59 8.28C1.49 9.35 1.78 10.39 2.41 11.2C3.17 12.19 4.34 12.75 5.64 12.75C7.1 12.75 8.5 11.9 9.21 10.6C9.47 10.15 9.64 9.63 9.69 9.09L10.47 1.26H6.59V1.25Z" fill="#211B2A"/>
<path d="M11.35 16.6602C10.08 16.7902 9.12 17.8702 9.12 19.1502V22.3802H14.87V19.5002C14.88 17.4102 13.65 16.4202 11.35 16.6602Z" fill="#211B2A"/>
</svg>
