<svg width="24" height="24" viewBox="0 0 24 24" fill="none" xmlns="http://www.w3.org/2000/svg">
<path d="M7.8 22.1502C5.15 22.1502 2.99 20.0002 2.99 17.3402V14.5002C2.99 13.8302 3.65 13.3802 4.28 13.6002C4.54 13.6902 4.8 13.7502 5.07 13.7902C5.19 13.8102 5.31 13.8302 5.43 13.8302C5.58 13.8502 5.74 13.8602 5.89 13.8602C7 13.8602 8.1 13.4502 8.97 12.7402C9.8 13.4502 10.87 13.8602 12.01 13.8602C13.15 13.8602 14.21 13.4702 15.04 12.7502C15.9 13.4502 16.98 13.8602 18.08 13.8602C18.25 13.8602 18.43 13.8502 18.59 13.8302C18.71 13.8202 18.81 13.8102 18.92 13.7902C19.22 13.7502 19.49 13.6702 19.76 13.5802C20.38 13.3702 21.03 13.8302 21.03 14.4802V17.3402C21.03 19.9902 18.88 22.1502 16.22 22.1502H7.8Z" fill="#211B2A"/>
<path d="M21.98 8.58961L21.7 5.92961C21.3 3.02961 19.98 1.84961 17.16 1.84961H14.9H13.48H10.56H9.13H6.82C4.00001 1.84961 2.69 3.02961 2.28 5.95961L2.02 8.59961C1.92 9.62961 2.2 10.6296 2.81 11.4096C3.54 12.3596 4.66 12.8996 5.91 12.8996C7.12 12.8996 8.28 12.2896 9.01 11.3196C9.66001 12.2896 10.78 12.8996 12.02 12.8996C13.26 12.8996 14.35 12.3196 15.01 11.3596C15.75 12.3096 16.89 12.8996 18.09 12.8996C19.37 12.8996 20.52 12.3296 21.24 11.3296C21.82 10.5596 22.08 9.58961 21.98 8.58961ZM13.5 7.72961H12.75V8.50961C12.75 8.92961 12.41 9.25961 12 9.25961C11.59 9.25961 11.25 8.92961 11.25 8.50961V7.72961H10.5C10.09 7.72961 9.75 7.39961 9.75 6.97961C9.75 6.56961 10.09 6.22961 10.5 6.22961H11.25V5.51961C11.25 5.10961 11.59 4.76961 12 4.76961C12.41 4.76961 12.75 5.10961 12.75 5.51961V6.22961H13.5C13.91 6.22961 14.25 6.56961 14.25 6.97961C14.25 7.39961 13.91 7.72961 13.5 7.72961Z" fill="#211B2A"/>
</svg>
