<svg width="24" height="24" viewBox="0 0 24 24" fill="none" xmlns="http://www.w3.org/2000/svg">
<path d="M7.92999 16.28C7.82999 16.17 7.71998 16.06 7.59998 15.97C6.89998 15.36 6 15 5 15C4.29 15 3.61998 15.19 3.03998 15.52C2.84998 15.62 2.67 15.74 2.5 15.88C1.58 16.61 1 17.74 1 19C1 19.75 1.21002 20.46 1.58002 21.06C1.67002 21.22 1.78002 21.37 1.90002 21.51C1.92002 21.54 1.94997 21.56 1.96997 21.59C2.68997 22.45 3.78 23 5 23C6.01 23 6.93001 22.63 7.63 22C7.67 21.97 7.69998 21.94 7.72998 21.9C7.99998 21.67 8.22998 21.38 8.41998 21.06C8.78998 20.46 9 19.75 9 19C9 17.95 8.58999 17 7.92999 16.28ZM6.5 19.73H3.51001C3.10001 19.73 2.76001 19.39 2.76001 18.98C2.76001 18.57 3.10001 18.23 3.51001 18.23H6.5C6.91 18.23 7.25 18.57 7.25 18.98C7.25 19.39 6.91 19.73 6.5 19.73Z" fill="#211B2A"/>
<path opacity="0.4" d="M21.05 11.7097V17.6997C21.05 20.4597 18.81 22.6997 16.05 22.6997H7.31C7.08 22.6997 6.85 22.6797 6.63 22.6497C7 22.4897 7.33 22.2697 7.63 21.9997C7.67 21.9697 7.69998 21.9397 7.72998 21.8997C7.99998 21.6697 8.22998 21.3797 8.41998 21.0597C8.78998 20.4597 9 19.7497 9 18.9997C9 17.9497 8.58999 16.9997 7.92999 16.2797C7.82999 16.1697 7.71998 16.0597 7.59998 15.9697C6.89998 15.3597 6 14.9997 5 14.9997C4.29 14.9997 3.61998 15.1897 3.03998 15.5197C2.84998 15.6197 2.67 15.7397 2.5 15.8797C2.43 15.9297 2.37 15.9897 2.31 16.0497V11.7797C3.07 12.5997 4.15001 13.0697 5.32001 13.0697C6.58001 13.0697 7.78999 12.4397 8.54999 11.4297C9.22999 12.4397 10.39 13.0697 11.68 13.0697C12.96 13.0697 14.1 12.4697 14.79 11.4697C15.56 12.4597 16.75 13.0697 17.99 13.0697C19.2 13.0697 20.3 12.5797 21.05 11.7097Z" fill="#211B2A"/>
<path d="M14.67 1.57031H8.66996L7.92997 8.9303C7.86997 9.6103 7.96995 10.2503 8.21995 10.8303C8.79995 12.1903 10.16 13.0703 11.68 13.0703C13.22 13.0703 14.55 12.2103 15.15 10.8403C15.33 10.4103 15.44 9.91033 15.45 9.40033V9.21033L14.67 1.57031Z" fill="#211B2A"/>
<path opacity="0.6" d="M22.04 8.5896L21.76 5.80957C21.34 2.78957 19.97 1.55957 17.04 1.55957H13.2L13.94 9.05957C13.95 9.15957 13.96 9.26959 13.96 9.45959C14.02 9.9796 14.18 10.4596 14.42 10.8896C15.14 12.2096 16.54 13.0596 18 13.0596C19.33 13.0596 20.53 12.4696 21.28 11.4296C21.87 10.6396 22.14 9.6296 22.04 8.5896Z" fill="#211B2A"/>
<path opacity="0.6" d="M6.27001 1.57031C3.33001 1.57031 1.96997 2.80028 1.53997 5.85028L1.27001 8.60028C1.17001 9.67028 1.46002 10.7103 2.09002 11.5203C2.85002 12.5103 4.02 13.0703 5.32 13.0703C6.78 13.0703 8.18 12.2203 8.89 10.9203C9.15 10.4703 9.31998 9.95028 9.36998 9.41028L10.15 1.58032H6.27001V1.57031Z" fill="#211B2A"/>
</svg>
