<svg width="24" height="24" viewBox="0 0 24 24" fill="none" xmlns="http://www.w3.org/2000/svg">
<path opacity="0.4" d="M13.94 4.83008H6.82999C5.72999 4.83008 4.82999 5.73008 4.82999 6.83008V13.9401C4.82999 16.8301 7.16999 19.1701 10.06 19.1701H17.17C18.27 19.1701 19.17 18.2701 19.17 17.1701V10.0601C19.17 7.17008 16.83 4.83008 13.94 4.83008Z" fill="#211B2A"/>
<path d="M5.53 2C5.11 2 4.78 2.34 4.78 2.75V4.78H2.75C2.34 4.78 2 5.11 2 5.53C2 5.95 2.34 6.28 2.75 6.28H5.53C5.94 6.28 6.28 5.94 6.28 5.53V2.75C6.28 2.34 5.94 2 5.53 2Z" fill="#211B2A"/>
<path d="M21.25 17.7197H18.47C18.06 17.7197 17.72 18.0597 17.72 18.4697V21.2497C17.72 21.6597 18.06 21.9997 18.47 21.9997C18.88 21.9997 19.22 21.6597 19.22 21.2497V19.2197H21.25C21.66 19.2197 22 18.8797 22 18.4697C22 18.0597 21.66 17.7197 21.25 17.7197Z" fill="#211B2A"/>
</svg>
