<svg width="24" height="24" viewBox="0 0 24 24" fill="none" xmlns="http://www.w3.org/2000/svg">
<path d="M5.53 2C5.11 2 4.78 2.34 4.78 2.75V4.78H2.75C2.34 4.78 2 5.11 2 5.53C2 5.95 2.34 6.28 2.75 6.28H5.53C5.94 6.28 6.28 5.94 6.28 5.53V2.75C6.28 2.34 5.94 2 5.53 2Z" fill="#211B2A"/>
<path d="M21.25 17.72H18.47C18.06 17.72 17.72 18.06 17.72 18.47V21.25C17.72 21.66 18.06 22 18.47 22C18.88 22 19.22 21.66 19.22 21.25V19.22H21.25C21.66 19.22 22 18.88 22 18.47C22 18.06 21.66 17.72 21.25 17.72Z" fill="#211B2A"/>
<path d="M16.72 18.4701C16.72 17.5101 17.51 16.7201 18.47 16.7201H19.16V10.0501C19.16 7.16007 16.82 4.82007 13.93 4.82007H7.27999V5.51007C7.27999 6.47007 6.48999 7.26007 5.52999 7.26007H4.82999V13.9301C4.82999 16.8201 7.16999 19.1601 10.06 19.1601H16.73V18.4701H16.72Z" fill="#211B2A"/>
</svg>
