<svg width="24" height="24" viewBox="0 0 24 24" fill="none" xmlns="http://www.w3.org/2000/svg">
<path d="M22 11V9C22 4 20 2 15 2H9C4 2 2 4 2 9V15C2 20 4 22 9 22H10" stroke="#211B2A" stroke-width="1.5" stroke-linecap="round" stroke-linejoin="round"/>
<path d="M5.03003 8.5H22" stroke="#211B2A" stroke-width="1.5" stroke-linecap="round" stroke-linejoin="round"/>
<path d="M2.03003 15.5H12" stroke="#211B2A" stroke-width="1.5" stroke-linecap="round" stroke-linejoin="round"/>
<path d="M8.51001 21.9897V2.00977" stroke="#211B2A" stroke-width="1.5" stroke-linecap="round" stroke-linejoin="round"/>
<path d="M15.51 11.9897V2.00977" stroke="#211B2A" stroke-width="1.5" stroke-linecap="round" stroke-linejoin="round"/>
<path d="M18.73 14.6701L14.58 18.82C14.42 18.98 14.27 19.29 14.23 19.51L14 21.1C13.92 21.67 14.32 22.08 14.89 21.99L16.48 21.76C16.7 21.73 17.01 21.5701 17.17 21.4101L21.32 17.26C22.03 16.55 22.37 15.7101 21.32 14.6601C20.28 13.6201 19.45 13.9501 18.73 14.6701Z" stroke="#211B2A" stroke-width="1.5" stroke-miterlimit="10" stroke-linecap="round" stroke-linejoin="round"/>
<path d="M18.14 15.2598C18.49 16.5198 19.4799 17.4997 20.7399 17.8597" stroke="#211B2A" stroke-width="1.5" stroke-miterlimit="10" stroke-linecap="round" stroke-linejoin="round"/>
</svg>
