<svg width="24" height="24" viewBox="0 0 24 24" fill="none" xmlns="http://www.w3.org/2000/svg">
<path d="M22 11V9C22 4 20 2 15 2H9C4 2 2 4 2 9V15C2 20 4 22 9 22H10" stroke="#211B2A" stroke-width="1.5" stroke-linecap="round" stroke-linejoin="round"/>
<path d="M5.03003 8.5H22" stroke="#211B2A" stroke-width="1.5" stroke-linecap="round" stroke-linejoin="round"/>
<path d="M2.03003 15.5H12" stroke="#211B2A" stroke-width="1.5" stroke-linecap="round" stroke-linejoin="round"/>
<path d="M8.51001 21.9897V2.00977" stroke="#211B2A" stroke-width="1.5" stroke-linecap="round" stroke-linejoin="round"/>
<path d="M15.51 11.9897V2.00977" stroke="#211B2A" stroke-width="1.5" stroke-linecap="round" stroke-linejoin="round"/>
<path d="M15.6 17.2V16.4C15.6 15.07 16 14 18 14C20 14 20.4 15.07 20.4 16.4V17.2" stroke="#211B2A" stroke-width="1.5" stroke-linecap="round" stroke-linejoin="round"/>
<path d="M20 22.0002H16C14.4 22.0002 14 21.6002 14 20.0002V19.2002C14 17.6002 14.4 17.2002 16 17.2002H20C21.6 17.2002 22 17.6002 22 19.2002V20.0002C22 21.6002 21.6 22.0002 20 22.0002Z" stroke="#211B2A" stroke-width="1.5" stroke-linecap="round" stroke-linejoin="round"/>
</svg>
