<svg width="24" height="24" viewBox="0 0 24 24" fill="none" xmlns="http://www.w3.org/2000/svg">
<path opacity="0.4" d="M16.19 2H7.81C4.17 2 2 4.17 2 7.81V16.18C2 19.83 4.17 22 7.81 22H16.18C19.82 22 21.99 19.83 21.99 16.19V7.81C22 4.17 19.83 2 16.19 2Z" fill="#211B2A"/>
<path d="M18.69 5.71C18.61 5.53 18.47 5.38 18.28 5.3C18.19 5.27 18.1 5.25 18 5.25H14C13.59 5.25 13.25 5.59 13.25 6C13.25 6.41 13.59 6.75 14 6.75H16.19L12.47 10.47C12.18 10.76 12.18 11.24 12.47 11.53C12.62 11.68 12.81 11.75 13 11.75C13.19 11.75 13.38 11.68 13.53 11.53L17.25 7.81V10C17.25 10.41 17.59 10.75 18 10.75C18.41 10.75 18.75 10.41 18.75 10V6C18.75 5.9 18.73 5.81 18.69 5.71Z" fill="#211B2A"/>
<path d="M11.53 12.4704C11.24 12.1804 10.76 12.1804 10.47 12.4704L6.75 16.1904V14.0004C6.75 13.5904 6.41 13.2504 6 13.2504C5.59 13.2504 5.25 13.5904 5.25 14.0004V18.0004C5.25 18.1004 5.27 18.1904 5.31 18.2904C5.39 18.4704 5.53 18.6204 5.72 18.7004C5.8 18.7304 5.9 18.7504 6 18.7504H10C10.41 18.7504 10.75 18.4104 10.75 18.0004C10.75 17.5904 10.41 17.2504 10 17.2504H7.81L11.53 13.5304C11.82 13.2404 11.82 12.7604 11.53 12.4704Z" fill="#211B2A"/>
</svg>
