<svg width="24" height="24" viewBox="0 0 24 24" fill="none" xmlns="http://www.w3.org/2000/svg">
<path opacity="0.4" d="M16.19 2H7.81C4.17 2 2 4.17 2 7.81V16.18C2 19.83 4.17 22 7.81 22H16.18C19.82 22 21.99 19.83 21.99 16.19V7.81C22 4.17 19.83 2 16.19 2Z" fill="#211B2A"/>
<path d="M2.75 9.97C2.34 9.97 2 9.64 2 9.22V6.91C2 4.2 4.2 2 6.91 2H9.22C9.63 2 9.97 2.34 9.97 2.75C9.97 3.16 9.64 3.5 9.22 3.5H6.91C5.03 3.5 3.5 5.03 3.5 6.91V9.22C3.5 9.64 3.16 9.97 2.75 9.97Z" fill="#211B2A"/>
<path d="M21.25 9.97C20.84 9.97 20.5 9.63 20.5 9.22V6.91C20.5 5.03 18.97 3.5 17.09 3.5H14.78C14.37 3.5 14.03 3.16 14.03 2.75C14.03 2.34 14.36 2 14.78 2H17.09C19.8 2 22 4.2 22 6.91V9.22C22 9.64 21.66 9.97 21.25 9.97Z" fill="#211B2A"/>
<path d="M17.09 22H15.7C15.29 22 14.95 21.66 14.95 21.25C14.95 20.84 15.29 20.5 15.7 20.5H17.09C18.97 20.5 20.5 18.97 20.5 17.09V15.7C20.5 15.29 20.84 14.95 21.25 14.95C21.66 14.95 22 15.29 22 15.7V17.09C22 19.8 19.8 22 17.09 22Z" fill="#211B2A"/>
<path d="M9.22 22.0003H6.91C4.2 22.0003 2 19.8003 2 17.0903V14.7803C2 14.3703 2.34 14.0303 2.75 14.0303C3.16 14.0303 3.5 14.3703 3.5 14.7803V17.0903C3.5 18.9703 5.03 20.5003 6.91 20.5003H9.22C9.63 20.5003 9.97 20.8403 9.97 21.2503C9.97 21.6603 9.64 22.0003 9.22 22.0003Z" fill="#211B2A"/>
</svg>
