<svg width="24" height="24" viewBox="0 0 24 24" fill="none" xmlns="http://www.w3.org/2000/svg">
<path d="M18.94 3.5H5.06C4.65 3.5 4.31 3.16 4.31 2.75C4.31 2.34 4.65 2 5.06 2H18.94C19.35 2 19.69 2.34 19.69 2.75C19.69 3.16 19.35 3.5 18.94 3.5Z" fill="#211B2A"/>
<path d="M18.94 22H5.06C4.65 22 4.31 21.66 4.31 21.25C4.31 20.84 4.65 20.5 5.06 20.5H18.94C19.35 20.5 19.69 20.84 19.69 21.25C19.69 21.66 19.35 22 18.94 22Z" fill="#211B2A"/>
<path opacity="0.4" d="M2.75 7.6001V16.4001C2.75 18.0601 4.09 19.4001 5.75 19.4001H18.25C19.91 19.4001 21.25 18.0601 21.25 16.4001V7.6001C21.25 5.9401 19.91 4.6001 18.25 4.6001H5.75C4.09 4.6001 2.75 5.9401 2.75 7.6001Z" fill="#211B2A"/>
</svg>
