<svg width="40" height="40" viewBox="0 0 40 40" fill="none" xmlns="http://www.w3.org/2000/svg">
<g clip-path="url(#clip0_2716_55556)">
<path d="M8.2 39H31.8C32.9201 39 33.4802 39 33.908 38.782C34.2843 38.5903 34.5903 38.2843 34.782 37.908C35 37.4802 35 36.9201 35 35.8V16L23 1H8.2C7.0799 1 6.51984 1 6.09202 1.21799C5.71569 1.40973 5.40973 1.71569 5.21799 2.09202C5 2.51984 5 3.0799 5 4.2V35.8C5 36.9201 5 37.4802 5.21799 37.908C5.40973 38.2843 5.71569 38.5903 6.09202 38.782C6.51984 39 7.0799 39 8.2 39Z" fill="url(#paint0_linear_2716_55556)"/>
<path d="M23 1V14C23 15.1046 23.8954 16 25 16H35L23 1Z" fill="url(#paint1_linear_2716_55556)"/>
<g filter="url(#filter0_d_2716_55556)">
<rect y="19" width="21" height="12" rx="3" fill="url(#paint2_linear_2716_55556)" shape-rendering="crispEdges"/>
<rect x="0.25" y="19.25" width="20.5" height="11.5" rx="2.75" stroke="#2D8554" stroke-width="0.5" shape-rendering="crispEdges"/>
<path d="M5.57373 27.5684C5.12712 27.5684 4.72721 27.4647 4.37402 27.2573C4.02311 27.05 3.74626 26.7515 3.54346 26.3618C3.34294 25.9722 3.24268 25.5039 3.24268 24.957C3.24268 24.4079 3.34408 23.9385 3.54688 23.5488C3.75195 23.1569 4.02995 22.8573 4.38086 22.6499C4.73405 22.4425 5.13167 22.3389 5.57373 22.3389C5.854 22.3389 6.11605 22.3787 6.35986 22.4585C6.60596 22.5382 6.82471 22.6556 7.01611 22.8105C7.20752 22.9632 7.36361 23.1512 7.48438 23.3745C7.60742 23.5955 7.68831 23.8473 7.72705 24.1299H6.79736C6.7723 23.9749 6.72331 23.8382 6.65039 23.7197C6.57975 23.6012 6.49089 23.501 6.38379 23.4189C6.27897 23.3346 6.15934 23.272 6.0249 23.231C5.89046 23.1877 5.74577 23.166 5.59082 23.166C5.31283 23.166 5.06673 23.2355 4.85254 23.3745C4.63835 23.5112 4.47087 23.714 4.3501 23.9829C4.22933 24.2495 4.16895 24.5742 4.16895 24.957C4.16895 25.3444 4.22933 25.6714 4.3501 25.938C4.47314 26.2023 4.64062 26.4028 4.85254 26.5396C5.06673 26.674 5.31169 26.7412 5.5874 26.7412C5.74007 26.7412 5.88249 26.7218 6.01465 26.6831C6.14681 26.6421 6.26644 26.5817 6.37354 26.502C6.48291 26.4199 6.57292 26.3219 6.64355 26.208C6.71647 26.0918 6.76774 25.9585 6.79736 25.8081H7.72705C7.69287 26.0519 7.61768 26.2809 7.50146 26.4951C7.38753 26.707 7.23714 26.8939 7.05029 27.0557C6.86572 27.2152 6.64925 27.3405 6.40088 27.4316C6.15251 27.5228 5.87679 27.5684 5.57373 27.5684ZM10.1162 27.5786C9.71973 27.5786 9.37565 27.5171 9.08398 27.394C8.79232 27.271 8.56445 27.0921 8.40039 26.8574C8.23633 26.6204 8.14746 26.3333 8.13379 25.9961H9.04297C9.05664 26.1738 9.11133 26.3219 9.20703 26.4404C9.30273 26.5566 9.42806 26.6444 9.58301 26.7036C9.74023 26.7629 9.91455 26.7925 10.106 26.7925C10.3065 26.7925 10.4831 26.7617 10.6357 26.7002C10.7884 26.6387 10.908 26.5532 10.9946 26.4438C11.0812 26.3345 11.1245 26.2069 11.1245 26.061C11.1245 25.9289 11.0858 25.8206 11.0083 25.7363C10.9308 25.6497 10.8237 25.5768 10.687 25.5176C10.5503 25.4583 10.3896 25.4059 10.2051 25.3604L9.62744 25.21C9.20817 25.1029 8.87777 24.9399 8.63623 24.7212C8.39469 24.5002 8.27393 24.2062 8.27393 23.8394C8.27393 23.5386 8.35482 23.2765 8.5166 23.0532C8.67839 22.8276 8.89941 22.6522 9.17969 22.5269C9.46224 22.4015 9.78125 22.3389 10.1367 22.3389C10.499 22.3389 10.8169 22.4015 11.0903 22.5269C11.3638 22.6522 11.578 22.8254 11.7329 23.0464C11.8879 23.2674 11.9688 23.5215 11.9756 23.8086H11.0835C11.0607 23.5898 10.9639 23.4212 10.793 23.3027C10.6243 23.182 10.4022 23.1216 10.1265 23.1216C9.93506 23.1216 9.76986 23.1501 9.63086 23.207C9.49414 23.264 9.38932 23.3426 9.31641 23.4429C9.24349 23.5431 9.20703 23.6571 9.20703 23.7847C9.20703 23.9259 9.24919 24.0422 9.3335 24.1333C9.42008 24.2222 9.52946 24.2939 9.66162 24.3486C9.79606 24.4033 9.93278 24.4489 10.0718 24.4854L10.5469 24.605C10.7383 24.6506 10.9229 24.7121 11.1006 24.7896C11.2783 24.8647 11.4378 24.9604 11.5791 25.0767C11.7227 25.1906 11.8354 25.3296 11.9175 25.4937C12.0018 25.6577 12.0439 25.8503 12.0439 26.0713C12.0439 26.3675 11.9676 26.6296 11.8149 26.8574C11.6623 27.083 11.4424 27.2596 11.1553 27.3872C10.8682 27.5148 10.5218 27.5786 10.1162 27.5786ZM13.2812 22.4072L14.604 26.4131H14.6587L15.9814 22.4072H16.9932L15.1987 27.5H14.064L12.2661 22.4072H13.2812Z" fill="white"/>
</g>
</g>
<defs>
<filter id="filter0_d_2716_55556" x="-2" y="18" width="25" height="16" filterUnits="userSpaceOnUse" color-interpolation-filters="sRGB">
<feFlood flood-opacity="0" result="BackgroundImageFix"/>
<feColorMatrix in="SourceAlpha" type="matrix" values="0 0 0 0 0 0 0 0 0 0 0 0 0 0 0 0 0 0 127 0" result="hardAlpha"/>
<feOffset dy="1"/>
<feGaussianBlur stdDeviation="1"/>
<feComposite in2="hardAlpha" operator="out"/>
<feColorMatrix type="matrix" values="0 0 0 0 0.211765 0 0 0 0 0.627451 0 0 0 0 0.4 0 0 0 0.2 0"/>
<feBlend mode="normal" in2="BackgroundImageFix" result="effect1_dropShadow_2716_55556"/>
<feBlend mode="normal" in="SourceGraphic" in2="effect1_dropShadow_2716_55556" result="shape"/>
</filter>
<linearGradient id="paint0_linear_2716_55556" x1="19" y1="1" x2="19" y2="39" gradientUnits="userSpaceOnUse">
<stop stop-color="#F7F7F7"/>
<stop offset="1" stop-color="#E6E6E6"/>
</linearGradient>
<linearGradient id="paint1_linear_2716_55556" x1="25.5" y1="-1.5" x2="37.5" y2="26.5" gradientUnits="userSpaceOnUse">
<stop stop-color="#FEFEFE"/>
<stop offset="0.376664" stop-color="#E8E8E8"/>
<stop offset="1" stop-color="#BEBEBE"/>
</linearGradient>
<linearGradient id="paint2_linear_2716_55556" x1="10.5" y1="19" x2="10.5" y2="31" gradientUnits="userSpaceOnUse">
<stop stop-color="#3FB675"/>
<stop offset="1" stop-color="#288250"/>
</linearGradient>
<clipPath id="clip0_2716_55556">
<rect width="40" height="40" fill="white"/>
</clipPath>
</defs>
</svg>
