<svg width="40" height="40" viewBox="0 0 40 40" fill="none" xmlns="http://www.w3.org/2000/svg">
<g clip-path="url(#clip0_2716_55551)">
<path d="M8.2 39H31.8C32.9201 39 33.4802 39 33.908 38.782C34.2843 38.5903 34.5903 38.2843 34.782 37.908C35 37.4802 35 36.9201 35 35.8V16L23 1H8.2C7.0799 1 6.51984 1 6.09202 1.21799C5.71569 1.40973 5.40973 1.71569 5.21799 2.09202C5 2.51984 5 3.0799 5 4.2V35.8C5 36.9201 5 37.4802 5.21799 37.908C5.40973 38.2843 5.71569 38.5903 6.09202 38.782C6.51984 39 7.0799 39 8.2 39Z" fill="url(#paint0_linear_2716_55551)"/>
<path d="M23 1V14C23 15.1046 23.8954 16 25 16H35L23 1Z" fill="url(#paint1_linear_2716_55551)"/>
<g filter="url(#filter0_d_2716_55551)">
<rect y="19" width="21" height="12" rx="3" fill="url(#paint2_linear_2716_55551)" shape-rendering="crispEdges"/>
<rect x="0.25" y="19.25" width="20.5" height="11.5" rx="2.75" stroke="#3B65A7" stroke-width="0.5" shape-rendering="crispEdges"/>
<path d="M5.09863 27.5H3.80664V26.7002H5.05078C5.40397 26.7002 5.69906 26.6364 5.93604 26.5088C6.17529 26.3789 6.35417 26.1841 6.47266 25.9243C6.59342 25.6646 6.65381 25.3398 6.65381 24.9502C6.65381 24.5605 6.59456 24.237 6.47607 23.9795C6.35758 23.722 6.18099 23.5295 5.94629 23.4019C5.71159 23.272 5.42106 23.207 5.07471 23.207H3.7793V22.4072H5.12939C5.63525 22.4072 6.06934 22.5086 6.43164 22.7114C6.79622 22.9142 7.0765 23.2059 7.27246 23.5864C7.46842 23.967 7.56641 24.4215 7.56641 24.9502C7.56641 25.4788 7.46842 25.9346 7.27246 26.3174C7.0765 26.6979 6.79395 26.9907 6.4248 27.1958C6.05794 27.3986 5.61589 27.5 5.09863 27.5ZM4.29199 22.4072V27.5H3.36914V22.4072H4.29199ZM10.3896 27.5684C9.94531 27.5684 9.54541 27.4647 9.18994 27.2573C8.83675 27.05 8.55762 26.7515 8.35254 26.3618C8.14974 25.9722 8.04834 25.5039 8.04834 24.957C8.04834 24.4079 8.14974 23.9385 8.35254 23.5488C8.55762 23.1569 8.83675 22.8573 9.18994 22.6499C9.54541 22.4425 9.94531 22.3389 10.3896 22.3389C10.8363 22.3389 11.235 22.4425 11.5859 22.6499C11.9368 22.8573 12.2148 23.1569 12.4199 23.5488C12.625 23.9385 12.7275 24.4079 12.7275 24.957C12.7275 25.5039 12.625 25.9722 12.4199 26.3618C12.2148 26.7515 11.9368 27.05 11.5859 27.2573C11.235 27.4647 10.8363 27.5684 10.3896 27.5684ZM10.3896 26.7412C10.6654 26.7412 10.9092 26.6729 11.1211 26.5361C11.333 26.3994 11.4993 26.1989 11.6201 25.9346C11.7409 25.668 11.8013 25.3421 11.8013 24.957C11.8013 24.5697 11.7409 24.2427 11.6201 23.9761C11.4993 23.7095 11.333 23.5078 11.1211 23.3711C10.9092 23.2344 10.6654 23.166 10.3896 23.166C10.1139 23.166 9.86898 23.2344 9.65479 23.3711C9.44287 23.5078 9.27653 23.7095 9.15576 23.9761C9.03499 24.2427 8.97461 24.5697 8.97461 24.957C8.97461 25.3421 9.03499 25.668 9.15576 25.9346C9.27653 26.1989 9.44287 26.3994 9.65479 26.5361C9.86898 26.6729 10.1139 26.7412 10.3896 26.7412ZM15.5405 27.5684C15.0939 27.5684 14.694 27.4647 14.3408 27.2573C13.9899 27.05 13.7131 26.7515 13.5103 26.3618C13.3097 25.9722 13.2095 25.5039 13.2095 24.957C13.2095 24.4079 13.3109 23.9385 13.5137 23.5488C13.7188 23.1569 13.9967 22.8573 14.3477 22.6499C14.7008 22.4425 15.0985 22.3389 15.5405 22.3389C15.8208 22.3389 16.0828 22.3787 16.3267 22.4585C16.5728 22.5382 16.7915 22.6556 16.9829 22.8105C17.1743 22.9632 17.3304 23.1512 17.4512 23.3745C17.5742 23.5955 17.6551 23.8473 17.6938 24.1299H16.7642C16.7391 23.9749 16.6901 23.8382 16.6172 23.7197C16.5465 23.6012 16.4577 23.501 16.3506 23.4189C16.2458 23.3346 16.1261 23.272 15.9917 23.231C15.8573 23.1877 15.7126 23.166 15.5576 23.166C15.2796 23.166 15.0335 23.2355 14.8193 23.3745C14.6051 23.5112 14.4377 23.714 14.3169 23.9829C14.1961 24.2495 14.1357 24.5742 14.1357 24.957C14.1357 25.3444 14.1961 25.6714 14.3169 25.938C14.4399 26.2023 14.6074 26.4028 14.8193 26.5396C15.0335 26.674 15.2785 26.7412 15.5542 26.7412C15.7069 26.7412 15.8493 26.7218 15.9814 26.6831C16.1136 26.6421 16.2332 26.5817 16.3403 26.502C16.4497 26.4199 16.5397 26.3219 16.6104 26.208C16.6833 26.0918 16.7345 25.9585 16.7642 25.8081H17.6938C17.6597 26.0519 17.5845 26.2809 17.4683 26.4951C17.3543 26.707 17.2039 26.8939 17.0171 27.0557C16.8325 27.2152 16.616 27.3405 16.3677 27.4316C16.1193 27.5228 15.8436 27.5684 15.5405 27.5684Z" fill="white"/>
</g>
</g>
<defs>
<filter id="filter0_d_2716_55551" x="-2" y="18" width="25" height="16" filterUnits="userSpaceOnUse" color-interpolation-filters="sRGB">
<feFlood flood-opacity="0" result="BackgroundImageFix"/>
<feColorMatrix in="SourceAlpha" type="matrix" values="0 0 0 0 0 0 0 0 0 0 0 0 0 0 0 0 0 0 127 0" result="hardAlpha"/>
<feOffset dy="1"/>
<feGaussianBlur stdDeviation="1"/>
<feComposite in2="hardAlpha" operator="out"/>
<feColorMatrix type="matrix" values="0 0 0 0 0.298039 0 0 0 0 0.498039 0 0 0 0 0.819608 0 0 0 0.2 0"/>
<feBlend mode="normal" in2="BackgroundImageFix" result="effect1_dropShadow_2716_55551"/>
<feBlend mode="normal" in="SourceGraphic" in2="effect1_dropShadow_2716_55551" result="shape"/>
</filter>
<linearGradient id="paint0_linear_2716_55551" x1="19" y1="1" x2="19" y2="39" gradientUnits="userSpaceOnUse">
<stop stop-color="#F7F7F7"/>
<stop offset="1" stop-color="#E6E6E6"/>
</linearGradient>
<linearGradient id="paint1_linear_2716_55551" x1="25.5" y1="-1.5" x2="37.5" y2="26.5" gradientUnits="userSpaceOnUse">
<stop stop-color="#FEFEFE"/>
<stop offset="0.376664" stop-color="#E8E8E8"/>
<stop offset="1" stop-color="#BEBEBE"/>
</linearGradient>
<linearGradient id="paint2_linear_2716_55551" x1="10.5" y1="19" x2="10.5" y2="31" gradientUnits="userSpaceOnUse">
<stop stop-color="#598BDD"/>
<stop offset="1" stop-color="#4072C4"/>
</linearGradient>
<clipPath id="clip0_2716_55551">
<rect width="40" height="40" fill="white"/>
</clipPath>
</defs>
</svg>
