<svg width="40" height="40" viewBox="0 0 40 40" fill="none" xmlns="http://www.w3.org/2000/svg">
<g clip-path="url(#clip0_6527_22212)">
<path d="M8.2 39H31.8C32.9201 39 33.4802 39 33.908 38.782C34.2843 38.5903 34.5903 38.2843 34.782 37.908C35 37.4802 35 36.9201 35 35.8V16L23 1H8.2C7.0799 1 6.51984 1 6.09202 1.21799C5.71569 1.40973 5.40973 1.71569 5.21799 2.09202C5 2.51984 5 3.0799 5 4.2V35.8C5 36.9201 5 37.4802 5.21799 37.908C5.40973 38.2843 5.71569 38.5903 6.09202 38.782C6.51984 39 7.0799 39 8.2 39Z" fill="url(#paint0_linear_6527_22212)"/>
<path d="M23 1V14C23 15.1046 23.8954 16 25 16H35L23 1Z" fill="url(#paint1_linear_6527_22212)"/>
<g filter="url(#filter0_d_6527_22212)">
<rect y="19" width="26" height="12" rx="3" fill="url(#paint2_linear_6527_22212)" shape-rendering="crispEdges"/>
<rect x="0.25" y="19.25" width="25.5" height="11.5" rx="2.75" stroke="#FF9900" stroke-width="0.5" shape-rendering="crispEdges"/>
<path d="M5.51065 22.4091H6.42543V25.9886C6.42377 26.3168 6.35417 26.5993 6.21662 26.8363C6.07907 27.0716 5.88684 27.2531 5.63991 27.3807C5.39465 27.5066 5.10878 27.5696 4.78232 27.5696C4.48402 27.5696 4.21555 27.5166 3.97692 27.4105C3.73994 27.3028 3.55185 27.1437 3.41264 26.9332C3.27344 26.7228 3.20384 26.4609 3.20384 26.1477H4.12109C4.12275 26.2853 4.15258 26.4038 4.21058 26.5032C4.27024 26.6026 4.35227 26.6789 4.45668 26.7319C4.56108 26.7849 4.68123 26.8114 4.81712 26.8114C4.96461 26.8114 5.08973 26.7808 5.19247 26.7195C5.29522 26.6565 5.37311 26.5637 5.42614 26.4411C5.48082 26.3184 5.509 26.1676 5.51065 25.9886V22.4091ZM10.1926 23.8086C10.1694 23.5915 10.0717 23.4225 9.89933 23.3015C9.72863 23.1805 9.50657 23.12 9.23313 23.12C9.0409 23.12 8.87601 23.149 8.73846 23.207C8.60091 23.265 8.49568 23.3437 8.42276 23.4432C8.34985 23.5426 8.31256 23.6561 8.3109 23.7837C8.3109 23.8898 8.33493 23.9818 8.38299 24.0597C8.43271 24.1375 8.49982 24.2038 8.58434 24.2585C8.66886 24.3116 8.76249 24.3563 8.86523 24.3928C8.96798 24.4292 9.07156 24.4599 9.17596 24.4847L9.65323 24.604C9.84547 24.6488 10.0302 24.7093 10.2076 24.7855C10.3865 24.8617 10.5465 24.9579 10.6873 25.0739C10.8298 25.1899 10.9425 25.3299 11.0254 25.494C11.1083 25.658 11.1497 25.8503 11.1497 26.0707C11.1497 26.369 11.0734 26.6316 10.921 26.8587C10.7685 27.084 10.5481 27.2605 10.2598 27.3881C9.97307 27.5141 9.62589 27.5771 9.21822 27.5771C8.82215 27.5771 8.47828 27.5157 8.18661 27.3931C7.8966 27.2705 7.66957 27.0915 7.5055 26.8562C7.3431 26.6209 7.25527 26.3342 7.24201 25.9961H8.14933C8.16258 26.1734 8.21727 26.3209 8.31339 26.4386C8.40951 26.5562 8.53462 26.6441 8.68874 26.7021C8.84452 26.7601 9.01853 26.7891 9.21076 26.7891C9.41128 26.7891 9.58694 26.7592 9.73775 26.6996C9.89021 26.6383 10.0095 26.5537 10.0957 26.446C10.1819 26.3366 10.2258 26.209 10.2275 26.0632C10.2258 25.9306 10.1868 25.8213 10.1106 25.7351C10.0344 25.6473 9.9275 25.5743 9.78995 25.5163C9.65406 25.4567 9.49497 25.4036 9.31268 25.3572L8.73349 25.2081C8.31422 25.1004 7.98278 24.9371 7.73917 24.7184C7.49722 24.498 7.37624 24.2055 7.37624 23.8409C7.37624 23.541 7.45745 23.2783 7.61985 23.0529C7.78391 22.8275 8.00681 22.6527 8.28853 22.5284C8.57025 22.4025 8.88926 22.3395 9.24556 22.3395C9.60683 22.3395 9.92335 22.4025 10.1951 22.5284C10.4686 22.6527 10.6832 22.8259 10.839 23.0479C10.9947 23.2683 11.0751 23.5219 11.0801 23.8086H10.1926ZM16.5209 24.9545C16.5209 25.5031 16.4181 25.9729 16.2126 26.364C16.0088 26.7534 15.7304 27.0517 15.3774 27.2589C15.0261 27.466 14.6275 27.5696 14.1817 27.5696C13.7359 27.5696 13.3366 27.466 12.9836 27.2589C12.6323 27.0501 12.3538 26.7509 12.1483 26.3615C11.9445 25.9704 11.8426 25.5014 11.8426 24.9545C11.8426 24.406 11.9445 23.937 12.1483 23.5476C12.3538 23.1565 12.6323 22.8574 12.9836 22.6502C13.3366 22.4431 13.7359 22.3395 14.1817 22.3395C14.6275 22.3395 15.0261 22.4431 15.3774 22.6502C15.7304 22.8574 16.0088 23.1565 16.2126 23.5476C16.4181 23.937 16.5209 24.406 16.5209 24.9545ZM15.5937 24.9545C15.5937 24.5684 15.5332 24.2428 15.4122 23.9776C15.2929 23.7108 15.1272 23.5095 14.915 23.3736C14.7029 23.236 14.4585 23.1673 14.1817 23.1673C13.905 23.1673 13.6605 23.236 13.4484 23.3736C13.2363 23.5095 13.0698 23.7108 12.9488 23.9776C12.8295 24.2428 12.7698 24.5684 12.7698 24.9545C12.7698 25.3407 12.8295 25.6671 12.9488 25.9339C13.0698 26.1991 13.2363 26.4004 13.4484 26.538C13.6605 26.6739 13.905 26.7418 14.1817 26.7418C14.4585 26.7418 14.7029 26.6739 14.915 26.538C15.1272 26.4004 15.2929 26.1991 15.4122 25.9339C15.5332 25.6671 15.5937 25.3407 15.5937 24.9545ZM21.5763 22.4091V27.5H20.756L18.3572 24.0323H18.315V27.5H17.3928V22.4091H18.218L20.6143 25.8793H20.6591V22.4091H21.5763Z" fill="white"/>
</g>
</g>
<defs>
<filter id="filter0_d_6527_22212" x="-2" y="18" width="30" height="16" filterUnits="userSpaceOnUse" color-interpolation-filters="sRGB">
<feFlood flood-opacity="0" result="BackgroundImageFix"/>
<feColorMatrix in="SourceAlpha" type="matrix" values="0 0 0 0 0 0 0 0 0 0 0 0 0 0 0 0 0 0 127 0" result="hardAlpha"/>
<feOffset dy="1"/>
<feGaussianBlur stdDeviation="1"/>
<feComposite in2="hardAlpha" operator="out"/>
<feColorMatrix type="matrix" values="0 0 0 0 0.211765 0 0 0 0 0.627451 0 0 0 0 0.4 0 0 0 0.2 0"/>
<feBlend mode="normal" in2="BackgroundImageFix" result="effect1_dropShadow_6527_22212"/>
<feBlend mode="normal" in="SourceGraphic" in2="effect1_dropShadow_6527_22212" result="shape"/>
</filter>
<linearGradient id="paint0_linear_6527_22212" x1="19" y1="1" x2="19" y2="39" gradientUnits="userSpaceOnUse">
<stop stop-color="#F7F7F7"/>
<stop offset="1" stop-color="#E6E6E6"/>
</linearGradient>
<linearGradient id="paint1_linear_6527_22212" x1="25.5" y1="-1.5" x2="37.5" y2="26.5" gradientUnits="userSpaceOnUse">
<stop stop-color="#FEFEFE"/>
<stop offset="0.376664" stop-color="#E8E8E8"/>
<stop offset="1" stop-color="#BEBEBE"/>
</linearGradient>
<linearGradient id="paint2_linear_6527_22212" x1="13" y1="19" x2="13" y2="31" gradientUnits="userSpaceOnUse">
<stop stop-color="#FF9900"/>
<stop offset="1" stop-color="#FFBB1B"/>
</linearGradient>
<clipPath id="clip0_6527_22212">
<rect width="40" height="40" fill="white"/>
</clipPath>
</defs>
</svg>
