<svg width="40" height="40" viewBox="0 0 40 40" fill="none" xmlns="http://www.w3.org/2000/svg">
<g clip-path="url(#clip0_2716_55569)">
<path d="M8.2 39H31.8C32.9201 39 33.4802 39 33.908 38.782C34.2843 38.5903 34.5903 38.2843 34.782 37.908C35 37.4802 35 36.9201 35 35.8V16L23 1H8.2C7.0799 1 6.51984 1 6.09202 1.21799C5.71569 1.40973 5.40973 1.71569 5.21799 2.09202C5 2.51984 5 3.0799 5 4.2V35.8C5 36.9201 5 37.4802 5.21799 37.908C5.40973 38.2843 5.71569 38.5903 6.09202 38.782C6.51984 39 7.0799 39 8.2 39Z" fill="url(#paint0_linear_2716_55569)"/>
<path d="M23 1V14C23 15.1046 23.8954 16 25 16H35L23 1Z" fill="url(#paint1_linear_2716_55569)"/>
<g filter="url(#filter0_d_2716_55569)">
<rect y="19" width="19" height="12" rx="3" fill="url(#paint2_linear_2716_55569)" shape-rendering="crispEdges"/>
<rect x="0.25" y="19.25" width="18.5" height="11.5" rx="2.75" stroke="#B82E2E" stroke-width="0.5" shape-rendering="crispEdges"/>
<path d="M3.36914 27.5V22.4072H5.27979C5.67171 22.4072 5.99984 22.4801 6.26416 22.626C6.53076 22.7718 6.73242 22.9723 6.86914 23.2275C7.00586 23.4827 7.07422 23.7721 7.07422 24.0957C7.07422 24.4215 7.00472 24.7121 6.86572 24.9673C6.729 25.2202 6.5262 25.4196 6.25732 25.5654C5.98844 25.709 5.65804 25.7808 5.26611 25.7808H4.00146V25.022H5.13965C5.36979 25.022 5.55778 24.9832 5.70361 24.9058C5.85173 24.826 5.95996 24.7166 6.02832 24.5776C6.09896 24.4364 6.13428 24.2757 6.13428 24.0957C6.13428 23.9134 6.09896 23.7539 6.02832 23.6172C5.95996 23.4782 5.85173 23.3711 5.70361 23.2959C5.55778 23.2184 5.36865 23.1797 5.13623 23.1797H4.29199V27.5H3.36914ZM9.34375 27.5H8.05176V26.7002H9.2959C9.64909 26.7002 9.94417 26.6364 10.1812 26.5088C10.4204 26.3789 10.5993 26.1841 10.7178 25.9243C10.8385 25.6646 10.8989 25.3398 10.8989 24.9502C10.8989 24.5605 10.8397 24.237 10.7212 23.9795C10.6027 23.722 10.4261 23.5295 10.1914 23.4019C9.95671 23.272 9.66618 23.207 9.31982 23.207H8.02441V22.4072H9.37451C9.88037 22.4072 10.3145 22.5086 10.6768 22.7114C11.0413 22.9142 11.3216 23.2059 11.5176 23.5864C11.7135 23.967 11.8115 24.4215 11.8115 24.9502C11.8115 25.4788 11.7135 25.9346 11.5176 26.3174C11.3216 26.6979 11.0391 26.9907 10.6699 27.1958C10.3031 27.3986 9.861 27.5 9.34375 27.5ZM8.53711 22.4072V27.5H7.61426V22.4072H8.53711ZM12.4199 27.5V22.4072H15.6875V23.1797H13.3428V24.7075H15.4585V25.4697H13.3428V27.5H12.4199Z" fill="white"/>
</g>
</g>
<defs>
<filter id="filter0_d_2716_55569" x="-2" y="18" width="23" height="16" filterUnits="userSpaceOnUse" color-interpolation-filters="sRGB">
<feFlood flood-opacity="0" result="BackgroundImageFix"/>
<feColorMatrix in="SourceAlpha" type="matrix" values="0 0 0 0 0 0 0 0 0 0 0 0 0 0 0 0 0 0 127 0" result="hardAlpha"/>
<feOffset dy="1"/>
<feGaussianBlur stdDeviation="1"/>
<feComposite in2="hardAlpha" operator="out"/>
<feColorMatrix type="matrix" values="0 0 0 0 0.870588 0 0 0 0 0.313726 0 0 0 0 0.313726 0 0 0 0.2 0"/>
<feBlend mode="normal" in2="BackgroundImageFix" result="effect1_dropShadow_2716_55569"/>
<feBlend mode="normal" in="SourceGraphic" in2="effect1_dropShadow_2716_55569" result="shape"/>
</filter>
<linearGradient id="paint0_linear_2716_55569" x1="19" y1="1" x2="19" y2="39" gradientUnits="userSpaceOnUse">
<stop stop-color="#F7F7F7"/>
<stop offset="1" stop-color="#E6E6E6"/>
</linearGradient>
<linearGradient id="paint1_linear_2716_55569" x1="25.5" y1="-1.5" x2="37.5" y2="26.5" gradientUnits="userSpaceOnUse">
<stop stop-color="#FEFEFE"/>
<stop offset="0.376664" stop-color="#E8E8E8"/>
<stop offset="1" stop-color="#BEBEBE"/>
</linearGradient>
<linearGradient id="paint2_linear_2716_55569" x1="9.5" y1="19" x2="9.5" y2="31" gradientUnits="userSpaceOnUse">
<stop stop-color="#E35959"/>
<stop offset="1" stop-color="#BF2020"/>
</linearGradient>
<clipPath id="clip0_2716_55569">
<rect width="40" height="40" fill="white"/>
</clipPath>
</defs>
</svg>
