<svg width="40" height="40" viewBox="0 0 40 40" fill="none" xmlns="http://www.w3.org/2000/svg">
<g clip-path="url(#clip0_2716_55547)">
<path d="M8.2 39H31.8C32.9201 39 33.4802 39 33.908 38.782C34.2843 38.5903 34.5903 38.2843 34.782 37.908C35 37.4802 35 36.9201 35 35.8V16L23 1H8.2C7.0799 1 6.51984 1 6.09202 1.21799C5.71569 1.40973 5.40973 1.71569 5.21799 2.09202C5 2.51984 5 3.0799 5 4.2V35.8C5 36.9201 5 37.4802 5.21799 37.908C5.40973 38.2843 5.71569 38.5903 6.09202 38.782C6.51984 39 7.0799 39 8.2 39Z" fill="url(#paint0_linear_2716_55547)"/>
<path d="M23 1V14C23 15.1046 23.8954 16 25 16H35L23 1Z" fill="url(#paint1_linear_2716_55547)"/>
<g filter="url(#filter0_d_2716_55547)">
<rect y="19" width="20" height="12" rx="3" fill="url(#paint2_linear_2716_55547)" shape-rendering="crispEdges"/>
<rect x="0.25" y="19.25" width="19.5" height="11.5" rx="2.75" stroke="#3B65A7" stroke-width="0.5" shape-rendering="crispEdges"/>
<path d="M3.14697 23.1797V22.4072H7.20752V23.1797H5.63525V27.5H4.72266V23.1797H3.14697ZM8.49609 22.4072L9.61719 24.2734H9.6582L10.7827 22.4072H11.8354L10.2666 24.957L11.8594 27.5H10.793L9.6582 25.6475H9.61719L8.48242 27.5H7.42285L9.0293 24.957L7.44336 22.4072H8.49609ZM12.0679 23.1797V22.4072H16.1284V23.1797H14.5562V27.5H13.6436V23.1797H12.0679Z" fill="white"/>
</g>
</g>
<defs>
<filter id="filter0_d_2716_55547" x="-2" y="18" width="24" height="16" filterUnits="userSpaceOnUse" color-interpolation-filters="sRGB">
<feFlood flood-opacity="0" result="BackgroundImageFix"/>
<feColorMatrix in="SourceAlpha" type="matrix" values="0 0 0 0 0 0 0 0 0 0 0 0 0 0 0 0 0 0 127 0" result="hardAlpha"/>
<feOffset dy="1"/>
<feGaussianBlur stdDeviation="1"/>
<feComposite in2="hardAlpha" operator="out"/>
<feColorMatrix type="matrix" values="0 0 0 0 0.298039 0 0 0 0 0.498039 0 0 0 0 0.819608 0 0 0 0.2 0"/>
<feBlend mode="normal" in2="BackgroundImageFix" result="effect1_dropShadow_2716_55547"/>
<feBlend mode="normal" in="SourceGraphic" in2="effect1_dropShadow_2716_55547" result="shape"/>
</filter>
<linearGradient id="paint0_linear_2716_55547" x1="19" y1="1" x2="19" y2="39" gradientUnits="userSpaceOnUse">
<stop stop-color="#F7F7F7"/>
<stop offset="1" stop-color="#E6E6E6"/>
</linearGradient>
<linearGradient id="paint1_linear_2716_55547" x1="25.5" y1="-1.5" x2="37.5" y2="26.5" gradientUnits="userSpaceOnUse">
<stop stop-color="#FEFEFE"/>
<stop offset="0.376664" stop-color="#E8E8E8"/>
<stop offset="1" stop-color="#BEBEBE"/>
</linearGradient>
<linearGradient id="paint2_linear_2716_55547" x1="10" y1="19" x2="10" y2="31" gradientUnits="userSpaceOnUse">
<stop stop-color="#598BDD"/>
<stop offset="1" stop-color="#4072C4"/>
</linearGradient>
<clipPath id="clip0_2716_55547">
<rect width="40" height="40" fill="white"/>
</clipPath>
</defs>
</svg>
