<svg width="40" height="40" viewBox="0 0 40 40" fill="none" xmlns="http://www.w3.org/2000/svg">
<g clip-path="url(#clip0_2716_55567)">
<path d="M8.2 39H31.8C32.9201 39 33.4802 39 33.908 38.782C34.2843 38.5903 34.5903 38.2843 34.782 37.908C35 37.4802 35 36.9201 35 35.8V16L23 1H8.2C7.0799 1 6.51984 1 6.09202 1.21799C5.71569 1.40973 5.40973 1.71569 5.21799 2.09202C5 2.51984 5 3.0799 5 4.2V35.8C5 36.9201 5 37.4802 5.21799 37.908C5.40973 38.2843 5.71569 38.5903 6.09202 38.782C6.51984 39 7.0799 39 8.2 39Z" fill="url(#paint0_linear_2716_55567)"/>
<path d="M23 1V14C23 15.1046 23.8954 16 25 16H35L23 1Z" fill="url(#paint1_linear_2716_55567)"/>
<g filter="url(#filter0_d_2716_55567)">
<rect y="19" width="21" height="12" rx="3" fill="url(#paint2_linear_2716_55567)" shape-rendering="crispEdges"/>
<rect x="0.25" y="19.25" width="20.5" height="11.5" rx="2.75" stroke="#2D8554" stroke-width="0.5" shape-rendering="crispEdges"/>
<path d="M4.1416 22.4072L5.2627 24.2734H5.30371L6.42822 22.4072H7.48096L5.91211 24.957L7.50488 27.5H6.43848L5.30371 25.6475H5.2627L4.12793 27.5H3.06836L4.6748 24.957L3.08887 22.4072H4.1416ZM7.93555 22.4072H9.06689L10.5776 26.0952H10.6357L12.1499 22.4072H13.2949V27.5H12.3892V24H12.3481L10.9331 27.4829H10.27L8.87207 23.9932H8.82422V27.5H7.93555V22.4072ZM14.0332 27.5V22.4072H14.9561V26.7275H17.2017V27.5H14.0332Z" fill="white"/>
</g>
</g>
<defs>
<filter id="filter0_d_2716_55567" x="-2" y="18" width="25" height="16" filterUnits="userSpaceOnUse" color-interpolation-filters="sRGB">
<feFlood flood-opacity="0" result="BackgroundImageFix"/>
<feColorMatrix in="SourceAlpha" type="matrix" values="0 0 0 0 0 0 0 0 0 0 0 0 0 0 0 0 0 0 127 0" result="hardAlpha"/>
<feOffset dy="1"/>
<feGaussianBlur stdDeviation="1"/>
<feComposite in2="hardAlpha" operator="out"/>
<feColorMatrix type="matrix" values="0 0 0 0 0.211765 0 0 0 0 0.627451 0 0 0 0 0.4 0 0 0 0.2 0"/>
<feBlend mode="normal" in2="BackgroundImageFix" result="effect1_dropShadow_2716_55567"/>
<feBlend mode="normal" in="SourceGraphic" in2="effect1_dropShadow_2716_55567" result="shape"/>
</filter>
<linearGradient id="paint0_linear_2716_55567" x1="19" y1="1" x2="19" y2="39" gradientUnits="userSpaceOnUse">
<stop stop-color="#F7F7F7"/>
<stop offset="1" stop-color="#E6E6E6"/>
</linearGradient>
<linearGradient id="paint1_linear_2716_55567" x1="25.5" y1="-1.5" x2="37.5" y2="26.5" gradientUnits="userSpaceOnUse">
<stop stop-color="#FEFEFE"/>
<stop offset="0.376664" stop-color="#E8E8E8"/>
<stop offset="1" stop-color="#BEBEBE"/>
</linearGradient>
<linearGradient id="paint2_linear_2716_55567" x1="10.5" y1="19" x2="10.5" y2="31" gradientUnits="userSpaceOnUse">
<stop stop-color="#3FB675"/>
<stop offset="1" stop-color="#288250"/>
</linearGradient>
<clipPath id="clip0_2716_55567">
<rect width="40" height="40" fill="white"/>
</clipPath>
</defs>
</svg>
