<svg width="24" height="24" viewBox="0 0 24 24" fill="none" xmlns="http://www.w3.org/2000/svg">
<path opacity="0.4" d="M16.19 2H7.81C4.17 2 2 4.17 2 7.81V16.18C2 19.83 4.17 22 7.81 22H16.18C19.82 22 21.99 19.83 21.99 16.19V7.81C22 4.17 19.83 2 16.19 2Z" fill="#211B2A"/>
<path d="M16.42 7.81039V16.1904C16.42 16.8304 15.9 17.3504 15.26 17.3504C14.61 17.3504 14.09 16.8304 14.09 16.1904V7.81039C14.09 7.17039 14.61 6.65039 15.26 6.65039C15.9 6.65039 16.42 7.17039 16.42 7.81039Z" fill="#211B2A"/>
<path d="M9.90996 12.9295V16.1895C9.90996 16.8295 9.38996 17.3495 8.73996 17.3495C8.09996 17.3495 7.57996 16.8295 7.57996 16.1895V12.9295C7.57996 12.2895 8.09996 11.7695 8.73996 11.7695C9.38996 11.7695 9.90996 12.2895 9.90996 12.9295Z" fill="#211B2A"/>
</svg>
