<svg width="24" height="24" viewBox="0 0 24 24" fill="none" xmlns="http://www.w3.org/2000/svg">
<path d="M22 13V9C22 4 20 2 15 2H9C4 2 2 4 2 9V15C2 20 4 22 9 22H13" stroke="#211B2A" stroke-width="1.5" stroke-linecap="round" stroke-linejoin="round"/>
<path d="M7.32996 14.4898L9.70996 11.3998C10.05 10.9598 10.68 10.8798 11.12 11.2198L12.95 12.6598C13.39 12.9998 14.02 12.9198 14.36 12.4898L16.67 9.50977" stroke="#211B2A" stroke-width="1.5" stroke-linecap="round" stroke-linejoin="round"/>
<path d="M20.55 16.9797C20.25 16.9297 19.89 16.6597 19.75 16.3797L19.47 15.8097C18.93 14.7197 18.05 14.7197 17.52 15.8097L17.24 16.3797C17.1 16.6597 16.75 16.9197 16.44 16.9797L16.06 17.0397C14.92 17.2297 14.65 18.0697 15.47 18.8997L15.82 19.2497C16.05 19.4897 16.1799 19.9497 16.1099 20.2697L16.06 20.4797C15.75 21.8597 16.48 22.3897 17.68 21.6697L17.94 21.5197C18.25 21.3397 18.75 21.3397 19.06 21.5197L19.32 21.6697C20.53 22.3997 21.26 21.8597 20.94 20.4797L20.89 20.2697" stroke="#211B2A" stroke-width="1.5" stroke-linecap="round" stroke-linejoin="round"/>
</svg>
