<svg width="24" height="24" viewBox="0 0 24 24" fill="none" xmlns="http://www.w3.org/2000/svg">
<path opacity="0.4" d="M22 7.81V15.16C21.71 15.02 21.39 14.92 21.03 14.86L20.72 14.81L20.46 14.27C19.91 13.15 19.01 12.5 18 12.5C16.99 12.5 16.09 13.15 15.54 14.27L15.27 14.81L14.97 14.86C13.78 15.06 12.92 15.72 12.61 16.66C12.31 17.61 12.62 18.65 13.47 19.51L13.78 19.82L13.75 19.94C13.55 20.83 13.63 21.51 13.82 22H7.81C4.17 22 2 19.83 2 16.19V7.81C2 4.17 4.17 2 7.81 2H16.19C19.83 2 22 4.17 22 7.81Z" fill="#211B2A"/>
<path d="M19.12 14.9395L19.44 15.5895C19.6 15.9095 20.01 16.2095 20.35 16.2695L20.78 16.3395C22.09 16.5595 22.39 17.5195 21.46 18.4595L21.06 18.8595C20.79 19.1295 20.65 19.6495 20.73 20.0295L20.78 20.2695C21.14 21.8495 20.3 22.4595 18.93 21.6295L18.64 21.4495C18.29 21.2395 17.71 21.2395 17.36 21.4495L17.07 21.6295C15.69 22.4595 14.86 21.8495 15.22 20.2695L15.27 20.0295C15.35 19.6595 15.21 19.1295 14.94 18.8595L14.54 18.4595C13.61 17.5095 13.91 16.5595 15.22 16.3395L15.65 16.2695C16 16.2095 16.4 15.9095 16.56 15.5895L16.88 14.9395C17.5 13.6895 18.5 13.6895 19.12 14.9395Z" fill="#211B2A"/>
<path fill-rule="evenodd" clip-rule="evenodd" d="M16.1295 7.91704C16.4569 8.17081 16.5166 8.64192 16.2628 8.9693L13.9483 11.955C13.3535 12.7073 12.2566 12.8445 11.4914 12.2533L11.4862 12.2492L9.65964 10.8119C9.54679 10.7262 9.38939 10.7475 9.3037 10.8581C9.30362 10.8582 9.30378 10.858 9.3037 10.8581L6.92417 13.9475C6.67142 14.2756 6.2005 14.3367 5.87234 14.084C5.54418 13.8312 5.48306 13.3603 5.73581 13.0321L8.11653 9.94122C8.71045 9.17263 9.81166 9.03371 10.5786 9.62634L10.5838 9.63038L12.4104 11.0677C12.5244 11.1543 12.6851 11.132 12.7702 11.0265L15.0773 8.05031C15.331 7.72293 15.8021 7.66327 16.1295 7.91704Z" fill="#211B2A"/>
</svg>
