<svg width="24" height="24" viewBox="0 0 24 24" fill="none" xmlns="http://www.w3.org/2000/svg">
<path opacity="0.4" d="M16.19 2H7.81C4.17 2 2 4.17 2 7.81V16.18C2 19.83 4.17 22 7.81 22H16.18C19.82 22 21.99 19.83 21.99 16.19V7.81C22 4.17 19.83 2 16.19 2Z" fill="#211B2A"/>
<path d="M13.86 6.65039H10.14C8.21999 6.65039 6.64999 8.21039 6.64999 10.1404V13.8604C6.64999 15.7804 8.21999 17.3504 10.14 17.3504H13.86C15.78 17.3504 17.35 15.7904 17.35 13.8604V10.1404C17.35 8.22039 15.78 6.65039 13.86 6.65039ZM15.95 10.1404V11.3004H12.7V8.05039H13.86C15.01 8.05039 15.95 8.99039 15.95 10.1404ZM10.14 8.05039H11.3V11.3104H8.04999V10.1504C8.04999 8.99039 8.98999 8.05039 10.14 8.05039ZM8.04999 13.8604V12.7004H11.31V15.9604H10.15C8.98999 15.9504 8.04999 15.0104 8.04999 13.8604ZM13.86 15.9504H12.7V12.7004H15.96V13.8604C15.95 15.0104 15.01 15.9504 13.86 15.9504Z" fill="#211B2A"/>
</svg>
