<svg width="24" height="24" viewBox="0 0 24 24" fill="none" xmlns="http://www.w3.org/2000/svg">
<path opacity="0.4" d="M20.03 6.81969L14.28 2.78969C12.71 1.68969 10.31 1.74969 8.8 2.91969L3.79 6.82969C2.78 7.60969 2 9.20969 2 10.4697V17.3697C2 19.9197 4.07 21.9997 6.61 21.9997H17.38C19.92 21.9997 21.99 19.9297 21.99 17.3797V10.5997C22 9.24969 21.13 7.58969 20.03 6.81969Z" fill="#211B2A"/>
<path d="M13.4 8.50977H10.6C8.67999 8.50977 7.10999 10.0698 7.10999 11.9998V14.7898C7.10999 16.7098 8.67999 18.2798 10.6 18.2798H13.39C15.31 18.2798 16.88 16.7198 16.88 14.7898V11.9998C16.88 10.0798 15.32 8.50977 13.4 8.50977ZM15.49 11.9998V12.6998H12.7V9.90977H13.4C14.55 9.90977 15.49 10.8498 15.49 11.9998ZM10.6 9.90977H11.3V12.6998H8.50999V11.9998C8.50999 10.8498 9.44999 9.90977 10.6 9.90977ZM8.50999 14.7898V14.0898H11.3V16.8798H10.6C9.44999 16.8798 8.50999 15.9398 8.50999 14.7898ZM13.4 16.8798H12.7V14.0898H15.49V14.7898C15.49 15.9398 14.55 16.8798 13.4 16.8798Z" fill="#211B2A"/>
</svg>
