<svg width="24" height="24" viewBox="0 0 24 24" fill="none" xmlns="http://www.w3.org/2000/svg">
<path opacity="0.4" d="M20.04 6.81969L14.28 2.78969C12.71 1.68969 10.3 1.74969 8.78999 2.91969L3.77999 6.82969C2.77999 7.60969 1.98999 9.20969 1.98999 10.4697V17.3697C1.98999 19.9197 4.05999 21.9997 6.60999 21.9997H17.39C19.94 21.9997 22.01 19.9297 22.01 17.3797V10.5997C22.01 9.24969 21.14 7.58969 20.04 6.81969Z" fill="#211B2A"/>
<path d="M16.88 14.3304C16.88 13.9404 16.57 13.6304 16.18 13.6304C15.79 13.6304 15.48 13.9404 15.48 14.3304V14.5104L12.76 11.7904C12.61 11.6404 12.41 11.5704 12.2 11.5904C11.99 11.6104 11.8 11.7204 11.69 11.9004L10.67 13.4204L8.29 11.0404C8.02 10.7704 7.58 10.7704 7.3 11.0404C7.03 11.3104 7.03 11.7504 7.3 12.0304L10.28 15.0104C10.43 15.1604 10.63 15.2304 10.84 15.2104C11.05 15.1904 11.24 15.0804 11.35 14.9004L12.37 13.3804L14.48 15.4904H14.3C13.91 15.4904 13.6 15.8004 13.6 16.1904C13.6 16.5804 13.91 16.8904 14.3 16.8904H16.16C16.25 16.8904 16.34 16.8704 16.43 16.8404C16.6 16.7704 16.74 16.6304 16.81 16.4604C16.85 16.3704 16.86 16.2804 16.86 16.1904V14.3304H16.88Z" fill="#211B2A"/>
</svg>
