<svg width="24" height="24" viewBox="0 0 24 24" fill="none" xmlns="http://www.w3.org/2000/svg">
<path d="M17 21.75H7C2.59 21.75 1.25 20.41 1.25 16V8C1.25 3.59 2.59 2.25 7 2.25H17C21.41 2.25 22.75 3.59 22.75 8V16C22.75 20.41 21.41 21.75 17 21.75ZM7 3.75C3.42 3.75 2.75 4.43 2.75 8V16C2.75 19.57 3.42 20.25 7 20.25H17C20.58 20.25 21.25 19.57 21.25 16V8C21.25 4.43 20.58 3.75 17 3.75H7Z" fill="#211B2A"/>
<path d="M19 8.75H14C13.59 8.75 13.25 8.41 13.25 8C13.25 7.59 13.59 7.25 14 7.25H19C19.41 7.25 19.75 7.59 19.75 8C19.75 8.41 19.41 8.75 19 8.75Z" fill="#211B2A"/>
<path d="M19 12.75H15C14.59 12.75 14.25 12.41 14.25 12C14.25 11.59 14.59 11.25 15 11.25H19C19.41 11.25 19.75 11.59 19.75 12C19.75 12.41 19.41 12.75 19 12.75Z" fill="#211B2A"/>
<path d="M19 16.75H17C16.59 16.75 16.25 16.41 16.25 16C16.25 15.59 16.59 15.25 17 15.25H19C19.41 15.25 19.75 15.59 19.75 16C19.75 16.41 19.41 16.75 19 16.75Z" fill="#211B2A"/>
<path d="M8.5 12.0399C7.09 12.0399 5.94 10.8899 5.94 9.47992C5.94 8.06992 7.09 6.91992 8.5 6.91992C9.91 6.91992 11.06 8.06992 11.06 9.47992C11.06 10.8899 9.91 12.0399 8.5 12.0399ZM8.5 8.41992C7.92 8.41992 7.44 8.89992 7.44 9.47992C7.44 10.0599 7.92 10.5399 8.5 10.5399C9.08 10.5399 9.56 10.0599 9.56 9.47992C9.56 8.89992 9.08 8.41992 8.5 8.41992Z" fill="#211B2A"/>
<path d="M12 17.0798C11.62 17.0798 11.29 16.7898 11.25 16.3998C11.14 15.3198 10.27 14.4498 9.18 14.3498C8.72 14.3098 8.26 14.3098 7.8 14.3498C6.71 14.4498 5.84 15.3098 5.73 16.3998C5.69 16.8098 5.32 17.1198 4.91 17.0698C4.5 17.0298 4.2 16.6598 4.24 16.2498C4.42 14.4498 5.85 13.0198 7.66 12.8598C8.21 12.8098 8.77 12.8098 9.32 12.8598C11.12 13.0298 12.56 14.4598 12.74 16.2498C12.78 16.6598 12.48 17.0298 12.07 17.0698C12.05 17.0798 12.02 17.0798 12 17.0798Z" fill="#211B2A"/>
</svg>
