<svg width="24" height="24" viewBox="0 0 24 24" fill="none" xmlns="http://www.w3.org/2000/svg">
<path opacity="0.4" d="M21 2V14.1C21 16 20 17 18.1 17H5.89999C3.99999 17 3 16 3 14.1V2H21Z" fill="#211B2A"/>
<path d="M22 2.75H2C1.59 2.75 1.25 2.41 1.25 2C1.25 1.59 1.59 1.25 2 1.25H22C22.41 1.25 22.75 1.59 22.75 2C22.75 2.41 22.41 2.75 22 2.75Z" fill="#211B2A"/>
<path d="M16.67 22.34C16.54 22.6 16.27 22.75 16 22.75C15.89 22.75 15.77 22.72 15.67 22.67L12 20.84L8.32998 22.67C8.22998 22.72 8.10999 22.75 7.99999 22.75C7.72999 22.75 7.45998 22.6 7.32998 22.34C7.13998 21.96 7.29 21.51 7.67 21.33L11.25 19.54V17H12.75V19.54L16.33 21.33C16.71 21.51 16.86 21.96 16.67 22.34Z" fill="#211B2A"/>
<path d="M7.49999 11.7509C7.28999 11.7509 7.07 11.6609 6.92 11.4809C6.65 11.1609 6.69998 10.6909 7.01998 10.4209L10.17 7.79091C10.46 7.55091 10.83 7.45091 11.18 7.51091C11.54 7.57091 11.85 7.79089 12.04 8.11089L13.09 9.86089L16.02 7.42092C16.34 7.15092 16.81 7.20089 17.08 7.52089C17.35 7.84089 17.3 8.31089 16.98 8.58089L13.83 11.2109C13.54 11.4509 13.17 11.5509 12.82 11.4909C12.46 11.4309 12.15 11.2109 11.96 10.8909L10.91 9.14092L7.98 11.5809C7.84 11.6909 7.66999 11.7509 7.49999 11.7509Z" fill="#211B2A"/>
</svg>
