<svg width="24" height="24" viewBox="0 0 24 24" fill="none" xmlns="http://www.w3.org/2000/svg">
<path d="M7.5 15.2495C7.31 15.2495 7.12 15.1795 6.97 15.0295C6.68 14.7395 6.68 14.2595 6.97 13.9695L10.17 10.7695C10.33 10.6095 10.54 10.5295 10.77 10.5495C10.99 10.5695 11.19 10.6895 11.32 10.8795L12.41 12.5195L15.96 8.96945C16.25 8.67945 16.73 8.67945 17.02 8.96945C17.31 9.25945 17.31 9.73945 17.02 10.0295L12.82 14.2295C12.66 14.3895 12.45 14.4695 12.22 14.4495C12 14.4295 11.8 14.3095 11.67 14.1195L10.58 12.4795L8.03 15.0295C7.88 15.1795 7.69 15.2495 7.5 15.2495Z" fill="#211B2A"/>
<path d="M16.5 12.25C16.09 12.25 15.75 11.91 15.75 11.5V10.25H14.5C14.09 10.25 13.75 9.91 13.75 9.5C13.75 9.09 14.09 8.75 14.5 8.75H16.5C16.91 8.75 17.25 9.09 17.25 9.5V11.5C17.25 11.91 16.91 12.25 16.5 12.25Z" fill="#211B2A"/>
<path d="M15 22.75H9C3.57 22.75 1.25 20.43 1.25 15V9C1.25 3.57 3.57 1.25 9 1.25H15C20.43 1.25 22.75 3.57 22.75 9V15C22.75 20.43 20.43 22.75 15 22.75ZM9 2.75C4.39 2.75 2.75 4.39 2.75 9V15C2.75 19.61 4.39 21.25 9 21.25H15C19.61 21.25 21.25 19.61 21.25 15V9C21.25 4.39 19.61 2.75 15 2.75H9Z" fill="#211B2A"/>
</svg>
