<svg width="24" height="24" viewBox="0 0 24 24" fill="none" xmlns="http://www.w3.org/2000/svg">
<path opacity="0.4" d="M16.19 2H7.81C4.17 2 2 4.17 2 7.81V16.18C2 19.83 4.17 22 7.81 22H16.18C19.82 22 21.99 19.83 21.99 16.19V7.81C22 4.17 19.83 2 16.19 2Z" fill="#211B2A"/>
<path d="M16.83 9.41047C16.76 9.24047 16.62 9.10047 16.45 9.03047C16.37 9.00047 16.28 8.98047 16.19 8.98047H14.33C13.94 8.98047 13.63 9.29047 13.63 9.68047C13.63 10.0705 13.94 10.3805 14.33 10.3805H14.51L12.4 12.4905L11.38 10.9705C11.26 10.8005 11.08 10.6805 10.87 10.6605C10.65 10.6405 10.46 10.7105 10.31 10.8605L7.33 13.8405C7.06 14.1105 7.06 14.5505 7.33 14.8305C7.47 14.9705 7.64 15.0305 7.82 15.0305C8 15.0305 8.18 14.9605 8.31 14.8305L10.69 12.4505L11.71 13.9705C11.83 14.1405 12.01 14.2605 12.22 14.2805C12.44 14.3005 12.63 14.2305 12.78 14.0805L15.5 11.3605V11.5405C15.5 11.9305 15.81 12.2405 16.2 12.2405C16.59 12.2405 16.9 11.9305 16.9 11.5405V9.67047C16.88 9.58047 16.87 9.49047 16.83 9.41047Z" fill="#211B2A"/>
</svg>
