<svg width="24" height="24" viewBox="0 0 24 24" fill="none" xmlns="http://www.w3.org/2000/svg">
<path opacity="0.4" d="M16.19 2H7.81C4.17 2 2 4.17 2 7.81V16.18C2 19.83 4.17 22 7.81 22H16.18C19.82 22 21.99 19.83 21.99 16.19V7.81C22 4.17 19.83 2 16.19 2Z" fill="#211B2A"/>
<path d="M16.88 12.4691C16.88 12.0791 16.57 11.7691 16.18 11.7691C15.79 11.7691 15.48 12.0791 15.48 12.4691V12.6491L12.76 9.92906C12.61 9.77906 12.41 9.70906 12.2 9.72906C11.99 9.74906 11.8 9.85906 11.69 10.0391L10.67 11.5591L8.30999 9.17906C8.03999 8.90906 7.59999 8.90906 7.31999 9.17906C7.04999 9.44906 7.04999 9.88906 7.31999 10.1691L10.3 13.1491C10.45 13.2991 10.65 13.3691 10.86 13.3491C11.07 13.3291 11.26 13.2191 11.37 13.0391L12.39 11.5191L14.5 13.6291H14.32C13.93 13.6291 13.62 13.9391 13.62 14.3291C13.62 14.7191 13.93 15.0291 14.32 15.0291H16.18C16.27 15.0291 16.36 15.0091 16.45 14.9791C16.62 14.9091 16.76 14.7691 16.83 14.5991C16.87 14.5091 16.88 14.4191 16.88 14.3291V12.4691Z" fill="#211B2A"/>
</svg>
