<svg width="200" height="200" viewBox="0 0 200 200" fill="none" xmlns="http://www.w3.org/2000/svg">
<g clip-path="url(#clip0_2579_6837)">
<path d="M186.251 55.1714V83.5308H13.751V32.9058C13.751 25.7964 20.1182 20.0542 27.9697 20.0542H68.5166C73.2822 20.0542 77.7744 22.2417 80.3916 25.8354L88.8682 37.437C91.0947 40.4839 94.8447 42.3198 98.8682 42.3198H171.993C179.884 42.3198 186.251 48.062 186.251 55.1714Z" fill="url(#paint0_linear_2579_6837)"/>
<path d="M37.9697 56.5776H162.032C165.704 56.5776 168.673 59.5464 168.673 63.2183V92.1636C168.673 95.8355 165.704 98.8042 162.032 98.8042H37.9697C34.2979 98.8042 31.3291 95.8355 31.3291 92.1636V63.2183C31.3291 59.5464 34.2979 56.5776 37.9697 56.5776Z" fill="white"/>
<path d="M176.955 180.445H23.0487C17.3456 180.445 12.4237 176.46 11.2128 170.874L0.275294 90.6399C-1.13096 84.1165 3.04873 77.6711 9.57217 76.2649C10.3925 76.0696 11.2519 75.9915 12.1112 75.9915H187.892C194.572 75.9915 200.002 81.4211 200.002 88.1008C200.002 88.9602 199.924 89.7805 199.728 90.6399L188.791 170.874C187.58 176.46 182.658 180.445 176.955 180.445Z" fill="url(#paint1_linear_2579_6837)"/>
</g>
<defs>
<linearGradient id="paint0_linear_2579_6837" x1="100" y1="19.6032" x2="100" y2="82.2727" gradientUnits="userSpaceOnUse">
<stop offset="0.363391" stop-color="#B691F2"/>
<stop offset="1" stop-color="#6F3AC6"/>
</linearGradient>
<linearGradient id="paint1_linear_2579_6837" x1="100.001" y1="75.2494" x2="100.001" y2="178.374" gradientUnits="userSpaceOnUse">
<stop offset="0.363391" stop-color="#B691F2"/>
<stop offset="1" stop-color="#6F3AC6"/>
</linearGradient>
<clipPath id="clip0_2579_6837">
<rect width="200" height="162.5" fill="white" transform="translate(0 19)"/>
</clipPath>
</defs>
</svg>
