<svg width="200" height="200" viewBox="0 0 200 200" fill="none" xmlns="http://www.w3.org/2000/svg">
<path d="M13.9167 170.833H188.917C190.022 170.833 191.082 171.272 191.863 172.054C192.644 172.835 193.083 173.895 193.083 175V183.333C193.083 186.649 191.766 189.828 189.422 192.172C187.078 194.517 183.899 195.833 180.583 195.833H22.25C18.9348 195.833 15.7554 194.517 13.4112 192.172C11.067 189.828 9.75 186.649 9.75 183.333V175C9.75 173.895 10.189 172.835 10.9704 172.054C11.7518 171.272 12.8116 170.833 13.9167 170.833Z" fill="#4795EA"/>
<path d="M122.25 179.167H80.5833C78.3732 179.167 76.2536 178.289 74.6908 176.726C73.128 175.163 72.25 173.044 72.25 170.833H130.583C130.583 173.044 129.705 175.163 128.143 176.726C126.58 178.289 124.46 179.167 122.25 179.167Z" fill="url(#paint0_linear_2653_9496)"/>
<path d="M76.4174 29.167C75.3124 29.167 74.2526 29.606 73.4712 30.3874C72.6898 31.1688 72.2508 32.2286 72.2508 33.3336V37.5003H65.8758L71.9591 22.3753C72.1621 21.8665 72.2627 21.3226 72.2553 20.7749C72.2478 20.2271 72.1324 19.6862 71.9157 19.1831C71.699 18.68 71.3852 18.2246 70.9922 17.8429C70.5993 17.4612 70.135 17.1607 69.6258 16.9586C69.117 16.7557 68.5731 16.655 68.0254 16.6625C67.4776 16.6699 66.9367 16.7853 66.4336 17.0021C65.9305 17.2188 65.475 17.5326 65.0933 17.9255C64.7116 18.3185 64.4112 18.7828 64.2091 19.292L55.8758 40.1253C55.6239 40.7577 55.5308 41.4422 55.6047 42.1189C55.6785 42.7957 55.917 43.444 56.2993 44.0072C56.6817 44.5704 57.1962 45.0314 57.7979 45.3498C58.3995 45.6682 59.0701 45.8343 59.7508 45.8336H72.2508V50.0003C72.2508 51.1054 72.6898 52.1652 73.4712 52.9466C74.2526 53.728 75.3124 54.167 76.4174 54.167C77.5225 54.167 78.5823 53.728 79.3637 52.9466C80.1451 52.1652 80.5841 51.1054 80.5841 50.0003V33.3336C80.5841 32.2286 80.1451 31.1688 79.3637 30.3874C78.5823 29.606 77.5225 29.167 76.4174 29.167Z" fill="#F0F7FC"/>
<path d="M143.084 29.167C141.979 29.167 140.92 29.606 140.138 30.3874C139.357 31.1688 138.918 32.2286 138.918 33.3336V37.5003H132.543L138.626 22.3753C138.829 21.8665 138.93 21.3226 138.922 20.7749C138.915 20.2271 138.799 19.6862 138.583 19.1831C138.366 18.68 138.052 18.2246 137.659 17.8429C137.266 17.4612 136.802 17.1607 136.293 16.9586C135.784 16.7557 135.24 16.655 134.692 16.6625C134.145 16.6699 133.604 16.7853 133.101 17.0021C132.597 17.2188 132.142 17.5326 131.76 17.9255C131.379 18.3185 131.078 18.7828 130.876 19.292L122.543 40.1253C122.291 40.7577 122.198 41.4422 122.272 42.1189C122.345 42.7957 122.584 43.444 122.966 44.0072C123.349 44.5704 123.863 45.0314 124.465 45.3498C125.067 45.6682 125.737 45.8343 126.418 45.8336H138.918V50.0003C138.918 51.1054 139.357 52.1652 140.138 52.9466C140.92 53.728 141.979 54.167 143.084 54.167C144.19 54.167 145.249 53.728 146.031 52.9466C146.812 52.1652 147.251 51.1054 147.251 50.0003V33.3336C147.251 32.2286 146.812 31.1688 146.031 30.3874C145.249 29.606 144.19 29.167 143.084 29.167Z" fill="#F0F7FC"/>
<path d="M101.418 16.667C98.1028 16.667 94.9233 17.984 92.5791 20.3282C90.2349 22.6724 88.918 25.8518 88.918 29.167V41.667C88.918 44.9822 90.2349 48.1616 92.5791 50.5058C94.9233 52.85 98.1028 54.167 101.418 54.167C104.733 54.167 107.913 52.85 110.257 50.5058C112.601 48.1616 113.918 44.9822 113.918 41.667V29.167C113.918 25.8518 112.601 22.6724 110.257 20.3282C107.913 17.984 104.733 16.667 101.418 16.667ZM105.585 41.667C105.585 42.7721 105.146 43.8319 104.364 44.6133C103.583 45.3947 102.523 45.8337 101.418 45.8337C100.313 45.8337 99.2531 45.3947 98.4717 44.6133C97.6903 43.8319 97.2513 42.7721 97.2513 41.667V29.167C97.2513 28.0619 97.6903 27.0021 98.4717 26.2207C99.2531 25.4393 100.313 25.0003 101.418 25.0003C102.523 25.0003 103.583 25.4393 104.364 26.2207C105.146 27.0021 105.585 28.0619 105.585 29.167V41.667Z" fill="#F0F7FC"/>
<path d="M172.25 37.5H30.583C23.6794 37.5 18.083 43.0964 18.083 50V158.333C18.083 165.237 23.6794 170.833 30.583 170.833H172.25C179.153 170.833 184.75 165.237 184.75 158.333V50C184.75 43.0964 179.153 37.5 172.25 37.5Z" fill="url(#paint1_linear_2653_9496)"/>
<path d="M168.083 50H34.7497C32.4485 50 30.583 51.8655 30.583 54.1667V154.167C30.583 156.468 32.4485 158.333 34.7497 158.333H168.083C170.384 158.333 172.25 156.468 172.25 154.167V54.1667C172.25 51.8655 170.384 50 168.083 50Z" fill="#F0F7FC"/>
<path d="M159.75 12.4998V58.3332C159.75 60.5433 158.872 62.6629 157.309 64.2257C155.746 65.7885 153.626 66.6665 151.416 66.6665H108.333L105.291 72.7082C104.942 73.3907 104.41 73.9635 103.756 74.3634C103.102 74.7634 102.35 74.975 101.583 74.975C100.816 74.975 100.064 74.7634 99.4099 74.3634C98.7556 73.9635 98.2243 73.3907 97.8747 72.7082L94.708 66.6665H51.4163C49.2062 66.6665 47.0866 65.7885 45.5238 64.2257C43.961 62.6629 43.083 60.5433 43.083 58.3332V12.4998C43.083 10.2897 43.961 8.17008 45.5238 6.60728C47.0866 5.04448 49.2062 4.1665 51.4163 4.1665H151.416C153.626 4.1665 155.746 5.04448 157.309 6.60728C158.872 8.17008 159.75 10.2897 159.75 12.4998Z" fill="url(#paint2_linear_2653_9496)"/>
<path d="M76.4165 29.1667C75.3114 29.1667 74.2516 29.6057 73.4702 30.3871C72.6888 31.1685 72.2498 32.2283 72.2498 33.3334V37.5001H65.8748L71.9581 22.3751C72.1611 21.8663 72.2617 21.3224 72.2543 20.7746C72.2468 20.2269 72.1315 19.686 71.9147 19.1829C71.698 18.6798 71.3842 18.2243 70.9913 17.8426C70.5983 17.4609 70.134 17.1605 69.6248 16.9584C69.116 16.7554 68.5721 16.6548 68.0244 16.6623C67.4766 16.6697 66.9357 16.7851 66.4326 17.0018C65.9295 17.2185 65.4741 17.5323 65.0924 17.9253C64.7107 18.3182 64.4102 18.7826 64.2081 19.2917L55.8748 40.1251C55.6229 40.7575 55.5298 41.442 55.6037 42.1187C55.6775 42.7954 55.916 43.4437 56.2984 44.0069C56.6807 44.5702 57.1952 45.0311 57.7969 45.3495C58.3986 45.6679 59.0691 45.8341 59.7498 45.8334H72.2498V50.0001C72.2498 51.1051 72.6888 52.1649 73.4702 52.9463C74.2516 53.7277 75.3114 54.1667 76.4165 54.1667C77.5215 54.1667 78.5814 53.7277 79.3628 52.9463C80.1442 52.1649 80.5831 51.1051 80.5831 50.0001V33.3334C80.5831 32.2283 80.1442 31.1685 79.3628 30.3871C78.5814 29.6057 77.5215 29.1667 76.4165 29.1667Z" fill="#F0F7FC"/>
<path d="M143.083 29.1667C141.978 29.1667 140.919 29.6057 140.137 30.3871C139.356 31.1685 138.917 32.2283 138.917 33.3334V37.5001H132.542L138.625 22.3751C138.828 21.8663 138.929 21.3224 138.921 20.7746C138.914 20.2269 138.798 19.686 138.582 19.1829C138.365 18.6798 138.051 18.2243 137.658 17.8426C137.265 17.4609 136.801 17.1605 136.292 16.9584C135.783 16.7554 135.239 16.6548 134.691 16.6623C134.144 16.6697 133.603 16.7851 133.1 17.0018C132.596 17.2185 132.141 17.5323 131.759 17.9253C131.378 18.3182 131.077 18.7826 130.875 19.2917L122.542 40.1251C122.29 40.7575 122.197 41.442 122.271 42.1187C122.345 42.7954 122.583 43.4437 122.965 44.0069C123.348 44.5702 123.862 45.0311 124.464 45.3495C125.066 45.6679 125.736 45.8341 126.417 45.8334H138.917V50.0001C138.917 51.1051 139.356 52.1649 140.137 52.9463C140.919 53.7277 141.978 54.1667 143.083 54.1667C144.189 54.1667 145.248 53.7277 146.03 52.9463C146.811 52.1649 147.25 51.1051 147.25 50.0001V33.3334C147.25 32.2283 146.811 31.1685 146.03 30.3871C145.248 29.6057 144.189 29.1667 143.083 29.1667Z" fill="#F0F7FC"/>
<path d="M101.417 16.6665C98.1018 16.6665 94.9224 17.9835 92.5782 20.3277C90.234 22.6719 88.917 25.8513 88.917 29.1665V41.6665C88.917 44.9817 90.234 48.1611 92.5782 50.5053C94.9224 52.8495 98.1018 54.1665 101.417 54.1665C104.732 54.1665 107.912 52.8495 110.256 50.5053C112.6 48.1611 113.917 44.9817 113.917 41.6665V29.1665C113.917 25.8513 112.6 22.6719 110.256 20.3277C107.912 17.9835 104.732 16.6665 101.417 16.6665ZM105.584 41.6665C105.584 42.7716 105.145 43.8314 104.363 44.6128C103.582 45.3942 102.522 45.8332 101.417 45.8332C100.312 45.8332 99.2521 45.3942 98.4707 44.6128C97.6893 43.8314 97.2503 42.7716 97.2503 41.6665V29.1665C97.2503 28.0614 97.6893 27.0016 98.4707 26.2202C99.2521 25.4388 100.312 24.9998 101.417 24.9998C102.522 24.9998 103.582 25.4388 104.363 26.2202C105.145 27.0016 105.584 28.0614 105.584 29.1665V41.6665Z" fill="#F0F7FC"/>
<path d="M58.3334 117.875C57.5527 117.099 56.4967 116.663 55.3959 116.663C54.2951 116.663 53.2391 117.099 52.4584 117.875L51.2501 119.125L50.0001 117.875C49.2194 117.099 48.1633 116.663 47.0626 116.663C45.9618 116.663 44.9057 117.099 44.1251 117.875C43.7345 118.262 43.4246 118.723 43.213 119.231C43.0015 119.739 42.8926 120.283 42.8926 120.833C42.8926 121.383 43.0015 121.928 43.213 122.436C43.4246 122.943 43.7345 123.404 44.1251 123.792L45.3334 125L44.1251 126.208C43.7345 126.596 43.4246 127.056 43.213 127.564C43.0015 128.072 42.8926 128.617 42.8926 129.167C42.8926 129.717 43.0015 130.261 43.213 130.769C43.4246 131.277 43.7345 131.738 44.1251 132.125C44.9057 132.901 45.9618 133.337 47.0626 133.337C48.1633 133.337 49.2194 132.901 50.0001 132.125L51.2501 130.875L52.4584 132.125C53.2391 132.901 54.2951 133.337 55.3959 133.337C56.4967 133.337 57.5527 132.901 58.3334 132.125C58.7239 131.738 59.0339 131.277 59.2455 130.769C59.457 130.261 59.5659 129.717 59.5659 129.167C59.5659 128.617 59.457 128.072 59.2455 127.564C59.0339 127.056 58.7239 126.596 58.3334 126.208L57.2917 125L58.5001 123.792C58.8799 123.393 59.1771 122.924 59.3744 122.41C59.5718 121.896 59.6654 121.349 59.6499 120.799C59.6344 120.248 59.5101 119.707 59.2841 119.205C59.0582 118.703 58.735 118.251 58.3334 117.875Z" fill="#B4CDE1"/>
<path d="M58.3334 92.875C57.5527 92.0989 56.4967 91.6633 55.3959 91.6633C54.2951 91.6633 53.2391 92.0989 52.4584 92.875L51.2501 94.125L50.0001 92.875C49.2194 92.0989 48.1633 91.6633 47.0626 91.6633C45.9618 91.6633 44.9057 92.0989 44.1251 92.875C43.7345 93.2623 43.4246 93.7232 43.213 94.2309C43.0015 94.7386 42.8926 95.2833 42.8926 95.8333C42.8926 96.3834 43.0015 96.928 43.213 97.4357C43.4246 97.9435 43.7345 98.4043 44.1251 98.7916L45.3334 100L44.1251 101.208C43.7345 101.596 43.4246 102.056 43.213 102.564C43.0015 103.072 42.8926 103.617 42.8926 104.167C42.8926 104.717 43.0015 105.261 43.213 105.769C43.4246 106.277 43.7345 106.738 44.1251 107.125C44.9057 107.901 45.9618 108.337 47.0626 108.337C48.1633 108.337 49.2194 107.901 50.0001 107.125L51.2501 105.875L52.4584 107.125C53.2391 107.901 54.2951 108.337 55.3959 108.337C56.4967 108.337 57.5527 107.901 58.3334 107.125C58.7239 106.738 59.0339 106.277 59.2455 105.769C59.457 105.261 59.5659 104.717 59.5659 104.167C59.5659 103.617 59.457 103.072 59.2455 102.564C59.0339 102.056 58.7239 101.596 58.3334 101.208L57.2917 100L58.5001 98.7916C58.8799 98.3934 59.1771 97.9239 59.3744 97.4101C59.5718 96.8964 59.6654 96.3487 59.6499 95.7986C59.6344 95.2485 59.5101 94.7069 59.2841 94.2051C59.0582 93.7033 58.735 93.2512 58.3334 92.875Z" fill="#B4CDE1"/>
<path d="M79.8747 102.292C80.4777 101.373 80.6935 100.253 80.475 99.1764C80.2565 98.0995 79.6214 97.1525 78.708 96.5415C78.2516 96.2364 77.7393 96.0245 77.2007 95.918C76.6622 95.8115 76.1078 95.8125 75.5696 95.9209C75.0314 96.0293 74.52 96.243 74.0646 96.5498C73.6093 96.8565 73.219 97.2502 72.9163 97.7082C70.0014 102.091 68.4463 107.237 68.4463 112.5C68.4463 117.763 70.0014 122.909 72.9163 127.292C73.2977 127.871 73.8175 128.345 74.4286 128.673C75.0398 129 75.723 129.17 76.4163 129.167C77.1667 129.163 77.902 128.956 78.5448 128.569C79.1875 128.182 79.7138 127.628 80.068 126.967C80.4222 126.305 80.5913 125.561 80.5572 124.811C80.5232 124.061 80.2874 123.335 79.8747 122.708C77.8557 119.687 76.7781 116.134 76.7781 112.5C76.7781 108.866 77.8557 105.313 79.8747 102.292Z" fill="#B4CDE1"/>
<path d="M155.583 99.9998H97.2497C96.1446 99.9998 95.0848 99.5609 94.3034 98.7795C93.522 97.9981 93.083 96.9382 93.083 95.8332C93.083 94.7281 93.522 93.6683 94.3034 92.8869C95.0848 92.1055 96.1446 91.6665 97.2497 91.6665H155.583C156.688 91.6665 157.748 92.1055 158.529 92.8869C159.311 93.6683 159.75 94.7281 159.75 95.8332C159.75 96.9382 159.311 97.9981 158.529 98.7795C157.748 99.5609 156.688 99.9998 155.583 99.9998Z" fill="#D7E9F7"/>
<path d="M155.583 116.667H97.2497C96.1446 116.667 95.0848 116.228 94.3034 115.446C93.522 114.665 93.083 113.605 93.083 112.5C93.083 111.395 93.522 110.335 94.3034 109.554C95.0848 108.772 96.1446 108.333 97.2497 108.333H155.583C156.688 108.333 157.748 108.772 158.529 109.554C159.311 110.335 159.75 111.395 159.75 112.5C159.75 113.605 159.311 114.665 158.529 115.446C157.748 116.228 156.688 116.667 155.583 116.667Z" fill="#D7E9F7"/>
<path d="M134.75 133.333H97.2497C96.1446 133.333 95.0848 132.894 94.3034 132.113C93.522 131.332 93.083 130.272 93.083 129.167C93.083 128.062 93.522 127.002 94.3034 126.22C95.0848 125.439 96.1446 125 97.2497 125H134.75C135.855 125 136.915 125.439 137.696 126.22C138.477 127.002 138.916 128.062 138.916 129.167C138.916 130.272 138.477 131.332 137.696 132.113C136.915 132.894 135.855 133.333 134.75 133.333Z" fill="#D7E9F7"/>
<defs>
<linearGradient id="paint0_linear_2653_9496" x1="72.25" y1="175" x2="130.583" y2="175" gradientUnits="userSpaceOnUse">
<stop stop-color="#D3E6F5"/>
<stop offset="1" stop-color="#F0F7FC"/>
</linearGradient>
<linearGradient id="paint1_linear_2653_9496" x1="101.416" y1="170.833" x2="101.416" y2="37.5" gradientUnits="userSpaceOnUse">
<stop stop-color="#54A5FF"/>
<stop offset="1" stop-color="#8AD3FE"/>
</linearGradient>
<linearGradient id="paint2_linear_2653_9496" x1="43.083" y1="39.5832" x2="159.75" y2="39.5832" gradientUnits="userSpaceOnUse">
<stop stop-color="#FE9661"/>
<stop offset="1" stop-color="#FFB369"/>
</linearGradient>
</defs>
</svg>
