<svg width="200" height="200" viewBox="0 0 200 200" fill="none" xmlns="http://www.w3.org/2000/svg">
<path d="M186.253 55.1719V83.5312H13.7529V32.9062C13.7529 25.7969 20.1201 20.0547 27.9717 20.0547H68.5185C73.2842 20.0547 77.7764 22.2422 80.3935 25.8359L88.8701 37.4375C91.0967 40.4844 94.8467 42.3203 98.8701 42.3203H171.995C179.886 42.3203 186.253 48.0625 186.253 55.1719Z" fill="url(#paint0_linear_2655_16896)"/>
<path d="M37.9687 56.5776H162.031C165.703 56.5776 168.672 59.5464 168.672 63.2183V92.1636C168.672 95.8355 165.703 98.8042 162.031 98.8042H37.9687C34.2969 98.8042 31.3281 95.8355 31.3281 92.1636V63.2183C31.3281 59.5464 34.2969 56.5776 37.9687 56.5776Z" fill="white"/>
<path d="M176.952 180.445H23.0458C17.3427 180.445 12.4208 176.46 11.2099 170.875L0.272365 90.6401C-1.13389 84.1167 3.0458 77.6714 9.56924 76.2651C10.3896 76.0698 11.2489 75.9917 12.1083 75.9917H187.89C194.569 75.9917 199.999 81.4214 199.999 88.1011C199.999 88.9604 199.921 89.7808 199.725 90.6401L188.788 170.875C187.577 176.46 182.655 180.445 176.952 180.445Z" fill="url(#paint1_linear_2655_16896)"/>
<defs>
<linearGradient id="paint0_linear_2655_16896" x1="100.002" y1="19.6037" x2="100.002" y2="82.2732" gradientUnits="userSpaceOnUse">
<stop offset="0.363391" stop-color="#BCBBBF"/>
<stop offset="1" stop-color="#7A767F"/>
</linearGradient>
<linearGradient id="paint1_linear_2655_16896" x1="99.9985" y1="75.2496" x2="99.9985" y2="178.375" gradientUnits="userSpaceOnUse">
<stop offset="0.363391" stop-color="#BCBBBF"/>
<stop offset="1" stop-color="#7A767F"/>
</linearGradient>
</defs>
</svg>
