<svg width="121" height="120" viewBox="0 0 121 120" fill="none" xmlns="http://www.w3.org/2000/svg">
<g clip-path="url(#clip0_6516_21873)">
<path d="M116.872 30.4336C113.722 18.8391 101.663 6.77813 90.0664 3.62813C82.9555 1.85625 73.4305 0.0304688 60.5 0C47.5695 0.0304688 38.0445 1.85625 30.9336 3.62813C19.3391 6.77813 7.27813 18.8367 4.12813 30.4336C2.35625 37.5445 0.530469 47.0695 0.5 60C0.530469 72.9305 2.35625 82.4555 4.12813 89.5664C7.27813 101.163 19.3391 113.222 30.9336 116.372C38.0445 118.144 47.5742 119.97 60.5 120C73.4281 119.97 82.9555 118.144 90.0664 116.372C101.663 113.222 113.722 101.163 116.872 89.5664C118.644 82.4555 120.47 72.9258 120.5 60C120.47 47.0695 118.644 37.5445 116.872 30.4336Z" fill="#D9F4E5"/>
<path d="M60.5938 21.0938C52.8803 21.0938 45.34 23.3811 38.9265 27.6664C32.513 31.9518 27.5143 38.0428 24.5625 45.1691C21.6106 52.2954 20.8383 60.137 22.3431 67.7023C23.848 75.2675 27.5624 82.2167 33.0166 87.6709C38.4708 93.1252 45.42 96.8395 52.9852 98.3444C60.5505 99.8492 68.3921 99.0769 75.5184 96.125C82.6447 93.1732 88.7357 88.1745 93.0211 81.761C97.3064 75.3475 99.5938 67.8072 99.5938 60.0937C99.5938 49.7503 95.4848 39.8305 88.1709 32.5166C80.857 25.2027 70.9372 21.0938 60.5938 21.0938Z" fill="url(#paint0_linear_6516_21873)"/>
<path d="M82.8469 53.6364L59.3942 78.2568C58.7555 78.9274 57.988 79.4623 57.1377 79.8293C56.2874 80.1963 55.3718 80.3879 54.4457 80.3926H54.4159C53.4952 80.3926 52.5839 80.2078 51.7359 79.8492C50.8878 79.4906 50.1204 78.9655 49.479 78.305L37.038 65.4878C36.3614 64.8504 35.8209 64.0825 35.4492 63.2305C35.0775 62.3785 34.8823 61.4601 34.8752 60.5306C34.8681 59.6011 35.0495 58.6797 35.4082 57.8222C35.7669 56.9647 36.2957 56.1887 36.9625 55.5411C37.6293 54.8935 38.4204 54.3877 39.2881 54.0542C40.1557 53.7207 41.082 53.5664 42.0109 53.6007C42.9398 53.6349 43.8521 53.857 44.6929 54.2534C45.5336 54.6499 46.2853 55.2126 46.9027 55.9075L54.3586 63.5905L72.8698 44.1502C73.4927 43.4951 74.2385 42.9691 75.0646 42.6022C75.8908 42.2353 76.7811 42.0347 77.6848 42.012C78.5884 41.9892 79.4878 42.1446 80.3314 42.4693C81.175 42.7941 81.9463 43.2818 82.6014 43.9047C83.2565 44.5276 83.7826 45.2734 84.1494 46.0995C84.5163 46.9257 84.7169 47.816 84.7397 48.7197C84.7625 49.6234 84.607 50.5227 84.2823 51.3663C83.9575 52.2099 83.4698 52.9812 82.8469 53.6364Z" fill="url(#paint1_linear_6516_21873)"/>
</g>
<defs>
<linearGradient id="paint0_linear_6516_21873" x1="88.1759" y1="87.6759" x2="33.0116" y2="32.5116" gradientUnits="userSpaceOnUse">
<stop stop-color="#3B9865"/>
<stop offset="0.52" stop-color="#3FB474"/>
<stop offset="1" stop-color="#5ED895"/>
</linearGradient>
<linearGradient id="paint1_linear_6516_21873" x1="71.2937" y1="66.3618" x2="48.9399" y2="44.0056" gradientUnits="userSpaceOnUse">
<stop stop-color="#A1FCCA"/>
<stop offset="0.57" stop-color="white"/>
<stop offset="1" stop-color="white"/>
</linearGradient>
<clipPath id="clip0_6516_21873">
<rect width="120" height="120" fill="white" transform="translate(0.5)"/>
</clipPath>
</defs>
</svg>
