<svg width="24" height="24" viewBox="0 0 24 24" fill="none" xmlns="http://www.w3.org/2000/svg">
<path opacity="0.4" d="M20.61 10.8305C19.84 9.91045 18.85 9.31045 17.7 9.05045C17.44 7.89045 16.99 6.89045 16.33 6.06045C16.31 6.03045 16.29 6.00045 16.27 5.98045C14.07 3.32045 10.47 3.33045 8.04001 4.71045C5.96001 5.90045 4.19001 8.41045 5.12001 11.9904C2.99001 12.5105 2.01001 14.3704 2.01001 16.0504C2.01001 17.9304 3.24001 20.0404 5.98001 20.2404H16.32C16.33 20.2404 16.35 20.2404 16.36 20.2404C17.78 20.2404 19.14 19.7105 20.19 18.7505C22.7 16.5304 22.37 12.9104 20.61 10.8305Z" fill="#211B2A"/>
<path d="M21.76 8.74001C21.76 9.64001 21.44 10.5 20.86 11.16C20.79 11.05 20.7 10.94 20.61 10.83C19.85 9.92001 18.85 9.30001 17.7 9.05001C17.45 7.89001 16.99 6.90001 16.33 6.07001C16.32 6.04001 16.29 6.01001 16.27 5.99001C16.17 5.87001 16.06 5.76001 15.96 5.65001C16.57 5.23001 17.27 5.01001 18.03 5.01001C20.09 5.01001 21.76 6.68001 21.76 8.74001Z" fill="#211B2A"/>
</svg>
