<svg width="24" height="24" viewBox="0 0 24 24" fill="none" xmlns="http://www.w3.org/2000/svg">
<path d="M16.65 20.75C16.64 20.75 16.62 20.75 16.61 20.75C16.2 20.75 15.86 20.41 15.87 19.99C15.87 19.58 16.21 19.25 16.62 19.25C16.63 19.25 16.65 19.25 16.66 19.25C17.8 19.25 18.89 18.83 19.73 18.05C21.28 16.69 21.39 14.75 20.97 13.38C20.55 12.01 19.39 10.46 17.36 10.2C17.03 10.16 16.77 9.91001 16.71 9.58001C16.31 7.19001 15.02 5.54001 13.08 4.94001C11.06 4.32001 8.73 4.93001 7.27 6.46001C5.85 7.95002 5.52 10.02 6.34 12.31C6.48 12.7 6.28 13.13 5.89 13.27C5.5 13.41 5.07 13.21 4.93 12.82C3.92 10.01 4.38 7.32001 6.19 5.43001C8.04 3.50001 10.98 2.73001 13.53 3.52001C15.86 4.24001 17.51 6.16001 18.1 8.82001C20.14 9.28001 21.77 10.82 22.42 12.95C23.13 15.27 22.48 17.65 20.75 19.17C19.61 20.19 18.16 20.75 16.65 20.75Z" fill="#211B2A"/>
<path d="M5.57 20.75C5.55 20.75 5.53 20.75 5.52 20.75C2.64 20.55 1.33 18.29 1.33 16.28C1.33 14.27 2.64 12.02 5.52 11.81C6.26 11.8 6.99 11.97 7.63 12.29C8 12.48 8.14 12.93 7.96 13.3C7.77 13.67 7.32 13.81 6.95 13.63C6.53 13.41 6.05 13.32 5.59 13.31C3.7 13.45 2.84 14.9 2.84 16.28C2.84 17.66 3.7 19.11 5.64 19.25C6.05 19.28 6.36 19.64 6.33 20.05C6.29 20.45 5.96 20.75 5.57 20.75Z" fill="#211B2A"/>
<path d="M15.82 10.6397C15.55 10.6397 15.28 10.4897 15.15 10.2197C14.96 9.84973 15.11 9.39973 15.49 9.20973C16.1 8.89973 16.79 8.72973 17.47 8.71973C17.85 8.73973 18.23 9.03973 18.23 9.45973C18.24 9.86973 17.91 10.2197 17.49 10.2197C17.03 10.2297 16.57 10.3397 16.15 10.5497C16.05 10.6197 15.93 10.6397 15.82 10.6397Z" fill="#211B2A"/>
<path d="M7.97 22.7504C7.78 22.7504 7.59 22.6804 7.44 22.5304C7.15 22.2404 7.15 21.7604 7.44 21.4704L9.44 19.4704C9.73 19.1804 10.21 19.1804 10.5 19.4704C10.79 19.7604 10.79 20.2404 10.5 20.5304L8.5 22.5304C8.36 22.6804 8.17 22.7504 7.97 22.7504Z" fill="#211B2A"/>
<path d="M11.97 22.7504C11.78 22.7504 11.59 22.6804 11.44 22.5304C11.15 22.2404 11.15 21.7604 11.44 21.4704L13.44 19.4704C13.73 19.1804 14.21 19.1804 14.5 19.4704C14.79 19.7604 14.79 20.2404 14.5 20.5304L12.5 22.5304C12.36 22.6804 12.17 22.7504 11.97 22.7504Z" fill="#211B2A"/>
<path d="M11.97 18.7504C11.78 18.7504 11.59 18.6804 11.44 18.5304C11.15 18.2404 11.15 17.7604 11.44 17.4704L13.44 15.4704C13.73 15.1804 14.21 15.1804 14.5 15.4704C14.79 15.7604 14.79 16.2404 14.5 16.5304L12.5 18.5304C12.36 18.6804 12.17 18.7504 11.97 18.7504Z" fill="#211B2A"/>
<path d="M7.97 18.7504C7.78 18.7504 7.59 18.6804 7.44 18.5304C7.15 18.2404 7.15 17.7604 7.44 17.4704L9.44 15.4704C9.73 15.1804 10.21 15.1804 10.5 15.4704C10.79 15.7604 10.79 16.2404 10.5 16.5304L8.5 18.5304C8.36 18.6804 8.17 18.7504 7.97 18.7504Z" fill="#211B2A"/>
</svg>
