<svg width="24" height="24" viewBox="0 0 24 24" fill="none" xmlns="http://www.w3.org/2000/svg">
<path d="M20.17 17.5701C19.64 18.0601 19.03 18.4301 18.37 18.6801C17.71 18.9301 17 18.4501 17 17.7401V16.4201C17 14.4701 15.42 12.8901 13.47 12.8901H10.53C8.58 12.8901 7 14.4701 7 16.4201V18.0001C7 18.5501 6.55 19.0001 6 19.0001H5.55C3.1 18.6301 2 16.6401 2 14.8601C2 13.1801 2.98 11.3201 5.11 10.8001C4.52 8.47006 5.02 6.28006 6.54 4.69006C8.27 2.88006 11.03 2.16006 13.41 2.90006C15.6 3.57006 17.14 5.37006 17.69 7.87006C19.6 8.30006 21.13 9.74006 21.74 11.7401C22.4 13.9101 21.8 16.1401 20.17 17.5701Z" fill="#211B2A"/>
<path d="M13.47 14.3896H10.53C9.26 14.3896 8.5 15.1496 8.5 16.4196V19.3596C8.5 20.6296 9.26 21.3896 10.53 21.3896H13.47C14.74 21.3896 15.5 20.6296 15.5 19.3596V16.4196C15.5 15.1496 14.74 14.3896 13.47 14.3896ZM13.97 18.9396C14.22 19.1896 14.22 19.5996 13.97 19.8496C13.84 19.9696 13.68 20.0296 13.51 20.0296C13.35 20.0296 13.19 19.9696 13.06 19.8496L12 18.7896L10.95 19.8496C10.82 19.9696 10.66 20.0296 10.49 20.0296C10.33 20.0296 10.17 19.9696 10.04 19.8496C9.79 19.5996 9.79 19.1896 10.04 18.9396L11.1 17.8796L10.04 16.8296C9.79 16.5796 9.79 16.1696 10.04 15.9196C10.29 15.6696 10.7 15.6696 10.95 15.9196L12 16.9796L13.06 15.9196C13.31 15.6696 13.72 15.6696 13.97 15.9196C14.22 16.1696 14.22 16.5796 13.97 16.8296L12.91 17.8796L13.97 18.9396Z" fill="#211B2A"/>
</svg>
