<svg width="24" height="24" viewBox="0 0 24 24" fill="none" xmlns="http://www.w3.org/2000/svg">
<path d="M16.67 20.8295C16.65 20.8295 16.64 20.8295 16.63 20.8295H5.54C2.6 20.6195 1.28 18.3495 1.28 16.3395C1.28 14.5395 2.33 12.5395 4.61 11.9895C3.98 9.46952 4.53 7.10952 6.19 5.39952C8.07 3.45952 11.06 2.70952 13.61 3.53952C14 3.66952 14.22 4.08952 14.09 4.47952C13.96 4.86952 13.54 5.08952 13.15 4.95952C11.12 4.30952 8.75 4.89952 7.26 6.44952C5.81 7.94952 5.47 10.0395 6.3 12.3495C6.38 12.5795 6.35 12.8395 6.21 13.0295C6.07 13.2195 5.84 13.3495 5.6 13.3495C3.66 13.4895 2.79 14.9495 2.79 16.3395C2.79 17.7295 3.66 19.1895 5.6 19.3395H16.64C17.78 19.3495 18.92 18.9195 19.77 18.1395C20.92 17.1295 21.42 15.6595 21.17 14.0995C21.1 13.6895 21.38 13.3095 21.79 13.2395C22.2 13.1695 22.58 13.4495 22.65 13.8595C22.99 15.9195 22.28 17.9395 20.78 19.2595C19.66 20.2595 18.2 20.8295 16.67 20.8295Z" fill="#211B2A"/>
<path d="M7.26 13.7599C7.15 13.7599 7.03 13.7299 6.93 13.6799C6.51 13.4699 6.05 13.3599 5.58 13.3499C5.17 13.3399 4.84 12.9999 4.84 12.5899C4.85 12.1799 5.24 11.8399 5.6 11.8499C6.29 11.8599 6.98 12.0299 7.59 12.3399C7.96 12.5199 8.11 12.9799 7.93 13.3499C7.8 13.6099 7.54 13.7599 7.26 13.7599Z" fill="#211B2A"/>
<path d="M18.47 12.75C16.13 12.75 14.22 10.84 14.22 8.50001C14.22 7.40001 14.64 6.36001 15.4 5.58001C15.42 5.55001 15.44 5.53001 15.46 5.51001C16.26 4.70001 17.32 4.26001 18.46 4.26001C20.8 4.26001 22.71 6.17001 22.71 8.51001C22.71 9.81001 22.13 11.02 21.11 11.83C20.38 12.42 19.44 12.75 18.47 12.75ZM16.6 6.50001C16.58 6.53001 16.56 6.55001 16.53 6.58001C16.01 7.09001 15.72 7.78001 15.72 8.51001C15.72 10.03 16.95 11.26 18.47 11.26C19.09 11.26 19.7 11.05 20.18 10.66C20.85 10.13 21.22 9.35001 21.22 8.51001C21.22 6.99001 19.99 5.76001 18.47 5.76001C17.76 5.75001 17.1 6.02001 16.6 6.50001Z" fill="#211B2A"/>
</svg>
