<svg width="24" height="24" viewBox="0 0 24 24" fill="none" xmlns="http://www.w3.org/2000/svg">
<path d="M20.17 17.5701C19.64 18.0601 19.03 18.4301 18.37 18.6801C17.71 18.9301 17 18.4501 17 17.7401V16.4201C17 14.4701 15.42 12.8901 13.47 12.8901H10.53C8.58 12.8901 7 14.4701 7 16.4201V18.0001C7 18.5501 6.55 19.0001 6 19.0001H5.55C3.1 18.6301 2 16.6401 2 14.8601C2 13.1801 2.98 11.3201 5.11 10.8001C4.52 8.47006 5.02 6.28006 6.54 4.69006C8.27 2.88006 11.03 2.16006 13.41 2.90006C15.6 3.57006 17.14 5.37006 17.69 7.87006C19.6 8.30006 21.13 9.74006 21.74 11.7401C22.4 13.9101 21.8 16.1401 20.17 17.5701Z" fill="#211B2A"/>
<path d="M13.47 14.3896H10.53C9.26 14.3896 8.5 15.1496 8.5 16.4196V19.3596C8.5 20.6296 9.26 21.3896 10.53 21.3896H13.47C14.74 21.3896 15.5 20.6296 15.5 19.3596V16.4196C15.5 15.1496 14.74 14.3896 13.47 14.3896ZM11.71 18.8396L10.47 20.0696C10.38 20.1596 10.26 20.2096 10.15 20.2096C10.02 20.2096 9.91 20.1596 9.82 20.0696C9.64 19.8896 9.64 19.5996 9.82 19.4196L11.05 18.1796C11.24 17.9996 11.53 17.9996 11.71 18.1796C11.89 18.3596 11.89 18.6596 11.71 18.8396ZM11.71 16.3596L10.47 17.5996C10.38 17.6896 10.26 17.7396 10.15 17.7396C10.02 17.7396 9.91 17.6896 9.82 17.5996C9.64 17.4196 9.64 17.1196 9.82 16.9396L11.05 15.7096C11.24 15.5296 11.53 15.5296 11.71 15.7096C11.89 15.8896 11.89 16.1796 11.71 16.3596ZM14.18 18.8396L12.95 20.0696C12.85 20.1596 12.74 20.2096 12.62 20.2096C12.5 20.2096 12.38 20.1596 12.29 20.0696C12.11 19.8896 12.11 19.5996 12.29 19.4196L13.53 18.1796C13.71 17.9996 14 17.9996 14.18 18.1796C14.36 18.3596 14.36 18.6596 14.18 18.8396ZM14.18 16.3596L12.95 17.5996C12.85 17.6896 12.74 17.7396 12.62 17.7396C12.5 17.7396 12.38 17.6896 12.29 17.5996C12.11 17.4196 12.11 17.1196 12.29 16.9396L13.53 15.7096C13.71 15.5296 14 15.5296 14.18 15.7096C14.36 15.8896 14.36 16.1796 14.18 16.3596Z" fill="#211B2A"/>
</svg>
