<svg width="24" height="24" viewBox="0 0 24 24" fill="none" xmlns="http://www.w3.org/2000/svg">
<path d="M16.65 20.75C16.64 20.75 16.62 20.75 16.61 20.75C16.2 20.75 15.86 20.41 15.87 19.99C15.87 19.58 16.24 19.21 16.63 19.25C17.73 19.25 18.89 18.83 19.74 18.05C21.29 16.69 21.4 14.75 20.98 13.38C20.56 12.01 19.39 10.46 17.37 10.2C17.04 10.16 16.78 9.91001 16.72 9.58001C16.33 7.19001 15.03 5.54001 13.09 4.94001C11.07 4.32001 8.74 4.93001 7.28 6.46001C5.86 7.95002 5.53 10.02 6.35 12.31C6.49 12.7 6.29 13.13 5.9 13.27C5.51 13.41 5.08 13.21 4.94 12.82C3.93 10.01 4.39 7.32001 6.2 5.43001C8.05 3.50001 10.99 2.73001 13.54 3.52001C15.87 4.24001 17.52 6.16001 18.11 8.82001C20.15 9.28001 21.78 10.82 22.43 12.95C23.14 15.27 22.5 17.65 20.76 19.17C19.61 20.19 18.16 20.75 16.65 20.75Z" fill="#211B2A"/>
<path d="M5.57 20.7496C5.55 20.7496 5.53 20.7496 5.52 20.7496C2.64 20.5496 1.33 18.2896 1.33 16.2796C1.33 14.2696 2.64 12.0196 5.52 11.8096C6.28 11.8196 6.99 11.9696 7.63 12.2896C8 12.4796 8.14 12.9296 7.96 13.2996C7.77 13.6696 7.32 13.8096 6.95 13.6296C6.53 13.4096 6.06 13.3096 5.59 13.3096C3.7 13.4496 2.84 14.8996 2.84 16.2796C2.84 17.6596 3.7 19.1096 5.63 19.2496C6.04 19.2796 6.35 19.6396 6.33 20.0496C6.29 20.4496 5.96 20.7496 5.57 20.7496Z" fill="#211B2A"/>
<path d="M15.82 10.6397C15.54 10.6397 15.28 10.4897 15.15 10.2197C14.96 9.84973 15.11 9.39973 15.49 9.20973C16.1 8.89973 16.79 8.72973 17.47 8.71973H17.48C17.89 8.71973 18.22 9.04973 18.23 9.45973C18.24 9.86973 17.91 10.2197 17.49 10.2197C17.03 10.2297 16.57 10.3397 16.15 10.5497C16.04 10.6197 15.93 10.6397 15.82 10.6397Z" fill="#211B2A"/>
<path d="M12.98 19C12.42 19 11.98 18.55 11.98 18C11.98 17.45 12.43 17 12.98 17C13.53 17 13.98 17.45 13.98 18C13.98 18.55 13.53 19 12.98 19Z" fill="#211B2A"/>
<path d="M8.98 19C8.42 19 7.98 18.55 7.98 18C7.98 17.45 8.43 17 8.98 17C9.53 17 9.98 17.45 9.98 18C9.98 18.55 9.53 19 8.98 19Z" fill="#211B2A"/>
<path d="M10.98 22C10.42 22 9.98 21.55 9.98 21C9.98 20.45 10.43 20 10.98 20C11.53 20 11.98 20.45 11.98 21C11.98 21.55 11.53 22 10.98 22Z" fill="#211B2A"/>
</svg>
