<svg width="24" height="24" viewBox="0 0 24 24" fill="none" xmlns="http://www.w3.org/2000/svg">
<path d="M20.27 18.6797C19.28 19.5897 17.98 20.0897 16.63 20.0797H5.54C0.870003 19.7397 0.860003 12.9397 5.54 12.5997H5.59C2.89 5.05966 12.12 1.33966 16 6.02966V6.03966C16.7 6.89966 17.23 8.03966 17.47 9.48966C18.8 9.65966 19.88 10.3097 20.65 11.2297C22.4 13.2997 22.55 16.6797 20.27 18.6797Z" stroke="#211B2A" stroke-width="1.5" stroke-miterlimit="10" stroke-linecap="round" stroke-linejoin="round"/>
<path d="M7.26 13.0096C6.74 12.7496 6.17 12.6096 5.59 12.5996" stroke="#211B2A" stroke-width="1.5" stroke-miterlimit="10" stroke-linecap="round" stroke-linejoin="round"/>
<path d="M15.85 9.92001C16.37 9.66001 16.94 9.52001 17.52 9.51001" stroke="#211B2A" stroke-width="1.5" stroke-miterlimit="10" stroke-linecap="round" stroke-linejoin="round"/>
<path opacity="0.4" d="M21.97 8.5C21.97 9.6 21.46 10.59 20.65 11.23C19.88 10.31 18.8 9.66 17.47 9.49C17.23 8.04 16.7 6.9 16 6.04V6.03C16.63 5.39 17.51 5 18.47 5C20.4 5 21.97 6.57 21.97 8.5Z" stroke="#211B2A" stroke-width="1.5" stroke-miterlimit="10" stroke-linecap="round" stroke-linejoin="round"/>
</svg>
