<svg width="24" height="24" viewBox="0 0 24 24" fill="none" xmlns="http://www.w3.org/2000/svg">
<path d="M16.65 20.75C16.64 20.75 16.62 20.75 16.61 20.75C16.2 20.75 15.86 20.41 15.87 19.99C15.87 19.58 16.21 19.25 16.62 19.25C16.63 19.25 16.65 19.25 16.66 19.25C17.8 19.25 18.89 18.83 19.73 18.05C21.28 16.69 21.39 14.75 20.97 13.38C20.55 12.01 19.39 10.46 17.36 10.2C17.03 10.16 16.77 9.91001 16.71 9.58001C16.31 7.19001 15.02 5.54001 13.08 4.94001C11.06 4.32001 8.73 4.93001 7.27 6.46001C5.85 7.95002 5.52 10.02 6.34 12.31C6.48 12.7 6.28 13.13 5.89 13.27C5.5 13.41 5.07 13.21 4.93 12.82C3.92 10.01 4.38 7.32001 6.19 5.43001C8.03 3.50001 10.98 2.73001 13.53 3.52001C15.86 4.24001 17.51 6.16001 18.1 8.82001C20.14 9.28001 21.77 10.82 22.42 12.95C23.13 15.27 22.48 17.65 20.75 19.17C19.61 20.19 18.16 20.75 16.65 20.75Z" fill="#211B2A"/>
<path d="M5.56999 20.75C5.54999 20.75 5.52999 20.75 5.51999 20.75C2.63999 20.55 1.32999 18.29 1.32999 16.28C1.32999 14.27 2.63999 12.02 5.51999 11.81C6.26999 11.8 6.98999 11.97 7.62999 12.29C7.99999 12.48 8.13999 12.93 7.95999 13.3C7.76999 13.67 7.31999 13.81 6.94999 13.63C6.52999 13.41 6.03999 13.32 5.58999 13.31C3.69999 13.45 2.83999 14.9 2.83999 16.28C2.83999 17.66 3.69999 19.11 5.63999 19.25C6.04999 19.28 6.35999 19.64 6.32999 20.05C6.28999 20.45 5.95999 20.75 5.56999 20.75Z" fill="#211B2A"/>
<path d="M15.82 10.6397C15.55 10.6397 15.28 10.4897 15.15 10.2197C14.96 9.84973 15.11 9.39973 15.49 9.20973C16.1 8.89973 16.79 8.72973 17.47 8.71973C17.86 8.73973 18.23 9.03973 18.23 9.45973C18.24 9.86973 17.91 10.2197 17.49 10.2197C17.03 10.2297 16.57 10.3397 16.15 10.5497C16.05 10.6197 15.93 10.6397 15.82 10.6397Z" fill="#211B2A"/>
<path d="M9.56 22.1595C9.37 22.1595 9.18 22.0895 9.03 21.9395C8.74 21.6495 8.74 21.1695 9.03 20.8795L11.86 18.0495C12.15 17.7595 12.63 17.7595 12.92 18.0495C13.21 18.3395 13.21 18.8195 12.92 19.1095L10.09 21.9395C9.94 22.0895 9.75 22.1595 9.56 22.1595Z" fill="#211B2A"/>
<path d="M12.39 22.1595C12.2 22.1595 12.01 22.0895 11.86 21.9395L9.03 19.1095C8.74 18.8195 8.74 18.3395 9.03 18.0495C9.32 17.7595 9.8 17.7595 10.09 18.0495L12.92 20.8795C13.21 21.1695 13.21 21.6495 12.92 21.9395C12.77 22.0895 12.58 22.1595 12.39 22.1595Z" fill="#211B2A"/>
</svg>
