<svg width="24" height="24" viewBox="0 0 24 24" fill="none" xmlns="http://www.w3.org/2000/svg">
<path d="M16.65 20.75C16.64 20.75 16.62 20.75 16.61 20.75C16.2 20.75 15.86 20.41 15.87 19.99C15.87 19.58 16.22 19.21 16.63 19.25C17.79 19.25 18.89 18.83 19.74 18.05C21.29 16.69 21.4 14.75 20.98 13.38C20.56 12.01 19.39 10.46 17.37 10.2C17.04 10.16 16.78 9.91001 16.72 9.58001C16.33 7.19001 15.03 5.54001 13.09 4.94001C11.07 4.32001 8.74 4.93001 7.28 6.46001C5.86 7.95002 5.53 10.02 6.35 12.31C6.49 12.7 6.29 13.13 5.9 13.27C5.51 13.41 5.08 13.21 4.94 12.82C3.93 10.01 4.39 7.32001 6.2 5.43001C8.05 3.50001 10.99 2.73001 13.54 3.52001C15.87 4.24001 17.52 6.16001 18.11 8.82001C20.15 9.28001 21.78 10.82 22.43 12.95C23.14 15.27 22.5 17.65 20.76 19.17C19.61 20.19 18.16 20.75 16.65 20.75Z" fill="#211B2A"/>
<path d="M5.56999 20.7496C5.54999 20.7496 5.52999 20.7496 5.51999 20.7496C2.63999 20.5496 1.32999 18.2896 1.32999 16.2796C1.32999 14.2696 2.63999 12.0196 5.51999 11.8096C6.27999 11.8196 6.98999 11.9696 7.62999 12.2896C7.99999 12.4796 8.13999 12.9296 7.95999 13.2996C7.76999 13.6696 7.31999 13.8096 6.94999 13.6296C6.52999 13.4096 6.04999 13.3096 5.58999 13.3096C3.69999 13.4496 2.83999 14.8996 2.83999 16.2796C2.83999 17.6596 3.69999 19.1096 5.62999 19.2496C6.03999 19.2796 6.34999 19.6396 6.32999 20.0496C6.28999 20.4496 5.95999 20.7496 5.56999 20.7496Z" fill="#211B2A"/>
<path d="M15.82 10.6397C15.54 10.6397 15.28 10.4897 15.15 10.2197C14.96 9.84973 15.11 9.39973 15.49 9.20973C16.1 8.89973 16.79 8.72973 17.47 8.71973H17.48C17.89 8.71973 18.22 9.04973 18.23 9.45973C18.24 9.86973 17.91 10.2197 17.49 10.2197C17.03 10.2297 16.57 10.3397 16.15 10.5497C16.04 10.6197 15.93 10.6397 15.82 10.6397Z" fill="#211B2A"/>
<path d="M10.61 22.62C10.48 22.62 10.34 22.6 10.21 22.55C9.77 22.38 9.48 21.97 9.48 21.5V19.92H9.23C8.48 19.92 8.21 19.48 8.12 19.3C8.04 19.1 7.9 18.6 8.39 18.05L10.84 15.26C11.15 14.91 11.64 14.78 12.08 14.95C12.52 15.12 12.81 15.53 12.81 16V17.58H13.06C13.8 17.58 14.08 18.02 14.17 18.2C14.26 18.38 14.4 18.88 13.91 19.44L11.46 22.23C11.23 22.48 10.92 22.62 10.61 22.62ZM10.06 18.41H10.23C10.64 18.41 10.98 18.75 10.98 19.16V20.49L12.22 19.08H12.05C11.64 19.08 11.3 18.74 11.3 18.33V17L10.06 18.41Z" fill="#211B2A"/>
</svg>
