<svg width="24" height="24" viewBox="0 0 24 24" fill="none" xmlns="http://www.w3.org/2000/svg">
<path d="M16.61 19.9999C17.95 20.0099 19.24 19.5099 20.23 18.6099C23.5 15.7499 21.75 10.0099 17.44 9.46995C15.9 0.129949 2.43 3.66995 5.62 12.5599" stroke="#211B2A" stroke-width="1.5" stroke-miterlimit="10" stroke-linecap="round" stroke-linejoin="round"/>
<path d="M7.28 12.97C6.75 12.7 6.16 12.56 5.57 12.57C0.910002 12.9 0.920002 19.68 5.57 20.01" stroke="#211B2A" stroke-width="1.5" stroke-miterlimit="10" stroke-linecap="round" stroke-linejoin="round"/>
<path d="M15.82 9.89047C16.34 9.63047 16.9 9.49047 17.48 9.48047" stroke="#211B2A" stroke-width="1.5" stroke-miterlimit="10" stroke-linecap="round" stroke-linejoin="round"/>
<path opacity="0.4" d="M9.23001 19.1603H10.23V21.4903C10.23 21.8303 10.66 22.0003 10.88 21.7403L13.33 18.9503C13.63 18.6103 13.5 18.3303 13.05 18.3303H12.05V16.0003C12.05 15.6603 11.62 15.4903 11.4 15.7503L8.95001 18.5403C8.65001 18.8803 8.78001 19.1603 9.23001 19.1603Z" stroke="#211B2A" stroke-width="1.5" stroke-miterlimit="10" stroke-linecap="round" stroke-linejoin="round"/>
</svg>
