<svg width="24" height="24" viewBox="0 0 24 24" fill="none" xmlns="http://www.w3.org/2000/svg">
<path d="M7.26 5.43006C9.74 3.42006 13.76 3.32006 16 6.03006V6.04006C16.7 6.90006 17.23 8.04006 17.47 9.49006C18.8 9.66006 19.88 10.3101 20.65 11.2301C22.4 13.3001 22.55 16.6801 20.27 18.6801C19.28 19.5901 17.98 20.0901 16.63 20.0801H5.54C0.870003 19.7401 0.860003 12.9401 5.54 12.6001H5.59C5.11 11.2601 5.01 10.0401 5.18 8.96006" stroke="#211B2A" stroke-width="1.5" stroke-miterlimit="10" stroke-linecap="round" stroke-linejoin="round"/>
<path d="M7.26 13.0096C6.74 12.7496 6.17 12.6096 5.59 12.5996" stroke="#211B2A" stroke-width="1.5" stroke-miterlimit="10" stroke-linecap="round" stroke-linejoin="round"/>
<path d="M15.85 9.92001C16.37 9.66001 16.94 9.52001 17.52 9.51001" stroke="#211B2A" stroke-width="1.5" stroke-miterlimit="10" stroke-linecap="round" stroke-linejoin="round"/>
<path d="M21.97 8.5C21.97 9.6 21.46 10.59 20.65 11.23C19.88 10.31 18.8 9.66 17.47 9.49C17.23 8.04 16.7 6.9 16 6.04V6.03C16.63 5.39 17.51 5 18.47 5C20.4 5 21.97 6.57 21.97 8.5Z" stroke="#211B2A" stroke-width="1.5" stroke-miterlimit="10" stroke-linecap="round" stroke-linejoin="round"/>
</svg>
