<svg width="24" height="24" viewBox="0 0 24 24" fill="none" xmlns="http://www.w3.org/2000/svg">
<path d="M9.32 13.2805H12.41V20.4805C12.41 21.5405 13.73 22.0405 14.43 21.2405L22 12.6405C22.66 11.8905 22.13 10.7205 21.13 10.7205H18.04V3.52046C18.04 2.46046 16.72 1.96046 16.02 2.76046L8.45 11.3605C7.8 12.1105 8.33 13.2805 9.32 13.2805Z" fill="#211B2A"/>
<path d="M8.5 4.75H1.5C1.09 4.75 0.75 4.41 0.75 4C0.75 3.59 1.09 3.25 1.5 3.25H8.5C8.91 3.25 9.25 3.59 9.25 4C9.25 4.41 8.91 4.75 8.5 4.75Z" fill="#211B2A"/>
<path d="M7.5 20.75H1.5C1.09 20.75 0.75 20.41 0.75 20C0.75 19.59 1.09 19.25 1.5 19.25H7.5C7.91 19.25 8.25 19.59 8.25 20C8.25 20.41 7.91 20.75 7.5 20.75Z" fill="#211B2A"/>
<path d="M4.5 12.75H1.5C1.09 12.75 0.75 12.41 0.75 12C0.75 11.59 1.09 11.25 1.5 11.25H4.5C4.91 11.25 5.25 11.59 5.25 12C5.25 12.41 4.91 12.75 4.5 12.75Z" fill="#211B2A"/>
</svg>
