<svg width="24" height="24" viewBox="0 0 24 24" fill="none" xmlns="http://www.w3.org/2000/svg">
<path opacity="0.4" d="M10 3.75H11.25V8.5C11.25 8.91 11.59 9.25 12 9.25C12.41 9.25 12.75 8.91 12.75 8.5V3.75H14C14.41 3.75 14.75 3.41 14.75 3C14.75 2.59 14.41 2.25 14 2.25H10C9.59 2.25 9.25 2.59 9.25 3C9.25 3.41 9.59 3.75 10 3.75Z" fill="#211B2A"/>
<path opacity="0.4" d="M14 20.25H12.75V15.5C12.75 15.09 12.41 14.75 12 14.75C11.59 14.75 11.25 15.09 11.25 15.5V20.25H10C9.59 20.25 9.25 20.59 9.25 21C9.25 21.41 9.59 21.75 10 21.75H14C14.41 21.75 14.75 21.41 14.75 21C14.75 20.59 14.41 20.25 14 20.25Z" fill="#211B2A"/>
<path opacity="0.4" d="M2.83001 9.88006C2.95001 9.95006 3.08001 9.98006 3.20001 9.98006C3.46001 9.98006 3.71001 9.85006 3.85001 9.60006L4.48001 8.52006L8.60001 10.9001C8.71001 10.9701 8.84001 11.0001 8.97001 11.0001C9.23001 11.0001 9.48001 10.8701 9.62001 10.6201C9.83001 10.2601 9.70001 9.80006 9.35001 9.60006L5.24001 7.22006L5.86001 6.14006C6.07001 5.78006 5.94001 5.32006 5.59001 5.12006C5.23001 4.91006 4.77001 5.03006 4.57001 5.39006L2.57001 8.85006C2.35001 9.22006 2.47001 9.67006 2.83001 9.88006Z" fill="#211B2A"/>
<path opacity="0.4" d="M21.17 14.12C20.81 13.91 20.35 14.03 20.15 14.39L19.52 15.47L15.4 13.1C15.04 12.89 14.58 13.02 14.38 13.37C14.17 13.73 14.3 14.19 14.65 14.39L18.76 16.77L18.14 17.85C17.93 18.21 18.06 18.67 18.41 18.87C18.53 18.94 18.66 18.97 18.78 18.97C19.04 18.97 19.29 18.84 19.43 18.59L21.43 15.13C21.65 14.78 21.53 14.33 21.17 14.12Z" fill="#211B2A"/>
<path opacity="0.4" d="M18.77 7.2197L14.66 9.5997C14.3 9.8097 14.18 10.2697 14.39 10.6197C14.53 10.8597 14.78 10.9997 15.04 10.9997C15.17 10.9997 15.3 10.9697 15.41 10.8997L19.52 8.5197L20.15 9.5997C20.29 9.8397 20.54 9.9797 20.8 9.9797C20.93 9.9797 21.06 9.9497 21.17 9.8797C21.53 9.6697 21.65 9.2097 21.44 8.8597L19.44 5.3997C19.23 5.0397 18.77 4.9197 18.42 5.1297C18.06 5.3397 17.94 5.7997 18.15 6.1497L18.77 7.2197Z" fill="#211B2A"/>
<path opacity="0.4" d="M5.23 16.78L9.34 14.4C9.7 14.19 9.82 13.73 9.61 13.38C9.4 13.02 8.94 12.9 8.59 13.11L4.48 15.49L3.85 14.41C3.64 14.05 3.18 13.93 2.83 14.14C2.47 14.35 2.35 14.81 2.56 15.16L4.56 18.62C4.7 18.86 4.95 19 5.21 19C5.34 19 5.47 18.97 5.58 18.9C5.94 18.69 6.06 18.23 5.85 17.88L5.23 16.78Z" fill="#211B2A"/>
<path d="M15.5 12C15.5 12.64 15.33 13.23 15.03 13.75C14.42 14.8 13.29 15.5 12 15.5C10.71 15.5 9.58 14.8 8.97 13.75C8.67 13.23 8.5 12.64 8.5 12C8.5 11.36 8.67 10.77 8.97 10.25C9.58 9.2 10.71 8.5 12 8.5C13.29 8.5 14.42 9.2 15.03 10.25C15.33 10.77 15.5 11.36 15.5 12Z" fill="#211B2A"/>
</svg>
