<svg width="24" height="24" viewBox="0 0 24 24" fill="none" xmlns="http://www.w3.org/2000/svg">
<path d="M2.00024 7C2.00024 3 3.00024 2 7.00024 2H8.50024C10.0002 2 10.3303 2.44001 10.9003 3.20001L12.4003 5.20001C12.7803 5.70001 13.0002 6 14.0002 6H17.0002C21.0002 6 22.0002 7 22.0002 11V13" stroke="#211B2A" stroke-width="1.5" stroke-miterlimit="10" stroke-linecap="round" stroke-linejoin="round"/>
<path d="M9.00024 22.0003H7.00024C3.00024 22.0003 2.00024 21.0003 2.00024 17.0003V12.0303" stroke="#211B2A" stroke-width="1.5" stroke-miterlimit="10" stroke-linecap="round" stroke-linejoin="round"/>
<path d="M13.7603 18.3204C11.4103 18.4904 11.4103 21.8904 13.7603 22.0604H19.3203C19.9903 22.0604 20.6503 21.8104 21.1403 21.3604C22.7903 19.9204 21.9103 17.0404 19.7403 16.7704C18.9603 12.0804 12.1803 13.8604 13.7803 18.3304" stroke="#211B2A" stroke-width="1.5" stroke-miterlimit="10" stroke-linecap="round" stroke-linejoin="round"/>
</svg>
