<svg width="24" height="24" viewBox="0 0 24 24" fill="none" xmlns="http://www.w3.org/2000/svg">
<path opacity="0.4" d="M21.99 10.84C21.97 10.36 21.89 9.88999 21.74 9.43999C21.05 7.27999 19.03 5.71999 16.65 5.71999H13.86C13.28 5.71999 13.24 5.65998 12.93 5.24998L11.53 3.38998C10.88 2.51998 10.37 1.98999 8.73999 1.98999H6.40997C3.96997 1.98999 1.98999 3.96999 1.98999 6.40999V9.42998V16.64C1.98999 19.59 4.39003 21.99 7.34003 21.99H16.64C19.59 21.99 21.99 19.59 21.99 16.64V11.06C22 11 22 10.91 21.99 10.84Z" fill="#211B2A"/>
<path d="M15.5801 19.6995C13.4701 19.8495 13.4701 22.9095 15.5801 23.0595H20.5901C21.2001 23.0595 21.78 22.8395 22.23 22.4295C23.71 21.1395 22.92 18.5395 20.97 18.2995C20.27 14.0795 14.16 15.6795 15.61 19.6995" fill="#211B2A"/>
</svg>
