<svg width="24" height="24" viewBox="0 0 24 24" fill="none" xmlns="http://www.w3.org/2000/svg">
<path d="M21.06 11.8196L20.9 11.5996C20.62 11.2596 20.29 10.9896 19.91 10.7896C19.4 10.4996 18.82 10.3496 18.22 10.3496H5.76995C5.16995 10.3496 4.59995 10.4996 4.07995 10.7896C3.68995 10.9996 3.33995 11.2896 3.04995 11.6496C2.47995 12.3796 2.20995 13.2796 2.29995 14.1796L2.66995 18.8496C2.79995 20.2596 2.96995 21.9996 6.13995 21.9996H17.86C21.03 21.9996 21.19 20.2596 21.33 18.8396L21.7 14.1896C21.79 13.3496 21.57 12.5096 21.06 11.8196ZM14.39 17.3396H9.59995C9.20995 17.3396 8.89995 17.0196 8.89995 16.6396C8.89995 16.2596 9.20995 15.9396 9.59995 15.9396H14.39C14.78 15.9396 15.09 16.2596 15.09 16.6396C15.09 17.0296 14.78 17.3396 14.39 17.3396Z" fill="#211B2A"/>
<path d="M20.5611 8.59643C20.5987 8.97928 20.1834 9.23561 19.8186 9.11348C19.3138 8.94449 18.7825 8.86 18.23 8.86H5.77C5.21316 8.86 4.66491 8.95012 4.15335 9.12194C3.79295 9.24298 3.38 8.99507 3.38 8.61489V6.66C3.38 3.09 4.47 2 8.04 2H9.22001C10.65 2 11.1 2.46 11.68 3.21L12.88 4.81C13.13 5.15 13.14 5.17 13.58 5.17H15.96C19.0857 5.17 20.307 6.00724 20.5611 8.59643Z" fill="#211B2A"/>
</svg>
