<svg width="24" height="24" viewBox="0 0 24 24" fill="none" xmlns="http://www.w3.org/2000/svg">
<path d="M18.29 22.75H5.71001C2.31001 22.75 2.13001 20.88 1.98001 19.37L1.58001 14.36C1.49001 13.39 1.77001 12.42 2.39001 11.64C3.13001 10.74 4.18001 10.25 5.31001 10.25H18.69C19.8 10.25 20.85 10.74 21.56 11.59L21.73 11.82C22.27 12.56 22.51 13.46 22.42 14.37L22.02 19.36C21.87 20.88 21.69 22.75 18.29 22.75ZM5.31001 11.75C4.64001 11.75 4.00001 12.05 3.58001 12.57L3.51001 12.64C3.19001 13.05 3.02001 13.63 3.08001 14.23L3.48001 19.24C3.62001 20.7 3.68001 21.25 5.71001 21.25H18.29C20.33 21.25 20.38 20.7 20.52 19.23L20.92 14.22C20.98 13.63 20.81 13.04 20.42 12.58L20.32 12.46C19.87 11.99 19.3 11.75 18.68 11.75H5.31001Z" fill="#211B2A"/>
<path d="M20.5 12.2203C20.09 12.2203 19.75 11.8803 19.75 11.4703V9.68027C19.75 6.70027 19.23 6.18027 16.25 6.18027H13.7C12.57 6.18027 12.18 5.78027 11.75 5.21027L10.46 3.50027C10.02 2.92027 9.92 2.78027 9.02 2.78027H7.75C4.77 2.78027 4.25 3.30027 4.25 6.28027V11.4303C4.25 11.8403 3.91 12.1803 3.5 12.1803C3.09 12.1803 2.75 11.8403 2.75 11.4303V6.28027C2.75 2.45027 3.92 1.28027 7.75 1.28027H9.03C10.57 1.28027 11.05 1.78027 11.67 2.60027L12.95 4.30027C13.22 4.66027 13.24 4.68027 13.71 4.68027H16.26C20.09 4.68027 21.26 5.85027 21.26 9.68027V11.4703C21.25 11.8803 20.91 12.2203 20.5 12.2203Z" fill="#211B2A"/>
<path d="M14.57 17.75H9.42999C9.01999 17.75 8.67999 17.41 8.67999 17C8.67999 16.59 9.01999 16.25 9.42999 16.25H14.57C14.98 16.25 15.32 16.59 15.32 17C15.32 17.41 14.99 17.75 14.57 17.75Z" fill="#211B2A"/>
</svg>
