<svg width="24" height="24" viewBox="0 0 24 24" fill="none" xmlns="http://www.w3.org/2000/svg">
<path d="M21.3703 18.02L21.2703 19.3C21.1203 20.83 21.0003 22 18.2903 22H5.71025C3.00025 22 2.88025 20.83 2.73025 19.3L2.33025 14.3C2.25025 13.47 2.51025 12.7 2.98025 12.11C2.99025 12.1 2.99025 12.1 3.00025 12.09C3.55025 11.42 4.38025 11 5.31025 11H18.6903C19.6203 11 20.4403 11.42 20.9803 12.07C20.9903 12.08 21.0003 12.09 21.0003 12.1C21.4903 12.69 21.7603 13.46 21.6703 14.3" stroke="#211B2A" stroke-width="1.5" stroke-miterlimit="10" stroke-linecap="round" stroke-linejoin="round"/>
<path d="M3.50024 11.4303V6.28027C3.50024 2.88027 4.35024 2.03027 7.75024 2.03027H9.02024C10.2902 2.03027 10.5802 2.41027 11.0602 3.05027L12.3302 4.75027C12.6502 5.17027 12.8402 5.43027 13.6902 5.43027H16.2402C19.6402 5.43027 20.4902 6.28027 20.4902 9.68027V11.4703" stroke="#211B2A" stroke-width="1.5" stroke-miterlimit="10" stroke-linecap="round" stroke-linejoin="round"/>
<path d="M9.43024 17H14.5702" stroke="#211B2A" stroke-width="1.5" stroke-miterlimit="10" stroke-linecap="round" stroke-linejoin="round"/>
</svg>
