<svg width="24" height="24" viewBox="0 0 24 24" fill="none" xmlns="http://www.w3.org/2000/svg">
<path opacity="0.4" d="M16.19 2H7.81C4.17 2 2 4.17 2 7.81V16.18C2 19.83 4.17 22 7.81 22H16.18C19.82 22 21.99 19.83 21.99 16.19V7.81C22 4.17 19.83 2 16.19 2Z" fill="#211B2A"/>
<path d="M9.85999 19L11.54 17.58C11.79 17.37 12.21 17.37 12.47 17.58L14.14 19C14.53 19.2 15.01 19 15.15 18.58L15.47 17.62C15.55 17.39 15.47 17.05 15.3 16.88L13.66 15.23C13.54 15.11 13.45 14.88 13.45 14.72V12.87C13.45 12.45 13.76 12.25 14.15 12.41L17.5 13.85C18.05 14.09 18.51 13.79 18.51 13.19V12.26C18.51 11.78 18.15 11.22 17.7 11.03L13.76 9.33001C13.59 9.26 13.46 9.05 13.46 8.87001V6.80001C13.46 6.12001 12.96 5.32001 12.36 5.01001C12.14 4.90001 11.89 4.90001 11.67 5.01001C11.06 5.31001 10.57 6.12001 10.57 6.80001V8.87001C10.57 9.05 10.43 9.26 10.27 9.33001L6.32999 11.03C5.88999 11.22 5.51999 11.78 5.51999 12.26V13.19C5.51999 13.79 5.96999 14.09 6.52999 13.85L9.87999 12.41C10.26 12.24 10.58 12.45 10.58 12.87V14.72C10.58 14.89 10.48 15.12 10.37 15.23L8.69999 16.87C8.52999 17.04 8.44999 17.38 8.52999 17.61L8.84999 18.57C8.98999 19 9.45999 19.2 9.85999 19Z" fill="#211B2A"/>
</svg>
