<svg width="24" height="24" viewBox="0 0 24 24" fill="none" xmlns="http://www.w3.org/2000/svg">
<path d="M14.46 19.83C14.23 19.83 14 19.78 13.79 19.67C13.74 19.64 13.69 19.61 13.65 19.57L11.98 18.15L10.34 19.57C10.29 19.61 10.24 19.64 10.19 19.67C9.79999 19.86 9.35999 19.88 8.96999 19.71C8.56999 19.54 8.26999 19.21 8.12999 18.8L7.80999 17.84C7.63999 17.34 7.78999 16.71 8.15999 16.33L9.82999 14.69L9.81999 13.24L6.80999 14.53C6.30999 14.74 5.78999 14.72 5.38999 14.45C4.99999 14.2 4.76999 13.73 4.76999 13.19V12.26C4.76999 11.48 5.30999 10.65 6.02999 10.34L9.81999 8.70999V6.8C9.81999 5.82 10.47 4.76 11.34 4.34C11.77 4.13 12.26 4.13 12.69 4.34C13.56 4.79 14.21 5.85 14.21 6.8V8.70999L18 10.34C18.72 10.64 19.26 11.47 19.26 12.26V13.19C19.26 13.73 19.03 14.2 18.62 14.46C18.21 14.72 17.7 14.75 17.2 14.54L14.2 13.25V14.72L15.83 16.35C16.2 16.72 16.35 17.36 16.18 17.86L15.86 18.81C15.72 19.22 15.42 19.55 15.02 19.71C14.84 19.79 14.65 19.83 14.46 19.83ZM12 16.67C12.34 16.67 12.67 16.78 12.94 16.99L14.49 18.31L14.76 17.38L13.13 15.76C12.87 15.51 12.7 15.09 12.7 14.72V12.87C12.7 12.42 12.89 12.03 13.23 11.8C13.57 11.57 14.01 11.54 14.43 11.72L17.75 13.14L17.76 12.26C17.76 12.07 17.58 11.79 17.41 11.72L13.46 10.02C13.03 9.84 12.71 9.35999 12.71 8.86999V6.8C12.71 6.41 12.37 5.85999 12.02 5.67999C11.66 5.85999 11.32 6.4 11.32 6.8V8.86999C11.32 9.33999 11.01 9.83 10.57 10.02L6.62999 11.72C6.45999 11.79 6.26999 12.08 6.26999 12.26V13.14L9.57999 11.73C9.98999 11.55 10.42 11.57 10.77 11.8C11.12 12.03 11.32 12.42 11.32 12.88V14.73C11.32 15.09 11.15 15.51 10.89 15.77L9.20999 17.42L9.52999 18.3L11.04 17.02C11.32 16.79 11.66 16.67 12 16.67ZM14.05 8.64L14.06 8.64999C14.06 8.63999 14.05 8.64 14.05 8.64Z" fill="#211B2A"/>
<path d="M15 22.75H9C3.57 22.75 1.25 20.43 1.25 15V9C1.25 3.57 3.57 1.25 9 1.25H15C20.43 1.25 22.75 3.57 22.75 9V15C22.75 20.43 20.43 22.75 15 22.75ZM9 2.75C4.39 2.75 2.75 4.39 2.75 9V15C2.75 19.61 4.39 21.25 9 21.25H15C19.61 21.25 21.25 19.61 21.25 15V9C21.25 4.39 19.61 2.75 15 2.75H9Z" fill="#211B2A"/>
</svg>
