<svg width="24" height="24" viewBox="0 0 24 24" fill="none" xmlns="http://www.w3.org/2000/svg">
<path d="M20.05 10.6296L15.38 8.61957L14.34 8.17957C14.18 8.09957 14.04 7.88957 14.04 7.70957V4.64957C14.04 3.68957 13.33 2.54957 12.47 2.10957C12.17 1.95957 11.81 1.95957 11.51 2.10957C10.66 2.54957 9.95 3.69957 9.95 4.65957V7.71957C9.95 7.89957 9.81 8.10957 9.65 8.18957L3.95 10.6396C3.32 10.8996 2.81 11.6896 2.81 12.3696V13.6896C2.81 14.5396 3.45 14.9596 4.24 14.6196L9.25 12.4596C9.64 12.2896 9.96 12.4996 9.96 12.9296V14.0396V15.8396C9.96 16.0696 9.83 16.3996 9.67 16.5596L7.35 18.8896C7.11 19.1296 7 19.5996 7.11 19.9396L7.56 21.2996C7.74 21.8896 8.41 22.1696 8.96 21.8896L11.34 19.8896C11.7 19.5796 12.29 19.5796 12.65 19.8896L15.03 21.8896C15.58 22.1596 16.25 21.8896 16.45 21.2996L16.9 19.9396C17.01 19.6096 16.9 19.1296 16.66 18.8896L14.34 16.5596C14.17 16.3996 14.04 16.0696 14.04 15.8396V12.9296C14.04 12.4996 14.35 12.2996 14.75 12.4596L19.76 14.6196C20.55 14.9596 21.19 14.5396 21.19 13.6896V12.3696C21.19 11.6896 20.68 10.8996 20.05 10.6296Z" fill="#211B2A"/>
</svg>
