<svg width="24" height="24" viewBox="0 0 24 24" fill="none" xmlns="http://www.w3.org/2000/svg">
<path d="M9.96 14.0396V12.9296C9.96 12.4996 9.64 12.2896 9.25 12.4596L4.24 14.6196C3.45 14.9596 2.81 14.5396 2.81 13.6896V12.3696C2.81 11.6896 3.32 10.8996 3.95 10.6396L9.65 8.18957C9.81 8.10957 9.95 7.89957 9.95 7.71957V4.65957C9.95 3.69957 10.66 2.54957 11.51 2.10957C11.81 1.95957 12.17 1.95957 12.47 2.10957C13.33 2.54957 14.04 3.68957 14.04 4.64957V7.70957C14.04 7.88957 14.18 8.09957 14.34 8.17957L15.38 8.61957L9.96 14.0396Z" fill="#211B2A"/>
<path opacity="0.4" d="M21.19 12.37V13.69C21.19 14.54 20.55 14.96 19.76 14.62L14.75 12.46C14.35 12.3 14.04 12.5 14.04 12.93V15.84C14.04 16.07 14.17 16.4 14.34 16.56L16.66 18.89C16.9 19.13 17.01 19.61 16.9 19.94L16.45 21.3C16.25 21.89 15.58 22.16 15.03 21.89L12.65 19.89C12.29 19.58 11.7 19.58 11.34 19.89L8.95998 21.89C8.40998 22.17 7.73998 21.89 7.55998 21.3L7.10998 19.94C6.99998 19.6 7.10998 19.13 7.34998 18.89L9.66998 16.56C9.82998 16.4 9.95998 16.07 9.95998 15.84V14.04L15.38 8.62L20.05 10.63C20.68 10.9 21.19 11.69 21.19 12.37Z" fill="#211B2A"/>
</svg>
