<svg width="24" height="24" viewBox="0 0 24 24" fill="none" xmlns="http://www.w3.org/2000/svg">
<path d="M16.27 9.1L14.3 8.24999C14.14 8.17999 14 7.96999 14 7.78999V4.78999C14 3.84999 13.31 2.73999 12.47 2.30999C12.17 2.15999 11.82 2.15999 11.52 2.30999C10.68 2.73999 9.98999 3.85999 9.98999 4.79999V7.79999C9.98999 7.97999 9.84999 8.18999 9.68999 8.25999L4.10999 10.67C3.48999 10.92 2.98999 11.69 2.98999 12.36V13.65C2.98999 14.49 3.61999 14.9 4.38999 14.57L9.29999 12.45C9.67999 12.28 9.99999 12.49 9.99999 12.91V15.76C9.99999 15.99 9.86999 16.31 9.70999 16.47L7.43999 18.75C7.19999 18.99 7.08999 19.45 7.19999 19.78L7.63999 21.11C7.81999 21.69 8.47999 21.97 9.01999 21.69L11.35 19.73C11.7 19.43 12.28 19.43 12.63 19.73L14.96 21.69C15.5 21.96 16.16 21.69 16.36 21.11L16.8 19.78C16.91 19.46 16.8 18.99 16.56 18.75L14.29 16.47C14.12 16.31 13.99 15.99 13.99 15.76V12.91C13.99 12.49 14.3 12.29 14.69 12.45L19.6 14.57C20.37 14.9 21 14.49 21 13.65V12.36C21 11.69 20.5 10.92 19.88 10.66" stroke="#211B2A" stroke-width="1.5" stroke-linecap="round" stroke-linejoin="round"/>
</svg>
