<svg width="24" height="24" viewBox="0 0 24 24" fill="none" xmlns="http://www.w3.org/2000/svg">
<path d="M12 18.75C11.59 18.75 11.25 18.41 11.25 18V17C11.25 16.59 11.59 16.25 12 16.25C12.41 16.25 12.75 16.59 12.75 17V18C12.75 18.41 12.41 18.75 12 18.75Z" fill="#211B2A"/>
<path d="M12 22.75C11.59 22.75 11.25 22.41 11.25 22V21C11.25 20.59 11.59 20.25 12 20.25C12.41 20.25 12.75 20.59 12.75 21V22C12.75 22.41 12.41 22.75 12 22.75Z" fill="#211B2A"/>
<path d="M1.99997 22.75C1.93997 22.75 1.87998 22.74 1.81998 22.73C1.41998 22.63 1.16998 22.22 1.26998 21.82L2.26998 17.82C2.36998 17.42 2.76996 17.17 3.17996 17.27C3.57996 17.37 3.82997 17.78 3.72997 18.18L2.72997 22.18C2.63997 22.52 2.33997 22.75 1.99997 22.75Z" fill="#211B2A"/>
<path d="M22 22.7497C21.66 22.7497 21.36 22.5197 21.27 22.1797L20.27 18.1797C20.17 17.7797 20.41 17.3697 20.82 17.2697C21.22 17.1697 21.63 17.4097 21.73 17.8197L22.73 21.8197C22.83 22.2197 22.59 22.6297 22.18 22.7297C22.12 22.7397 22.06 22.7497 22 22.7497Z" fill="#211B2A"/>
<path opacity="0.4" d="M19.26 9.52002C19.15 8.34002 18.84 7.09003 16.55 7.09003H7.44999C5.15999 7.09003 4.85 8.35002 4.74 9.52002L4.33999 13.86C4.28999 14.4 4.46999 14.94 4.83999 15.35C5.21999 15.76 5.76 16 6.32 16H7.66C8.81 16 9.02999 15.34 9.17999 14.9L9.32 14.47C9.48 13.98 9.51999 13.86 10.17 13.86H13.82C14.46 13.86 14.48 13.93 14.67 14.47L14.81 14.9C14.96 15.34 15.18 16 16.33 16H17.67C18.23 16 18.77 15.76 19.15 15.35C19.52 14.95 19.7 14.4 19.65 13.86L19.26 9.52002Z" fill="#211B2A"/>
<path d="M18.42 4.94H17.71C17.7 4.94 17.7 4.94 17.7 4.94L17.43 3.65002C17.17 2.40002 16.64 1.25 14.51 1.25H12.54H11.47H9.49998C7.36998 1.25 6.83999 2.40002 6.57999 3.65002L6.30998 4.94C6.29998 4.94 6.29999 4.94 6.29999 4.94H5.58998C5.28998 4.94 5.04999 5.17998 5.04999 5.47998C5.04999 5.77998 5.28998 6.02002 5.58998 6.02002H6.09999L5.79999 7.45001C6.18999 7.23001 6.71999 7.09003 7.45999 7.09003H16.56C17.3 7.09003 17.84 7.23001 18.22 7.45001L17.92 6.02002H18.43C18.73 6.02002 18.97 5.77998 18.97 5.47998C18.96 5.17998 18.72 4.94 18.42 4.94Z" fill="#211B2A"/>
<path d="M9.86 11.0097H7.72C7.42 11.0097 7.17999 10.7697 7.17999 10.4697C7.17999 10.1697 7.42 9.92969 7.72 9.92969H9.86C10.16 9.92969 10.4 10.1697 10.4 10.4697C10.39 10.7697 10.15 11.0097 9.86 11.0097Z" fill="#211B2A"/>
<path d="M16.28 11.0097H14.14C13.84 11.0097 13.6 10.7697 13.6 10.4697C13.6 10.1697 13.84 9.92969 14.14 9.92969H16.28C16.58 9.92969 16.82 10.1697 16.82 10.4697C16.82 10.7697 16.58 11.0097 16.28 11.0097Z" fill="#211B2A"/>
</svg>
