<svg width="24" height="24" viewBox="0 0 24 24" fill="none" xmlns="http://www.w3.org/2000/svg">
<path d="M12 18.75C11.59 18.75 11.25 18.41 11.25 18V17C11.25 16.59 11.59 16.25 12 16.25C12.41 16.25 12.75 16.59 12.75 17V18C12.75 18.41 12.41 18.75 12 18.75Z" fill="#211B2A"/>
<path d="M12 22.75C11.59 22.75 11.25 22.41 11.25 22V21C11.25 20.59 11.59 20.25 12 20.25C12.41 20.25 12.75 20.59 12.75 21V22C12.75 22.41 12.41 22.75 12 22.75Z" fill="#211B2A"/>
<path d="M1.99998 22.75C1.93998 22.75 1.87998 22.74 1.81998 22.73C1.41998 22.63 1.16998 22.22 1.26998 21.82L2.26998 17.82C2.36998 17.42 2.76998 17.17 3.17998 17.27C3.57998 17.37 3.82998 17.78 3.72998 18.18L2.72998 22.18C2.63998 22.52 2.33998 22.75 1.99998 22.75Z" fill="#211B2A"/>
<path d="M21.7526 22.5026C21.4126 22.5026 21.1126 22.2726 21.0226 21.9326L20.0226 17.9326C19.9226 17.5326 20.1626 17.1226 20.5726 17.0226C20.9726 16.9226 21.3826 17.1626 21.4826 17.5726L22.4826 21.5726C22.5826 21.9726 22.3426 22.3826 21.9326 22.4826C21.8726 22.4926 21.8126 22.5026 21.7526 22.5026Z" fill="#211B2A"/>
<path d="M19.14 5.3C19.14 5.6 18.89 5.84 18.6 5.84H5.52999C5.22999 5.84 4.98999 5.59 4.98999 5.3C4.98999 5 5.23999 4.76 5.52999 4.76H6.26999L6.54999 3.45C6.80999 2.17 7.34999 1 9.50999 1H14.6C16.76 1 17.31 2.17 17.57 3.44L17.85 4.75H18.59C18.89 4.75 19.14 5 19.14 5.3Z" fill="#211B2A"/>
<path d="M19.45 9.39969C19.34 8.19969 19.02 6.92969 16.69 6.92969H7.43002C5.10002 6.92969 4.79002 8.20969 4.67002 9.39969L4.26002 13.8197C4.21002 14.3697 4.39002 14.9197 4.77002 15.3397C5.16002 15.7597 5.70002 15.9997 6.28002 15.9997H7.64002C8.82002 15.9997 9.04002 15.3297 9.19002 14.8797L9.34002 14.4397C9.51002 13.9397 9.55002 13.8197 10.2 13.8197H13.92C14.57 13.8197 14.59 13.8897 14.78 14.4397L14.93 14.8797C15.07 15.3297 15.3 15.9997 16.47 15.9997H17.83C18.4 15.9997 18.95 15.7597 19.34 15.3397C19.72 14.9297 19.9 14.3697 19.85 13.8197L19.45 9.39969ZM9.88002 10.9197H7.71002C7.41002 10.9197 7.17002 10.6697 7.17002 10.3797C7.17002 10.0897 7.42002 9.83969 7.71002 9.83969H9.89002C10.19 9.83969 10.43 10.0897 10.43 10.3797C10.43 10.6697 10.18 10.9197 9.88002 10.9197ZM16.41 10.9197H14.23C13.93 10.9197 13.69 10.6697 13.69 10.3797C13.69 10.0897 13.94 9.83969 14.23 9.83969H16.41C16.71 9.83969 16.95 10.0897 16.95 10.3797C16.95 10.6697 16.71 10.9197 16.41 10.9197Z" fill="#211B2A"/>
</svg>
