<svg width="24" height="24" viewBox="0 0 24 24" fill="none" xmlns="http://www.w3.org/2000/svg">
<path d="M17.5 22.75H3.5C3.09 22.75 2.75 22.41 2.75 22V5C2.75 2.76 4.26 1.25 6.5 1.25H14.5C16.74 1.25 18.25 2.76 18.25 5V22C18.25 22.41 17.91 22.75 17.5 22.75ZM4.25 21.25H16.75V5C16.75 3.59 15.91 2.75 14.5 2.75H6.5C5.09 2.75 4.25 3.59 4.25 5V21.25Z" fill="#211B2A"/>
<path d="M19 22.75H2C1.59 22.75 1.25 22.41 1.25 22C1.25 21.59 1.59 21.25 2 21.25H19C19.41 21.25 19.75 21.59 19.75 22C19.75 22.41 19.41 22.75 19 22.75Z" fill="#211B2A"/>
<path d="M12.6102 10.7502H8.38023C6.75023 10.7502 5.74023 9.74023 5.74023 8.11023V6.88023C5.74023 5.25023 6.75023 4.24023 8.38023 4.24023H12.6102C14.2402 4.24023 15.2502 5.25023 15.2502 6.88023V8.11023C15.2502 9.74023 14.2402 10.7502 12.6102 10.7502ZM8.39023 5.75023C7.58023 5.75023 7.25023 6.08023 7.25023 6.89023V8.12022C7.25023 8.93022 7.58023 9.26022 8.39023 9.26022H12.6202C13.4302 9.26022 13.7602 8.93022 13.7602 8.12022V6.89023C13.7602 6.08023 13.4302 5.75023 12.6202 5.75023H8.39023Z" fill="#211B2A"/>
<path d="M9.5 13.75H6.5C6.09 13.75 5.75 13.41 5.75 13C5.75 12.59 6.09 12.25 6.5 12.25H9.5C9.91 12.25 10.25 12.59 10.25 13C10.25 13.41 9.91 13.75 9.5 13.75Z" fill="#211B2A"/>
<path d="M17.5 16.76C17.09 16.76 16.75 16.43 16.75 16.01C16.75 15.6 17.08 15.26 17.5 15.26L21.25 15.25V10.46L19.66 9.66998C19.29 9.47998 19.14 9.02999 19.32 8.65999C19.51 8.28999 19.96 8.13999 20.33 8.31999L22.33 9.31999C22.58 9.44999 22.74 9.70999 22.74 9.98999V15.99C22.74 16.4 22.41 16.74 21.99 16.74L17.5 16.76Z" fill="#211B2A"/>
</svg>
