<svg width="24" height="24" viewBox="0 0 24 24" fill="none" xmlns="http://www.w3.org/2000/svg">
<path d="M18.71 9.49048C18.61 9.49048 18.51 9.47049 18.41 9.43049C18.03 9.26049 17.86 8.8205 18.02 8.4405C18.21 8.0105 18.1 7.38048 17.75 6.86048C17.4 6.33048 16.87 5.98049 16.38 6.00049C15.94 6.00049 15.63 5.6705 15.62 5.2605C15.62 4.8405 15.95 4.51049 16.36 4.50049C17.39 4.48049 18.36 5.07051 18.99 6.02051C19.63 6.98051 19.78 8.13052 19.39 9.03052C19.28 9.32052 19 9.49048 18.71 9.49048Z" fill="#211B2A"/>
<path d="M21.82 10.4803C21.75 10.4803 21.69 10.4703 21.62 10.4503C21.22 10.3403 20.99 9.93036 21.1 9.53036C21.48 8.17036 21.16 6.55033 20.25 5.19033C19.34 3.83033 17.96 2.92033 16.55 2.75033C16.14 2.70033 15.85 2.33031 15.9 1.92031C15.95 1.51031 16.33 1.21035 16.73 1.27035C18.56 1.49035 20.34 2.65032 21.49 4.37032C22.64 6.09032 23.03 8.17034 22.54 9.95034C22.45 10.2603 22.15 10.4803 21.82 10.4803Z" fill="#211B2A"/>
<path opacity="0.4" d="M17.52 15.8396C17.41 14.6196 17.08 13.3096 14.7 13.3096H5.22998C2.84998 13.3096 2.52999 14.6196 2.40999 15.8396L1.98999 20.3596C1.93999 20.9196 2.12998 21.4895 2.50998 21.9095C2.89998 22.3395 3.45998 22.5896 4.04998 22.5896H5.43998C6.63998 22.5896 6.86999 21.8996 7.01999 21.4496L7.16998 21.0096C7.33998 20.4996 7.37998 20.3696 8.04998 20.3696H11.85C12.51 20.3696 12.54 20.4396 12.73 21.0096L12.88 21.4596C13.03 21.9096 13.26 22.5995 14.46 22.5995H15.85C16.44 22.5995 17 22.3496 17.39 21.9196C17.77 21.4996 17.96 20.9296 17.91 20.3696L17.52 15.8396Z" fill="#211B2A"/>
<path d="M16.65 11.09H15.91C15.9 11.09 15.9 11.09 15.89 11.09L15.61 9.73999C15.34 8.43999 14.79 7.25 12.58 7.25H10.53H9.41998H7.36998C5.15998 7.25 4.59998 8.43999 4.33998 9.73999L4.05998 11.09C4.04998 11.09 4.04998 11.09 4.03998 11.09H3.29999C2.98999 11.09 2.73999 11.34 2.73999 11.65C2.73999 11.96 2.98999 12.21 3.29999 12.21H3.82999L3.51999 13.69C3.91999 13.46 4.47998 13.32 5.24998 13.32H14.72C15.49 13.32 16.05 13.46 16.45 13.69L16.14 12.21H16.67C16.98 12.21 17.23 11.96 17.23 11.65C17.21 11.34 16.96 11.09 16.65 11.09Z" fill="#211B2A"/>
<path d="M7.74995 17.3895H5.51996C5.20996 17.3895 4.95996 17.1395 4.95996 16.8295C4.95996 16.5195 5.20996 16.2695 5.51996 16.2695H7.74995C8.05995 16.2695 8.30995 16.5195 8.30995 16.8295C8.29995 17.1395 8.05995 17.3895 7.74995 17.3895Z" fill="#211B2A"/>
<path d="M14.43 17.3895H12.2C11.89 17.3895 11.64 17.1395 11.64 16.8295C11.64 16.5195 11.89 16.2695 12.2 16.2695H14.43C14.74 16.2695 14.99 16.5195 14.99 16.8295C14.98 17.1395 14.73 17.3895 14.43 17.3895Z" fill="#211B2A"/>
</svg>
