<svg width="24" height="24" viewBox="0 0 24 24" fill="none" xmlns="http://www.w3.org/2000/svg">
<path d="M8.39001 7.62H6.87001C5.01001 7.62 4.59002 8.55001 4.36002 9.70001L3.51001 13.75H15.51L14.66 9.70001C14.42 8.56001 14.01 7.62 12.15 7.62" stroke="#211B2A" stroke-width="1.5" stroke-linecap="round" stroke-linejoin="round"/>
<path d="M16.89 19.19L17 20.36C17.08 21.24 16.38 22 15.48 22H14.07C13.26 22 13.15 21.65 13 21.23L12.85 20.78C12.64 20.17 12.5 19.75 11.42 19.75H7.58002C6.50002 19.75 6.34001 20.22 6.15001 20.78L6.00002 21.23C5.86002 21.66 5.75001 22 4.93001 22H3.52002C2.62002 22 1.91002 21.24 2.00002 20.36L2.42001 15.79C2.53001 14.66 2.74002 13.74 4.71002 13.74H14.28C16.25 13.74 16.46 14.66 16.57 15.79" stroke="#211B2A" stroke-width="1.5" stroke-linecap="round" stroke-linejoin="round"/>
<path d="M3.5 11.5H2.75" stroke="#211B2A" stroke-width="1.5" stroke-linecap="round" stroke-linejoin="round"/>
<path d="M16.25 11.5H15.5" stroke="#211B2A" stroke-width="1.5" stroke-linecap="round" stroke-linejoin="round"/>
<path d="M5 16.75H7.25" stroke="#211B2A" stroke-width="1.5" stroke-linecap="round" stroke-linejoin="round"/>
<path d="M11.75 16.75H14" stroke="#211B2A" stroke-width="1.5" stroke-linecap="round" stroke-linejoin="round"/>
<path d="M18.71 8.73998C18.99 8.08998 18.89 7.20999 18.37 6.43999C17.86 5.66999 17.08 5.23999 16.37 5.24999" stroke="#211B2A" stroke-width="1.5" stroke-linecap="round" stroke-linejoin="round"/>
<path d="M18.38 2.53998C17.81 2.25998 17.22 2.07 16.64 2" stroke="#211B2A" stroke-width="1.5" stroke-linecap="round" stroke-linejoin="round"/>
<path d="M21.82 9.72949C22.24 8.21949 21.94 6.36953 20.87 4.76953" stroke="#211B2A" stroke-width="1.5" stroke-linecap="round" stroke-linejoin="round"/>
</svg>
