<svg width="24" height="24" viewBox="0 0 24 24" fill="none" xmlns="http://www.w3.org/2000/svg">
<path d="M18.71 9.48952C18.61 9.48952 18.51 9.46952 18.41 9.42952C18.03 9.25952 17.86 8.81952 18.02 8.43952C18.21 8.00952 18.1 7.37952 17.75 6.85952C17.4 6.32952 16.87 5.96952 16.39 5.99952C15.95 5.99952 15.64 5.66952 15.63 5.25952C15.63 4.83952 15.96 4.50952 16.37 4.49952C17.4 4.47952 18.37 5.06952 19 6.01952C19.64 6.97952 19.79 8.12952 19.4 9.02952C19.28 9.31952 19 9.48952 18.71 9.48952Z" fill="#211B2A"/>
<path d="M21.82 10.4803C21.75 10.4803 21.69 10.4703 21.62 10.4503C21.22 10.3403 20.99 9.93035 21.1 9.53035C21.48 8.17035 21.16 6.55035 20.25 5.19035C19.34 3.83035 17.96 2.92035 16.55 2.75035C16.14 2.70035 15.85 2.33035 15.9 1.92035C15.95 1.51035 16.33 1.21035 16.73 1.27035C18.56 1.49035 20.34 2.65035 21.49 4.37035C22.64 6.09035 23.03 8.17035 22.54 9.95035C22.45 10.2603 22.15 10.4803 21.82 10.4803Z" fill="#211B2A"/>
<path d="M17.12 11.78C17.12 12.08 16.87 12.33 16.57 12.33H3.43C3.13 12.33 2.88 12.08 2.88 11.78C2.88 11.48 3.13 11.23 3.43 11.23H4.17L4.45 9.90999C4.71 8.62999 5.26 7.45999 7.44 7.45999H12.57C14.75 7.45999 15.29 8.63999 15.56 9.90999L15.84 11.23H16.58C16.87 11.23 17.12 11.48 17.12 11.78Z" fill="#211B2A"/>
<path d="M17.43 15.91C17.32 14.71 17 13.42 14.66 13.42H5.33999C2.99999 13.42 2.67999 14.71 2.56999 15.91L2.15999 20.36C2.10999 20.91 2.28999 21.47 2.66999 21.89C3.05999 22.31 3.59999 22.55 4.18999 22.55H5.55999C6.73999 22.55 6.96999 21.87 7.11999 21.43L7.26999 20.99C7.43999 20.49 7.47999 20.36 8.13999 20.36H11.88C12.54 20.36 12.56 20.43 12.75 20.99L12.9 21.43C13.05 21.88 13.27 22.55 14.46 22.55H15.83C16.41 22.55 16.96 22.31 17.35 21.89C17.73 21.47 17.91 20.92 17.86 20.36L17.43 15.91ZM7.80999 17.43H5.61999C5.31999 17.43 5.06999 17.18 5.06999 16.88C5.06999 16.58 5.31999 16.33 5.61999 16.33H7.80999C8.10999 16.33 8.35999 16.58 8.35999 16.88C8.35999 17.18 8.10999 17.43 7.80999 17.43ZM14.38 17.43H12.19C11.89 17.43 11.64 17.18 11.64 16.88C11.64 16.58 11.89 16.33 12.19 16.33H14.38C14.68 16.33 14.93 16.58 14.93 16.88C14.93 17.18 14.68 17.43 14.38 17.43Z" fill="#211B2A"/>
</svg>
