<svg width="24" height="24" viewBox="0 0 24 24" fill="none" xmlns="http://www.w3.org/2000/svg">
<path d="M12 14C6.98997 14 2.90997 17.36 2.90997 21.5C2.90997 21.78 3.12997 22 3.40997 22H20.59C20.87 22 21.09 21.78 21.09 21.5C21.09 17.36 17.01 14 12 14Z" fill="#211B2A"/>
<path d="M16.85 5.80008C16.73 5.31008 16.53 4.83008 16.25 4.39008C16.06 4.07008 15.81 3.75008 15.54 3.47008C14.64 2.57008 13.47 2.08008 12.27 2.02008C10.91 1.93008 9.52003 2.43008 8.47003 3.47008C7.48003 4.45008 6.98003 5.76008 7.00003 7.08008C7.01003 8.33008 7.51003 9.58008 8.46003 10.5401C9.12003 11.2001 9.93003 11.6401 10.8 11.8401C11.27 11.9601 11.77 12.0201 12.27 11.9801C13.46 11.9301 14.62 11.4601 15.53 10.5401C16.82 9.25008 17.26 7.44008 16.85 5.80008ZM14 9.00008C13.64 9.36008 13.04 9.36008 12.68 9.00008L11.99 8.31008L11.33 8.97008C10.97 9.33008 10.37 9.33008 10.01 8.97008C9.64003 8.60008 9.64003 8.01008 10 7.65008L10.66 6.99008L10.02 6.37008C9.66003 6.00008 9.66003 5.41008 10.02 5.03008C10.39 4.67008 10.98 4.67008 11.36 5.03008L11.98 5.67008L12.65 5.00008C13.01 4.64008 13.6 4.64008 13.97 5.00008C14.33 5.36008 14.33 5.96008 13.97 6.32008L13.31 6.98008L14 7.68008C14.36 8.04008 14.36 8.64008 14 9.00008Z" fill="#211B2A"/>
</svg>
