<svg width="24" height="24" viewBox="0 0 24 24" fill="none" xmlns="http://www.w3.org/2000/svg">
<path d="M10.43 2.42C11.4 1.86 12.6 1.86 13.58 2.42L19.52 5.84999C20.49 6.40999 21.09 7.45003 21.09 8.58003V15.42C21.09 16.54 20.49 17.58 19.52 18.15L13.58 21.58C12.61 22.14 11.41 22.14 10.43 21.58L4.49 18.15C3.52 17.59 2.92 16.55 2.92 15.42V8.58003C2.92 7.46003 3.52 6.41999 4.49 5.84999L6.39 4.75002" stroke="#211B2A" stroke-width="1.5" stroke-linecap="round" stroke-linejoin="round"/>
<path d="M12 11.0001C13.2868 11.0001 14.33 9.95687 14.33 8.67004C14.33 7.38322 13.2868 6.34009 12 6.34009C10.7132 6.34009 9.67 7.38322 9.67 8.67004C9.67 9.95687 10.7132 11.0001 12 11.0001Z" stroke="#211B2A" stroke-width="1.5" stroke-linecap="round" stroke-linejoin="round"/>
<path d="M16 16.6596C16 14.8596 14.21 13.3997 12 13.3997C9.79 13.3997 8 14.8596 8 16.6596" stroke="#211B2A" stroke-width="1.5" stroke-linecap="round" stroke-linejoin="round"/>
</svg>
