<svg width="24" height="24" viewBox="0 0 24 24" fill="none" xmlns="http://www.w3.org/2000/svg">
<path d="M18 18.8597H17.24C16.44 18.8597 15.68 19.1697 15.12 19.7297L13.41 21.4197C12.63 22.1897 11.36 22.1897 10.58 21.4197L8.87 19.7297C8.31 19.1697 7.54 18.8597 6.75 18.8597H6C4.34 18.8597 3 17.5298 3 15.8898V4.97974C3 3.33974 4.34 2.00977 6 2.00977H18C19.66 2.00977 21 3.33974 21 4.97974V15.8898C21 17.5198 19.66 18.8597 18 18.8597Z" stroke="#211B2A" stroke-width="1.5" stroke-miterlimit="10" stroke-linecap="round" stroke-linejoin="round"/>
<path d="M12 10.0001C13.2868 10.0001 14.33 8.95687 14.33 7.67004C14.33 6.38322 13.2868 5.34009 12 5.34009C10.7132 5.34009 9.66998 6.38322 9.66998 7.67004C9.66998 8.95687 10.7132 10.0001 12 10.0001Z" stroke="#211B2A" stroke-width="1.5" stroke-linecap="round" stroke-linejoin="round"/>
<path d="M16 15.6596C16 13.8596 14.21 12.3997 12 12.3997C9.79 12.3997 8 13.8596 8 15.6596" stroke="#211B2A" stroke-width="1.5" stroke-linecap="round" stroke-linejoin="round"/>
</svg>
