<svg width="24" height="24" viewBox="0 0 24 24" fill="none" xmlns="http://www.w3.org/2000/svg">
<path opacity="0.4" d="M18 18.8597H17.24C16.44 18.8597 15.68 19.1697 15.12 19.7297L13.41 21.4197C12.63 22.1897 11.36 22.1897 10.58 21.4197L8.87 19.7297C8.31 19.1697 7.54 18.8597 6.75 18.8597H6C4.34 18.8597 3 17.5298 3 15.8898V4.97974C3 3.33974 4.34 2.00977 6 2.00977H18C19.66 2.00977 21 3.33974 21 4.97974V15.8898C21 17.5198 19.66 18.8597 18 18.8597Z" fill="#211B2A"/>
<path d="M12 10.41C13.2868 10.41 14.33 9.36684 14.33 8.08002C14.33 6.79319 13.2868 5.75 12 5.75C10.7132 5.75 9.66998 6.79319 9.66998 8.08002C9.66998 9.36684 10.7132 10.41 12 10.41Z" fill="#211B2A"/>
<path d="M14.68 15.0601C15.49 15.0601 15.96 14.1601 15.51 13.4901C14.83 12.4801 13.51 11.8 12 11.8C10.49 11.8 9.16998 12.4801 8.48998 13.4901C8.03998 14.1601 8.50999 15.0601 9.31999 15.0601H14.68Z" fill="#211B2A"/>
</svg>
