<svg width="24" height="24" viewBox="0 0 24 24" fill="none" xmlns="http://www.w3.org/2000/svg">
<path d="M14.2 12.4502H9.20001C8.79001 12.4502 8.45001 12.1102 8.45001 11.7002C8.45001 11.2902 8.79001 10.9502 9.20001 10.9502H14.2C14.61 10.9502 14.95 11.2902 14.95 11.7002C14.95 12.1102 14.61 12.4502 14.2 12.4502Z" fill="#211B2A"/>
<path d="M11.7 14.9502C11.29 14.9502 10.95 14.6102 10.95 14.2002V9.2002C10.95 8.7902 11.29 8.4502 11.7 8.4502C12.11 8.4502 12.45 8.7902 12.45 9.2002V14.2002C12.45 14.6102 12.11 14.9502 11.7 14.9502Z" fill="#211B2A"/>
<path d="M11.5 21.75C5.85 21.75 1.25 17.15 1.25 11.5C1.25 5.85 5.85 1.25 11.5 1.25C17.15 1.25 21.75 5.85 21.75 11.5C21.75 17.15 17.15 21.75 11.5 21.75ZM11.5 2.75C6.67 2.75 2.75 6.68 2.75 11.5C2.75 16.32 6.67 20.25 11.5 20.25C16.33 20.25 20.25 16.32 20.25 11.5C20.25 6.68 16.33 2.75 11.5 2.75Z" fill="#211B2A"/>
<path d="M21.9999 22.7504C21.8099 22.7504 21.6199 22.6804 21.4699 22.5304L19.4699 20.5304C19.1799 20.2404 19.1799 19.7604 19.4699 19.4704C19.7599 19.1804 20.2399 19.1804 20.5299 19.4704L22.5299 21.4704C22.8199 21.7604 22.8199 22.2404 22.5299 22.5304C22.3799 22.6804 22.1899 22.7504 21.9999 22.7504Z" fill="#211B2A"/>
</svg>
