<svg width="24" height="24" viewBox="0 0 24 24" fill="none" xmlns="http://www.w3.org/2000/svg">
<path opacity="0.4" d="M11.5 21C16.7467 21 21 16.7467 21 11.5C21 6.25329 16.7467 2 11.5 2C6.25329 2 2 6.25329 2 11.5C2 16.7467 6.25329 21 11.5 21Z" fill="#211B2A"/>
<path d="M21.3001 21.9996C21.1201 21.9996 20.9401 21.9296 20.8101 21.7996L18.9501 19.9396C18.6801 19.6696 18.6801 19.2296 18.9501 18.9496C19.2201 18.6796 19.6601 18.6796 19.9401 18.9496L21.8001 20.8096C22.0701 21.0796 22.0701 21.5196 21.8001 21.7996C21.6601 21.9296 21.4801 21.9996 21.3001 21.9996Z" fill="#211B2A"/>
<path d="M14.2 10.9502H12.45V9.2002C12.45 8.7902 12.11 8.4502 11.7 8.4502C11.29 8.4502 10.95 8.7902 10.95 9.2002V10.9502H9.20001C8.79001 10.9502 8.45001 11.2902 8.45001 11.7002C8.45001 12.1102 8.79001 12.4502 9.20001 12.4502H10.95V14.2002C10.95 14.6102 11.29 14.9502 11.7 14.9502C12.11 14.9502 12.45 14.6102 12.45 14.2002V12.4502H14.2C14.61 12.4502 14.95 12.1102 14.95 11.7002C14.95 11.2902 14.61 10.9502 14.2 10.9502Z" fill="#211B2A"/>
</svg>
