<svg width="24" height="24" viewBox="0 0 24 24" fill="none" xmlns="http://www.w3.org/2000/svg">
<path d="M21.3001 21.9996C21.1201 21.9996 20.9401 21.9296 20.8101 21.7996L18.9501 19.9396C18.6801 19.6696 18.6801 19.2296 18.9501 18.9496C19.2201 18.6796 19.6601 18.6796 19.9401 18.9496L21.8001 20.8096C22.0701 21.0796 22.0701 21.5196 21.8001 21.7996C21.6601 21.9296 21.4801 21.9996 21.3001 21.9996Z" fill="#211B2A"/>
<path d="M11.5 2C6.26 2 2 6.26 2 11.5C2 16.74 6.26 21 11.5 21C16.74 21 21 16.74 21 11.5C21 6.26 16.74 2 11.5 2ZM14.2 12.45H12.45V14.2C12.45 14.61 12.11 14.95 11.7 14.95C11.29 14.95 10.95 14.61 10.95 14.2V12.45H9.2C8.79 12.45 8.45 12.11 8.45 11.7C8.45 11.29 8.79 10.95 9.2 10.95H10.95V9.2C10.95 8.79 11.29 8.45 11.7 8.45C12.11 8.45 12.45 8.79 12.45 9.2V10.95H14.2C14.61 10.95 14.95 11.29 14.95 11.7C14.95 12.11 14.61 12.45 14.2 12.45Z" fill="#211B2A"/>
</svg>
