<svg width="24" height="24" viewBox="0 0 24 24" fill="none" xmlns="http://www.w3.org/2000/svg">
<path opacity="0.4" d="M11.5 21C16.7467 21 21 16.7467 21 11.5C21 6.25329 16.7467 2 11.5 2C6.25329 2 2 6.25329 2 11.5C2 16.7467 6.25329 21 11.5 21Z" fill="#211B2A"/>
<path d="M21.3001 21.9996C21.1201 21.9996 20.9401 21.9296 20.8101 21.7996L18.9501 19.9396C18.6801 19.6696 18.6801 19.2296 18.9501 18.9496C19.2201 18.6796 19.6601 18.6796 19.9401 18.9496L21.8001 20.8096C22.0701 21.0796 22.0701 21.5196 21.8001 21.7996C21.6601 21.9296 21.4801 21.9996 21.3001 21.9996Z" fill="#211B2A"/>
<path d="M13.27 8.88995C12.64 8.68995 11.97 8.80995 11.49 9.17995C11 8.80995 10.35 8.68995 9.72 8.88995C8.36 9.32995 7.93 10.8799 8.31 12.0599C8.89 13.8699 10.8 14.8099 11.49 14.8099C12.16 14.8099 14.11 13.8499 14.67 12.0599C15.06 10.8799 14.63 9.32995 13.27 8.88995Z" fill="#211B2A"/>
</svg>
