<svg width="24" height="24" viewBox="0 0 24 24" fill="none" xmlns="http://www.w3.org/2000/svg">
<path d="M17.54 8.31063C18.8986 8.31063 20 7.20925 20 5.85062C20 4.492 18.8986 3.39062 17.54 3.39062C16.1814 3.39062 15.08 4.492 15.08 5.85062C15.08 7.20925 16.1814 8.31063 17.54 8.31063Z" stroke="#211B2A" stroke-width="1.5" stroke-miterlimit="10" stroke-linecap="round" stroke-linejoin="round"/>
<path d="M8.92 5.85062C8.92 4.49062 7.82001 3.39062 6.46001 3.39062C5.10001 3.39062 4 4.49062 4 5.85062C4 7.21062 5.10001 8.31063 6.46001 8.31063" stroke="#211B2A" stroke-width="1.5" stroke-miterlimit="10" stroke-linecap="round" stroke-linejoin="round"/>
<path d="M17.54 20.6212C18.9 20.6212 20 19.5212 20 18.1612C20 16.8012 18.9 15.7012 17.54 15.7012C16.18 15.7012 15.08 16.8012 15.08 18.1612" stroke="#211B2A" stroke-width="1.5" stroke-miterlimit="10" stroke-linecap="round" stroke-linejoin="round"/>
<path d="M6.46001 20.6114C7.81863 20.6114 8.92 19.51 8.92 18.1514C8.92 16.7928 7.81863 15.6914 6.46001 15.6914C5.10139 15.6914 4 16.7928 4 18.1514C4 19.51 5.10139 20.6114 6.46001 20.6114Z" stroke="#211B2A" stroke-width="1.5" stroke-miterlimit="10" stroke-linecap="round" stroke-linejoin="round"/>
</svg>
