<svg width="24" height="24" viewBox="0 0 24 24" fill="none" xmlns="http://www.w3.org/2000/svg">
<path d="M17.54 8.31063C18.8986 8.31063 20 7.20925 20 5.85062C20 4.492 18.8986 3.39062 17.54 3.39062C16.1814 3.39062 15.08 4.492 15.08 5.85062C15.08 7.20925 16.1814 8.31063 17.54 8.31063Z" stroke="#211B2A" stroke-width="1.5" stroke-miterlimit="10" stroke-linecap="round" stroke-linejoin="round"/>
<path opacity="0.4" d="M6.46001 8.31063C7.81863 8.31063 8.92 7.20925 8.92 5.85062C8.92 4.492 7.81863 3.39062 6.46001 3.39062C5.10139 3.39062 4 4.492 4 5.85062C4 7.20925 5.10139 8.31063 6.46001 8.31063Z" stroke="#211B2A" stroke-width="1.5" stroke-miterlimit="10" stroke-linecap="round" stroke-linejoin="round"/>
<path opacity="0.4" d="M17.54 20.6095C18.8986 20.6095 20 19.5081 20 18.1495C20 16.7908 18.8986 15.6895 17.54 15.6895C16.1814 15.6895 15.08 16.7908 15.08 18.1495C15.08 19.5081 16.1814 20.6095 17.54 20.6095Z" stroke="#211B2A" stroke-width="1.5" stroke-miterlimit="10" stroke-linecap="round" stroke-linejoin="round"/>
<path d="M6.46001 20.6095C7.81863 20.6095 8.92 19.5081 8.92 18.1495C8.92 16.7908 7.81863 15.6895 6.46001 15.6895C5.10139 15.6895 4 16.7908 4 18.1495C4 19.5081 5.10139 20.6095 6.46001 20.6095Z" stroke="#211B2A" stroke-width="1.5" stroke-miterlimit="10" stroke-linecap="round" stroke-linejoin="round"/>
</svg>
