<svg width="24" height="24" viewBox="0 0 24 24" fill="none" xmlns="http://www.w3.org/2000/svg">
<path opacity="0.4" d="M16.19 2H7.81C4.17 2 2 4.17 2 7.81V16.18C2 19.83 4.17 22 7.81 22H16.18C19.82 22 21.99 19.83 21.99 16.19V7.81C22 4.17 19.83 2 16.19 2Z" fill="#211B2A"/>
<path d="M12 10.6895C11.28 10.6895 10.69 11.2795 10.69 11.9995C10.69 12.7195 11.28 13.3095 12 13.3095C12.72 13.3095 13.31 12.7195 13.31 11.9995C13.31 11.2795 12.72 10.6895 12 10.6895Z" fill="#211B2A"/>
<path d="M7 10.6895C6.28 10.6895 5.69 11.2795 5.69 11.9995C5.69 12.7195 6.28 13.3095 7 13.3095C7.72 13.3095 8.31 12.7195 8.31 11.9995C8.31 11.2795 7.72 10.6895 7 10.6895Z" fill="#211B2A"/>
<path d="M17 10.6895C16.28 10.6895 15.69 11.2795 15.69 11.9995C15.69 12.7195 16.28 13.3095 17 13.3095C17.72 13.3095 18.31 12.7195 18.31 11.9995C18.31 11.2795 17.72 10.6895 17 10.6895Z" fill="#211B2A"/>
</svg>
