<svg width="24" height="24" viewBox="0 0 24 24" fill="none" xmlns="http://www.w3.org/2000/svg">
<path d="M12 10.07C10.4 10.07 9.09 8.76 9.09 7.16C9.09 5.56 10.4 4.25 12 4.25C13.6 4.25 14.91 5.56 14.91 7.16C14.91 8.76 13.6 10.07 12 10.07ZM12 5.75C11.22 5.75 10.59 6.38 10.59 7.16C10.59 7.94 11.22 8.57 12 8.57C12.78 8.57 13.41 7.94 13.41 7.16C13.41 6.38 12.78 5.75 12 5.75Z" fill="#211B2A"/>
<path d="M6.79 19.7497C5.19 19.7497 3.88 18.4397 3.88 16.8397C3.88 15.2397 5.19 13.9297 6.79 13.9297C8.39 13.9297 9.7 15.2397 9.7 16.8397C9.7 18.4397 8.39 19.7497 6.79 19.7497ZM6.79 15.4297C6.01 15.4297 5.38 16.0597 5.38 16.8397C5.38 17.6197 6.01 18.2497 6.79 18.2497C7.57 18.2497 8.2 17.6197 8.2 16.8397C8.2 16.0597 7.56 15.4297 6.79 15.4297Z" fill="#211B2A"/>
<path d="M17.21 19.7497C15.61 19.7497 14.3 18.4397 14.3 16.8397C14.3 15.2397 15.61 13.9297 17.21 13.9297C18.81 13.9297 20.12 15.2397 20.12 16.8397C20.12 18.4397 18.82 19.7497 17.21 19.7497ZM17.21 15.4297C16.43 15.4297 15.8 16.0597 15.8 16.8397C15.8 17.6197 16.43 18.2497 17.21 18.2497C17.99 18.2497 18.62 17.6197 18.62 16.8397C18.62 16.0597 17.99 15.4297 17.21 15.4297Z" fill="#211B2A"/>
</svg>
