<svg width="24" height="24" viewBox="0 0 24 24" fill="none" xmlns="http://www.w3.org/2000/svg">
<path d="M5.00018 10.001C3.90018 10.001 3.00018 10.901 3.00018 12.001C3.00018 13.101 3.90018 14.001 5.00018 14.001C6.10018 14.001 7.00018 13.101 7.00018 12.001C7.00018 10.901 6.10018 10.001 5.00018 10.001Z" fill="#211B2A"/>
<path d="M18.9994 10.001C17.8994 10.001 16.9994 10.901 16.9994 12.001C16.9994 13.101 17.8994 14.001 18.9994 14.001C20.0994 14.001 20.9994 13.101 20.9994 12.001C20.9994 10.901 20.0994 10.001 18.9994 10.001Z" fill="#211B2A"/>
<path d="M11.9999 10.001C10.8999 10.001 9.99988 10.901 9.99988 12.001C9.99988 13.101 10.8999 14.001 11.9999 14.001C13.0999 14.001 13.9999 13.101 13.9999 12.001C13.9999 10.901 13.0999 10.001 11.9999 10.001Z" fill="#211B2A"/>
</svg>
