<svg width="24" height="24" viewBox="0 0 24 24" fill="none" xmlns="http://www.w3.org/2000/svg">
<path opacity="0.4" d="M16.19 2H7.81C4.17 2 2 4.17 2 7.81V16.18C2 19.83 4.17 22 7.81 22H16.18C19.82 22 21.99 19.83 21.99 16.19V7.81C22 4.17 19.83 2 16.19 2Z" fill="#211B2A"/>
<path opacity="0.97" d="M12 10.3095C12.7235 10.3095 13.31 9.72295 13.31 8.99945C13.31 8.27596 12.7235 7.68945 12 7.68945C11.2765 7.68945 10.69 8.27596 10.69 8.99945C10.69 9.72295 11.2765 10.3095 12 10.3095Z" fill="#211B2A"/>
<path opacity="0.97" d="M8.31 13.6895C7.59 13.6895 7 14.2795 7 14.9995C7 15.7195 7.59 16.3095 8.31 16.3095C9.03 16.3095 9.62 15.7195 9.62 14.9995C9.62 14.2795 9.03 13.6895 8.31 13.6895Z" fill="#211B2A"/>
<path opacity="0.97" d="M15.69 13.6895C14.97 13.6895 14.38 14.2795 14.38 14.9995C14.38 15.7195 14.97 16.3095 15.69 16.3095C16.41 16.3095 17 15.7195 17 14.9995C17 14.2795 16.41 13.6895 15.69 13.6895Z" fill="#211B2A"/>
</svg>
