<svg width="24" height="24" viewBox="0 0 24 24" fill="none" xmlns="http://www.w3.org/2000/svg">
<path d="M12 9.32C13.19 9.32 14.16 8.35 14.16 7.16C14.16 5.97 13.19 5 12 5C10.81 5 9.84 5.97 9.84 7.16C9.84 8.35 10.81 9.32 12 9.32Z" stroke="#211B2A" stroke-width="1.5" stroke-linecap="round" stroke-linejoin="round"/>
<path opacity="0.4" d="M6.79 18.9997C7.98 18.9997 8.95 18.0297 8.95 16.8397C8.95 15.6497 7.98 14.6797 6.79 14.6797C5.6 14.6797 4.63 15.6497 4.63 16.8397C4.63 18.0297 5.59 18.9997 6.79 18.9997Z" stroke="#211B2A" stroke-width="1.5" stroke-linecap="round" stroke-linejoin="round"/>
<path d="M17.21 18.9997C18.4 18.9997 19.37 18.0297 19.37 16.8397C19.37 15.6497 18.4 14.6797 17.21 14.6797C16.02 14.6797 15.05 15.6497 15.05 16.8397C15.05 18.0297 16.02 18.9997 17.21 18.9997Z" stroke="#211B2A" stroke-width="1.5" stroke-linecap="round" stroke-linejoin="round"/>
</svg>
