<svg width="24" height="24" viewBox="0 0 24 24" fill="none" xmlns="http://www.w3.org/2000/svg">
<path opacity="0.4" d="M18.51 1.80078C18.01 1.80078 17.61 2.20078 17.61 2.70078V7.35078C17.61 7.85078 18.01 8.25078 18.51 8.25078C19.01 8.25078 19.41 7.85078 19.41 7.35078V2.70078C19.41 2.20078 19.01 1.80078 18.51 1.80078Z" fill="#211B2A"/>
<path d="M12 15.75C11.5 15.75 11.1 16.15 11.1 16.65V21.3C11.1 21.8 11.5 22.2 12 22.2C12.5 22.2 12.9 21.8 12.9 21.3V16.65C12.9 16.16 12.5 15.75 12 15.75Z" fill="#211B2A"/>
<path opacity="0.4" d="M5.49 1.80078C4.99 1.80078 4.59 2.20078 4.59 2.70078V7.35078C4.59 7.85078 4.99 8.25078 5.49 8.25078C5.99 8.25078 6.39 7.85078 6.39 7.35078V2.70078C6.39 2.20078 5.98 1.80078 5.49 1.80078Z" fill="#211B2A"/>
<path opacity="0.4" d="M7.35001 10.1699H3.63001C3.13001 10.1699 2.73001 10.5699 2.73001 11.0699C2.73001 11.5699 3.13001 11.9699 3.63001 11.9699H4.59001V21.2999C4.59001 21.7999 4.99001 22.1999 5.49001 22.1999C5.99001 22.1999 6.39001 21.7999 6.39001 21.2999V11.9699H7.35001C7.85001 11.9699 8.25001 11.5699 8.25001 11.0699C8.25001 10.5699 7.84001 10.1699 7.35001 10.1699Z" fill="#211B2A"/>
<path opacity="0.4" d="M20.37 10.1699H16.65C16.15 10.1699 15.75 10.5699 15.75 11.0699C15.75 11.5699 16.15 11.9699 16.65 11.9699H17.61V21.2999C17.61 21.7999 18.01 22.1999 18.51 22.1999C19.01 22.1999 19.41 21.7999 19.41 21.2999V11.9699H20.37C20.87 11.9699 21.27 11.5699 21.27 11.0699C21.27 10.5699 20.87 10.1699 20.37 10.1699Z" fill="#211B2A"/>
<path d="M13.86 12.0308H12.9V2.70078C12.9 2.20078 12.5 1.80078 12 1.80078C11.5 1.80078 11.1 2.20078 11.1 2.70078V12.0308H10.14C9.63999 12.0308 9.23999 12.4308 9.23999 12.9308C9.23999 13.4308 9.63999 13.8308 10.14 13.8308H13.86C14.36 13.8308 14.76 13.4308 14.76 12.9308C14.76 12.4308 14.36 12.0308 13.86 12.0308Z" fill="#211B2A"/>
</svg>
