<svg width="24" height="24" viewBox="0 0 24 24" fill="none" xmlns="http://www.w3.org/2000/svg">
<path opacity="0.4" d="M21.23 7.62047H15.69C15.31 7.62047 15 7.31047 15 6.92047C15 6.54047 15.31 6.23047 15.69 6.23047H21.23C21.61 6.23047 21.92 6.54047 21.92 6.92047C21.92 7.31047 21.61 7.62047 21.23 7.62047Z" fill="#211B2A"/>
<path opacity="0.4" d="M6.45999 7.62023H2.76999C2.38999 7.62023 2.07999 7.31023 2.07999 6.93023C2.07999 6.55023 2.38999 6.24023 2.76999 6.24023H6.45999C6.83999 6.24023 7.14999 6.55023 7.14999 6.93023C7.14999 7.31023 6.83999 7.62023 6.45999 7.62023Z" fill="#211B2A"/>
<path d="M10.15 10.84C12.315 10.84 14.07 9.08496 14.07 6.92C14.07 4.75504 12.315 3 10.15 3C7.98505 3 6.23001 4.75504 6.23001 6.92C6.23001 9.08496 7.98505 10.84 10.15 10.84Z" fill="#211B2A"/>
<path opacity="0.4" d="M21.23 17.7706H17.54C17.16 17.7706 16.85 17.4606 16.85 17.0806C16.85 16.7006 17.16 16.3906 17.54 16.3906H21.23C21.61 16.3906 21.92 16.7006 21.92 17.0806C21.92 17.4606 21.61 17.7706 21.23 17.7706Z" fill="#211B2A"/>
<path opacity="0.4" d="M8.31002 17.7706H2.77002C2.39002 17.7706 2.08002 17.4606 2.08002 17.0806C2.08002 16.7006 2.39002 16.3906 2.77002 16.3906H8.31002C8.69002 16.3906 9.00002 16.7006 9.00002 17.0806C9.00002 17.4606 8.69002 17.7706 8.31002 17.7706Z" fill="#211B2A"/>
<path d="M13.85 21.0002C16.0149 21.0002 17.77 19.2451 17.77 17.0802C17.77 14.9152 16.0149 13.1602 13.85 13.1602C11.685 13.1602 9.92999 14.9152 9.92999 17.0802C9.92999 19.2451 11.685 21.0002 13.85 21.0002Z" fill="#211B2A"/>
</svg>
