<svg width="24" height="24" viewBox="0 0 24 24" fill="none" xmlns="http://www.w3.org/2000/svg">
<path d="M15 22.75H9C3.57 22.75 1.25 20.43 1.25 15V9C1.25 3.57 3.57 1.25 9 1.25H15C20.43 1.25 22.75 3.57 22.75 9V15C22.75 20.43 20.43 22.75 15 22.75ZM9 2.75C4.39 2.75 2.75 4.39 2.75 9V15C2.75 19.61 4.39 21.25 9 21.25H15C19.61 21.25 21.25 19.61 21.25 15V9C21.25 4.39 19.61 2.75 15 2.75H9Z" fill="#211B2A"/>
<path d="M15.58 19.2496C15.17 19.2496 14.83 18.9096 14.83 18.4996V14.5996C14.83 14.1896 15.17 13.8496 15.58 13.8496C15.99 13.8496 16.33 14.1896 16.33 14.5996V18.4996C16.33 18.9096 15.99 19.2496 15.58 19.2496Z" fill="#211B2A"/>
<path d="M15.58 8.2C15.17 8.2 14.83 7.86 14.83 7.45V5.5C14.83 5.09 15.17 4.75 15.58 4.75C15.99 4.75 16.33 5.09 16.33 5.5V7.45C16.33 7.86 15.99 8.2 15.58 8.2Z" fill="#211B2A"/>
<path d="M15.58 13.3992C13.73 13.3992 12.23 11.8992 12.23 10.0492C12.23 8.19922 13.73 6.69922 15.58 6.69922C17.43 6.69922 18.93 8.19922 18.93 10.0492C18.93 11.8992 17.42 13.3992 15.58 13.3992ZM15.58 8.19922C14.56 8.19922 13.73 9.02922 13.73 10.0492C13.73 11.0692 14.56 11.8992 15.58 11.8992C16.6 11.8992 17.43 11.0692 17.43 10.0492C17.43 9.02922 16.59 8.19922 15.58 8.19922Z" fill="#211B2A"/>
<path d="M8.41998 19.2508C8.00998 19.2508 7.66998 18.9108 7.66998 18.5008V16.5508C7.66998 16.1408 8.00998 15.8008 8.41998 15.8008C8.82998 15.8008 9.16998 16.1408 9.16998 16.5508V18.5008C9.16998 18.9108 8.83998 19.2508 8.41998 19.2508Z" fill="#211B2A"/>
<path d="M8.41998 10.15C8.00998 10.15 7.66998 9.81 7.66998 9.4V5.5C7.66998 5.09 8.00998 4.75 8.41998 4.75C8.82998 4.75 9.16998 5.09 9.16998 5.5V9.4C9.16998 9.81 8.83998 10.15 8.41998 10.15Z" fill="#211B2A"/>
<path d="M8.42001 17.2996C6.57001 17.2996 5.07001 15.7996 5.07001 13.9496C5.07001 12.0996 6.57001 10.5996 8.42001 10.5996C10.27 10.5996 11.77 12.0996 11.77 13.9496C11.77 15.7996 10.27 17.2996 8.42001 17.2996ZM8.42001 12.0996C7.40001 12.0996 6.57001 12.9296 6.57001 13.9496C6.57001 14.9696 7.40001 15.7996 8.42001 15.7996C9.44001 15.7996 10.27 14.9696 10.27 13.9496C10.27 12.9296 9.45001 12.0996 8.42001 12.0996Z" fill="#211B2A"/>
</svg>
