<svg width="24" height="24" viewBox="0 0 24 24" fill="none" xmlns="http://www.w3.org/2000/svg">
<path d="M15 12C15 10.34 13.66 9 12 9C10.34 9 9 10.34 9 12C9 13.66 10.34 15 12 15C12.41 15 12.81 14.92 13.17 14.76" stroke="#211B2A" stroke-width="1.5" stroke-miterlimit="10" stroke-linecap="round" stroke-linejoin="round"/>
<path d="M6.88 20.5803L7.97 21.2103C8.76 21.6803 9.78 21.4003 10.25 20.6103L10.36 20.4203C11.26 18.8503 12.74 18.8503 13.65 20.4203L13.76 20.6103C14.23 21.4003 15.25 21.6803 16.04 21.2103L17.77 20.2203C18.68 19.7003 18.99 18.5303 18.47 17.6303C17.56 16.0603 18.3 14.7803 20.11 14.7803C21.15 14.7803 22.01 13.9303 22.01 12.8803V11.1203C22.01 10.0803 21.16 9.22031 20.11 9.22031C19.1 9.22031 18.42 8.82031 18.18 8.19031C17.99 7.70031 18.07 7.06031 18.47 6.37031C18.99 5.46031 18.68 4.30031 17.77 3.78031L16.96 3.32031" stroke="#211B2A" stroke-width="1.5" stroke-miterlimit="10" stroke-linecap="round" stroke-linejoin="round"/>
<path d="M13.64 3.57945C12.74 5.14945 11.26 5.14945 10.35 3.57945L10.24 3.38945C9.78 2.59945 8.76 2.31945 7.97 2.78945L6.24 3.77945C5.33 4.29945 5.02 5.46945 5.54 6.37945C6.45 7.93945 5.71 9.21945 3.9 9.21945C2.86 9.21945 2 10.0694 2 11.1194V12.8794C2 13.9194 2.85 14.7794 3.9 14.7794C5.71 14.7794 6.45 16.0594 5.54 17.6294" stroke="#211B2A" stroke-width="1.5" stroke-miterlimit="10" stroke-linecap="round" stroke-linejoin="round"/>
</svg>
