<svg width="24" height="24" viewBox="0 0 24 24" fill="none" xmlns="http://www.w3.org/2000/svg">
<path opacity="0.4" d="M7.35 3.85938H16.65C20.75 3.85938 22 5.10938 22 9.20938V14.7894C22 18.8894 20.75 20.1394 16.65 20.1394H7.35C3.25 20.1394 2 18.8894 2 14.7894V9.20938C2 5.10938 3.25 3.85938 7.35 3.85938Z" fill="#211B2A"/>
<path d="M13.21 7.58008H15.44C17.69 7.58008 18.74 8.63008 18.74 10.8801V13.1101C18.74 15.3601 17.69 16.4101 15.44 16.4101H13.21C10.96 16.4101 9.91 15.3601 9.91 13.1101V10.8801C9.91 8.63008 10.96 7.58008 13.21 7.58008Z" fill="#211B2A"/>
</svg>
