<svg width="24" height="24" viewBox="0 0 24 24" fill="none" xmlns="http://www.w3.org/2000/svg">
<path opacity="0.4" d="M16.65 3.85938H7.35C3.25 3.85938 2 5.10938 2 9.20938V14.7894C2 18.8894 3.25 20.1394 7.35 20.1394H16.65C20.75 20.1394 22 18.8894 22 14.7894V9.20938C22 5.10938 20.75 3.85938 16.65 3.85938Z" fill="#211B2A"/>
<path d="M10.79 7.58008H8.55999C6.30999 7.58008 5.25999 8.63008 5.25999 10.8801V13.1101C5.25999 15.3601 6.30999 16.4101 8.55999 16.4101H10.79C13.04 16.4101 14.09 15.3601 14.09 13.1101V10.8801C14.09 8.63008 13.04 7.58008 10.79 7.58008Z" fill="#211B2A"/>
</svg>
