<svg width="24" height="24" viewBox="0 0 24 24" fill="none" xmlns="http://www.w3.org/2000/svg">
<path d="M1.96997 5.95035V5.09035C1.96997 2.47035 3.91997 1.28035 6.30997 2.45035L10.75 4.63035C11.71 5.10035 12.5 6.35035 12.5 7.41035V22.0003H4.07997C2.91997 22.0003 1.96997 21.0703 1.96997 19.9303V10.0203" stroke="#211B2A" stroke-width="1.5" stroke-linecap="round" stroke-linejoin="round"/>
<path d="M21.97 15.0599V18.8399C21.97 20.9999 20.97 21.9999 18.81 21.9999H12.5V10.4199L12.97 10.5199L17.47 11.5299L19.5 11.9799C20.82 12.2699 21.9 12.9499 21.96 14.8699C21.97 14.9299 21.97 14.9899 21.97 15.0599Z" stroke="#211B2A" stroke-width="1.5" stroke-linecap="round" stroke-linejoin="round"/>
<path d="M5.5 9H8.97" stroke="#211B2A" stroke-width="1.5" stroke-linecap="round" stroke-linejoin="round"/>
<path d="M5.5 13H8.97" stroke="#211B2A" stroke-width="1.5" stroke-linecap="round" stroke-linejoin="round"/>
<path d="M17.47 11.5295V14.7495C17.47 15.9895 16.46 16.9995 15.22 16.9995C13.98 16.9995 12.97 15.9895 12.97 14.7495V10.5195L17.47 11.5295Z" stroke="#211B2A" stroke-width="1.5" stroke-linecap="round" stroke-linejoin="round"/>
<path d="M21.96 14.8703C21.9 16.0503 20.92 17.0003 19.72 17.0003C18.48 17.0003 17.47 15.9903 17.47 14.7503V11.5303L19.5 11.9803C20.82 12.2703 21.9 12.9503 21.96 14.8703Z" stroke="#211B2A" stroke-width="1.5" stroke-linecap="round" stroke-linejoin="round"/>
</svg>
