<svg width="24" height="24" viewBox="0 0 24 24" fill="none" xmlns="http://www.w3.org/2000/svg">
<path d="M12.5 22.7497H4.07997C2.50997 22.7497 1.21997 21.4897 1.21997 19.9297V5.0897C1.21997 3.5597 1.78997 2.3697 2.82997 1.7197C3.87997 1.0597 5.23997 1.0797 6.64997 1.7797L11.09 3.9597C12.3 4.5597 13.25 6.0697 13.25 7.4097V21.9997C13.25 22.4097 12.91 22.7497 12.5 22.7497ZM4.55997 2.7497C4.20997 2.7497 3.88997 2.8297 3.61997 2.9997C3.03997 3.3597 2.71997 4.1097 2.71997 5.0897V19.9297C2.71997 20.6597 3.32997 21.2497 4.07997 21.2497H11.75V7.4097C11.75 6.6397 11.13 5.6497 10.42 5.3097L5.97997 3.1297C5.46997 2.8797 4.98997 2.7497 4.55997 2.7497Z" fill="#211B2A"/>
<path d="M18.81 22.7503H12.5C12.09 22.7503 11.75 22.4103 11.75 22.0003V10.4203C11.75 10.1903 11.85 9.98027 12.03 9.84027C12.21 9.70027 12.43 9.64027 12.66 9.69027L13.13 9.79027L19.67 11.2503C21.66 11.6903 22.66 12.8603 22.72 14.8503C22.73 14.8503 22.73 14.9503 22.73 15.0603V18.8403C22.72 21.4003 21.37 22.7503 18.81 22.7503ZM13.25 21.2503H18.81C20.57 21.2503 21.22 20.6003 21.22 18.8403V14.9803C21.17 13.6103 20.65 13.0003 19.34 12.7103L13.25 11.3503V21.2503Z" fill="#211B2A"/>
<path d="M8.97 9.75H5.5C5.09 9.75 4.75 9.41 4.75 9C4.75 8.59 5.09 8.25 5.5 8.25H8.97C9.38 8.25 9.72 8.59 9.72 9C9.72 9.41 9.39 9.75 8.97 9.75Z" fill="#211B2A"/>
<path d="M8.97 13.75H5.5C5.09 13.75 4.75 13.41 4.75 13C4.75 12.59 5.09 12.25 5.5 12.25H8.97C9.38 12.25 9.72 12.59 9.72 13C9.72 13.41 9.39 13.75 8.97 13.75Z" fill="#211B2A"/>
<path d="M15.22 17.7505C13.57 17.7505 12.22 16.4005 12.22 14.7505V10.5205C12.22 10.2905 12.32 10.0805 12.5 9.93047C12.68 9.78047 12.91 9.73047 13.13 9.78047L17.63 10.7905C17.97 10.8705 18.22 11.1705 18.22 11.5205V14.7405C18.22 16.4005 16.88 17.7505 15.22 17.7505ZM13.72 11.4605V14.7505C13.72 15.5805 14.39 16.2505 15.22 16.2505C16.05 16.2505 16.72 15.5805 16.72 14.7505V12.1305L13.72 11.4605Z" fill="#211B2A"/>
<path d="M19.72 17.7496C18.07 17.7496 16.72 16.3996 16.72 14.7496V11.5296C16.72 11.2996 16.82 11.0896 17 10.9496C17.18 10.8096 17.41 10.7496 17.63 10.7996L19.66 11.2496C21.65 11.6896 22.65 12.8596 22.71 14.8496C22.71 14.8696 22.71 14.8896 22.71 14.9096C22.63 16.4996 21.32 17.7496 19.72 17.7496ZM18.22 12.4596V14.7496C18.22 15.5796 18.89 16.2496 19.72 16.2496C20.51 16.2496 21.16 15.6396 21.21 14.8596C21.16 13.5996 20.64 12.9996 19.34 12.7096L18.22 12.4596Z" fill="#211B2A"/>
</svg>
