<svg width="24" height="24" viewBox="0 0 24 24" fill="none" xmlns="http://www.w3.org/2000/svg">
<path d="M10.6 4.15002V6H9.12C7.50999 6 6.70001 6.80998 6.70001 8.41998V18H4.15002C2.72002 18 2 17.28 2 15.85V4.15002C2 2.72002 2.72002 2 4.15002 2H8.45001C9.88001 2 10.6 2.72002 10.6 4.15002Z" fill="#211B2A"/>
<path opacity="0.4" d="M17.37 8.41998V19.58C17.37 21.19 16.57 22 14.96 22H9.12C7.51 22 6.70001 21.19 6.70001 19.58V8.41998C6.70001 6.80998 7.51 6 9.12 6H14.96C16.57 6 17.37 6.80998 17.37 8.41998Z" fill="#211B2A"/>
<path d="M22 4.15002V15.85C22 17.28 21.28 18 19.85 18H17.37V8.41998C17.37 6.80998 16.57 6 14.96 6H13.4V4.15002C13.4 2.72002 14.12 2 15.55 2H19.85C21.28 2 22 2.72002 22 4.15002Z" fill="#211B2A"/>
<path d="M14 11.75H10C9.59 11.75 9.25 11.41 9.25 11C9.25 10.59 9.59 10.25 10 10.25H14C14.41 10.25 14.75 10.59 14.75 11C14.75 11.41 14.41 11.75 14 11.75Z" fill="#211B2A"/>
<path d="M14 14.75H10C9.59 14.75 9.25 14.41 9.25 14C9.25 13.59 9.59 13.25 10 13.25H14C14.41 13.25 14.75 13.59 14.75 14C14.75 14.41 14.41 14.75 14 14.75Z" fill="#211B2A"/>
<path d="M12.75 19V22H11.25V19C11.25 18.59 11.59 18.25 12 18.25C12.41 18.25 12.75 18.59 12.75 19Z" fill="#211B2A"/>
</svg>
