<svg width="24" height="24" viewBox="0 0 24 24" fill="none" xmlns="http://www.w3.org/2000/svg">
<path opacity="0.4" d="M20 9.84009C20.55 9.84009 21 10.2901 21 10.8401V17.0001C21 20.0001 19.5 22.0001 16 22.0001H8C4.5 22.0001 3 20.0001 3 17.0001V10.8401C3 10.2901 3.45 9.84009 4 9.84009H20Z" fill="#211B2A"/>
<path d="M16.75 3.56V2C16.75 1.59 16.41 1.25 16 1.25C15.59 1.25 15.25 1.59 15.25 2V3.5H8.75001V2C8.75001 1.59 8.41001 1.25 8.00001 1.25C7.59001 1.25 7.25001 1.59 7.25001 2V3.56C4.55001 3.81 3.24 5.42 3.04 7.81C3.02 8.1 3.26 8.34 3.54 8.34H20.46C20.75 8.34 20.99 8.09 20.96 7.81C20.76 5.42 19.45 3.81 16.75 3.56Z" fill="#211B2A"/>
<path d="M15.66 18.47L14.92 17.73C15.3 17.15 15.53 16.45 15.53 15.7C15.53 13.66 13.87 12 11.83 12C9.79 12 8.13 13.66 8.13 15.7C8.13 17.74 9.79 19.4 11.83 19.4C12.58 19.4 13.28 19.17 13.86 18.79L14.6 19.53C14.75 19.68 14.94 19.75 15.13 19.75C15.32 19.75 15.51 19.68 15.66 19.53C15.95 19.24 15.95 18.76 15.66 18.47Z" fill="#211B2A"/>
</svg>
