<svg width="24" height="24" viewBox="0 0 24 24" fill="none" xmlns="http://www.w3.org/2000/svg">
<path opacity="0.4" d="M10.96 2.11037L5.45999 4.17037C4.40999 4.57037 3.54999 5.81037 3.54999 6.94037V15.0404C3.54999 15.8504 4.07999 16.9204 4.72999 17.4004L10.23 21.5104C11.2 22.2404 12.79 22.2404 13.76 21.5104L19.26 17.4004C19.91 16.9104 20.44 15.8504 20.44 15.0404V6.94037C20.44 5.82037 19.58 4.57037 18.53 4.18037L13.03 2.12037C12.47 1.90037 11.53 1.90037 10.96 2.11037Z" fill="#211B2A"/>
<path d="M12 16.25C9.38 16.25 7.25 14.12 7.25 11.5C7.25 8.88 9.38 6.75 12 6.75C14.62 6.75 16.75 8.88 16.75 11.5C16.75 14.12 14.62 16.25 12 16.25ZM12 8.25C10.21 8.25 8.75 9.71 8.75 11.5C8.75 13.29 10.21 14.75 12 14.75C13.79 14.75 15.25 13.29 15.25 11.5C15.25 9.71 13.79 8.25 12 8.25Z" fill="#211B2A"/>
<path d="M11 13.25C10.75 13.25 10.5 13.12 10.36 12.89C10.15 12.53 10.26 12.07 10.62 11.86L11.38 11.4C11.46 11.35 11.5 11.27 11.5 11.19V10.26C11.5 9.85001 11.84 9.51001 12.25 9.51001C12.66 9.51001 13 9.84001 13 10.25V11.18C13 11.79 12.67 12.37 12.15 12.68L11.38 13.14C11.27 13.22 11.13 13.25 11 13.25Z" fill="#211B2A"/>
</svg>
