<svg width="24" height="24" viewBox="0 0 24 24" fill="none" xmlns="http://www.w3.org/2000/svg">
<path d="M10.49 2.22957L5.5 4.09957C4.35 4.52957 3.41 5.88957 3.41 7.11957V14.5496C3.41 15.7296 4.19001 17.2796 5.14001 17.9896L9.44 21.1996C10.85 22.2596 13.17 22.2596 14.58 21.1996L18.88 17.9896C19.83 17.2796 20.61 15.7296 20.61 14.5496V7.11957C20.61 5.88957 19.67 4.52957 18.52 4.09957L13.53 2.22957C12.68 1.91957 11.32 1.91957 10.49 2.22957Z" stroke="#211B2A" stroke-width="1.5" stroke-linecap="round" stroke-linejoin="round"/>
<path d="M12 15.5C14.2091 15.5 16 13.7091 16 11.5C16 9.29086 14.2091 7.5 12 7.5C9.79086 7.5 8 9.29086 8 11.5C8 13.7091 9.79086 15.5 12 15.5Z" stroke="#211B2A" stroke-width="1.5" stroke-miterlimit="10" stroke-linecap="round" stroke-linejoin="round"/>
<path d="M12.25 10.25V11.18C12.25 11.53 12.07 11.86 11.76 12.04L11 12.5" stroke="#211B2A" stroke-width="1.5" stroke-miterlimit="10" stroke-linecap="round" stroke-linejoin="round"/>
</svg>
