<svg width="24" height="24" viewBox="0 0 24 24" fill="none" xmlns="http://www.w3.org/2000/svg">
<path d="M14.89 3.45H9.11001C8.71001 3.45 8.39001 3.13 8.39001 2.73C8.39001 2.33 8.71001 2 9.11001 2H14.89C15.29 2 15.61 2.32 15.61 2.72C15.61 3.12 15.29 3.45 14.89 3.45Z" fill="#211B2A"/>
<path d="M19.97 15H17.03C15.76 15 15 15.76 15 17.03V19.97C15 21.24 15.76 22 17.03 22H19.97C21.24 22 22 21.24 22 19.97V17.03C22 15.76 21.24 15 19.97 15ZM19.69 19.46L18.51 20.14C18.27 20.28 18.03 20.35 17.81 20.35C17.64 20.35 17.49 20.31 17.35 20.23C17.03 20.04 16.85 19.67 16.85 19.18V17.82C16.85 17.33 17.03 16.96 17.35 16.77C17.67 16.58 18.08 16.62 18.51 16.86L19.69 17.54C20.11 17.79 20.35 18.13 20.35 18.5C20.35 18.87 20.12 19.21 19.69 19.46Z" fill="#211B2A"/>
<path d="M14 19.9704V17.0304C14 15.2204 15.22 14.0004 17.03 14.0004H19.97C20.2 14.0004 20.42 14.0204 20.63 14.0604C20.65 13.8204 20.67 13.5804 20.67 13.3304C20.67 8.54039 16.78 4.65039 12 4.65039C7.22002 4.65039 3.33002 8.54039 3.33002 13.3304C3.33002 18.1104 7.22002 22.0004 12 22.0004C12.85 22.0004 13.66 21.8604 14.44 21.6404C14.16 21.1704 14 20.6104 14 19.9704ZM12.75 13.0004C12.75 13.4104 12.41 13.7504 12 13.7504C11.59 13.7504 11.25 13.4104 11.25 13.0004V8.00039C11.25 7.59039 11.59 7.25039 12 7.25039C12.41 7.25039 12.75 7.59039 12.75 8.00039V13.0004Z" fill="#211B2A"/>
</svg>
