<svg width="24" height="24" viewBox="0 0 24 24" fill="none" xmlns="http://www.w3.org/2000/svg">
<path d="M12 13.75C11.59 13.75 11.25 13.41 11.25 13V8C11.25 7.59 11.59 7.25 12 7.25C12.41 7.25 12.75 7.59 12.75 8V13C12.75 13.41 12.41 13.75 12 13.75Z" fill="#211B2A"/>
<path d="M14.89 3.45H9.11001C8.71001 3.45 8.39001 3.13 8.39001 2.73C8.39001 2.33 8.71001 2 9.11001 2H14.89C15.29 2 15.61 2.32 15.61 2.72C15.61 3.12 15.29 3.45 14.89 3.45Z" fill="#211B2A"/>
<path opacity="0.4" d="M15 19.9699V17.0299C15 15.7599 15.76 14.9999 17.03 14.9999H19.97C20.16 14.9999 20.33 15.0199 20.5 15.0599C20.61 14.4999 20.67 13.9199 20.67 13.3299C20.67 8.54991 16.78 4.65991 12 4.65991C7.22002 4.65991 3.33002 8.54991 3.33002 13.3299C3.33002 18.1099 7.22002 21.9999 12 21.9999C13.21 21.9999 14.36 21.7499 15.41 21.2999C15.15 20.9599 15 20.5199 15 19.9699Z" fill="#211B2A"/>
<path d="M19.97 15H17.03C15.76 15 15 15.76 15 17.03V19.97C15 21.24 15.76 22 17.03 22H19.97C21.24 22 22 21.24 22 19.97V17.03C22 15.76 21.24 15 19.97 15ZM19.69 19.46L18.51 20.14C18.27 20.28 18.03 20.35 17.81 20.35C17.64 20.35 17.49 20.31 17.35 20.23C17.03 20.04 16.85 19.67 16.85 19.18V17.82C16.85 17.33 17.03 16.96 17.35 16.77C17.67 16.58 18.08 16.62 18.51 16.86L19.69 17.54C20.11 17.79 20.35 18.13 20.35 18.5C20.35 18.87 20.12 19.21 19.69 19.46Z" fill="#211B2A"/>
</svg>
