<svg width="24" height="24" viewBox="0 0 24 24" fill="none" xmlns="http://www.w3.org/2000/svg">
<path opacity="0.4" d="M16.19 2H7.81C4.17 2 2 4.17 2 7.81V16.18C2 19.83 4.17 22 7.81 22H16.18C19.82 22 21.99 19.83 21.99 16.19V7.81C22 4.17 19.83 2 16.19 2Z" fill="#211B2A"/>
<path d="M17.8499 13.5296C17.7699 13.3496 17.6299 13.1996 17.4399 13.1196C17.3499 13.0796 17.2499 13.0596 17.1499 13.0596H6.84991C6.43991 13.0596 6.09991 13.3996 6.09991 13.8096C6.09991 14.2196 6.43991 14.5596 6.84991 14.5596H15.3499L13.5899 16.3196C13.2999 16.6096 13.2999 17.0896 13.5899 17.3796C13.7399 17.5296 13.9299 17.5996 14.1199 17.5996C14.3099 17.5996 14.4999 17.5296 14.6499 17.3796L17.6899 14.3396C17.7599 14.2696 17.8099 14.1896 17.8499 14.0996C17.9199 13.9196 17.9199 13.7096 17.8499 13.5296Z" fill="#211B2A"/>
<path d="M6.14997 10.4698C6.22997 10.6498 6.36997 10.7998 6.55997 10.8798C6.64997 10.9198 6.74997 10.9398 6.84997 10.9398H17.16C17.57 10.9398 17.91 10.5998 17.91 10.1898C17.91 9.77984 17.57 9.43984 17.16 9.43984H8.65997L10.42 7.67984C10.71 7.38984 10.71 6.90984 10.42 6.61984C10.13 6.32984 9.64997 6.32984 9.35997 6.61984L6.31997 9.64984C6.24997 9.71984 6.18997 9.80984 6.14997 9.89984C6.07997 10.0798 6.07997 10.2898 6.14997 10.4698Z" fill="#211B2A"/>
</svg>
