<svg width="24" height="24" viewBox="0 0 24 24" fill="none" xmlns="http://www.w3.org/2000/svg">
<path opacity="0.4" d="M16.19 2H7.82C4.17 2 2 4.17 2 7.81V16.18C2 19.82 4.17 21.99 7.81 21.99H16.18C19.82 21.99 21.99 19.82 21.99 16.18V7.81C22 4.17 19.83 2 16.19 2Z" fill="#211B2A"/>
<path d="M10.18 6.09961C9.76996 6.09961 9.42996 6.43961 9.42996 6.84961V15.3496L7.66995 13.5896C7.37995 13.2996 6.89996 13.2996 6.60996 13.5896C6.31996 13.8796 6.31996 14.3596 6.60996 14.6496L9.64996 17.6896C9.71996 17.7596 9.79995 17.8096 9.88995 17.8496C9.97995 17.8896 10.08 17.9096 10.18 17.9096C10.28 17.9096 10.37 17.8896 10.47 17.8496C10.65 17.7696 10.8 17.6296 10.88 17.4396C10.92 17.3496 10.94 17.2496 10.94 17.1496V6.84961C10.93 6.42961 10.6 6.09961 10.18 6.09961Z" fill="#211B2A"/>
<path d="M17.3899 9.35961L14.3499 6.31961C14.2799 6.24961 14.1999 6.19961 14.1099 6.15961C13.9299 6.07961 13.7199 6.07961 13.5399 6.15961C13.3599 6.23961 13.2099 6.37961 13.1299 6.56961C13.0899 6.65961 13.0699 6.75961 13.0699 6.85961V17.1696C13.0699 17.5796 13.4099 17.9196 13.8199 17.9196C14.2299 17.9196 14.5699 17.5796 14.5699 17.1696V8.66961L16.3299 10.4296C16.4799 10.5796 16.6699 10.6496 16.8599 10.6496C17.0499 10.6496 17.2399 10.5796 17.3899 10.4296C17.6799 10.1196 17.6799 9.64961 17.3899 9.35961Z" fill="#211B2A"/>
</svg>
