<svg width="24" height="24" viewBox="0 0 24 24" fill="none" xmlns="http://www.w3.org/2000/svg">
<path opacity="0.4" d="M12 22C17.5228 22 22 17.5228 22 12C22 6.47715 17.5228 2 12 2C6.47715 2 2 6.47715 2 12C2 17.5228 6.47715 22 12 22Z" fill="#211B2A"/>
<path d="M17.85 13.5296C17.77 13.3496 17.63 13.1996 17.44 13.1196C17.35 13.0796 17.25 13.0596 17.15 13.0596H6.83997C6.42997 13.0596 6.08997 13.3996 6.08997 13.8096C6.08997 14.2196 6.42997 14.5596 6.83997 14.5596H15.34L13.58 16.3196C13.29 16.6096 13.29 17.0896 13.58 17.3796C13.73 17.5296 13.92 17.5996 14.11 17.5996C14.3 17.5996 14.49 17.5296 14.64 17.3796L17.68 14.3396C17.75 14.2696 17.8 14.1896 17.84 14.0996C17.92 13.9196 17.92 13.7096 17.85 13.5296Z" fill="#211B2A"/>
<path d="M17.15 9.43009H8.64997L10.41 7.67011C10.7 7.38011 10.7 6.90008 10.41 6.61008C10.12 6.32008 9.63998 6.32008 9.34998 6.61008L6.30997 9.65009C6.23997 9.72009 6.18997 9.80011 6.14997 9.89011C6.06997 10.0701 6.06997 10.2801 6.14997 10.4601C6.22997 10.6401 6.36997 10.7901 6.55997 10.8701C6.64997 10.9101 6.74998 10.9301 6.84998 10.9301H17.16C17.57 10.9301 17.91 10.5901 17.91 10.1801C17.91 9.77009 17.57 9.43009 17.15 9.43009Z" fill="#211B2A"/>
</svg>
