<svg width="24" height="24" viewBox="0 0 24 24" fill="none" xmlns="http://www.w3.org/2000/svg">
<path d="M15 22.75H9C3.57 22.75 1.25 20.43 1.25 15V9C1.25 3.57 3.57 1.25 9 1.25H15C20.43 1.25 22.75 3.57 22.75 9V15C22.75 20.43 20.43 22.75 15 22.75ZM9 2.75C4.39 2.75 2.75 4.39 2.75 9V15C2.75 19.61 4.39 21.25 9 21.25H15C19.61 21.25 21.25 19.61 21.25 15V9C21.25 4.39 19.61 2.75 15 2.75H9Z" fill="#211B2A"/>
<path d="M12 14.9103C11.81 14.9103 11.62 14.8403 11.47 14.6903L7.94003 11.1603C7.65003 10.8703 7.65003 10.3903 7.94003 10.1003C8.23003 9.81031 8.71003 9.81031 9.00003 10.1003L12 13.1003L15 10.1003C15.29 9.81031 15.77 9.81031 16.06 10.1003C16.35 10.3903 16.35 10.8703 16.06 11.1603L12.53 14.6903C12.38 14.8403 12.19 14.9103 12 14.9103Z" fill="#211B2A"/>
</svg>
