<svg width="24" height="24" viewBox="0 0 24 24" fill="none" xmlns="http://www.w3.org/2000/svg">
<path d="M9.01 21.2497C8.82 21.2497 8.63 21.1797 8.48 21.0297L3.47 16.0197C3.18 15.7297 3.18 15.2497 3.47 14.9597C3.76 14.6697 4.24 14.6697 4.53 14.9597L9.54 19.9697C9.83 20.2597 9.83 20.7397 9.54 21.0297C9.39 21.1697 9.2 21.2497 9.01 21.2497Z" fill="#211B2A"/>
<path d="M9.01001 21.25C8.60001 21.25 8.26001 20.91 8.26001 20.5V3.5C8.26001 3.09 8.60001 2.75 9.01001 2.75C9.42001 2.75 9.76001 3.09 9.76001 3.5V20.5C9.76001 20.91 9.42001 21.25 9.01001 21.25Z" fill="#211B2A"/>
<path d="M20.01 9.26043C19.82 9.26043 19.63 9.19043 19.48 9.04043L14.47 4.03043C14.18 3.74043 14.18 3.26043 14.47 2.97043C14.76 2.68043 15.24 2.68043 15.53 2.97043L20.54 7.98043C20.83 8.27043 20.83 8.75043 20.54 9.04043C20.39 9.19043 20.2 9.26043 20.01 9.26043Z" fill="#211B2A"/>
<path d="M14.99 21.25C14.58 21.25 14.24 20.91 14.24 20.5V3.5C14.24 3.09 14.58 2.75 14.99 2.75C15.4 2.75 15.74 3.09 15.74 3.5V20.5C15.74 20.91 15.41 21.25 14.99 21.25Z" fill="#211B2A"/>
</svg>
