<svg width="24" height="24" viewBox="0 0 24 24" fill="none" xmlns="http://www.w3.org/2000/svg">
<path d="M16.8 9H12.75V15.25C12.75 15.66 12.41 16 12 16C11.59 16 11.25 15.66 11.25 15.25V9H7.2C4 9 2 11 2 14.2V16.79C2 20 4 22 7.2 22H16.79C19.99 22 21.99 20 21.99 16.8V14.2C22 11 20 9 16.8 9Z" fill="#211B2A"/>
<path d="M12.75 4.56043L14.82 6.63043C14.97 6.78043 15.16 6.85043 15.35 6.85043C15.54 6.85043 15.73 6.78043 15.88 6.63043C16.17 6.34043 16.17 5.86043 15.88 5.57043L12.53 2.22043C12.24 1.93043 11.76 1.93043 11.47 2.22043L8.12 5.57043C7.83 5.86043 7.83 6.34043 8.12 6.63043C8.41 6.92043 8.89 6.92043 9.18 6.63043L11.25 4.56043V9.00043H12.75V4.56043Z" fill="#211B2A"/>
</svg>
