<svg width="24" height="24" viewBox="0 0 24 24" fill="none" xmlns="http://www.w3.org/2000/svg">
<path d="M21.14 9.90039H12.75V15.3804C12.75 15.7904 12.41 16.1304 12 16.1304C11.59 16.1304 11.25 15.7904 11.25 15.3804V9.90039H2.86C2.38 9.90039 2 10.2804 2 10.7604C2 16.6504 6.11 20.7604 12 20.7604C17.89 20.7604 22 16.6504 22 10.7604C22 10.2804 21.62 9.90039 21.14 9.90039Z" fill="#211B2A"/>
<path d="M12.75 5.79969L14.31 7.35969C14.6 7.64969 15.08 7.64969 15.37 7.35969C15.66 7.06969 15.66 6.58969 15.37 6.29969L12.52 3.45969C12.23 3.16969 11.75 3.16969 11.46 3.45969L8.62002 6.30969C8.48002 6.45969 8.40002 6.64969 8.40002 6.83969C8.40002 7.02969 8.47002 7.21969 8.62002 7.36969C8.91002 7.65969 9.39003 7.65969 9.68003 7.36969L11.24 5.80969V9.89969H12.74V5.79969H12.75Z" fill="#211B2A"/>
</svg>
