<svg width="24" height="24" viewBox="0 0 24 24" fill="none" xmlns="http://www.w3.org/2000/svg">
<path d="M11.68 15.3704C11.49 15.3704 11.3 15.3004 11.15 15.1504C10.86 14.8604 10.86 14.3804 11.15 14.0904L13.18 12.0604L11.15 10.0304C10.86 9.74043 10.86 9.26043 11.15 8.97043C11.44 8.68043 11.92 8.68043 12.21 8.97043L14.77 11.5304C15.06 11.8204 15.06 12.3004 14.77 12.5904L12.21 15.1504C12.07 15.3004 11.87 15.3704 11.68 15.3704Z" fill="#211B2A"/>
<path d="M14.17 12.8096H4C3.59 12.8096 3.25 12.4696 3.25 12.0596C3.25 11.6496 3.59 11.3096 4 11.3096H14.17C14.58 11.3096 14.92 11.6496 14.92 12.0596C14.92 12.4696 14.58 12.8096 14.17 12.8096Z" fill="#211B2A"/>
<path d="M12 20.75C11.59 20.75 11.25 20.41 11.25 20C11.25 19.59 11.59 19.25 12 19.25C16.27 19.25 19.25 16.27 19.25 12C19.25 7.73 16.27 4.75 12 4.75C11.59 4.75 11.25 4.41 11.25 4C11.25 3.59 11.59 3.25 12 3.25C17.15 3.25 20.75 6.85 20.75 12C20.75 17.15 17.15 20.75 12 20.75Z" fill="#211B2A"/>
</svg>
