<svg width="24" height="24" viewBox="0 0 24 24" fill="none" xmlns="http://www.w3.org/2000/svg">
<path d="M17.44 15.3704C17.25 15.3704 17.06 15.3004 16.91 15.1504C16.62 14.8604 16.62 14.3804 16.91 14.0904L18.94 12.0604L16.91 10.0304C16.62 9.74043 16.62 9.26043 16.91 8.97043C17.2 8.68043 17.68 8.68043 17.97 8.97043L20.53 11.5304C20.82 11.8204 20.82 12.3004 20.53 12.5904L17.97 15.1504C17.82 15.3004 17.63 15.3704 17.44 15.3704Z" fill="#211B2A"/>
<path d="M19.93 12.8096H9.76001C9.35001 12.8096 9.01001 12.4696 9.01001 12.0596C9.01001 11.6496 9.35001 11.3096 9.76001 11.3096H19.93C20.34 11.3096 20.68 11.6496 20.68 12.0596C20.68 12.4696 20.34 12.8096 19.93 12.8096Z" fill="#211B2A"/>
<path d="M11.76 20.75C6.61001 20.75 3.01001 17.15 3.01001 12C3.01001 6.85 6.61001 3.25 11.76 3.25C12.17 3.25 12.51 3.59 12.51 4C12.51 4.41 12.17 4.75 11.76 4.75C7.49001 4.75 4.51001 7.73 4.51001 12C4.51001 16.27 7.49001 19.25 11.76 19.25C12.17 19.25 12.51 19.59 12.51 20C12.51 20.41 12.17 20.75 11.76 20.75Z" fill="#211B2A"/>
</svg>
