<svg width="24" height="24" viewBox="0 0 24 24" fill="none" xmlns="http://www.w3.org/2000/svg">
<path d="M5.00002 18.1998C4.80002 18.1998 4.60002 18.0998 4.50002 17.9998C4.20002 17.6998 4.20002 17.1998 4.50002 16.8998L18.5 2.8998C18.8 2.5998 19.3 2.5998 19.6 2.8998C19.9 3.1998 19.9 3.6998 19.6 3.9998L5.60002 17.9998C5.40002 18.1998 5.20002 18.1998 5.00002 18.1998Z" fill="#211B2A"/>
<path d="M15.3 18.1994H5.00001C4.60001 18.1994 4.20001 17.8994 4.20001 17.3994V7.19941C4.20001 6.79941 4.50001 6.39941 5.00001 6.39941C5.50001 6.39941 5.80001 6.69941 5.80001 7.19941V16.6994H15.3C15.7 16.6994 16.1 16.9994 16.1 17.4994C16.1 17.9994 15.7 18.1994 15.3 18.1994Z" fill="#211B2A"/>
<path opacity="0.4" d="M20.5 22.8002H3.50001C3.10001 22.8002 2.70001 22.5002 2.70001 22.0002C2.70001 21.5002 3.00001 21.2002 3.50001 21.2002H20.5C20.9 21.2002 21.3 21.5002 21.3 22.0002C21.3 22.5002 20.9 22.8002 20.5 22.8002Z" fill="#211B2A"/>
</svg>
