<svg width="24" height="24" viewBox="0 0 24 24" fill="none" xmlns="http://www.w3.org/2000/svg">
<path d="M17.42 4.40946H5.38998L7.26996 2.52951C7.55996 2.23951 7.55996 1.75945 7.26996 1.46945C6.97996 1.17945 6.49996 1.17945 6.20996 1.46945L3.04996 4.62949C2.97996 4.69949 2.92998 4.77948 2.88998 4.86948C2.84998 4.95948 2.82996 5.05946 2.82996 5.15946C2.82996 5.25946 2.84998 5.35949 2.88998 5.44949C2.92998 5.53949 2.97996 5.61948 3.04996 5.68949L6.20996 8.84946C6.35996 8.99946 6.54996 9.06949 6.73996 9.06949C6.92996 9.06949 7.11996 8.99946 7.26996 8.84946C7.55996 8.55946 7.55996 8.07946 7.26996 7.78946L5.38998 5.90946H17.42C18.66 5.90946 19.67 6.91946 19.67 8.15946V11.4795C19.67 11.8895 20.01 12.2295 20.42 12.2295C20.83 12.2295 21.17 11.8895 21.17 11.4795V8.15946C21.17 6.08946 19.49 4.40946 17.42 4.40946Z" fill="#211B2A"/>
<path opacity="0.4" d="M21.17 18.8395C21.17 18.7395 21.15 18.6395 21.11 18.5495C21.07 18.4595 21.02 18.3795 20.95 18.3095L17.79 15.1495C17.5 14.8595 17.02 14.8595 16.73 15.1495C16.44 15.4395 16.44 15.9195 16.73 16.2095L18.61 18.0895H6.57996C5.33996 18.0895 4.32996 17.0795 4.32996 15.8395V12.5195C4.32996 12.1095 3.98996 11.7695 3.57996 11.7695C3.16996 11.7695 2.82996 12.1095 2.82996 12.5195V15.8395C2.82996 17.9095 4.50996 19.5895 6.57996 19.5895H18.61L16.73 21.4695C16.44 21.7595 16.44 22.2395 16.73 22.5295C16.88 22.6795 17.07 22.7495 17.26 22.7495C17.45 22.7495 17.64 22.6795 17.79 22.5295L20.95 19.3695C21.02 19.2995 21.07 19.2195 21.11 19.1295C21.15 19.0395 21.17 18.9395 21.17 18.8395Z" fill="#211B2A"/>
</svg>
