<svg width="24" height="24" viewBox="0 0 24 24" fill="none" xmlns="http://www.w3.org/2000/svg">
<path d="M17.42 4.41043H5.38996L7.26996 2.53043C7.55996 2.24043 7.55996 1.76043 7.26996 1.47043C6.97996 1.18043 6.49996 1.18043 6.20996 1.47043L3.04996 4.63043C2.97996 4.70043 2.92996 4.78043 2.88996 4.87043C2.84996 4.96043 2.82996 5.06043 2.82996 5.16043C2.82996 5.26043 2.84996 5.36043 2.88996 5.45043C2.92996 5.54043 2.97996 5.62043 3.04996 5.69043L6.20996 8.85043C6.35996 9.00043 6.54996 9.07043 6.73996 9.07043C6.92996 9.07043 7.11996 9.00043 7.26996 8.85043C7.55996 8.56043 7.55996 8.08043 7.26996 7.79043L5.38996 5.91043H17.42C18.66 5.91043 19.67 6.92043 19.67 8.16043V11.4804C19.67 11.8904 20.01 12.2304 20.42 12.2304C20.83 12.2304 21.17 11.8904 21.17 11.4804V8.16043C21.17 6.09043 19.49 4.41043 17.42 4.41043Z" fill="#211B2A"/>
<path d="M21.17 18.8395C21.17 18.7395 21.15 18.6395 21.11 18.5495C21.07 18.4595 21.02 18.3795 20.95 18.3095L17.79 15.1495C17.5 14.8595 17.02 14.8595 16.73 15.1495C16.44 15.4395 16.44 15.9195 16.73 16.2095L18.61 18.0895H6.57996C5.33996 18.0895 4.32996 17.0795 4.32996 15.8395V12.5195C4.32996 12.1095 3.98996 11.7695 3.57996 11.7695C3.16996 11.7695 2.82996 12.1095 2.82996 12.5195V15.8395C2.82996 17.9095 4.50996 19.5895 6.57996 19.5895H18.61L16.73 21.4695C16.44 21.7595 16.44 22.2395 16.73 22.5295C16.88 22.6795 17.07 22.7495 17.26 22.7495C17.45 22.7495 17.64 22.6795 17.79 22.5295L20.95 19.3695C21.02 19.2995 21.07 19.2195 21.11 19.1295C21.15 19.0395 21.17 18.9395 21.17 18.8395Z" fill="#211B2A"/>
</svg>
