<svg width="24" height="24" viewBox="0 0 24 24" fill="none" xmlns="http://www.w3.org/2000/svg">
<path d="M12.0001 22.7496C6.80008 22.7496 2.58008 18.5196 2.58008 13.3296C2.58008 11.4596 3.13008 9.64965 4.17008 8.08965C4.40008 7.74965 4.87008 7.64965 5.21008 7.87965C5.55008 8.10965 5.65008 8.57965 5.42008 8.91965C4.55008 10.2196 4.09008 11.7496 4.09008 13.3196C4.09008 17.6896 7.64008 21.2396 12.0101 21.2396C16.3801 21.2396 19.9301 17.6896 19.9301 13.3196C19.9301 8.94965 16.3701 5.39965 12.0001 5.39965C11.0801 5.39965 10.1801 5.52965 9.33008 5.78965C8.93008 5.90965 8.51008 5.68965 8.39008 5.28965C8.27008 4.88965 8.49008 4.46965 8.89008 4.34965C9.89008 4.04965 10.9301 3.88965 12.0001 3.88965C17.2001 3.88965 21.4201 8.11965 21.4201 13.3096C21.4201 18.4996 17.2001 22.7496 12.0001 22.7496Z" fill="#211B2A"/>
<path d="M7.86999 6.07012C7.69999 6.07012 7.51999 6.01012 7.37999 5.89012C7.05999 5.61012 7.02999 5.14012 7.29999 4.83012L10.19 1.51012C10.46 1.20012 10.94 1.16012 11.25 1.44012C11.56 1.71012 11.59 2.19012 11.32 2.50012L8.42999 5.81012C8.27999 5.98012 8.06999 6.07012 7.86999 6.07012Z" fill="#211B2A"/>
<path d="M11.24 8.53013C11.09 8.53013 10.93 8.48013 10.8 8.39013L7.41995 5.92013C7.08995 5.68013 7.01995 5.21013 7.25995 4.88013C7.49995 4.54013 7.96995 4.47013 8.30995 4.71013L11.68 7.17013C12.01 7.41013 12.09 7.88013 11.84 8.22013C11.7 8.43013 11.47 8.53013 11.24 8.53013Z" fill="#211B2A"/>
</svg>
