<svg width="24" height="24" viewBox="0 0 24 24" fill="none" xmlns="http://www.w3.org/2000/svg">
<path opacity="0.4" d="M17.95 7.70961L17.81 7.62961L16.42 6.82961L13.55 5.16961C12.67 4.65961 11.33 4.65961 10.45 5.16961L7.58001 6.82961L6.19001 7.63961L6.01001 7.73961C4.22001 8.93961 4.10001 9.15961 4.10001 11.0896V15.6996C4.10001 17.6296 4.22001 17.8496 6.05001 19.0796L10.45 21.6196C10.89 21.8796 11.44 21.9996 12 21.9996C12.55 21.9996 13.11 21.8796 13.55 21.6196L17.99 19.0496C19.78 17.8496 19.9 17.6296 19.9 15.6996V11.0896C19.9 9.15961 19.78 8.93961 17.95 7.70961Z" fill="#211B2A"/>
<path d="M6.19 7.64L7.58 6.83L10.32 5.25L10.45 5.17C11.33 4.66 12.67 4.66 13.55 5.17L13.68 5.25L16.42 6.83L17.81 7.63V5.49C17.81 3.24 16.57 2 14.32 2H9.67C7.42 2 6.19 3.24 6.19 5.49V7.64Z" fill="#211B2A"/>
<path d="M14.84 13.3403L14.22 14.1003C14.12 14.2103 14.05 14.4303 14.06 14.5803L14.12 15.5603C14.16 16.1603 13.73 16.4703 13.17 16.2503L12.26 15.8903C12.12 15.8403 11.88 15.8403 11.74 15.8903L10.83 16.2503C10.27 16.4703 9.83999 16.1603 9.87999 15.5603L9.93999 14.5803C9.94999 14.4303 9.87999 14.2103 9.77999 14.1003L9.15999 13.3403C8.76999 12.8803 8.93999 12.3703 9.51999 12.2203L10.47 11.9803C10.62 11.9403 10.8 11.8003 10.88 11.6703L11.41 10.8503C11.74 10.3403 12.26 10.3403 12.59 10.8503L13.12 11.6703C13.2 11.8003 13.38 11.9403 13.53 11.9803L14.48 12.2203C15.06 12.3703 15.23 12.8803 14.84 13.3403Z" fill="#211B2A"/>
</svg>
