<svg width="24" height="24" viewBox="0 0 24 24" fill="none" xmlns="http://www.w3.org/2000/svg">
<path d="M15 22.75H9C3.57 22.75 1.25 20.43 1.25 15V9C1.25 3.57 3.57 1.25 9 1.25H15C20.43 1.25 22.75 3.57 22.75 9V15C22.75 20.43 20.43 22.75 15 22.75ZM9 2.75C4.39 2.75 2.75 4.39 2.75 9V15C2.75 19.61 4.39 21.25 9 21.25H15C19.61 21.25 21.25 19.61 21.25 15V9C21.25 4.39 19.61 2.75 15 2.75H9Z" fill="#211B2A"/>
<path d="M8.68 15.3304C8.26 15.3304 7.87 15.2304 7.53 15.0404C6.7 14.5704 6.25 13.6404 6.25 12.4204V2.44043C6.25 2.03043 6.59 1.69043 7 1.69043C7.41 1.69043 7.75 2.03043 7.75 2.44043V12.4204C7.75 13.0704 7.94 13.5504 8.27 13.7304C8.62 13.9304 9.16 13.8304 9.75 13.4804L11.07 12.6904C11.61 12.3704 12.38 12.3704 12.92 12.6904L14.24 13.4804C14.84 13.8404 15.38 13.9304 15.72 13.7304C16.05 13.5404 16.24 13.0604 16.24 12.4204V2.44043C16.24 2.03043 16.58 1.69043 16.99 1.69043C17.4 1.69043 17.74 2.03043 17.74 2.44043V12.4204C17.74 13.6404 17.29 14.5704 16.46 15.0404C15.63 15.5104 14.54 15.4104 13.47 14.7704L12.15 13.9804C12.09 13.9404 11.9 13.9404 11.84 13.9804L10.52 14.7704C9.9 15.1404 9.26 15.3304 8.68 15.3304Z" fill="#211B2A"/>
<path d="M15 22.75H9C3.57 22.75 1.25 20.43 1.25 15V9C1.25 3.57 3.57 1.25 9 1.25H15C20.43 1.25 22.75 3.57 22.75 9V15C22.75 20.43 20.43 22.75 15 22.75ZM9 2.75C4.39 2.75 2.75 4.39 2.75 9V15C2.75 19.61 4.39 21.25 9 21.25H15C19.61 21.25 21.25 19.61 21.25 15V9C21.25 4.39 19.61 2.75 15 2.75H9Z" fill="#211B2A"/>
<path d="M8.68 15.3304C8.26 15.3304 7.87 15.2304 7.53 15.0404C6.7 14.5704 6.25 13.6404 6.25 12.4204V2.44043C6.25 2.03043 6.59 1.69043 7 1.69043C7.41 1.69043 7.75 2.03043 7.75 2.44043V12.4204C7.75 13.0704 7.94 13.5504 8.27 13.7304C8.62 13.9304 9.16 13.8304 9.75 13.4804L11.07 12.6904C11.61 12.3704 12.38 12.3704 12.92 12.6904L14.24 13.4804C14.84 13.8404 15.38 13.9304 15.72 13.7304C16.05 13.5404 16.24 13.0604 16.24 12.4204V2.44043C16.24 2.03043 16.58 1.69043 16.99 1.69043C17.4 1.69043 17.74 2.03043 17.74 2.44043V12.4204C17.74 13.6404 17.29 14.5704 16.46 15.0404C15.63 15.5104 14.54 15.4104 13.47 14.7704L12.15 13.9804C12.09 13.9404 11.9 13.9404 11.84 13.9804L10.52 14.7704C9.9 15.1404 9.26 15.3304 8.68 15.3304Z" fill="#211B2A"/>
</svg>
