<svg width="24" height="24" viewBox="0 0 24 24" fill="none" xmlns="http://www.w3.org/2000/svg">
<path d="M21.09 6.97953C20.24 6.03953 18.82 5.56953 16.76 5.56953H16.52V5.52953C16.52 3.84953 16.52 1.76953 12.76 1.76953H11.24C7.47998 1.76953 7.47998 3.85953 7.47998 5.52953V5.57953H7.23998C5.16998 5.57953 3.75998 6.04953 2.90998 6.98953C1.91998 8.08953 1.94998 9.56953 2.04998 10.5795L2.05998 10.6495L2.15998 11.6995C2.16998 11.7095 2.18998 11.7295 2.20998 11.7395C2.53998 11.9595 2.87998 12.1795 3.23998 12.3795C3.37998 12.4695 3.52998 12.5495 3.67998 12.6295C5.38998 13.5695 7.26998 14.1995 9.17998 14.5095C9.26998 15.4495 9.67998 16.5495 11.87 16.5495C14.06 16.5495 14.49 15.4595 14.56 14.4895C16.6 14.1595 18.57 13.4495 20.35 12.4095C20.41 12.3795 20.45 12.3495 20.5 12.3195C20.96 12.0595 21.39 11.7795 21.81 11.4695C21.83 11.4595 21.85 11.4395 21.86 11.4195L21.9 11.0595L21.95 10.5895C21.96 10.5295 21.96 10.4795 21.97 10.4095C22.05 9.39953 22.03 8.01953 21.09 6.97953ZM13.09 13.8295C13.09 14.8895 13.09 15.0495 11.86 15.0495C10.63 15.0495 10.63 14.8595 10.63 13.8395V12.5795H13.09V13.8295ZM8.90998 5.56953V5.52953C8.90998 3.82953 8.90998 3.19953 11.24 3.19953H12.76C15.09 3.19953 15.09 3.83953 15.09 5.52953V5.57953H8.90998V5.56953Z" fill="#211B2A"/>
<path opacity="0.4" d="M20.5 12.3004C20.45 12.3304 20.4 12.3604 20.35 12.3904C18.57 13.4304 16.6 14.1304 14.56 14.4704C14.48 15.4304 14.06 16.5304 11.87 16.5304C9.67997 16.5304 9.25997 15.4404 9.17997 14.4904C7.26997 14.1904 5.38997 13.5604 3.67997 12.6104C3.52997 12.5304 3.37997 12.4504 3.23997 12.3604C2.87997 12.1604 2.53997 11.9404 2.20997 11.7204C2.18997 11.7104 2.16997 11.6904 2.15997 11.6804L2.76997 18.1904C2.97997 20.1804 3.79997 22.2304 8.19997 22.2304H15.82C20.22 22.2304 21.04 20.1804 21.25 18.1804L21.88 11.4004C21.87 11.4204 21.85 11.4404 21.83 11.4504C21.4 11.7604 20.96 12.0504 20.5 12.3004Z" fill="#211B2A"/>
</svg>
