<svg width="24" height="24" viewBox="0 0 24 24" fill="none" xmlns="http://www.w3.org/2000/svg">
<path d="M21.09 6.97953C20.24 6.03953 18.82 5.56953 16.76 5.56953H16.52V5.52953C16.52 3.84953 16.52 1.76953 12.76 1.76953H11.24C7.47998 1.76953 7.47998 3.85953 7.47998 5.52953V5.57953H7.23998C5.16998 5.57953 3.75998 6.04953 2.90998 6.98953C1.91998 8.08953 1.94998 9.56953 2.04998 10.5795L2.05998 10.6495L2.13743 11.4628C2.1517 11.6126 2.23236 11.7479 2.35825 11.8303C2.59806 11.9872 2.9994 12.2459 3.23998 12.3795C3.37998 12.4695 3.52998 12.5495 3.67998 12.6295C5.38998 13.5695 7.26998 14.1995 9.17998 14.5095C9.26998 15.4495 9.67998 16.5495 11.87 16.5495C14.06 16.5495 14.49 15.4595 14.56 14.4895C16.6 14.1595 18.57 13.4495 20.35 12.4095C20.41 12.3795 20.45 12.3495 20.5 12.3195C20.8967 12.0953 21.3083 11.819 21.6834 11.5484C21.7965 11.4668 21.8687 11.3408 21.8841 11.2023L21.9 11.0595L21.95 10.5895C21.96 10.5295 21.96 10.4795 21.97 10.4095C22.05 9.39953 22.03 8.01953 21.09 6.97953ZM13.09 13.8295C13.09 14.8895 13.09 15.0495 11.86 15.0495C10.63 15.0495 10.63 14.8595 10.63 13.8395V12.5795H13.09V13.8295ZM8.90998 5.56953V5.52953C8.90998 3.82953 8.90998 3.19953 11.24 3.19953H12.76C15.09 3.19953 15.09 3.83953 15.09 5.52953V5.57953H8.90998V5.56953Z" fill="#211B2A"/>
<path d="M20.8735 13.7339C21.2271 13.5656 21.6344 13.8459 21.599 14.2359L21.24 18.1897C21.03 20.1897 20.21 22.2297 15.81 22.2297H8.19003C3.79003 22.2297 2.97003 20.1897 2.76003 18.1997L2.41932 14.4519C2.38427 14.0664 2.78223 13.7865 3.13487 13.946C4.27428 14.4615 6.37742 15.3761 7.6766 15.7164C7.8409 15.7594 7.9738 15.877 8.04574 16.0309C8.65271 17.329 9.96914 18.0197 11.87 18.0197C13.7521 18.0197 15.0852 17.3024 15.6942 16.0011C15.7662 15.8471 15.8992 15.7296 16.0636 15.6863C17.4432 15.3233 19.6818 14.301 20.8735 13.7339Z" fill="#211B2A"/>
</svg>
