<svg width="24" height="24" viewBox="0 0 24 24" fill="none" xmlns="http://www.w3.org/2000/svg">
<path d="M13.6 14.5104L13.07 13.9804L13.57 13.4804C13.86 13.1904 13.86 12.7104 13.57 12.4204C13.28 12.1304 12.8 12.1304 12.51 12.4204L12.01 12.9204L11.48 12.3904C11.19 12.1004 10.71 12.1004 10.42 12.3904C10.13 12.6804 10.13 13.1604 10.42 13.4504L10.95 13.9804L10.4 14.5304C10.11 14.8204 10.11 15.3004 10.4 15.5904C10.55 15.7404 10.74 15.8104 10.93 15.8104C11.12 15.8104 11.31 15.7404 11.46 15.5904L12.01 15.0404L12.54 15.5704C12.69 15.7204 12.88 15.7904 13.07 15.7904C13.26 15.7904 13.45 15.7204 13.6 15.5704C13.89 15.2804 13.89 14.8104 13.6 14.5104Z" fill="#211B2A"/>
<path opacity="0.4" d="M21.85 11.4099L21.23 18.1899C21.02 20.1899 20.2 22.2299 15.8 22.2299H8.18002C3.78002 22.2299 2.96002 20.1899 2.76002 18.1999L2.15002 11.6899C2.16002 11.6999 2.17002 11.7099 2.19002 11.7199C2.53002 11.9399 2.86002 12.1599 3.22002 12.3599C3.36002 12.4499 3.51002 12.5299 3.66002 12.6099C4.79002 13.2299 6.00002 13.7199 7.25002 14.0599C7.75002 14.2099 8.26002 14.3199 8.78002 14.4099C8.98002 16.0099 10.35 17.2499 12 17.2499C13.67 17.2499 15.05 15.9799 15.23 14.3499V14.3399C15.74 14.2399 16.25 14.1099 16.75 13.9599C18 13.5699 19.21 13.0499 20.34 12.3899C20.4 12.3599 20.45 12.3299 20.49 12.2999C20.95 12.0499 21.39 11.7599 21.81 11.4599C21.83 11.4499 21.84 11.4299 21.85 11.4099Z" fill="#211B2A"/>
<path d="M21.09 6.97953C20.24 6.03953 18.83 5.56953 16.76 5.56953H16.52V5.52953C16.52 3.84953 16.52 1.76953 12.76 1.76953H11.24C7.48004 1.76953 7.48004 3.84953 7.48004 5.52953V5.56953H7.24004C5.17004 5.56953 3.75004 6.03953 2.91004 6.97953C1.92004 8.08953 1.95004 9.55953 2.05004 10.5695L2.06004 10.6395L2.15004 11.6895C2.16004 11.6995 2.18004 11.7095 2.20004 11.7195C2.54004 11.9395 2.87004 12.1595 3.23004 12.3595C3.37004 12.4495 3.52004 12.5295 3.67004 12.6095C4.80004 13.2295 6.01004 13.7195 7.25004 14.0595C7.28004 16.6495 9.40004 18.7495 12 18.7495C14.62 18.7495 16.75 16.6195 16.75 13.9995V13.9595C18.01 13.5795 19.22 13.0495 20.35 12.3895C20.41 12.3595 20.45 12.3295 20.5 12.2995C20.96 12.0495 21.4 11.7595 21.82 11.4595C21.83 11.4495 21.85 11.4295 21.86 11.4095L21.9 11.0495L21.95 10.5795C21.96 10.5195 21.96 10.4695 21.97 10.3995C22.05 9.39953 22.03 8.01953 21.09 6.97953ZM8.91004 5.52953C8.91004 3.82953 8.91004 3.18953 11.24 3.18953H12.76C15.09 3.18953 15.09 3.82953 15.09 5.52953V5.56953H8.91004V5.52953ZM12 17.2495C10.35 17.2495 8.98004 16.0095 8.78004 14.4095C8.76004 14.2795 8.75004 14.1395 8.75004 13.9995C8.75004 12.2095 10.21 10.7495 12 10.7495C13.79 10.7495 15.25 12.2095 15.25 13.9995C15.25 14.1195 15.24 14.2295 15.23 14.3395V14.3495C15.05 15.9795 13.67 17.2495 12 17.2495Z" fill="#211B2A"/>
</svg>
