<svg width="24" height="24" viewBox="0 0 24 24" fill="none" xmlns="http://www.w3.org/2000/svg">
<path d="M14 22.75H10C4.57 22.75 2.25 20.43 2.25 15V9C2.25 3.57 4.57 1.25 10 1.25H14C19.43 1.25 21.75 3.57 21.75 9V15C21.75 20.43 19.43 22.75 14 22.75ZM10 2.75C5.39 2.75 3.75 4.39 3.75 9V15C3.75 19.61 5.39 21.25 10 21.25H14C18.61 21.25 20.25 19.61 20.25 15V9C20.25 4.39 18.61 2.75 14 2.75H10Z" fill="#211B2A"/>
<path d="M15 10.8301H9C7.76 10.8301 6.75 9.82008 6.75 8.58008V7.58008C6.75 6.34008 7.76 5.33008 9 5.33008H15C16.24 5.33008 17.25 6.34008 17.25 7.58008V8.58008C17.25 9.82008 16.24 10.8301 15 10.8301ZM9 6.83008C8.59 6.83008 8.25 7.17008 8.25 7.58008V8.58008C8.25 8.99008 8.59 9.33008 9 9.33008H15C15.41 9.33008 15.75 8.99008 15.75 8.58008V7.58008C15.75 7.17008 15.41 6.83008 15 6.83008H9Z" fill="#211B2A"/>
<path d="M8.15 14.9201C8.02 14.9201 7.89 14.8901 7.77 14.8401C7.65 14.7901 7.54 14.7201 7.45 14.6301C7.26 14.4401 7.16 14.1901 7.16 13.9201C7.16 13.7901 7.18 13.6601 7.23 13.5401C7.28 13.4101 7.35 13.3101 7.45 13.2101C7.49 13.1701 7.54 13.1201 7.6 13.0901C7.65 13.0501 7.71 13.0201 7.77 13.0001C7.83 12.9701 7.9 12.9501 7.96 12.9401C8.28 12.8701 8.63 12.9801 8.86 13.2101C8.95 13.3001 9.03 13.4101 9.08 13.5401C9.13 13.6601 9.16 13.7901 9.16 13.9201C9.16 14.1901 9.05 14.4401 8.86 14.6301C8.67 14.8201 8.42 14.9201 8.15 14.9201Z" fill="#211B2A"/>
<path d="M12.16 14.9199C11.89 14.9199 11.64 14.8199 11.45 14.6299C11.26 14.4399 11.16 14.1899 11.16 13.9199C11.16 13.7899 11.18 13.6599 11.23 13.5399C11.28 13.4099 11.35 13.3099 11.45 13.2099C11.49 13.1699 11.54 13.1199 11.6 13.0899C11.65 13.0499 11.71 13.0199 11.77 12.9999C11.83 12.9699 11.9 12.9499 11.96 12.9399C12.15 12.8999 12.35 12.9199 12.54 12.9999C12.66 13.0499 12.77 13.1199 12.86 13.2099C12.95 13.3099 13.03 13.4099 13.08 13.5399C13.13 13.6599 13.16 13.7899 13.16 13.9199C13.16 14.1899 13.05 14.4399 12.86 14.6299C12.67 14.8199 12.42 14.9199 12.16 14.9199Z" fill="#211B2A"/>
<path d="M16.15 14.9201C16.02 14.9201 15.89 14.8901 15.77 14.8401C15.65 14.7901 15.54 14.7201 15.45 14.6301C15.35 14.5301 15.28 14.4201 15.23 14.3001C15.18 14.1801 15.16 14.0501 15.16 13.9201C15.16 13.7901 15.18 13.6601 15.23 13.5401C15.28 13.4101 15.35 13.3101 15.45 13.2101C15.82 12.8401 16.49 12.8401 16.86 13.2101C17.05 13.4001 17.16 13.6601 17.16 13.9201C17.16 14.1901 17.05 14.4401 16.86 14.6301C16.68 14.8101 16.43 14.9201 16.15 14.9201Z" fill="#211B2A"/>
<path d="M8.15999 18.9199C7.88999 18.9199 7.63999 18.8199 7.44999 18.6299C7.25999 18.4399 7.14999 18.1899 7.14999 17.9199C7.14999 17.6599 7.25999 17.3999 7.44999 17.2099C7.48999 17.1699 7.54999 17.1199 7.59999 17.0899C7.64999 17.0499 7.70999 17.0199 7.76999 16.9999C7.82999 16.9699 7.89999 16.9499 7.95999 16.9399C8.28999 16.8799 8.62999 16.9799 8.85999 17.2099C8.90999 17.2599 8.94999 17.3099 8.98999 17.3599C9.01999 17.4199 9.04999 17.4799 9.07999 17.5399C9.09999 17.5999 9.11999 17.6599 9.13999 17.7199C9.14999 17.7899 9.15999 17.8499 9.15999 17.9199C9.15999 18.1899 9.04999 18.4399 8.85999 18.6299C8.66999 18.8199 8.41999 18.9199 8.15999 18.9199Z" fill="#211B2A"/>
<path d="M12.16 18.9199C11.89 18.9199 11.64 18.8199 11.45 18.6299C11.26 18.4399 11.15 18.1899 11.15 17.9199C11.15 17.6599 11.26 17.3999 11.45 17.2099C11.68 16.9799 12.03 16.8799 12.35 16.9399C12.41 16.9499 12.48 16.9699 12.54 16.9999C12.6 17.0199 12.66 17.0499 12.71 17.0899C12.76 17.1199 12.81 17.1699 12.86 17.2099C13.05 17.3999 13.15 17.6599 13.15 17.9199C13.15 18.1899 13.05 18.4399 12.86 18.6299C12.67 18.8199 12.42 18.9199 12.16 18.9199Z" fill="#211B2A"/>
<path d="M16.15 18.92C15.89 18.92 15.64 18.82 15.45 18.63C15.26 18.44 15.16 18.19 15.16 17.92C15.16 17.66 15.26 17.4 15.45 17.21C15.54 17.12 15.65 17.05 15.77 17C16.14 16.85 16.59 16.93 16.86 17.21C17.05 17.4 17.15 17.66 17.15 17.92C17.15 18.19 17.05 18.44 16.86 18.63C16.77 18.72 16.66 18.79 16.54 18.84C16.42 18.89 16.29 18.92 16.15 18.92Z" fill="#211B2A"/>
</svg>
