<svg width="24" height="24" viewBox="0 0 24 24" fill="none" xmlns="http://www.w3.org/2000/svg">
<path opacity="0.4" d="M8 22H16C18.76 22 21 19.76 21 17V7C21 4.24 18.76 2 16 2H8C5.24 2 3 4.24 3 7V17C3 19.76 5.24 22 8 22Z" fill="#211B2A"/>
<path d="M15 5.70996H9C7.97 5.70996 7.12 6.54996 7.12 7.58996V8.58996C7.12 9.61996 7.96 10.47 9 10.47H15C16.03 10.47 16.88 9.62996 16.88 8.58996V7.58996C16.88 6.54996 16.04 5.70996 15 5.70996Z" fill="#211B2A"/>
<path d="M8.15999 14.9201C8.01999 14.9201 7.88999 14.8901 7.76999 14.8401C7.64999 14.7901 7.53999 14.7201 7.44999 14.6301C7.25999 14.4401 7.14999 14.1901 7.14999 13.9201C7.14999 13.7901 7.17999 13.6601 7.22999 13.5401C7.27999 13.4101 7.34999 13.3101 7.44999 13.2101C7.67999 12.9801 8.02999 12.8701 8.34999 12.9401C8.40999 12.9501 8.47999 12.9701 8.53999 13.0001C8.59999 13.0201 8.65999 13.0501 8.70999 13.0901C8.76999 13.1201 8.81999 13.1701 8.85999 13.2101C8.94999 13.3101 9.02999 13.4101 9.07999 13.5401C9.12999 13.6601 9.14999 13.7901 9.14999 13.9201C9.14999 14.1901 9.04999 14.4401 8.85999 14.6301C8.66999 14.8201 8.41999 14.9201 8.15999 14.9201Z" fill="#211B2A"/>
<path d="M12.15 14.9201C11.89 14.9201 11.64 14.8201 11.45 14.6301C11.26 14.4401 11.15 14.1901 11.15 13.9201C11.15 13.6601 11.26 13.4001 11.45 13.2101C11.82 12.8401 12.49 12.8401 12.86 13.2101C12.95 13.3101 13.03 13.4101 13.08 13.5401C13.13 13.6601 13.15 13.7901 13.15 13.9201C13.15 14.1901 13.05 14.4401 12.86 14.6301C12.67 14.8201 12.42 14.9201 12.15 14.9201Z" fill="#211B2A"/>
<path d="M16.15 14.9201C15.89 14.9201 15.64 14.8201 15.45 14.6301C15.26 14.4401 15.15 14.1901 15.15 13.9201C15.15 13.6601 15.26 13.4001 15.45 13.2101C15.82 12.8401 16.49 12.8401 16.86 13.2101C17.05 13.4001 17.16 13.6601 17.16 13.9201C17.16 14.0501 17.13 14.1801 17.08 14.3001C17.03 14.4201 16.96 14.5301 16.86 14.6301C16.67 14.8201 16.42 14.9201 16.15 14.9201Z" fill="#211B2A"/>
<path d="M8.15999 18.92C7.88999 18.92 7.63999 18.82 7.44999 18.63C7.25999 18.44 7.14999 18.19 7.14999 17.92C7.14999 17.66 7.25999 17.4 7.44999 17.21C7.53999 17.12 7.64999 17.05 7.76999 17C8.01999 16.9 8.28999 16.9 8.53999 17C8.59999 17.02 8.65999 17.05 8.70999 17.09C8.76999 17.12 8.81999 17.17 8.85999 17.21C9.04999 17.4 9.15999 17.66 9.15999 17.92C9.15999 18.19 9.04999 18.44 8.85999 18.63C8.66999 18.82 8.41999 18.92 8.15999 18.92Z" fill="#211B2A"/>
<path d="M12.15 18.92C11.89 18.92 11.64 18.82 11.45 18.63C11.26 18.44 11.15 18.19 11.15 17.92C11.15 17.85 11.16 17.79 11.17 17.72C11.19 17.66 11.21 17.6 11.23 17.54C11.26 17.48 11.29 17.42 11.32 17.36C11.36 17.31 11.4 17.26 11.45 17.21C11.54 17.12 11.65 17.05 11.77 17C12.14 16.85 12.58 16.93 12.86 17.21C13.05 17.4 13.15 17.66 13.15 17.92C13.15 18.19 13.05 18.44 12.86 18.63C12.77 18.72 12.66 18.79 12.54 18.84C12.42 18.89 12.29 18.92 12.15 18.92Z" fill="#211B2A"/>
<path d="M16.15 18.92C16.02 18.92 15.89 18.89 15.77 18.84C15.65 18.79 15.54 18.72 15.45 18.63C15.26 18.44 15.16 18.19 15.16 17.92C15.16 17.66 15.26 17.4 15.45 17.21C15.72 16.93 16.17 16.85 16.54 17C16.66 17.05 16.77 17.12 16.86 17.21C17.05 17.4 17.15 17.66 17.15 17.92C17.15 18.19 17.05 18.44 16.86 18.63C16.67 18.82 16.42 18.92 16.15 18.92Z" fill="#211B2A"/>
</svg>
