<svg width="24" height="24" viewBox="0 0 24 24" fill="none" xmlns="http://www.w3.org/2000/svg">
<path d="M13.89 2.8799C17.03 3.3699 18.5 4.6499 18.63 7.1499C18.67 7.7599 18.62 8.4499 18.5 9.2199L17.77 13.9099C17.15 17.8199 15.34 19.1399 11.43 18.5299L6.74001 17.7899C5.39001 17.5799 4.35001 17.2199 3.59001 16.6799C2.14001 15.6699 1.72001 14.0099 2.12001 11.4499L2.86001 6.7599C3.48001 2.8499 5.29001 1.5299 9.20001 2.1399" stroke="#211B2A" stroke-width="1.5" stroke-linecap="round" stroke-linejoin="round"/>
<path d="M20.5 13.4704L19 17.9804C17.75 21.7404 15.75 22.7404 11.99 21.4904L7.48 19.9904C5.21 19.2404 3.95 18.2004 3.59 16.6804C4.35 17.2204 5.39 17.5804 6.74 17.7904L11.43 18.5304C15.34 19.1404 17.15 17.8204 17.77 13.9104L18.5 9.22039C18.62 8.45039 18.67 7.76039 18.63 7.15039C21.02 8.42039 21.54 10.3404 20.5 13.4704Z" stroke="#211B2A" stroke-width="1.5" stroke-linecap="round" stroke-linejoin="round"/>
<path d="M8.24 8.98C9.20098 8.98 9.98 8.20098 9.98 7.24C9.98 6.27902 9.20098 5.5 8.24 5.5C7.27902 5.5 6.5 6.27902 6.5 7.24C6.5 8.20098 7.27902 8.98 8.24 8.98Z" stroke="#211B2A" stroke-width="1.5" stroke-linecap="round" stroke-linejoin="round"/>
</svg>
