<svg width="24" height="24" viewBox="0 0 24 24" fill="none" xmlns="http://www.w3.org/2000/svg">
<path d="M13.89 2.8799L9.20001 2.1399C5.29001 1.5299 3.48001 2.8499 2.86001 6.7599L2.12001 11.4499C1.72001 14.0099 2.14001 15.6699 3.59001 16.6799C4.35001 17.2199 5.39001 17.5799 6.74001 17.7899L11.43 18.5299C15.34 19.1399 17.15 17.8199 17.77 13.9099L18.5 9.2199C18.62 8.4499 18.67 7.7599 18.63 7.1499C18.5 4.6499 17.03 3.3699 13.89 2.8799ZM8.24001 9.3499C7.07001 9.3499 6.12001 8.3999 6.12001 7.2399C6.12001 6.0699 7.07001 5.1199 8.24001 5.1199C9.40001 5.1199 10.35 6.0699 10.35 7.2399C10.35 8.3999 9.40001 9.3499 8.24001 9.3499Z" fill="#211B2A"/>
<path d="M20.5 13.4696L19 17.9796C17.75 21.7396 15.75 22.7396 11.99 21.4896L7.48 19.9896C6.07 19.5196 5.05 18.9396 4.39 18.2096C5.02 18.4596 5.75 18.6496 6.58 18.7796L11.28 19.5196C11.92 19.6196 12.52 19.6696 13.08 19.6696C16.38 19.6696 18.15 17.8896 18.76 14.0596L19.49 9.36957C19.59 8.78957 19.63 8.27957 19.63 7.80957C21.15 9.05957 21.37 10.8396 20.5 13.4696Z" fill="#211B2A"/>
</svg>
