<svg width="24" height="24" viewBox="0 0 24 24" fill="none" xmlns="http://www.w3.org/2000/svg">
<path d="M13.05 19.4203C12.51 19.4203 11.94 19.3703 11.32 19.2703L6.63 18.5303C5.15 18.3003 4.01 17.8903 3.16 17.2903C0.970002 15.7703 1.1 13.1603 1.38 11.3303L2.12 6.6403C2.8 2.34029 5.02 0.730295 9.32 1.4003L14.01 2.1403C16.22 2.4903 19.19 3.3803 19.38 7.1103C19.42 7.7503 19.38 8.4803 19.24 9.3403L18.51 14.0303C17.93 17.7003 16.22 19.4203 13.05 19.4203ZM7.53 2.7503C5.15 2.7503 4.07 3.9603 3.6 6.8803L2.86 11.5703C2.4 14.5203 3.24 15.5203 4.02 16.0703C4.68 16.5403 5.61 16.8603 6.86 17.0503L11.55 17.7903C15.04 18.3403 16.48 17.2903 17.03 13.7903L17.76 9.1003C17.88 8.3503 17.92 7.72029 17.88 7.1903V7.18029C17.77 5.0803 16.58 4.0503 13.77 3.6103L9.09 2.8803C8.51 2.7903 8 2.7503 7.53 2.7503Z" fill="#211B2A"/>
<path d="M14.68 22.75C13.83 22.75 12.87 22.57 11.76 22.2L7.24999 20.7C4.67999 19.8499 3.28999 18.6299 2.86999 16.8499C2.79999 16.5499 2.91999 16.2299 3.17999 16.0599C3.43999 15.8899 3.77999 15.8899 4.02999 16.0699C4.68999 16.5399 5.60999 16.8599 6.85999 17.0499L11.55 17.79C15.04 18.34 16.48 17.2899 17.03 13.7899L17.76 9.09995C17.88 8.34995 17.92 7.71995 17.88 7.18995C17.87 6.92995 18 6.66995 18.23 6.51995C18.46 6.36995 18.75 6.35995 18.99 6.48995C21.67 7.91995 22.38 10.2099 21.22 13.7099L19.72 18.2199C19.01 20.3399 18.08 21.64 16.78 22.29C16.15 22.6 15.46 22.75 14.68 22.75ZM5.72999 18.36C6.20999 18.6799 6.84999 18.99 7.71999 19.28L12.23 20.78C13.95 21.3499 15.18 21.4 16.1 20.95C17.02 20.49 17.72 19.4699 18.29 17.7499L19.79 13.2399C20.61 10.7599 20.29 9.43995 19.34 8.54995C19.32 8.79995 19.28 9.05995 19.24 9.33995L18.51 14.0299C17.83 18.33 15.61 19.9399 11.31 19.28L6.61999 18.54C6.30999 18.4799 6.00999 18.42 5.72999 18.36Z" fill="#211B2A"/>
<path d="M8.24 9.71999C6.87 9.71999 5.75 8.59999 5.75 7.22999C5.75 5.85999 6.87 4.73999 8.24 4.73999C9.61 4.73999 10.73 5.85999 10.73 7.22999C10.73 8.59999 9.61 9.71999 8.24 9.71999ZM8.24 6.24999C7.7 6.24999 7.25 6.68999 7.25 7.23999C7.25 7.78999 7.69 8.22999 8.24 8.22999C8.78 8.22999 9.23 7.78999 9.23 7.23999C9.23 6.68999 8.78 6.24999 8.24 6.24999Z" fill="#211B2A"/>
</svg>
