<svg width="24" height="24" viewBox="0 0 24 24" fill="none" xmlns="http://www.w3.org/2000/svg">
<path opacity="0.4" d="M13.89 2.8799L9.20001 2.1399C5.29001 1.5299 3.48001 2.8499 2.86001 6.7599L2.12001 11.4499C1.72001 14.0099 2.14001 15.6699 3.59001 16.6799C4.35001 17.2199 5.39001 17.5799 6.74001 17.7899L11.43 18.5299C15.34 19.1399 17.15 17.8199 17.77 13.9099L18.5 9.2199C18.62 8.4499 18.67 7.7599 18.63 7.1499C18.5 4.6499 17.03 3.3699 13.89 2.8799ZM8.24001 9.3499C7.07001 9.3499 6.12001 8.3999 6.12001 7.2399C6.12001 6.0699 7.07001 5.1199 8.24001 5.1199C9.40001 5.1199 10.35 6.0699 10.35 7.2399C10.35 8.3999 9.40001 9.3499 8.24001 9.3499Z" fill="#211B2A"/>
<path d="M20.5 13.4704L19 17.9804C17.75 21.7404 15.75 22.7404 11.99 21.4904L7.48 19.9904C5.21 19.2404 3.95 18.2004 3.59 16.6804C4.35 17.2204 5.39 17.5804 6.74 17.7904L11.43 18.5304C15.34 19.1404 17.15 17.8204 17.77 13.9104L18.5 9.22039C18.62 8.45039 18.67 7.76039 18.63 7.15039C21.02 8.42039 21.54 10.3404 20.5 13.4704Z" fill="#211B2A"/>
<path d="M10.35 7.24012C10.35 8.40012 9.39999 9.35012 8.24 9.35012C7.07 9.35012 6.12 8.40012 6.12 7.24012C6.12 6.07012 7.07 5.12012 8.24 5.12012C9.39999 5.12012 10.35 6.07012 10.35 7.24012Z" fill="#211B2A"/>
</svg>
