<svg width="24" height="24" viewBox="0 0 24 24" fill="none" xmlns="http://www.w3.org/2000/svg">
<path d="M13.55 20.1599C13.29 20.2699 13.01 20.3699 12.71 20.4699L11.13 20.9899C7.16 22.2699 5.07 21.1999 3.78 17.2299L2.5 13.2799C1.22 9.30992 2.28 7.20992 6.25 5.92992L7.79 5.41992C7.6 5.89992 7.44 6.44992 7.29 7.06992L6.31 11.2599C5.21 15.9699 6.82 18.5699 11.53 19.6899L13.21 20.0899C13.32 20.1199 13.44 20.1399 13.55 20.1599Z" fill="#211B2A"/>
<path d="M17.17 3.20952L15.5 2.81952C12.16 2.02952 10.17 2.67952 9 5.09952C8.7 5.70952 8.46 6.44952 8.26 7.29952L7.28 11.4895C6.3 15.6695 7.59 17.7295 11.76 18.7195L13.44 19.1195C14.02 19.2595 14.56 19.3495 15.06 19.3895C18.18 19.6895 19.84 18.2295 20.68 14.6195L21.66 10.4395C22.64 6.25952 21.36 4.18952 17.17 3.20952Z" fill="#211B2A"/>
</svg>
