<svg width="24" height="24" viewBox="0 0 24 24" fill="none" xmlns="http://www.w3.org/2000/svg">
<path d="M15.81 20.1795C15.55 20.1795 15.28 20.1695 14.99 20.1395C14.47 20.0995 13.88 19.9995 13.27 19.8495L11.59 19.4495C6.98001 18.3595 5.47001 15.9195 6.55001 11.3195L7.53001 7.12953C7.75001 6.17953 8.01001 5.40953 8.33001 4.76953C10.05 1.21953 13.34 1.53953 15.68 2.08953L17.35 2.47953C19.69 3.02953 21.17 3.89953 22 5.22953C22.82 6.55953 22.95 8.26953 22.4 10.6095L21.42 14.7895C20.56 18.4495 18.77 20.1795 15.81 20.1795ZM13.12 3.24953C11.45 3.24953 10.39 3.93953 9.68001 5.41953C9.42001 5.95953 9.19001 6.62953 8.99001 7.46953L8.01001 11.6595C7.12001 15.4395 8.15001 17.0895 11.93 17.9895L13.61 18.3895C14.15 18.5195 14.66 18.5995 15.12 18.6395C17.83 18.9095 19.19 17.7195 19.95 14.4495L20.93 10.2695C21.38 8.33953 21.32 6.98953 20.72 6.01953C20.12 5.04953 18.94 4.38953 17 3.93953L15.33 3.54953C14.5 3.34953 13.76 3.24953 13.12 3.24953Z" fill="#211B2A"/>
<path d="M8.32999 22.2497C5.75999 22.2497 4.11999 20.7097 3.06999 17.4597L1.78999 13.5097C0.369991 9.10968 1.63999 6.62968 6.01999 5.20968L7.59999 4.69968C8.11999 4.53968 8.50999 4.42968 8.85999 4.36968C9.13999 4.30968 9.42999 4.41968 9.59999 4.64968C9.76999 4.87968 9.79999 5.17968 9.67999 5.43968C9.41999 5.96968 9.18999 6.63968 8.99999 7.47968L8.01999 11.6697C7.12999 15.4497 8.15999 17.0997 11.94 17.9997L13.62 18.3997C14.16 18.5297 14.67 18.6097 15.13 18.6497C15.45 18.6797 15.71 18.8997 15.8 19.2097C15.88 19.5197 15.76 19.8397 15.5 20.0197C14.84 20.4697 14.01 20.8497 12.96 21.1897L11.38 21.7097C10.23 22.0697 9.22999 22.2497 8.32999 22.2497ZM7.77999 6.21968L6.48999 6.63968C2.91999 7.78968 2.06999 9.46968 3.21999 13.0497L4.49999 16.9997C5.65999 20.5697 7.33999 21.4297 10.91 20.2797L12.49 19.7597C12.55 19.7397 12.6 19.7197 12.66 19.6997L11.6 19.4497C6.98999 18.3597 5.47999 15.9197 6.55999 11.3197L7.53999 7.12968C7.60999 6.80968 7.68999 6.49968 7.77999 6.21968Z" fill="#211B2A"/>
</svg>
