<svg width="24" height="24" viewBox="0 0 24 24" fill="none" xmlns="http://www.w3.org/2000/svg">
<path d="M16.83 15.6399C17.5 15.1999 18.38 15.6799 18.38 16.4799V17.7699C18.38 19.0399 17.39 20.3999 16.2 20.7999L13.01 21.8599C12.45 22.0499 11.54 22.0499 10.99 21.8599L7.8 20.7999C6.6 20.3999 5.62 19.0399 5.62 17.7699V16.4699C5.62 15.6799 6.5 15.1999 7.16 15.6299L9.22 16.9699C10.01 17.4999 11.01 17.7599 12.01 17.7599C13.01 17.7599 14.01 17.4999 14.8 16.9699L16.83 15.6399Z" fill="#211B2A"/>
<path d="M19.98 6.45957L13.99 2.52957C12.91 1.81957 11.13 1.81957 10.05 2.52957L4.02999 6.45957C2.09999 7.70957 2.09999 10.5396 4.02999 11.7996L5.62999 12.8396L10.05 15.7196C11.13 16.4296 12.91 16.4296 13.99 15.7196L18.38 12.8396L19.75 11.9396V14.9996C19.75 15.4096 20.09 15.7496 20.5 15.7496C20.91 15.7496 21.25 15.4096 21.25 14.9996V10.0796C21.65 8.78957 21.24 7.28957 19.98 6.45957Z" fill="#211B2A"/>
</svg>
