<svg width="24" height="24" viewBox="0 0 24 24" fill="none" xmlns="http://www.w3.org/2000/svg">
<path opacity="0.4" d="M18.38 12.8401V17.7701C18.38 19.0401 17.39 20.4001 16.2 20.8001L13.01 21.8601C12.45 22.0501 11.54 22.0501 10.99 21.8601L7.8 20.8001C6.6 20.4001 5.62 19.0401 5.62 17.7701L5.63 12.8401L10.05 15.7201C11.13 16.4301 12.91 16.4301 13.99 15.7201L18.38 12.8401Z" fill="#211B2A"/>
<path d="M19.98 6.45957L13.99 2.52957C12.91 1.81957 11.13 1.81957 10.05 2.52957L4.02999 6.45957C2.09999 7.70957 2.09999 10.5396 4.02999 11.7996L5.62999 12.8396L10.05 15.7196C11.13 16.4296 12.91 16.4296 13.99 15.7196L18.38 12.8396L19.75 11.9396V14.9996C19.75 15.4096 20.09 15.7496 20.5 15.7496C20.91 15.7496 21.25 15.4096 21.25 14.9996V10.0796C21.65 8.78957 21.24 7.28957 19.98 6.45957Z" fill="#211B2A"/>
</svg>
