<svg width="24" height="24" viewBox="0 0 24 24" fill="none" xmlns="http://www.w3.org/2000/svg">
<path opacity="0.4" d="M16.24 3.6499H7.76001C5.29001 3.6499 3.29001 5.6599 3.29001 8.1199V17.5299C3.29001 19.9899 5.30001 21.9999 7.76001 21.9999H16.23C18.7 21.9999 20.7 19.9899 20.7 17.5299V8.1199C20.71 5.6499 18.7 3.6499 16.24 3.6499Z" fill="#211B2A"/>
<path d="M14.35 2H9.65001C8.61001 2 7.76001 2.84 7.76001 3.88V4.82C7.76001 5.86 8.60001 6.7 9.64001 6.7H14.35C15.39 6.7 16.23 5.86 16.23 4.82V3.88C16.24 2.84 15.39 2 14.35 2Z" fill="#211B2A"/>
<path d="M15 13.2499C14.59 13.2499 14.25 13.5899 14.25 13.9999V15.1899L9.53 10.4699C9.24 10.1799 8.76 10.1799 8.47 10.4699C8.18 10.7599 8.18 11.2399 8.47 11.5299L13.19 16.2499H12C11.59 16.2499 11.25 16.5899 11.25 16.9999C11.25 17.4099 11.59 17.7499 12 17.7499H15C15.41 17.7499 15.75 17.4099 15.75 16.9999V13.9999C15.75 13.5899 15.41 13.2499 15 13.2499Z" fill="#211B2A"/>
</svg>
