<svg width="24" height="24" viewBox="0 0 24 24" fill="none" xmlns="http://www.w3.org/2000/svg">
<path opacity="0.4" d="M16.24 3.6499H7.75999C5.28999 3.6499 3.28999 5.6599 3.28999 8.1199V17.5299C3.28999 19.9899 5.29999 21.9999 7.75999 21.9999H16.23C18.7 21.9999 20.7 19.9899 20.7 17.5299V8.1199C20.71 5.6499 18.7 3.6499 16.24 3.6499Z" fill="#211B2A"/>
<path d="M14.35 2H9.64999C8.60999 2 7.75999 2.84 7.75999 3.88V4.82C7.75999 5.86 8.59999 6.7 9.63999 6.7H14.35C15.39 6.7 16.23 5.86 16.23 4.82V3.88C16.24 2.84 15.39 2 14.35 2Z" fill="#211B2A"/>
<path d="M14.53 15.6199L13.08 14.1699L14.48 12.7699C14.77 12.4799 14.77 11.9999 14.48 11.7099C14.19 11.4199 13.71 11.4199 13.42 11.7099L12.02 13.1099L10.57 11.6599C10.28 11.3699 9.8 11.3699 9.51 11.6599C9.22 11.9499 9.22 12.4299 9.51 12.7199L10.96 14.1699L9.47 15.6599C9.18 15.9499 9.18 16.4299 9.47 16.7199C9.62 16.8699 9.81 16.9399 10 16.9399C10.19 16.9399 10.38 16.8699 10.53 16.7199L12.02 15.2299L13.47 16.6799C13.62 16.8299 13.81 16.8999 14 16.8999C14.19 16.8999 14.38 16.8299 14.53 16.6799C14.82 16.3899 14.82 15.9199 14.53 15.6199Z" fill="#211B2A"/>
</svg>
