<svg width="24" height="24" viewBox="0 0 24 24" fill="none" xmlns="http://www.w3.org/2000/svg">
<path opacity="0.4" d="M12 22C6.48 22 2 17.52 2 12C2 6.48 6.48 2 12 2C17.52 2 22 6.48 22 12C22 17.52 17.52 22 12 22Z" fill="#211B2A"/>
<path d="M8.98999 15.6199C6.98999 15.6199 5.37 13.9999 5.37 11.9999C5.37 9.99988 6.98999 8.37988 8.98999 8.37988C9.86999 8.37988 10.71 8.69991 11.38 9.27991C11.69 9.54991 11.72 10.0299 11.45 10.3399C11.18 10.6499 10.7 10.6799 10.39 10.4099C10 10.0699 9.50999 9.87988 8.98999 9.87988C7.81999 9.87988 6.87 10.8299 6.87 11.9999C6.87 13.1699 7.81999 14.1199 8.98999 14.1199C9.49999 14.1199 10 13.9299 10.39 13.5899C10.7 13.3199 11.18 13.3499 11.45 13.6599C11.72 13.9699 11.69 14.4498 11.38 14.7198C10.71 15.2998 9.85999 15.6199 8.98999 15.6199Z" fill="#211B2A"/>
<path d="M15.99 15.6199C13.99 15.6199 12.37 13.9999 12.37 11.9999C12.37 9.99988 13.99 8.37988 15.99 8.37988C16.87 8.37988 17.71 8.69991 18.38 9.27991C18.69 9.54991 18.72 10.0299 18.45 10.3399C18.18 10.6499 17.7 10.6799 17.39 10.4099C17 10.0699 16.51 9.87988 15.99 9.87988C14.82 9.87988 13.87 10.8299 13.87 11.9999C13.87 13.1699 14.82 14.1199 15.99 14.1199C16.5 14.1199 17 13.9299 17.39 13.5899C17.7 13.3199 18.18 13.3499 18.45 13.6599C18.72 13.9699 18.69 14.4498 18.38 14.7198C17.71 15.2998 16.86 15.6199 15.99 15.6199Z" fill="#211B2A"/>
</svg>
