<svg width="24" height="24" viewBox="0 0 24 24" fill="none" xmlns="http://www.w3.org/2000/svg">
<path opacity="0.4" d="M20.5 10.19H17.61C15.24 10.19 13.31 8.26 13.31 5.89V3C13.31 2.45 12.86 2 12.31 2H8.07C4.99 2 2.5 4 2.5 7.57V16.43C2.5 20 4.99 22 8.07 22H15.93C19.01 22 21.5 20 21.5 16.43V11.19C21.5 10.64 21.05 10.19 20.5 10.19Z" fill="#211B2A"/>
<path d="M15.8 2.20999C15.39 1.79999 14.68 2.07999 14.68 2.64999V6.13999C14.68 7.59999 15.92 8.80999 17.43 8.80999C18.38 8.81999 19.7 8.81999 20.83 8.81999C21.4 8.81999 21.7 8.14999 21.3 7.74999C19.86 6.29999 17.28 3.68999 15.8 2.20999Z" fill="#211B2A"/>
<path d="M12.55 14.0002L11.7 12.7202C11.49 12.3902 11.05 12.1602 10.66 12.1602H8.63999C8.24999 12.1602 7.81999 12.3902 7.59999 12.7202L6.74999 14.0002C6.41999 14.4802 6.48999 15.1702 6.89999 15.5802L8.75999 17.4402C8.99999 17.6702 9.31999 17.8002 9.64999 17.8002C9.97999 17.8002 10.3 17.6702 10.54 17.4402L12.4 15.5802C12.8 15.1702 12.86 14.4802 12.55 14.0002Z" fill="#211B2A"/>
</svg>
