<svg width="24" height="24" viewBox="0 0 24 24" fill="none" xmlns="http://www.w3.org/2000/svg">
<path opacity="0.4" d="M20.5 10.19H17.61C15.24 10.19 13.31 8.26 13.31 5.89V3C13.31 2.45 12.86 2 12.31 2H8.07C4.99 2 2.5 4.00001 2.5 7.57001V16.43C2.5 20 4.99 22 8.07 22H15.93C19.01 22 21.5 20 21.5 16.43V11.19C21.5 10.64 21.05 10.19 20.5 10.19Z" fill="#211B2A"/>
<path d="M15.8 2.21C15.39 1.8 14.68 2.07998 14.68 2.64998V6.13999C14.68 7.59999 15.92 8.80999 17.43 8.80999C18.38 8.81999 19.7 8.82 20.83 8.82C21.4 8.82 21.7 8.14999 21.3 7.74999C19.86 6.29999 17.28 3.69 15.8 2.21Z" fill="#211B2A"/>
<path d="M14.76 19.2598C12.41 19.4298 12.41 22.8298 14.76 22.9998H20.32C20.99 22.9998 21.65 22.7498 22.14 22.2998C23.79 20.8598 22.91 17.9798 20.74 17.7098C19.96 13.0198 13.18 14.7998 14.78 19.2698" fill="#211B2A"/>
</svg>
