<svg width="24" height="24" viewBox="0 0 24 24" fill="none" xmlns="http://www.w3.org/2000/svg">
<path opacity="0.4" d="M16.24 3.6499H7.76C5.29 3.6499 3.29 5.6599 3.29 8.1199V17.5299C3.29 19.9899 5.3 21.9999 7.76 21.9999H16.23C18.7 21.9999 20.7 19.9899 20.7 17.5299V8.1199C20.71 5.6499 18.7 3.6499 16.24 3.6499Z" fill="#211B2A"/>
<path d="M14.35 2H9.65C8.61 2 7.76 2.84 7.76 3.88V4.82C7.76 5.86 8.6 6.7 9.64 6.7H14.35C15.39 6.7 16.23 5.86 16.23 4.82V3.88C16.24 2.84 15.39 2 14.35 2Z" fill="#211B2A"/>
</svg>
