<svg width="24" height="24" viewBox="0 0 24 24" fill="none" xmlns="http://www.w3.org/2000/svg">
<path opacity="0.4" d="M20.5 10.19H17.61C15.24 10.19 13.31 8.26 13.31 5.89V3C13.31 2.45 12.86 2 12.31 2H8.07C4.99 2 2.5 4 2.5 7.57V16.43C2.5 20 4.99 22 8.07 22H15.93C19.01 22 21.5 20 21.5 16.43V11.19C21.5 10.64 21.05 10.19 20.5 10.19Z" fill="#211B2A"/>
<path d="M15.8 2.20999C15.39 1.79999 14.68 2.07999 14.68 2.64999V6.13999C14.68 7.59999 15.92 8.80999 17.43 8.80999C18.38 8.81999 19.7 8.81999 20.83 8.81999C21.4 8.81999 21.7 8.14999 21.3 7.74999C19.86 6.29999 17.28 3.68999 15.8 2.20999Z" fill="#211B2A"/>
<path d="M11.53 12.47L9.53 10.47C9.52 10.46 9.51 10.46 9.51 10.45C9.45 10.39 9.37 10.34 9.29 10.3C9.28 10.3 9.28 10.3 9.27 10.3C9.19 10.27 9.11 10.26 9.03 10.25C9 10.25 8.98 10.25 8.95 10.25C8.89 10.25 8.82 10.27 8.76 10.29C8.73 10.3 8.71 10.31 8.69 10.32C8.61 10.36 8.53 10.4 8.47 10.47L6.47 12.47C6.18 12.76 6.18 13.24 6.47 13.53C6.76 13.82 7.24 13.82 7.53 13.53L8.25 12.81V17C8.25 17.41 8.59 17.75 9 17.75C9.41 17.75 9.75 17.41 9.75 17V12.81L10.47 13.53C10.62 13.68 10.81 13.75 11 13.75C11.19 13.75 11.38 13.68 11.53 13.53C11.82 13.24 11.82 12.76 11.53 12.47Z" fill="#211B2A"/>
</svg>
