<svg width="24" height="24" viewBox="0 0 24 24" fill="none" xmlns="http://www.w3.org/2000/svg">
<path opacity="0.4" d="M16.19 2H7.81C4.17 2 2 4.17 2 7.81V16.19C2 19.83 4.17 22 7.81 22H16.19C19.83 22 22 19.83 22 16.19V7.81C22 4.17 19.83 2 16.19 2Z" fill="#211B2A"/>
<path d="M18.31 8.87012C18.31 9.28012 17.98 9.62012 17.56 9.62012H12.31C11.9 9.62012 11.56 9.28012 11.56 8.87012C11.56 8.46012 11.9 8.12012 12.31 8.12012H17.56C17.98 8.12012 18.31 8.46012 18.31 8.87012Z" fill="#211B2A"/>
<path d="M9.97 7.90006L7.72 10.1501C7.57 10.3001 7.38 10.3701 7.19 10.3701C7 10.3701 6.8 10.3001 6.66 10.1501L5.91 9.40006C5.61 9.11006 5.61 8.63006 5.91 8.34006C6.2 8.05006 6.67 8.05006 6.97 8.34006L7.19 8.56006L8.91 6.84006C9.2 6.55006 9.67 6.55006 9.97 6.84006C10.26 7.13006 10.26 7.61006 9.97 7.90006Z" fill="#211B2A"/>
<path d="M18.31 15.8701C18.31 16.2801 17.98 16.6201 17.56 16.6201H12.31C11.9 16.6201 11.56 16.2801 11.56 15.8701C11.56 15.4601 11.9 15.1201 12.31 15.1201H17.56C17.98 15.1201 18.31 15.4601 18.31 15.8701Z" fill="#211B2A"/>
<path d="M9.97 14.9001L7.72 17.1501C7.57 17.3001 7.38 17.3701 7.19 17.3701C7 17.3701 6.8 17.3001 6.66 17.1501L5.91 16.4001C5.61 16.1101 5.61 15.6301 5.91 15.3401C6.2 15.0501 6.67 15.0501 6.97 15.3401L7.19 15.5601L8.91 13.8401C9.2 13.5501 9.67 13.5501 9.97 13.8401C10.26 14.1301 10.26 14.6101 9.97 14.9001Z" fill="#211B2A"/>
</svg>
