<svg width="24" height="24" viewBox="0 0 24 24" fill="none" xmlns="http://www.w3.org/2000/svg">
<path d="M9.46998 15.2799C9.27998 15.2799 9.08998 15.2099 8.93998 15.0599C8.11998 14.2399 7.66998 13.1499 7.66998 11.9999C7.66998 9.60992 9.60998 7.66992 12 7.66992C13.15 7.66992 14.24 8.11992 15.06 8.93992C15.2 9.07992 15.28 9.26992 15.28 9.46992C15.28 9.66992 15.2 9.85992 15.06 9.99992L9.99998 15.0599C9.84998 15.2099 9.65998 15.2799 9.46998 15.2799ZM12 9.16992C10.44 9.16992 9.16998 10.4399 9.16998 11.9999C9.16998 12.4999 9.29998 12.9799 9.53998 13.3999L13.4 9.53992C12.98 9.29992 12.5 9.16992 12 9.16992Z" fill="#211B2A"/>
<path d="M5.59997 18.5105C5.42997 18.5105 5.24997 18.4505 5.10997 18.3305C4.03997 17.4205 3.07997 16.3005 2.25997 15.0005C1.19997 13.3505 1.19997 10.6605 2.25997 9.00047C4.69997 5.18047 8.24997 2.98047 12 2.98047C14.2 2.98047 16.37 3.74047 18.27 5.17047C18.6 5.42047 18.67 5.89047 18.42 6.22047C18.17 6.55047 17.7 6.62047 17.37 6.37047C15.73 5.13047 13.87 4.48047 12 4.48047C8.76997 4.48047 5.67997 6.42047 3.51997 9.81047C2.76997 10.9805 2.76997 13.0205 3.51997 14.1905C4.26997 15.3605 5.12997 16.3705 6.07997 17.1905C6.38997 17.4605 6.42997 17.9305 6.15997 18.2505C6.01997 18.4205 5.80997 18.5105 5.59997 18.5105Z" fill="#211B2A"/>
<path d="M12 21.0195C10.67 21.0195 9.37 20.7495 8.12 20.2195C7.74 20.0595 7.56 19.6195 7.72 19.2395C7.88 18.8595 8.32 18.6795 8.7 18.8395C9.76 19.2895 10.87 19.5195 11.99 19.5195C15.22 19.5195 18.31 17.5795 20.47 14.1895C21.22 13.0195 21.22 10.9795 20.47 9.80951C20.16 9.31951 19.82 8.84951 19.46 8.40951C19.2 8.08951 19.25 7.61951 19.57 7.34951C19.89 7.08951 20.36 7.12951 20.63 7.45951C21.02 7.93951 21.4 8.45951 21.74 8.99951C22.8 10.6495 22.8 13.3395 21.74 14.9995C19.3 18.8195 15.75 21.0195 12 21.0195Z" fill="#211B2A"/>
<path d="M12.69 16.2703C12.34 16.2703 12.02 16.0203 11.95 15.6603C11.87 15.2503 12.14 14.8603 12.55 14.7903C13.65 14.5903 14.57 13.6703 14.77 12.5703C14.85 12.1603 15.24 11.9003 15.65 11.9703C16.06 12.0503 16.33 12.4403 16.25 12.8503C15.93 14.5803 14.55 15.9503 12.83 16.2703C12.78 16.2603 12.74 16.2703 12.69 16.2703Z" fill="#211B2A"/>
<path d="M2 22.7507C1.81 22.7507 1.62 22.6807 1.47 22.5307C1.18 22.2407 1.18 21.7607 1.47 21.4707L8.94 14.0007C9.23 13.7107 9.71 13.7107 10 14.0007C10.29 14.2907 10.29 14.7707 10 15.0607L2.53 22.5307C2.38 22.6807 2.19 22.7507 2 22.7507Z" fill="#211B2A"/>
<path d="M14.53 10.2195C14.34 10.2195 14.15 10.1495 14 9.99945C13.71 9.70945 13.71 9.22945 14 8.93945L21.47 1.46945C21.76 1.17945 22.24 1.17945 22.53 1.46945C22.82 1.75945 22.82 2.23945 22.53 2.52945L15.06 9.99945C14.91 10.1495 14.72 10.2195 14.53 10.2195Z" fill="#211B2A"/>
</svg>
