<svg width="24" height="24" viewBox="0 0 24 24" fill="none" xmlns="http://www.w3.org/2000/svg">
<path opacity="0.4" d="M21.25 9.14906C20.76 8.36906 20.2 7.66906 19.62 7.03906L15.85 10.8091C15.97 11.1791 16.04 11.5791 16.04 11.9991C16.04 14.2391 14.23 16.0391 12 16.0391C11.58 16.0391 11.18 15.9691 10.81 15.8491L7.34998 19.3091C8.80998 20.1291 10.39 20.5591 12 20.5591C13.78 20.5591 15.51 20.0391 17.09 19.0691C18.67 18.0891 20.09 16.6591 21.25 14.8391C22.25 13.2791 22.25 10.7191 21.25 9.14906Z" fill="#211B2A"/>
<path d="M14.02 9.98062L9.98001 14.0206C9.47001 13.5006 9.14001 12.7806 9.14001 12.0006C9.14001 10.4306 10.42 9.14062 12 9.14062C12.78 9.14062 13.5 9.47062 14.02 9.98062Z" fill="#211B2A"/>
<path opacity="0.4" d="M18.25 5.74969L14.86 9.13969C14.13 8.39969 13.12 7.95969 12 7.95969C9.76 7.95969 7.96 9.76969 7.96 11.9997C7.96 13.1197 8.41 14.1297 9.14 14.8597L5.76 18.2497H5.75C4.64 17.3497 3.62 16.1997 2.75 14.8397C1.75 13.2697 1.75 10.7197 2.75 9.14969C3.91 7.32969 5.33 5.89969 6.91 4.91969C8.49 3.95969 10.22 3.42969 12 3.42969C14.23 3.42969 16.39 4.24969 18.25 5.74969Z" fill="#211B2A"/>
<path d="M14.86 12.0001C14.86 13.5701 13.58 14.8601 12 14.8601C11.94 14.8601 11.89 14.8601 11.83 14.8401L14.84 11.8301C14.86 11.8901 14.86 11.9401 14.86 12.0001Z" fill="#211B2A"/>
<path d="M21.77 2.23086C21.47 1.93086 20.98 1.93086 20.68 2.23086L2.23 20.6909C1.93 20.9909 1.93 21.4809 2.23 21.7809C2.38 21.9209 2.57 22.0009 2.77 22.0009C2.97 22.0009 3.16 21.9209 3.31 21.7709L21.77 3.31086C22.08 3.01086 22.08 2.53086 21.77 2.23086Z" fill="#211B2A"/>
</svg>
