<svg width="24" height="24" viewBox="0 0 24 24" fill="none" xmlns="http://www.w3.org/2000/svg">
<path opacity="0.4" d="M12 22C17.5228 22 22 17.5228 22 12C22 6.47715 17.5228 2 12 2C6.47715 2 2 6.47715 2 12C2 17.5228 6.47715 22 12 22Z" fill="#211B2A"/>
<path d="M12 9.86914C11.51 9.86914 11.1 10.2691 11.1 10.7691V13.2391C11.1 13.7391 11.5 14.1392 12 14.1392C12.5 14.1392 12.9 13.7391 12.9 13.2391V10.7691C12.9 10.2691 12.49 9.86914 12 9.86914Z" fill="#211B2A"/>
<path d="M12 17.5492C9.38 17.5492 7.25 15.4192 7.25 12.7992V11.1992C7.25 8.57922 9.38 6.44922 12 6.44922C14.62 6.44922 16.75 8.57922 16.75 11.1992V12.7992C16.75 15.4192 14.62 17.5492 12 17.5492ZM12 7.94922C10.21 7.94922 8.75 9.40922 8.75 11.1992V12.7992C8.75 14.5892 10.21 16.0492 12 16.0492C13.79 16.0492 15.25 14.5892 15.25 12.7992V11.1992C15.25 9.40922 13.79 7.94922 12 7.94922Z" fill="#211B2A"/>
</svg>
