<svg width="24" height="24" viewBox="0 0 24 24" fill="none" xmlns="http://www.w3.org/2000/svg">
<path d="M12.99 2.14972C15.37 1.68972 17.94 2.37972 19.79 4.21972C22.74 7.16972 22.74 11.9797 19.79 14.9197C17.73 16.9697 14.78 17.5997 12.19 16.7897L7.47999 21.4897C7.13999 21.8397 6.46999 22.0497 5.98999 21.9797L3.80999 21.6797C3.08999 21.5797 2.41999 20.8997 2.30999 20.1797L2.00999 17.9997C1.93999 17.5197 2.16999 16.8497 2.49999 16.5097L3.61999 15.3897L7.18999 11.8197C6.38999 9.21972 7.00999 6.26972 9.06999 4.21972" stroke="#211B2A" stroke-width="1.5" stroke-miterlimit="10" stroke-linecap="round" stroke-linejoin="round"/>
<path d="M6.89 17.4902L9.19 19.7902" stroke="#211B2A" stroke-width="1.5" stroke-miterlimit="10" stroke-linecap="round" stroke-linejoin="round"/>
<path d="M14.5 11C15.3284 11 16 10.3284 16 9.5C16 8.67157 15.3284 8 14.5 8C13.6716 8 13 8.67157 13 9.5C13 10.3284 13.6716 11 14.5 11Z" stroke="#211B2A" stroke-width="1.5" stroke-linecap="round" stroke-linejoin="round"/>
</svg>
