<svg width="24" height="24" viewBox="0 0 24 24" fill="none" xmlns="http://www.w3.org/2000/svg">
<path opacity="0.4" d="M16.19 2H7.81C4.17 2 2 4.17 2 7.81V16.18C2 19.83 4.17 22 7.81 22H16.18C19.82 22 21.99 19.83 21.99 16.19V7.81C22 4.17 19.83 2 16.19 2Z" fill="#211B2A"/>
<path d="M15.89 8.11031C14.41 6.64031 12.01 6.64031 10.54 8.11031C9.51001 9.13031 9.20001 10.6103 9.60001 11.9103L7.25001 14.2603C7.09001 14.4303 6.97001 14.7603 7.01001 15.0003L7.16001 16.0903C7.21001 16.4503 7.55001 16.7903 7.91001 16.8403L9.00001 17.0003C9.24001 17.0303 9.57001 16.9303 9.74001 16.7503L10.15 16.3403C10.25 16.2503 10.25 16.0903 10.15 15.9903L9.18001 15.0203C9.04001 14.8803 9.04001 14.6403 9.18001 14.4903C9.32001 14.3503 9.56001 14.3503 9.71001 14.4903L10.68 15.4603C10.77 15.5503 10.93 15.5503 11.03 15.4603L12.09 14.4103C13.38 14.8103 14.86 14.5003 15.89 13.4803C17.37 11.9903 17.37 9.59031 15.89 8.11031ZM13.25 12.0003C12.56 12.0003 12 11.4403 12 10.7503C12 10.0603 12.56 9.50031 13.25 9.50031C13.94 9.50031 14.5 10.0603 14.5 10.7503C14.5 11.4403 13.94 12.0003 13.25 12.0003Z" fill="#211B2A"/>
</svg>
