<svg width="24" height="24" viewBox="0 0 24 24" fill="none" xmlns="http://www.w3.org/2000/svg">
<path d="M13.63 15.7195C13.63 16.6195 12.9 17.3495 12 17.3495C11.36 17.3495 10.81 16.9795 10.55 16.4495L12.73 14.2695C13.26 14.5295 13.63 15.0795 13.63 15.7195Z" fill="#211B2A"/>
<path opacity="0.4" d="M7.35 9.43945C3.25 9.43945 2 10.6895 2 14.7895V16.6495C2 18.6995 2.31 20.0395 3.14 20.8595L9.1 14.8995C9.38 13.8895 10.17 13.0995 11.18 12.8195L14.56 9.43945H7.35Z" fill="#211B2A"/>
<path d="M18.13 5.87L16.87 7.13C16.83 5.35 16.16 3.4 12 3.4C7.95 3.4 7.12 5.35 7.12 8.28V9.45C6.61 9.45 6.14 9.48 5.72 9.53V8.28C5.72 5.58 6.37 2 12 2C15.54 2 17.6 3.3 18.13 5.87Z" fill="#211B2A"/>
<path opacity="0.4" d="M22 14.7909V16.6509C22 20.7509 20.75 22.0009 16.65 22.0009H7.34998C6.50998 22.0009 5.77998 21.9509 5.16998 21.8309L9.52998 17.4709C10.09 18.2409 10.98 18.7409 12 18.7409C13.67 18.7409 15.02 17.3909 15.02 15.7209C15.02 14.7009 14.52 13.8109 13.75 13.2509L17.54 9.46094C20.93 9.65094 22 11.0009 22 14.7909Z" fill="#211B2A"/>
<path d="M21.77 2.23086C21.47 1.93086 20.98 1.93086 20.68 2.23086L2.23 20.6909C1.93 20.9909 1.93 21.4809 2.23 21.7809C2.38 21.9209 2.57 22.0009 2.77 22.0009C2.97 22.0009 3.16 21.9209 3.31 21.7709L21.77 3.31086C22.08 3.01086 22.08 2.53086 21.77 2.23086Z" fill="#211B2A"/>
</svg>
