<svg width="24" height="24" viewBox="0 0 24 24" fill="none" xmlns="http://www.w3.org/2000/svg">
<path d="M13.63 15.7195C13.63 16.6195 12.9 17.3495 12 17.3495C11.36 17.3495 10.81 16.9795 10.55 16.4495L12.73 14.2695C13.26 14.5295 13.63 15.0795 13.63 15.7195Z" fill="#211B2A"/>
<path d="M21.77 2.23C21.47 1.93 20.98 1.93 20.68 2.23L17.87 5.04C17.1 3.02 15.13 2 12 2C6.37 2 5.71999 5.58 5.71999 8.28V9.53C5.72999 9.53 5.74 9.53 5.74999 9.53C2.92 9.87 2 11.28 2 14.79V16.65C2 18.25 2.19 19.41 2.67 20.24L2.22 20.69C1.92 20.99 1.92 21.48 2.22 21.78C2.38 21.92 2.57 22 2.77 22C2.97 22 3.16 21.92 3.31 21.77L21.77 3.31C22.08 3.01 22.08 2.53 21.77 2.23ZM7.35 9.44C7.27 9.44 7.2 9.44 7.12 9.44V8.28C7.12 5.35 7.95 3.4 12 3.4C15.4 3.4 16.47 4.7 16.77 6.15L13.48 9.44H7.35Z" fill="#211B2A"/>
<path d="M22 14.791V16.651C22 20.751 20.75 22.001 16.65 22.001H7.40999C6.51999 22.001 6.07999 20.921 6.70999 20.291L9.52999 17.471C9.59999 17.571 9.67999 17.661 9.75999 17.751C10.46 18.511 11.5 18.911 12.65 18.671C12.74 18.651 12.83 18.631 12.92 18.591C13.01 18.571 13.09 18.541 13.17 18.501C13.37 18.431 13.56 18.321 13.74 18.191C13.81 18.151 13.87 18.101 13.92 18.051C14.07 17.931 14.21 17.791 14.33 17.641C14.38 17.591 14.43 17.531 14.47 17.461C14.6 17.281 14.71 17.091 14.78 16.891C14.82 16.811 14.85 16.731 14.87 16.641C14.91 16.551 14.93 16.461 14.95 16.371C15.19 15.221 14.79 14.181 14.03 13.481C13.95 13.401 13.85 13.321 13.75 13.251L16.87 10.131C16.92 10.081 16.96 10.041 17.01 10.001C17.41 9.67095 17.92 9.51095 18.43 9.55095C18.52 9.56095 18.62 9.57095 18.71 9.59095C18.88 9.62095 19.05 9.66095 19.21 9.70095C19.37 9.74095 19.52 9.79095 19.67 9.84095C19.96 9.95095 20.21 10.081 20.44 10.231C20.67 10.381 20.86 10.561 21.04 10.771C21.13 10.881 21.22 11.001 21.29 11.131C21.36 11.241 21.42 11.361 21.48 11.491C21.54 11.621 21.59 11.761 21.64 11.901C21.7 12.071 21.75 12.261 21.79 12.461C21.83 12.601 21.85 12.751 21.88 12.911C21.9 13.061 21.92 13.221 21.94 13.391C21.98 13.811 22 14.281 22 14.791Z" fill="#211B2A"/>
</svg>
