<svg width="24" height="24" viewBox="0 0 24 24" fill="none" xmlns="http://www.w3.org/2000/svg">
<path d="M12 19.2503C10.98 19.2503 10.04 18.7903 9.41999 17.9803C9.16999 17.6503 9.22999 17.1803 9.55999 16.9303C9.88999 16.6803 10.36 16.7403 10.61 17.0703C10.94 17.5103 11.45 17.7503 12 17.7503C12.96 17.7503 13.75 16.9603 13.75 16.0003C13.75 15.6103 13.63 15.2403 13.39 14.9403C13.14 14.6103 13.2 14.1403 13.53 13.8903C13.86 13.6403 14.33 13.7003 14.58 14.0303C15.02 14.6003 15.25 15.2803 15.25 16.0003C15.25 17.7903 13.79 19.2503 12 19.2503Z" fill="#211B2A"/>
<path d="M17 22.75H7C6.63 22.75 6.28 22.74 5.95 22.72C5.54 22.7 5.22 22.34 5.24 21.93C5.26 21.52 5.61 21.22 6.03 21.22C6.33 21.24 6.65 21.24 6.99 21.24H16.99C20.56 21.24 21.24 20.56 21.24 16.99V14.99C21.24 11.48 20.5 10.91 17.95 10.76C17.65 10.74 17.33 10.74 16.99 10.74H7C3.43 10.74 2.75 11.42 2.75 14.99V16.99C2.75 18.73 2.95 19.76 3.41 20.32C3.67 20.64 3.62 21.12 3.29 21.37C2.97 21.63 2.5 21.58 2.24 21.25C1.54 20.4 1.25 19.16 1.25 17V15C1.25 10.59 2.59 9.25 7 9.25H17C17.37 9.25 17.72 9.26 18.04 9.28C22 9.5 22.75 11.46 22.75 15V17C22.75 21.41 21.41 22.75 17 22.75Z" fill="#211B2A"/>
<path d="M6 10.75C5.59 10.75 5.25 10.41 5.25 10V8C5.25 5.1 5.95 1.25 12 1.25C16.07 1.25 18.18 2.58 18.64 5.44C18.71 5.85 18.43 6.23 18.02 6.3C17.61 6.37 17.23 6.09 17.16 5.68C16.91 4.16 16.12 2.75 12 2.75C7.64 2.75 6.75 4.85 6.75 8V10C6.75 10.41 6.41 10.75 6 10.75Z" fill="#211B2A"/>
<path d="M2 22.7495C1.81 22.7495 1.62 22.6795 1.47 22.5295C1.18 22.2395 1.18 21.7595 1.47 21.4695L21.47 1.46945C21.76 1.17945 22.24 1.17945 22.53 1.46945C22.82 1.75945 22.82 2.23945 22.53 2.52945L2.53 22.5295C2.38 22.6795 2.19 22.7495 2 22.7495Z" fill="#211B2A"/>
</svg>
