<svg width="24" height="24" viewBox="0 0 24 24" fill="none" xmlns="http://www.w3.org/2000/svg">
<path opacity="0.4" d="M12 22C17.5228 22 22 17.5228 22 12C22 6.47715 17.5228 2 12 2C6.47715 2 2 6.47715 2 12C2 17.5228 6.47715 22 12 22Z" fill="#211B2A"/>
<path d="M15.75 10.73V10C15.75 9.07 15.75 6.25 12 6.25C8.25 6.25 8.25 9.07 8.25 10V10.73C7.03 11 6.62 11.79 6.62 13.5V14.5C6.62 16.7 7.3 17.38 9.5 17.38H14.5C16.7 17.38 17.38 16.7 17.38 14.5V13.5C17.38 11.79 16.97 11 15.75 10.73ZM12 15.1C11.39 15.1 10.9 14.61 10.9 14C10.9 13.39 11.39 12.9 12 12.9C12.61 12.9 13.1 13.39 13.1 14C13.1 14.61 12.61 15.1 12 15.1ZM14.25 10.62H9.75V10C9.75 8.54 10.11 7.75 12 7.75C13.89 7.75 14.25 8.54 14.25 10V10.62Z" fill="#211B2A"/>
</svg>
