<svg width="24" height="24" viewBox="0 0 24 24" fill="none" xmlns="http://www.w3.org/2000/svg">
<path opacity="0.4" d="M12 17.3498C12.9002 17.3498 13.63 16.6201 13.63 15.7198C13.63 14.8196 12.9002 14.0898 12 14.0898C11.0998 14.0898 10.37 14.8196 10.37 15.7198C10.37 16.6201 11.0998 17.3498 12 17.3498Z" fill="#211B2A"/>
<path d="M16.65 9.43945H7.35C3.25 9.43945 2 10.6895 2 14.7895V16.6495C2 20.7495 3.25 21.9995 7.35 21.9995H16.65C20.75 21.9995 22 20.7495 22 16.6495V14.7895C22 10.6895 20.75 9.43945 16.65 9.43945ZM12 18.7395C10.33 18.7395 8.98 17.3795 8.98 15.7195C8.98 14.0595 10.33 12.6995 12 12.6995C13.67 12.6995 15.02 14.0595 15.02 15.7195C15.02 17.3795 13.67 18.7395 12 18.7395Z" fill="#211B2A"/>
<path opacity="0.4" d="M7.12 9.45V8.28C7.12 5.35 7.95 3.4 12 3.4C16.05 3.4 16.88 5.35 16.88 8.28V9.45C17.39 9.46 17.85 9.48 18.28 9.54V8.28C18.28 5.58 17.63 2 12 2C6.37 2 5.72 5.58 5.72 8.28V9.53C6.14 9.48 6.61 9.45 7.12 9.45Z" fill="#211B2A"/>
</svg>
