<svg width="24" height="24" viewBox="0 0 24 24" fill="none" xmlns="http://www.w3.org/2000/svg">
<path d="M12 14.3792C13.3144 14.3792 14.38 13.3136 14.38 11.9991C14.38 10.6847 13.3144 9.61914 12 9.61914C10.6856 9.61914 9.62 10.6847 9.62 11.9991C9.62 13.3136 10.6856 14.3792 12 14.3792Z" fill="#211B2A"/>
<path opacity="0.4" d="M20 18.7503C19.84 18.7503 19.69 18.7003 19.55 18.6003C19.22 18.3503 19.15 17.8803 19.4 17.5503C20.61 15.9403 21.25 14.0203 21.25 12.0003C21.25 9.98028 20.61 8.06029 19.4 6.45029C19.15 6.12029 19.22 5.65028 19.55 5.40028C19.88 5.15028 20.35 5.22027 20.6 5.55027C22.01 7.42027 22.75 9.65028 22.75 12.0003C22.75 14.3503 22.01 16.5803 20.6 18.4503C20.45 18.6503 20.23 18.7503 20 18.7503Z" fill="#211B2A"/>
<path opacity="0.4" d="M4 18.7503C3.77 18.7503 3.54999 18.6503 3.39999 18.4503C1.98999 16.5803 1.25 14.3503 1.25 12.0003C1.25 9.65028 1.98999 7.42027 3.39999 5.55027C3.64999 5.22027 4.12001 5.15028 4.45001 5.40028C4.78001 5.65028 4.85001 6.12029 4.60001 6.45029C3.39001 8.06029 2.75 9.98028 2.75 12.0003C2.75 14.0203 3.39001 15.9403 4.60001 17.5503C4.85001 17.8803 4.78001 18.3503 4.45001 18.6003C4.32001 18.7003 4.16 18.7503 4 18.7503Z" fill="#211B2A"/>
<path opacity="0.4" d="M16.8001 16.3507C16.6401 16.3507 16.4901 16.3007 16.3501 16.2007C16.0201 15.9507 15.9501 15.4807 16.2001 15.1507C16.8901 14.2407 17.2501 13.1507 17.2501 12.0007C17.2501 10.8507 16.8901 9.76067 16.2001 8.85067C15.9501 8.52067 16.0201 8.05065 16.3501 7.80065C16.6801 7.55065 17.1501 7.62068 17.4001 7.95068C18.2801 9.13068 18.7501 10.5307 18.7501 12.0007C18.7501 13.4707 18.2801 14.8807 17.4001 16.0507C17.2501 16.2507 17.0301 16.3507 16.8001 16.3507Z" fill="#211B2A"/>
<path opacity="0.4" d="M7.20001 16.3507C6.97001 16.3507 6.75001 16.2507 6.60001 16.0507C5.72001 14.8707 5.25 13.4707 5.25 12.0007C5.25 10.5307 5.72001 9.12068 6.60001 7.95068C6.85001 7.62068 7.31999 7.55065 7.64999 7.80065C7.97999 8.05065 8.04999 8.52067 7.79999 8.85067C7.10999 9.76067 6.75 10.8507 6.75 12.0007C6.75 13.1507 7.10999 14.2407 7.79999 15.1507C8.04999 15.4807 7.97999 15.9507 7.64999 16.2007C7.51999 16.3007 7.36001 16.3507 7.20001 16.3507Z" fill="#211B2A"/>
</svg>
