<svg width="24" height="24" viewBox="0 0 24 24" fill="none" xmlns="http://www.w3.org/2000/svg">
<path d="M12 10C10.9 10 10 10.9 10 12C10 13.1 10.9 14 12 14C13.1 14 14 13.1 14 12" stroke="#211B2A" stroke-width="1.5" stroke-linecap="round" stroke-linejoin="round"/>
<path d="M20 18C21.26 16.33 22 14.25 22 12C22 9.75 21.26 7.67 20 6" stroke="#211B2A" stroke-width="1.5" stroke-linecap="round" stroke-linejoin="round"/>
<path d="M4 18.0009C2.74 16.3309 2 14.2509 2 12.0009C2 11.7909 2.00999 11.5809 2.01999 11.3809" stroke="#211B2A" stroke-width="1.5" stroke-linecap="round" stroke-linejoin="round"/>
<path d="M4 6C3.62 6.51 3.28 7.06001 3 7.64001" stroke="#211B2A" stroke-width="1.5" stroke-linecap="round" stroke-linejoin="round"/>
<path d="M16.8 15.6004C17.55 14.6004 18.0001 13.3504 18.0001 12.0004C18.0001 10.6504 17.55 9.40039 16.8 8.40039" stroke="#211B2A" stroke-width="1.5" stroke-linecap="round" stroke-linejoin="round"/>
<path d="M7.20001 8.40039C6.45001 9.40039 6 10.6504 6 12.0004C6 13.3504 6.45001 14.6004 7.20001 15.6004" stroke="#211B2A" stroke-width="1.5" stroke-linecap="round" stroke-linejoin="round"/>
</svg>
