<svg width="24" height="24" viewBox="0 0 24 24" fill="none" xmlns="http://www.w3.org/2000/svg">
<path d="M12 14.3791C13.3144 14.3791 14.38 13.3136 14.38 11.9991C14.38 10.6847 13.3144 9.61914 12 9.61914C10.6856 9.61914 9.62 10.6847 9.62 11.9991C9.62 13.3136 10.6856 14.3791 12 14.3791Z" fill="#211B2A"/>
<path d="M20 18.7503C19.84 18.7503 19.69 18.7003 19.55 18.6003C19.22 18.3503 19.15 17.8803 19.4 17.5503C20.61 15.9403 21.25 14.0203 21.25 12.0003C21.25 9.98027 20.61 8.06027 19.4 6.45027C19.15 6.12027 19.22 5.65027 19.55 5.40027C19.88 5.15027 20.35 5.22027 20.6 5.55027C22.01 7.42027 22.75 9.65027 22.75 12.0003C22.75 14.3503 22.01 16.5803 20.6 18.4503C20.45 18.6503 20.23 18.7503 20 18.7503Z" fill="#211B2A"/>
<path d="M4 18.7503C3.77 18.7503 3.55 18.6503 3.4 18.4503C1.99 16.5803 1.25 14.3503 1.25 12.0003C1.25 9.65027 1.99 7.42027 3.4 5.55027C3.65 5.22027 4.12 5.15027 4.45 5.40027C4.78 5.65027 4.85 6.12027 4.6 6.45027C3.39 8.06027 2.75 9.98027 2.75 12.0003C2.75 14.0203 3.39 15.9403 4.6 17.5503C4.85 17.8803 4.78 18.3503 4.45 18.6003C4.32 18.7003 4.16 18.7503 4 18.7503Z" fill="#211B2A"/>
<path d="M16.8 16.3507C16.64 16.3507 16.49 16.3007 16.35 16.2007C16.02 15.9507 15.95 15.4807 16.2 15.1507C16.89 14.2407 17.25 13.1507 17.25 12.0007C17.25 10.8507 16.89 9.76066 16.2 8.85066C15.95 8.52066 16.02 8.05066 16.35 7.80066C16.68 7.55066 17.15 7.62066 17.4 7.95066C18.28 9.13066 18.75 10.5307 18.75 12.0007C18.75 13.4707 18.28 14.8807 17.4 16.0507C17.25 16.2507 17.03 16.3507 16.8 16.3507Z" fill="#211B2A"/>
<path d="M7.2 16.3507C6.97 16.3507 6.75 16.2507 6.6 16.0507C5.72 14.8807 5.25 13.4707 5.25 12.0007C5.25 10.5307 5.72 9.12066 6.6 7.95066C6.85 7.62066 7.32 7.55066 7.65 7.80066C7.98 8.05066 8.05 8.52066 7.8 8.85066C7.11 9.76066 6.75 10.8507 6.75 12.0007C6.75 13.1507 7.11 14.2407 7.8 15.1507C8.05 15.4807 7.98 15.9507 7.65 16.2007C7.52 16.3007 7.36 16.3507 7.2 16.3507Z" fill="#211B2A"/>
</svg>
