<svg width="24" height="24" viewBox="0 0 24 24" fill="none" xmlns="http://www.w3.org/2000/svg">
<path opacity="0.4" d="M10.49 2.23055L5.50003 4.10056C4.35003 4.53056 3.41003 5.89055 3.41003 7.12055V14.5506C3.41003 15.7306 4.19005 17.2806 5.14005 17.9906L9.44003 21.2005C10.85 22.2605 13.17 22.2605 14.58 21.2005L18.88 17.9906C19.83 17.2806 20.61 15.7306 20.61 14.5506V7.12055C20.61 5.89055 19.67 4.53056 18.52 4.10056L13.53 2.23055C12.68 1.92055 11.32 1.92055 10.49 2.23055Z" fill="#211B2A"/>
<path d="M11.9 11.2993C11.92 11.2993 11.94 11.2993 11.96 11.2993H11.98H12C13.15 11.2593 14.05 10.3293 14.06 9.1693C14.06 7.9893 13.1 7.0293 11.92 7.0293C10.74 7.0293 9.78003 7.9893 9.78003 9.1693C9.80003 10.3193 10.7 11.2593 11.9 11.2993Z" fill="#211B2A"/>
<path d="M14.19 13.4086C12.98 12.6086 11.02 12.6086 9.80002 13.4086C9.24002 13.7886 8.91003 14.3286 8.91003 14.8886C8.91003 15.4586 9.23002 15.9786 9.80002 16.3586C10.41 16.7586 11.2 16.9686 11.99 16.9686C12.78 16.9686 13.58 16.7686 14.18 16.3586C14.74 15.9786 15.07 15.4386 15.07 14.8786C15.08 14.3086 14.76 13.7886 14.19 13.4086Z" fill="#211B2A"/>
</svg>
