<svg width="24" height="24" viewBox="0 0 24 24" fill="none" xmlns="http://www.w3.org/2000/svg">
<path d="M20.91 11.1203V6.73031C20.91 5.91031 20.29 4.98031 19.52 4.67031L13.95 2.39031C12.7 1.88031 11.29 1.88031 10.04 2.39031L4.46997 4.67031C3.70997 4.98031 3.08997 5.91031 3.08997 6.73031V11.1203C3.08997 16.0103 6.63997 20.5903 11.49 21.9303C11.82 22.0203 12.18 22.0203 12.51 21.9303C17.36 20.5903 20.91 16.0103 20.91 11.1203ZM12.75 12.8703V15.5003C12.75 15.9103 12.41 16.2503 12 16.2503C11.59 16.2503 11.25 15.9103 11.25 15.5003V12.8703C10.24 12.5503 9.49997 11.6103 9.49997 10.5003C9.49997 9.12031 10.62 8.00031 12 8.00031C13.38 8.00031 14.5 9.12031 14.5 10.5003C14.5 11.6203 13.76 12.5503 12.75 12.8703Z" fill="#211B2A"/>
</svg>
