<svg width="24" height="24" viewBox="0 0 24 24" fill="none" xmlns="http://www.w3.org/2000/svg">
<path d="M10.49 2.23055L5.50003 4.10054C4.35003 4.53054 3.41003 5.89053 3.41003 7.12053V14.5505C3.41003 15.7305 4.19005 17.2805 5.14005 17.9905L9.44003 21.2005C10.85 22.2605 13.17 22.2605 14.58 21.2005L18.88 17.9905C19.83 17.2805 20.61 15.7305 20.61 14.5505V7.12053C20.61 5.89053 19.67 4.53054 18.52 4.10054L13.53 2.23055C12.68 1.92055 11.32 1.92055 10.49 2.23055Z" stroke="#211B2A" stroke-width="1.5" stroke-linecap="round" stroke-linejoin="round"/>
<path opacity="0.4" d="M11.9999 10.9204C11.9599 10.9204 11.9099 10.9204 11.8699 10.9204C10.9299 10.8904 10.1799 10.1104 10.1799 9.1604C10.1799 8.1904 10.9699 7.40039 11.9399 7.40039C12.9099 7.40039 13.7 8.1904 13.7 9.1604C13.69 10.1204 12.9399 10.8904 11.9999 10.9204Z" stroke="#211B2A" stroke-width="1.5" stroke-linecap="round" stroke-linejoin="round"/>
<path opacity="0.4" d="M10.01 13.7194C9.05004 14.3594 9.05004 15.4094 10.01 16.0494C11.1 16.7794 12.89 16.7794 13.98 16.0494C14.94 15.4094 14.94 14.3594 13.98 13.7194C12.9 12.9894 11.11 12.9894 10.01 13.7194Z" stroke="#211B2A" stroke-width="1.5" stroke-linecap="round" stroke-linejoin="round"/>
</svg>
