<svg width="24" height="24" viewBox="0 0 24 24" fill="none" xmlns="http://www.w3.org/2000/svg">
<path d="M18.87 18.0003C19.82 17.2903 20.6 15.7403 20.6 14.5603V7.13033C20.6 5.90033 19.66 4.54031 18.51 4.11031L13.52 2.24031C12.69 1.93031 11.33 1.93031 10.5 2.24031L5.51004 4.11031C4.36004 4.54031 3.42004 5.90033 3.42004 7.13033V14.5603C3.42004 15.7403 4.20002 17.2903 5.15002 18.0003L9.45004 21.2103C10.86 22.2703 13.18 22.2703 14.59 21.2103L15.33 20.6503" stroke="#211B2A" stroke-width="1.5" stroke-linecap="round" stroke-linejoin="round"/>
<path d="M12.0001 10.9204C11.9601 10.9204 11.9101 10.9204 11.8701 10.9204C10.9301 10.8904 10.1801 10.1104 10.1801 9.1604C10.1801 8.1904 10.9701 7.40039 11.9401 7.40039C12.9101 7.40039 13.7001 8.1904 13.7001 9.1604C13.6901 10.1204 12.9401 10.8904 12.0001 10.9204Z" stroke="#211B2A" stroke-width="1.5" stroke-linecap="round" stroke-linejoin="round"/>
<path d="M10.01 13.7213C9.05004 14.3613 9.05004 15.4113 10.01 16.0513C11.1 16.7813 12.89 16.7813 13.98 16.0513C14.94 15.4113 14.94 14.3613 13.98 13.7213C12.9 12.9913 11.11 12.9913 10.01 13.7213Z" stroke="#211B2A" stroke-width="1.5" stroke-linecap="round" stroke-linejoin="round"/>
</svg>
