<svg width="24" height="24" viewBox="0 0 24 24" fill="none" xmlns="http://www.w3.org/2000/svg">
<path opacity="0.4" d="M20.91 11.1203C20.91 16.0103 17.36 20.5903 12.51 21.9303C12.18 22.0203 11.82 22.0203 11.49 21.9303C6.63996 20.5903 3.08997 16.0103 3.08997 11.1203V6.73028C3.08997 5.91028 3.70998 4.98028 4.47998 4.67028L10.05 2.39031C11.3 1.88031 12.71 1.88031 13.96 2.39031L19.53 4.67028C20.29 4.98028 20.92 5.91028 20.92 6.73028L20.91 11.1203Z" stroke="#211B2A" stroke-width="1.5" stroke-linecap="round" stroke-linejoin="round"/>
<path d="M10.04 2.39031C11.29 1.88031 12.7 1.88031 13.95 2.39031L19.52 4.67028C20.28 4.98028 20.91 5.91028 20.91 6.73028V11.1203C20.91 16.0103 17.36 20.5903 12.51 21.9303C12.18 22.0203 11.82 22.0203 11.49 21.9303C6.63996 20.5903 3.08997 16.0103 3.08997 11.1203" stroke="#211B2A" stroke-width="1.5" stroke-linecap="round" stroke-linejoin="round"/>
</svg>
