<svg width="24" height="24" viewBox="0 0 24 24" fill="none" xmlns="http://www.w3.org/2000/svg">
<path opacity="0.4" d="M20.91 11.1203C20.91 16.0103 17.36 20.5903 12.51 21.9303C12.18 22.0203 11.82 22.0203 11.49 21.9303C6.63996 20.5903 3.08997 16.0103 3.08997 11.1203V6.73031C3.08997 5.91031 3.70998 4.98031 4.47998 4.67031L10.05 2.39031C11.3 1.88031 12.71 1.88031 13.96 2.39031L19.53 4.67031C20.29 4.98031 20.92 5.91031 20.92 6.73031L20.91 11.1203Z" fill="#211B2A"/>
<path d="M14.5 10.5C14.5 9.12 13.38 8 12 8C10.62 8 9.5 9.12 9.5 10.5C9.5 11.62 10.24 12.55 11.25 12.87V15.5C11.25 15.91 11.59 16.25 12 16.25C12.41 16.25 12.75 15.91 12.75 15.5V12.87C13.76 12.55 14.5 11.62 14.5 10.5Z" fill="#211B2A"/>
</svg>
