<svg width="24" height="24" viewBox="0 0 24 24" fill="none" xmlns="http://www.w3.org/2000/svg">
<path d="M20.59 10.5505V7.12055C20.59 5.89055 19.65 4.53055 18.5 4.10055L13.51 2.23055C12.68 1.92055 11.32 1.92055 10.49 2.23055L5.5 4.11055C4.35 4.54055 3.41 5.90055 3.41 7.12055V14.5505C3.41 15.7305 4.19 17.2805 5.14 17.9905L9.44 21.2005C10.14 21.7405 11.07 22.0005 12 22.0005" stroke="#211B2A" stroke-width="1.5" stroke-linecap="round" stroke-linejoin="round"/>
<path d="M16 20C18.2091 20 20 18.2091 20 16C20 13.7909 18.2091 12 16 12C13.7909 12 12 13.7909 12 16C12 18.2091 13.7909 20 16 20Z" stroke="#211B2A" stroke-width="1.5" stroke-linecap="round" stroke-linejoin="round"/>
<path d="M20.9955 21H21.0045" stroke="#211B2A" stroke-width="2" stroke-linecap="round" stroke-linejoin="round"/>
</svg>
