<svg width="24" height="24" viewBox="0 0 24 24" fill="none" xmlns="http://www.w3.org/2000/svg">
<path d="M18.54 4.17063L13.04 2.11062C12.47 1.90063 11.54 1.90063 10.97 2.11062L5.46999 4.17063C4.40999 4.57063 3.54999 5.81063 3.54999 6.94063V15.0406C3.54999 15.8506 4.07999 16.9206 4.72999 17.4006L10.23 21.5106C11.2 22.2406 12.79 22.2406 13.76 21.5106L19.26 17.4006C19.91 16.9106 20.44 15.8506 20.44 15.0406V6.94063C20.45 5.81063 19.59 4.57063 18.54 4.17063ZM12.75 12.8706V15.5006C12.75 15.9106 12.41 16.2506 12 16.2506C11.59 16.2506 11.25 15.9106 11.25 15.5006V12.8706C10.24 12.5506 9.49999 11.6106 9.49999 10.5006C9.49999 9.12062 10.62 8.00063 12 8.00063C13.38 8.00063 14.5 9.12062 14.5 10.5006C14.5 11.6206 13.76 12.5506 12.75 12.8706Z" fill="#211B2A"/>
</svg>
