<svg width="24" height="24" viewBox="0 0 24 24" fill="none" xmlns="http://www.w3.org/2000/svg">
<path opacity="0.4" d="M10.96 2.1094L5.45999 4.1694C4.40999 4.5694 3.54999 5.8094 3.54999 6.9394V15.0394C3.54999 15.8494 4.07999 16.9194 4.72999 17.3994L10.23 21.5094C11.2 22.2394 12.79 22.2394 13.76 21.5094L19.26 17.3994C19.91 16.9094 20.44 15.8494 20.44 15.0394V6.9394C20.44 5.8194 19.58 4.5694 18.53 4.1794L13.03 2.1194C12.47 1.8994 11.53 1.8994 10.96 2.1094Z" fill="#211B2A"/>
<path d="M14.5 10.5C14.5 9.12 13.38 8 12 8C10.62 8 9.5 9.12 9.5 10.5C9.5 11.62 10.24 12.55 11.25 12.87V15.5C11.25 15.91 11.59 16.25 12 16.25C12.41 16.25 12.75 15.91 12.75 15.5V12.87C13.76 12.55 14.5 11.62 14.5 10.5Z" fill="#211B2A"/>
</svg>
