<svg width="24" height="24" viewBox="0 0 24 24" fill="none" xmlns="http://www.w3.org/2000/svg">
<path d="M12 22.7595C10.91 22.7595 9.83002 22.4395 8.98002 21.8095L4.68002 18.5995C3.54002 17.7495 2.65002 15.9695 2.65002 14.5595V7.11945C2.65002 5.57945 3.78002 3.93945 5.23002 3.39945L10.22 1.52945C11.21 1.15945 12.77 1.15945 13.76 1.52945L18.75 3.39945C20.2 3.93945 21.33 5.57945 21.33 7.11945V14.5495C21.33 15.9695 20.44 17.7395 19.3 18.5895L15 21.7995C14.17 22.4395 13.09 22.7595 12 22.7595ZM10.75 2.93945L5.76002 4.80945C4.91002 5.12945 4.16002 6.20945 4.16002 7.12945V14.5595C4.16002 15.5095 4.83002 16.8395 5.58002 17.3995L9.88002 20.6095C11.03 21.4695 12.97 21.4695 14.13 20.6095L18.43 17.3995C19.19 16.8295 19.85 15.5095 19.85 14.5595V7.11945C19.85 6.20945 19.1 5.12945 18.25 4.79945L13.26 2.92945C12.58 2.68945 11.42 2.68945 10.75 2.93945Z" fill="#211B2A"/>
</svg>
