<svg width="24" height="24" viewBox="0 0 24 24" fill="none" xmlns="http://www.w3.org/2000/svg">
<path opacity="0.4" d="M9.96 2.1094L4.46 4.1694C3.41 4.5694 2.55 5.8094 2.55 6.9394V15.0394C2.55 15.8494 3.08 16.9194 3.73 17.3994L9.23 21.5094C10.2 22.2394 11.79 22.2394 12.76 21.5094L18.26 17.3994C18.91 16.9094 19.44 15.8494 19.44 15.0394V6.9394C19.44 5.8194 18.58 4.5694 17.53 4.1794L12.03 2.1194C11.47 1.8994 10.53 1.8994 9.96 2.1094Z" fill="#211B2A"/>
<path d="M16 11.5098C13.52 11.5098 11.5 13.5298 11.5 16.0098C11.5 18.4898 13.52 20.5098 16 20.5098C18.48 20.5098 20.5 18.4898 20.5 16.0098C20.5 13.5198 18.48 11.5098 16 11.5098Z" fill="#211B2A"/>
<path d="M21 22.0009C20.73 22.0009 20.48 21.8909 20.29 21.7109C20.25 21.6609 20.2 21.6109 20.17 21.5509C20.13 21.5009 20.1 21.4409 20.08 21.3809C20.05 21.3209 20.03 21.2609 20.02 21.2009C20.01 21.1309 20 21.0709 20 21.0009C20 20.8709 20.03 20.7409 20.08 20.6209C20.13 20.4909 20.2 20.3909 20.29 20.2909C20.52 20.0609 20.87 19.9509 21.19 20.0209C21.26 20.0309 21.32 20.0509 21.38 20.0809C21.44 20.1009 21.5 20.1309 21.55 20.1709C21.61 20.2009 21.66 20.2509 21.71 20.2909C21.8 20.3909 21.87 20.4909 21.92 20.6209C21.97 20.7409 22 20.8709 22 21.0009C22 21.2609 21.89 21.5209 21.71 21.7109C21.66 21.7509 21.61 21.7909 21.55 21.8309C21.5 21.8709 21.44 21.9009 21.38 21.9209C21.32 21.9509 21.26 21.9709 21.19 21.9809C21.13 21.9909 21.06 22.0009 21 22.0009Z" fill="#211B2A"/>
</svg>
