<svg width="24" height="24" viewBox="0 0 24 24" fill="none" xmlns="http://www.w3.org/2000/svg">
<path d="M12 22.7495C10.87 22.7495 9.78999 22.4195 8.97999 21.8095L4.67999 18.5995C3.53999 17.7495 2.64999 15.9795 2.64999 14.5595V7.11945C2.64999 5.57945 3.77999 3.93945 5.22999 3.39945L10.22 1.52945C11.21 1.15945 12.77 1.15945 13.76 1.52945L18.76 3.39945C20.21 3.93945 21.34 5.57945 21.34 7.11945V10.5495C21.34 10.9595 21 11.2995 20.59 11.2995C20.18 11.2995 19.84 10.9595 19.84 10.5495V7.11945C19.84 6.20945 19.09 5.12945 18.23 4.79945L13.24 2.92945C12.58 2.67945 11.41 2.67945 10.75 2.92945L5.75999 4.80945C4.89999 5.12945 4.14999 6.20945 4.14999 7.12945V14.5595C4.14999 15.5095 4.81999 16.8395 5.56999 17.3995L9.86999 20.6095C10.42 21.0195 11.19 21.2495 11.99 21.2495C12.4 21.2495 12.74 21.5895 12.74 21.9995C12.74 22.4095 12.41 22.7495 12 22.7495Z" fill="#211B2A"/>
<path d="M16 20.75C13.38 20.75 11.25 18.62 11.25 16C11.25 13.38 13.38 11.25 16 11.25C18.62 11.25 20.75 13.38 20.75 16C20.75 18.62 18.62 20.75 16 20.75ZM16 12.76C14.21 12.76 12.75 14.22 12.75 16.01C12.75 17.8 14.21 19.26 16 19.26C17.79 19.26 19.25 17.8 19.25 16.01C19.25 14.22 17.79 12.76 16 12.76Z" fill="#211B2A"/>
<path d="M21 21.9992C20.93 21.9992 20.87 21.9892 20.8 21.9792C20.74 21.9692 20.68 21.9492 20.62 21.9192C20.56 21.8992 20.5 21.8692 20.44 21.8292C20.39 21.7892 20.34 21.7492 20.29 21.7092C20.11 21.5192 20 21.2592 20 20.9992C20 20.8692 20.03 20.7392 20.08 20.6192C20.13 20.4992 20.2 20.3892 20.29 20.2892C20.66 19.9192 21.34 19.9192 21.71 20.2892C21.8 20.3892 21.87 20.4992 21.92 20.6192C21.97 20.7392 22 20.8692 22 20.9992C22 21.2592 21.89 21.5192 21.71 21.7092C21.52 21.8892 21.26 21.9992 21 21.9992Z" fill="#211B2A"/>
</svg>
