<svg width="24" height="24" viewBox="0 0 24 24" fill="none" xmlns="http://www.w3.org/2000/svg">
<path d="M12 8.5C10.9 8.5 10 9.4 10 10.5C10 11.6 10.9 12.5 12 12.5C13.1 12.5 14 11.6 14 10.5" stroke="#211B2A" stroke-width="1.5" stroke-miterlimit="10" stroke-linecap="round" stroke-linejoin="round"/>
<path d="M12 12.5V15.5" stroke="#211B2A" stroke-width="1.5" stroke-miterlimit="10" stroke-linecap="round" stroke-linejoin="round"/>
<path d="M20.59 7.12055C20.59 5.89055 19.65 4.53055 18.5 4.10055L13.51 2.23055C12.68 1.92055 11.32 1.92055 10.49 2.23055L5.5 4.11055C4.35 4.54055 3.41 5.90055 3.41 7.12055V14.5505C3.41 15.7305 4.19 17.2805 5.14 17.9905L9.44 21.2005C10.85 22.2605 13.17 22.2605 14.58 21.2005L18.88 17.9905C19.83 17.2805 20.61 15.7305 20.61 14.5505V11.0305" stroke="#211B2A" stroke-width="1.5" stroke-linecap="round" stroke-linejoin="round"/>
</svg>
