<svg width="24" height="24" viewBox="0 0 24 24" fill="none" xmlns="http://www.w3.org/2000/svg">
<path d="M12 22.7595C10.91 22.7595 9.82999 22.4395 8.97999 21.8095L4.67999 18.5995C3.53999 17.7495 2.64999 15.9795 2.64999 14.5595V7.11945C2.64999 5.57945 3.77999 3.93945 5.22999 3.39945L10.22 1.52945C11.21 1.15945 12.77 1.15945 13.76 1.52945L18.76 3.39945C20.21 3.93945 21.34 5.57945 21.34 7.11945V14.5495C21.34 15.9695 20.45 17.7395 19.31 18.5895L15.01 21.7995C14.17 22.4395 13.09 22.7595 12 22.7595ZM10.75 2.93945L5.75999 4.80945C4.89999 5.12945 4.14999 6.20945 4.14999 7.12945V14.5595C4.14999 15.5095 4.81999 16.8395 5.56999 17.3995L9.86999 20.6095C11.02 21.4695 12.97 21.4695 14.12 20.6095L18.42 17.3995C19.18 16.8295 19.84 15.4995 19.84 14.5595V7.11945C19.84 6.20945 19.09 5.12945 18.23 4.79945L13.24 2.92945C12.58 2.68945 11.42 2.68945 10.75 2.93945Z" fill="#211B2A"/>
<path d="M12 13.25C10.48 13.25 9.25 12.02 9.25 10.5C9.25 8.98 10.48 7.75 12 7.75C13.52 7.75 14.75 8.98 14.75 10.5C14.75 12.02 13.52 13.25 12 13.25ZM12 9.25C11.31 9.25 10.75 9.81 10.75 10.5C10.75 11.19 11.31 11.75 12 11.75C12.69 11.75 13.25 11.19 13.25 10.5C13.25 9.81 12.69 9.25 12 9.25Z" fill="#211B2A"/>
<path d="M12 16.25C11.59 16.25 11.25 15.91 11.25 15.5V12.5C11.25 12.09 11.59 11.75 12 11.75C12.41 11.75 12.75 12.09 12.75 12.5V15.5C12.75 15.91 12.41 16.25 12 16.25Z" fill="#211B2A"/>
</svg>
