<svg width="24" height="24" viewBox="0 0 24 24" fill="none" xmlns="http://www.w3.org/2000/svg">
<path d="M20.41 6.95945V8.78945C20.41 9.42945 20.11 10.0295 19.59 10.3995L8.58997 18.4595C7.87997 18.9795 6.90997 18.9795 6.20997 18.4495L4.76997 17.3695C4.11997 16.8795 3.58997 15.8195 3.58997 15.0095V6.95945C3.58997 5.83945 4.44997 4.59945 5.49997 4.20945L10.97 2.15945C11.54 1.94945 12.46 1.94945 13.03 2.15945L18.5 4.20945C19.55 4.59945 20.41 5.83945 20.41 6.95945Z" fill="#211B2A"/>
<path d="M18.82 12.3394C19.48 11.8594 20.41 12.3294 20.41 13.1494V15.0294C20.41 15.8394 19.88 16.8894 19.23 17.3794L13.76 21.4694C13.28 21.8194 12.64 21.9994 12 21.9994C11.36 21.9994 10.72 21.8194 10.24 21.4594L9.40998 20.8394C8.86998 20.4394 8.86998 19.6294 9.41998 19.2294L18.82 12.3394Z" fill="#211B2A"/>
</svg>
