<svg width="24" height="24" viewBox="0 0 24 24" fill="none" xmlns="http://www.w3.org/2000/svg">
<path opacity="0.4" d="M10.96 2.06057L5.45999 4.12057C4.40999 4.52057 3.54999 5.76057 3.54999 6.89057V14.9906C3.54999 15.8006 4.07999 16.8706 4.72999 17.3506L10.23 21.4606C11.2 22.1906 12.79 22.1906 13.76 21.4606L19.26 17.3506C19.91 16.8606 20.44 15.8006 20.44 14.9906V6.89057C20.44 5.77057 19.58 4.52057 18.53 4.13057L13.03 2.07057C12.47 1.85057 11.53 1.85057 10.96 2.06057Z" fill="#211B2A"/>
<path d="M14.68 12.9106L13.09 11.3206L14.64 9.77063C14.93 9.48063 14.93 9.00062 14.64 8.71062C14.35 8.42062 13.87 8.42062 13.58 8.71062L12.03 10.2606L10.44 8.67063C10.15 8.38063 9.66999 8.38063 9.37999 8.67063C9.08999 8.96062 9.08999 9.44062 9.37999 9.73062L10.97 11.3206L9.32999 12.9606C9.03999 13.2506 9.03999 13.7306 9.32999 14.0206C9.47999 14.1706 9.66999 14.2406 9.85999 14.2406C10.05 14.2406 10.24 14.1706 10.39 14.0206L12.03 12.3806L13.62 13.9706C13.77 14.1206 13.96 14.1906 14.15 14.1906C14.34 14.1906 14.53 14.1206 14.68 13.9706C14.97 13.6706 14.97 13.2006 14.68 12.9106Z" fill="#211B2A"/>
</svg>
