<svg width="24" height="24" viewBox="0 0 24 24" fill="none" xmlns="http://www.w3.org/2000/svg">
<path d="M12 22.7591C10.91 22.7591 9.82999 22.4391 8.97999 21.8091L7.38999 20.6191C7.05999 20.3691 6.98999 19.8991 7.23999 19.5691C7.48999 19.2391 7.95999 19.1691 8.28999 19.4191L9.87999 20.6091C11.03 21.4691 12.98 21.4691 14.13 20.6091L18.43 17.3991C19.19 16.8291 19.85 15.4991 19.85 14.5591V7.11914C19.85 6.70914 20.19 6.36914 20.6 6.36914C21.01 6.36914 21.35 6.70914 21.35 7.11914V14.5491C21.35 15.9691 20.46 17.7391 19.32 18.5891L15.02 21.7991C14.17 22.4391 13.09 22.7591 12 22.7591Z" fill="#211B2A"/>
<path d="M5.32999 18.8995C5.16999 18.8995 5.01999 18.8495 4.87999 18.7495L4.67999 18.5995C3.53999 17.7495 2.64999 15.9695 2.64999 14.5595V7.11945C2.64999 5.57945 3.77999 3.93945 5.22999 3.39945L10.22 1.52945C11.21 1.15945 12.77 1.15945 13.76 1.52945L18.76 3.39945C18.97 3.47945 19.17 3.57945 19.37 3.69945C19.72 3.91945 19.83 4.37945 19.61 4.72945C19.39 5.07945 18.93 5.18945 18.58 4.96945C18.47 4.89945 18.36 4.83945 18.24 4.79945L13.24 2.92945C12.58 2.67945 11.41 2.67945 10.75 2.92945L5.75999 4.80945C4.89999 5.12945 4.14999 6.20945 4.14999 7.12945V14.5595C4.14999 15.5095 4.81999 16.8395 5.56999 17.3995L5.76999 17.5495C6.09999 17.7995 6.16999 18.2695 5.91999 18.5995C5.78999 18.7895 5.55999 18.8995 5.32999 18.8995Z" fill="#211B2A"/>
<path d="M2 22.7495C1.81 22.7495 1.62 22.6795 1.47 22.5295C1.18 22.2395 1.18 21.7595 1.47 21.4695L21.47 1.46945C21.76 1.17945 22.24 1.17945 22.53 1.46945C22.82 1.75945 22.82 2.23945 22.53 2.52945L2.53 22.5295C2.38 22.6795 2.19 22.7495 2 22.7495Z" fill="#211B2A"/>
</svg>
