<svg width="24" height="24" viewBox="0 0 24 24" fill="none" xmlns="http://www.w3.org/2000/svg">
<path opacity="0.4" d="M19.36 4.63984L5.82999 18.1698L4.72999 17.3498C4.07999 16.8598 3.54999 15.7998 3.54999 14.9798V6.88984C3.54999 5.75984 4.40999 4.51984 5.45999 4.11984L10.96 2.05984C11.53 1.84984 12.47 1.84984 13.04 2.05984L18.54 4.11984C18.83 4.22984 19.11 4.40984 19.36 4.63984Z" fill="#211B2A"/>
<path opacity="0.4" d="M20.45 6.89008V14.9801C20.45 15.8001 19.92 16.8601 19.27 17.3501L13.77 21.4601C12.79 22.1801 11.21 22.1801 10.23 21.4601L7.54001 19.4601L20.42 6.58008C20.44 6.68008 20.45 6.79008 20.45 6.89008Z" fill="#211B2A"/>
<path d="M21.77 2.23086C21.47 1.93086 20.98 1.93086 20.68 2.23086L2.23 20.6909C1.93 20.9909 1.93 21.4809 2.23 21.7809C2.38 21.9209 2.57 22.0009 2.77 22.0009C2.97 22.0009 3.16 21.9209 3.31 21.7709L21.77 3.31086C22.08 3.01086 22.08 2.53086 21.77 2.23086Z" fill="#211B2A"/>
</svg>
