<svg width="24" height="24" viewBox="0 0 24 24" fill="none" xmlns="http://www.w3.org/2000/svg">
<path opacity="0.4" d="M20.41 6.95945V9.79945L7.39997 19.3395L4.76997 17.3695C4.11997 16.8795 3.58997 15.8295 3.58997 15.0195V6.95945C3.58997 5.83945 4.44997 4.59945 5.49997 4.20945L10.97 2.15945C11.54 1.94945 12.46 1.94945 13.03 2.15945L18.5 4.20945C19.55 4.59945 20.41 5.83945 20.41 6.95945Z" fill="#211B2A"/>
<path d="M20.41 11.1699V15.0199C20.41 15.8299 19.88 16.8799 19.23 17.3699L13.76 21.4599C13.28 21.8199 12.64 21.9999 12 21.9999C11.36 21.9999 10.72 21.8199 10.24 21.4599L8.32001 20.0299L20.41 11.1699Z" fill="#211B2A"/>
</svg>
