<svg width="24" height="24" viewBox="0 0 24 24" fill="none" xmlns="http://www.w3.org/2000/svg">
<path d="M17.45 22.7497C16.32 22.7497 15.13 22.4797 13.9 21.9597C12.7 21.4497 11.49 20.7497 10.31 19.8997L9.86999 19.5697C9.53999 19.3197 9.47999 18.8497 9.72999 18.5197C9.97999 18.1897 10.45 18.1297 10.78 18.3797L11.2 18.6897C12.28 19.4797 13.39 20.1197 14.49 20.5797C16.2 21.3097 17.8 21.4797 19.12 20.9297C19.63 20.7197 20.08 20.3997 20.49 19.9397C20.72 19.6897 20.9 19.4197 21.05 19.0997C21.17 18.8497 21.23 18.5897 21.23 18.3297C21.23 18.1697 21.2 18.0097 21.12 17.8297C21.1 17.7797 21.03 17.6597 20.84 17.5297L17.52 15.1697C17.32 15.0297 17.14 14.9297 16.97 14.8597C16.71 14.7597 16.54 14.7497 16.32 14.8897C16.12 14.9897 15.94 15.1397 15.74 15.3397L14.98 16.0897C14.59 16.4697 13.99 16.5597 13.53 16.3897C13.51 16.3797 13.41 16.3397 13.39 16.3297C13.38 16.3197 13.27 16.2797 13.26 16.2697C13.04 16.1597 12.8 15.9997 12.52 15.7997C12.19 15.5597 12.11 15.0897 12.35 14.7497C12.59 14.4097 13.06 14.3397 13.4 14.5797C13.61 14.7297 13.8 14.8497 13.96 14.9397L13.95 14.9997L14.68 14.2697C14.99 13.9597 15.29 13.7297 15.58 13.5797C16.13 13.2397 16.83 13.1797 17.53 13.4697C17.79 13.5797 18.07 13.7297 18.37 13.9397L21.69 16.2997C22.05 16.5497 22.33 16.8697 22.49 17.2497C22.64 17.6297 22.71 17.9797 22.71 18.3297C22.71 18.8097 22.6 19.2897 22.39 19.7397C22.18 20.1897 21.92 20.5797 21.59 20.9397C21.02 21.5697 20.4 22.0197 19.68 22.3097C18.99 22.5997 18.24 22.7497 17.45 22.7497ZM13.95 15.0097L13.79 15.6897L14.06 14.9897C14.02 14.9797 13.97 14.9897 13.95 15.0097Z" fill="#211B2A"/>
<path d="M7.47 17.24C7.28 17.24 7.08 17.17 6.94 17.02C5.89 15.96 4.92 14.83 4.08 13.66C3.22 12.46 2.53 11.27 2.04 10.1C1.51 8.87 1.25 7.67 1.25 6.54C1.25 5.76 1.39 5.02 1.66 4.33C1.95 3.61 2.39 2.96 3 2.39C3.77 1.64 4.65 1.25 5.59 1.25C5.98 1.25 6.38 1.34 6.72 1.5C7.11 1.68 7.44 1.95 7.68 2.31L10 5.58C10.21 5.87 10.37 6.15 10.48 6.43C10.61 6.73 10.68 7.03 10.68 7.32C10.68 7.7 10.57 8.07 10.36 8.42C10.21 8.69 9.98 8.98 9.69 9.27L9.01 9.98C9.02 10.01 9.03 10.03 9.04 10.05C9.16 10.26 9.4 10.62 9.86 11.16C10.34 11.72 10.81 12.22 11.27 12.7C11.56 13 11.56 13.47 11.26 13.76C10.96 14.05 10.49 14.05 10.2 13.75C9.71 13.25 9.23 12.72 8.72 12.13C8.25 11.58 7.91 11.11 7.7 10.72C7.68 10.68 7.66 10.64 7.65 10.6L7.58 10.43C7.52 10.21 7.5 10.08 7.5 9.94C7.5 9.58 7.63 9.26 7.88 9.01L8.63 8.23C8.83 8.03 8.98 7.84 9.08 7.67C9.16 7.54 9.19 7.43 9.19 7.33C9.19 7.25 9.16 7.13 9.11 7.01C9.03 6.82 8.92 6.65 8.78 6.45L6.46 3.17C6.36 3.03 6.24 2.93 6.09 2.86C5.94 2.79 5.77 2.75 5.59 2.75C5.04 2.75 4.53 2.99 4.04 3.47C3.59 3.9 3.26 4.37 3.06 4.88C2.85 5.4 2.75 5.95 2.75 6.54C2.75 7.47 2.97 8.48 3.41 9.52C3.86 10.58 4.49 11.68 5.29 12.78C6.09 13.88 7 14.95 8 15.96C8.29 16.25 8.29 16.73 8 17.02C7.85 17.17 7.66 17.24 7.47 17.24Z" fill="#211B2A"/>
<path d="M1.99994 22.7504C1.80994 22.7504 1.61994 22.6804 1.46994 22.5304C1.17994 22.2404 1.17994 21.7604 1.46994 21.4704L21.4699 1.47043C21.7599 1.18043 22.2399 1.18043 22.5299 1.47043C22.8199 1.76043 22.8199 2.24043 22.5299 2.53043L2.52994 22.5304C2.37994 22.6804 2.18994 22.7504 1.99994 22.7504Z" fill="#211B2A"/>
</svg>
