<svg width="24" height="24" viewBox="0 0 24 24" fill="none" xmlns="http://www.w3.org/2000/svg">
<path d="M10.32 18.97C10.46 19.08 10.6 19.18 10.75 19.29C11.89 20.12 13.04 20.78 14.19 21.27C15.34 21.76 16.43 22 17.45 22C18.15 22 18.8 21.87 19.4 21.62C20.01 21.37 20.55 20.98 21.04 20.44C21.33 20.12 21.55 19.78 21.72 19.42C21.89 19.06 21.97 18.69 21.97 18.33C21.97 18.05 21.91 17.8 21.81 17.55C21.7 17.3 21.52 17.09 21.26 16.91L17.95 14.56C17.7 14.39 17.47 14.26 17.25 14.17C17.03 14.08 16.83 14.04 16.64 14.04C16.39 14.04 16.16 14.11 15.93 14.25C15.7 14.37 15.46 14.56 15.21 14.81L14.45 15.56C14.34 15.67 14.21 15.73 14.04 15.73C13.95 15.73 13.87 15.72 13.79 15.69C13.72 15.66 13.66 15.63 13.61 15.61C13.42 15.51 13.2 15.37 12.96 15.19" stroke="#211B2A" stroke-width="1.5" stroke-miterlimit="10" stroke-linecap="round" stroke-linejoin="round"/>
<path d="M7.07 2.74C6.89 2.48 6.66 2.3 6.4 2.18C6.15 2.06 5.87 2 5.59 2C4.85 2 4.15 2.31 3.51 2.94C2.98 3.44 2.6 4 2.36 4.61C2.12 5.21 2 5.86 2 6.54C2 7.58 2.24 8.67 2.72 9.81C3.2 10.94 3.86 12.08 4.68 13.22C5.51 14.36 6.44 15.45 7.47 16.49" stroke="#211B2A" stroke-width="1.5" stroke-miterlimit="10" stroke-linecap="round" stroke-linejoin="round"/>
<path d="M10.73 13.22C10.21 12.69 9.73001 12.16 9.28001 11.64C8.84001 11.12 8.53001 10.69 8.35001 10.36C8.33001 10.3 8.30001 10.24 8.27001 10.16C8.25001 10.08 8.24001 10.01 8.24001 9.93001C8.24001 9.77001 8.29001 9.64001 8.40001 9.53001L9.16001 8.74001C9.40001 8.50001 9.59001 8.26001 9.72001 8.03001C9.86001 7.80001 9.93001 7.56001 9.93001 7.32001C9.93001 7.13001 9.88001 6.92001 9.79001 6.71001C9.70001 6.49001 9.57001 6.26001 9.39001 6.01001" stroke="#211B2A" stroke-width="1.5" stroke-miterlimit="10" stroke-linecap="round" stroke-linejoin="round"/>
<path d="M22 2L2 22" stroke="#211B2A" stroke-width="1.5" stroke-linecap="round" stroke-linejoin="round"/>
</svg>
