<svg width="24" height="24" viewBox="0 0 24 24" fill="none" xmlns="http://www.w3.org/2000/svg">
<path d="M12 2V9L14 7" stroke="#211B2A" stroke-width="1.5" stroke-linecap="round" stroke-linejoin="round"/>
<path d="M12 9L10 7" stroke="#211B2A" stroke-width="1.5" stroke-linecap="round" stroke-linejoin="round"/>
<path d="M1.98001 13H6.39001C6.77001 13 7.11001 13.21 7.28001 13.55L8.45001 15.89C8.79001 16.57 9.48001 17 10.24 17H13.77C14.53 17 15.22 16.57 15.56 15.89L16.73 13.55C16.9 13.21 17.25 13 17.62 13H21.98" stroke="#211B2A" stroke-width="1.5" stroke-linecap="round" stroke-linejoin="round"/>
<path d="M2.69 18.9999C3.65 21.0999 5.65 21.9999 9 21.9999H15C20 21.9999 22 19.9999 22 14.9999V10.9999C22 6.72988 20.54 4.64988 17 4.12988" stroke="#211B2A" stroke-width="1.5" stroke-linecap="round" stroke-linejoin="round"/>
<path d="M7 4.12988C3.46 4.64988 2 6.72988 2 10.9999V14.9999" stroke="#211B2A" stroke-width="1.5" stroke-linecap="round" stroke-linejoin="round"/>
</svg>
