<svg width="24" height="24" viewBox="0 0 24 24" fill="none" xmlns="http://www.w3.org/2000/svg">
<path d="M18.69 11.5298C18.12 11.3798 17.45 11.2998 16.65 11.2998C15.54 11.2998 15.13 11.5698 14.56 11.9998C14.53 12.0198 14.5 12.0498 14.47 12.0798L13.52 13.0898C12.73 13.9398 11.28 13.9398 10.48 13.0898L9.52999 12.0898C9.49999 12.0498 9.46999 12.0198 9.43999 11.9998C8.85999 11.5698 8.44999 11.2998 7.34999 11.2998C6.54999 11.2998 5.87999 11.3698 5.30999 11.5298C2.92999 12.1698 2.92999 14.0598 2.92999 15.7198V16.6498C2.92999 19.1598 2.92999 21.9998 8.27999 21.9998H15.72C19.27 21.9998 21.07 20.1998 21.07 16.6498V15.7198C21.07 14.0598 21.07 12.1698 18.69 11.5298Z" fill="#211B2A"/>
<path opacity="0.4" d="M14.79 2H9.20998C4.78998 2 4.78998 4.35 4.78998 6.42V12.21C4.78998 12.43 4.88998 12.63 5.05998 12.76C5.22998 12.89 5.45998 12.94 5.66998 12.88C6.11998 12.76 6.67998 12.7 7.34998 12.7C8.01998 12.7 8.15998 12.78 8.55998 13.08L9.46998 14.04C10.12 14.74 11.05 15.14 12.01 15.14C12.97 15.14 13.89 14.74 14.55 14.04L15.46 13.08C15.86 12.78 16 12.7 16.67 12.7C17.34 12.7 17.9 12.76 18.35 12.88C18.56 12.94 18.78 12.89 18.96 12.76C19.13 12.63 19.23 12.42 19.23 12.21V6.42C19.21 4.35 19.21 2 14.79 2Z" fill="#211B2A"/>
<path d="M13.55 9.90977H10.45C10.06 9.90977 9.75 9.59977 9.75 9.20977C9.75 8.81977 10.06 8.50977 10.45 8.50977H13.55C13.94 8.50977 14.25 8.81977 14.25 9.20977C14.25 9.58977 13.93 9.90977 13.55 9.90977Z" fill="#211B2A"/>
<path d="M14.33 7.12021H9.66997C9.27997 7.12021 8.96997 6.81022 8.96997 6.42022C8.96997 6.03022 9.27997 5.72021 9.66997 5.72021H14.32C14.71 5.72021 15.02 6.03022 15.02 6.42022C15.02 6.80022 14.71 7.12021 14.33 7.12021Z" fill="#211B2A"/>
</svg>
