<svg width="24" height="24" viewBox="0 0 24 24" fill="none" xmlns="http://www.w3.org/2000/svg">
<path opacity="0.4" d="M14.79 4H9.20998C4.78998 4 4.78998 6.35 4.78998 8.42V12.21C4.78998 12.43 4.88998 12.63 5.05998 12.76C5.22998 12.89 5.45998 12.94 5.66998 12.88C6.11998 12.76 6.67998 12.7 7.34998 12.7C8.01998 12.7 8.15998 12.78 8.55998 13.08L9.46998 14.04C10.12 14.74 11.05 15.14 12.01 15.14C12.97 15.14 13.89 14.74 14.55 14.04L15.46 13.08C15.86 12.78 16 12.7 16.67 12.7C17.34 12.7 17.9 12.76 18.35 12.88C18.56 12.94 18.78 12.89 18.96 12.76C19.13 12.63 19.23 12.42 19.23 12.21V8.42C19.21 6.35 19.21 4 14.79 4Z" fill="#211B2A"/>
<path d="M14.275 6.8C14.015 6.54 13.585 6.54 13.325 6.8L12.675 7.45V2.67C12.675 2.3 12.365 2 11.995 2C11.625 2 11.315 2.3 11.315 2.67V7.44L10.675 6.8C10.415 6.54 9.98503 6.54 9.72503 6.8C9.46503 7.06 9.46503 7.49 9.72503 7.75L11.525 9.55C11.535 9.56 11.535 9.56 11.545 9.56C11.605 9.61 11.665 9.66 11.745 9.69C11.825 9.72 11.915 9.74 12.005 9.74C12.095 9.74 12.175 9.72 12.265 9.69C12.345 9.66 12.425 9.61 12.485 9.54L14.285 7.74C14.535 7.49 14.535 7.06 14.275 6.8Z" fill="#211B2A"/>
<path d="M18.69 11.5298C18.12 11.3798 17.45 11.2998 16.65 11.2998C15.54 11.2998 15.13 11.5698 14.56 11.9998C14.53 12.0198 14.5 12.0498 14.47 12.0798L13.52 13.0898C12.72 13.9298 11.28 13.9398 10.48 13.0798L9.52999 12.0798C9.49999 12.0498 9.46999 12.0198 9.43999 11.9998C8.86999 11.5698 8.45999 11.2998 7.34999 11.2998C6.54999 11.2998 5.87999 11.3798 5.30999 11.5298C2.92999 12.1698 2.92999 14.0598 2.92999 15.7198V16.6498C2.92999 19.1598 2.92999 21.9998 8.27999 21.9998H15.72C19.27 21.9998 21.07 20.1998 21.07 16.6498V15.7198C21.07 14.0598 21.07 12.1698 18.69 11.5298ZM14.33 18.3998H9.66999C9.28999 18.3998 8.97999 18.0898 8.97999 17.6998C8.97999 17.3098 9.28999 16.9998 9.66999 16.9998H14.33C14.71 16.9998 15.02 17.3098 15.02 17.6998C15.02 18.0898 14.71 18.3998 14.33 18.3998Z" fill="#211B2A"/>
<path opacity="0.4" d="M15.02 17.7C15.02 18.09 14.71 18.4 14.33 18.4H9.66998C9.28998 18.4 8.97998 18.09 8.97998 17.7C8.97998 17.31 9.28998 17 9.66998 17H14.33C14.71 17 15.02 17.31 15.02 17.7Z" fill="#211B2A"/>
</svg>
