<svg width="24" height="24" viewBox="0 0 24 24" fill="none" xmlns="http://www.w3.org/2000/svg">
<path d="M18.69 11.5298C18.12 11.3798 17.45 11.2998 16.65 11.2998C15.54 11.2998 15.13 11.5698 14.56 11.9998C14.53 12.0198 14.5 12.0498 14.47 12.0798L13.52 13.0898C12.72 13.9298 11.28 13.9398 10.48 13.0798L9.52999 12.0798C9.49999 12.0498 9.46999 12.0198 9.43999 11.9998C8.86999 11.5698 8.45999 11.2998 7.34999 11.2998C6.54999 11.2998 5.87999 11.3798 5.30999 11.5298C2.92999 12.1698 2.92999 14.0598 2.92999 15.7198V16.6498C2.92999 19.1598 2.92999 21.9998 8.27999 21.9998H15.72C19.27 21.9998 21.07 20.1998 21.07 16.6498V15.7198C21.07 14.0598 21.07 12.1698 18.69 11.5298ZM14.33 18.3998H9.66999C9.28999 18.3998 8.97999 18.0898 8.97999 17.6998C8.97999 17.3098 9.28999 16.9998 9.66999 16.9998H14.33C14.71 16.9998 15.02 17.3098 15.02 17.6998C15.02 18.0898 14.71 18.3998 14.33 18.3998Z" fill="#211B2A"/>
<path d="M19.21 6.42V10.12C19.17 10.1 19.12 10.09 19.08 10.08C18.38 9.89 17.59 9.8 16.65 9.8C15.11 9.8 14.39 10.25 13.65 10.81C13.55 10.88 13.46 10.97 13.38 11.05L12.42 12.06C12.33 12.16 12.17 12.22 12 12.22C11.83 12.22 11.67 12.16 11.57 12.05L10.63 11.06C10.54 10.96 10.44 10.87 10.34 10.8C9.61998 10.25 8.88998 9.8 7.34998 9.8C6.40998 9.8 5.61998 9.89 4.91998 10.08C4.87998 10.09 4.82998 10.1 4.78998 10.12V6.42C4.78998 4.35 4.78998 2 9.20998 2H14.79C19.21 2 19.21 4.35 19.21 6.42Z" fill="#211B2A"/>
</svg>
