<svg width="24" height="24" viewBox="0 0 24 24" fill="none" xmlns="http://www.w3.org/2000/svg">
<path opacity="0.4" d="M16 2H8C4 2 2 4 2 8V21C2 21.55 2.45 22 3 22H16C20 22 22 20 22 16V8C22 4 20 2 16 2Z" fill="#211B2A"/>
<path d="M16.55 7.46019C15.29 6.20019 14.07 6.17019 12.78 7.46019L11.99 8.25019C11.92 8.32019 11.9 8.42019 11.92 8.51019C12.41 10.2302 13.78 11.6002 15.5 12.0902C15.52 12.1002 15.55 12.1002 15.58 12.1002C15.65 12.1002 15.72 12.0702 15.77 12.0202L16.55 11.2402C17.19 10.6002 17.5 9.99019 17.5 9.37019C17.5 8.72019 17.19 8.10019 16.55 7.46019Z" fill="#211B2A"/>
<path d="M14.34 12.6701C14.15 12.5801 13.97 12.4901 13.8 12.3801C13.66 12.3001 13.52 12.2101 13.39 12.1101C13.28 12.0401 13.15 11.9401 13.02 11.8301C13 11.8201 12.96 11.7901 12.91 11.7301C12.7 11.5501 12.46 11.3101 12.24 11.0601C12.22 11.0501 12.19 11.0001 12.15 10.9401C12.08 10.8601 11.98 10.7301 11.88 10.5901C11.8 10.4901 11.71 10.3501 11.63 10.2101C11.53 10.0401 11.43 9.86012 11.35 9.68012C11.26 9.48012 11.19 9.30012 11.12 9.12012L7.35001 12.8901C7.10001 13.1401 6.87001 13.6001 6.82001 13.9401L6.53 16.0201C6.46 16.4601 6.58999 16.8701 6.85999 17.1501C7.08999 17.3801 7.41001 17.5001 7.76001 17.5001C7.84001 17.5001 7.90999 17.4901 7.98999 17.4801L10.07 17.1901C10.41 17.1401 10.87 16.9101 11.12 16.6601L14.89 12.8901C14.71 12.8201 14.53 12.7501 14.34 12.6701Z" fill="#211B2A"/>
</svg>
