<svg width="24" height="24" viewBox="0 0 24 24" fill="none" xmlns="http://www.w3.org/2000/svg">
<path d="M22 8C22 4 20 2 16 2H8C4 2 2 4 2 8V21C2 21.55 2.45 22 3 22H16C20 22 22 20 22 16V12" stroke="#211B2A" stroke-width="1.5" stroke-linecap="round" stroke-linejoin="round"/>
<path d="M15.51 11.7399L16.16 11.0899C16.2 11.0499 16.24 11.0099 16.28 10.9599C17.09 10.0999 17.41 9.08987 16.16 7.83987C14.84 6.51987 13.8 6.94987 12.91 7.83987L7.72004 13.0299C7.52004 13.2299 7.33004 13.6199 7.29004 13.8999L7.01004 15.8799C6.91004 16.5999 7.41004 17.0999 8.13004 16.9999L10.11 16.7199C10.39 16.6799 10.78 16.4899 10.98 16.2899L12.92 14.3499" stroke="#211B2A" stroke-width="1.5" stroke-miterlimit="10" stroke-linecap="round" stroke-linejoin="round"/>
<path d="M12.17 8.58008C12.61 10.1501 13.84 11.3901 15.42 11.8301" stroke="#211B2A" stroke-width="1.5" stroke-miterlimit="10" stroke-linecap="round" stroke-linejoin="round"/>
</svg>
