<svg width="24" height="24" viewBox="0 0 24 24" fill="none" xmlns="http://www.w3.org/2000/svg">
<path d="M22.53 21.47L21.79 20.73C22.17 20.15 22.4 19.45 22.4 18.7C22.4 16.66 20.74 15 18.7 15C16.66 15 15 16.66 15 18.7C15 20.74 16.66 22.4 18.7 22.4C19.45 22.4 20.15 22.17 20.73 21.79L21.47 22.53C21.62 22.68 21.81 22.75 22 22.75C22.19 22.75 22.38 22.68 22.53 22.53C22.82 22.24 22.82 21.76 22.53 21.47Z" fill="#211B2A"/>
<path opacity="0.4" d="M2 12.9698V6.98977C2 4.23977 4.24 2.00977 7 2.00977H17C19.76 2.00977 22 4.23977 22 6.99977V13.9798C22 16.7298 19.76 18.9598 17 18.9598H15.5C15.19 18.9598 14.89 19.1098 14.7 19.3598L13.2 21.3498C12.54 22.2298 11.46 22.2298 10.8 21.3498L9.29999 19.3598C9.12999 19.1398 8.78 18.9598 8.5 18.9598H7C4.24 18.9598 2 16.7298 2 13.9798V12.9698Z" fill="#211B2A"/>
<path d="M12 12C11.44 12 10.99 11.55 10.99 11C10.99 10.45 11.44 10 11.99 10C12.54 10 12.99 10.45 12.99 11C12.99 11.55 12.56 12 12 12Z" fill="#211B2A"/>
<path d="M16 12C15.44 12 14.99 11.55 14.99 11C14.99 10.45 15.44 10 15.99 10C16.54 10 16.99 10.45 16.99 11C16.99 11.55 16.56 12 16 12Z" fill="#211B2A"/>
<path d="M8 12C7.44 12 6.98999 11.55 6.98999 11C6.98999 10.45 7.43999 10 7.98999 10C8.53999 10 8.98999 10.45 8.98999 11C8.98999 11.55 8.56 12 8 12Z" fill="#211B2A"/>
</svg>
