<svg width="24" height="24" viewBox="0 0 24 24" fill="none" xmlns="http://www.w3.org/2000/svg">
<path d="M17 3H7C4 3 2 4.5 2 8V15.96C2 18.25 3.85 20.1 6.14 20.1H12.4C12.98 20.1 13.48 19.61 13.42 19.03C13.28 17.5 13.78 15.85 15.14 14.52C15.7 13.97 16.39 13.55 17.14 13.31C18.39 12.91 19.6 12.96 20.67 13.33C21.32 13.55 22 13.08 22 12.39V8C22 4.5 20 3 17 3ZM17.47 8.59L14.34 11.09C13.68 11.62 12.84 11.88 12 11.88C11.16 11.88 10.31 11.62 9.66 11.09L6.53 8.59C6.21 8.33 6.16 7.86 6.41 7.53C6.67 7.21 7.14 7.15 7.46 7.41L10.59 9.91C11.35 10.52 12.64 10.52 13.4 9.91L16.53 7.41C16.85 7.15 17.33 7.2 17.58 7.53C17.84 7.86 17.79 8.33 17.47 8.59Z" fill="#211B2A"/>
<path d="M21.77 17.06V16.9C21.77 14.97 20.79 14 18.87 14C16.95 14 15.97 14.98 15.97 16.9V17.06C14.92 17.32 14.5 18.04 14.5 19.48V20.22C14.5 22.07 15.19 22.75 17.03 22.75H20.71C22.56 22.75 23.24 22.06 23.24 20.22V19.48C23.24 18.05 22.82 17.32 21.77 17.06ZM18.86 15.38C20.15 15.38 20.38 15.87 20.38 16.9V16.95H17.34V16.9C17.34 15.87 17.57 15.38 18.86 15.38Z" fill="#211B2A"/>
</svg>
