<svg width="24" height="24" viewBox="0 0 24 24" fill="none" xmlns="http://www.w3.org/2000/svg">
<path d="M12 20.5H7C4 20.5 2 19 2 15.5V8.5C2 5 4 3.5 7 3.5H17C20 3.5 22 5 22 8.5V11.5" stroke="#211B2A" stroke-width="1.5" stroke-miterlimit="10" stroke-linecap="round" stroke-linejoin="round"/>
<path d="M17 9L13.87 11.5C12.84 12.32 11.15 12.32 10.12 11.5L7 9" stroke="#211B2A" stroke-width="1.5" stroke-miterlimit="10" stroke-linecap="round" stroke-linejoin="round"/>
<path d="M16 17.2V16.4C16 15.07 16.4 14 18.4 14C20.4 14 20.8 15.07 20.8 16.4V17.2" stroke="#211B2A" stroke-width="1.5" stroke-linecap="round" stroke-linejoin="round"/>
<path d="M20.4 22.0002H16.4C14.8 22.0002 14.4 21.6002 14.4 20.0002V19.2002C14.4 17.6002 14.8 17.2002 16.4 17.2002H20.4C22 17.2002 22.4 17.6002 22.4 19.2002V20.0002C22.4 21.6002 22 22.0002 20.4 22.0002Z" stroke="#211B2A" stroke-width="1.5" stroke-linecap="round" stroke-linejoin="round"/>
</svg>
