<svg width="24" height="24" viewBox="0 0 24 24" fill="none" xmlns="http://www.w3.org/2000/svg">
<path opacity="0.4" d="M16.19 2H7.82002C4.18002 2 2.01001 4.17 2.01001 7.81V16.18C2.01001 19.82 4.18002 21.99 7.82002 21.99H16.19C19.83 21.99 22 19.82 22 16.18V7.81C22 4.17 19.83 2 16.19 2Z" fill="#211B2A"/>
<path d="M13.58 14.6899L11.26 17.0099C10.62 17.6599 9.56999 17.6599 8.92 17.0099L6.99 15.0799C6.34 14.4299 6.34 13.3799 6.99 12.7399L9.30999 10.4199L13.58 14.6899Z" fill="#211B2A"/>
<path opacity="0.6" d="M17.0101 11.2604L13.5801 14.6904L9.31006 10.4204L12.7401 6.99043C13.3801 6.34043 14.4301 6.34043 15.0801 6.99043L17.0101 8.92043C17.6601 9.57043 17.6601 10.6204 17.0101 11.2604Z" fill="#211B2A"/>
</svg>
