<svg width="24" height="24" viewBox="0 0 24 24" fill="none" xmlns="http://www.w3.org/2000/svg">
<path d="M7.94 14.5099C7.32 14.2799 6.77 13.8299 6.42 13.1899C5.62 11.7299 6.11 9.82989 7.53 8.94989L9.86999 7.49988C11.28 6.61988 13.1 7.09987 13.9 8.54987C14.7 10.0099 14.21 11.9099 12.79 12.7899L12.48 13.0099" stroke="#211B2A" stroke-width="1.5" stroke-linecap="round" stroke-linejoin="round"/>
<path d="M16.11 9.4502C16.73 9.6802 17.28 10.1302 17.63 10.7702C18.43 12.2302 17.94 14.1302 16.52 15.0102L14.18 16.4602C12.77 17.3402 10.95 16.8602 10.15 15.4102C9.35001 13.9502 9.84001 12.0502 11.26 11.1702L11.57 10.9502" stroke="#211B2A" stroke-width="1.5" stroke-linecap="round" stroke-linejoin="round"/>
<path d="M4 6C2.75 7.67 2 9.75 2 12C2 17.52 6.48 22 12 22C17.52 22 22 17.52 22 12C22 6.48 17.52 2 12 2C10.57 2 9.2 2.30001 7.97 2.85001" stroke="#211B2A" stroke-width="1.5" stroke-linecap="round" stroke-linejoin="round"/>
</svg>
