<svg width="24" height="24" viewBox="0 0 24 24" fill="none" xmlns="http://www.w3.org/2000/svg">
<path opacity="0.4" d="M16.19 2H7.82001C4.18001 2 2.00999 4.17 2.00999 7.81V16.18C2.00999 19.82 4.18001 21.99 7.82001 21.99H16.19C19.83 21.99 22 19.82 22 16.18V7.81C22 4.17 19.83 2 16.19 2Z" fill="#211B2A"/>
<path d="M8.18 16.7698C8.16 16.7698 8.13 16.7698 8.11 16.7698C7.14 16.6798 6.23001 16.2299 5.55001 15.5099C3.95001 13.8299 3.95001 11.0999 5.55001 9.41986L7.74001 7.11984C8.52001 6.29984 9.57001 5.83984 10.69 5.83984C11.81 5.83984 12.86 6.28984 13.64 7.11984C15.24 8.79984 15.24 11.5298 13.64 13.2098L12.55 14.3598C12.26 14.6598 11.79 14.6699 11.49 14.3899C11.19 14.0999 11.18 13.6298 11.46 13.3298L12.55 12.1798C13.61 11.0698 13.61 9.25985 12.55 8.15985C11.56 7.11985 9.82001 7.11985 8.82001 8.15985L6.63001 10.4598C5.57001 11.5698 5.57001 13.3799 6.63001 14.4799C7.06001 14.9399 7.64 15.2198 8.25 15.2798C8.66 15.3198 8.96 15.6899 8.92 16.0999C8.89 16.4799 8.56 16.7698 8.18 16.7698Z" fill="#211B2A"/>
<path d="M13.31 18.1599C12.19 18.1599 11.14 17.7099 10.36 16.8799C8.76 15.1999 8.76 12.4699 10.36 10.7899L11.45 9.63991C11.74 9.33991 12.21 9.32988 12.51 9.60988C12.81 9.89988 12.82 10.3699 12.54 10.6699L11.45 11.8199C10.39 12.9299 10.39 14.7399 11.45 15.8399C12.44 16.8799 14.18 16.8899 15.18 15.8399L17.37 13.5399C18.43 12.4299 18.43 10.6199 17.37 9.51989C16.94 9.05989 16.36 8.7799 15.75 8.7199C15.34 8.6799 15.04 8.30989 15.08 7.89989C15.12 7.48989 15.48 7.17991 15.9 7.22991C16.87 7.32991 17.78 7.76989 18.46 8.48989C20.06 10.1699 20.06 12.8999 18.46 14.5799L16.27 16.8799C15.48 17.7099 14.43 18.1599 13.31 18.1599Z" fill="#211B2A"/>
</svg>
