<svg width="24" height="24" viewBox="0 0 24 24" fill="none" xmlns="http://www.w3.org/2000/svg">
<path opacity="0.4" d="M16.19 2H7.81C4.17 2 2 4.17 2 7.81V16.18C2 19.83 4.17 22 7.81 22H16.18C19.82 22 21.99 19.83 21.99 16.19V7.81C22 4.17 19.83 2 16.19 2Z" fill="#211B2A"/>
<path d="M12.2 17.6603C11.5 17.6603 10.79 17.3903 10.26 16.8603C9.19001 15.7903 9.19001 14.0403 10.26 12.9703L11.67 11.5603C11.96 11.2703 12.44 11.2703 12.73 11.5603C13.02 11.8503 13.02 12.3303 12.73 12.6203L11.32 14.0303C10.83 14.5203 10.83 15.3103 11.32 15.8003C11.81 16.2903 12.6 16.2903 13.09 15.8003L15.31 13.5803C15.92 12.9703 16.26 12.1503 16.26 11.2803C16.26 10.4103 15.92 9.60027 15.31 8.98027C14.08 7.75027 11.94 7.75027 10.71 8.98027L8.29001 11.4003C7.25001 12.4403 7.25001 14.1403 8.29001 15.1903C8.58001 15.4803 8.58001 15.9603 8.29001 16.2503C8.00001 16.5403 7.52001 16.5403 7.23001 16.2503C5.60001 14.6203 5.60001 11.9703 7.23001 10.3403L9.65001 7.92027C10.55 7.02027 11.74 6.53027 13.01 6.53027C14.28 6.53027 15.47 7.02027 16.37 7.92027C17.27 8.82027 17.76 10.0103 17.76 11.2803C17.76 12.5503 17.27 13.7403 16.37 14.6403L14.15 16.8603C13.61 17.3903 12.91 17.6603 12.2 17.6603Z" fill="#211B2A"/>
</svg>
