<svg width="24" height="24" viewBox="0 0 24 24" fill="none" xmlns="http://www.w3.org/2000/svg">
<path d="M12.33 21.3404C11.24 21.3404 10.15 20.9304 9.31998 20.1004C7.65998 18.4404 7.65998 15.7504 9.31998 14.0904L11.8 11.6204C12.09 11.3304 12.57 11.3304 12.86 11.6204C13.15 11.9104 13.15 12.3904 12.86 12.6804L10.38 15.1504C9.30998 16.2204 9.30998 17.9704 10.38 19.0404C11.45 20.1104 13.2 20.1104 14.27 19.0404L18.16 15.1504C19.34 13.9704 19.99 12.4004 19.99 10.7304C19.99 9.06035 19.34 7.49035 18.16 6.31035C15.72 3.87035 11.76 3.87035 9.31998 6.31035L5.07998 10.5504C4.08998 11.5404 3.53998 12.8604 3.53998 14.2604C3.53998 15.6604 4.08998 16.9804 5.07998 17.9704C5.36998 18.2604 5.36998 18.7404 5.07998 19.0304C4.78998 19.3204 4.30998 19.3204 4.01998 19.0304C2.74998 17.7504 2.03998 16.0604 2.03998 14.2604C2.03998 12.4604 2.73998 10.7604 4.01998 9.49035L8.25998 5.25035C11.28 2.23035 16.2 2.23035 19.22 5.25035C20.68 6.71035 21.49 8.66035 21.49 10.7304C21.49 12.8004 20.68 14.7504 19.22 16.2104L15.33 20.1004C14.5 20.9304 13.42 21.3404 12.33 21.3404Z" fill="#211B2A"/>
</svg>
