<svg width="24" height="24" viewBox="0 0 24 24" fill="none" xmlns="http://www.w3.org/2000/svg">
<path d="M21 22.75H3C2.59 22.75 2.25 22.41 2.25 22C2.25 21.59 2.59 21.25 3 21.25H21C21.41 21.25 21.75 21.59 21.75 22C21.75 22.41 21.41 22.75 21 22.75Z" fill="#211B2A"/>
<path d="M21 2.75H3C2.59 2.75 2.25 2.41 2.25 2C2.25 1.59 2.59 1.25 3 1.25H21C21.41 1.25 21.75 1.59 21.75 2C21.75 2.41 21.41 2.75 21 2.75Z" fill="#211B2A"/>
<path d="M14.3 15.3604L12.75 16.9104V6.70039L14.3 8.25039C14.45 8.40039 14.64 8.47039 14.83 8.47039C15.02 8.47039 15.21 8.40039 15.36 8.25039C15.65 7.96039 15.65 7.48039 15.36 7.19039L12.53 4.36039C12.25 4.08039 11.75 4.08039 11.47 4.36039L8.63999 7.19039C8.34999 7.48039 8.34999 7.96039 8.63999 8.25039C8.92999 8.54039 9.40998 8.54039 9.69998 8.25039L11.25 6.70039V16.9104L9.69998 15.3604C9.40998 15.0704 8.92999 15.0704 8.63999 15.3604C8.34999 15.6504 8.34999 16.1304 8.63999 16.4204L11.47 19.2504C11.61 19.3904 11.8 19.4704 12 19.4704C12.2 19.4704 12.39 19.3904 12.53 19.2504L15.36 16.4204C15.65 16.1304 15.65 15.6504 15.36 15.3604C15.07 15.0704 14.59 15.0704 14.3 15.3604Z" fill="#211B2A"/>
</svg>
