<svg width="24" height="24" viewBox="0 0 24 24" fill="none" xmlns="http://www.w3.org/2000/svg">
<path d="M17 11.8398H14.32C13.61 11.8398 13.13 11.2998 13.13 10.6498V9.15973C13.13 8.50973 13.61 7.96973 14.32 7.96973H15.81C16.46 7.96973 17 8.50973 17 9.15973V11.8398Z" stroke="#211B2A" stroke-width="1.5" stroke-linecap="round" stroke-linejoin="round"/>
<path d="M17 11.8398C17 14.6298 16.48 15.0998 14.91 16.0298" stroke="#211B2A" stroke-width="1.5" stroke-linecap="round" stroke-linejoin="round"/>
<path d="M10.86 11.8398H8.17998C7.46998 11.8398 6.98999 11.2998 6.98999 10.6498V9.15973C6.98999 8.50973 7.46998 7.96973 8.17998 7.96973H9.66998C10.32 7.96973 10.86 8.50973 10.86 9.15973V11.8398Z" stroke="#211B2A" stroke-width="1.5" stroke-linecap="round" stroke-linejoin="round"/>
<path d="M10.86 11.8398C10.86 14.6298 10.34 15.0998 8.76999 16.0298" stroke="#211B2A" stroke-width="1.5" stroke-linecap="round" stroke-linejoin="round"/>
<path d="M4 6C2.75 7.67 2 9.75 2 12C2 17.52 6.48 22 12 22C17.52 22 22 17.52 22 12C22 6.48 17.52 2 12 2C10.57 2 9.2 2.29998 7.97 2.84998" stroke="#211B2A" stroke-width="1.5" stroke-linecap="round" stroke-linejoin="round"/>
</svg>
