<svg width="24" height="24" viewBox="0 0 24 24" fill="none" xmlns="http://www.w3.org/2000/svg">
<path d="M15.91 12.3704H20.6C20.52 17.0404 19.6 17.8104 16.73 19.5104C16.4 19.7104 16.29 20.1304 16.49 20.4704C16.69 20.8004 17.11 20.9104 17.45 20.7104C20.83 18.7104 22.01 17.4904 22.01 11.6704V6.28046C22.01 4.57046 20.62 3.19043 18.92 3.19043H15.92C14.16 3.19043 12.83 4.52046 12.83 6.28046V9.28046C12.82 11.0405 14.15 12.3704 15.91 12.3704Z" fill="#211B2A"/>
<path opacity="0.4" d="M5.09 12.3704H9.78C9.7 17.0404 8.78 17.8104 5.91 19.5104C5.58 19.7104 5.47 20.1304 5.67 20.4704C5.87 20.8004 6.29 20.9104 6.63 20.7104C10.01 18.7104 11.19 17.4904 11.19 11.6704V6.28046C11.19 4.57046 9.8 3.19043 8.10001 3.19043H5.1C3.34 3.19043 2.01 4.52046 2.01 6.28046V9.28046C2 11.0405 3.33 12.3704 5.09 12.3704Z" fill="#211B2A"/>
</svg>
