<svg width="24" height="24" viewBox="0 0 24 24" fill="none" xmlns="http://www.w3.org/2000/svg">
<path d="M8.09003 11.6305H3.40002C3.48002 6.96046 4.40002 6.19044 7.27002 4.49044C7.60002 4.29044 7.71001 3.87045 7.51001 3.53045C7.31001 3.20045 6.88999 3.09046 6.54999 3.29046C3.16999 5.29046 1.98999 6.51044 1.98999 12.3304V17.7205C1.98999 19.4305 3.38002 20.8105 5.08002 20.8105H8.08002C9.84002 20.8105 11.17 19.4805 11.17 17.7205V14.7205C11.18 12.9605 9.85003 11.6305 8.09003 11.6305Z" fill="#211B2A"/>
<path opacity="0.4" d="M18.91 11.6305H14.22C14.3 6.96046 15.22 6.19044 18.09 4.49044C18.42 4.29044 18.53 3.87045 18.33 3.53045C18.13 3.20045 17.71 3.09046 17.37 3.29046C13.99 5.29046 12.81 6.51044 12.81 12.3304V17.7205C12.81 19.4305 14.2 20.8105 15.9 20.8105H18.9C20.66 20.8105 21.99 19.4805 21.99 17.7205V14.7205C22 12.9605 20.67 11.6305 18.91 11.6305Z" fill="#211B2A"/>
</svg>
