<svg width="24" height="24" viewBox="0 0 24 24" fill="none" xmlns="http://www.w3.org/2000/svg">
<path d="M22 11.6495H16.2C14.67 11.6495 13.62 10.4895 13.62 9.06952V5.84949C13.62 4.42949 14.67 3.26953 16.2 3.26953H19.42C20.84 3.26953 22 4.42949 22 5.84949V11.6495Z" stroke="#211B2A" stroke-width="1.5" stroke-linecap="round" stroke-linejoin="round"/>
<path d="M22 11.6494C22 17.6994 20.87 18.6994 17.47 20.7194" stroke="#211B2A" stroke-width="1.5" stroke-linecap="round" stroke-linejoin="round"/>
<g opacity="0.4">
<path d="M10.3702 11.6495H4.57023C3.04023 11.6495 1.99023 10.4895 1.99023 9.06952V5.84949C1.99023 4.42949 3.04023 3.26953 4.57023 3.26953H7.80023C9.22023 3.26953 10.3802 4.42949 10.3802 5.84949V11.6495" stroke="#211B2A" stroke-width="1.5" stroke-linecap="round" stroke-linejoin="round"/>
<path d="M10.3698 11.6494C10.3698 17.6994 9.23984 18.6994 5.83984 20.7194" stroke="#211B2A" stroke-width="1.5" stroke-linecap="round" stroke-linejoin="round"/>
</g>
</svg>
