<svg width="24" height="24" viewBox="0 0 24 24" fill="none" xmlns="http://www.w3.org/2000/svg">
<path opacity="0.4" d="M16.19 2H7.82C4.18 2 2.00999 4.17 2.00999 7.81V16.18C2.00999 19.82 4.18 21.99 7.82 21.99H16.19C19.83 21.99 22 19.82 22 16.18V7.81C22 4.17 19.83 2 16.19 2Z" fill="#211B2A"/>
<path d="M15.81 7.21973H14.32C13.23 7.21973 12.38 8.06973 12.38 9.15973V10.6498C12.38 11.7398 13.23 12.5898 14.32 12.5898H16.23C16.15 14.3998 15.73 14.6698 14.52 15.3798C14.16 15.5898 14.05 16.0497 14.26 16.4097C14.4 16.6497 14.65 16.7798 14.91 16.7798C15.04 16.7798 15.17 16.7497 15.29 16.6797C17.08 15.6197 17.75 14.9297 17.75 11.8497V9.17975C17.75 8.08975 16.88 7.21973 15.81 7.21973Z" fill="#211B2A"/>
<path d="M9.68 7.21973H8.19C7.1 7.21973 6.25 8.06973 6.25 9.15973V10.6498C6.25 11.7398 7.1 12.5898 8.19 12.5898H10.1C10.02 14.3998 9.6 14.6698 8.39 15.3798C8.03 15.5898 7.92 16.0497 8.13 16.4097C8.27 16.6497 8.52 16.7798 8.78 16.7798C8.91 16.7798 9.04 16.7497 9.16 16.6797C10.95 15.6197 11.62 14.9297 11.62 11.8497V9.17975C11.61 8.08975 10.74 7.21973 9.68 7.21973Z" fill="#211B2A"/>
</svg>
