<svg width="24" height="24" viewBox="0 0 24 24" fill="none" xmlns="http://www.w3.org/2000/svg">
<path opacity="0.4" d="M12 22C17.5228 22 22 17.5228 22 12C22 6.47715 17.5228 2 12 2C6.47715 2 2 6.47715 2 12C2 17.5228 6.47715 22 12 22Z" fill="#211B2A"/>
<path d="M8.19 16.7798H9.67999C10.77 16.7798 11.62 15.9298 11.62 14.8398V13.3497C11.62 12.2597 10.77 11.4097 9.67999 11.4097H7.77C7.85 9.59973 8.27 9.32975 9.48 8.61975C9.84 8.40975 9.95001 7.94978 9.74001 7.58978C9.60001 7.34978 9.35 7.21973 9.09 7.21973C8.96 7.21973 8.83001 7.24976 8.71001 7.31976C6.92001 8.37976 6.25 9.06978 6.25 12.1498V14.8198C6.25 15.9098 7.12 16.7798 8.19 16.7798Z" fill="#211B2A"/>
<path d="M14.32 16.7798H15.81C16.9 16.7798 17.75 15.9298 17.75 14.8398V13.3497C17.75 12.2597 16.9 11.4097 15.81 11.4097H13.9C13.98 9.59973 14.4 9.32975 15.61 8.61975C15.97 8.40975 16.08 7.94978 15.87 7.58978C15.73 7.34978 15.48 7.21973 15.22 7.21973C15.09 7.21973 14.96 7.24976 14.84 7.31976C13.05 8.37976 12.38 9.06978 12.38 12.1498V14.8198C12.39 15.9098 13.26 16.7798 14.32 16.7798Z" fill="#211B2A"/>
</svg>
