<svg width="24" height="24" viewBox="0 0 24 24" fill="none" xmlns="http://www.w3.org/2000/svg">
<path d="M10.37 18.1398C10.37 19.5598 9.31998 20.7198 7.78998 20.7198H4.57001C3.15001 20.7198 1.98999 19.5598 1.98999 18.1398L1.98999 12.3398" stroke="#211B2A" stroke-width="1.5" stroke-linecap="round" stroke-linejoin="round"/>
<path d="M2 12.3506H7.79999C8.75999 12.3506 9.52002 12.8006 9.96002 13.4906" stroke="#211B2A" stroke-width="1.5" stroke-linecap="round" stroke-linejoin="round"/>
<path d="M2 12.3502C2 6.30022 3.13003 5.30027 6.53003 3.28027" stroke="#211B2A" stroke-width="1.5" stroke-linecap="round" stroke-linejoin="round"/>
<path d="M13.63 12.3506H19.43C20.96 12.3506 22.01 13.5106 22.01 14.9306V18.1506C22.01 19.5706 20.96 20.7306 19.43 20.7306H16.21C14.79 20.7306 13.63 19.5706 13.63 18.1506V12.3506" stroke="#211B2A" stroke-width="1.5" stroke-linecap="round" stroke-linejoin="round"/>
<path d="M13.63 12.3502C13.63 6.30022 14.76 5.30027 18.16 3.28027" stroke="#211B2A" stroke-width="1.5" stroke-linecap="round" stroke-linejoin="round"/>
</svg>
