<svg width="24" height="24" viewBox="0 0 24 24" fill="none" xmlns="http://www.w3.org/2000/svg">
<path opacity="0.4" d="M22 7.81V16.19C22 19.83 19.83 22 16.19 22H7.81C7.61 22 7.41 21.99 7.22 21.98C5.99 21.9 4.95 21.55 4.13 20.95C3.71 20.66 3.34 20.29 3.05 19.87C2.36 18.92 2 17.68 2 16.19V7.81C2 4.37 3.94 2.24 7.22 2.03C7.41 2.01 7.61 2 7.81 2H16.19C17.68 2 18.92 2.36 19.87 3.05C20.29 3.34 20.66 3.71 20.95 4.13C21.64 5.08 22 6.32 22 7.81Z" fill="#211B2A"/>
<path d="M11.39 14.3804H11.02V7.91039H13.59C13.7 7.91039 13.79 8.00039 13.79 8.11039V8.89039C13.79 9.30039 14.13 9.64039 14.54 9.64039C14.95 9.64039 15.29 9.30039 15.29 8.89039V8.10039C15.29 7.16039 14.53 6.40039 13.59 6.40039H6.95C6.01 6.40039 5.25 7.16039 5.25 8.10039V8.88039C5.25 9.30039 5.59 9.63039 6 9.63039C6.41 9.63039 6.75 9.30039 6.75 8.88039V8.10039C6.75 7.99039 6.84 7.90039 6.95 7.90039H9.52V14.3804H8.52C8.11 14.3804 7.77 14.7204 7.77 15.1304C7.77 15.5404 8.11 15.8804 8.52 15.8804H11.38C11.79 15.8804 12.13 15.5404 12.13 15.1304C12.13 14.7204 11.8 14.3804 11.39 14.3804Z" fill="#211B2A"/>
<path d="M17.32 10.4004H13.72C13.31 10.4004 12.97 10.7404 12.97 11.1504C12.97 11.5604 13.31 11.9004 13.72 11.9004H14.2V16.1004H13.85C13.44 16.1004 13.1 16.4404 13.1 16.8504C13.1 17.2604 13.44 17.6004 13.85 17.6004H16.05C16.46 17.6004 16.8 17.2604 16.8 16.8504C16.8 16.4404 16.46 16.1004 16.05 16.1004H15.7V11.9004H17.25V12.2404C17.25 12.6504 17.59 12.9904 18 12.9904C18.41 12.9904 18.75 12.6504 18.75 12.2404V11.8304C18.75 11.0404 18.11 10.4004 17.32 10.4004Z" fill="#211B2A"/>
</svg>
