<svg width="24" height="24" viewBox="0 0 24 24" fill="none" xmlns="http://www.w3.org/2000/svg">
<path d="M18.61 6.68031C18.2 6.68031 17.86 6.34031 17.86 5.93031V4.42031C17.86 3.82031 17.37 3.32031 16.76 3.32031H3.82999C3.22999 3.32031 2.72999 3.81031 2.72999 4.42031V5.93031C2.72999 6.34031 2.38999 6.68031 1.97999 6.68031C1.56999 6.68031 1.23999 6.34031 1.23999 5.93031V4.42031C1.23999 2.99031 2.40999 1.82031 3.83999 1.82031H16.76C18.19 1.82031 19.36 2.98031 19.36 4.42031V5.93031C19.36 6.34031 19.02 6.68031 18.61 6.68031Z" fill="#211B2A"/>
<path d="M10.3 18.8503C9.88999 18.8503 9.54999 18.5103 9.54999 18.1003V3.32031C9.54999 2.91031 9.88999 2.57031 10.3 2.57031C10.71 2.57031 11.05 2.91031 11.05 3.32031V18.1003C11.05 18.5203 10.71 18.8503 10.3 18.8503Z" fill="#211B2A"/>
<path d="M12.48 18.8496H6.89999C6.48999 18.8496 6.14999 18.5096 6.14999 18.0996C6.14999 17.6896 6.48999 17.3496 6.89999 17.3496H12.48C12.89 17.3496 13.23 17.6896 13.23 18.0996C13.23 18.5096 12.89 18.8496 12.48 18.8496Z" fill="#211B2A"/>
<path d="M22.01 13.2001C21.6 13.2001 21.26 12.8601 21.26 12.4501V11.6501C21.26 11.3401 21 11.0801 20.69 11.0801H13.68C13.27 11.0801 12.93 10.7401 12.93 10.3301C12.93 9.92008 13.27 9.58008 13.68 9.58008H20.69C21.83 9.58008 22.76 10.5101 22.76 11.6501V12.4501C22.76 12.8701 22.43 13.2001 22.01 13.2001Z" fill="#211B2A"/>
<path d="M16.08 22.1801C15.67 22.1801 15.33 21.8401 15.33 21.4301V10.8701C15.33 10.4601 15.67 10.1201 16.08 10.1201C16.49 10.1201 16.83 10.4601 16.83 10.8701V21.4301C16.83 21.8401 16.49 22.1801 16.08 22.1801Z" fill="#211B2A"/>
<path d="M18.22 22.1797H13.94C13.53 22.1797 13.19 21.8397 13.19 21.4297C13.19 21.0197 13.53 20.6797 13.94 20.6797H18.22C18.63 20.6797 18.97 21.0197 18.97 21.4297C18.97 21.8397 18.63 22.1797 18.22 22.1797Z" fill="#211B2A"/>
</svg>
