<svg width="24" height="24" viewBox="0 0 24 24" fill="none" xmlns="http://www.w3.org/2000/svg">
<path d="M21.33 7.92027C20.92 7.92027 20.58 7.58027 20.58 7.17027V5.35027C20.58 4.62027 19.99 4.03027 19.26 4.03027H4.74001C4.01001 4.03027 3.42001 4.62027 3.42001 5.35027V7.18027C3.42001 7.59027 3.08001 7.93027 2.67001 7.93027C2.26001 7.93027 1.92001 7.59027 1.92001 7.17027V5.35027C1.92001 3.79027 3.19001 2.53027 4.74001 2.53027H19.26C20.82 2.53027 22.08 3.80027 22.08 5.35027V7.18027C22.08 7.59027 21.75 7.92027 21.33 7.92027Z" fill="#211B2A"/>
<path d="M12 21.4704C11.59 21.4704 11.25 21.1304 11.25 20.7204V4.11035C11.25 3.70035 11.59 3.36035 12 3.36035C12.41 3.36035 12.75 3.70035 12.75 4.11035V20.7204C12.75 21.1404 12.41 21.4704 12 21.4704Z" fill="#211B2A"/>
<path d="M15.94 21.4697H8.06C7.65 21.4697 7.31 21.1297 7.31 20.7197C7.31 20.3097 7.65 19.9697 8.06 19.9697H15.94C16.35 19.9697 16.69 20.3097 16.69 20.7197C16.69 21.1297 16.35 21.4697 15.94 21.4697Z" fill="#211B2A"/>
</svg>
