<svg width="24" height="24" viewBox="0 0 24 24" fill="none" xmlns="http://www.w3.org/2000/svg">
<path opacity="0.4" d="M16.19 2H7.81C4.17 2 2 4.17 2 7.81V16.18C2 19.83 4.17 22 7.81 22H16.18C19.82 22 21.99 19.83 21.99 16.19V7.81C22 4.17 19.83 2 16.19 2Z" fill="#211B2A"/>
<path d="M17.34 8.20953C14 6.53953 10.01 6.53953 6.67001 8.20953C6.29001 8.39953 6.14001 8.84953 6.33001 9.21953C6.46001 9.47953 6.73001 9.62953 7.00001 9.62953C7.11001 9.62953 7.23001 9.59953 7.34001 9.54953C8.57001 8.93953 9.90001 8.59953 11.25 8.49953V16.2895C11.25 16.6995 11.59 17.0395 12 17.0395C12.41 17.0395 12.75 16.6995 12.75 16.2895V8.49953C14.1 8.59953 15.43 8.93953 16.66 9.54953C17.03 9.72953 17.48 9.58953 17.67 9.20953C17.86 8.84953 17.71 8.39953 17.34 8.20953Z" fill="#211B2A"/>
</svg>
