<svg width="24" height="24" viewBox="0 0 24 24" fill="none" xmlns="http://www.w3.org/2000/svg">
<path opacity="0.4" d="M22 7.81V16.19C22 19.83 19.83 22 16.19 22H7.81C7.61 22 7.41 21.99 7.22 21.98C5.99 21.9 4.95 21.55 4.13 20.95C3.71 20.66 3.34 20.29 3.05 19.87C2.36 18.92 2 17.68 2 16.19V7.81C2 4.37 3.94 2.24 7.22 2.03C7.41 2.01 7.61 2 7.81 2H16.19C17.68 2 18.92 2.36 19.87 3.05C20.29 3.34 20.66 3.71 20.95 4.13C21.64 5.08 22 6.32 22 7.81Z" fill="#211B2A"/>
<path d="M15.87 6.00977H10.49C10.08 6.00977 9.74 6.34977 9.74 6.75977C9.74 7.16977 10.08 7.50977 10.49 7.50977H12.38L10.14 16.4798H8.14C7.73 16.4798 7.39 16.8198 7.39 17.2298C7.39 17.6398 7.73 17.9798 8.14 17.9798H13.52C13.93 17.9798 14.27 17.6398 14.27 17.2298C14.27 16.8198 13.93 16.4798 13.52 16.4798H11.68L13.92 7.50977H15.87C16.28 7.50977 16.62 7.16977 16.62 6.75977C16.62 6.34977 16.28 6.00977 15.87 6.00977Z" fill="#211B2A"/>
</svg>
