<svg width="24" height="24" viewBox="0 0 24 24" fill="none" xmlns="http://www.w3.org/2000/svg">
<path d="M6.89003 15.7495C6.61003 15.7495 6.35003 15.5995 6.22003 15.3395C6.03003 14.9695 6.18003 14.5195 6.56003 14.3295C7.43003 13.8995 8.17003 13.2395 8.70003 12.4395C8.88003 12.1695 8.88003 11.8295 8.70003 11.5595C8.16003 10.7595 7.42003 10.0995 6.56003 9.66954C6.18003 9.48954 6.03003 9.03954 6.22003 8.65954C6.40003 8.28954 6.85003 8.13954 7.22003 8.32954C8.32003 8.87954 9.26003 9.70954 9.94003 10.7295C10.45 11.4995 10.45 12.4995 9.94003 13.2695C9.26003 14.2895 8.32003 15.1195 7.22003 15.6695C7.12003 15.7195 7.00003 15.7495 6.89003 15.7495Z" fill="#211B2A"/>
<path d="M17 15.75H13C12.59 15.75 12.25 15.41 12.25 15C12.25 14.59 12.59 14.25 13 14.25H17C17.41 14.25 17.75 14.59 17.75 15C17.75 15.41 17.41 15.75 17 15.75Z" fill="#211B2A"/>
<path d="M15 22.75H9C3.57 22.75 1.25 20.43 1.25 15V9C1.25 3.57 3.57 1.25 9 1.25H15C20.43 1.25 22.75 3.57 22.75 9V15C22.75 20.43 20.43 22.75 15 22.75ZM9 2.75C4.39 2.75 2.75 4.39 2.75 9V15C2.75 19.61 4.39 21.25 9 21.25H15C19.61 21.25 21.25 19.61 21.25 15V9C21.25 4.39 19.61 2.75 15 2.75H9Z" fill="#211B2A"/>
</svg>
