<svg width="24" height="24" viewBox="0 0 24 24" fill="none" xmlns="http://www.w3.org/2000/svg">
<path opacity="0.4" d="M12 22C17.5228 22 22 17.5228 22 12C22 6.47715 17.5228 2 12 2C6.47715 2 2 6.47715 2 12C2 17.5228 6.47715 22 12 22Z" fill="#211B2A"/>
<path d="M8 14.7495C7.81 14.7495 7.62 14.6795 7.47 14.5295L5.47 12.5295C5.18 12.2395 5.18 11.7595 5.47 11.4695L7.47 9.46945C7.76 9.17945 8.24 9.17945 8.53 9.46945C8.82 9.75945 8.82 10.2395 8.53 10.5295L7.06 11.9995L8.53 13.4695C8.82 13.7595 8.82 14.2395 8.53 14.5295C8.38 14.6795 8.19 14.7495 8 14.7495Z" fill="#211B2A"/>
<path d="M16 14.7495C15.81 14.7495 15.62 14.6795 15.47 14.5295C15.18 14.2395 15.18 13.7595 15.47 13.4695L16.94 11.9995L15.47 10.5295C15.18 10.2395 15.18 9.75945 15.47 9.46945C15.76 9.17945 16.24 9.17945 16.53 9.46945L18.53 11.4695C18.82 11.7595 18.82 12.2395 18.53 12.5295L16.53 14.5295C16.38 14.6795 16.19 14.7495 16 14.7495Z" fill="#211B2A"/>
<path d="M11 15.0796C10.9 15.0796 10.8 15.0596 10.71 15.0196C10.33 14.8596 10.15 14.4196 10.32 14.0296L12.32 9.35955C12.48 8.97955 12.92 8.79954 13.3 8.96954C13.68 9.12954 13.86 9.56959 13.69 9.95959L11.69 14.6296C11.57 14.9096 11.29 15.0796 11 15.0796Z" fill="#211B2A"/>
</svg>
