<svg width="24" height="24" viewBox="0 0 24 24" fill="none" xmlns="http://www.w3.org/2000/svg">
<path opacity="0.4" d="M16.19 2H7.82001C4.18001 2 2.01001 4.17 2.01001 7.81V16.18C2.01001 19.82 4.18001 21.99 7.82001 21.99H16.19C19.83 21.99 22 19.82 22 16.18V7.81C22 4.17 19.83 2 16.19 2Z" fill="#211B2A"/>
<path d="M10.75 14.1501H13.26C13.75 14.1501 14.16 13.7501 14.16 13.2501V10.7401C14.16 10.2501 13.76 9.84009 13.26 9.84009H10.75C10.26 9.84009 9.84998 10.2401 9.84998 10.7401V13.2501C9.84998 13.7501 10.25 14.1501 10.75 14.1501Z" fill="#211B2A"/>
<path d="M7.79999 18.0004C8.78999 18.0004 9.59998 17.1904 9.59998 16.2004V15.4004C9.59998 14.8504 9.14998 14.4004 8.59998 14.4004H7.79999C6.80999 14.4004 6 15.2104 6 16.2004C6 17.1904 6.80999 18.0004 7.79999 18.0004Z" fill="#211B2A"/>
<path d="M7.79999 9.60001H8.59998C9.14998 9.60001 9.59998 9.15001 9.59998 8.60001V7.79999C9.59998 6.80999 8.78999 6 7.79999 6C6.80999 6 6 6.80999 6 7.79999C6 8.78999 6.80999 9.60001 7.79999 9.60001Z" fill="#211B2A"/>
<path d="M15.4 9.60001H16.2C17.19 9.60001 18 8.78999 18 7.79999C18 6.80999 17.19 6 16.2 6C15.21 6 14.4 6.80999 14.4 7.79999V8.60001C14.4 9.15001 14.85 9.60001 15.4 9.60001Z" fill="#211B2A"/>
<path d="M16.2 18.0004C17.19 18.0004 18 17.1904 18 16.2004C18 15.2104 17.19 14.4004 16.2 14.4004H15.4C14.85 14.4004 14.4 14.8504 14.4 15.4004V16.2004C14.4 17.1904 15.21 18.0004 16.2 18.0004Z" fill="#211B2A"/>
</svg>
