<svg width="24" height="24" viewBox="0 0 24 24" fill="none" xmlns="http://www.w3.org/2000/svg">
<path opacity="0.4" d="M21 7V17C21 20 19.5 22 16 22H8C4.5 22 3 20 3 17V7C3 4 4.5 2 8 2H16C19.5 2 21 4 21 7Z" fill="#211B2A"/>
<path d="M18.5 9.25H16.5C14.98 9.25 13.75 8.02 13.75 6.5V4.5C13.75 4.09 14.09 3.75 14.5 3.75C14.91 3.75 15.25 4.09 15.25 4.5V6.5C15.25 7.19 15.81 7.75 16.5 7.75H18.5C18.91 7.75 19.25 8.09 19.25 8.5C19.25 8.91 18.91 9.25 18.5 9.25Z" fill="#211B2A"/>
<path d="M10 17.7495C9.81 17.7495 9.62 17.6795 9.47 17.5295L7.47 15.5295C7.18 15.2395 7.18 14.7595 7.47 14.4695L9.47 12.4695C9.76 12.1795 10.24 12.1795 10.53 12.4695C10.82 12.7595 10.82 13.2395 10.53 13.5295L9.06 14.9995L10.53 16.4695C10.82 16.7595 10.82 17.2395 10.53 17.5295C10.38 17.6795 10.19 17.7495 10 17.7495Z" fill="#211B2A"/>
<path d="M14 17.7495C13.81 17.7495 13.62 17.6795 13.47 17.5295C13.18 17.2395 13.18 16.7595 13.47 16.4695L14.94 14.9995L13.47 13.5295C13.18 13.2395 13.18 12.7595 13.47 12.4695C13.76 12.1795 14.24 12.1795 14.53 12.4695L16.53 14.4695C16.82 14.7595 16.82 15.2395 16.53 15.5295L14.53 17.5295C14.38 17.6795 14.19 17.7495 14 17.7495Z" fill="#211B2A"/>
</svg>
