<svg width="24" height="24" viewBox="0 0 24 24" fill="none" xmlns="http://www.w3.org/2000/svg">
<path opacity="0.4" d="M16.19 2H7.82001C4.18001 2 2.01001 4.17 2.01001 7.81V16.18C2.01001 19.82 4.18001 21.99 7.82001 21.99H16.19C19.83 21.99 22 19.82 22 16.18V7.81C22 4.17 19.83 2 16.19 2Z" fill="#211B2A"/>
<path d="M8.54999 14.55V10.26C9.38999 9.95001 10 9.15001 10 8.20001C10 6.99001 9.00999 6 7.79999 6C6.58999 6 5.59998 6.99001 5.59998 8.20001C5.59998 9.15001 6.20999 9.95001 7.04999 10.26V14.55C6.28999 14.85 5.75 15.59 5.75 16.45C5.75 17.58 6.66999 18.5 7.79999 18.5C8.92999 18.5 9.84998 17.58 9.84998 16.45C9.84998 15.59 9.30999 14.85 8.54999 14.55Z" fill="#211B2A"/>
<path d="M17.5 14.5497V8.74968C17.5 7.78968 16.71 6.99968 15.75 6.99968H14.62L14.83 6.82967C15.15 6.55967 15.19 6.08967 14.93 5.76967C14.66 5.44967 14.19 5.4097 13.87 5.6697L12.07 7.1697C11.9 7.3097 11.8 7.51968 11.8 7.74968C11.8 7.97968 11.9 8.17967 12.07 8.32967L13.87 9.82967C14.01 9.94967 14.18 9.99968 14.35 9.99968C14.56 9.99968 14.78 9.90969 14.93 9.72969C15.2 9.40969 15.15 8.9397 14.83 8.6697L14.62 8.49968H15.75C15.89 8.49968 16 8.60968 16 8.74968V14.5497C15.24 14.8497 14.7 15.5897 14.7 16.4497C14.7 17.5797 15.62 18.4997 16.75 18.4997C17.88 18.4997 18.8 17.5797 18.8 16.4497C18.8 15.5897 18.26 14.8497 17.5 14.5497Z" fill="#211B2A"/>
</svg>
