<svg width="24" height="24" viewBox="0 0 24 24" fill="none" xmlns="http://www.w3.org/2000/svg">
<path d="M18.75 22C20.5449 22 22 20.5449 22 18.75C22 16.9551 20.5449 15.5 18.75 15.5C16.9551 15.5 15.5 16.9551 15.5 18.75C15.5 20.5449 16.9551 22 18.75 22Z" fill="#211B2A"/>
<path d="M19 8C20.6569 8 22 6.65685 22 5C22 3.34315 20.6569 2 19 2C17.3431 2 16 3.34315 16 5C16 6.65685 17.3431 8 19 8Z" fill="#211B2A"/>
<path d="M5 8C6.65685 8 8 6.65685 8 5C8 3.34315 6.65685 2 5 2C3.34315 2 2 3.34315 2 5C2 6.65685 3.34315 8 5 8Z" fill="#211B2A"/>
<path opacity="0.4" d="M4.83003 8.01953C5.80003 10.7995 8.42002 12.6695 11.37 12.6695C11.38 12.6695 11.39 12.6695 11.4 12.6695L14.93 12.6595C16.45 12.6395 17.81 13.6695 18.22 15.1495V16.9995C18.22 17.4195 18.56 17.7595 18.98 17.7595C19.4 17.7595 19.74 17.4195 19.74 16.9995V5.77953C19.74 5.35953 19.4 5.01953 18.98 5.01953C18.56 5.01953 18.22 5.35953 18.22 5.77953V12.3995C17.34 11.6195 16.19 11.1395 14.94 11.1395C14.93 11.1395 14.93 11.1395 14.92 11.1395L11.39 11.1495C11.38 11.1495 11.38 11.1495 11.37 11.1495C9.08002 11.1495 7.03002 9.69953 6.28002 7.52953C6.17002 7.20953 5.87003 7.01953 5.56003 7.01953C5.48003 7.01953 5.39003 7.02952 5.31003 7.05952C4.90003 7.17952 4.69003 7.61953 4.83003 8.01953Z" fill="#211B2A"/>
</svg>
