<svg width="24" height="24" viewBox="0 0 24 24" fill="none" xmlns="http://www.w3.org/2000/svg">
<path opacity="0.4" d="M8.5 18.9697H8C4 18.9697 2 17.9697 2 12.9697V7.96973C2 3.96973 4 1.96973 8 1.96973H16C20 1.96973 22 3.96973 22 7.96973V12.9697C22 16.9697 20 18.9697 16 18.9697H15.5C15.19 18.9697 14.89 19.1198 14.7 19.3698L13.2 21.3698C12.54 22.2498 11.46 22.2498 10.8 21.3698L9.29999 19.3698C9.13999 19.1498 8.78 18.9697 8.5 18.9697Z" fill="#211B2A"/>
<path d="M8 13.4497C7.81 13.4497 7.62 13.3796 7.47 13.2296L5.47 11.2296C5.18 10.9396 5.18 10.4596 5.47 10.1696L7.47 8.16965C7.76 7.87965 8.24 7.87965 8.53 8.16965C8.82 8.45965 8.82 8.93965 8.53 9.22965L7.06 10.6997L8.53 12.1696C8.82 12.4596 8.82 12.9396 8.53 13.2296C8.38 13.3796 8.19 13.4497 8 13.4497Z" fill="#211B2A"/>
<path d="M16 13.4497C15.81 13.4497 15.62 13.3796 15.47 13.2296C15.18 12.9396 15.18 12.4596 15.47 12.1696L16.94 10.6997L15.47 9.22965C15.18 8.93965 15.18 8.45965 15.47 8.16965C15.76 7.87965 16.24 7.87965 16.53 8.16965L18.53 10.1696C18.82 10.4596 18.82 10.9396 18.53 11.2296L16.53 13.2296C16.38 13.3796 16.19 13.4497 16 13.4497Z" fill="#211B2A"/>
<path d="M11 13.7798C10.9 13.7798 10.8 13.7597 10.7 13.7197C10.32 13.5597 10.14 13.1197 10.31 12.7297L12.31 8.05975C12.47 7.67975 12.91 7.49973 13.3 7.66973C13.68 7.82973 13.86 8.26972 13.69 8.65972L11.69 13.3298C11.57 13.6098 11.29 13.7798 11 13.7798Z" fill="#211B2A"/>
</svg>
