<svg width="24" height="24" viewBox="0 0 24 24" fill="none" xmlns="http://www.w3.org/2000/svg">
<path opacity="0.4" d="M5.75 16.11V7.90001C7.04 7.57001 8 6.40001 8 5.01001C8 3.35001 6.66 2.01001 5 2.01001C3.34 2.01001 2 3.35001 2 5.01001C2 6.41001 2.96 7.57001 4.25 7.90001V16.11C2.96 16.44 2 17.61 2 19C2 20.66 3.34 22 5 22C6.66 22 8 20.66 8 19C8 17.6 7.04 16.44 5.75 16.11Z" fill="#211B2A"/>
<path d="M19.75 16.1097V6.49969C19.75 4.97969 18.52 3.74969 17 3.74969H14.07L15.48 2.57969C15.8 2.30969 15.84 1.83969 15.58 1.51969C15.31 1.19969 14.84 1.15968 14.52 1.41968L11.52 3.91968C11.35 4.05968 11.25 4.26969 11.25 4.49969C11.25 4.72969 11.35 4.92969 11.52 5.07969L14.52 7.57969C14.66 7.69969 14.83 7.74969 15 7.74969C15.21 7.74969 15.43 7.65968 15.58 7.47968C15.85 7.15968 15.8 6.68968 15.48 6.41968L14.07 5.24969H17C17.69 5.24969 18.25 5.80969 18.25 6.49969V16.1097C16.96 16.4397 16 17.6097 16 18.9997C16 20.6597 17.34 21.9997 19 21.9997C20.66 21.9997 22 20.6597 22 18.9997C22 17.5997 21.04 16.4397 19.75 16.1097Z" fill="#211B2A"/>
</svg>
