<svg width="24" height="24" viewBox="0 0 24 24" fill="none" xmlns="http://www.w3.org/2000/svg">
<path opacity="0.4" d="M16.19 2H7.81C4.17 2 2 4.17 2 7.81V16.18C2 19.83 4.17 22 7.81 22H16.18C19.82 22 21.99 19.83 21.99 16.19V7.81C22 4.17 19.83 2 16.19 2Z" fill="#211B2A"/>
<path d="M9.60001 15.78C9.41001 15.78 9.22001 15.71 9.07001 15.56L6.58001 13.07C5.99001 12.48 5.99001 11.53 6.58001 10.94L9.07001 8.45004C9.36001 8.16004 9.84001 8.16004 10.13 8.45004C10.42 8.74004 10.42 9.22004 10.13 9.51004L7.64001 12L10.13 14.5C10.42 14.79 10.42 15.27 10.13 15.56C9.98001 15.7 9.79001 15.78 9.60001 15.78Z" fill="#211B2A"/>
<path d="M14.4 15.78C14.21 15.78 14.02 15.71 13.87 15.56C13.58 15.27 13.58 14.79 13.87 14.5L16.36 12L13.87 9.50003C13.58 9.21003 13.58 8.73003 13.87 8.44003C14.16 8.15003 14.64 8.15003 14.93 8.44003L17.42 10.93C18.01 11.52 18.01 12.47 17.42 13.06L14.93 15.55C14.79 15.7 14.59 15.78 14.4 15.78Z" fill="#211B2A"/>
</svg>
