<svg width="24" height="24" viewBox="0 0 24 24" fill="none" xmlns="http://www.w3.org/2000/svg">
<path opacity="0.4" d="M7.81 22H16.19C19.83 22 22 19.83 22 16.19V7.81C22 7.61 21.99 7.41 21.98 7.22C21.9 5.99 21.55 4.95 20.95 4.13C20.66 3.71 20.29 3.34 19.87 3.05C18.92 2.36 17.68 2 16.19 2H7.81C4.37 2 2.24 3.94 2.03 7.22C2.01 7.41 2 7.61 2 7.81V16.19C2 17.68 2.36 18.92 3.05 19.87C3.34 20.29 3.71 20.66 4.13 20.95C5.08 21.64 6.32 22 7.81 22Z" fill="#211B2A"/>
<path d="M2 8.71973H22V7.80973C22 7.60973 21.99 7.40973 21.98 7.21973H2.03C2.01 7.40973 2 7.60973 2 7.80973V8.71973Z" fill="#211B2A"/>
<path d="M15.31 14.9696C15.31 14.7796 15.24 14.5896 15.09 14.4396L12.53 11.8796C12.24 11.5896 11.76 11.5896 11.47 11.8796L8.91 14.4396C8.62 14.7296 8.62 15.2096 8.91 15.4996C9.2 15.7896 9.68001 15.7896 9.97001 15.4996L12 13.4796L14.03 15.5096C14.32 15.7996 14.8 15.7996 15.09 15.5096C15.24 15.3596 15.31 15.1696 15.31 14.9696Z" fill="#211B2A"/>
</svg>
