<svg width="24" height="24" viewBox="0 0 24 24" fill="none" xmlns="http://www.w3.org/2000/svg">
<path opacity="0.4" d="M22 7.81V16.19C22 19.83 19.83 22 16.19 22H7.81C7.61 22 7.41 21.99 7.22 21.98C5.99 21.9 4.95 21.55 4.13 20.95C3.71 20.66 3.34 20.29 3.05 19.87C2.36 18.92 2 17.68 2 16.19V7.81C2 4.37 3.94 2.24 7.22 2.03C7.41 2.01 7.61 2 7.81 2H16.19C17.68 2 18.92 2.36 19.87 3.05C20.29 3.34 20.66 3.71 20.95 4.13C21.64 5.08 22 6.32 22 7.81Z" fill="#211B2A"/>
<path d="M8.72 2V22H7.81C7.61 22 7.41 21.99 7.22 21.98V2.03C7.41 2.01 7.61 2 7.81 2H8.72Z" fill="#211B2A"/>
<path d="M14.97 15.31C14.78 15.31 14.59 15.24 14.44 15.09L11.88 12.53C11.59 12.24 11.59 11.76 11.88 11.47L14.44 8.91C14.73 8.62 15.21 8.62 15.5 8.91C15.79 9.2 15.79 9.68001 15.5 9.97001L13.48 12L15.51 14.03C15.8 14.32 15.8 14.8 15.51 15.09C15.36 15.24 15.17 15.31 14.97 15.31Z" fill="#211B2A"/>
</svg>
