<svg width="24" height="24" viewBox="0 0 24 24" fill="none" xmlns="http://www.w3.org/2000/svg">
<path opacity="0.4" d="M18.57 22H14C11.71 22 10.57 20.86 10.57 18.57V11.43C10.57 9.14 11.71 8 14 8H18.57C20.86 8 22 9.14 22 11.43V18.57C22 20.86 20.86 22 18.57 22Z" fill="#211B2A"/>
<path d="M13.43 5.43V6.77C10.81 6.98 9.32 8.66 9.32 11.43V16H5.43C3.14 16 2 14.86 2 12.57V5.43C2 3.14 3.14 2 5.43 2H10C12.29 2 13.43 3.14 13.43 5.43Z" fill="#211B2A"/>
<path d="M18.13 14.2501H17.25V13.3701C17.25 12.9601 16.91 12.6201 16.5 12.6201C16.09 12.6201 15.75 12.9601 15.75 13.3701V14.2501H14.87C14.46 14.2501 14.12 14.5901 14.12 15.0001C14.12 15.4101 14.46 15.7501 14.87 15.7501H15.75V16.6301C15.75 17.0401 16.09 17.3801 16.5 17.3801C16.91 17.3801 17.25 17.0401 17.25 16.6301V15.7501H18.13C18.54 15.7501 18.88 15.4101 18.88 15.0001C18.88 14.5901 18.54 14.2501 18.13 14.2501Z" fill="#211B2A"/>
</svg>
