<svg width="24" height="24" viewBox="0 0 24 24" fill="none" xmlns="http://www.w3.org/2000/svg">
<path d="M16 9C16 12.87 12.87 16 9 16C8.68 16 8.37 15.98 8.07 15.93C4.64 15.48 2 12.55 2 9C2 5.13 5.13 2 9 2C12.55 2 15.48 4.64 15.93 8.07C15.98 8.37 16 8.68 16 9Z" stroke="#211B2A" stroke-width="1.5" stroke-linecap="round" stroke-linejoin="round"/>
<path opacity="0.4" d="M22 14.9998C22 18.8698 18.87 21.9998 15 21.9998C11.45 21.9998 8.52001 19.3598 8.07001 15.9298C8.37001 15.9798 8.68001 15.9998 9.00001 15.9998C12.87 15.9998 16 12.8698 16 8.99982C16 8.67982 15.98 8.36982 15.93 8.06982C19.36 8.51982 22 11.4498 22 14.9998Z" stroke="#211B2A" stroke-width="1.5" stroke-linecap="round" stroke-linejoin="round"/>
<path opacity="0.4" d="M14.15 14.1201L15.46 15.4101" stroke="#211B2A" stroke-width="1.5" stroke-linecap="round" stroke-linejoin="round"/>
<path opacity="0.4" d="M17 12L16 11" stroke="#211B2A" stroke-width="1.5" stroke-linecap="round" stroke-linejoin="round"/>
<path opacity="0.4" d="M12 17L11 16" stroke="#211B2A" stroke-width="1.5" stroke-linecap="round" stroke-linejoin="round"/>
</svg>
