<svg width="24" height="24" viewBox="0 0 24 24" fill="none" xmlns="http://www.w3.org/2000/svg">
<path d="M8.96997 2C12.52 2 15.45 4.64 15.9 8.07C15.95 8.37 15.97 8.68 15.97 9C15.97 12.87 12.84 16 8.96997 16C8.64997 16 8.33997 15.98 8.03997 15.93C4.60997 15.48 1.96997 12.55 1.96997 9C1.96997 7.07 2.74997 5.32 4.01997 4.05" stroke="#211B2A" stroke-width="1.5" stroke-linecap="round" stroke-linejoin="round"/>
<path d="M21.97 14.9998C21.97 18.8698 18.84 21.9998 14.97 21.9998C11.42 21.9998 8.48998 19.3598 8.03998 15.9298C8.33998 15.9798 8.64998 15.9998 8.96998 15.9998C12.84 15.9998 15.97 12.8698 15.97 8.99982C15.97 8.67982 15.95 8.36982 15.9 8.06982C19.33 8.51982 21.97 11.4498 21.97 14.9998Z" stroke="#211B2A" stroke-width="1.5" stroke-linecap="round" stroke-linejoin="round"/>
<path d="M14.12 14.1201L15.43 15.4101" stroke="#211B2A" stroke-width="1.5" stroke-linecap="round" stroke-linejoin="round"/>
<path d="M16.97 12L15.97 11" stroke="#211B2A" stroke-width="1.5" stroke-linecap="round" stroke-linejoin="round"/>
<path d="M11.97 17L10.97 16" stroke="#211B2A" stroke-width="1.5" stroke-linecap="round" stroke-linejoin="round"/>
</svg>
