<svg width="24" height="24" viewBox="0 0 24 24" fill="none" xmlns="http://www.w3.org/2000/svg">
<g clip-path="url(#clip0_6502_44350)">
<path d="M10.97 2H8.97C3.97 2 1.97 4 1.97 9V15C1.97 20 3.97 22 8.97 22H14.97C19.97 22 21.97 20 21.97 15V13" stroke="#211B2A" stroke-width="1.5" stroke-linecap="round" stroke-linejoin="round"/>
<path d="M21.88 3.56022C20.65 6.63022 17.56 10.8102 14.98 12.8802L13.4 14.1402C13.2 14.2902 13 14.4102 12.77 14.5002C12.77 14.3502 12.76 14.2002 12.74 14.0402C12.65 13.3702 12.35 12.7402 11.81 12.2102C11.26 11.6602 10.6 11.3502 9.92 11.2602C9.76 11.2502 9.6 11.2402 9.44 11.2502C9.53 11.0002 9.66 10.7702 9.83 10.5802L11.09 9.00022C13.16 6.42022 17.35 3.31022 20.41 2.08022C20.88 1.90022 21.34 2.04022 21.63 2.33022C21.93 2.63022 22.07 3.09022 21.88 3.56022Z" stroke="#211B2A" stroke-width="1.5" stroke-linecap="round" stroke-linejoin="round"/>
<path d="M12.78 14.49C12.78 15.37 12.44 16.21 11.81 16.85C11.32 17.34 10.66 17.68 9.87 17.78L7.9 17.99C6.83 18.11 5.91 17.2 6.03 16.11L6.24 14.14C6.43 12.39 7.89 11.27 9.45 11.24C9.61 11.23 9.77 11.24 9.93 11.25C10.61 11.34 11.27 11.65 11.82 12.2C12.36 12.74 12.66 13.36 12.75 14.03C12.77 14.19 12.78 14.35 12.78 14.49Z" stroke="#211B2A" stroke-width="1.5" stroke-linecap="round" stroke-linejoin="round"/>
<path d="M15.82 11.9799C15.82 9.88994 14.13 8.18994 12.03 8.18994" stroke="#211B2A" stroke-width="1.5" stroke-linecap="round" stroke-linejoin="round"/>
</g>
<defs>
<clipPath id="clip0_6502_44350">
<rect width="24" height="24" fill="white"/>
</clipPath>
</defs>
</svg>
