<svg width="24" height="24" viewBox="0 0 24 24" fill="none" xmlns="http://www.w3.org/2000/svg">
<path d="M1.97 12.9399V14.9999C1.97 19.9999 3.97 21.9999 8.97 21.9999H14.97C19.97 21.9999 21.97 19.9999 21.97 14.9999V12.9999" stroke="#211B2A" stroke-width="1.5" stroke-linecap="round" stroke-linejoin="round"/>
<path d="M10.97 2H8.97C3.97 2 1.97 4 1.97 9" stroke="#211B2A" stroke-width="1.5" stroke-linecap="round" stroke-linejoin="round"/>
<path d="M18.51 3.00022C19.17 2.63022 19.81 2.32022 20.41 2.08022C20.88 1.90022 21.34 2.04022 21.63 2.33022C21.93 2.63022 22.08 3.09022 21.89 3.56022C20.66 6.63022 17.57 10.8102 14.99 12.8802L13.41 14.1402C13.21 14.2902 13.01 14.4102 12.78 14.5002C12.78 14.3502 12.77 14.2002 12.75 14.0402C12.66 13.3702 12.36 12.7402 11.82 12.2102C11.27 11.6602 10.61 11.3502 9.93 11.2602C9.77 11.2502 9.61 11.2402 9.45 11.2502C9.54 11.0002 9.67 10.7702 9.84 10.5802L11.09 9.00022C12.16 7.66022 13.81 6.18022 15.58 4.89022" stroke="#211B2A" stroke-width="1.5" stroke-linecap="round" stroke-linejoin="round"/>
<path d="M12.78 14.49C12.78 15.37 12.44 16.21 11.81 16.85C11.32 17.34 10.66 17.68 9.87 17.78L7.9 17.99C6.83 18.11 5.91 17.2 6.03 16.11L6.24 14.14C6.43 12.39 7.89 11.27 9.45 11.24C9.61 11.23 9.77 11.24 9.93 11.25C10.61 11.34 11.27 11.65 11.82 12.2C12.36 12.74 12.66 13.36 12.75 14.03C12.77 14.19 12.78 14.35 12.78 14.49Z" stroke="#211B2A" stroke-width="1.5" stroke-linecap="round" stroke-linejoin="round"/>
<path d="M15.82 11.9799C15.82 9.88994 14.13 8.18994 12.03 8.18994" stroke="#211B2A" stroke-width="1.5" stroke-linecap="round" stroke-linejoin="round"/>
</svg>
