<svg width="24" height="24" viewBox="0 0 24 24" fill="none" xmlns="http://www.w3.org/2000/svg">
<path d="M9.5 19.5V18H4.5C3.95 18 3.45 17.78 3.09 17.41C2.72 17.05 2.5 16.55 2.5 16C2.5 14.97 3.3 14.11 4.31 14.01C4.37 14 4.43 14 4.5 14H19.5C19.57 14 19.63 14 19.69 14.01C20.17 14.05 20.59 14.26 20.91 14.59C21.32 14.99 21.54 15.56 21.49 16.18C21.4 17.23 20.45 18 19.39 18H14.5V19.5C14.5 20.88 13.38 22 12 22C10.62 22 9.5 20.88 9.5 19.5Z" fill="#211B2A"/>
<path d="M17.19 2H13.25C12.97 2 12.75 2.22 12.75 2.5V4C12.75 4.41 12.41 4.75 12 4.75C11.91 4.75 11.83 4.73 11.75 4.7C11.46 4.6 11.25 4.32 11.25 4V2.5C11.25 2.22 11.03 2 10.75 2H9.24003C8.96003 2 8.74003 2.22 8.74003 2.5V7C8.74003 7.41 8.40003 7.75 7.99003 7.75C7.58003 7.75 7.24003 7.41 7.24003 7V4.75V2.5C7.24003 2.23 7.04003 2.02 6.77003 2H6.74003C5.00003 2.04 3.65003 3.55 3.83003 5.3L4.20003 12.05C4.23003 12.58 4.67003 13 5.20003 13H18.8C19.33 13 19.77 12.58 19.8 12.05L20.17 5.3C20.35 3.53 18.96 2 17.19 2Z" fill="#211B2A"/>
</svg>
