<svg width="24" height="24" viewBox="0 0 24 24" fill="none" xmlns="http://www.w3.org/2000/svg">
<path opacity="0.4" d="M16.19 2H7.81C4.17 2 2 4.17 2 7.81V16.18C2 19.83 4.17 22 7.81 22H16.18C19.82 22 21.99 19.83 21.99 16.19V7.81C22 4.17 19.83 2 16.19 2Z" fill="#211B2A"/>
<path d="M21.83 3.55022C20.78 6.16022 18.4 9.57022 16.12 11.8002C15.79 9.74022 14.15 8.13022 12.07 7.84022C14.31 5.56022 17.74 3.14022 20.36 2.08022C20.82 1.90022 21.29 2.04022 21.57 2.33022C21.88 2.63022 22.02 3.09022 21.83 3.55022Z" fill="#211B2A"/>
<path opacity="0.4" d="M16.12 11.7901C15.72 12.1801 15.32 12.5401 14.94 12.8401L13.37 14.1001C13.17 14.2401 12.97 14.3601 12.75 14.4601C12.75 14.3101 12.73 14.1601 12.72 14.0001C12.63 13.3401 12.33 12.7101 11.79 12.1701C11.24 11.6301 10.58 11.3201 9.90999 11.2301C9.74999 11.2101 9.57999 11.2101 9.42999 11.2101C9.51999 10.9601 9.64999 10.7301 9.81999 10.5401L11.07 8.97008C11.37 8.59008 11.71 8.21008 12.08 7.83008C14.15 8.12008 15.8 9.74008 16.12 11.7901Z" fill="#211B2A"/>
<path d="M12.75 14.47C12.75 15.35 12.41 16.19 11.78 16.82C11.29 17.31 10.64 17.65 9.84 17.75L7.88 17.97C6.81 18.09 5.89 17.17 6.01 16.09L6.23 14.13C6.42 12.38 7.88 11.26 9.43 11.23C9.58 11.22 9.75 11.23 9.91 11.25C10.59 11.34 11.24 11.65 11.79 12.19C12.32 12.72 12.63 13.36 12.72 14.02C12.73 14.17 12.75 14.32 12.75 14.47Z" fill="#211B2A"/>
</svg>
