<svg width="24" height="24" viewBox="0 0 24 24" fill="none" xmlns="http://www.w3.org/2000/svg">
<path opacity="0.4" d="M12 22C17.5228 22 22 17.5228 22 12C22 6.47715 17.5228 2 12 2C6.47715 2 2 6.47715 2 12C2 17.5228 6.47715 22 12 22Z" fill="#211B2A"/>
<path d="M15.66 11.93C15.65 11.79 15.59 11.64 15.49 11.54L10.79 6.84001L10.24 6.28996C10.05 6.09996 9.74997 6.09996 9.55997 6.28996C9.36997 6.47996 9.36997 6.77995 9.55997 6.96995L10.11 7.52L6.50998 11.12C6.09998 11.53 5.87997 11.95 5.86997 12.36C5.85997 12.8 6.06998 13.24 6.50998 13.68L9.07996 16.25C9.93996 17.1 10.8 17.1 11.65 16.25L15.5 12.4C15.61 12.27 15.67 12.09 15.66 11.93Z" fill="#211B2A"/>
<path d="M16.96 14.1902C16.8 14.0102 16.49 14.0102 16.32 14.1902C16.12 14.4002 15.13 15.5202 15.13 16.3602C15.13 17.1902 15.8 17.8602 16.63 17.8602C17.46 17.8602 18.13 17.1902 18.13 16.3602C18.14 15.5202 17.16 14.4102 16.96 14.1902Z" fill="#211B2A"/>
</svg>
