<svg width="24" height="24" viewBox="0 0 24 24" fill="none" xmlns="http://www.w3.org/2000/svg">
<path d="M17.04 10.6401L9.69001 3.29014L8.82001 2.42014C8.53001 2.13014 8.05001 2.13014 7.76001 2.42014C7.47001 2.71014 7.47001 3.19014 7.76001 3.48014L8.63001 4.35014L3.00001 9.98014C2.36001 10.6201 2.02001 11.2701 2.00001 11.9201C1.98001 12.6101 2.32001 13.3001 3.00001 13.9901L7.01001 18.0001C8.35001 19.3301 9.69001 19.3301 11.02 18.0001L17.04 11.9801C17.24 11.7801 17.33 11.5101 17.31 11.2501C17.3 11.0301 17.2 10.8001 17.04 10.6401Z" fill="#211B2A"/>
<path d="M16 22.75H3C2.59 22.75 2.25 22.41 2.25 22C2.25 21.59 2.59 21.25 3 21.25H16C16.41 21.25 16.75 21.59 16.75 22C16.75 22.41 16.41 22.75 16 22.75Z" fill="#211B2A"/>
<path d="M19.35 14.7798C19.09 14.4998 18.61 14.4998 18.35 14.7798C18.04 15.1198 16.5 16.8498 16.5 18.1698C16.5 19.4698 17.55 20.5198 18.85 20.5198C20.15 20.5198 21.2 19.4698 21.2 18.1698C21.2 16.8598 19.66 15.1198 19.35 14.7798Z" fill="#211B2A"/>
</svg>
