<svg width="24" height="24" viewBox="0 0 24 24" fill="none" xmlns="http://www.w3.org/2000/svg">
<path d="M9.41 15.9496L7.01998 13.5598C6.21998 12.7598 6.21998 11.9597 7.01998 11.1697L11.01 7.17969L15.4 11.5697C15.62 11.7897 15.62 12.1497 15.4 12.3697L11.81 15.9597C11.01 16.7497 10.21 16.7496 9.41 15.9496Z" stroke="#211B2A" stroke-width="1.5" stroke-miterlimit="10" stroke-linecap="round" stroke-linejoin="round"/>
<path d="M10.21 6.37988L11.01 7.17987" stroke="#211B2A" stroke-width="1.5" stroke-miterlimit="10" stroke-linecap="round" stroke-linejoin="round"/>
<path d="M6.45996 12.3299L15.49 11.9399" stroke="#211B2A" stroke-width="1.5" stroke-miterlimit="10" stroke-linecap="round" stroke-linejoin="round"/>
<path d="M16.47 14.1699C16.47 14.1699 15.37 15.3699 15.37 16.0999C15.37 16.7099 15.87 17.1998 16.47 17.1998C17.08 17.1998 17.57 16.6999 17.57 16.0999C17.58 15.3599 16.47 14.1699 16.47 14.1699Z" stroke="#211B2A" stroke-width="1.5" stroke-linecap="round" stroke-linejoin="round"/>
<path d="M12 22C17.5228 22 22 17.5228 22 12C22 6.47715 17.5228 2 12 2C6.47715 2 2 6.47715 2 12C2 17.5228 6.47715 22 12 22Z" stroke="#211B2A" stroke-width="1.5" stroke-linecap="round" stroke-linejoin="round"/>
</svg>
