<svg width="24" height="24" viewBox="0 0 24 24" fill="none" xmlns="http://www.w3.org/2000/svg">
<path opacity="0.4" d="M16.19 2H7.82001C4.18001 2 2.01001 4.17 2.01001 7.81V16.18C2.01001 19.82 4.18001 21.99 7.82001 21.99H16.19C19.83 21.99 22 19.82 22 16.18V7.81C22 4.17 19.83 2 16.19 2Z" fill="#211B2A"/>
<path d="M15.66 11.93C15.65 11.79 15.59 11.64 15.49 11.54L10.79 6.84001L10.24 6.28996C10.05 6.09996 9.74997 6.09996 9.55997 6.28996C9.36997 6.47996 9.36997 6.77995 9.55997 6.96995L10.11 7.52L6.50998 11.12C6.09998 11.53 5.87997 11.95 5.86997 12.36C5.85997 12.8 6.06998 13.24 6.50998 13.69L9.07996 16.26C9.93996 17.11 10.8 17.11 11.65 16.26L15.5 12.41C15.61 12.27 15.67 12.09 15.66 11.93Z" fill="#211B2A"/>
<path d="M16.96 14.1902C16.8 14.0102 16.49 14.0102 16.32 14.1902C16.12 14.4002 15.13 15.5202 15.13 16.3602C15.13 17.1902 15.8 17.8602 16.63 17.8602C17.46 17.8602 18.13 17.1902 18.13 16.3602C18.14 15.5202 17.16 14.4102 16.96 14.1902Z" fill="#211B2A"/>
</svg>
