<svg width="24" height="24" viewBox="0 0 24 24" fill="none" xmlns="http://www.w3.org/2000/svg">
<path d="M18 3.02011C18.68 2.66011 19.34 2.35011 19.96 2.10011C20.55 1.88011 21.12 2.04011 21.48 2.41011C21.86 2.79011 22.04 3.36011 21.8 3.95011C20.26 7.79011 16.4 13.0101 13.17 15.6001L11.2 17.1801C10.95 17.3601 10.7 17.5201 10.42 17.6301C10.42 17.4501 10.41 17.2501 10.38 17.0601C10.27 16.2201 9.88999 15.4401 9.21999 14.7701C8.53999 14.0901 7.70999 13.6901 6.85999 13.5801C6.65999 13.5701 6.45999 13.5501 6.25999 13.5701C6.36999 13.2601 6.53999 12.9701 6.74999 12.7301L8.30999 10.7601C9.75999 8.95011 12.04 6.94011 14.43 5.25011" stroke="#211B2A" stroke-width="1.5" stroke-linecap="round" stroke-linejoin="round"/>
<path d="M10.43 17.6198C10.43 18.7198 10.01 19.7698 9.22 20.5698C8.61 21.1798 7.78 21.5998 6.79 21.7298L4.33 21.9998C2.99 22.1498 1.84 21.0098 2 19.6498L2.27 17.1898C2.51 14.9998 4.34 13.5998 6.28 13.5598C6.48 13.5498 6.69 13.5598 6.88 13.5698C7.73 13.6798 8.56 14.0698 9.24 14.7598C9.91 15.4298 10.29 16.2098 10.4 17.0498C10.41 17.2398 10.43 17.4298 10.43 17.6198Z" stroke="#211B2A" stroke-width="1.5" stroke-linecap="round" stroke-linejoin="round"/>
<path d="M14.24 14.4702C14.24 11.8602 12.12 9.74023 9.50999 9.74023" stroke="#211B2A" stroke-width="1.5" stroke-linecap="round" stroke-linejoin="round"/>
<path d="M20.12 12.73L20.86 13.46C22.35 14.95 22.35 16.42 20.86 17.91L17.9 20.87C16.43 22.34 14.94 22.34 13.47 20.87" stroke="#211B2A" stroke-width="1.5" stroke-linecap="round"/>
<path d="M3.11001 10.5101C1.64001 9.02006 1.64001 7.55006 3.11001 6.06006L6.07001 3.10006C7.54001 1.63006 9.03001 1.63006 10.5 3.10006L11.24 3.84006" stroke="#211B2A" stroke-width="1.5" stroke-linecap="round"/>
<path d="M11.25 3.8501L7.55 7.5501" stroke="#211B2A" stroke-width="1.5" stroke-linecap="round"/>
<path d="M20.12 12.73L17.16 15.68" stroke="#211B2A" stroke-width="1.5" stroke-linecap="round"/>
</svg>
