<svg width="24" height="24" viewBox="0 0 24 24" fill="none" xmlns="http://www.w3.org/2000/svg">
<g clip-path="url(#clip0_6502_44143)">
<path d="M10.43 17.6198C10.43 18.7198 10.01 19.7698 9.22 20.5698C8.61 21.1798 7.78 21.5998 6.79 21.7298L4.33 21.9998C2.99 22.1498 1.84 21.0098 2 19.6498L2.27 17.1898C2.51 14.9998 4.34 13.5998 6.28 13.5598C6.48 13.5498 6.69 13.5598 6.88 13.5698C7.73 13.6798 8.56 14.0698 9.24 14.7598C9.91 15.4298 10.29 16.2098 10.4 17.0498C10.41 17.2398 10.43 17.4298 10.43 17.6198Z" stroke="#211B2A" stroke-width="1.5" stroke-linecap="round" stroke-linejoin="round"/>
<g opacity="0.4">
<path d="M21.8095 3.93988C20.2695 7.77988 16.4095 12.9999 13.1795 15.5899L11.2095 17.1699C10.9595 17.3499 10.7095 17.5099 10.4295 17.6199C10.4295 17.4399 10.4195 17.2399 10.3895 17.0499C10.2795 16.2099 9.89953 15.4299 9.22953 14.7599C8.54953 14.0799 7.71953 13.6799 6.86953 13.5699C6.66953 13.5599 6.46953 13.5399 6.26953 13.5599C6.37953 13.2499 6.54953 12.9599 6.75953 12.7199L8.31953 10.7499C10.8995 7.51988 16.1395 3.63988 19.9695 2.10988C20.5595 1.88988 21.1295 2.04988 21.4895 2.41988C21.8695 2.78988 22.0495 3.35988 21.8095 3.93988Z" stroke="#211B2A" stroke-width="1.5" stroke-linecap="round" stroke-linejoin="round"/>
<path d="M14.2398 14.4702C14.2398 11.8602 12.1198 9.74023 9.50977 9.74023" stroke="#211B2A" stroke-width="1.5" stroke-linecap="round" stroke-linejoin="round"/>
</g>
<path d="M20.12 12.73L20.86 13.46C22.35 14.95 22.35 16.42 20.86 17.91L17.9 20.87C16.43 22.34 14.94 22.34 13.47 20.87" stroke="#211B2A" stroke-width="1.5" stroke-linecap="round"/>
<path d="M3.11001 10.5101C1.64001 9.02006 1.64001 7.55006 3.11001 6.06006L6.07001 3.10006C7.54001 1.63006 9.03001 1.63006 10.5 3.10006L11.24 3.84006" stroke="#211B2A" stroke-width="1.5" stroke-linecap="round"/>
<path opacity="0.4" d="M11.25 3.8501L7.55 7.5501" stroke="#211B2A" stroke-width="1.5" stroke-linecap="round"/>
<path opacity="0.4" d="M20.12 12.73L17.16 15.68" stroke="#211B2A" stroke-width="1.5" stroke-linecap="round"/>
</g>
<defs>
<clipPath id="clip0_6502_44143">
<rect width="24" height="24" fill="white"/>
</clipPath>
</defs>
</svg>
