<svg width="24" height="24" viewBox="0 0 24 24" fill="none" xmlns="http://www.w3.org/2000/svg">
<path opacity="0.4" d="M21.97 12C21.97 14.49 21.06 16.77 19.55 18.52C19.22 18.9 18.87 19.26 18.49 19.57C16.75 21.09 14.47 22 11.97 22C9.48 22 7.2 21.09 5.45 19.58C5.07 19.25 4.72 18.9 4.39 18.52C2.88 16.77 1.97 14.49 1.97 12C1.97 9.51 2.88 7.23 4.4 5.48C4.72 5.1 5.08 4.74 5.46 4.42C7.21 2.91 9.48 2 11.97 2C14.47 2 16.75 2.91 18.49 4.43C18.87 4.75 19.23 5.1 19.55 5.49C21.06 7.24 21.97 9.51 21.97 12Z" fill="#211B2A"/>
<path d="M15.65 14.6199L19.55 18.5199C19.22 18.8999 18.87 19.2599 18.49 19.5699L14.59 15.6699C13.85 16.1899 12.96 16.4999 12 16.4999C11.02 16.4999 10.12 16.1799 9.38 15.6499L5.45 19.5799C5.07 19.2499 4.72 18.8999 4.39 18.5199L8.33 14.5899C7.81 13.8499 7.5 12.9599 7.5 11.9999C7.5 11.0399 7.81 10.1499 8.33 9.40992L4.4 5.47992C4.72 5.09992 5.08 4.73992 5.46 4.41992L9.38 8.34992C10.12 7.81992 11.02 7.49992 12 7.49992C12.96 7.49992 13.85 7.80992 14.59 8.32992L18.49 4.42992C18.87 4.74992 19.23 5.09992 19.55 5.48992L15.65 9.37992C16.18 10.1199 16.5 11.0199 16.5 11.9999C16.5 12.9799 16.18 13.8799 15.65 14.6199Z" fill="#211B2A"/>
</svg>
