<svg width="24" height="24" viewBox="0 0 24 24" fill="none" xmlns="http://www.w3.org/2000/svg">
<path d="M11.97 22.75C6.05 22.75 1.22 17.93 1.22 12C1.22 6.07 6.05 1.25 11.97 1.25C17.89 1.25 22.72 6.07 22.72 12C22.72 17.93 17.9 22.75 11.97 22.75ZM11.97 2.75C6.87 2.75 2.72 6.9 2.72 12C2.72 17.1 6.87 21.25 11.97 21.25C17.07 21.25 21.22 17.1 21.22 12C21.22 6.9 17.07 2.75 11.97 2.75Z" fill="#211B2A"/>
<path d="M12 17.25C9.1 17.25 6.75 14.89 6.75 12C6.75 9.11 9.1 6.75 12 6.75C14.9 6.75 17.25 9.11 17.25 12C17.25 14.89 14.9 17.25 12 17.25ZM12 8.25C9.93 8.25 8.25 9.93 8.25 12C8.25 14.07 9.93 15.75 12 15.75C14.07 15.75 15.75 14.07 15.75 12C15.75 9.93 14.07 8.25 12 8.25Z" fill="#211B2A"/>
<path d="M8.44 9.21012C8.25 9.21012 8.05 9.14012 7.91 9.00012L4.37 5.46012C4.08 5.17012 4.08 4.69012 4.37 4.40012C4.66 4.11012 5.14 4.11012 5.43 4.40012L8.97 7.94012C9.26 8.23012 9.26 8.70012 8.97 9.00012C8.82 9.14012 8.63 9.21012 8.44 9.21012Z" fill="#211B2A"/>
<path d="M4.9 19.8202C4.71 19.8202 4.52 19.7502 4.37 19.6002C4.08 19.3102 4.08 18.8302 4.37 18.5402L7.91 15.0002C8.2 14.7102 8.68 14.7102 8.97 15.0002C9.26 15.2902 9.26 15.7702 8.97 16.0602L5.43 19.6002C5.29 19.7502 5.09 19.8202 4.9 19.8202Z" fill="#211B2A"/>
<path d="M19.04 19.8202C18.85 19.8202 18.66 19.7502 18.51 19.6002L14.97 16.0602C14.68 15.7702 14.68 15.2902 14.97 15.0002C15.26 14.7102 15.74 14.7102 16.03 15.0002L19.57 18.5402C19.86 18.8302 19.86 19.3102 19.57 19.6002C19.43 19.7502 19.24 19.8202 19.04 19.8202Z" fill="#211B2A"/>
<path d="M15.51 9.20986C15.32 9.20986 15.13 9.13986 14.98 8.98986C14.69 8.69986 14.69 8.21986 14.98 7.92986L18.52 4.38986C18.81 4.09986 19.29 4.09986 19.58 4.38986C19.87 4.67986 19.87 5.15986 19.58 5.44986L16.04 8.99986C15.89 9.13986 15.7 9.20986 15.51 9.20986Z" fill="#211B2A"/>
</svg>
