<svg width="24" height="24" viewBox="0 0 24 24" fill="none" xmlns="http://www.w3.org/2000/svg">
<path d="M14.15 22.0001H9.87002C8.34002 22.0001 7.20002 20.7601 7.49002 19.4301L8.19002 16.3501H15.83L16.53 19.4301C16.85 20.8401 15.78 22.0001 14.15 22.0001Z" fill="#211B2A"/>
<path opacity="0.4" d="M18.77 13.7402L15.83 16.3502H8.19001L5.25001 13.7402C3.54001 12.3402 3.54001 11.2602 4.84001 9.61018L10.03 3.04018C10.39 2.59018 10.81 2.28018 11.26 2.12018C11.75 1.95018 12.27 1.95018 12.76 2.12018C13.21 2.28018 13.63 2.59018 13.99 3.04018L19.18 9.61018C20.48 11.2602 20.42 12.2802 18.77 13.7402Z" fill="#211B2A"/>
<path d="M12.76 2.12018V6.97018C12.76 7.38018 12.42 7.72018 12.01 7.72018C11.6 7.72018 11.26 7.38018 11.26 6.97018V2.12018C11.75 1.95018 12.27 1.95018 12.76 2.12018Z" fill="#211B2A"/>
</svg>
