<svg width="24" height="24" viewBox="0 0 24 24" fill="none" xmlns="http://www.w3.org/2000/svg">
<path opacity="0.4" d="M16.19 2H7.81C4.17 2 2 4.17 2 7.81V16.18C2 19.83 4.17 22 7.81 22H16.18C19.82 22 21.99 19.83 21.99 16.19V7.81C22 4.17 19.83 2 16.19 2Z" fill="#211B2A"/>
<path d="M16.66 11.25L15.04 12.27L11.74 8.97998L12.77 7.34998C13.24 6.60998 14.2 6.56998 14.9 7.26998L16.75 9.11998C17.41 9.76998 17.37 10.8 16.66 11.25Z" fill="#211B2A"/>
<path opacity="0.6" d="M13.58 16.6202L8.51001 17.2202C8.29001 17.2502 8.09001 17.2402 7.90001 17.1802C7.35001 17.0602 6.96001 16.6702 6.84001 16.1202C6.78001 15.9302 6.77001 15.7302 6.80001 15.5102L7.39001 10.4402C7.55001 9.17017 8.01001 8.76017 9.35001 8.84017L11.74 8.98017L15.04 12.2702L15.18 14.6702C15.31 16.0102 14.85 16.4702 13.58 16.6202Z" fill="#211B2A"/>
<path d="M9.88003 15.1999L7.90003 17.1799C7.35003 17.0599 6.96003 16.6699 6.84003 16.1199L8.81003 14.1399C9.11003 13.8499 9.58003 13.8499 9.88003 14.1399C10.17 14.4299 10.17 14.9099 9.88003 15.1999Z" fill="#211B2A"/>
</svg>
