<svg width="24" height="24" viewBox="0 0 24 24" fill="none" xmlns="http://www.w3.org/2000/svg">
<path d="M20.02 10.6999L17.22 12.4699L11.56 6.80992L13.32 4.00992C14.14 2.71992 15.78 2.65992 16.99 3.85992L20.17 7.03992C21.3 8.16992 21.23 9.92992 20.02 10.6999Z" fill="#211B2A"/>
<path opacity="0.4" d="M14.71 19.95L6 20.98C5.4 21.05 4.86 20.96 4.41 20.74C3.92 20.5 3.54 20.12 3.3 19.63C3.08 19.18 3 18.64 3.06 18.05L4.1 9.32998C4.35 7.14998 5.16 6.43999 7.46 6.56999L11.58 6.81999L17.24 12.48L17.48 16.6C17.69 18.9 16.9 19.7 14.71 19.95Z" fill="#211B2A"/>
<path d="M7.97998 17.1502L4.39998 20.7302C3.90998 20.4902 3.52998 20.1102 3.28998 19.6202L6.87998 16.0302C7.18998 15.7302 7.68998 15.7302 7.98998 16.0302C8.29998 16.3502 8.29998 16.8402 7.97998 17.1502Z" fill="#211B2A"/>
</svg>
