<svg width="24" height="24" viewBox="0 0 24 24" fill="none" xmlns="http://www.w3.org/2000/svg">
<path d="M11.15 5.19015L10.37 4.41012C9.90002 3.94012 9.90002 3.18017 10.37 2.71017L11.15 1.93014C11.62 1.46014 12.38 1.46014 12.85 1.93014L13.63 2.71017C14.1 3.18017 14.1 3.94012 13.63 4.41012L12.85 5.19015C12.38 5.66015 11.62 5.66015 11.15 5.19015Z" fill="#211B2A"/>
<path d="M12 5.91013C11.6 5.91013 11.19 5.76016 10.89 5.45016L10.11 4.67013C9.50003 4.06013 9.50003 3.06015 10.11 2.44015L10.89 1.66013C11.48 1.06013 12.52 1.07013 13.12 1.66013L13.9 2.44015C14.51 3.05015 14.51 4.05013 13.9 4.67013L13.12 5.45016C12.81 5.76016 12.4 5.91013 12 5.91013ZM12 1.96017C11.79 1.96017 11.58 2.04016 11.42 2.20016L10.64 2.98013C10.32 3.30013 10.32 3.83018 10.64 4.15018L11.42 4.93014C11.74 5.25014 12.26 5.25014 12.59 4.93014L13.37 4.15018C13.69 3.83018 13.69 3.31013 13.37 2.98013L12.59 2.20016C12.42 2.04016 12.21 1.96017 12 1.96017Z" fill="#211B2A"/>
<path d="M19.45 9.81006H20.55C21.21 9.81006 21.75 10.3501 21.75 11.0101V12.11C21.75 12.77 21.21 13.3101 20.55 13.3101H19.45C18.79 13.3101 18.25 12.77 18.25 12.11V11.0101C18.25 10.3501 18.79 9.81006 19.45 9.81006Z" fill="#211B2A"/>
<path d="M20.55 13.6902H19.45C18.58 13.6902 17.87 12.9802 17.87 12.1102V11.0102C17.87 10.1402 18.58 9.43018 19.45 9.43018H20.55C21.42 9.43018 22.13 10.1402 22.13 11.0102V12.1102C22.12 12.9802 21.42 13.6902 20.55 13.6902ZM19.45 10.1902C18.99 10.1902 18.62 10.5602 18.62 11.0202V12.1202C18.62 12.5802 18.99 12.9502 19.45 12.9502H20.55C21.01 12.9502 21.38 12.5802 21.38 12.1202V11.0202C21.38 10.5602 21.01 10.1902 20.55 10.1902H19.45Z" fill="#211B2A"/>
<path d="M4.55 9.81006H3.45C2.79 9.81006 2.25 10.3501 2.25 11.0101V12.11C2.25 12.77 2.79 13.3101 3.45 13.3101H4.55C5.21 13.3101 5.75 12.77 5.75 12.11V11.0101C5.75 10.3501 5.21 9.81006 4.55 9.81006Z" fill="#211B2A"/>
<path d="M4.55 13.6902H3.44999C2.57999 13.6902 1.87 12.9802 1.87 12.1102V11.0102C1.87 10.1402 2.57999 9.43018 3.44999 9.43018H4.55C5.42 9.43018 6.12999 10.1402 6.12999 11.0102V12.1102C6.11999 12.9802 5.42 13.6902 4.55 13.6902ZM3.44999 10.1902C2.98999 10.1902 2.62 10.5602 2.62 11.0202V12.1202C2.62 12.5802 2.98999 12.9502 3.44999 12.9502H4.55C5.01 12.9502 5.37999 12.5802 5.37999 12.1202V11.0202C5.37999 10.5602 5.01 10.1902 4.55 10.1902H3.44999Z" fill="#211B2A"/>
<path fill-rule="evenodd" clip-rule="evenodd" d="M12.7097 4.26948C13.0026 3.97658 13.4774 3.97658 13.7703 4.26947L19.0703 9.56946C19.3632 9.86235 19.3632 10.3372 19.0703 10.6301C18.7774 10.923 18.3026 10.923 18.0097 10.6301L12.7097 5.33014C12.4168 5.03724 12.4168 4.56237 12.7097 4.26948Z" fill="#211B2A"/>
<path fill-rule="evenodd" clip-rule="evenodd" d="M11.2904 4.26948C11.5832 4.56237 11.5832 5.03724 11.2904 5.33014L5.99035 10.6301C5.69746 10.923 5.22258 10.923 4.92969 10.6301C4.6368 10.3372 4.6368 9.86235 4.92969 9.56946L10.2297 4.26947C10.5226 3.97658 10.9975 3.97658 11.2904 4.26948Z" fill="#211B2A"/>
<path d="M13.26 22.0101H10.7C9.78004 22.0101 9.10004 21.2701 9.27004 20.4701L9.69005 18.6201H14.28L14.7 20.4701C14.89 21.3201 14.24 22.0101 13.26 22.0101Z" fill="#211B2A"/>
<path opacity="0.4" d="M16.04 17.0499L14.27 18.6199H9.68002L7.91002 17.0499C6.88002 16.2099 6.88002 15.5599 7.66002 14.5699L10.78 10.6299C11 10.3599 11.25 10.1699 11.52 10.0799C11.81 9.97988 12.13 9.97988 12.42 10.0799C12.69 10.1799 12.94 10.3599 13.16 10.6299L16.28 14.5699C17.07 15.5599 17.03 16.1799 16.04 17.0499Z" fill="#211B2A"/>
</svg>
