<svg width="24" height="24" viewBox="0 0 24 24" fill="none" xmlns="http://www.w3.org/2000/svg">
<path d="M18.02 4.85991C16.82 3.65991 15.17 3.71993 14.36 5.00993L12.59 7.80992L18.26 13.4799L21.06 11.7099C22.27 10.9499 22.34 9.17991 21.2 8.04991" stroke="#211B2A" stroke-width="1.5" stroke-linecap="round" stroke-linejoin="round"/>
<path d="M11.29 21.4797L7.01999 21.9797C5.17999 22.1897 3.85999 20.8698 4.07999 19.0398L5.05998 10.7598" stroke="#211B2A" stroke-width="1.5" stroke-linecap="round" stroke-linejoin="round"/>
<path d="M18.25 13.4697L18.49 17.5897C18.72 19.8897 17.92 20.6897 15.74 20.9497" stroke="#211B2A" stroke-width="1.5" stroke-linecap="round" stroke-linejoin="round"/>
<path d="M12.58 7.81018L10.83 7.7002" stroke="#211B2A" stroke-width="1.5" stroke-linecap="round" stroke-linejoin="round"/>
<path d="M5.27997 20.7799L8.45998 17.5898" stroke="#211B2A" stroke-width="1.5" stroke-linecap="round" stroke-linejoin="round"/>
<path d="M11 6.5C11 6.91 10.94 7.32001 10.83 7.70001C10.72 8.10001 10.56 8.47001 10.35 8.82001C10.11 9.22001 9.81001 9.58 9.46001 9.88C8.67001 10.58 7.64 11 6.5 11C5.99 11 5.51 10.92 5.06 10.76C4.04 10.42 3.18999 9.72001 2.64999 8.82001C2.23999 8.14001 2 7.34 2 6.5C2 5.08 2.65 3.80999 3.69 2.98999C4.46 2.36999 5.44 2 6.5 2C8.99 2 11 4.01 11 6.5Z" stroke="#211B2A" stroke-width="1.5" stroke-miterlimit="10" stroke-linecap="round" stroke-linejoin="round"/>
<path d="M7.7 7.67981L5.32001 5.2998" stroke="#211B2A" stroke-width="1.5" stroke-miterlimit="10" stroke-linecap="round" stroke-linejoin="round"/>
<path d="M7.67998 5.31982L5.29999 7.69983" stroke="#211B2A" stroke-width="1.5" stroke-miterlimit="10" stroke-linecap="round" stroke-linejoin="round"/>
</svg>
