<svg width="24" height="24" viewBox="0 0 24 24" fill="none" xmlns="http://www.w3.org/2000/svg">
<g opacity="0.4">
<path d="M10.7498 22.5001H13.2698C14.2298 22.5001 14.8498 21.8201 14.6698 20.9901L14.2598 19.1802H9.75984L9.34984 20.9901C9.16984 21.7701 9.84984 22.5001 10.7498 22.5001Z" stroke="#211B2A" stroke-width="1.5" stroke-linecap="round" stroke-linejoin="round"/>
<path d="M14.2601 19.1702L15.9901 17.6301C16.9601 16.7701 17.0001 16.1701 16.2301 15.2001L13.1801 11.3302C12.5401 10.5202 11.4901 10.5202 10.8501 11.3302L7.80006 15.2001C7.03006 16.1701 7.03005 16.8001 8.04005 17.6301L9.77005 19.1702" stroke="#211B2A" stroke-width="1.5" stroke-linecap="round" stroke-linejoin="round"/>
<path d="M12.0098 11.1201V13.6501" stroke="#211B2A" stroke-width="1.5" stroke-linecap="round" stroke-linejoin="round"/>
</g>
<path d="M11.15 5.19015L10.37 4.41012C9.90002 3.94012 9.90002 3.18017 10.37 2.71017L11.15 1.93014C11.62 1.46014 12.38 1.46014 12.85 1.93014L13.63 2.71017C14.1 3.18017 14.1 3.94012 13.63 4.41012L12.85 5.19015C12.38 5.66015 11.62 5.66015 11.15 5.19015Z" stroke="#211B2A" stroke-width="1.5" stroke-linecap="round" stroke-linejoin="round"/>
<path d="M19.45 9.81006H20.55C21.21 9.81006 21.75 10.3501 21.75 11.0101V12.11C21.75 12.77 21.21 13.3101 20.55 13.3101H19.45C18.79 13.3101 18.25 12.77 18.25 12.11V11.0101C18.25 10.3501 18.79 9.81006 19.45 9.81006Z" stroke="#211B2A" stroke-width="1.5" stroke-linecap="round" stroke-linejoin="round"/>
<path d="M4.55 9.81006H3.45C2.79 9.81006 2.25 10.3501 2.25 11.0101V12.11C2.25 12.77 2.79 13.3101 3.45 13.3101H4.55C5.21 13.3101 5.75 12.77 5.75 12.11V11.0101C5.75 10.3501 5.21 9.81006 4.55 9.81006Z" stroke="#211B2A" stroke-width="1.5" stroke-linecap="round" stroke-linejoin="round"/>
<path d="M18.54 10.0998L13.24 4.7998" stroke="#211B2A" stroke-width="1.5" stroke-linecap="round" stroke-linejoin="round"/>
<path d="M5.46002 10.0998L10.76 4.7998" stroke="#211B2A" stroke-width="1.5" stroke-linecap="round" stroke-linejoin="round"/>
</svg>
