<svg width="24" height="24" viewBox="0 0 24 24" fill="none" xmlns="http://www.w3.org/2000/svg">
<path d="M11.15 5.19015L10.37 4.41012C9.90002 3.94012 9.90002 3.18017 10.37 2.71017L11.15 1.93014C11.62 1.46014 12.38 1.46014 12.85 1.93014L13.63 2.71017C14.1 3.18017 14.1 3.94012 13.63 4.41012L12.85 5.19015C12.38 5.66015 11.62 5.66015 11.15 5.19015Z" stroke="#211B2A" stroke-width="1.5" stroke-linecap="round" stroke-linejoin="round"/>
<path d="M19.45 9.81006H20.55C21.21 9.81006 21.75 10.3501 21.75 11.0101V12.11C21.75 12.77 21.21 13.3101 20.55 13.3101H19.45C18.79 13.3101 18.25 12.77 18.25 12.11V11.0101C18.25 10.3501 18.79 9.81006 19.45 9.81006Z" stroke="#211B2A" stroke-width="1.5" stroke-linecap="round" stroke-linejoin="round"/>
<path d="M4.55 9.81006H3.45C2.79 9.81006 2.25 10.3501 2.25 11.0101V12.11C2.25 12.77 2.79 13.3101 3.45 13.3101H4.55C5.21 13.3101 5.75 12.77 5.75 12.11V11.0101C5.75 10.3501 5.21 9.81006 4.55 9.81006Z" stroke="#211B2A" stroke-width="1.5" stroke-linecap="round" stroke-linejoin="round"/>
<path d="M18.54 10.0998L13.24 4.7998" stroke="#211B2A" stroke-width="1.5" stroke-linecap="round" stroke-linejoin="round"/>
<path d="M5.46002 10.1002L8.11002 7.4502" stroke="#211B2A" stroke-width="1.5" stroke-linecap="round" stroke-linejoin="round"/>
<path d="M10.75 22.4996H13.27C14.23 22.4996 14.85 21.8196 14.67 20.9896L14.26 19.1797H9.75996L9.34996 20.9896C9.16996 21.7696 9.84996 22.4996 10.75 22.4996Z" stroke="#211B2A" stroke-width="1.5" stroke-linecap="round" stroke-linejoin="round"/>
<path d="M14.22 12.6699L13.17 11.3399C12.53 10.5299 11.48 10.5299 10.84 11.3399L7.78998 15.2099C7.01998 16.1799 7.01998 16.8099 8.02998 17.6399L9.75999 19.1799" stroke="#211B2A" stroke-width="1.5" stroke-linecap="round" stroke-linejoin="round"/>
<path d="M14.26 19.1698L15.99 17.6298C16.96 16.7698 17 16.1697 16.23 15.1997" stroke="#211B2A" stroke-width="1.5" stroke-linecap="round" stroke-linejoin="round"/>
<path d="M12.01 11.1201V13.6501" stroke="#211B2A" stroke-width="1.5" stroke-linecap="round" stroke-linejoin="round"/>
</svg>
