<svg width="24" height="24" viewBox="0 0 24 24" fill="none" xmlns="http://www.w3.org/2000/svg">
<path d="M6.5 2C5.44 2 4.46 2.36999 3.69 2.98999C2.65 3.80999 2 5.08 2 6.5C2 7.34 2.23999 8.14001 2.64999 8.82001C3.18999 9.72001 4.04 10.42 5.06 10.76C5.51 10.92 5.99 11 6.5 11C7.64 11 8.66999 10.58 9.45999 9.88C9.80999 9.58 10.11 9.22001 10.35 8.82001C10.56 8.47001 10.72 8.10001 10.83 7.70001C10.94 7.32001 11 6.91 11 6.5C11 4.01 8.99 2 6.5 2ZM8.16 7.25H4.79999C4.38999 7.25 4.04999 6.91 4.04999 6.5C4.04999 6.09 4.38999 5.75 4.79999 5.75H8.16C8.57 5.75 8.91 6.09 8.91 6.5C8.91 6.91 8.58 7.25 8.16 7.25Z" fill="#211B2A"/>
<path d="M21.71 11.3499L18.7 13.2499L12.62 7.16993L14.51 4.15992C15.39 2.76992 17.16 2.70995 18.45 3.99995L21.86 7.40992C23.08 8.63992 23 10.5299 21.71 11.3499Z" fill="#211B2A"/>
<path opacity="0.4" d="M16 21.2898L6.64002 22.3898C5.99002 22.4698 5.41002 22.3698 4.92002 22.1298C4.40002 21.8698 3.99001 21.4698 3.73001 20.9398C3.49001 20.4498 3.4 19.8798 3.47 19.2398L4.51001 10.5298C4.68001 10.6198 4.87 10.6998 5.06 10.7598C5.51 10.9198 5.99 10.9998 6.5 10.9998C7.64 10.9998 8.66999 10.5798 9.45999 9.87982C9.80999 9.57982 10.11 9.21982 10.35 8.81982C10.56 8.46982 10.72 8.09983 10.83 7.69983C10.89 7.49983 10.93 7.28982 10.96 7.06982L12.62 7.1698L18.7 13.2598L18.96 17.6798C19.21 20.1598 18.35 21.0198 16 21.2898Z" fill="#211B2A"/>
<path d="M8.78 18.2798L4.92999 22.1298C4.39999 21.8698 3.99999 21.4698 3.73999 20.9398L7.59 17.0898C7.93 16.7598 8.46 16.7598 8.78 17.0898C9.11 17.4198 9.11 17.9498 8.78 18.2798Z" fill="#211B2A"/>
</svg>
