<svg width="24" height="24" viewBox="0 0 24 24" fill="none" xmlns="http://www.w3.org/2000/svg">
<path d="M10.75 22.4996H13.27C14.23 22.4996 14.85 21.8196 14.67 20.9896L14.26 19.1797H9.75999L9.35 20.9896C9.17 21.7696 9.85 22.4996 10.75 22.4996Z" stroke="#211B2A" stroke-width="1.5" stroke-linecap="round" stroke-linejoin="round"/>
<path d="M14.22 12.6699L13.17 11.3399C12.53 10.5299 11.48 10.5299 10.84 11.3399L7.79 15.2099C7.02 16.1799 7.02 16.8099 8.03 17.6399L9.76 19.1799" stroke="#211B2A" stroke-width="1.5" stroke-linecap="round" stroke-linejoin="round"/>
<path d="M14.26 19.1698L15.99 17.6298C16.96 16.7698 17 16.1697 16.23 15.1997" stroke="#211B2A" stroke-width="1.5" stroke-linecap="round" stroke-linejoin="round"/>
<path d="M12.01 11.1201V13.6501" stroke="#211B2A" stroke-width="1.5" stroke-linecap="round" stroke-linejoin="round"/>
<path d="M12.52 5H11.52C10.97 5 10.52 4.55 10.52 4V3C10.52 2.45 10.97 2 11.52 2H12.52C13.07 2 13.52 2.45 13.52 3V4C13.52 4.55 13.07 5 12.52 5Z" stroke="#211B2A" stroke-width="1.5" stroke-linecap="round" stroke-linejoin="round"/>
<path d="M3.27 14.17H4.27C4.82 14.17 5.27 13.72 5.27 13.17V12.17C5.27 11.62 4.82 11.1699 4.27 11.1699H3.27C2.72 11.1699 2.27 11.62 2.27 12.17V13.17C2.27 13.72 2.72 14.17 3.27 14.17Z" stroke="#211B2A" stroke-width="1.5" stroke-linecap="round" stroke-linejoin="round"/>
<path d="M20.73 14.17H19.73C19.18 14.17 18.73 13.72 18.73 13.17V12.17C18.73 11.62 19.18 11.1699 19.73 11.1699H20.73C21.28 11.1699 21.73 11.62 21.73 12.17V13.17C21.73 13.72 21.28 14.17 20.73 14.17Z" stroke="#211B2A" stroke-width="1.5" stroke-linecap="round" stroke-linejoin="round"/>
<path d="M3.75 11.1698C3.75 9.1998 4.49001 7.4098 5.71001 6.0498" stroke="#211B2A" stroke-width="1.5" stroke-linecap="round" stroke-linejoin="round"/>
<path d="M10.52 3.56006C9.88 3.64006 9.26 3.79007 8.67 4.01007" stroke="#211B2A" stroke-width="1.5" stroke-linecap="round" stroke-linejoin="round"/>
<path d="M20.25 11.17C20.25 7.25004 17.31 4.03006 13.52 3.56006" stroke="#211B2A" stroke-width="1.5" stroke-linecap="round" stroke-linejoin="round"/>
</svg>
