<svg width="24" height="24" viewBox="0 0 24 24" fill="none" xmlns="http://www.w3.org/2000/svg">
<path d="M5.5 10C7.433 10 9 8.433 9 6.5C9 4.567 7.433 3 5.5 3C3.567 3 2 4.567 2 6.5C2 8.433 3.567 10 5.5 10Z" fill="#211B2A"/>
<path d="M5.5 21C7.433 21 9 19.433 9 17.5C9 15.567 7.433 14 5.5 14C3.567 14 2 15.567 2 17.5C2 19.433 3.567 21 5.5 21Z" fill="#211B2A"/>
<path opacity="0.4" d="M15.25 11.9798L22.45 6.59978C22.78 6.34978 22.85 5.87978 22.6 5.54978C22.35 5.21978 21.88 5.14978 21.55 5.39978L14 11.0498L8.45002 6.89978C8.12002 6.64978 7.65 6.71978 7.4 7.04978C7.15 7.37978 7.21999 7.84978 7.54999 8.09978L12.75 11.9898L6.85001 16.4098C6.52001 16.6598 6.45002 17.1298 6.70002 17.4598C6.85002 17.6598 7.06999 17.7598 7.29999 17.7598C7.45999 17.7598 7.61001 17.7098 7.75001 17.6098L14.01 12.9298L21.56 18.5798C21.69 18.6798 21.85 18.7298 22.01 18.7298C22.24 18.7298 22.46 18.6298 22.61 18.4298C22.86 18.0998 22.79 17.6298 22.46 17.3798L15.25 11.9798Z" fill="#211B2A"/>
</svg>
