<svg width="24" height="24" viewBox="0 0 24 24" fill="none" xmlns="http://www.w3.org/2000/svg">
<path d="M5.5 10C7.433 10 9 8.433 9 6.5C9 4.567 7.433 3 5.5 3C3.567 3 2 4.567 2 6.5C2 8.433 3.567 10 5.5 10Z" fill="#211B2A"/>
<path d="M5.5 21C7.433 21 9 19.433 9 17.5C9 15.567 7.433 14 5.5 14C3.567 14 2 15.567 2 17.5C2 19.433 3.567 21 5.5 21Z" fill="#211B2A"/>
<path d="M15.25 11.9798L22.45 6.59978C22.78 6.34978 22.85 5.87978 22.6 5.54978C22.35 5.21978 21.88 5.14978 21.55 5.39978L14 11.0498L8.45002 6.88978C8.12002 6.64978 7.65002 6.70978 7.40002 7.03978C7.15002 7.36978 7.22002 7.83978 7.55002 8.08978L12.75 11.9798L6.85002 16.3998C6.52002 16.6498 6.45002 17.1198 6.70002 17.4498C6.85002 17.6498 7.07002 17.7498 7.30002 17.7498C7.46002 17.7498 7.61002 17.6998 7.75002 17.5998L14 12.9198L21.55 18.5698C21.68 18.6698 21.84 18.7198 22 18.7198C22.23 18.7198 22.45 18.6198 22.6 18.4198C22.85 18.0898 22.78 17.6198 22.45 17.3698L15.25 11.9798Z" fill="#211B2A"/>
</svg>
