<svg width="24" height="24" viewBox="0 0 24 24" fill="none" xmlns="http://www.w3.org/2000/svg">
<path d="M21.69 2.71027C21.61 2.53027 21.47 2.38023 21.28 2.30023C21.19 2.26023 21.09 2.24023 20.99 2.24023H11.99C11.58 2.24023 11.24 2.58023 11.24 2.99023C11.24 3.40023 11.58 3.74023 11.99 3.74023H19.18L2.45999 20.4603C2.16999 20.7503 2.16999 21.2303 2.45999 21.5203C2.60999 21.6703 2.79996 21.7402 2.98996 21.7402C3.17996 21.7402 3.36999 21.6703 3.51999 21.5203L20.24 4.80023V12.0002C20.24 12.4102 20.58 12.7502 20.99 12.7502C21.4 12.7502 21.74 12.4102 21.74 12.0002V3.00024C21.75 2.90024 21.73 2.81027 21.69 2.71027Z" fill="#211B2A"/>
<path opacity="0.4" d="M17.4 18.1491C17.21 18.1491 17.02 18.079 16.87 17.929L6.06998 7.12906C5.77998 6.83906 5.77998 6.35906 6.06998 6.06906C6.35998 5.77906 6.83998 5.77906 7.12998 6.06906L17.93 16.8691C18.22 17.159 18.22 17.639 17.93 17.929C17.78 18.079 17.59 18.1491 17.4 18.1491Z" fill="#211B2A"/>
</svg>
