<svg width="24" height="24" viewBox="0 0 24 24" fill="none" xmlns="http://www.w3.org/2000/svg">
<path opacity="0.4" d="M16.19 2H7.82001C4.18001 2 2.01001 4.17 2.01001 7.81V16.18C2.01001 19.82 4.18001 21.99 7.82001 21.99H16.19C19.83 21.99 22 19.82 22 16.18V7.81C22 4.17 19.83 2 16.19 2Z" fill="#211B2A"/>
<path d="M15.62 7.09947L13.33 6.33952C12.75 6.13952 12.16 6.21947 11.71 6.53947C11.26 6.85947 11.01 7.39951 11.01 8.00951V8.61949V12.7995C10.61 12.5795 10.16 12.4495 9.66998 12.4495C8.12998 12.4495 6.87 13.7095 6.87 15.2495C6.87 16.7895 8.12998 18.0495 9.66998 18.0495C11.21 18.0495 12.47 16.7895 12.47 15.2495V10.6995C12.48 10.7095 12.5 10.7095 12.51 10.7195L14.8 11.4795C15.01 11.5495 15.23 11.5895 15.44 11.5895C15.8 11.5895 16.14 11.4895 16.42 11.2795C16.87 10.9595 17.12 10.4195 17.12 9.80949V9.19951C17.12 8.28951 16.48 7.38947 15.62 7.09947ZM9.66998 16.5895C8.92998 16.5895 8.34003 15.9895 8.34003 15.2595C8.34003 14.5195 8.93998 13.9195 9.66998 13.9195C10.41 13.9195 11.01 14.5195 11.01 15.2595C11.01 15.9895 10.41 16.5895 9.66998 16.5895Z" fill="#211B2A"/>
</svg>
