<svg width="24" height="24" viewBox="0 0 24 24" fill="none" xmlns="http://www.w3.org/2000/svg">
<path d="M22 8.34043V15.6604C22 17.1604 20.37 18.1004 19.07 17.3504L15.9 15.5304L12.73 13.7004C12.53 13.5804 12.37 13.4504 12.24 13.2904V10.7304C12.37 10.5704 12.53 10.4404 12.73 10.3204L15.9 8.49042L19.07 6.67044C20.37 5.90044 22 6.84043 22 8.34043Z" stroke="#211B2A" stroke-width="1.5" stroke-linecap="round" stroke-linejoin="round"/>
<path d="M9.32 6.65032C10.62 5.90032 12.25 6.84032 12.25 8.34032V15.6603C12.25 17.1603 10.62 18.1003 9.32 17.3503L6.14999 15.5303L2.98 13.7003C1.68 12.9503 1.68 11.0803 2.98 10.3203L5.39001 8.93031" stroke="#211B2A" stroke-width="1.5" stroke-linecap="round" stroke-linejoin="round"/>
</svg>
