<svg width="24" height="24" viewBox="0 0 24 24" fill="none" xmlns="http://www.w3.org/2000/svg">
<path d="M14.43 16.9203H12.14C11.73 16.9203 11.39 16.5803 11.39 16.1703C11.39 15.7603 11.73 15.4203 12.14 15.4203H14.43C14.86 15.4203 15.21 15.0703 15.21 14.6403C15.21 14.2103 14.86 13.8603 14.43 13.8603H12.14C11.9 13.8603 11.67 13.7403 11.53 13.5503C11.39 13.3603 11.35 13.1003 11.43 12.8703L12.19 10.5803C12.29 10.2703 12.58 10.0703 12.9 10.0703H15.96C16.37 10.0703 16.71 10.4103 16.71 10.8203C16.71 11.2303 16.37 11.5703 15.96 11.5703H13.44L13.18 12.3603H14.43C15.69 12.3603 16.71 13.3803 16.71 14.6403C16.71 15.9003 15.68 16.9203 14.43 16.9203Z" fill="#211B2A"/>
<path d="M9.54001 16.9198C9.13001 16.9198 8.79001 16.5798 8.79001 16.1698V12.7798L8.60001 12.9998C8.32001 13.3098 7.85001 13.3298 7.54001 13.0598C7.24001 12.7798 7.21001 12.3098 7.49001 11.9998L8.99001 10.3298C9.20001 10.0998 9.53001 10.0198 9.82001 10.1298C10.11 10.2398 10.3 10.5198 10.3 10.8298V16.1798C10.29 16.5898 9.96001 16.9198 9.54001 16.9198Z" fill="#211B2A"/>
<path d="M12 3.48043C11.92 3.48043 11.84 3.49043 11.76 3.49043L12.58 2.47043C12.84 2.15043 12.79 1.67043 12.46 1.42043C12.13 1.17043 11.67 1.21043 11.41 1.54043L9.44001 4.00043C9.43001 4.01043 9.43001 4.02043 9.42001 4.04043C9.39001 4.08043 9.37001 4.13043 9.35001 4.17043C9.33001 4.22043 9.31001 4.26043 9.30001 4.30043C9.29001 4.35043 9.29001 4.39043 9.29001 4.44043C9.29001 4.49043 9.29001 4.54043 9.29001 4.59043C9.29001 4.61043 9.29001 4.62043 9.29001 4.64043C9.30001 4.67043 9.32001 4.69043 9.33001 4.72043C9.35001 4.77043 9.37001 4.81043 9.39001 4.86043C9.42001 4.90043 9.45001 4.94043 9.49001 4.97043C9.51001 5.00043 9.52001 5.03043 9.55001 5.05043C9.57001 5.06043 9.58001 5.07043 9.60001 5.08043C9.62001 5.10043 9.65001 5.11043 9.68001 5.12043C9.73001 5.15043 9.79001 5.17043 9.84001 5.18043C9.88001 5.20043 9.91001 5.20043 9.94001 5.20043C9.97001 5.20043 9.99001 5.21043 10.02 5.21043C10.05 5.21043 10.07 5.20043 10.09 5.19043C10.12 5.19043 10.15 5.20043 10.18 5.19043C10.82 5.04043 11.42 4.97043 11.99 4.97043C16.48 4.97043 20.13 8.62043 20.13 13.1104C20.13 17.6004 16.48 21.2504 11.99 21.2504C7.50001 21.2504 3.85001 17.6004 3.85001 13.1104C3.85001 11.3704 4.42001 9.69043 5.50001 8.25043C5.75001 7.92043 5.68001 7.45043 5.35001 7.20043C5.02001 6.95043 4.55001 7.02043 4.30001 7.35043C3.02001 9.05043 2.35001 11.0404 2.35001 13.1104C2.35001 18.4204 6.67001 22.7504 11.99 22.7504C17.31 22.7504 21.63 18.4304 21.63 13.1104C21.63 7.79043 17.31 3.48043 12 3.48043Z" fill="#211B2A"/>
</svg>
