<svg width="24" height="24" viewBox="0 0 24 24" fill="none" xmlns="http://www.w3.org/2000/svg">
<path d="M9.54001 16.6698C9.13001 16.6698 8.79001 16.3298 8.79001 15.9198V12.5298L8.60001 12.7498C8.32001 13.0598 7.85001 13.0798 7.54001 12.8098C7.23001 12.5298 7.21001 12.0598 7.48001 11.7498L8.98001 10.0798C9.19001 9.84984 9.52001 9.76984 9.81001 9.87984C10.1 9.98984 10.29 10.2698 10.29 10.5798V15.9298C10.29 16.3398 9.96001 16.6698 9.54001 16.6698Z" fill="#211B2A"/>
<path d="M12 3.47974C11.92 3.47974 11.84 3.48974 11.76 3.48974L12.58 2.46974C12.84 2.14974 12.79 1.66974 12.46 1.41974C12.14 1.15974 11.67 1.20974 11.41 1.53974L9.43999 3.99974C9.42999 4.00974 9.43 4.01974 9.42 4.03974C9.39 4.07974 9.37 4.12974 9.35 4.16974C9.33 4.21974 9.31 4.25974 9.3 4.29974C9.29 4.34974 9.29 4.38974 9.29 4.43974C9.29 4.48974 9.29 4.53974 9.29 4.58974C9.29 4.60974 9.29 4.61974 9.29 4.63974C9.3 4.66974 9.31999 4.68974 9.33 4.72974C9.35 4.77974 9.36 4.81974 9.39 4.85974C9.42 4.89974 9.45 4.93974 9.49 4.97974C9.50999 4.99974 9.53 5.02974 9.55 5.04974C9.56 5.05974 9.58 5.05974 9.59 5.06974C9.62 5.08974 9.64999 5.10974 9.68999 5.11974C9.74 5.14974 9.79 5.16974 9.84 5.17974C9.88 5.19974 9.91 5.19974 9.95 5.19974C9.98 5.19974 9.99999 5.20974 10.03 5.20974C10.05 5.20974 10.08 5.19974 10.1 5.18974C10.13 5.18974 10.16 5.18974 10.2 5.18974C10.84 5.03974 11.44 4.96974 12.01 4.96974C16.5 4.96974 20.15 8.61974 20.15 13.1097C20.15 17.5997 16.5 21.2497 12.01 21.2497C7.52 21.2497 3.87 17.5997 3.87 13.1097C3.87 11.3697 4.44 9.68974 5.52 8.24974C5.77 7.91974 5.7 7.44974 5.37 7.19974C5.04 6.94974 4.57 7.01974 4.32 7.34974C3.04 9.04974 2.37 11.0397 2.37 13.1097C2.37 18.4197 6.69 22.7497 12.01 22.7497C17.33 22.7497 21.65 18.4297 21.65 13.1097C21.65 7.78974 17.31 3.47974 12 3.47974Z" fill="#211B2A"/>
<path d="M14 16.6703C12.48 16.6703 11.25 15.4403 11.25 13.9203V12.5703C11.25 11.0503 12.48 9.82031 14 9.82031C15.52 9.82031 16.75 11.0503 16.75 12.5703V13.9203C16.75 15.4403 15.52 16.6703 14 16.6703ZM14 11.3303C13.31 11.3303 12.75 11.8903 12.75 12.5803V13.9303C12.75 14.6203 13.31 15.1803 14 15.1803C14.69 15.1803 15.25 14.6203 15.25 13.9303V12.5803C15.25 11.8903 14.69 11.3303 14 11.3303Z" fill="#211B2A"/>
</svg>
