<svg width="24" height="24" viewBox="0 0 24 24" fill="none" xmlns="http://www.w3.org/2000/svg">
<path d="M9.54001 16.6701C9.13001 16.6701 8.79001 16.3301 8.79001 15.9201V12.5301L8.6 12.7401C8.32 13.0501 7.85001 13.0701 7.54001 12.8001C7.23001 12.5201 7.21001 12.0501 7.48001 11.7401L8.98001 10.0701C9.19001 9.84008 9.52 9.76007 9.81 9.87007C10.1 9.98007 10.29 10.2601 10.29 10.5701V15.9201C10.29 16.3401 9.96001 16.6701 9.54001 16.6701Z" fill="#211B2A"/>
<path opacity="0.4" d="M12 3.47974C11.92 3.47974 11.84 3.48975 11.76 3.48975L12.58 2.46973C12.84 2.14973 12.79 1.66974 12.46 1.41974C12.14 1.15974 11.67 1.20973 11.41 1.53973L9.42999 4.00977C9.41999 4.01977 9.42 4.03974 9.41 4.04974C9.38 4.08974 9.36 4.13976 9.34 4.18976C9.32 4.22976 9.30001 4.26976 9.29001 4.31976C9.28001 4.36976 9.28 4.40978 9.28 4.45978C9.28 4.50978 9.28 4.55974 9.28 4.60974C9.28 4.62974 9.28 4.63973 9.28 4.65973C9.29 4.68973 9.31001 4.71976 9.32001 4.74976C9.34001 4.79976 9.35 4.83976 9.38 4.87976C9.41001 4.91976 9.44001 4.95976 9.48001 4.99976C9.50001 5.01976 9.51001 5.04976 9.54001 5.06976C9.55001 5.07976 9.56999 5.07978 9.57999 5.08978C9.60999 5.10978 9.63999 5.12977 9.67999 5.13977C9.72999 5.16977 9.77999 5.18977 9.82999 5.19977C9.85999 5.20977 9.89999 5.20973 9.92999 5.21973C9.95999 5.21973 9.98001 5.22974 10.01 5.22974C10.03 5.22974 10.06 5.21978 10.08 5.20978C10.11 5.20978 10.14 5.20978 10.18 5.20978C10.82 5.05978 11.42 4.98975 11.99 4.98975C16.48 4.98975 20.13 8.63976 20.13 13.1298C20.13 17.6198 16.48 21.2698 11.99 21.2698C7.49999 21.2698 3.85001 17.6198 3.85001 13.1298C3.85001 11.3898 4.42 9.70978 5.5 8.26978C5.75 7.93978 5.68001 7.46973 5.35001 7.21973C5.02001 6.96973 4.54999 7.03975 4.29999 7.36975C3.01999 9.06975 2.35001 11.0598 2.35001 13.1298C2.35001 18.4398 6.66999 22.7698 11.99 22.7698C17.31 22.7698 21.63 18.4498 21.63 13.1298C21.63 7.80976 17.31 3.47974 12 3.47974Z" fill="#211B2A"/>
<path d="M14 16.6703C12.48 16.6703 11.25 15.4403 11.25 13.9203V12.5703C11.25 11.0503 12.48 9.82031 14 9.82031C15.52 9.82031 16.75 11.0503 16.75 12.5703V13.9203C16.75 15.4403 15.52 16.6703 14 16.6703ZM14 11.3303C13.31 11.3303 12.75 11.8903 12.75 12.5803V13.9303C12.75 14.6203 13.31 15.1803 14 15.1803C14.69 15.1803 15.25 14.6203 15.25 13.9303V12.5803C15.25 11.8903 14.69 11.3303 14 11.3303Z" fill="#211B2A"/>
</svg>
