<svg width="24" height="24" viewBox="0 0 24 24" fill="none" xmlns="http://www.w3.org/2000/svg">
<path d="M12.38 16.9203H10.09C9.68001 16.9203 9.34001 16.5803 9.34001 16.1703C9.34001 15.7603 9.68001 15.4203 10.09 15.4203H12.38C12.81 15.4203 13.16 15.0703 13.16 14.6403C13.16 14.2103 12.81 13.8603 12.38 13.8603H10.09C9.85001 13.8603 9.62001 13.7403 9.48001 13.5503C9.34001 13.3603 9.30001 13.1003 9.38001 12.8703L10.14 10.5803C10.24 10.2703 10.53 10.0703 10.85 10.0703H13.91C14.32 10.0703 14.66 10.4103 14.66 10.8203C14.66 11.2303 14.32 11.5703 13.91 11.5703H11.39L11.13 12.3603H12.38C13.64 12.3603 14.66 13.3803 14.66 14.6403C14.66 15.9003 13.64 16.9203 12.38 16.9203Z" fill="#211B2A"/>
<path d="M12 3.48043C11.92 3.48043 11.84 3.49043 11.76 3.49043L12.58 2.47043C12.84 2.15043 12.79 1.67043 12.46 1.42043C12.13 1.17043 11.67 1.21043 11.41 1.54043L9.44001 4.00043C9.43001 4.01043 9.43001 4.02043 9.42001 4.04043C9.39001 4.08043 9.37001 4.13043 9.35001 4.17043C9.33001 4.22043 9.31001 4.26043 9.30001 4.30043C9.29001 4.35043 9.29001 4.39043 9.29001 4.44043C9.29001 4.49043 9.29001 4.54043 9.29001 4.59043C9.29001 4.61043 9.29001 4.62043 9.29001 4.64043C9.30001 4.67043 9.32001 4.69043 9.33001 4.72043C9.35001 4.77043 9.37001 4.81043 9.39001 4.86043C9.42001 4.90043 9.45001 4.94043 9.49001 4.97043C9.51001 5.00043 9.52001 5.03043 9.55001 5.05043C9.57001 5.06043 9.58001 5.07043 9.60001 5.08043C9.63001 5.10043 9.65001 5.11043 9.68001 5.12043C9.73001 5.15043 9.79001 5.17043 9.85001 5.18043C9.88001 5.20043 9.91001 5.20043 9.94001 5.20043C9.97001 5.20043 9.99001 5.21043 10.02 5.21043C10.05 5.21043 10.07 5.20043 10.09 5.19043C10.12 5.19043 10.15 5.20043 10.18 5.19043C10.82 5.04043 11.42 4.97043 11.99 4.97043C16.48 4.97043 20.13 8.62043 20.13 13.1104C20.13 17.6004 16.48 21.2504 11.99 21.2504C7.50001 21.2504 3.85001 17.6004 3.85001 13.1104C3.85001 11.3704 4.42001 9.69043 5.50001 8.25043C5.75001 7.92043 5.68001 7.45043 5.35001 7.20043C5.02001 6.95043 4.55001 7.02043 4.30001 7.35043C3.02001 9.05043 2.35001 11.0404 2.35001 13.1104C2.35001 18.4204 6.67001 22.7504 11.99 22.7504C17.31 22.7504 21.63 18.4304 21.63 13.1104C21.63 7.79043 17.31 3.48043 12 3.48043Z" fill="#211B2A"/>
</svg>
