<svg width="24" height="24" viewBox="0 0 24 24" fill="none" xmlns="http://www.w3.org/2000/svg">
<path d="M10.02 4.46997L12 2" stroke="#211B2A" stroke-width="1.5" stroke-linecap="round" stroke-linejoin="round"/>
<path d="M3.98999 16.9598C5.41999 19.9398 8.47 21.9998 12 21.9998C16.91 21.9998 20.89 18.0197 20.89 13.1097C20.89 8.19974 16.91 4.21973 12 4.21973C11.32 4.21973 10.66 4.30978 10.02 4.45978" stroke="#211B2A" stroke-width="1.5" stroke-linecap="round" stroke-linejoin="round"/>
<path d="M4.90997 7.7998C3.79997 9.2798 3.10999 11.1098 3.10999 13.1098" stroke="#211B2A" stroke-width="1.5" stroke-linecap="round" stroke-linejoin="round"/>
<path d="M15.96 10.8301H12.9L12.14 13.1201H14.43C15.27 13.1201 15.96 13.8001 15.96 14.6501C15.96 15.4901 15.28 16.1801 14.43 16.1801H12.14" stroke="#211B2A" stroke-width="1.5" stroke-linecap="round" stroke-linejoin="round"/>
<path d="M9.53998 16.17V10.8301L8.03998 12.5001" stroke="#211B2A" stroke-width="1.5" stroke-linecap="round" stroke-linejoin="round"/>
</svg>
