<svg width="24" height="24" viewBox="0 0 24 24" fill="none" xmlns="http://www.w3.org/2000/svg">
<path d="M14.43 16.9203H12.14C11.73 16.9203 11.39 16.5803 11.39 16.1703C11.39 15.7603 11.73 15.4203 12.14 15.4203H14.43C14.86 15.4203 15.21 15.0703 15.21 14.6403C15.21 14.2103 14.86 13.8603 14.43 13.8603H12.14C11.9 13.8603 11.67 13.7403 11.53 13.5503C11.39 13.3603 11.35 13.1003 11.43 12.8703L12.19 10.5803C12.29 10.2703 12.58 10.0703 12.9 10.0703H15.96C16.37 10.0703 16.71 10.4103 16.71 10.8203C16.71 11.2303 16.37 11.5703 15.96 11.5703H13.44L13.18 12.3603H14.43C15.69 12.3603 16.71 13.3803 16.71 14.6403C16.71 15.9003 15.68 16.9203 14.43 16.9203Z" fill="#211B2A"/>
<path d="M9.53998 16.9198C9.12998 16.9198 8.78998 16.5798 8.78998 16.1698V12.7799L8.59997 12.9998C8.31997 13.3098 7.84998 13.3298 7.53998 13.0598C7.22998 12.7798 7.20998 12.3098 7.47998 11.9998L8.97998 10.3298C9.18998 10.0998 9.52 10.0198 9.81 10.1298C10.1 10.2398 10.29 10.5198 10.29 10.8298V16.1798C10.29 16.5898 9.95998 16.9198 9.53998 16.9198Z" fill="#211B2A"/>
<path opacity="0.4" d="M12 3.48043C11.92 3.48043 11.84 3.49044 11.76 3.49044L12.58 2.47042C12.84 2.15042 12.79 1.67043 12.46 1.42043C12.13 1.17043 11.67 1.21042 11.41 1.54042L9.42999 4.01046C9.41999 4.02046 9.41997 4.04043 9.40997 4.05043C9.37997 4.09043 9.36003 4.14045 9.34003 4.19045C9.32003 4.23045 9.29998 4.27045 9.28998 4.32045C9.27998 4.37045 9.28003 4.41047 9.28003 4.46047C9.28003 4.51047 9.28003 4.56043 9.28003 4.61043C9.28003 4.63043 9.28003 4.64042 9.28003 4.66042C9.29003 4.69042 9.31001 4.72045 9.32001 4.75045C9.34001 4.80045 9.36 4.84046 9.38 4.89046C9.41001 4.93046 9.43998 4.97045 9.47998 5.00045C9.49998 5.02045 9.51998 5.05046 9.53998 5.08046C9.54998 5.09046 9.57002 5.09042 9.58002 5.10042C9.61002 5.12042 9.63998 5.13047 9.66998 5.15047C9.71998 5.18047 9.78002 5.20047 9.83002 5.21047C9.86002 5.22047 9.88999 5.22043 9.92999 5.23043C9.95999 5.23043 9.98001 5.24044 10.01 5.24044C10.04 5.24044 10.06 5.23042 10.08 5.22042C10.11 5.22042 10.14 5.23042 10.17 5.22042C10.81 5.07042 11.41 5.00045 11.98 5.00045C16.47 5.00045 20.12 8.65046 20.12 13.1405C20.12 17.6305 16.47 21.2805 11.98 21.2805C7.48998 21.2805 3.84003 17.6305 3.84003 13.1405C3.84003 11.4005 4.40999 9.72048 5.48999 8.28048C5.73999 7.95048 5.67003 7.48043 5.34003 7.23043C5.01003 6.98043 4.53998 7.05045 4.28998 7.38045C3.00998 9.08045 2.34003 11.0705 2.34003 13.1405C2.34003 18.4505 6.65998 22.7805 11.98 22.7805C17.3 22.7805 21.62 18.4605 21.62 13.1405C21.62 7.82046 17.31 3.48043 12 3.48043Z" fill="#211B2A"/>
</svg>
