<svg width="24" height="24" viewBox="0 0 24 24" fill="none" xmlns="http://www.w3.org/2000/svg">
<path d="M12.38 16.9203H10.09C9.68 16.9203 9.34 16.5803 9.34 16.1703C9.34 15.7603 9.68 15.4203 10.09 15.4203H12.38C12.81 15.4203 13.16 15.0703 13.16 14.6403C13.16 14.2103 12.81 13.8603 12.38 13.8603H10.09C9.85 13.8603 9.62001 13.7403 9.48001 13.5503C9.34001 13.3603 9.30001 13.1003 9.38001 12.8703L10.14 10.5803C10.24 10.2703 10.53 10.0703 10.85 10.0703H13.91C14.32 10.0703 14.66 10.4103 14.66 10.8203C14.66 11.2303 14.32 11.5703 13.91 11.5703H11.39L11.13 12.3603H12.38C13.64 12.3603 14.66 13.3803 14.66 14.6403C14.66 15.9003 13.64 16.9203 12.38 16.9203Z" fill="#211B2A"/>
<path opacity="0.4" d="M12 3.48043C11.92 3.48043 11.84 3.49044 11.76 3.49044L12.58 2.47042C12.84 2.15042 12.79 1.67043 12.46 1.42043C12.13 1.17043 11.67 1.21042 11.41 1.54042L9.42999 4.01046C9.41999 4.02046 9.42 4.04043 9.41 4.05043C9.38 4.09043 9.36 4.14045 9.34 4.19045C9.32 4.23045 9.30001 4.27045 9.29001 4.32045C9.28001 4.37045 9.28 4.41047 9.28 4.46047C9.28 4.51047 9.28 4.56043 9.28 4.61043C9.28 4.63043 9.28 4.64042 9.28 4.66042C9.29 4.69042 9.31001 4.72045 9.32001 4.75045C9.34001 4.80045 9.36 4.84046 9.38 4.89046C9.41001 4.93046 9.44 4.97045 9.47 5.00045C9.49 5.03045 9.51001 5.06046 9.54001 5.08046C9.55001 5.09046 9.57 5.10043 9.59 5.11043C9.62 5.13043 9.65001 5.14042 9.67001 5.16042C9.72001 5.19042 9.78 5.21042 9.84 5.22042C9.87 5.23042 9.89999 5.23044 9.92999 5.24044C9.95999 5.24044 9.98001 5.25045 10.01 5.25045C10.04 5.25045 10.06 5.24043 10.08 5.23043C10.11 5.23043 10.14 5.24043 10.17 5.23043C10.81 5.08043 11.41 5.01046 11.98 5.01046C16.47 5.01046 20.12 8.66047 20.12 13.1505C20.12 17.6405 16.47 21.2904 11.98 21.2904C7.49001 21.2904 3.84 17.6405 3.84 13.1505C3.84 11.4105 4.40999 9.73042 5.48999 8.29042C5.73999 7.96042 5.67 7.49044 5.34 7.24044C5.01 6.99044 4.54001 7.06046 4.29001 7.39046C3.01001 9.09046 2.34 11.0805 2.34 13.1505C2.34 18.4605 6.66001 22.7904 11.98 22.7904C17.3 22.7904 21.62 18.4705 21.62 13.1505C21.62 7.83047 17.31 3.48043 12 3.48043Z" fill="#211B2A"/>
</svg>
