<svg width="24" height="24" viewBox="0 0 24 24" fill="none" xmlns="http://www.w3.org/2000/svg">
<path d="M9 10.75H6C5.59 10.75 5.25 10.41 5.25 10C5.25 9.59 5.59 9.25 6 9.25H9C9.41 9.25 9.75 9.59 9.75 10C9.75 10.41 9.41 10.75 9 10.75Z" fill="#211B2A"/>
<path d="M17.24 22.75H6.76001C6.35001 22.75 6.01001 22.41 6.01001 22C6.01001 21.59 6.35001 21.25 6.76001 21.25H17.24C19.26 21.25 20.35 20.22 20.48 18.2L21 9.94004C21.05 9.23004 20.84 8.53004 20.41 7.96004C20.16 7.63004 20.23 7.16004 20.56 6.91004C20.89 6.66004 21.36 6.73004 21.61 7.06004C22.25 7.92004 22.57 8.97004 22.5 10.04L21.98 18.3C21.8 21.13 20.07 22.75 17.24 22.75Z" fill="#211B2A"/>
<path d="M3.44005 21.21C3.20005 21.21 2.96005 21.09 2.81005 20.87C2.35005 20.17 2.08005 19.3 2.02005 18.29L1.50005 10.04C1.42005 8.79 1.85005 7.59 2.71005 6.68C3.56005 5.77 4.76005 5.25 6.00005 5.25C6.32005 5.25 6.63005 5.06 6.78005 4.76L7.50005 3.33C8.09005 2.16 9.57005 1.25 10.8601 1.25H13.1501C14.4401 1.25 15.9101 2.16 16.5001 3.32L17.2201 4.78C17.3701 5.06 17.6701 5.25 18.0001 5.25C18.4101 5.25 18.7501 5.59 18.7501 6C18.7501 6.41 18.4101 6.75 18.0001 6.75C17.1101 6.75 16.3001 6.25 15.8801 5.46L15.1501 4C14.8201 3.34 13.8801 2.76 13.1401 2.76H10.8501C10.1101 2.76 9.17005 3.34 8.83005 4.01L8.12005 5.44C7.70005 6.25 6.89005 6.75 6.00005 6.75C5.16005 6.75 4.38005 7.09 3.80005 7.7C3.23005 8.31 2.94005 9.11 3.00005 9.94L3.52005 18.2C3.56005 18.93 3.75005 19.57 4.07005 20.04C4.30005 20.39 4.20005 20.85 3.86005 21.08C3.73005 21.17 3.58005 21.21 3.44005 21.21Z" fill="#211B2A"/>
<path d="M12 18.7501C11.11 18.7501 10.24 18.4501 9.54005 17.9001C9.21005 17.6401 9.16005 17.1701 9.41005 16.8501C9.67005 16.5201 10.14 16.4701 10.46 16.7201C10.9 17.0601 11.44 17.2501 12 17.2501C13.38 17.2501 14.5 16.1301 14.5 14.7501C14.5 14.2701 14.37 13.8101 14.12 13.4201C13.9 13.0701 14 12.6101 14.35 12.3801C14.7 12.1601 15.16 12.2601 15.39 12.6101C15.79 13.2401 16.01 13.9801 16.01 14.7401C16 16.9601 14.21 18.7501 12 18.7501Z" fill="#211B2A"/>
<path d="M1.99994 22.7504C1.80994 22.7504 1.61994 22.6804 1.46994 22.5304C1.17994 22.2404 1.17994 21.7604 1.46994 21.4704L21.4699 1.47043C21.7599 1.18043 22.2399 1.18043 22.5299 1.47043C22.8199 1.76043 22.8199 2.24043 22.5299 2.53043L2.52994 22.5304C2.37994 22.6804 2.18994 22.7504 1.99994 22.7504Z" fill="#211B2A"/>
</svg>
