<svg width="24" height="24" viewBox="0 0 24 24" fill="none" xmlns="http://www.w3.org/2000/svg">
<path d="M21.77 2.22988C21.47 1.92988 20.98 1.92988 20.68 2.22988L2.23 20.6899C1.93 20.9899 1.93 21.4799 2.23 21.7799C2.38 21.9199 2.57 21.9999 2.77 21.9999C2.97 21.9999 3.16 21.9199 3.31 21.7699L21.77 3.30988C22.08 3.00988 22.08 2.52988 21.77 2.22988Z" fill="#211B2A"/>
<path opacity="0.4" d="M21.75 9.99L21.23 18.25C21.1 20.31 20 22 17.24 22H6.75997C6.16997 22 5.65997 21.92 5.21997 21.78L20.25 6.75C21.23 7.48 21.84 8.67 21.75 9.99Z" fill="#211B2A"/>
<path opacity="0.4" d="M18 6L3.48005 20.52C3.03005 19.89 2.82005 19.1 2.77005 18.25L2.25005 9.99C2.11005 7.83 3.83005 6 6.00005 6C6.61005 6 7.17004 5.65 7.45005 5.11L8.17005 3.66C8.63005 2.75 9.83005 2 10.86 2H13.15C14.17 2 15.37 2.75 15.83 3.66L16.55 5.11C16.83 5.65 17.39 6 18 6Z" fill="#211B2A"/>
<path d="M9.5 10.75H6.5C6.09 10.75 5.75 10.41 5.75 10C5.75 9.59 6.09 9.25 6.5 9.25H9.5C9.91 9.25 10.25 9.59 10.25 10C10.25 10.41 9.91 10.75 9.5 10.75Z" fill="#211B2A"/>
<path d="M12.57 11.4299L8.68001 15.3199C8.65001 15.1399 8.63 14.9399 8.63 14.7499C8.63 12.8899 10.14 11.3799 12 11.3799C12.19 11.3799 12.39 11.3999 12.57 11.4299Z" fill="#211B2A"/>
<path d="M15.38 14.75C15.38 16.61 13.86 18.12 12 18.12C11.13 18.12 10.34 17.79 9.75 17.25L14.5 12.5C15.05 13.09 15.38 13.88 15.38 14.75Z" fill="#211B2A"/>
</svg>
