<svg width="24" height="24" viewBox="0 0 24 24" fill="none" xmlns="http://www.w3.org/2000/svg">
<path d="M19.48 7.08955C19.22 6.76955 18.75 6.71955 18.43 6.97955C18.11 7.23955 18.06 7.70955 18.32 8.02955C19.45 9.42955 20.08 11.0895 20.14 12.8295C20.3 17.3095 16.78 21.0895 12.29 21.2395C7.8 21.3995 4.03 17.8795 3.87 13.3995C3.71 8.91954 7.23 5.13955 11.72 4.98955C12.29 4.96955 12.89 5.01955 13.54 5.14955C13.58 5.15955 13.62 5.14955 13.66 5.14955C13.76 5.19955 13.88 5.22955 13.99 5.22955C14.16 5.22955 14.32 5.17955 14.46 5.05955C14.78 4.79955 14.83 4.32955 14.58 4.00955L12.6 1.53955C12.34 1.21955 11.87 1.15955 11.55 1.41955C11.23 1.67955 11.18 2.14955 11.43 2.46955L12.26 3.49955C12.07 3.48955 11.87 3.47955 11.68 3.48955C6.37 3.66955 2.2 8.14955 2.39 13.4595C2.58 18.7695 7.05 22.9395 12.36 22.7495C17.67 22.5595 21.84 18.0895 21.65 12.7795C21.56 10.7095 20.82 8.73955 19.48 7.08955Z" fill="#211B2A"/>
<path d="M12.38 16.9203H10.09C9.68001 16.9203 9.34001 16.5803 9.34001 16.1703C9.34001 15.7603 9.68001 15.4203 10.09 15.4203H12.38C12.81 15.4203 13.16 15.0703 13.16 14.6403C13.16 14.2103 12.81 13.8603 12.38 13.8603H10.09C9.85001 13.8603 9.62001 13.7403 9.48001 13.5503C9.34001 13.3603 9.30001 13.1003 9.38001 12.8703L10.14 10.5803C10.24 10.2703 10.53 10.0703 10.85 10.0703H13.91C14.32 10.0703 14.66 10.4103 14.66 10.8203C14.66 11.2303 14.32 11.5703 13.91 11.5703H11.39L11.13 12.3603H12.38C13.64 12.3603 14.66 13.3803 14.66 14.6403C14.66 15.9003 13.64 16.9203 12.38 16.9203Z" fill="#211B2A"/>
</svg>
