<svg width="24" height="24" viewBox="0 0 24 24" fill="none" xmlns="http://www.w3.org/2000/svg">
<path opacity="0.4" d="M19.48 7.08981C19.22 6.76981 18.75 6.71977 18.43 6.97977C18.11 7.23977 18.06 7.70981 18.32 8.02981C19.45 9.42981 20.08 11.0898 20.14 12.8298C20.3 17.3098 16.78 21.0898 12.29 21.2398C7.81 21.3998 4.03002 17.8798 3.88002 13.3898C3.73002 8.8998 7.24 5.12977 11.73 4.97977C12.3 4.95977 12.9 5.0098 13.55 5.1398C13.59 5.1498 13.63 5.1398 13.67 5.1398C13.77 5.1898 13.89 5.21976 14 5.21976C14.17 5.21976 14.33 5.16977 14.47 5.04977C14.79 4.78977 14.84 4.31978 14.59 3.99978L12.61 1.52981C12.35 1.20981 11.88 1.14976 11.56 1.40976C11.24 1.66976 11.19 2.13981 11.44 2.45981L12.27 3.48978C12.08 3.47978 11.88 3.46977 11.69 3.47977C6.38002 3.65977 2.21004 8.1398 2.40004 13.4498C2.59004 18.7598 7.06001 22.9298 12.37 22.7398C17.68 22.5498 21.85 18.0798 21.66 12.7698C21.56 10.7098 20.82 8.73981 19.48 7.08981Z" fill="#211B2A"/>
<path d="M12.38 16.9203H10.09C9.68004 16.9203 9.34004 16.5803 9.34004 16.1703C9.34004 15.7603 9.68004 15.4203 10.09 15.4203H12.38C12.81 15.4203 13.16 15.0703 13.16 14.6403C13.16 14.2103 12.81 13.8603 12.38 13.8603H10.09C9.85004 13.8603 9.61999 13.7403 9.47999 13.5503C9.33999 13.3603 9.30001 13.1003 9.38001 12.8703L10.14 10.5803C10.24 10.2703 10.53 10.0703 10.85 10.0703H13.91C14.32 10.0703 14.66 10.4103 14.66 10.8203C14.66 11.2303 14.32 11.5703 13.91 11.5703H11.39L11.13 12.3603H12.38C13.64 12.3603 14.66 13.3803 14.66 14.6403C14.66 15.9003 13.64 16.9203 12.38 16.9203Z" fill="#211B2A"/>
</svg>
