<svg width="24" height="24" viewBox="0 0 24 24" fill="none" xmlns="http://www.w3.org/2000/svg">
<path d="M19.69 7.35044C19.44 7.02044 18.97 6.95044 18.64 7.20044C18.31 7.45044 18.24 7.92044 18.49 8.25044C19.57 9.69044 20.14 11.3704 20.14 13.1104C20.14 17.6004 16.49 21.2504 12 21.2504C7.50998 21.2504 3.85998 17.6004 3.85998 13.1104C3.85998 8.62044 7.50998 4.98044 12 4.98044C12.58 4.98044 13.17 5.05044 13.81 5.20044C13.84 5.21044 13.87 5.20044 13.91 5.20044C13.93 5.20044 13.96 5.22044 13.98 5.22044C14.01 5.22044 14.03 5.21044 14.06 5.21044C14.1 5.21044 14.13 5.20044 14.16 5.19044C14.21 5.18044 14.26 5.16044 14.31 5.13044C14.34 5.11044 14.38 5.10044 14.41 5.08044C14.42 5.07044 14.44 5.07044 14.45 5.06044C14.48 5.04044 14.49 5.01044 14.51 4.99044C14.55 4.95044 14.58 4.92044 14.61 4.87044C14.64 4.83044 14.65 4.78044 14.67 4.74044C14.68 4.71044 14.7 4.68044 14.71 4.65044C14.71 4.63044 14.71 4.62044 14.71 4.60044C14.72 4.55044 14.72 4.50044 14.71 4.45044C14.71 4.40044 14.71 4.36044 14.7 4.31044C14.69 4.27044 14.67 4.23044 14.65 4.18044C14.63 4.13044 14.61 4.08044 14.58 4.04044C14.57 4.02044 14.57 4.01044 14.56 4.00044L12.58 1.53044C12.32 1.21044 11.85 1.16044 11.53 1.41044C11.21 1.67044 11.16 2.14044 11.41 2.46044L12.23 3.48044C12.15 3.48044 12.07 3.47044 11.99 3.47044C6.67998 3.47044 2.34998 7.79044 2.34998 13.1104C2.34998 18.4304 6.66997 22.7504 11.99 22.7504C17.31 22.7504 21.63 18.4304 21.63 13.1104C21.64 11.0404 20.96 9.05044 19.69 7.35044Z" fill="#211B2A"/>
<path d="M9.53998 16.6698C9.12998 16.6698 8.78998 16.3298 8.78998 15.9198V12.5298L8.59998 12.7498C8.31998 13.0598 7.84998 13.0798 7.53998 12.8098C7.22998 12.5298 7.20998 12.0598 7.47998 11.7498L8.97998 10.0798C9.18998 9.84984 9.51998 9.76984 9.80998 9.87984C10.1 9.98984 10.29 10.2698 10.29 10.5798V15.9298C10.29 16.3398 9.95998 16.6698 9.53998 16.6698Z" fill="#211B2A"/>
<path d="M14 16.6703C12.48 16.6703 11.25 15.4403 11.25 13.9203V12.5703C11.25 11.0503 12.48 9.82031 14 9.82031C15.52 9.82031 16.75 11.0503 16.75 12.5703V13.9203C16.75 15.4403 15.52 16.6703 14 16.6703ZM14 11.3303C13.31 11.3303 12.75 11.8903 12.75 12.5803V13.9303C12.75 14.6203 13.31 15.1803 14 15.1803C14.69 15.1803 15.25 14.6203 15.25 13.9303V12.5803C15.25 11.8903 14.69 11.3303 14 11.3303Z" fill="#211B2A"/>
</svg>
