<svg width="24" height="24" viewBox="0 0 24 24" fill="none" xmlns="http://www.w3.org/2000/svg">
<path d="M14.43 16.9203H12.14C11.73 16.9203 11.39 16.5803 11.39 16.1703C11.39 15.7603 11.73 15.4203 12.14 15.4203H14.43C14.86 15.4203 15.21 15.0703 15.21 14.6403C15.21 14.2103 14.86 13.8603 14.43 13.8603H12.14C11.9 13.8603 11.67 13.7403 11.53 13.5503C11.39 13.3603 11.35 13.1003 11.43 12.8703L12.19 10.5803C12.29 10.2703 12.58 10.0703 12.9 10.0703H15.96C16.37 10.0703 16.71 10.4103 16.71 10.8203C16.71 11.2303 16.37 11.5703 15.96 11.5703H13.44L13.18 12.3603H14.43C15.69 12.3603 16.71 13.3803 16.71 14.6403C16.71 15.9003 15.68 16.9203 14.43 16.9203Z" fill="#211B2A"/>
<path d="M9.53998 16.9208C9.12998 16.9208 8.78998 16.5808 8.78998 16.1708V12.7808L8.59997 13.0008C8.31997 13.3108 7.84998 13.3308 7.53998 13.0608C7.22998 12.7808 7.20998 12.3108 7.47998 12.0008L8.97998 10.3308C9.18998 10.1008 9.52 10.0208 9.81 10.1308C10.1 10.2408 10.29 10.5208 10.29 10.8308V16.1808C10.29 16.5908 9.95998 16.9208 9.53998 16.9208Z" fill="#211B2A"/>
<path opacity="0.4" d="M19.69 7.35021C19.44 7.02021 18.97 6.95025 18.64 7.20025C18.31 7.45025 18.24 7.92024 18.49 8.25024C19.57 9.69024 20.14 11.3702 20.14 13.1102C20.14 17.6002 16.49 21.2502 12 21.2502C7.51 21.2502 3.85999 17.6002 3.85999 13.1102C3.85999 8.62022 7.51 4.97021 12 4.97021C12.58 4.97021 13.17 5.04024 13.81 5.19024C13.84 5.20024 13.87 5.19024 13.9 5.19024C13.93 5.19024 13.95 5.21026 13.97 5.21026C14 5.21026 14.02 5.20025 14.05 5.20025C14.08 5.20025 14.11 5.19023 14.15 5.18023C14.21 5.17023 14.26 5.14023 14.31 5.12023C14.34 5.10023 14.37 5.09024 14.4 5.07024C14.41 5.06024 14.43 5.06022 14.44 5.05022C14.47 5.03022 14.48 5.00022 14.5 4.98022C14.54 4.94022 14.57 4.91022 14.6 4.86022C14.63 4.82022 14.64 4.77021 14.66 4.72021C14.67 4.69021 14.69 4.66024 14.7 4.63024C14.7 4.61024 14.7 4.60025 14.7 4.58025C14.71 4.53025 14.71 4.48023 14.7 4.43023C14.7 4.38023 14.7 4.34021 14.69 4.29021C14.68 4.25021 14.66 4.21021 14.64 4.16021C14.62 4.11021 14.6 4.06026 14.57 4.02026C14.56 4.01026 14.56 3.99022 14.55 3.98022L12.57 1.51025C12.31 1.19025 11.84 1.13025 11.52 1.39025C11.2 1.65025 11.15 2.12024 11.4 2.44024L12.22 3.46026C12.14 3.46026 12.06 3.45025 11.98 3.45025C6.66998 3.45025 2.34003 7.77026 2.34003 13.0903C2.34003 18.4103 6.65998 22.7302 11.98 22.7302C17.3 22.7302 21.62 18.4103 21.62 13.0903C21.64 11.0403 20.96 9.05021 19.69 7.35021Z" fill="#211B2A"/>
</svg>
