<svg width="24" height="24" viewBox="0 0 24 24" fill="none" xmlns="http://www.w3.org/2000/svg">
<path d="M9 6C7.9 6 7 6.9 7 8C7 9.1 7.9 10 9 10C10.1 10 11 9.1 11 8" stroke="#211B2A" stroke-width="1.5" stroke-linecap="round" stroke-linejoin="round"/>
<path d="M2 12.98V15C2 20 4 22 9 22H15C20 22 22 20 22 15V10" stroke="#211B2A" stroke-width="1.5" stroke-linecap="round" stroke-linejoin="round"/>
<path d="M13 2H9C4 2 2 4 2 9" stroke="#211B2A" stroke-width="1.5" stroke-linecap="round" stroke-linejoin="round"/>
<path d="M18 8V2L20 4" stroke="#211B2A" stroke-width="1.5" stroke-linecap="round" stroke-linejoin="round"/>
<path d="M18 2L16 4" stroke="#211B2A" stroke-width="1.5" stroke-linecap="round" stroke-linejoin="round"/>
<path d="M2.67004 18.9496L7.60004 15.6396C8.39004 15.1096 9.53004 15.1696 10.24 15.7796L10.57 16.0696C11.35 16.7396 12.61 16.7396 13.39 16.0696L17.55 12.4996C18.33 11.8296 19.59 11.8296 20.37 12.4996L22 13.8996" stroke="#211B2A" stroke-width="1.5" stroke-linecap="round" stroke-linejoin="round"/>
</svg>
