<svg width="24" height="24" viewBox="0 0 24 24" fill="none" xmlns="http://www.w3.org/2000/svg">
<path opacity="0.4" d="M20.46 3.54L3.54 20.46C2.54 19.46 2 18.01 2 16.19V7.81C2 4.17 4.17 2 7.81 2H16.19C18.01 2 19.46 2.54 20.46 3.54Z" fill="#211B2A"/>
<path opacity="0.4" d="M22 7.80965V13.8996L20.37 12.4996C19.59 11.8296 18.33 11.8296 17.55 12.4996L13.39 16.0696C12.68 16.6796 11.56 16.7396 10.78 16.2196L21.61 5.38965C21.75 5.76965 21.85 6.16965 21.91 6.59965C21.97 6.97965 22 7.38965 22 7.80965Z" fill="#211B2A"/>
<path d="M22 13.8996V16.1896C22 19.8296 19.83 21.9996 16.19 21.9996H7.81001C7.39001 21.9996 6.98001 21.9696 6.60001 21.9096C6.17001 21.8496 5.77001 21.7496 5.39001 21.6096L10.78 16.2196C11.56 16.7396 12.68 16.6796 13.39 16.0696L17.55 12.4996C18.33 11.8296 19.59 11.8296 20.37 12.4996L22 13.8996Z" fill="#211B2A"/>
<path d="M21.77 2.22988C21.47 1.92988 20.98 1.92988 20.68 2.22988L2.23 20.6899C1.93 20.9899 1.93 21.4799 2.23 21.7799C2.38 21.9199 2.57 21.9999 2.77 21.9999C2.97 21.9999 3.16 21.9199 3.31 21.7699L21.77 3.30988C22.08 3.00988 22.08 2.52988 21.77 2.22988Z" fill="#211B2A"/>
<path d="M8 10.3801C9.31443 10.3801 10.38 9.31456 10.38 8.00012C10.38 6.68568 9.31443 5.62012 8 5.62012C6.68556 5.62012 5.62 6.68568 5.62 8.00012C5.62 9.31456 6.68556 10.3801 8 10.3801Z" fill="#211B2A"/>
</svg>
