<svg width="24" height="24" viewBox="0 0 24 24" fill="none" xmlns="http://www.w3.org/2000/svg">
<path d="M2 9C2 4 4 2 9 2H15C17.19 2 18.8 2.38 19.92 3.23" stroke="#211B2A" stroke-width="1.5" stroke-linecap="round" stroke-linejoin="round"/>
<path d="M3.37 20.0997C2.43 18.9697 2 17.3097 2 14.9997V12.9697" stroke="#211B2A" stroke-width="1.5" stroke-linecap="round" stroke-linejoin="round"/>
<path d="M21.97 7.99023C21.99 8.31023 22 8.65023 22 9.00023V15.0002C22 20.0002 20 22.0002 15 22.0002H9.00002C8.26002 22.0002 7.58002 21.9602 6.96002 21.8602" stroke="#211B2A" stroke-width="1.5" stroke-linecap="round" stroke-linejoin="round"/>
<path d="M8 6C6.9 6 6 6.9 6 8C6 9.1 6.9 10 8 10C9.1 10 10 9.1 10 8" stroke="#211B2A" stroke-width="1.5" stroke-linecap="round" stroke-linejoin="round"/>
<path d="M22 2L2 22" stroke="#211B2A" stroke-width="1.5" stroke-linecap="round" stroke-linejoin="round"/>
<path d="M11.43 16.4502C11.73 16.7502 12.22 16.7502 12.52 16.4502L17.55 11.4102C18.33 10.6302 19.59 10.6302 20.37 11.4102L22 13.0502" stroke="#211B2A" stroke-width="1.5" stroke-linecap="round" stroke-linejoin="round"/>
</svg>
