<svg width="24" height="24" viewBox="0 0 24 24" fill="none" xmlns="http://www.w3.org/2000/svg">
<path d="M3.38 20.85C3.17 20.85 2.95 20.76 2.81 20.58C1.74 19.33 1.25 17.55 1.25 15V9C1.25 3.57 3.57 1.25 9 1.25H15C17.39 1.25 19.14 1.7 20.38 2.63C20.71 2.88 20.78 3.35 20.53 3.68C20.28 4.01 19.81 4.08 19.48 3.83C18.51 3.1 17.05 2.75 15 2.75H9C4.39 2.75 2.75 4.39 2.75 9V15C2.75 17.15 3.14 18.66 3.95 19.62C4.22 19.94 4.18 20.41 3.86 20.68C3.72 20.79 3.55 20.85 3.38 20.85Z" fill="#211B2A"/>
<path d="M15 22.7502H9.00001C8.21001 22.7502 7.50001 22.7002 6.85001 22.6102C6.44001 22.5502 6.16001 22.1702 6.22001 21.7602C6.28001 21.3502 6.67001 21.0702 7.07001 21.1302C7.64001 21.2102 8.29001 21.2602 9.00001 21.2602H15C19.61 21.2602 21.25 19.6202 21.25 15.0102V9.00017C21.25 8.67017 21.24 8.34017 21.22 8.04017C21.19 7.63017 21.51 7.27017 21.92 7.24017C22.35 7.22017 22.69 7.53017 22.72 7.94017C22.74 8.28017 22.75 8.63017 22.75 9.00017V15.0002C22.75 20.4302 20.43 22.7502 15 22.7502Z" fill="#211B2A"/>
<path d="M8 10.75C6.48 10.75 5.25 9.52 5.25 8C5.25 6.48 6.48 5.25 8 5.25C9.52 5.25 10.75 6.48 10.75 8C10.75 9.52 9.52 10.75 8 10.75ZM8 6.75C7.31 6.75 6.75 7.31 6.75 8C6.75 8.69 7.31 9.25 8 9.25C8.69 9.25 9.25 8.69 9.25 8C9.25 7.31 8.69 6.75 8 6.75Z" fill="#211B2A"/>
<path d="M2 22.7504C1.81 22.7504 1.62 22.6804 1.47 22.5304C1.18 22.2404 1.18 21.7604 1.47 21.4704L21.47 1.47043C21.76 1.18043 22.24 1.18043 22.53 1.47043C22.82 1.76043 22.82 2.24043 22.53 2.53043L2.53 22.5304C2.38 22.6804 2.19 22.7504 2 22.7504Z" fill="#211B2A"/>
<path d="M11.98 17.4304C11.59 17.4304 11.2 17.2804 10.91 16.9904C10.62 16.7004 10.62 16.2204 10.91 15.9304C11.2 15.6404 11.68 15.6404 11.97 15.9304C11.98 15.9404 11.99 15.9404 12 15.9304L17.03 10.8904C18.07 9.85035 19.88 9.85035 20.91 10.8904L22.54 12.5204C22.83 12.8104 22.83 13.2904 22.54 13.5804C22.25 13.8704 21.77 13.8704 21.48 13.5804L19.85 11.9504C19.38 11.4804 18.56 11.4804 18.09 11.9504L13.06 16.9904C12.76 17.2804 12.37 17.4304 11.98 17.4304Z" fill="#211B2A"/>
</svg>
