<svg width="24" height="24" viewBox="0 0 24 24" fill="none" xmlns="http://www.w3.org/2000/svg">
<path d="M9 6C7.9 6 7 6.9 7 8C7 9.1 7.9 10 9 10C10.1 10 11 9.1 11 8" stroke="#211B2A" stroke-width="1.5" stroke-linecap="round" stroke-linejoin="round"/>
<path d="M2 12.98V15C2 20 4 22 9 22H15C20 22 22 20 22 15V11" stroke="#211B2A" stroke-width="1.5" stroke-linecap="round" stroke-linejoin="round"/>
<path d="M12 2H9C4 2 2 4 2 9" stroke="#211B2A" stroke-width="1.5" stroke-linecap="round" stroke-linejoin="round"/>
<path d="M16.12 5.11039C15.79 4.07039 16.18 2.78039 17.26 2.43039C17.83 2.25039 18.54 2.40039 18.94 2.95039C19.32 2.38039 20.05 2.24039 20.62 2.43039C21.71 2.78039 22.1 4.07039 21.77 5.11039C21.25 6.75039 19.45 7.61039 18.95 7.61039C18.44 7.61039 16.65 6.77039 16.12 5.11039Z" stroke="#211B2A" stroke-width="1.5" stroke-linecap="round" stroke-linejoin="round"/>
<path d="M2.66998 18.9496L7.59998 15.6396C8.38998 15.1096 9.52998 15.1696 10.24 15.7796L10.57 16.0696C11.35 16.7396 12.61 16.7396 13.39 16.0696L17.55 12.4996C18.33 11.8296 19.59 11.8296 20.37 12.4996L22 13.8996" stroke="#211B2A" stroke-width="1.5" stroke-linecap="round" stroke-linejoin="round"/>
</svg>
