<svg width="24" height="24" viewBox="0 0 24 24" fill="none" xmlns="http://www.w3.org/2000/svg">
<path opacity="0.4" d="M22 7.81V13.9L20.37 12.5C19.59 11.83 18.33 11.83 17.55 12.5L13.39 16.07C12.61 16.74 11.35 16.74 10.57 16.07L10.23 15.79C9.52 15.17 8.39 15.11 7.59 15.65L2.67 18.95L2.56 19.03C2.19 18.23 2 17.28 2 16.19V7.81C2 4.17 4.17 2 7.81 2H16.19C19.83 2 22 4.17 22 7.81Z" fill="#211B2A"/>
<path d="M9 10.3801C10.3144 10.3801 11.38 9.31456 11.38 8.00012C11.38 6.68568 10.3144 5.62012 9 5.62012C7.68556 5.62012 6.62 6.68568 6.62 8.00012C6.62 9.31456 7.68556 10.3801 9 10.3801Z" fill="#211B2A"/>
<path d="M22 13.8996V16.1896C22 19.8296 19.83 21.9996 16.19 21.9996H7.81C5.26 21.9996 3.42 20.9296 2.56 19.0296L2.67 18.9496L7.59 15.6496C8.39 15.1096 9.52 15.1696 10.23 15.7896L10.57 16.0696C11.35 16.7396 12.61 16.7396 13.39 16.0696L17.55 12.4996C18.33 11.8296 19.59 11.8296 20.37 12.4996L22 13.8996Z" fill="#211B2A"/>
</svg>
