<svg width="24" height="24" viewBox="0 0 24 24" fill="none" xmlns="http://www.w3.org/2000/svg">
<path d="M18.36 22.7504H5.58999C4.06999 22.7504 2.67999 21.9804 1.87999 20.6804C1.07999 19.3804 1.00999 17.8004 1.68999 16.4304L3.40999 12.9804C3.96999 11.8604 4.86999 11.1604 5.87999 11.0504C6.88999 10.9404 7.91999 11.4404 8.69999 12.4104L8.91999 12.6904C9.35999 13.2304 9.86999 13.5204 10.37 13.4704C10.87 13.4304 11.33 13.0704 11.67 12.4604L13.56 9.05042C14.34 7.64042 15.38 6.91041 16.51 6.96041C17.63 7.02041 18.59 7.86041 19.23 9.34042L22.36 16.6504C22.94 18.0004 22.8 19.5404 21.99 20.7704C21.19 22.0204 19.83 22.7504 18.36 22.7504ZM6.15999 12.5504C6.11999 12.5504 6.07999 12.5504 6.03999 12.5604C5.53999 12.6104 5.07999 13.0104 4.74999 13.6604L3.02999 17.1104C2.57999 18.0004 2.62999 19.0504 3.14999 19.9004C3.66999 20.7504 4.58999 21.2604 5.58999 21.2604H18.35C19.33 21.2604 20.2 20.7904 20.74 19.9704C21.28 19.1504 21.37 18.1704 20.98 17.2704L17.85 9.96041C17.47 9.06041 16.94 8.51041 16.43 8.49041C15.96 8.46041 15.35 8.96042 14.87 9.81042L12.98 13.2204C12.4 14.2604 11.49 14.9104 10.5 15.0004C9.50999 15.0804 8.49999 14.6004 7.74999 13.6604L7.52999 13.3804C7.10999 12.8304 6.62999 12.5504 6.15999 12.5504Z" fill="#211B2A"/>
<path d="M6.96997 8.75C4.90997 8.75 3.21997 7.07 3.21997 5C3.21997 2.93 4.89997 1.25 6.96997 1.25C9.03997 1.25 10.72 2.93 10.72 5C10.72 7.07 9.03997 8.75 6.96997 8.75ZM6.96997 2.75C5.72997 2.75 4.71997 3.76 4.71997 5C4.71997 6.24 5.72997 7.25 6.96997 7.25C8.20997 7.25 9.21997 6.24 9.21997 5C9.21997 3.76 8.20997 2.75 6.96997 2.75Z" fill="#211B2A"/>
</svg>
