<svg width="24" height="24" viewBox="0 0 24 24" fill="none" xmlns="http://www.w3.org/2000/svg">
<path d="M22.02 16.8203L18.89 9.50027C18.32 8.16027 17.47 7.40027 16.5 7.35027C15.54 7.30027 14.61 7.97027 13.9 9.25027L12 12.6603C11.6 13.3803 11.03 13.8103 10.41 13.8603C9.78001 13.9203 9.15002 13.5903 8.64002 12.9403L8.42002 12.6603C7.71002 11.7703 6.83002 11.3403 5.93002 11.4303C5.03002 11.5203 4.26002 12.1403 3.75002 13.1503L2.02002 16.6003C1.40002 17.8503 1.46002 19.3003 2.19002 20.4803C2.92002 21.6603 4.19002 22.3703 5.58002 22.3703H18.34C19.68 22.3703 20.93 21.7003 21.67 20.5803C22.43 19.4603 22.55 18.0503 22.02 16.8203Z" fill="#211B2A"/>
<path d="M6.96997 8.38012C8.83669 8.38012 10.35 6.86684 10.35 5.00012C10.35 3.13339 8.83669 1.62012 6.96997 1.62012C5.10324 1.62012 3.58997 3.13339 3.58997 5.00012C3.58997 6.86684 5.10324 8.38012 6.96997 8.38012Z" fill="#211B2A"/>
</svg>
