<svg width="24" height="24" viewBox="0 0 24 24" fill="none" xmlns="http://www.w3.org/2000/svg">
<path d="M7.99963 10.02V11.5C7.99963 13.71 9.78963 15.5 11.9996 15.5C14.2096 15.5 15.9996 13.71 15.9996 11.5V6C15.9996 3.79 14.2096 2 11.9996 2C9.78963 2 7.99963 3.79 7.99963 6" stroke="#211B2A" stroke-width="1.5" stroke-linecap="round" stroke-linejoin="round"/>
<path d="M4.34961 9.65039V11.3504C4.34961 15.5704 7.77961 19.0004 11.9996 19.0004C16.2196 19.0004 19.6496 15.5704 19.6496 11.3504V9.65039" stroke="#211B2A" stroke-width="1.5" stroke-linecap="round" stroke-linejoin="round"/>
<path d="M10.6096 6.43012C11.5096 6.10012 12.4896 6.10012 13.3896 6.43012" stroke="#211B2A" stroke-width="1.5" stroke-linecap="round" stroke-linejoin="round"/>
<path d="M11.1996 8.55031C11.7296 8.41031 12.2796 8.41031 12.8096 8.55031" stroke="#211B2A" stroke-width="1.5" stroke-linecap="round" stroke-linejoin="round"/>
<path d="M11.9996 19V22" stroke="#211B2A" stroke-width="1.5" stroke-linecap="round" stroke-linejoin="round"/>
</svg>
