<svg width="24" height="24" viewBox="0 0 24 24" fill="none" xmlns="http://www.w3.org/2000/svg">
<path d="M8 11.75C7.59 11.75 7.25 11.41 7.25 11V6C7.25 3.38 9.38 1.25 12 1.25C14.62 1.25 16.75 3.38 16.75 6V6.3C16.75 6.71 16.41 7.05 16 7.05C15.59 7.05 15.25 6.71 15.25 6.3V6C15.25 4.21 13.79 2.75 12 2.75C10.21 2.75 8.75 4.21 8.75 6V11C8.75 11.41 8.41 11.75 8 11.75Z" fill="#211B2A"/>
<path d="M12 16.25C10.66 16.25 9.37997 15.68 8.47997 14.69C8.19997 14.38 8.22997 13.91 8.52997 13.63C8.83997 13.35 9.30997 13.38 9.58997 13.68C10.2 14.36 11.08 14.75 12 14.75C13.79 14.75 15.25 13.29 15.25 11.5V11C15.25 10.59 15.59 10.25 16 10.25C16.41 10.25 16.75 10.59 16.75 11V11.5C16.75 14.12 14.62 16.25 12 16.25Z" fill="#211B2A"/>
<path d="M11.9999 19.7504C9.86994 19.7504 7.82994 18.9504 6.26994 17.5004C5.96994 17.2204 5.94994 16.7404 6.22994 16.4404C6.51994 16.1304 6.99994 16.1204 7.29994 16.4004C8.57994 17.5904 10.2499 18.2504 11.9999 18.2504C15.7999 18.2504 18.8999 15.1504 18.8999 11.3504V9.65039C18.8999 9.24039 19.2399 8.90039 19.6499 8.90039C20.0599 8.90039 20.3999 9.24039 20.3999 9.65039V11.3504C20.3999 15.9804 16.6299 19.7504 11.9999 19.7504Z" fill="#211B2A"/>
<path d="M4.94998 15.0804C4.65998 15.0804 4.37998 14.9104 4.25998 14.6204C3.81998 13.5804 3.59998 12.4904 3.59998 11.3504V9.65039C3.59998 9.24039 3.93998 8.90039 4.34998 8.90039C4.75998 8.90039 5.09998 9.24039 5.09998 9.65039V11.3504C5.09998 12.2804 5.27998 13.1804 5.63998 14.0304C5.79998 14.4104 5.61998 14.8504 5.23998 15.0104C5.14998 15.0604 5.04998 15.0804 4.94998 15.0804Z" fill="#211B2A"/>
<path d="M3.91999 19.7403C3.72999 19.7403 3.53999 19.6703 3.38999 19.5203C3.09999 19.2303 3.09999 18.7503 3.38999 18.4603L19.54 2.31027C19.83 2.02027 20.31 2.02027 20.6 2.31027C20.89 2.60027 20.89 3.08027 20.6 3.37027L4.45999 19.5203C4.30999 19.6703 4.11999 19.7403 3.91999 19.7403Z" fill="#211B2A"/>
<path d="M11 6.75C10.59 6.75 10.25 6.41 10.25 6V3C10.25 2.59 10.59 2.25 11 2.25C11.41 2.25 11.75 2.59 11.75 3V6C11.75 6.41 11.41 6.75 11 6.75Z" fill="#211B2A"/>
<path d="M12 22.75C11.59 22.75 11.25 22.41 11.25 22V19C11.25 18.59 11.59 18.25 12 18.25C12.41 18.25 12.75 18.59 12.75 19V22C12.75 22.41 12.41 22.75 12 22.75Z" fill="#211B2A"/>
</svg>
