<svg width="24" height="24" viewBox="0 0 24 24" fill="none" xmlns="http://www.w3.org/2000/svg">
<path opacity="0.4" d="M20.7103 17.5195C20.3403 18.7395 19.6103 19.6795 18.5703 20.2595C18.5303 20.0995 18.5103 19.9295 18.5103 19.7595C18.5103 18.5395 19.5003 17.5395 20.7103 17.5195Z" fill="#211B2A"/>
<path opacity="0.4" d="M21.0002 7.52002V15.48C21.0002 15.7 20.9902 15.91 20.9802 16.12L17.5302 17.07V20.71C17.0602 20.86 16.5502 20.95 15.9902 20.98C16.0202 20.91 16.0302 20.84 16.0302 20.76C16.0302 20.35 15.6902 20.02 15.2902 20.02C14.8802 20.02 14.5402 20.35 14.5402 20.76C14.5402 20.84 14.5502 20.93 14.5902 21H7.52024C4.07024 21 2.00024 18.94 2.00024 15.48V7.52002C2.00024 4.06002 4.07024 2 7.52024 2H15.4802C18.9302 2 21.0002 4.06002 21.0002 7.52002Z" fill="#211B2A"/>
<path d="M22.3102 12.25C22.0502 12.06 21.6302 11.86 21.0002 11.92C20.8402 11.93 20.6702 11.96 20.4802 12.01L17.5002 12.8301C16.6102 13.0601 16.0302 13.81 16.0302 14.74V18.6501C15.8002 18.5701 15.5502 18.5201 15.2902 18.5201C14.0502 18.5201 13.0402 19.52 13.0402 20.76C13.0402 20.84 13.0402 20.92 13.0502 21C13.1702 22.12 14.1302 23 15.2902 23C16.5102 23 17.5002 22.01 17.5202 20.8C17.5202 20.78 17.5302 20.77 17.5302 20.76V17.07L20.9802 16.12L21.5002 15.98V17.66C21.2702 17.58 21.0202 17.5201 20.7502 17.5201H20.7102C19.5002 17.5401 18.5102 18.54 18.5102 19.76C18.5102 19.93 18.5302 20.1 18.5702 20.26C18.8002 21.26 19.6902 22.01 20.7502 22.01C21.9802 22.01 22.9702 21.02 22.9902 19.8C22.9902 19.79 23.0002 19.78 23.0002 19.76V13.93C23.0002 13.17 22.7702 12.61 22.3102 12.25ZM15.2902 21.5C14.9602 21.5 14.6802 21.29 14.5902 21C14.5502 20.93 14.5402 20.84 14.5402 20.76C14.5402 20.35 14.8802 20.0201 15.2902 20.0201C15.6902 20.0201 16.0302 20.35 16.0302 20.76C16.0302 20.84 16.0202 20.91 15.9902 20.98C15.9002 21.28 15.6202 21.5 15.2902 21.5ZM20.7502 20.51C20.3502 20.51 20.0102 20.17 20.0102 19.76C20.0102 19.36 20.3502 19.0201 20.7502 19.0201C21.1602 19.0201 21.5002 19.36 21.5002 19.76C21.5002 20.17 21.1602 20.51 20.7502 20.51Z" fill="#211B2A"/>
</svg>
