<svg width="24" height="24" viewBox="0 0 24 24" fill="none" xmlns="http://www.w3.org/2000/svg">
<path d="M22.0002 10V9C22.0002 4 20.0002 2 15.0002 2H9.00024C4.00024 2 2.00024 4 2.00024 9V15C2.00024 20 4.00024 22 9.00024 22H11.0002" stroke="#211B2A" stroke-width="1.5" stroke-linecap="round" stroke-linejoin="round"/>
<path d="M15.2702 22.0001C16.0655 22.0001 16.7102 21.3554 16.7102 20.5601C16.7102 19.7648 16.0655 19.1201 15.2702 19.1201C14.4749 19.1201 13.8302 19.7648 13.8302 20.5601C13.8302 21.3554 14.4749 22.0001 15.2702 22.0001Z" stroke="#211B2A" stroke-width="1.5" stroke-linecap="round" stroke-linejoin="round"/>
<path d="M22.0002 19.6003V13.9603C22.0002 12.7603 21.2502 12.5903 20.4802 12.8003L17.5902 13.5904C17.0702 13.7304 16.7002 14.1503 16.7002 14.7503V15.7603V16.4403V20.5703" stroke="#211B2A" stroke-width="1.5" stroke-linecap="round" stroke-linejoin="round"/>
<path d="M20.5602 21.0402C21.3555 21.0402 22.0002 20.3954 22.0002 19.6002C22.0002 18.8049 21.3555 18.1602 20.5602 18.1602C19.7649 18.1602 19.1202 18.8049 19.1202 19.6002C19.1202 20.3954 19.7649 21.0402 20.5602 21.0402Z" stroke="#211B2A" stroke-width="1.5" stroke-linecap="round" stroke-linejoin="round"/>
<path d="M16.7102 16.4302L22.0002 14.9902" stroke="#211B2A" stroke-width="1.5" stroke-linecap="round" stroke-linejoin="round"/>
</svg>
