<svg width="24" height="24" viewBox="0 0 24 24" fill="none" xmlns="http://www.w3.org/2000/svg">
<path d="M11.0002 22.75H9.00024C3.57024 22.75 1.25024 20.43 1.25024 15V9C1.25024 3.57 3.57024 1.25 9.00024 1.25H15.0002C20.4302 1.25 22.7502 3.57 22.7502 9V10C22.7502 10.41 22.4102 10.75 22.0002 10.75C21.5902 10.75 21.2502 10.41 21.2502 10V9C21.2502 4.39 19.6102 2.75 15.0002 2.75H9.00024C4.39024 2.75 2.75024 4.39 2.75024 9V15C2.75024 19.61 4.39024 21.25 9.00024 21.25H11.0002C11.4102 21.25 11.7502 21.59 11.7502 22C11.7502 22.41 11.4102 22.75 11.0002 22.75Z" fill="#211B2A"/>
<path d="M15.2703 22.7501C14.0603 22.7501 13.0803 21.7701 13.0803 20.5601C13.0803 19.3501 14.0603 18.3701 15.2703 18.3701C16.4803 18.3701 17.4603 19.3501 17.4603 20.5601C17.4603 21.7701 16.4803 22.7501 15.2703 22.7501ZM15.2703 19.8601C14.8903 19.8601 14.5803 20.1701 14.5803 20.5501C14.5803 20.9301 14.8903 21.2401 15.2703 21.2401C15.6503 21.2401 15.9603 20.9301 15.9603 20.5501C15.9603 20.1701 15.6503 19.8601 15.2703 19.8601Z" fill="#211B2A"/>
<path d="M16.7102 21.3098C16.3002 21.3098 15.9602 20.9698 15.9602 20.5598V14.7398C15.9602 13.8298 16.5202 13.0898 17.4002 12.8598L20.2902 12.0698C21.1902 11.8198 21.7502 12.0598 22.0702 12.2998C22.3802 12.5398 22.7502 13.0198 22.7502 13.9498V19.5898C22.7502 19.9998 22.4102 20.3398 22.0002 20.3398C21.5902 20.3398 21.2502 19.9998 21.2502 19.5898V13.9498C21.2502 13.6298 21.1802 13.5098 21.1502 13.4898C21.1202 13.4698 20.9802 13.4298 20.6702 13.5098L17.7802 14.2998C17.4802 14.3798 17.4502 14.5898 17.4502 14.7398V20.5598C17.4602 20.9698 17.1202 21.3098 16.7102 21.3098Z" fill="#211B2A"/>
<path d="M20.5604 21.7902C19.3504 21.7902 18.3704 20.8102 18.3704 19.6002C18.3704 18.3902 19.3504 17.4102 20.5604 17.4102C21.7704 17.4102 22.7504 18.3902 22.7504 19.6002C22.7504 20.8102 21.7704 21.7902 20.5604 21.7902ZM20.5604 18.9002C20.1804 18.9002 19.8704 19.2102 19.8704 19.5902C19.8704 19.9702 20.1804 20.2802 20.5604 20.2802C20.9404 20.2802 21.2504 19.9702 21.2504 19.5902C21.2504 19.2102 20.9404 18.9002 20.5604 18.9002Z" fill="#211B2A"/>
<path d="M16.7103 17.1799C16.3803 17.1799 16.0803 16.9599 15.9903 16.6299C15.8803 16.2299 16.1203 15.8199 16.5203 15.7099L21.8103 14.2699C22.2103 14.1599 22.6203 14.3999 22.7303 14.7999C22.8403 15.1999 22.6003 15.6098 22.2003 15.7198L16.9103 17.1598C16.8403 17.1698 16.7703 17.1799 16.7103 17.1799Z" fill="#211B2A"/>
</svg>
