<svg width="24" height="24" viewBox="0 0 24 24" fill="none" xmlns="http://www.w3.org/2000/svg">
<path d="M2 9C2 4 4 2 9 2H15C20 2 22 4 22 9V15C22 20 20 22 15 22H9C4 22 2 20 2 15V13.59" stroke="#211B2A" stroke-width="1.5" stroke-linecap="round" stroke-linejoin="round"/>
<path d="M7 2.5V21.5" stroke="#211B2A" stroke-width="1.5" stroke-linecap="round" stroke-linejoin="round"/>
<path d="M11.47 16.8003C12.2929 16.8003 12.96 16.1332 12.96 15.3103C12.96 14.4874 12.2929 13.8203 11.47 13.8203C10.6471 13.8203 9.97998 14.4874 9.97998 15.3103C9.97998 16.1332 10.6471 16.8003 11.47 16.8003Z" stroke="#211B2A" stroke-width="1.5" stroke-linecap="round" stroke-linejoin="round"/>
<path d="M18.43 14.3103V8.48026C18.43 7.24026 17.65 7.07031 16.86 7.28031L13.88 8.09031C13.34 8.24031 12.96 8.67026 12.96 9.29026V10.3303V11.0303V15.3003" stroke="#211B2A" stroke-width="1.5" stroke-linecap="round" stroke-linejoin="round"/>
<path d="M16.93 15.8003C17.7529 15.8003 18.42 15.1332 18.42 14.3103C18.42 13.4874 17.7529 12.8203 16.93 12.8203C16.1071 12.8203 15.44 13.4874 15.44 14.3103C15.44 15.1332 16.1071 15.8003 16.93 15.8003Z" stroke="#211B2A" stroke-width="1.5" stroke-linecap="round" stroke-linejoin="round"/>
<path d="M12.96 11.0408L18.43 9.55078" stroke="#211B2A" stroke-width="1.5" stroke-linecap="round" stroke-linejoin="round"/>
</svg>
