<svg width="24" height="24" viewBox="0 0 24 24" fill="none" xmlns="http://www.w3.org/2000/svg">
<path d="M6.27997 21.9998C8.0031 21.9998 9.39997 20.6029 9.39997 18.8798C9.39997 17.1566 8.0031 15.7598 6.27997 15.7598C4.55684 15.7598 3.15997 17.1566 3.15997 18.8798C3.15997 20.6029 4.55684 21.9998 6.27997 21.9998Z" stroke="#211B2A" stroke-width="1.5" stroke-linecap="round" stroke-linejoin="round"/>
<path d="M20.84 7.96034V4.60034C20.84 2.00034 19.21 1.64034 17.56 2.09034L11.32 3.79034C10.18 4.10034 9.40002 5.00034 9.40002 6.30034V8.47034V9.93034V18.8703" stroke="#211B2A" stroke-width="1.5" stroke-linecap="round" stroke-linejoin="round"/>
<path d="M20.84 16.8V12" stroke="#211B2A" stroke-width="1.5" stroke-linecap="round" stroke-linejoin="round"/>
<path d="M17.72 19.9197C19.4431 19.9197 20.84 18.5228 20.84 16.7997C20.84 15.0766 19.4431 13.6797 17.72 13.6797C15.9968 13.6797 14.6 15.0766 14.6 16.7997C14.6 18.5228 15.9968 19.9197 17.72 19.9197Z" stroke="#211B2A" stroke-width="1.5" stroke-linecap="round" stroke-linejoin="round"/>
<path d="M9.40002 9.52039L20.84 6.40039" stroke="#211B2A" stroke-width="1.5" stroke-linecap="round" stroke-linejoin="round"/>
</svg>
