<svg width="24" height="24" viewBox="0 0 24 24" fill="none" xmlns="http://www.w3.org/2000/svg">
<path d="M10.29 10.3398V18.4098C10.29 20.3898 8.66999 21.9998 6.69999 21.9998C4.71999 21.9998 3.10999 20.3898 3.10999 18.4098C3.10999 16.4398 4.71999 14.8298 6.69999 14.8298C7.52999 14.8298 8.27999 15.1198 8.88999 15.5898V10.7398L10.29 10.3398Z" fill="#211B2A"/>
<path d="M20.89 7.32031V16.4803C20.89 18.4603 19.28 20.0703 17.3 20.0703C15.33 20.0703 13.71 18.4603 13.71 16.4803C13.71 14.5103 15.33 12.9003 17.3 12.9003C18.14 12.9003 18.89 13.1903 19.5 13.6703V7.72031L20.89 7.32031Z" fill="#211B2A"/>
<path opacity="0.4" d="M20.89 5.17958V7.31958L8.89001 10.7396V6.74958C8.89001 5.27958 9.78001 4.13958 11.19 3.75958L16.97 2.17958C18.14 1.85958 19.13 1.96958 19.83 2.50958C20.54 3.03958 20.89 3.93958 20.89 5.17958Z" fill="#211B2A"/>
</svg>
