<svg width="24" height="24" viewBox="0 0 24 24" fill="none" xmlns="http://www.w3.org/2000/svg">
<path opacity="0.4" d="M16.19 2H7.82001C4.18001 2 2.01001 4.17 2.01001 7.81V16.18C2.01001 19.82 4.18001 21.99 7.82001 21.99H16.19C19.83 21.99 22 19.82 22 16.18V7.81C22 4.17 19.83 2 16.19 2Z" fill="#211B2A"/>
<path d="M16.14 6.71039C15.8 6.45039 15.2 6.20039 14.24 6.46039L11.25 7.2804C10.32 7.5304 9.71002 8.32034 9.71002 9.29034V11.0403V13.0704C9.50002 13.0104 9.29 12.9703 9.06 12.9703C7.77 12.9703 6.71997 14.0204 6.71997 15.3104C6.71997 16.6004 7.77 17.6504 9.06 17.6504C10.34 17.6504 11.38 16.6104 11.4 15.3404C11.4 15.3304 11.41 15.3204 11.41 15.3104V11.6904L15.19 10.6603V12.0804C14.98 12.0204 14.77 11.9803 14.54 11.9803C13.25 11.9803 12.2 13.0304 12.2 14.3204C12.2 15.6104 13.25 16.6603 14.54 16.6603C15.83 16.6603 16.88 15.6104 16.88 14.3204V9.56036V8.49036C16.88 7.49036 16.47 6.97039 16.14 6.71039ZM9.06 15.9604C8.7 15.9604 8.40997 15.6704 8.40997 15.3104C8.40997 14.9504 8.7 14.6603 9.06 14.6603C9.42 14.6603 9.71002 14.9504 9.71002 15.3104C9.71002 15.6704 9.42 15.9604 9.06 15.9604ZM14.54 14.9604C14.18 14.9604 13.89 14.6704 13.89 14.3104C13.89 13.9504 14.18 13.6603 14.54 13.6603C14.9 13.6603 15.19 13.9504 15.19 14.3104C15.18 14.6704 14.89 14.9604 14.54 14.9604Z" fill="#211B2A"/>
</svg>
