<svg width="24" height="24" viewBox="0 0 24 24" fill="none" xmlns="http://www.w3.org/2000/svg">
<path opacity="0.4" d="M2.57999 9.42023C2.49999 9.42023 2.40999 9.41025 2.32999 9.38025C1.93999 9.24025 1.74 8.81023 1.87 8.42023C2.54 6.54023 3.7 4.89026 5.25 3.64026C5.57 3.38026 6.03999 3.43025 6.29999 3.75025C6.55999 4.07025 6.51 4.54025 6.19 4.81025C4.86 5.88025 3.86001 7.30023 3.29001 8.92023C3.18001 9.23023 2.88999 9.42023 2.57999 9.42023Z" fill="#211B2A"/>
<path opacity="0.4" d="M2.57999 16.08C2.26999 16.08 1.98 15.89 1.87 15.58C1.46 14.41 1.25 13.21 1.25 12C1.25 11.59 1.59 11.25 2 11.25C2.41 11.25 2.75 11.59 2.75 12C2.75 13.04 2.93001 14.08 3.29001 15.08C3.43001 15.47 3.21999 15.9 2.82999 16.04C2.74999 16.07 2.65999 16.08 2.57999 16.08Z" fill="#211B2A"/>
<path opacity="0.4" d="M12 22.7496C10.94 22.7496 9.88998 22.5896 8.86998 22.2796C8.46998 22.1596 8.24998 21.7396 8.36998 21.3396C8.48998 20.9396 8.90999 20.7196 9.30999 20.8396C10.18 21.1096 11.09 21.2396 12 21.2396C17.1 21.2396 21.25 17.0896 21.25 11.9896C21.25 11.4696 21.2 10.9295 21.1 10.3595C21.03 9.94955 21.3 9.55955 21.71 9.48955C22.11 9.41955 22.51 9.68954 22.58 10.0995C22.7 10.7595 22.76 11.3796 22.76 11.9996C22.75 17.9296 17.93 22.7496 12 22.7496Z" fill="#211B2A"/>
<path opacity="0.4" d="M5.72001 20.5001C5.55001 20.5001 5.39001 20.4501 5.25001 20.3301C4.68001 19.8701 4.21999 19.43 3.82999 18.98C3.55999 18.67 3.60001 18.19 3.91001 17.92C4.23001 17.65 4.70001 17.6901 4.97001 18.0001C5.30001 18.3801 5.70001 18.76 6.19001 19.16C6.51001 19.42 6.55999 19.8901 6.29999 20.2101C6.15999 20.4001 5.94001 20.5001 5.72001 20.5001Z" fill="#211B2A"/>
<path opacity="0.4" d="M20.24 7.09052C20 7.09052 19.77 6.9805 19.62 6.7605C17.89 4.2405 15.04 2.74048 12 2.74048C11.09 2.74048 10.18 2.8705 9.31004 3.1405C8.92004 3.2605 8.50003 3.0405 8.37003 2.6405C8.24003 2.2405 8.47003 1.8205 8.87003 1.7005C9.89003 1.3905 10.94 1.23047 12 1.23047C15.54 1.23047 18.85 2.98051 20.86 5.90051C21.09 6.24051 21.0101 6.71049 20.6701 6.94049C20.5401 7.05049 20.39 7.09052 20.24 7.09052Z" fill="#211B2A"/>
<path d="M16.03 6.50045C15.7 6.25045 15.1 6.00046 14.14 6.26046L10.95 7.12045C10.03 7.38045 9.42999 8.16045 9.42999 9.12045V10.7605V13.3405C9.16999 13.2405 8.89 13.1804 8.59 13.1804C7.3 13.1804 6.25 14.2305 6.25 15.5205C6.25 16.8105 7.3 17.8604 8.59 17.8604C9.87 17.8604 10.9 16.8305 10.92 15.5605C10.92 15.5505 10.93 15.5405 10.93 15.5205V11.3305L15.25 10.1505V12.2805C14.99 12.1805 14.71 12.1204 14.41 12.1204C13.12 12.1204 12.07 13.1705 12.07 14.4605C12.07 15.7505 13.12 16.8004 14.41 16.8004C15.7 16.8004 16.75 15.7505 16.75 14.4605V9.17044V8.25045C16.75 7.45045 16.51 6.86045 16.03 6.50045ZM8.59 16.3604C8.13 16.3604 7.75 15.9805 7.75 15.5205C7.75 15.0605 8.13 14.6804 8.59 14.6804C9.05 14.6804 9.42999 15.0605 9.42999 15.5205C9.42999 15.9805 9.05 16.3604 8.59 16.3604ZM14.41 15.3004C13.95 15.3004 13.57 14.9205 13.57 14.4605C13.57 14.0005 13.95 13.6204 14.41 13.6204C14.87 13.6204 15.25 14.0005 15.25 14.4605C15.25 14.9205 14.87 15.3004 14.41 15.3004Z" fill="#211B2A"/>
</svg>
