<svg width="24" height="24" viewBox="0 0 24 24" fill="none" xmlns="http://www.w3.org/2000/svg">
<path d="M6.27997 22.7498C4.14997 22.7498 2.40997 21.0098 2.40997 18.8798C2.40997 16.7498 4.14997 15.0098 6.27997 15.0098C8.40997 15.0098 10.15 16.7498 10.15 18.8798C10.15 21.0098 8.40997 22.7498 6.27997 22.7498ZM6.27997 16.5098C4.96997 16.5098 3.90997 17.5698 3.90997 18.8798C3.90997 20.1898 4.96997 21.2498 6.27997 21.2498C7.58997 21.2498 8.64997 20.1898 8.64997 18.8798C8.64997 17.5698 7.58997 16.5098 6.27997 16.5098Z" fill="#211B2A"/>
<path d="M9.40002 19.6296C8.99002 19.6296 8.65002 19.2896 8.65002 18.8796V6.29964C8.65002 4.71964 9.60002 3.47964 11.12 3.06964L17.36 1.36964C18.63 1.01964 19.7 1.14964 20.45 1.72964C21.21 2.30964 21.59 3.27964 21.59 4.60964V16.8096C21.59 17.2196 21.25 17.5596 20.84 17.5596C20.43 17.5596 20.09 17.2196 20.09 16.8096V4.59964C20.09 4.01964 19.99 3.25964 19.54 2.91964C19.05 2.53964 18.21 2.68964 17.75 2.81964L11.51 4.51964C10.64 4.75964 10.15 5.40964 10.15 6.30964V18.8896C10.15 19.2896 9.81002 19.6296 9.40002 19.6296Z" fill="#211B2A"/>
<path d="M17.72 20.6697C15.59 20.6697 13.85 18.9297 13.85 16.7997C13.85 14.6697 15.59 12.9297 17.72 12.9297C19.85 12.9297 21.59 14.6697 21.59 16.7997C21.59 18.9297 19.85 20.6697 17.72 20.6697ZM17.72 14.4297C16.41 14.4297 15.35 15.4897 15.35 16.7997C15.35 18.1097 16.41 19.1697 17.72 19.1697C19.03 19.1697 20.09 18.1097 20.09 16.7997C20.09 15.4897 19.03 14.4297 17.72 14.4297Z" fill="#211B2A"/>
<path d="M9.39998 10.2703C9.06998 10.2703 8.76999 10.0503 8.67999 9.72027C8.56999 9.32027 8.79998 8.90027 9.19998 8.79027L20.64 5.67027C21.04 5.56027 21.45 5.80027 21.56 6.20027C21.67 6.60027 21.43 7.01027 21.03 7.12027L9.59999 10.2403C9.52999 10.2603 9.45998 10.2703 9.39998 10.2703Z" fill="#211B2A"/>
</svg>
