<svg width="24" height="24" viewBox="0 0 24 24" fill="none" xmlns="http://www.w3.org/2000/svg">
<path d="M2.58 9.42026C2.5 9.42026 2.41 9.41026 2.33 9.38026C1.94 9.24026 1.74 8.81026 1.87 8.42026C2.54 6.54026 3.7 4.89026 5.25 3.64026C5.57 3.38026 6.04 3.43026 6.3 3.75026C6.56 4.07026 6.51 4.54026 6.19 4.81026C4.87 5.88026 3.86 7.30026 3.29 8.92026C3.18 9.23026 2.89 9.42026 2.58 9.42026Z" fill="#211B2A"/>
<path d="M2.58 16.08C2.27 16.08 1.98 15.89 1.87 15.58C1.46 14.42 1.25 13.21 1.25 12C1.25 11.59 1.59 11.25 2 11.25C2.41 11.25 2.75 11.59 2.75 12C2.75 13.04 2.93 14.08 3.29 15.08C3.43 15.47 3.22 15.9 2.83 16.04C2.75 16.07 2.66 16.08 2.58 16.08Z" fill="#211B2A"/>
<path d="M12 22.7496C10.94 22.7496 9.88998 22.5896 8.86998 22.2796C8.46998 22.1596 8.24998 21.7396 8.36998 21.3396C8.48998 20.9396 8.90998 20.7196 9.30998 20.8396C10.18 21.1096 11.09 21.2396 12 21.2396C17.1 21.2396 21.25 17.0896 21.25 11.9896C21.25 11.4696 21.2 10.9296 21.1 10.3596C21.03 9.94955 21.3 9.55955 21.71 9.48955C22.11 9.41955 22.51 9.68955 22.58 10.0996C22.7 10.7596 22.76 11.3796 22.76 11.9996C22.75 17.9296 17.93 22.7496 12 22.7496Z" fill="#211B2A"/>
<path d="M5.72 20.5001C5.55 20.5001 5.39 20.4501 5.25 20.3301C4.68 19.8701 4.22 19.4301 3.83 18.9801C3.56 18.6701 3.6 18.1901 3.91 17.9201C4.23 17.6501 4.7 17.6901 4.97 18.0001C5.3 18.3801 5.7 18.7601 6.19 19.1601C6.51 19.4201 6.56 19.8901 6.3 20.2101C6.16 20.4001 5.94 20.5001 5.72 20.5001Z" fill="#211B2A"/>
<path d="M20.24 7.09C20 7.09 19.77 6.98 19.62 6.76C17.9 4.25 15.04 2.75 12 2.75C11.09 2.75 10.18 2.88 9.31 3.15C8.92 3.27 8.5 3.05 8.37 2.65C8.24 2.25 8.47 1.83 8.87 1.71C9.89 1.41 10.94 1.25 12 1.25C15.54 1.25 18.85 3 20.86 5.92C21.09 6.26 21.01 6.73 20.67 6.96C20.54 7.05 20.39 7.09 20.24 7.09Z" fill="#211B2A"/>
<path d="M16.03 6.50046C15.7 6.25046 15.1 6.00046 14.14 6.26046L10.95 7.12046C10.03 7.38046 9.43 8.16046 9.43 9.12046V10.7605V13.3405C9.17 13.2405 8.89 13.1805 8.59 13.1805C7.3 13.1805 6.25 14.2305 6.25 15.5205C6.25 16.8105 7.3 17.8605 8.59 17.8605C9.87 17.8605 10.9 16.8305 10.92 15.5605C10.92 15.5505 10.93 15.5405 10.93 15.5205V11.3305L15.25 10.1505V12.2805C14.99 12.1805 14.71 12.1205 14.41 12.1205C13.12 12.1205 12.07 13.1705 12.07 14.4605C12.07 15.7505 13.12 16.8005 14.41 16.8005C15.7 16.8005 16.75 15.7505 16.75 14.4605V9.17046V8.25046C16.75 7.45046 16.51 6.86046 16.03 6.50046ZM8.59 16.3605C8.13 16.3605 7.75 15.9805 7.75 15.5205C7.75 15.0605 8.13 14.6805 8.59 14.6805C9.05 14.6805 9.43 15.0605 9.43 15.5205C9.43 15.9805 9.05 16.3605 8.59 16.3605ZM14.41 15.3005C13.95 15.3005 13.57 14.9205 13.57 14.4605C13.57 14.0005 13.95 13.6205 14.41 13.6205C14.87 13.6205 15.25 14.0005 15.25 14.4605C15.25 14.9205 14.87 15.3005 14.41 15.3005Z" fill="#211B2A"/>
</svg>
