<svg width="24" height="24" viewBox="0 0 24 24" fill="none" xmlns="http://www.w3.org/2000/svg">
<path opacity="0.4" d="M19.26 2.86971L14.84 1.39971C13.92 1.08971 12.99 1.19971 12.31 1.69971C11.62 2.19971 11.23 3.03971 11.23 4.00971V7.77971L18.11 10.0697C18.45 10.1897 18.8 10.2397 19.13 10.2397C19.69 10.2397 20.21 10.0797 20.64 9.76971C21.33 9.26971 21.72 8.42971 21.72 7.45971V6.27971C21.72 4.84971 20.62 3.31971 19.26 2.86971Z" fill="#211B2A"/>
<path d="M12.72 8.26953V17.9995C12.72 20.6195 10.59 22.7495 7.96997 22.7495C5.34997 22.7495 3.21997 20.6195 3.21997 17.9995C3.21997 15.3795 5.34997 13.2495 7.96997 13.2495C9.22997 13.2495 10.37 13.7495 11.22 14.5495V7.76953L12.72 8.26953Z" fill="#211B2A"/>
</svg>
