<svg width="24" height="24" viewBox="0 0 24 24" fill="none" xmlns="http://www.w3.org/2000/svg">
<path d="M20.89 5.17958V16.4796C20.89 18.4596 19.28 20.0696 17.3 20.0696C15.33 20.0696 13.71 18.4596 13.71 16.4796C13.71 14.5096 15.33 12.8996 17.3 12.8996C18.14 12.8996 18.89 13.1896 19.5 13.6696V7.71958L10.29 10.3396V18.4096C10.29 20.3896 8.66999 21.9996 6.69999 21.9996C4.71999 21.9996 3.10999 20.3896 3.10999 18.4096C3.10999 16.4396 4.71999 14.8296 6.69999 14.8296C7.52999 14.8296 8.27999 15.1196 8.88999 15.5896V6.74958C8.88999 5.27958 9.77999 4.13958 11.19 3.75958L16.97 2.17958C18.14 1.85958 19.13 1.96958 19.83 2.50958C20.54 3.03958 20.89 3.93958 20.89 5.17958Z" fill="#211B2A"/>
</svg>
