<svg width="24" height="24" viewBox="0 0 24 24" fill="none" xmlns="http://www.w3.org/2000/svg">
<path d="M4 6C2.75 7.67 2 9.75 2 12C2 17.52 6.48 22 12 22C17.52 22 22 17.52 22 12C22 6.48 17.52 2 12 2C10.57 2 9.2 2.3 7.97 2.85" stroke="#211B2A" stroke-width="1.5" stroke-linecap="round" stroke-linejoin="round"/>
<path d="M10.75 14.4302V9.3702C10.75 8.8902 10.55 8.7002 10.04 8.7002H8.74998C8.23998 8.7002 8.03998 8.8902 8.03998 9.3702V14.4302C8.03998 14.9102 8.23998 15.1002 8.74998 15.1002H10.04C10.55 15.1002 10.75 14.9102 10.75 14.4302Z" stroke="#211B2A" stroke-width="1.5" stroke-linecap="round" stroke-linejoin="round"/>
<path d="M16.03 14.4302V9.3702C16.03 8.8902 15.83 8.7002 15.32 8.7002H14.03C13.52 8.7002 13.32 8.8902 13.32 9.3702V14.4302C13.32 14.9102 13.52 15.1002 14.03 15.1002" stroke="#211B2A" stroke-width="1.5" stroke-linecap="round" stroke-linejoin="round"/>
</svg>
