<svg width="24" height="24" viewBox="0 0 24 24" fill="none" xmlns="http://www.w3.org/2000/svg">
<path d="M11.97 22.75C6.05 22.75 1.22 17.93 1.22 12C1.22 6.07 6.05 1.25 11.97 1.25C17.89 1.25 22.72 6.07 22.72 12C22.72 17.93 17.9 22.75 11.97 22.75ZM11.97 2.75C6.87 2.75 2.72 6.9 2.72 12C2.72 17.1 6.87 21.25 11.97 21.25C17.07 21.25 21.22 17.1 21.22 12C21.22 6.9 17.07 2.75 11.97 2.75Z" fill="#211B2A"/>
<path d="M10.56 16.9905C10.12 16.9905 9.69999 16.8805 9.32999 16.6705C8.46999 16.1705 7.98999 15.1905 7.98999 13.9105V10.5605C7.98999 9.28048 8.45999 8.30048 9.31999 7.80048C10.18 7.30048 11.27 7.38048 12.38 8.02048L15.28 9.69048C16.39 10.3305 17 11.2305 17 12.2305C17 13.2205 16.39 14.1305 15.28 14.7705L12.38 16.4405C11.76 16.8105 11.13 16.9905 10.56 16.9905ZM10.56 8.97048C10.38 8.97048 10.21 9.01048 10.08 9.09048C9.69999 9.31048 9.48999 9.84048 9.48999 10.5605V13.9105C9.48999 14.6205 9.69999 15.1605 10.08 15.3705C10.45 15.5905 11.02 15.5005 11.64 15.1505L14.54 13.4805C15.16 13.1205 15.51 12.6705 15.51 12.2405C15.51 11.8105 15.15 11.3605 14.54 11.0005L11.64 9.33048C11.24 9.09048 10.87 8.97048 10.56 8.97048Z" fill="#211B2A"/>
</svg>
