<svg width="24" height="24" viewBox="0 0 24 24" fill="none" xmlns="http://www.w3.org/2000/svg">
<path d="M19.07 19.0697C22.98 15.1597 22.98 8.82969 19.07 4.92969" stroke="#211B2A" stroke-width="1.5" stroke-linecap="round" stroke-linejoin="round"/>
<path d="M4.93 4.92969C1.02 8.83969 1.02 15.1697 4.93 19.0697" stroke="#211B2A" stroke-width="1.5" stroke-linecap="round" stroke-linejoin="round"/>
<path d="M8.70001 21.4102C9.77001 21.7802 10.88 21.9602 12 21.9602C13.12 21.9502 14.23 21.7802 15.3 21.4102" stroke="#211B2A" stroke-width="1.5" stroke-linecap="round" stroke-linejoin="round"/>
<path d="M8.70001 2.59009C9.77001 2.22009 10.88 2.04004 12 2.04004C13.12 2.04004 14.23 2.22009 15.3 2.59009" stroke="#211B2A" stroke-width="1.5" stroke-linecap="round" stroke-linejoin="round"/>
<path opacity="0.4" d="M8.73999 12.0001V10.3302C8.73999 8.25016 10.21 7.40014 12.01 8.44014L13.46 9.28017L14.91 10.1201C16.71 11.1601 16.71 12.8602 14.91 13.9002L13.46 14.7401L12.01 15.5802C10.21 16.6202 8.73999 15.7701 8.73999 13.6901V12.0001Z" stroke="#211B2A" stroke-width="1.5" stroke-miterlimit="10" stroke-linecap="round" stroke-linejoin="round"/>
</svg>
