<svg width="24" height="24" viewBox="0 0 24 24" fill="none" xmlns="http://www.w3.org/2000/svg">
<path d="M11.97 22.75C6.05 22.75 1.22 17.93 1.22 12C1.22 6.07 6.05 1.25 11.97 1.25C17.89 1.25 22.72 6.07 22.72 12C22.72 17.93 17.9 22.75 11.97 22.75ZM11.97 2.75C6.87 2.75 2.72 6.9 2.72 12C2.72 17.1 6.87 21.25 11.97 21.25C17.07 21.25 21.22 17.1 21.22 12C21.22 6.9 17.07 2.75 11.97 2.75Z" fill="#211B2A"/>
<path d="M12 16.9795C9.25002 16.9795 7.02002 14.7495 7.02002 11.9995C7.02002 9.24953 9.25002 7.01953 12 7.01953C14.75 7.01953 16.98 9.24953 16.98 11.9995C16.98 14.7495 14.75 16.9795 12 16.9795ZM12 8.51953C10.08 8.51953 8.52002 10.0795 8.52002 11.9995C8.52002 13.9195 10.08 15.4795 12 15.4795C13.92 15.4795 15.48 13.9195 15.48 11.9995C15.48 10.0795 13.92 8.51953 12 8.51953Z" fill="#211B2A"/>
</svg>
