<svg width="24" height="24" viewBox="0 0 24 24" fill="none" xmlns="http://www.w3.org/2000/svg">
<path d="M19.63 7.24039C19.93 7.71039 19.77 8.34039 19.29 8.63039L18.7 8.98039L5.59004 16.8404C5.11004 17.1304 4.48003 16.9704 4.20003 16.4804C3.20003 14.7404 2.75004 12.6204 3.14004 10.4004C3.80004 6.63039 6.90003 3.63039 10.69 3.09039C14.44 2.56039 17.83 4.36039 19.63 7.24039Z" fill="#211B2A"/>
<path d="M20.89 13.4298C20.21 17.6798 16.45 20.9298 12.14 20.9998C10.24 21.0298 8.48003 20.4798 7.02003 19.4898C6.40003 19.0798 6.42003 18.1598 7.06003 17.7798L19.47 10.4898C20.12 10.1098 20.92 10.5498 20.98 11.2998C21.03 11.9998 21 12.7098 20.89 13.4298Z" fill="#211B2A"/>
</svg>
