<svg width="24" height="24" viewBox="0 0 24 24" fill="none" xmlns="http://www.w3.org/2000/svg">
<path opacity="0.4" d="M3.91 17.1804C3.72 17.1804 3.53 17.1104 3.38 16.9604C2.01 15.5804 1.25 13.7604 1.25 11.8304C1.25 7.82043 4.5 4.56041 8.5 4.56041L14.57 4.58043L13.48 3.54039C13.18 3.25039 13.17 2.78039 13.46 2.48039C13.75 2.18039 14.22 2.17044 14.52 2.46044L16.96 4.8004C17.18 5.0104 17.25 5.34041 17.14 5.62041C17.03 5.90041 16.75 6.09044 16.44 6.09044L8.48999 6.07042C5.31999 6.07042 2.73999 8.66044 2.73999 11.8404C2.73999 13.3704 3.33999 14.8204 4.42999 15.9104C4.71999 16.2004 4.71999 16.6804 4.42999 16.9704C4.28999 17.1104 4.1 17.1804 3.91 17.1804Z" fill="#211B2A"/>
<path opacity="0.4" d="M10 21.75C9.81003 21.75 9.63004 21.6799 9.48004 21.5399L7.04004 19.2C6.82004 18.99 6.75002 18.66 6.86002 18.38C6.98002 18.1 7.26003 17.9499 7.56003 17.9099L15.51 17.93C18.68 17.93 21.26 15.3399 21.26 12.1599C21.26 10.6299 20.66 9.18 19.57 8.09C19.28 7.8 19.28 7.32 19.57 7.03C19.86 6.74 20.34 6.74 20.63 7.03C22 8.41 22.76 10.2299 22.76 12.1599C22.76 16.1699 19.51 19.43 15.51 19.43L9.44003 19.4099L10.53 20.45C10.83 20.74 10.84 21.21 10.55 21.51C10.39 21.67 10.2 21.75 10 21.75Z" fill="#211B2A"/>
<path d="M12.25 15.4201C11.84 15.4201 11.5 15.0801 11.5 14.6701V11.2801L11.31 11.4901C11.03 11.8001 10.56 11.8201 10.25 11.5501C9.94 11.2801 9.92 10.8001 10.19 10.4901L11.69 8.82008C11.9 8.59008 12.23 8.51007 12.52 8.62007C12.81 8.73007 13 9.01008 13 9.32008V14.6701C13 15.0901 12.66 15.4201 12.25 15.4201Z" fill="#211B2A"/>
</svg>
