<svg width="24" height="24" viewBox="0 0 24 24" fill="none" xmlns="http://www.w3.org/2000/svg">
<path opacity="0.4" d="M16.19 2H7.82001C4.18001 2 2.01001 4.17 2.01001 7.81V16.18C2.01001 19.82 4.18001 21.99 7.82001 21.99H16.19C19.83 21.99 22 19.82 22 16.18V7.81C22 4.17 19.83 2 16.19 2Z" fill="#211B2A"/>
<path d="M14.17 11.9899L17.77 9.29992C18.1 9.04992 18.17 8.57992 17.92 8.24992C17.67 7.91992 17.2 7.84992 16.87 8.09992L12.92 11.0499L10.52 9.24992C10.53 9.15992 10.55 9.06992 10.55 8.96992C10.55 7.69992 9.52 6.66992 8.25 6.66992C6.98 6.66992 5.95001 7.69992 5.95001 8.96992C5.95001 10.2399 6.98 11.2699 8.25 11.2699C8.87 11.2699 9.42998 11.0199 9.84998 10.6199L11.68 11.9899L9.84003 13.3699C9.43003 12.9799 8.87001 12.7299 8.26001 12.7299C6.99001 12.7299 5.96002 13.7599 5.96002 15.0299C5.96002 16.2999 6.99001 17.3299 8.26001 17.3299C9.53001 17.3299 10.56 16.2999 10.56 15.0299C10.56 14.9299 10.54 14.8299 10.53 14.7299L12.94 12.9299L16.89 15.8799C17.02 15.9799 17.18 16.0299 17.34 16.0299C17.57 16.0299 17.79 15.9299 17.94 15.7299C18.19 15.3999 18.12 14.9299 17.79 14.6799L14.17 11.9899Z" fill="#211B2A"/>
</svg>
