<svg width="24" height="24" viewBox="0 0 24 24" fill="none" xmlns="http://www.w3.org/2000/svg">
<path d="M14.73 2H9.27V6.36H14.73V2Z" fill="#211B2A"/>
<path d="M16.23 2V6.36H21.87C21.36 3.61 19.33 2.01 16.23 2Z" fill="#211B2A"/>
<path d="M2 7.86035V16.1904C2 19.8304 4.17 22.0004 7.81 22.0004H16.19C19.83 22.0004 22 19.8304 22 16.1904V7.86035H2ZM14.44 16.1804L12.36 17.3804C11.92 17.6304 11.49 17.7604 11.09 17.7604C10.79 17.7604 10.52 17.6904 10.27 17.5504C9.69 17.2204 9.37 16.5404 9.37 15.6604V13.2604C9.37 12.3804 9.69 11.7004 10.27 11.3704C10.85 11.0304 11.59 11.0904 12.36 11.5404L14.44 12.7404C15.21 13.1804 15.63 13.8004 15.63 14.4704C15.63 15.1404 15.2 15.7304 14.44 16.1804Z" fill="#211B2A"/>
<path d="M7.77 2C4.67 2.01 2.64 3.61 2.13 6.36H7.77V2Z" fill="#211B2A"/>
</svg>
