<svg width="24" height="24" viewBox="0 0 24 24" fill="none" xmlns="http://www.w3.org/2000/svg">
<path opacity="0.4" d="M13 3.25H7C3.58 3.25 2.25 4.58 2.25 8V16C2.25 18.3 3.5 20.75 7 20.75H13C16.42 20.75 17.75 19.42 17.75 16V8C17.75 4.58 16.42 3.25 13 3.25Z" fill="#211B2A"/>
<path d="M11.5 11.3801C12.5383 11.3801 13.38 10.5384 13.38 9.50012C13.38 8.46182 12.5383 7.62012 11.5 7.62012C10.4617 7.62012 9.62 8.46182 9.62 9.50012C9.62 10.5384 10.4617 11.3801 11.5 11.3801Z" fill="#211B2A"/>
<path d="M21.65 6.16962C21.24 5.95962 20.38 5.71962 19.21 6.53962L17.73 7.57962C17.74 7.71962 17.75 7.84962 17.75 7.99962V15.9996C17.75 16.1496 17.73 16.2796 17.73 16.4196L19.21 17.4596C19.83 17.8996 20.37 18.0396 20.8 18.0396C21.17 18.0396 21.46 17.9396 21.65 17.8396C22.06 17.6296 22.75 17.0596 22.75 15.6296V8.37962C22.75 6.94962 22.06 6.37962 21.65 6.16962Z" fill="#211B2A"/>
</svg>
