<svg width="24" height="24" viewBox="0 0 24 24" fill="none" xmlns="http://www.w3.org/2000/svg">
<path d="M10.76 16.3703C10.34 16.3703 9.95 16.2703 9.6 16.0703C8.8 15.6103 8.34 14.6703 8.34 13.4803V10.5203C8.34 9.34029 8.8 8.39029 9.6 7.93029C10.4 7.47029 11.44 7.54029 12.47 8.14029L15.04 9.62029C16.06 10.2103 16.65 11.0803 16.65 12.0003C16.65 12.9203 16.06 13.7903 15.04 14.3803L12.47 15.8603C11.89 16.2003 11.3 16.3703 10.76 16.3703ZM10.77 9.13029C10.61 9.13029 10.47 9.16029 10.36 9.23029C10.04 9.42029 9.85 9.89029 9.85 10.5203V13.4803C9.85 14.1103 10.03 14.5803 10.36 14.7703C10.68 14.9603 11.18 14.8803 11.73 14.5603L14.3 13.0803C14.85 12.7603 15.16 12.3703 15.16 12.0003C15.16 11.6303 14.85 11.2303 14.3 10.9203L11.73 9.44029C11.37 9.23029 11.04 9.13029 10.77 9.13029Z" fill="#211B2A"/>
<path d="M12 22.75C6.07 22.75 1.25 17.93 1.25 12C1.25 6.07 6.07 1.25 12 1.25C17.93 1.25 22.75 6.07 22.75 12C22.75 17.93 17.93 22.75 12 22.75ZM12 2.75C6.9 2.75 2.75 6.9 2.75 12C2.75 17.1 6.9 21.25 12 21.25C17.1 21.25 21.25 17.1 21.25 12C21.25 6.9 17.1 2.75 12 2.75Z" fill="#211B2A"/>
</svg>
