<svg width="24" height="24" viewBox="0 0 24 24" fill="none" xmlns="http://www.w3.org/2000/svg">
<path d="M15 22.75H9C3.57 22.75 1.25 20.43 1.25 15V9C1.25 3.57 3.57 1.25 9 1.25H15C20.43 1.25 22.75 3.57 22.75 9V15C22.75 20.43 20.43 22.75 15 22.75ZM9 2.75C4.39 2.75 2.75 4.39 2.75 9V15C2.75 19.61 4.39 21.25 9 21.25H15C19.61 21.25 21.25 19.61 21.25 15V9C21.25 4.39 19.61 2.75 15 2.75H9Z" fill="#211B2A"/>
<path d="M6.89001 22.2295C6.48001 22.2295 6.14001 21.8895 6.14001 21.4795V2.51953C6.14001 2.10953 6.48001 1.76953 6.89001 1.76953C7.30001 1.76953 7.64001 2.09953 7.64001 2.51953V21.4795C7.64001 21.8995 7.30001 22.2295 6.89001 22.2295Z" fill="#211B2A"/>
<path d="M16.89 22.2295C16.48 22.2295 16.14 21.8895 16.14 21.4795V2.51953C16.14 2.10953 16.48 1.76953 16.89 1.76953C17.3 1.76953 17.64 2.10953 17.64 2.51953V21.4795C17.64 21.8995 17.3 22.2295 16.89 22.2295Z" fill="#211B2A"/>
<path d="M6.88998 7.71973H2.53998C2.12998 7.71973 1.78998 7.37973 1.78998 6.96973C1.78998 6.55973 2.12998 6.21973 2.53998 6.21973H6.88998C7.29998 6.21973 7.63998 6.55973 7.63998 6.96973C7.63998 7.37973 7.29998 7.71973 6.88998 7.71973Z" fill="#211B2A"/>
<path d="M6.89 12.75H2.03C1.62 12.75 1.28 12.41 1.28 12C1.28 11.59 1.62 11.25 2.03 11.25H6.89C7.3 11.25 7.64 11.59 7.64 12C7.64 12.41 7.3 12.75 6.89 12.75Z" fill="#211B2A"/>
<path d="M6.88998 17.7197H2.47998C2.06998 17.7197 1.72998 17.3797 1.72998 16.9697C1.72998 16.5597 2.06998 16.2197 2.47998 16.2197H6.88998C7.29998 16.2197 7.63998 16.5597 7.63998 16.9697C7.63998 17.3797 7.29998 17.7197 6.88998 17.7197Z" fill="#211B2A"/>
<path d="M21.89 7.71973H17.54C17.13 7.71973 16.79 7.37973 16.79 6.96973C16.79 6.55973 17.13 6.21973 17.54 6.21973H21.89C22.3 6.21973 22.64 6.55973 22.64 6.96973C22.64 7.37973 22.3 7.71973 21.89 7.71973Z" fill="#211B2A"/>
<path d="M21.89 12.75H17.03C16.62 12.75 16.28 12.41 16.28 12C16.28 11.59 16.62 11.25 17.03 11.25H21.89C22.3 11.25 22.64 11.59 22.64 12C22.64 12.41 22.3 12.75 21.89 12.75Z" fill="#211B2A"/>
<path d="M16.97 12.75H5.97C5.56 12.75 5.22 12.41 5.22 12C5.22 11.59 5.56 11.25 5.97 11.25H16.97C17.38 11.25 17.72 11.59 17.72 12C17.72 12.41 17.39 12.75 16.97 12.75Z" fill="#211B2A"/>
<path d="M21.89 17.7197H17.48C17.07 17.7197 16.73 17.3797 16.73 16.9697C16.73 16.5597 17.07 16.2197 17.48 16.2197H21.89C22.3 16.2197 22.64 16.5597 22.64 16.9697C22.64 17.3797 22.3 17.7197 21.89 17.7197Z" fill="#211B2A"/>
</svg>
