<svg width="24" height="24" viewBox="0 0 24 24" fill="none" xmlns="http://www.w3.org/2000/svg">
<path opacity="0.4" d="M17.74 7.57031C17.75 7.64031 17.75 7.72031 17.74 7.79031C17.74 7.72031 17.73 7.65031 17.73 7.58031L17.74 7.57031Z" fill="#211B2A"/>
<path d="M17.28 6.56L3.83 20.01C2.43 19.12 1.88 17.53 1.88 16V8C1.88 4.58 3.21 3.25 6.63 3.25H12.63C15.52 3.25 16.91 4.2 17.28 6.56Z" fill="#211B2A"/>
<path d="M21.4 2.22988C21.1 1.92988 20.61 1.92988 20.31 2.22988L1.85 20.6899C1.55 20.9899 1.55 21.4799 1.85 21.7799C2 21.9199 2.2 21.9999 2.39 21.9999C2.59 21.9999 2.78 21.9199 2.93 21.7699L21.4 3.30988C21.7 3.00988 21.7 2.52988 21.4 2.22988Z" fill="#211B2A"/>
<path d="M22.38 8.38047V15.6205C22.38 17.0505 21.68 17.6205 21.28 17.8305C21.09 17.9305 20.79 18.0405 20.42 18.0405C19.99 18.0405 19.46 17.9005 18.84 17.4605L17.36 16.4205C17.29 18.6305 16.59 19.8905 15 20.4205C14.36 20.6505 13.57 20.7505 12.62 20.7505H6.62C6.38 20.7505 6.15 20.7405 5.91 20.7105L15 11.6305L20.65 5.98047C20.91 6.00047 21.12 6.08047 21.28 6.17047C21.68 6.38047 22.38 6.95047 22.38 8.38047Z" fill="#211B2A"/>
</svg>
