<svg width="24" height="24" viewBox="0 0 24 24" fill="none" xmlns="http://www.w3.org/2000/svg">
<path d="M14.7303 5.86V2.5C14.7303 2.22 14.5103 2 14.2303 2H9.77026C9.49026 2 9.27026 2.22 9.27026 2.5V5.86C9.27026 6.14 9.49026 6.36 9.77026 6.36H14.2303C14.5103 6.36 14.7303 6.14 14.7303 5.86Z" fill="#211B2A"/>
<path d="M7.25022 2.01972C4.69022 2.17972 2.94022 3.49972 2.29022 5.69972C2.19022 6.02972 2.43022 6.35972 2.77022 6.35972H7.27022C7.55022 6.35972 7.77022 6.13972 7.77022 5.85972V2.51972C7.77022 2.23972 7.53022 1.99972 7.25022 2.01972Z" fill="#211B2A"/>
<path d="M16.7502 2.00996C19.3102 2.16996 21.0602 3.48996 21.7102 5.68996C21.8102 6.01996 21.5702 6.34996 21.2302 6.34996H16.7302C16.4502 6.34996 16.2302 6.12996 16.2302 5.84996V2.50996C16.2302 2.22996 16.4702 1.98996 16.7502 2.00996Z" fill="#211B2A"/>
<path d="M22.0002 15.7C22.0002 15.69 21.9902 15.68 21.9802 15.67C21.9402 15.61 21.8902 15.55 21.8402 15.5C21.8302 15.49 21.8202 15.47 21.8102 15.46C21.0002 14.56 19.8102 14 18.5002 14C17.2402 14 16.0902 14.52 15.2702 15.36C14.4802 16.17 14.0002 17.28 14.0002 18.5C14.0002 19.34 14.2402 20.14 14.6502 20.82C14.8702 21.19 15.1502 21.53 15.4702 21.81C15.4902 21.82 15.5002 21.83 15.5102 21.84C15.5602 21.89 15.6102 21.93 15.6702 21.98C15.6702 21.98 15.6702 21.98 15.6802 21.98C15.6902 21.99 15.7002 22 15.7102 22C16.4602 22.63 17.4302 23 18.5002 23C20.1402 23 21.5702 22.12 22.3502 20.82C22.5802 20.43 22.7602 20 22.8702 19.55C22.9602 19.21 23.0002 18.86 23.0002 18.5C23.0002 17.44 22.6302 16.46 22.0002 15.7ZM20.1802 19.23H19.2502V20.2C19.2502 20.61 18.9102 20.95 18.5002 20.95C18.0902 20.95 17.7502 20.61 17.7502 20.2V19.23H16.8202C16.4102 19.23 16.0702 18.89 16.0702 18.48C16.0702 18.07 16.4102 17.73 16.8202 17.73H17.7502V16.84C17.7502 16.43 18.0902 16.09 18.5002 16.09C18.9102 16.09 19.2502 16.43 19.2502 16.84V17.73H20.1802C20.5902 17.73 20.9302 18.07 20.9302 18.48C20.9302 18.89 20.6002 19.23 20.1802 19.23Z" fill="#211B2A"/>
<path d="M22.0002 8.36035V12.7404C22.0002 13.1104 21.6102 13.3504 21.2802 13.1804C20.4402 12.7404 19.4802 12.5004 18.5002 12.5004C16.8902 12.5004 15.3202 13.1604 14.2002 14.3104C13.1002 15.4304 12.5002 16.9204 12.5002 18.5004C12.5002 19.3104 12.8202 20.3504 13.2202 21.2204C13.3802 21.5704 13.1402 22.0004 12.7502 22.0004H7.81024C4.60024 22.0004 2.00024 19.4004 2.00024 16.1904V8.36035C2.00024 8.08035 2.22024 7.86035 2.50024 7.86035H21.5002C21.7802 7.86035 22.0002 8.08035 22.0002 8.36035Z" fill="#211B2A"/>
</svg>
