<svg width="24" height="24" viewBox="0 0 24 24" fill="none" xmlns="http://www.w3.org/2000/svg">
<path opacity="0.4" d="M17.65 6.56L4.2 20.01C2.8 19.12 2.25 17.53 2.25 16V8C2.25 4.58 3.58 3.25 7 3.25H13C15.89 3.25 17.29 4.2 17.65 6.56Z" fill="#211B2A"/>
<path opacity="0.4" d="M17.75 9.25V16C17.75 16.08 17.74 16.14 17.74 16.21C17.74 16.28 17.73 16.35 17.73 16.42H17.74C17.63 19.53 16.28 20.75 13 20.75H7C6.75 20.75 6.52 20.74 6.29 20.71L17.75 9.25Z" fill="#211B2A"/>
<path opacity="0.4" d="M17.73 16.42C17.73 16.35 17.74 16.28 17.74 16.21C17.75 16.28 17.75 16.35 17.74 16.42H17.73Z" fill="#211B2A"/>
<path opacity="0.4" d="M17.74 7.57031C17.75 7.64031 17.75 7.72031 17.74 7.79031C17.74 7.72031 17.73 7.65031 17.73 7.58031L17.74 7.57031Z" fill="#211B2A"/>
<path d="M22.75 8.38047V15.6205C22.75 17.0505 22.06 17.6205 21.65 17.8305C21.46 17.9305 21.17 18.0405 20.8 18.0405C20.37 18.0405 19.83 17.9005 19.21 17.4605L17.74 16.4205H17.73C17.73 16.3505 17.74 16.2805 17.74 16.2105C17.74 16.1405 17.75 16.0805 17.75 16.0005V9.25047L21.02 5.98047C21.29 6.00047 21.5 6.08047 21.65 6.17047C22.06 6.38047 22.75 6.95047 22.75 8.38047Z" fill="#211B2A"/>
<path d="M21.77 2.22988C21.47 1.92988 20.98 1.92988 20.68 2.22988L2.23 20.6899C1.93 20.9899 1.93 21.4799 2.23 21.7799C2.38 21.9199 2.57 21.9999 2.77 21.9999C2.97 21.9999 3.16 21.9199 3.31 21.7699L21.77 3.30988C22.08 3.00988 22.08 2.52988 21.77 2.22988Z" fill="#211B2A"/>
</svg>
