<svg width="24" height="24" viewBox="0 0 24 24" fill="none" xmlns="http://www.w3.org/2000/svg">
<path d="M11.25 7.86035H2V16.1904C2 16.2504 2 16.3104 2.01 16.3604H11.25V7.86035Z" fill="#211B2A"/>
<path d="M7.69 6.36H11.25V2H7.72V6.24C7.72 6.28 7.7 6.32 7.69 6.36Z" fill="#211B2A"/>
<path d="M6.22 6.24016V2.16016C4 2.62016 2.55 4.10016 2.13 6.36016H6.24C6.23 6.32016 6.22 6.28016 6.22 6.24016Z" fill="#211B2A"/>
<path d="M16.22 2H12.75V6.36H16.22V2Z" fill="#211B2A"/>
<path d="M17.71 6.36039H21.87C21.45 4.08039 19.98 2.59039 17.72 2.15039V6.33039C17.72 6.34039 17.71 6.35039 17.71 6.36039Z" fill="#211B2A"/>
<path d="M17.72 21.8504C19.91 21.4204 21.35 20.0204 21.82 17.8604H17.72V21.8504Z" fill="#211B2A"/>
<path d="M16.22 17.8604H12.75V22.0004H16.22V17.8604Z" fill="#211B2A"/>
<path d="M12.75 16.3604H21.99C22 16.3104 22 16.2504 22 16.1904V7.86035H12.75V16.3604Z" fill="#211B2A"/>
<path d="M11.25 17.8604H7.71997V22.0004H11.25V17.8604Z" fill="#211B2A"/>
<path d="M2.17999 17.8604C2.64999 20.0004 4.06999 21.4004 6.21999 21.8404V17.8604H2.17999Z" fill="#211B2A"/>
</svg>
