<svg width="24" height="24" viewBox="0 0 24 24" fill="none" xmlns="http://www.w3.org/2000/svg">
<path d="M6.36 7.78027H2V11.2503H6.36V7.78027Z" fill="#211B2A"/>
<path d="M6.35999 6.28988V2.12988C4.07999 2.54988 2.58999 4.01988 2.14999 6.27988H6.32999C6.33999 6.27988 6.34999 6.28988 6.35999 6.28988Z" fill="#211B2A"/>
<path d="M6.36 16.31V12.75H2V16.28H6.24C6.28 16.28 6.32 16.3 6.36 16.31Z" fill="#211B2A"/>
<path d="M21.85 6.27969C21.42 4.08969 20.02 2.64969 17.86 2.17969V6.27969H21.85Z" fill="#211B2A"/>
<path d="M16.36 11.25V2.01C16.31 2 16.25 2 16.19 2H7.86V11.25H16.36Z" fill="#211B2A"/>
<path d="M22 12.75H17.86V16.28H22V12.75Z" fill="#211B2A"/>
<path d="M17.86 21.8203C20 21.3503 21.4 19.9303 21.84 17.7803H17.86V21.8203Z" fill="#211B2A"/>
<path d="M6.24 17.7798H2.16C2.62 19.9998 4.1 21.4498 6.36 21.8698V17.7598C6.32 17.7698 6.28 17.7798 6.24 17.7798Z" fill="#211B2A"/>
<path d="M22 7.78027H17.86V11.2503H22V7.78027Z" fill="#211B2A"/>
<path d="M7.86 12.75V22H16.19C16.25 22 16.31 22 16.36 21.99V12.75H7.86Z" fill="#211B2A"/>
</svg>
