<svg width="24" height="24" viewBox="0 0 24 24" fill="none" xmlns="http://www.w3.org/2000/svg">
<path d="M13.88 20.5896C13.09 20.5896 12.22 20.3096 11.35 19.7596L8.43002 17.9296C8.23002 17.8096 8.00002 17.7396 7.77002 17.7396H6.33002C3.91002 17.7396 2.58002 16.4096 2.58002 13.9896V9.98962C2.58002 7.56962 3.91002 6.23962 6.33002 6.23962H7.76002C7.99002 6.23962 8.22002 6.16962 8.42002 6.04962L11.34 4.21962C12.8 3.30962 14.22 3.13962 15.34 3.75962C16.46 4.37962 17.07 5.66962 17.07 7.39962V16.5696C17.07 18.2896 16.45 19.5896 15.34 20.2096C14.9 20.4696 14.41 20.5896 13.88 20.5896ZM6.33002 7.74962C4.75002 7.74962 4.08002 8.41962 4.08002 9.99962V13.9996C4.08002 15.5796 4.75002 16.2496 6.33002 16.2496H7.76002C8.28002 16.2496 8.78002 16.3896 9.22002 16.6696L12.14 18.4996C13.11 19.0996 14.01 19.2596 14.62 18.9196C15.23 18.5796 15.58 17.7296 15.58 16.5996V7.40962C15.58 6.26962 15.23 5.41962 14.62 5.08962C14.01 4.74962 13.11 4.89962 12.14 5.50962L9.22002 7.32962C8.78002 7.60962 8.28002 7.74962 7.76002 7.74962H6.33002Z" fill="#211B2A"/>
<path d="M19.33 16.7503C19.17 16.7503 19.02 16.7003 18.88 16.6003C18.55 16.3503 18.48 15.8803 18.73 15.5503C20.3 13.4603 20.3 10.5403 18.73 8.45027C18.48 8.12027 18.55 7.65027 18.88 7.40027C19.21 7.15027 19.68 7.22027 19.93 7.55027C21.9 10.1703 21.9 13.8303 19.93 16.4503C19.79 16.6503 19.56 16.7503 19.33 16.7503Z" fill="#211B2A"/>
</svg>
