<svg width="24" height="24" viewBox="0 0 24 24" fill="none" xmlns="http://www.w3.org/2000/svg">
<path d="M18 16.7503C17.84 16.7503 17.69 16.7003 17.55 16.6003C17.22 16.3503 17.15 15.8803 17.4 15.5503C18.97 13.4603 18.97 10.5403 17.4 8.45027C17.15 8.12027 17.22 7.65027 17.55 7.40027C17.88 7.15027 18.35 7.22027 18.6 7.55027C20.56 10.1703 20.56 13.8303 18.6 16.4503C18.45 16.6503 18.23 16.7503 18 16.7503Z" fill="#211B2A"/>
<path d="M19.83 19.2503C19.67 19.2503 19.52 19.2003 19.38 19.1003C19.05 18.8503 18.98 18.3803 19.23 18.0503C21.9 14.4903 21.9 9.51027 19.23 5.95027C18.98 5.62027 19.05 5.15027 19.38 4.90027C19.71 4.65027 20.18 4.72027 20.43 5.05027C23.5 9.14027 23.5 14.8603 20.43 18.9503C20.29 19.1503 20.06 19.2503 19.83 19.2503Z" fill="#211B2A"/>
<path opacity="0.4" d="M15.75 7.40972V16.5897C15.75 18.3097 15.13 19.5997 14.02 20.2197C13.57 20.4697 13.07 20.5897 12.55 20.5897C11.75 20.5897 10.89 20.3197 10.01 19.7697L7.09 17.9397C6.89 17.8197 6.66 17.7497 6.43 17.7497H5.5V6.24972H6.43C6.66 6.24972 6.89 6.17972 7.09 6.05972L10.01 4.22972C11.47 3.31972 12.9 3.15972 14.02 3.77972C15.13 4.39972 15.75 5.68972 15.75 7.40972Z" fill="#211B2A"/>
<path d="M5.5 6.25V17.75H5C2.58 17.75 1.25 16.42 1.25 14V10C1.25 7.58 2.58 6.25 5 6.25H5.5Z" fill="#211B2A"/>
</svg>
