<svg width="24" height="24" viewBox="0 0 24 24" fill="none" xmlns="http://www.w3.org/2000/svg">
<path d="M19.33 16.7503C19.17 16.7503 19.02 16.7003 18.88 16.6003C18.55 16.3503 18.48 15.8803 18.73 15.5503C20.3 13.4603 20.3 10.5403 18.73 8.45027C18.48 8.12027 18.55 7.65027 18.88 7.40027C19.21 7.15027 19.68 7.22027 19.93 7.55027C21.9 10.1703 21.9 13.8303 19.93 16.4503C19.79 16.6503 19.56 16.7503 19.33 16.7503Z" fill="#211B2A"/>
<path opacity="0.4" d="M17.08 7.40972V16.5897C17.08 18.3097 16.46 19.5997 15.35 20.2197C14.9 20.4697 14.4 20.5897 13.88 20.5897C13.08 20.5897 12.22 20.3197 11.34 19.7697L8.42002 17.9397C8.22002 17.8197 7.99002 17.7497 7.76002 17.7497H6.83002V6.24972H7.76002C7.99002 6.24972 8.22002 6.17972 8.42002 6.05972L11.34 4.22972C12.8 3.31972 14.23 3.15972 15.35 3.77972C16.46 4.39972 17.08 5.68972 17.08 7.40972Z" fill="#211B2A"/>
<path d="M6.83 6.25V17.75H6.33C3.91 17.75 2.58 16.42 2.58 14V10C2.58 7.58 3.91 6.25 6.33 6.25H6.83Z" fill="#211B2A"/>
</svg>
