<svg width="24" height="24" viewBox="0 0 24 24" fill="none" xmlns="http://www.w3.org/2000/svg">
<path d="M18 16.7503C17.84 16.7503 17.69 16.7003 17.55 16.6003C17.22 16.3503 17.15 15.8803 17.4 15.5503C18.66 13.8703 18.93 11.6403 18.12 9.71032C17.96 9.33032 18.14 8.89032 18.52 8.73032C18.9 8.57032 19.34 8.75032 19.5 9.13032C20.52 11.5503 20.17 14.3603 18.6 16.4603C18.45 16.6503 18.23 16.7503 18 16.7503Z" fill="#211B2A"/>
<path d="M19.83 19.2502C19.67 19.2502 19.52 19.2002 19.38 19.1002C19.05 18.8502 18.98 18.3802 19.23 18.0502C21.37 15.2002 21.84 11.3802 20.46 8.0902C20.3 7.7102 20.48 7.2702 20.86 7.1102C21.24 6.9502 21.68 7.1302 21.84 7.5102C23.43 11.2902 22.89 15.6702 20.43 18.9502C20.29 19.1502 20.06 19.2502 19.83 19.2502Z" fill="#211B2A"/>
<path opacity="0.4" d="M14.04 12.96C14.67 12.33 15.75 12.78 15.75 13.67V16.6C15.75 18.32 15.13 19.61 14.02 20.23C13.57 20.48 13.07 20.6 12.55 20.6C11.75 20.6 10.89 20.33 10.01 19.78L9.37001 19.38C8.83001 19.04 8.74001 18.28 9.19001 17.83L14.04 12.96Z" fill="#211B2A"/>
<path opacity="0.4" d="M14.02 3.77972C12.9 3.15972 11.47 3.31972 10.01 4.22972L7.09 6.05972C6.89 6.17972 6.66 6.24972 6.43 6.24972H5.5H5C2.58 6.24972 1.25 7.57972 1.25 9.99972V13.9997C1.25 16.4197 2.58 17.7497 5 17.7497H5.5H6.25L15.75 8.24972V7.40972C15.75 5.68972 15.13 4.39972 14.02 3.77972Z" fill="#211B2A"/>
<path d="M21.77 2.22988C21.47 1.92988 20.98 1.92988 20.68 2.22988L2.23 20.6899C1.93 20.9899 1.93 21.4799 2.23 21.7799C2.38 21.9199 2.57 21.9999 2.77 21.9999C2.97 21.9999 3.16 21.9199 3.31 21.7699L21.77 3.30988C22.08 3.00988 22.08 2.52988 21.77 2.22988Z" fill="#211B2A"/>
</svg>
