<svg width="24" height="24" viewBox="0 0 24 24" fill="none" xmlns="http://www.w3.org/2000/svg">
<path d="M15.72 9.68953C17.78 11.7495 17.78 15.0795 15.72 17.1295C13.66 19.1895 10.33 19.1895 8.27999 17.1295C6.21999 15.0695 6.21999 11.7395 8.27999 9.68953C10.33 7.62953 13.67 7.62953 15.72 9.68953Z" stroke="#211B2A" stroke-width="1.5093" stroke-linecap="round" stroke-linejoin="round"/>
<path d="M12 13.4102L10.41 15.0002" stroke="#211B2A" stroke-width="1.5093" stroke-linecap="round" stroke-linejoin="round"/>
<path d="M19.0701 6.33973C19.2201 6.48973 19.2201 6.73972 19.0701 6.89972C18.9201 7.04972 18.6701 7.04972 18.5101 6.89972C18.3501 6.74972 18.3601 6.49973 18.5101 6.33973C18.6601 6.17973 18.9201 6.17973 19.0701 6.33973Z" stroke="#211B2A" stroke-miterlimit="10"/>
<path d="M19.0701 6.33973C19.2201 6.48973 19.2201 6.73972 19.0701 6.89972C18.9201 7.04972 18.6701 7.04972 18.5101 6.89972C18.3501 6.74972 18.3601 6.49973 18.5101 6.33973C18.6601 6.17973 18.9201 6.17973 19.0701 6.33973Z" stroke="#211B2A" stroke-width="1.5" stroke-linecap="round" stroke-linejoin="round"/>
<path d="M5.49 19.9198C5.64 20.0698 5.64 20.3198 5.49 20.4798C5.34 20.6398 5.09 20.6298 4.93 20.4798C4.78 20.3298 4.78 20.0798 4.93 19.9198C5.08 19.7598 5.34 19.7598 5.49 19.9198Z" stroke="#211B2A" stroke-miterlimit="10"/>
<path d="M5.49 19.9198C5.64 20.0698 5.64 20.3198 5.49 20.4798C5.34 20.6398 5.09 20.6298 4.93 20.4798C4.78 20.3298 4.78 20.0798 4.93 19.9198C5.08 19.7598 5.34 19.7598 5.49 19.9198Z" stroke="#211B2A" stroke-width="1.5" stroke-linecap="round" stroke-linejoin="round"/>
<path d="M21.88 13.1298C22.03 13.2798 22.03 13.5298 21.88 13.6898C21.73 13.8398 21.48 13.8398 21.32 13.6898C21.16 13.5398 21.17 13.2898 21.32 13.1298C21.47 12.9698 21.73 12.9698 21.88 13.1298Z" stroke="#211B2A" stroke-miterlimit="10"/>
<path d="M21.88 13.1298C22.03 13.2798 22.03 13.5298 21.88 13.6898C21.73 13.8398 21.48 13.8398 21.32 13.6898C21.16 13.5398 21.17 13.2898 21.32 13.1298C21.47 12.9698 21.73 12.9698 21.88 13.1298Z" stroke="#211B2A" stroke-width="1.5" stroke-linecap="round" stroke-linejoin="round"/>
<path d="M2.67009 13.1298C2.82009 13.2798 2.82009 13.5298 2.67009 13.6898C2.52009 13.8498 2.27006 13.8398 2.11006 13.6898C1.96006 13.5398 1.96006 13.2898 2.11006 13.1298C2.27006 12.9698 2.52009 12.9698 2.67009 13.1298Z" stroke="#211B2A" stroke-miterlimit="10"/>
<path d="M2.67009 13.1298C2.82009 13.2798 2.82009 13.5298 2.67009 13.6898C2.52009 13.8498 2.27006 13.8398 2.11006 13.6898C1.96006 13.5398 1.96006 13.2898 2.11006 13.1298C2.27006 12.9698 2.52009 12.9698 2.67009 13.1298Z" stroke="#211B2A" stroke-width="1.5" stroke-linecap="round" stroke-linejoin="round"/>
<path d="M19.0701 19.9198C19.2201 20.0698 19.2201 20.3198 19.0701 20.4798C18.9201 20.6298 18.6701 20.6298 18.5101 20.4798C18.3501 20.3298 18.3601 20.0798 18.5101 19.9198C18.6701 19.7598 18.9201 19.7598 19.0701 19.9198Z" stroke="#211B2A" stroke-miterlimit="10"/>
<path d="M19.0701 19.9198C19.2201 20.0698 19.2201 20.3198 19.0701 20.4798C18.9201 20.6298 18.6701 20.6298 18.5101 20.4798C18.3501 20.3298 18.3601 20.0798 18.5101 19.9198C18.6701 19.7598 18.9201 19.7598 19.0701 19.9198Z" stroke="#211B2A" stroke-width="1.5" stroke-linecap="round" stroke-linejoin="round"/>
<path d="M5.49 6.33973C5.64 6.48973 5.64 6.73972 5.49 6.89972C5.34 7.05972 5.09 7.04972 4.93 6.89972C4.78 6.74972 4.78 6.49973 4.93 6.33973C5.08 6.17973 5.34 6.17973 5.49 6.33973Z" stroke="#211B2A" stroke-miterlimit="10"/>
<path d="M5.49 6.33973C5.64 6.48973 5.64 6.73972 5.49 6.89972C5.34 7.05972 5.09 7.04972 4.93 6.89972C4.78 6.74972 4.78 6.49973 4.93 6.33973C5.08 6.17973 5.34 6.17973 5.49 6.33973Z" stroke="#211B2A" stroke-width="1.5" stroke-linecap="round" stroke-linejoin="round"/>
<path d="M12.28 3.5196C12.43 3.6696 12.43 3.9196 12.28 4.0796C12.13 4.2396 11.88 4.2296 11.72 4.0796C11.56 3.9296 11.57 3.6796 11.72 3.5196C11.87 3.3596 12.13 3.3696 12.28 3.5196Z" stroke="#211B2A" stroke-miterlimit="10"/>
<path d="M12.28 3.5196C12.43 3.6696 12.43 3.9196 12.28 4.0796C12.13 4.2396 11.88 4.2296 11.72 4.0796C11.56 3.9296 11.57 3.6796 11.72 3.5196C11.87 3.3596 12.13 3.3696 12.28 3.5196Z" stroke="#211B2A" stroke-width="1.5" stroke-linecap="round" stroke-linejoin="round"/>
</svg>
