<svg width="24" height="24" viewBox="0 0 24 24" fill="none" xmlns="http://www.w3.org/2000/svg">
<path d="M15.72 9.68953C13.67 7.62953 10.33 7.62953 8.27999 9.68953C6.21999 11.7495 6.21999 15.0795 8.27999 17.1295C10.34 19.1895 13.67 19.1895 15.72 17.1295C17.78 15.0695 17.78 11.7395 15.72 9.68953ZM12.53 13.9395L10.94 15.5296C10.79 15.6796 10.6 15.7495 10.41 15.7495C10.22 15.7495 10.02 15.6796 9.87999 15.5296C9.58999 15.2396 9.58999 14.7596 9.87999 14.4596L11.47 12.8695C11.76 12.5795 12.24 12.5795 12.54 12.8695C12.83 13.1695 12.83 13.6495 12.53 13.9395Z" fill="#211B2A"/>
<path opacity="0.4" d="M19.6001 5.80975C19.3801 5.58975 19.1001 5.46973 18.7901 5.46973C18.4801 5.46973 18.2001 5.58974 17.9801 5.79974C17.5301 6.24974 17.5301 6.96974 17.9801 7.41974C18.2001 7.63974 18.4801 7.75977 18.7901 7.75977C19.1001 7.75977 19.3801 7.63975 19.6001 7.42975C19.8201 7.20975 19.9401 6.92975 19.9401 6.61975C19.9401 6.30975 19.8201 6.01975 19.6001 5.80975Z" fill="#211B2A"/>
<path opacity="0.4" d="M6.02005 19.3898C5.80005 19.1698 5.52005 19.0498 5.21005 19.0498C4.90005 19.0498 4.62005 19.1698 4.40005 19.3798C4.18005 19.5998 4.06006 19.8798 4.06006 20.1898C4.06006 20.4998 4.18005 20.7798 4.40005 20.9998C4.62005 21.2198 4.92005 21.3298 5.21005 21.3298C5.50005 21.3298 5.80005 21.2198 6.02005 20.9898C6.46005 20.5598 6.46005 19.8298 6.02005 19.3898Z" fill="#211B2A"/>
<path opacity="0.4" d="M22.41 12.5997C22.2 12.3797 21.91 12.2698 21.6 12.2598C21.29 12.2598 21.01 12.3797 20.79 12.5997C20.34 13.0497 20.34 13.7697 20.79 14.2197C21.01 14.4397 21.31 14.5497 21.6 14.5497C21.89 14.5497 22.19 14.4397 22.41 14.2197C22.86 13.7697 22.86 13.0397 22.41 12.5997Z" fill="#211B2A"/>
<path opacity="0.4" d="M3.20994 12.6004C2.76994 12.1604 2.03994 12.1504 1.58994 12.6004C1.13994 13.0504 1.13994 13.7704 1.58994 14.2204C1.80994 14.4404 2.10994 14.5504 2.39994 14.5504C2.68994 14.5504 2.98994 14.4404 3.20994 14.2204C3.64994 13.7704 3.64994 13.0404 3.20994 12.6004Z" fill="#211B2A"/>
<path opacity="0.4" d="M19.6001 19.3902C19.1501 18.9402 18.4301 18.9402 17.9801 19.3902C17.5301 19.8402 17.5301 20.5602 17.9801 21.0102C18.2001 21.2302 18.5001 21.3402 18.7901 21.3402C19.0801 21.3402 19.3801 21.2302 19.6001 21.0102C19.8201 20.7902 19.9401 20.5002 19.9401 20.2002C19.9401 19.8902 19.8201 19.6002 19.6001 19.3902Z" fill="#211B2A"/>
<path opacity="0.4" d="M6.02005 5.80975C5.80005 5.58975 5.52005 5.46973 5.21005 5.46973C4.90005 5.46973 4.62005 5.58974 4.40005 5.79974C4.18005 6.01974 4.06006 6.29974 4.06006 6.60974C4.06006 6.91974 4.18008 7.19974 4.39008 7.41974C4.61008 7.63974 4.89007 7.75977 5.20007 7.75977C5.51007 7.75977 5.79007 7.63974 6.01007 7.41974C6.46007 6.97974 6.46005 6.24975 6.02005 5.80975Z" fill="#211B2A"/>
<path opacity="0.4" d="M12.81 2.99961C12.81 2.98961 12.81 2.98961 12.81 2.99961C12.36 2.54961 11.64 2.54961 11.19 2.99961C10.97 3.21961 10.85 3.50961 10.85 3.80961C10.85 4.11961 10.97 4.3996 11.18 4.6196C11.4 4.8396 11.68 4.95963 11.99 4.95963C12.3 4.95963 12.58 4.8396 12.8 4.6196C13.26 4.1696 13.26 3.43961 12.81 2.99961Z" fill="#211B2A"/>
</svg>
