<svg width="24" height="24" viewBox="0 0 24 24" fill="none" xmlns="http://www.w3.org/2000/svg">
<path d="M15.72 9.68953C13.67 7.62953 10.33 7.62953 8.27999 9.68953C6.21999 11.7495 6.21999 15.0795 8.27999 17.1295C10.34 19.1895 13.67 19.1895 15.72 17.1295C17.78 15.0695 17.78 11.7395 15.72 9.68953ZM12.53 13.9395L10.94 15.5295C10.79 15.6795 10.6 15.7495 10.41 15.7495C10.22 15.7495 10.02 15.6795 9.87999 15.5295C9.58999 15.2395 9.58999 14.7595 9.87999 14.4595L11.47 12.8695C11.76 12.5795 12.24 12.5795 12.54 12.8695C12.83 13.1695 12.83 13.6495 12.53 13.9395Z" fill="#211B2A"/>
<path d="M19.6001 5.80973C19.3801 5.58973 19.1001 5.46973 18.7901 5.46973C18.4801 5.46973 18.2001 5.58973 17.9801 5.79973C17.5301 6.24973 17.5301 6.96973 17.9801 7.41973C18.2001 7.63973 18.4801 7.75973 18.7901 7.75973C19.1001 7.75973 19.3801 7.63973 19.6001 7.42973C19.8201 7.20973 19.9401 6.92973 19.9401 6.61973C19.9401 6.30973 19.8201 6.01973 19.6001 5.80973Z" fill="#211B2A"/>
<path d="M6.02006 19.3898C5.80006 19.1698 5.52006 19.0498 5.21006 19.0498C4.90006 19.0498 4.62006 19.1698 4.40006 19.3798C4.18006 19.5998 4.06006 19.8798 4.06006 20.1898C4.06006 20.4998 4.18006 20.7798 4.40006 20.9998C4.62006 21.2198 4.92006 21.3298 5.21006 21.3298C5.50006 21.3298 5.80006 21.2198 6.02006 20.9898C6.46006 20.5598 6.46006 19.8298 6.02006 19.3898Z" fill="#211B2A"/>
<path d="M22.41 12.5998C22.2 12.3798 21.91 12.2698 21.6 12.2598C21.29 12.2598 21.01 12.3798 20.79 12.5998C20.34 13.0498 20.34 13.7698 20.79 14.2198C21.01 14.4398 21.31 14.5498 21.6 14.5498C21.89 14.5498 22.19 14.4398 22.41 14.2198C22.86 13.7698 22.86 13.0398 22.41 12.5998Z" fill="#211B2A"/>
<path d="M3.20994 12.6004C2.76994 12.1604 2.03994 12.1504 1.58994 12.6004C1.13994 13.0504 1.13994 13.7704 1.58994 14.2204C1.80994 14.4404 2.10994 14.5504 2.39994 14.5504C2.68994 14.5504 2.98994 14.4404 3.20994 14.2204C3.64994 13.7704 3.64994 13.0404 3.20994 12.6004Z" fill="#211B2A"/>
<path d="M19.6 19.3902C19.15 18.9402 18.43 18.9402 17.98 19.3902C17.53 19.8402 17.53 20.5602 17.98 21.0102C18.2 21.2302 18.5 21.3402 18.79 21.3402C19.08 21.3402 19.38 21.2302 19.6 21.0102C19.82 20.7902 19.94 20.5002 19.94 20.2002C19.94 19.8902 19.82 19.6002 19.6 19.3902Z" fill="#211B2A"/>
<path d="M6.02006 5.80973C5.80006 5.58973 5.52006 5.46973 5.21006 5.46973C4.90006 5.46973 4.62006 5.58973 4.40006 5.79973C4.18006 6.01973 4.06006 6.29973 4.06006 6.60973C4.06006 6.91973 4.18006 7.20973 4.40006 7.41973C4.62006 7.63973 4.90006 7.75973 5.21006 7.75973C5.52006 7.75973 5.80006 7.63973 6.02006 7.42973C6.46006 6.97973 6.46006 6.24973 6.02006 5.80973Z" fill="#211B2A"/>
<path d="M12.81 2.99961C12.81 2.98961 12.81 2.98961 12.81 2.99961C12.36 2.54961 11.64 2.54961 11.19 2.99961C10.97 3.21961 10.85 3.50961 10.85 3.80961C10.85 4.11961 10.97 4.39961 11.18 4.61961C11.4 4.83961 11.68 4.95961 11.99 4.95961C12.3 4.95961 12.58 4.83961 12.8 4.61961C13.26 4.16961 13.26 3.43961 12.81 2.99961Z" fill="#211B2A"/>
</svg>
