<svg width="24" height="24" viewBox="0 0 24 24" fill="none" xmlns="http://www.w3.org/2000/svg">
<path opacity="0.4" d="M18 18.8597H17.24C16.44 18.8597 15.68 19.1697 15.12 19.7297L13.41 21.4197C12.63 22.1897 11.36 22.1897 10.58 21.4197L8.87 19.7297C8.31 19.1697 7.54 18.8597 6.75 18.8597H6C4.34 18.8597 3 17.5298 3 15.8898V4.97974C3 3.33974 4.34 2.00977 6 2.00977H18C19.66 2.00977 21 3.33974 21 4.97974V15.8898C21 17.5198 19.66 18.8597 18 18.8597Z" fill="#211B2A"/>
<path d="M10.38 14.5109H7.69998C7.25998 14.5109 6.84998 14.3009 6.58998 13.9409C6.33998 13.6009 6.27998 13.1809 6.39998 12.7809C6.74998 11.7109 7.60998 11.1309 8.36998 10.6109C9.16998 10.0709 9.61998 9.73094 9.61998 9.15094C9.61998 8.63094 9.19998 8.21094 8.67998 8.21094C8.15998 8.21094 7.73999 8.63094 7.73999 9.15094C7.73999 9.56094 7.39999 9.90094 6.98999 9.90094C6.57999 9.90094 6.23999 9.56094 6.23999 9.15094C6.23999 7.81094 7.32998 6.71094 8.67998 6.71094C10.03 6.71094 11.12 7.80094 11.12 9.15094C11.12 10.5609 10.06 11.2809 9.20999 11.8609C8.67999 12.2209 8.17998 12.5609 7.92998 13.0109H10.37C10.78 13.0109 11.12 13.3509 11.12 13.7609C11.12 14.1709 10.79 14.5109 10.38 14.5109Z" fill="#211B2A"/>
<path d="M16.04 14.5109C15.63 14.5109 15.29 14.1709 15.29 13.7609V13.0709H13.33C13.33 13.0709 13.33 13.0709 13.32 13.0709C12.83 13.0709 12.38 12.8109 12.13 12.3909C11.88 11.9609 11.88 11.4309 12.13 11.0109C12.81 9.84092 13.6 8.51089 14.32 7.35089C14.64 6.84089 15.25 6.61093 15.82 6.77093C16.39 6.94093 16.79 7.46091 16.78 8.06091V11.5809H17C17.41 11.5809 17.75 11.9209 17.75 12.3309C17.75 12.7409 17.41 13.0809 17 13.0809H16.79V13.7709C16.79 14.1809 16.46 14.5109 16.04 14.5109ZM15.29 8.64093C14.7 9.60093 14.09 10.6309 13.54 11.5709H15.29V8.64093Z" fill="#211B2A"/>
</svg>
