<svg width="24" height="24" viewBox="0 0 24 24" fill="none" xmlns="http://www.w3.org/2000/svg">
<path d="M10.8 22.1004C10.51 22.1004 10.22 22.0504 9.94998 21.9504C8.69998 21.5404 7.89998 20.1604 8.17998 18.8804L8.66998 15.7304C8.67998 15.6604 8.67998 15.5604 8.60998 15.4804C8.55998 15.4304 8.48998 15.4004 8.40998 15.4004H4.40998C3.42998 15.4004 2.57998 14.9904 2.07998 14.2804C1.58998 13.5904 1.48998 12.6804 1.80998 11.8004L4.19998 4.52039C4.56998 3.07039 6.11998 1.90039 7.71998 1.90039H11.52C12.08 1.90039 13.3 2.07039 13.95 2.72039L16.98 5.06039L16.06 6.25039L12.96 3.85039C12.71 3.60039 12.08 3.40039 11.52 3.40039H7.71998C6.81998 3.40039 5.84998 4.12039 5.64998 4.93039L3.22998 12.2804C3.06998 12.7204 3.09998 13.1204 3.30998 13.4104C3.52998 13.7204 3.92998 13.9004 4.41998 13.9004H8.41998C8.93998 13.9004 9.41998 14.1204 9.74998 14.5004C10.09 14.8904 10.24 15.4104 10.16 15.9504L9.65998 19.1604C9.53998 19.7204 9.91998 20.3504 10.46 20.5304C10.94 20.7104 11.58 20.4504 11.8 20.1304L15.9 14.0304L17.14 14.8704L13.04 20.9704C12.57 21.6704 11.68 22.1004 10.8 22.1004Z" fill="#211B2A"/>
<path d="M19.62 18.1H18.62C16.77 18.1 15.87 17.23 15.87 15.45V5.65C15.87 3.87 16.77 3 18.62 3H19.62C21.47 3 22.37 3.87 22.37 5.65V15.45C22.37 17.23 21.47 18.1 19.62 18.1ZM18.62 4.5C17.53 4.5 17.37 4.76 17.37 5.65V15.45C17.37 16.34 17.53 16.6 18.62 16.6H19.62C20.71 16.6 20.87 16.34 20.87 15.45V5.65C20.87 4.76 20.71 4.5 19.62 4.5H18.62Z" fill="#211B2A"/>
</svg>
