<svg width="24" height="24" viewBox="0 0 24 24" fill="none" xmlns="http://www.w3.org/2000/svg">
<path opacity="0.4" d="M2.35002 13.9593C2.74002 14.5193 3.43002 14.8393 4.22002 14.8393H8.32002C8.59002 14.8393 8.84002 14.9493 9.01002 15.1493C9.19002 15.3493 9.26002 15.6293 9.22002 15.9193L8.71002 19.1993C8.49002 20.1793 9.14002 21.2793 10.12 21.6093C11.03 21.9493 12.1 21.4893 12.53 20.8393L16.74 14.5693L16.86 14.3693V5.5293L16.71 5.3793L13.54 2.9293C13.12 2.5093 12.17 2.2793 11.5 2.2793H7.60002C6.26002 2.2793 4.91002 3.2893 4.61002 4.5193L2.15002 12.0093C1.90002 12.7193 1.97002 13.4193 2.35002 13.9593Z" fill="#211B2A"/>
<path d="M18.79 17.6104H19.82C21.37 17.6104 22 17.0104 22 15.5304V5.48039C22 4.00039 21.37 3.40039 19.82 3.40039H18.79C17.24 3.40039 16.61 4.00039 16.61 5.48039V15.5404C16.61 17.0104 17.24 17.6104 18.79 17.6104Z" fill="#211B2A"/>
</svg>
