<svg width="24" height="24" viewBox="0 0 24 24" fill="none" xmlns="http://www.w3.org/2000/svg">
<path d="M20.68 13.9104V13.9004C19.8 12.9704 18.57 12.4004 17.2 12.4004C14.55 12.4004 12.4 14.5504 12.4 17.2004C12.4 18.4304 12.87 19.5504 13.63 20.4004C14.51 21.3804 15.78 22.0004 17.2 22.0004C19.85 22.0004 22 19.8504 22 17.2004C22 15.9304 21.5 14.7704 20.68 13.9104ZM18.99 18.0104H17.95V19.1004C17.95 19.5104 17.61 19.8504 17.2 19.8504C16.79 19.8504 16.45 19.5104 16.45 19.1004V18.0104H15.41C14.99 18.0104 14.66 17.6804 14.66 17.2604C14.66 16.8504 14.98 16.5204 15.4 16.5104H16.45V15.5104C16.45 15.4904 16.45 15.4704 16.46 15.4504C16.48 15.0704 16.81 14.7604 17.2 14.7604C17.6 14.7604 17.93 15.0804 17.95 15.4804V16.5104H18.99C19.41 16.5104 19.74 16.8504 19.74 17.2604C19.74 17.6804 19.41 18.0104 18.99 18.0104Z" fill="#211B2A"/>
<path d="M22 8.73062C22 9.92062 21.81 11.0206 21.48 12.0406C21.42 12.2506 21.17 12.3106 20.99 12.1806C19.9 11.3706 18.57 10.9406 17.2 10.9406C13.73 10.9406 10.9 13.7706 10.9 17.2406C10.9 18.3206 11.18 19.3806 11.71 20.3206C11.87 20.6006 11.68 20.9606 11.38 20.8506C8.97 20.0306 4.1 17.0406 2.52 12.0406C2.19 11.0206 2 9.92062 2 8.73062C2 5.64062 4.49 3.14063 7.56 3.14063C9.37 3.14063 10.99 4.02062 12 5.37062C13.01 4.02062 14.63 3.14063 16.44 3.14063C19.51 3.14062 22 5.64062 22 8.73062Z" fill="#211B2A"/>
</svg>
