<svg width="24" height="24" viewBox="0 0 24 24" fill="none" xmlns="http://www.w3.org/2000/svg">
<path d="M20.68 13.9104V13.9004C19.8 12.9704 18.57 12.4004 17.2 12.4004C14.55 12.4004 12.4 14.5504 12.4 17.2004C12.4 18.4304 12.87 19.5504 13.63 20.4004C14.51 21.3804 15.78 22.0004 17.2 22.0004C19.85 22.0004 22 19.8504 22 17.2004C22 15.9304 21.5 14.7704 20.68 13.9104ZM18.99 18.0104H17.95V19.1004C17.95 19.5104 17.61 19.8504 17.2 19.8504C16.79 19.8504 16.45 19.5104 16.45 19.1004V18.0104H15.41C14.99 18.0104 14.66 17.6804 14.66 17.2604C14.66 16.8504 14.98 16.5204 15.4 16.5104H16.45V15.5104C16.45 15.4904 16.45 15.4704 16.46 15.4504C16.48 15.0704 16.81 14.7604 17.2 14.7604C17.6 14.7604 17.93 15.0804 17.95 15.4804V16.5104H18.99C19.41 16.5104 19.74 16.8504 19.74 17.2604C19.74 17.6804 19.41 18.0104 18.99 18.0104Z" fill="#211B2A"/>
<path opacity="0.4" d="M22 8.68961C22 9.87961 21.81 10.9796 21.48 11.9996C21.27 12.6696 21 13.3096 20.68 13.8996C19.8 12.9696 18.57 12.3996 17.2 12.3996C14.55 12.3996 12.4 14.5496 12.4 17.1996C12.4 18.4296 12.87 19.5496 13.63 20.3996C13.26 20.5696 12.92 20.7096 12.62 20.8096C12.28 20.9296 11.72 20.9296 11.38 20.8096C8.97001 19.9896 4.10002 16.9996 2.52002 11.9996C2.19002 10.9796 2 9.87961 2 8.68961C2 5.59961 4.49 3.09961 7.56 3.09961C9.37 3.09961 10.99 3.97959 12 5.32959C13.01 3.97959 14.63 3.09961 16.44 3.09961C19.51 3.09961 22 5.59961 22 8.68961Z" fill="#211B2A"/>
</svg>
