<svg width="24" height="24" viewBox="0 0 24 24" fill="none" xmlns="http://www.w3.org/2000/svg">
<path opacity="0.4" d="M16.44 3.09961C14.63 3.09961 13.01 3.97959 12 5.32959C10.99 3.97959 9.37 3.09961 7.56 3.09961C4.49 3.09961 2 5.59961 2 8.68961C2 9.87961 2.19 10.9796 2.52 11.9996C4.1 16.9996 8.97 19.9896 11.38 20.8096C11.72 20.9296 12.28 20.9296 12.62 20.8096C15.03 19.9896 19.9 16.9996 21.48 11.9996C21.81 10.9796 22 9.87961 22 8.68961C22 5.59961 19.51 3.09961 16.44 3.09961Z" fill="#211B2A"/>
<path d="M14.84 9.15927C13.94 8.25927 13.23 8.54927 12.62 9.15927L9.08 12.6993C8.94 12.8393 8.81 13.0993 8.78 13.2893L8.59 14.6393C8.52 15.1293 8.86 15.4693 9.35 15.3993L10.7 15.2093C10.89 15.1793 11.16 15.0493 11.29 14.9093L14.83 11.3693C15.45 10.7693 15.74 10.0593 14.84 9.15927Z" fill="#211B2A"/>
</svg>
