<svg width="24" height="24" viewBox="0 0 24 24" fill="none" xmlns="http://www.w3.org/2000/svg">
<path d="M12 20.8995C11.78 20.8995 11.55 20.8695 11.38 20.8095C8.48 19.8195 2 15.6895 2 8.6795C2 7.2795 2.51 5.99953 3.36 5.01953" stroke="#211B2A" stroke-width="1.5" stroke-linecap="round" stroke-linejoin="round"/>
<path d="M21.49 11.9996C21.81 10.9796 22 9.87964 22 8.68964C22 5.59964 19.51 3.09961 16.44 3.09961C14.62 3.09961 13.01 3.97966 12 5.33966C10.99 3.97966 9.37 3.09961 7.56 3.09961" stroke="#211B2A" stroke-width="1.5" stroke-linecap="round" stroke-linejoin="round"/>
<path d="M17.74 20.9996C19.5073 20.9996 20.94 19.5669 20.94 17.7996C20.94 16.0323 19.5073 14.5996 17.74 14.5996C15.9727 14.5996 14.54 16.0323 14.54 17.7996C14.54 19.5669 15.9727 20.9996 17.74 20.9996Z" stroke="#211B2A" stroke-width="1.5" stroke-linecap="round" stroke-linejoin="round"/>
<path d="M21.54 21.5996L20.54 20.5996" stroke="#211B2A" stroke-width="1.5" stroke-linecap="round" stroke-linejoin="round"/>
</svg>
