<svg width="24" height="24" viewBox="0 0 24 24" fill="none" xmlns="http://www.w3.org/2000/svg">
<path opacity="0.4" d="M12 22C17.5228 22 22 17.5228 22 12C22 6.47715 17.5228 2 12 2C6.47715 2 2 6.47715 2 12C2 17.5228 6.47715 22 12 22Z" fill="#211B2A"/>
<path d="M12.33 16.9995C12.15 17.0595 11.84 17.0595 11.66 16.9995C10.1 16.4695 6.59998 14.2394 6.59998 10.4594C6.59998 8.78944 7.93998 7.43945 9.59998 7.43945C10.58 7.43945 11.45 7.90944 12 8.64944C12.54 7.91944 13.42 7.43945 14.4 7.43945C16.06 7.43945 17.4 8.78944 17.4 10.4594C17.4 14.2394 13.9 16.4695 12.33 16.9995Z" fill="#211B2A"/>
</svg>
