<svg width="24" height="24" viewBox="0 0 24 24" fill="none" xmlns="http://www.w3.org/2000/svg">
<path opacity="0.4" d="M22 8.6891C22 9.8791 21.81 10.9791 21.48 11.9991C19.9 16.9991 15.03 19.9891 12.62 20.8091C12.28 20.9291 11.72 20.9291 11.38 20.8091C10.74 20.5891 9.93 20.2191 9.06 19.6991C8.5 19.3691 8.41 18.5891 8.87 18.1291L20.15 6.8491C20.69 6.3091 21.64 6.5391 21.83 7.2791C21.94 7.7291 22 8.1991 22 8.6891Z" fill="#211B2A"/>
<path d="M22.53 1.46945C22.24 1.17945 21.7599 1.17945 21.4699 1.46945L19.13 3.80945C18.34 3.35945 17.42 3.09946 16.44 3.09946C14.63 3.09946 13.01 3.97944 12 5.32944C10.99 3.97944 9.36997 3.09946 7.55997 3.09946C4.48997 3.09946 1.99997 5.59945 1.99997 8.68945C1.99997 9.87945 2.18999 10.9795 2.51999 11.9995C3.16999 14.0695 4.38999 15.7995 5.76999 17.1695L1.46994 21.4695C1.17994 21.7595 1.17994 22.2395 1.46994 22.5295C1.61994 22.6795 1.80997 22.7495 1.99997 22.7495C2.18997 22.7495 2.38 22.6795 2.53 22.5295L22.53 2.52945C22.82 2.23945 22.82 1.75945 22.53 1.46945Z" fill="#211B2A"/>
</svg>
