<svg width="24" height="24" viewBox="0 0 24 24" fill="none" xmlns="http://www.w3.org/2000/svg">
<path d="M22 8.6891C22 9.8791 21.81 10.9791 21.48 11.9991C19.9 16.9991 15.03 19.9891 12.62 20.8091C12.28 20.9291 11.72 20.9291 11.38 20.8091C10.74 20.5891 9.93 20.2191 9.06 19.6991C8.5 19.3691 8.41 18.5891 8.87 18.1291L20.15 6.8491C20.69 6.3091 21.64 6.5391 21.83 7.2791C21.94 7.7291 22 8.1991 22 8.6891Z" fill="#211B2A"/>
<path d="M22.53 1.46945C22.24 1.17945 21.76 1.17945 21.47 1.46945L19.13 3.80945C18.34 3.35945 17.42 3.09945 16.44 3.09945C14.63 3.09945 13.01 3.97945 12 5.32945C10.99 3.97945 9.37 3.09945 7.56 3.09945C4.49 3.09945 2 5.59945 2 8.68945C2 9.87945 2.19 10.9795 2.52 11.9995C3.17 14.0695 4.39 15.7995 5.77 17.1695L1.47 21.4695C1.18 21.7595 1.18 22.2395 1.47 22.5295C1.62 22.6795 1.81 22.7495 2 22.7495C2.19 22.7495 2.38 22.6795 2.53 22.5295L22.53 2.52945C22.82 2.23945 22.82 1.75945 22.53 1.46945Z" fill="#211B2A"/>
</svg>
