<svg width="24" height="24" viewBox="0 0 24 24" fill="none" xmlns="http://www.w3.org/2000/svg">
<path d="M17.2 12.4004C14.55 12.4004 12.4 14.5504 12.4 17.2004C12.4 18.1004 12.65 18.9504 13.1 19.6704C13.93 21.0604 15.45 22.0004 17.2 22.0004C18.95 22.0004 20.48 21.0604 21.3 19.6704C21.74 18.9504 22 18.1004 22 17.2004C22 14.5504 19.85 12.4004 17.2 12.4004ZM19.58 16.5704L17.02 18.9304C16.88 19.0604 16.69 19.1304 16.51 19.1304C16.32 19.1304 16.13 19.0604 15.98 18.9104L14.8 17.7304C14.51 17.4404 14.51 16.9604 14.8 16.6704C15.09 16.3804 15.57 16.3804 15.86 16.6704L16.53 17.3404L18.56 15.4604C18.86 15.1804 19.34 15.2004 19.62 15.5004C19.9 15.8104 19.88 16.2904 19.58 16.5704Z" fill="#211B2A"/>
<path opacity="0.4" d="M22 8.68961C22 9.87961 21.81 10.9796 21.48 11.9996C21.27 12.6696 21 13.3096 20.68 13.8996C19.8 12.9696 18.57 12.3996 17.2 12.3996C14.55 12.3996 12.4 14.5496 12.4 17.1996C12.4 18.4296 12.87 19.5496 13.63 20.3996C13.26 20.5696 12.92 20.7096 12.62 20.8096C12.28 20.9296 11.72 20.9296 11.38 20.8096C8.97 19.9896 4.1 16.9996 2.52 11.9996C2.19 10.9796 2 9.87961 2 8.68961C2 5.59961 4.49 3.09961 7.56 3.09961C9.37 3.09961 10.99 3.97959 12 5.32959C13.01 3.97959 14.63 3.09961 16.44 3.09961C19.51 3.09961 22 5.59961 22 8.68961Z" fill="#211B2A"/>
</svg>
