<svg width="24" height="24" viewBox="0 0 24 24" fill="none" xmlns="http://www.w3.org/2000/svg">
<path d="M17.2 12.4004C14.55 12.4004 12.4 14.5504 12.4 17.2004C12.4 18.1004 12.65 18.9504 13.1 19.6704C13.93 21.0604 15.45 22.0004 17.2 22.0004C18.95 22.0004 20.48 21.0604 21.3 19.6704C21.74 18.9504 22 18.1004 22 17.2004C22 14.5504 19.85 12.4004 17.2 12.4004ZM19.58 16.5704L17.02 18.9304C16.88 19.0604 16.69 19.1304 16.51 19.1304C16.32 19.1304 16.13 19.0604 15.98 18.9104L14.8 17.7304C14.51 17.4404 14.51 16.9604 14.8 16.6704C15.09 16.3804 15.57 16.3804 15.86 16.6704L16.53 17.3404L18.56 15.4604C18.86 15.1804 19.34 15.2004 19.62 15.5004C19.9 15.8104 19.88 16.2904 19.58 16.5704Z" fill="#211B2A"/>
<path d="M22 8.73062C22 9.92062 21.81 11.0206 21.48 12.0406C21.42 12.2506 21.17 12.3106 20.99 12.1806C19.9 11.3706 18.57 10.9406 17.2 10.9406C13.73 10.9406 10.9 13.7706 10.9 17.2406C10.9 18.3206 11.18 19.3806 11.71 20.3206C11.87 20.6006 11.68 20.9606 11.38 20.8506C8.97 20.0306 4.1 17.0406 2.52 12.0406C2.19 11.0206 2 9.92062 2 8.73062C2 5.64062 4.49 3.14063 7.56 3.14063C9.37 3.14063 10.99 4.02062 12 5.37062C13.01 4.02062 14.63 3.14063 16.44 3.14063C19.51 3.14062 22 5.64062 22 8.73062Z" fill="#211B2A"/>
</svg>
