<svg width="24" height="24" viewBox="0 0 24 24" fill="none" xmlns="http://www.w3.org/2000/svg">
<path d="M20.69 13.9204C20.68 13.9204 20.68 13.9104 20.68 13.9104V13.9004C19.8 12.9804 18.57 12.4004 17.2 12.4004C14.55 12.4004 12.4 14.5504 12.4 17.2004C12.4 18.4304 12.87 19.5504 13.63 20.4004C14.51 21.3804 15.78 22.0004 17.2 22.0004C19.85 22.0004 22 19.8504 22 17.2004C22 15.9304 21.5 14.7804 20.69 13.9204ZM19.01 19.0704C18.87 19.2104 18.67 19.2904 18.48 19.2904C18.29 19.2904 18.1 19.2104 17.95 19.0704L17.21 18.3304L16.45 19.1004C16.3 19.2404 16.11 19.3204 15.92 19.3204C15.82 19.3204 15.73 19.3004 15.64 19.2604C15.55 19.2304 15.46 19.1704 15.39 19.1004C15.09 18.8004 15.09 18.3304 15.39 18.0404L16.15 17.2704L15.42 16.5304C15.12 16.2404 15.12 15.7604 15.42 15.4704C15.71 15.1804 16.18 15.1804 16.48 15.4704L17.21 16.2104L17.92 15.5004C18.22 15.2104 18.69 15.2104 18.98 15.5004C19.15 15.6704 19.22 15.8904 19.19 16.1104C19.18 16.2804 19.11 16.4404 18.98 16.5604L18.27 17.2704L19.01 18.0104C19.31 18.3004 19.31 18.7704 19.01 19.0704Z" fill="#211B2A"/>
<path d="M22 8.73062C22 9.92062 21.81 11.0206 21.48 12.0406C21.42 12.2506 21.17 12.3106 20.99 12.1806C19.9 11.3706 18.57 10.9406 17.2 10.9406C13.73 10.9406 10.9 13.7706 10.9 17.2406C10.9 18.3206 11.18 19.3806 11.71 20.3206C11.87 20.6006 11.68 20.9606 11.38 20.8506C8.97 20.0306 4.1 17.0406 2.52 12.0406C2.19 11.0206 2 9.92062 2 8.73062C2 5.64062 4.49 3.14063 7.56 3.14063C9.37 3.14063 10.99 4.02062 12 5.37062C13.01 4.02062 14.63 3.14063 16.44 3.14063C19.51 3.14062 22 5.64062 22 8.73062Z" fill="#211B2A"/>
</svg>
