<svg width="24" height="24" viewBox="0 0 24 24" fill="none" xmlns="http://www.w3.org/2000/svg">
<path opacity="0.4" d="M13.15 15.3708C12.93 15.0508 12.54 14.8708 12.09 14.8708H9.76C9.61 14.8708 9.46 14.8108 9.37 14.6908C9.27 14.5708 9.23 14.4208 9.25 14.2508L9.54 12.3908C9.66 11.8408 9.29 11.2109 8.74 11.0209C8.22 10.8309 7.62 11.0909 7.37 11.4609L4.98 15.0108L4.91 15.1308V20.1509L5 20.2408L6.8 21.6308C7.04 21.8708 7.58 22.0008 7.96 22.0008H10.17C10.93 22.0008 11.69 21.4308 11.87 20.7308L13.27 16.4808C13.41 16.0708 13.37 15.6808 13.15 15.3708Z" fill="#211B2A"/>
<path d="M3.82 13.3008H3.24C2.36 13.3008 2 13.6408 2 14.4808V20.1908C2 21.0308 2.36 21.3708 3.24 21.3708H3.82C4.7 21.3708 5.06 21.0308 5.06 20.1908V14.4808C5.06 13.6408 4.7 13.3008 3.82 13.3008Z" fill="#211B2A"/>
<path opacity="0.4" d="M11.2 8.60071C11.42 8.92071 11.81 9.10071 12.26 9.10071H14.59C14.74 9.10071 14.89 9.16076 14.98 9.28076C15.08 9.40076 15.12 9.5507 15.1 9.7207L14.81 11.5807C14.69 12.1307 15.06 12.7607 15.61 12.9507C16.13 13.1407 16.73 12.8807 16.98 12.5107L19.37 8.96075L19.44 8.84076V3.82074L19.35 3.73071L17.55 2.34076C17.31 2.10076 16.77 1.9707 16.39 1.9707H14.18C13.42 1.9707 12.66 2.54072 12.48 3.24072L11.08 7.49072C10.94 7.89072 10.98 8.29071 11.2 8.60071Z" fill="#211B2A"/>
<path d="M20.53 10.6716H21.11C21.99 10.6716 22.35 10.3316 22.35 9.49158V3.78162C22.35 2.94162 21.99 2.60156 21.11 2.60156H20.53C19.65 2.60156 19.29 2.94162 19.29 3.78162V9.49158C19.29 10.3316 19.65 10.6716 20.53 10.6716Z" fill="#211B2A"/>
</svg>
