<svg width="24" height="24" viewBox="0 0 24 24" fill="none" xmlns="http://www.w3.org/2000/svg">
<path opacity="0.4" d="M10.75 2.45031C11.44 1.86031 12.57 1.86031 13.27 2.45031L14.85 3.8103C15.15 4.0703 15.71 4.28033 16.11 4.28033H17.81C18.87 4.28033 19.74 5.15032 19.74 6.21032V7.91027C19.74 8.30027 19.95 8.87028 20.21 9.17028L21.57 10.7503C22.16 11.4403 22.16 12.5703 21.57 13.2703L20.21 14.8503C19.95 15.1503 19.74 15.7103 19.74 16.1103V17.8103C19.74 18.8703 18.87 19.7403 17.81 19.7403H16.11C15.72 19.7403 15.15 19.9503 14.85 20.2103L13.27 21.5703C12.58 22.1603 11.45 22.1603 10.75 21.5703L9.17002 20.2103C8.87002 19.9503 8.31001 19.7403 7.91001 19.7403H6.18C5.12 19.7403 4.25 18.8703 4.25 17.8103V16.1003C4.25 15.7103 4.04001 15.1503 3.79001 14.8503L2.44 13.2603C1.86 12.5703 1.86 11.4503 2.44 10.7603L3.79001 9.17028C4.04001 8.87028 4.25 8.31028 4.25 7.92028V6.21032C4.25 5.15032 5.12 4.28033 6.18 4.28033H7.91001C8.30001 4.28033 8.87002 4.0703 9.17002 3.8103L10.75 2.45031Z" fill="#211B2A"/>
<path d="M16.58 11.0707C16.39 10.8007 16.07 10.6507 15.69 10.6507H13.74C13.61 10.6507 13.49 10.6007 13.41 10.5007C13.33 10.4007 13.29 10.2707 13.31 10.1307L13.55 8.57072C13.65 8.11072 13.34 7.5807 12.88 7.4307C12.45 7.2707 11.94 7.49069 11.74 7.79069L9.79996 10.6707V10.3107C9.79996 9.61071 9.49998 9.32072 8.75998 9.32072H8.26996C7.52996 9.32072 7.22998 9.61071 7.22998 10.3107V15.0907C7.22998 15.7907 7.52996 16.0807 8.26996 16.0807H8.75998C9.45998 16.0807 9.75998 15.8107 9.78998 15.1707L11.26 16.3007C11.46 16.5007 11.91 16.6107 12.23 16.6107H14.08C14.72 16.6107 15.36 16.1307 15.5 15.5407L16.67 11.9807C16.8 11.6607 16.77 11.3307 16.58 11.0707Z" fill="#211B2A"/>
</svg>
