<svg width="24" height="24" viewBox="0 0 24 24" fill="none" xmlns="http://www.w3.org/2000/svg">
<path d="M21.56 10.7405L20.2 9.16055C19.94 8.86055 19.73 8.30055 19.73 7.90055V6.20055C19.73 5.14055 18.86 4.27055 17.8 4.27055H16.1C15.71 4.27055 15.14 4.06055 14.84 3.80055L13.26 2.44055C12.57 1.85055 11.44 1.85055 10.74 2.44055L9.17 3.81055C8.87 4.06055 8.3 4.27055 7.91 4.27055H6.18C5.12 4.27055 4.25 5.14055 4.25 6.20055V7.91055C4.25 8.30055 4.04 8.86055 3.79 9.16055L2.44 10.7505C1.86 11.4405 1.86 12.5605 2.44 13.2505L3.79 14.8405C4.04 15.1405 4.25 15.7005 4.25 16.0905V17.8005C4.25 18.8605 5.12 19.7305 6.18 19.7305H7.91C8.3 19.7305 8.87 19.9405 9.17 20.2005L10.75 21.5605C11.44 22.1505 12.57 22.1505 13.27 21.5605L14.85 20.2005C15.15 19.9405 15.71 19.7305 16.11 19.7305H17.81C18.87 19.7305 19.74 18.8605 19.74 17.8005V16.1005C19.74 15.7105 19.95 15.1405 20.21 14.8405L21.57 13.2605C22.15 12.5705 22.15 11.4305 21.56 10.7405ZM16.68 12.0005L15.51 15.5605C15.36 16.1505 14.73 16.6305 14.09 16.6305H12.24C11.92 16.6305 11.47 16.5205 11.27 16.3205L9.8 15.1705C9.77 15.8105 9.48001 16.0805 8.77001 16.0805H8.29C7.55 16.0805 7.25 15.7905 7.25 15.0905V10.3105C7.25 9.61055 7.55 9.32055 8.29 9.32055H8.78C9.52 9.32055 9.82 9.61055 9.82 10.3105V10.6705L11.76 7.79055C11.96 7.48055 12.47 7.26055 12.9 7.43055C13.37 7.59055 13.67 8.11055 13.57 8.57055L13.33 10.1305C13.31 10.2705 13.34 10.4005 13.43 10.5005C13.51 10.5905 13.63 10.6505 13.76 10.6505H15.71C16.09 10.6505 16.41 10.8005 16.6 11.0705C16.77 11.3305 16.8 11.6605 16.68 12.0005Z" fill="#211B2A"/>
</svg>
