<svg width="24" height="24" viewBox="0 0 24 24" fill="none" xmlns="http://www.w3.org/2000/svg">
<path d="M4.91998 20.2804L6.68999 21.6504C6.91999 21.8804 7.42998 21.9903 7.77998 21.9903H9.94998C10.64 21.9903 11.38 21.4804 11.55 20.7904L12.92 16.6203C13.21 15.8203 12.69 15.1303 11.83 15.1303H9.53999C9.19999 15.1303 8.90999 14.8403 8.96999 14.4403L9.25999 12.6103C9.36999 12.1003 9.02998 11.5203 8.51998 11.3503C8.05998 11.1803 7.48999 11.4103 7.25999 11.7503L4.91998 15.2403" stroke="#211B2A" stroke-width="1.5" stroke-miterlimit="10"/>
<path d="M2 20.2799V14.6799C2 13.8799 2.34 13.5898 3.14 13.5898H3.71C4.51 13.5898 4.85 13.8799 4.85 14.6799V20.2799C4.85 21.0799 4.51 21.3699 3.71 21.3699H3.14C2.34 21.3699 2 21.0899 2 20.2799Z" stroke="#211B2A" stroke-width="1.5" stroke-linecap="round" stroke-linejoin="round"/>
<path d="M19.08 3.71973L17.31 2.34973C17.08 2.11973 16.57 2.00977 16.22 2.00977H14.05C13.36 2.00977 12.62 2.51972 12.45 3.20972L11.08 7.37976C10.79 8.17976 11.31 8.86975 12.17 8.86975H14.46C14.8 8.86975 15.09 9.15981 15.03 9.55981L14.74 11.3898C14.63 11.8998 14.97 12.4798 15.48 12.6498C15.94 12.8198 16.51 12.5898 16.74 12.2498L19.08 8.75977" stroke="#211B2A" stroke-width="1.5" stroke-miterlimit="10"/>
<path d="M22 3.71887V9.31885C22 10.1188 21.66 10.4089 20.86 10.4089H20.29C19.49 10.4089 19.15 10.1188 19.15 9.31885V3.71887C19.15 2.91887 19.49 2.62891 20.29 2.62891H20.86C21.66 2.62891 22 2.90887 22 3.71887Z" stroke="#211B2A" stroke-width="1.5" stroke-linecap="round" stroke-linejoin="round"/>
</svg>
