<svg width="24" height="24" viewBox="0 0 24 24" fill="none" xmlns="http://www.w3.org/2000/svg">
<path d="M17.29 4.14096L17.22 7.93095C17.21 8.45095 17.54 9.14096 17.96 9.45096L20.44 11.331C22.03 12.531 21.77 14.001 19.87 14.601L16.64 15.611C16.1 15.781 15.53 16.371 15.39 16.921L14.62 19.861C14.01 22.181 12.49 22.411 11.23 20.371L9.46999 17.521C9.14999 17.001 8.39 16.611 7.79 16.641L4.45003 16.811C2.06003 16.931 1.38002 15.551 2.94002 13.731L4.92 11.431C5.29 11.001 5.46 10.201 5.29 9.66096L4.28005 6.43095C3.69005 4.53095 4.75004 3.48097 6.64004 4.10097L9.59005 5.07097C10.09 5.23097 10.84 5.12096 11.26 4.81096L14.34 2.59096C16 1.39096 17.33 2.09096 17.29 4.14096Z" fill="#211B2A"/>
<path opacity="0.4" d="M21.44 20.4702L18.4099 17.4402C18.1199 17.1502 17.6399 17.1502 17.3499 17.4402C17.0599 17.7302 17.0599 18.2102 17.3499 18.5002L20.38 21.5302C20.53 21.6802 20.7199 21.7502 20.9099 21.7502C21.0999 21.7502 21.29 21.6802 21.44 21.5302C21.73 21.2402 21.73 20.7602 21.44 20.4702Z" fill="#211B2A"/>
</svg>
