<svg width="24" height="24" viewBox="0 0 24 24" fill="none" xmlns="http://www.w3.org/2000/svg">
<path opacity="0.4" d="M17 18.4297H13L8.54999 21.3897C7.88999 21.8297 7 21.3597 7 20.5597V18.4297C4 18.4297 2 16.4297 2 13.4297V7.42969C2 4.42969 4 2.42969 7 2.42969H17C20 2.42969 22 4.42969 22 7.42969V13.4297C22 16.4297 20 18.4297 17 18.4297Z" fill="#211B2A"/>
<path d="M12.0001 12.1094C11.5901 12.1094 11.2501 11.7694 11.2501 11.3594V11.1494C11.2501 9.98941 12.1 9.4194 12.42 9.1994C12.79 8.9494 12.91 8.77941 12.91 8.51941C12.91 8.01941 12.5001 7.60938 12.0001 7.60938C11.5001 7.60938 11.0901 8.01941 11.0901 8.51941C11.0901 8.92941 10.7501 9.26941 10.3401 9.26941C9.93009 9.26941 9.59009 8.92941 9.59009 8.51941C9.59009 7.18941 10.6701 6.10938 12.0001 6.10938C13.3301 6.10938 14.41 7.18941 14.41 8.51941C14.41 9.65941 13.5701 10.2294 13.2601 10.4394C12.8701 10.6994 12.7501 10.8694 12.7501 11.1494V11.3594C12.7501 11.7794 12.4101 12.1094 12.0001 12.1094Z" fill="#211B2A"/>
<path d="M12 14.5996C11.58 14.5996 11.25 14.2596 11.25 13.8496C11.25 13.4396 11.59 13.0996 12 13.0996C12.41 13.0996 12.75 13.4396 12.75 13.8496C12.75 14.2596 12.42 14.5996 12 14.5996Z" fill="#211B2A"/>
</svg>
