<svg width="24" height="24" viewBox="0 0 24 24" fill="none" xmlns="http://www.w3.org/2000/svg">
<path d="M13.3 8.11032L14.62 10.7503C14.8 11.1103 15.28 11.4703 15.68 11.5303L18.07 11.9303C19.6 12.1903 19.96 13.2903 18.86 14.3903L17 16.2603C16.69 16.5703 16.51 17.1803 16.61 17.6203L17.14 19.9303C17.56 21.7503 16.59 22.4603 14.98 21.5103L12.74 20.1803C12.33 19.9403 11.67 19.9403 11.26 20.1803L9.01 21.5003C7.4 22.4503 6.43 21.7403 6.85 19.9203L7.38 17.6103C7.48 17.1803 7.3 16.5703 6.99 16.2503L5.14 14.4003C4.04 13.3003 4.4 12.1903 5.93 11.9403L8.32 11.5403C8.72 11.4703 9.2 11.1203 9.38 10.7603L10.7 8.12032C11.41 6.68032 12.59 6.68032 13.3 8.11032Z" fill="#211B2A"/>
<path d="M6 9.75C5.59 9.75 5.25 9.41 5.25 9V2C5.25 1.59 5.59 1.25 6 1.25C6.41 1.25 6.75 1.59 6.75 2V9C6.75 9.41 6.41 9.75 6 9.75Z" fill="#211B2A"/>
<path d="M18 9.75C17.59 9.75 17.25 9.41 17.25 9V2C17.25 1.59 17.59 1.25 18 1.25C18.41 1.25 18.75 1.59 18.75 2V9C18.75 9.41 18.41 9.75 18 9.75Z" fill="#211B2A"/>
<path d="M12 4.75C11.59 4.75 11.25 4.41 11.25 4V2C11.25 1.59 11.59 1.25 12 1.25C12.41 1.25 12.75 1.59 12.75 2V4C12.75 4.41 12.41 4.75 12 4.75Z" fill="#211B2A"/>
</svg>
