<svg width="24" height="24" viewBox="0 0 24 24" fill="none" xmlns="http://www.w3.org/2000/svg">
<path d="M16.06 21.9096C15.75 21.8696 15.39 21.7396 14.99 21.4996L12.75 20.1696C12.34 19.9296 11.68 19.9296 11.27 20.1696L9.02998 21.4996C7.41998 22.4496 6.44998 21.7396 6.86998 19.9196L7.39998 17.6096C7.49998 17.1796 7.32 16.5696 7.01 16.2496L5.14998 14.3896C4.04998 13.2896 4.40999 12.1796 5.93999 11.9296L8.32997 11.5296C8.72997 11.4596 9.21 11.1096 9.39 10.7496L10.71 8.10961C11.43 6.67961 12.6 6.67961 13.31 8.10961L14.63 10.7496C14.81 11.1096 15.29 11.4696 15.69 11.5296L18.08 11.9296C19.61 12.1896 19.97 13.2896 18.87 14.3896L17.01 16.2496C16.7 16.5596 16.52 17.1696 16.62 17.6096" stroke="#211B2A" stroke-width="1.5" stroke-linecap="round" stroke-linejoin="round"/>
<path d="M6 9V2" stroke="#211B2A" stroke-width="1.5" stroke-linecap="round" stroke-linejoin="round"/>
<path d="M18 9V2" stroke="#211B2A" stroke-width="1.5" stroke-linecap="round" stroke-linejoin="round"/>
<path d="M12 4V2" stroke="#211B2A" stroke-width="1.5" stroke-linecap="round" stroke-linejoin="round"/>
</svg>
