<svg width="24" height="24" viewBox="0 0 24 24" fill="none" xmlns="http://www.w3.org/2000/svg">
<path opacity="0.4" d="M14 5V10H13C11.35 10 10 11.35 10 13V14H5C3.34 14 2 12.66 2 11V5C2 3.34 3.34 2 5 2H11C12.66 2 14 3.34 14 5Z" fill="#211B2A"/>
<path d="M5.2 6.63063C4.97 6.63063 4.73 6.52062 4.59 6.31062C4.35 5.97062 4.43 5.50063 4.77 5.26063C5.55 4.71063 6.6 4.70061 7.39 5.24061C7.73 5.47061 7.82 5.94065 7.59 6.28065C7.36 6.62065 6.89 6.71061 6.55 6.48061C6.28 6.30061 5.92001 6.30061 5.65001 6.49061C5.50001 6.59061 5.35 6.63063 5.2 6.63063Z" fill="#211B2A"/>
<path d="M9.2 6.63063C8.97 6.63063 8.73 6.52062 8.59 6.31062C8.35 5.97062 8.43 5.50063 8.77 5.26063C9.55 4.71063 10.6 4.70061 11.39 5.24061C11.73 5.47061 11.82 5.94065 11.59 6.28065C11.36 6.62065 10.89 6.71061 10.55 6.48061C10.28 6.30061 9.92001 6.30061 9.65001 6.49061C9.50001 6.59061 9.35 6.63063 9.2 6.63063Z" fill="#211B2A"/>
<path d="M8.15999 12.1697H5.83999C5.12999 12.1697 4.54999 11.5897 4.54999 10.8797C4.54999 8.9797 6.09999 7.42969 7.99999 7.42969C8.77999 7.42969 9.54999 7.6997 10.16 8.1897C10.48 8.4497 10.54 8.91969 10.28 9.23969C10.02 9.55968 9.54999 9.61968 9.22999 9.35968C8.87999 9.07968 8.45999 8.92969 8.00999 8.92969C7.00999 8.92969 6.17999 9.68968 6.06999 10.6697H8.16999C8.57999 10.6697 8.91999 11.0097 8.91999 11.4197C8.91999 11.8297 8.56999 12.1697 8.15999 12.1697Z" fill="#211B2A"/>
<path d="M18.22 16.6805C18.15 16.6005 18.05 16.5605 17.94 16.5605H14.06C13.95 16.5605 13.85 16.6005 13.78 16.6805C13.71 16.7605 13.67 16.8705 13.69 16.9705C13.82 18.1505 14.81 19.0505 16 19.0505C17.19 19.0505 18.18 18.1605 18.31 16.9705C18.32 16.8605 18.29 16.7605 18.22 16.6805Z" fill="#211B2A"/>
<path d="M19 10H13C11.35 10 10 11.35 10 13V19C10 20.65 11.35 22 13 22H19C20.65 22 22 20.65 22 19V13C22 11.35 20.65 10 19 10ZM12.59 13.17C12.83 12.83 13.3 12.75 13.64 12.99C13.91 13.18 14.27 13.18 14.54 13C14.88 12.76 15.35 12.85 15.58 13.2C15.81 13.54 15.73 14.01 15.38 14.24C14.99 14.5 14.54 14.64 14.09 14.64C13.62 14.64 13.16 14.5 12.77 14.22C12.43 13.97 12.35 13.5 12.59 13.17ZM16 20.17C14.1 20.17 12.55 18.62 12.55 16.72C12.55 16.01 13.13 15.43 13.84 15.43H18.16C18.87 15.43 19.45 16.01 19.45 16.72C19.45 18.62 17.9 20.17 16 20.17ZM19.38 14.23C18.99 14.49 18.54 14.63 18.09 14.63C17.62 14.63 17.16 14.49 16.77 14.21C16.43 13.97 16.35 13.5 16.59 13.16C16.83 12.82 17.3 12.74 17.64 12.98C17.91 13.17 18.27 13.17 18.54 12.99C18.88 12.75 19.35 12.84 19.58 13.19C19.81 13.54 19.72 14 19.38 14.23Z" fill="#211B2A"/>
</svg>
