<svg width="24" height="24" viewBox="0 0 24 24" fill="none" xmlns="http://www.w3.org/2000/svg">
<path opacity="0.4" d="M18.7 14.4592C18.35 14.8092 18.15 15.5192 18.26 15.9992L18.95 19.0092C19.24 20.2592 19.06 21.1992 18.44 21.6492C18.19 21.8292 17.89 21.9192 17.54 21.9192C17.03 21.9192 16.43 21.7292 15.77 21.3392L12.84 19.5992C12.39 19.3292 11.61 19.3292 11.16 19.5992L8.23001 21.3392C7.12001 21.9892 6.17001 22.0992 5.56001 21.6492C5.52001 21.6192 5.48001 21.5892 5.45001 21.5492L18.8 8.19922L19.97 8.39922C21.03 8.57922 21.74 9.05922 21.97 9.75922C22.19 10.4592 21.89 11.2692 21.13 12.0292L18.7 14.4592Z" fill="#211B2A"/>
<path opacity="0.4" d="M5.73998 16C5.84998 15.52 5.64998 14.81 5.29998 14.46L2.86998 12.03C2.10998 11.27 1.80998 10.46 2.02998 9.76C2.25998 9.06 2.96998 8.58 4.02998 8.4L7.14998 7.88C7.59998 7.8 8.14998 7.4 8.35998 6.99L10.08 3.54C10.58 2.55 11.26 2 12 2C12.74 2 13.42 2.55 13.92 3.54L15.64 6.99C15.77 7.25 16.04 7.5 16.33 7.67L5.06998 18.93L5.73998 16Z" fill="#211B2A"/>
<path d="M21.77 2.23086C21.47 1.93086 20.98 1.93086 20.68 2.23086L2.23 20.6909C1.93 20.9909 1.93 21.4809 2.23 21.7809C2.38 21.9209 2.57 22.0009 2.77 22.0009C2.97 22.0009 3.16 21.9209 3.31 21.7709L21.77 3.31086C22.08 3.01086 22.08 2.53086 21.77 2.23086Z" fill="#211B2A"/>
</svg>
