<svg width="24" height="24" viewBox="0 0 24 24" fill="none" xmlns="http://www.w3.org/2000/svg">
<path d="M15.39 5.2093L16.8 8.0293C16.99 8.4193 17.5 8.7893 17.93 8.8693L20.48 9.2893C22.11 9.5593 22.49 10.7393 21.32 11.9193L19.33 13.9093C19 14.2393 18.81 14.8893 18.92 15.3593L19.49 17.8193C19.94 19.7593 18.9 20.5193 17.19 19.4993L14.8 18.0793C14.37 17.8193 13.65 17.8193 13.22 18.0793L10.83 19.4993C9.12 20.5093 8.08 19.7593 8.53 17.8193L9.1 15.3593C9.19 14.8793 9 14.2293 8.67 13.8993L6.68 11.9093C5.51 10.7393 5.89 9.5593 7.52 9.2793L10.07 8.8593C10.5 8.7893 11.01 8.4093 11.2 8.0193L12.61 5.1993C13.38 3.6793 14.62 3.6793 15.39 5.2093Z" fill="#211B2A"/>
<path d="M8 5.75H2C1.59 5.75 1.25 5.41 1.25 5C1.25 4.59 1.59 4.25 2 4.25H8C8.41 4.25 8.75 4.59 8.75 5C8.75 5.41 8.41 5.75 8 5.75Z" fill="#211B2A"/>
<path d="M5 19.75H2C1.59 19.75 1.25 19.41 1.25 19C1.25 18.59 1.59 18.25 2 18.25H5C5.41 18.25 5.75 18.59 5.75 19C5.75 19.41 5.41 19.75 5 19.75Z" fill="#211B2A"/>
<path d="M3 12.75H2C1.59 12.75 1.25 12.41 1.25 12C1.25 11.59 1.59 11.25 2 11.25H3C3.41 11.25 3.75 11.59 3.75 12C3.75 12.41 3.41 12.75 3 12.75Z" fill="#211B2A"/>
</svg>
