<svg width="24" height="24" viewBox="0 0 24 24" fill="none" xmlns="http://www.w3.org/2000/svg">
<path d="M18.7 14.4605C18.35 14.8105 18.15 15.5105 18.26 15.9905L18.95 19.0105C19.24 20.2605 19.06 21.2005 18.44 21.6505C18.19 21.8305 17.89 21.9205 17.54 21.9205C17.03 21.9205 16.43 21.7305 15.77 21.3405L12.84 19.6005C12.38 19.3305 11.62 19.3305 11.16 19.6005L8.23001 21.3405C7.12001 21.9905 6.17001 22.1005 5.56001 21.6505C5.52001 21.6205 5.48001 21.5905 5.45001 21.5505L18.07 8.93052C18.53 8.47052 19.18 8.26052 19.82 8.37052L19.97 8.40052C21.03 8.58052 21.74 9.06052 21.97 9.76052C22.19 10.4605 21.89 11.2705 21.13 12.0305L18.7 14.4605Z" fill="#211B2A"/>
<path d="M5.73998 16C5.84998 15.52 5.64998 14.81 5.29998 14.46L2.86998 12.03C2.10998 11.27 1.80998 10.46 2.02998 9.76C2.25998 9.06 2.96998 8.58 4.02998 8.4L7.14998 7.88C7.59998 7.8 8.14998 7.4 8.35998 6.99L10.08 3.54C10.58 2.55 11.26 2 12 2C12.74 2 13.42 2.55 13.92 3.54L15.64 6.99C15.77 7.25 16.04 7.5 16.33 7.67L5.06998 18.93L5.73998 16Z" fill="#211B2A"/>
<path d="M21.77 2.23086C21.47 1.93086 20.98 1.93086 20.68 2.23086L2.23 20.6909C1.93 20.9909 1.93 21.4809 2.23 21.7809C2.38 21.9209 2.57 22.0009 2.77 22.0009C2.97 22.0009 3.16 21.9209 3.31 21.7709L21.77 3.31086C22.08 3.01086 22.08 2.53086 21.77 2.23086Z" fill="#211B2A"/>
</svg>
